<svg id="Component_50_2" data-name="Component 50 – 2" xmlns="http://www.w3.org/2000/svg" xmlns:xlink="http://www.w3.org/1999/xlink" width="130.404" height="127.763" viewBox="0 0 130.404 127.763">
  <defs>
    <linearGradient id="linear-gradient" x1="-0.109" y1="0.955" x2="0.911" gradientUnits="objectBoundingBox">
      <stop offset="0" stop-color="#39bcd2"/>
      <stop offset="0.337" stop-color="#22a7b6"/>
      <stop offset="0.477" stop-color="#199eab"/>
      <stop offset="1" stop-color="#126b9a"/>
    </linearGradient>
    <linearGradient id="linear-gradient-2" x1="0.5" x2="0.5" y2="1" gradientUnits="objectBoundingBox">
      <stop offset="0" stop-color="#39bcd2"/>
      <stop offset="0.539" stop-color="#199eab"/>
      <stop offset="1" stop-color="#126b9a"/>
    </linearGradient>
  </defs>
  <path id="Path_34702" data-name="Path 34702" d="M411.839,24.219q-9.408,22.027-18.816,44.054c-7.56,17.681-16.43,36.1-35.732,43.931h0q-1.9.772-3.869,1.377l-.024.008.024-.008c-8.014,2.464-16.377,2.814-24.581,2.816q-1.268,0-2.532-.009c-9.326-.063-18.647-.17-27.968-.248-4.124-.046-8.73-.118-12.433-2.689l-.026-.018.025.018a10.176,10.176,0,0,1-4.4-8.129q0-.281.018-.564h0a8.321,8.321,0,0,1,6.164-7.512,7.973,7.973,0,0,1,1.769-.19,30.538,30.538,0,0,1,4.772.687,70.793,70.793,0,0,0,7.593.741c1.547.072,3.1.1,4.647.1,3.471,0,6.953-.155,10.439-.347,7.247-.395,14.482-.947,21.413-2.74,10.875-2.808,21.219-8.805,28.037-17.756l.748.571-.765-.546c15.634-21.9,21.9-49.154,35.13-72.88a1.692,1.692,0,0,0,.221-.829,1.675,1.675,0,0,0-1.638-1.678l-.194.011A190.142,190.142,0,0,0,367.11,9.384h0c-22.466,6.483-45.651,16.435-59.207,36-5.569,8.028-9.979,16.827-14.245,25.681-4.339,9-6.246,13.383-9.889,22.7a.94.94,0,1,1-1.751-.686c3.648-9.328,5.6-13.806,9.945-22.827,4.276-8.87,8.725-17.76,14.394-25.936,13.993-20.154,37.629-30.2,60.231-36.73h0A192.045,192.045,0,0,1,399.659.523,3.553,3.553,0,0,1,403.117,5.8C390.038,29.2,383.775,56.531,367.876,78.86l-.007.012-.01.012c-7.135,9.357-17.847,15.537-29.062,18.437-7.147,1.847-14.508,2.4-21.78,2.8-3.5.192-7.015.35-10.542.35-1.576,0-3.155-.031-4.736-.106a72.531,72.531,0,0,1-7.8-.761,30.162,30.162,0,0,0-4.482-.665,6.045,6.045,0,0,0-1.352.144,6.464,6.464,0,0,0-4.7,5.8l0,.047,0-.046c-.009.146-.014.292-.014.439a8.314,8.314,0,0,0,3.6,6.589h0c3.05,2.154,7.253,2.325,11.371,2.35,9.325.078,18.645.185,27.965.248q1.258.008,2.519.009c8.151,0,16.323-.361,24.028-2.733h0q1.885-.581,3.715-1.322h0C375.05,103,383.75,85.213,391.294,67.535Q400.7,45.508,410.11,23.481a.94.94,0,1,1,1.729.738Z" transform="translate(-281.511 -0.5)" fill="url(#linear-gradient)"/>
  <path id="Path_34703" data-name="Path 34703" d="M354.034,116.97c-.029-.009-.046-.056-.042-.126q.08-1.64.157-3.285c.07-1.5.354-3.086-.264-4.512a2.957,2.957,0,0,0-1.1-1.336,1.9,1.9,0,0,0-1.766-.186,2.41,2.41,0,0,0-1.076,1.223c-.14.3-.254.609-.383.911-.046.106-.332.846-.5.715-.083-.064-.048-.26-.039-.348.136-1.32.068-2.661.272-3.972a4.968,4.968,0,0,1,.958-2.278,2.191,2.191,0,0,1,3.542-.27,4.207,4.207,0,0,1,1.245,2.621,33.67,33.67,0,0,1,.134,3.552,31.589,31.589,0,0,1-.7,6.41,2.141,2.141,0,0,1-.349.815c-.04.055-.074.074-.1.066" transform="translate(-285.537 -6.598)" fill="#0f3f66"/>
  <path id="Path_34704" data-name="Path 34704" d="M413.52,30.392c-.017-.006-.026-.033-.024-.073q.047-.955.091-1.912a5.819,5.819,0,0,0-.153-2.625A1.725,1.725,0,0,0,412.8,25a1.1,1.1,0,0,0-1.029-.108,1.4,1.4,0,0,0-.625.712c-.082.174-.148.355-.223.53-.027.061-.194.492-.29.416-.048-.037-.028-.151-.023-.2.08-.768.039-1.55.158-2.312a2.9,2.9,0,0,1,.558-1.326,1.274,1.274,0,0,1,2.061-.157,2.442,2.442,0,0,1,.725,1.525,19.431,19.431,0,0,1,.079,2.067,18.438,18.438,0,0,1-.407,3.731,1.249,1.249,0,0,1-.2.474c-.024.032-.043.043-.058.039" transform="translate(-289.21 -1.789)" fill="#0f3f66"/>
  <path id="Path_34705" data-name="Path 34705" d="M388.31,77.818s-3.853-4.2-3.981-4.348a21.2,21.2,0,0,1-3.7,3.923l3.259,3.392-3.31,3.13s3.424,4.4,3.726,5.393c.006.018.024.016.025,0,.14-2.475,3.752-5.065,3.752-5.065l-3.01-3.447Z" transform="translate(-287.42 -4.852)" fill="#0f3f66"/>
  <path id="Path_34706" data-name="Path 34706" d="M300.307,111.49s-2.506-2.729-2.589-2.829a13.8,13.8,0,0,1-2.407,2.552l2.12,2.206-2.152,2.036a29.375,29.375,0,0,1,2.423,3.508c0,.012.016.01.017,0,.09-1.61,2.44-3.294,2.44-3.294l-1.958-2.243Z" transform="translate(-282.332 -6.951)" fill="#0f3f66"/>
  <path id="Path_34707" data-name="Path 34707" d="M395.531,46.68a3.923,3.923,0,0,0,1.436.591,1.561,1.561,0,0,0,.3-.38,8.155,8.155,0,0,1,2.323,3.928q.591,1.944,1.141,1.986.381.042.909-4.5t1.752-4.541a1.453,1.453,0,0,1,1.12.7,3.793,3.793,0,0,1,.485.7q.381,0,.549-1.014a1.937,1.937,0,0,0,0-1.31,2.966,2.966,0,0,0-2.154-1.309q-1.521-.044-2.2,3.928-.379,2.155-.717,4.309a13.19,13.19,0,0,1-.888-2.2q-2.323-4.478-4.435-4.392-1.1,0-.888,2.365.086.506,1.268,1.141" transform="translate(-288.234 -2.947)" fill="#0f3f66"/>
  <path id="Path_34708" data-name="Path 34708" d="M321.961,111.069a2.216,2.216,0,0,0,.814.336.892.892,0,0,0,.168-.216,4.631,4.631,0,0,1,1.317,2.229q.334,1.1.647,1.126.216.025.515-2.551t.994-2.576a.824.824,0,0,1,.635.395,2.137,2.137,0,0,1,.276.4q.216,0,.311-.576a1.1,1.1,0,0,0,0-.742,1.679,1.679,0,0,0-1.221-.743q-.863-.025-1.246,2.228-.216,1.221-.407,2.444a7.447,7.447,0,0,1-.5-1.246q-1.319-2.54-2.516-2.492-.623,0-.5,1.342.048.288.718.647" transform="translate(-283.88 -6.921)" fill="#0f3f66"/>
  <path id="Path_34709" data-name="Path 34709" d="M405.368,30.838h0q-.01.179-.027.768c.023.229.015.347-.022.357a.9.9,0,0,1-.262-.105,8.412,8.412,0,0,0-.965-.326,7.658,7.658,0,0,1-1.855,2.9,16.707,16.707,0,0,1-2.054,1.722q-.676.533-.844.344-.14-.08.642-.875,1.388-1.367,1.886-1.911a7.243,7.243,0,0,0,1.441-2.26,3.466,3.466,0,0,0-.713-.042q-1.141-.1-1.331-.813a2.724,2.724,0,0,1,.335-2.021,2.3,2.3,0,0,1,1.238-1.269q.928-.25,1.339,1.279a4.1,4.1,0,0,1,.072,1.8c.706.161,1.08.315,1.118.46m-1.947-1.584h0q-.19-.709-.845-.533-.928.248-.723,1.013.073.274,1.668.547a3.557,3.557,0,0,0-.1-1.027" transform="translate(-288.538 -2.097)" fill="#0f3f66"/>
  <path id="Path_34710" data-name="Path 34710" d="M336.031,115.5h0c-.019.112-.056.354-.107.725,0,.218-.023.33-.058.336a.819.819,0,0,1-.237-.128,8.048,8.048,0,0,0-.88-.41,7.289,7.289,0,0,1-2.065,2.548,15.793,15.793,0,0,1-2.128,1.414q-.7.433-.836.237-.123-.092.7-.762,1.46-1.148,1.99-1.611a6.884,6.884,0,0,0,1.6-1.989,3.394,3.394,0,0,0-.671-.116q-1.069-.219-1.174-.911a2.6,2.6,0,0,1,.531-1.879,2.192,2.192,0,0,1,1.309-1.072q.906-.137,1.132,1.354a3.906,3.906,0,0,1-.121,1.708q.979.341,1.011.555m-1.677-1.707h0q-.106-.693-.745-.6-.906.138-.792.884.039.267,1.522.695a3.41,3.41,0,0,0,.014-.984" transform="translate(-284.385 -7.143)" fill="#0f3f66"/>
  <path id="Path_34711" data-name="Path 34711" d="M362.3,101.459a20.711,20.711,0,0,1,1.158-1.828c.432-.621.854-1.248,1.277-1.874a10.918,10.918,0,0,0,1.521-3.339c.077-.293.152-.587.228-.882a.227.227,0,0,0-.015-.21c-.056-.062-.126-.014-.15.066-.046.154-.112.344-.127.427a5.049,5.049,0,0,1-.5,1.366,9.4,9.4,0,0,1-.909,1.477c-.673.956-1.339,1.916-2.007,2.876a14.445,14.445,0,0,0-2.669,8.29,7.486,7.486,0,0,0,.688,3.231,2.694,2.694,0,0,0,2.444,1.841c3.157,0,4.345-3.646,4.611-6.228a4.753,4.753,0,0,0-.844-3.607,2.038,2.038,0,0,0-1.518-.815,1.919,1.919,0,0,0-1.826,1.518,17.9,17.9,0,0,0-.506,2.529,14.75,14.75,0,0,0-.211,1.8l.085.211a18,18,0,0,0,1.826.478,4.381,4.381,0,0,0,.478-1.841,1.459,1.459,0,0,0-.056-.449,2.322,2.322,0,0,0-1.545-.379,1.811,1.811,0,0,1,1.671-1.222,1.983,1.983,0,0,1,1.2.366,1.25,1.25,0,0,1,.575,1.067,4.447,4.447,0,0,1-1.194,2.739,3.356,3.356,0,0,1-2.473,1.532,2.4,2.4,0,0,1-.308-.014q-2.473-.351-2.473-3.682a11.075,11.075,0,0,1,.795-3.757,12.475,12.475,0,0,1,.781-1.683" transform="translate(-286.199 -6.035)" fill="#0f3f66"/>
  <path id="Path_34712" data-name="Path 34712" d="M414.271,17.425h0a3.682,3.682,0,0,1-.286,1.047q-.381.858-.571.857a11.344,11.344,0,0,0-4.615.762,1.978,1.978,0,0,0-1.38,2.284q.19,1.332,1.237,5.234a32.555,32.555,0,0,1,1.142,8.185,5.83,5.83,0,0,1-.571,3.045q-.19.286-.381.286-.285,0-.095-.666a8.954,8.954,0,0,0,.286-2.379,18.577,18.577,0,0,0-.857-5.52,57.478,57.478,0,0,1-1.808-8.375,4.354,4.354,0,0,1,1.427-3.617,6.518,6.518,0,0,1,3.331-1.332,1.86,1.86,0,0,0-1.522-1.048,1.479,1.479,0,0,0-1.333,1.048c-.127.38-.222.571-.286.571-.253,0-.381-.254-.381-.762a4.171,4.171,0,0,1,.762-1.807,2.808,2.808,0,0,1,2.094-1.428q.379,0,2.093,1.666t1.713,1.95" transform="translate(-288.958 -1.294)" fill="#0f3f66"/>
  <path id="Path_34713" data-name="Path 34713" d="M382.286,97.7h0a11.075,11.075,0,0,1-8.57,3.614q-3.718-.1-3.717-2.478a11.505,11.505,0,0,1,3.51-6.4q-2.065-1.343-2.065-2.581a4.736,4.736,0,0,1,1.6-2.736,4.368,4.368,0,0,1,2.943-1.7q1.136,0,1.136,1.445a3.126,3.126,0,0,1-.31,1.136q-.309.724-.62.723a.666.666,0,0,1-.309-.413.81.81,0,0,0-.827-.62,2.565,2.565,0,0,0-1.033.413q-.722.413-.722.826,0,1.343,2.891,1.343a3.759,3.759,0,0,0,1.859-.929q.825-.724,1.342-.62.31,0-.1,1.652a2.232,2.232,0,0,1-1.032.826,13.134,13.134,0,0,0-4.131,2.788q-2.581,2.169-2.581,3.2,0,1.549,3.51,1.549a17.315,17.315,0,0,0,6.712-1.652,1.3,1.3,0,0,1,.827-.1q.206.207-.31.723" transform="translate(-286.789 -5.565)" fill="#0f3f66"/>
  <path id="Path_34714" data-name="Path 34714" d="M392.266,72.169q4.787,0,4.787-9.064a14.089,14.089,0,0,0-1.654-5.668,45.172,45.172,0,0,0,5.332-2.83l.011-.141-.119-.055a50.1,50.1,0,0,1-5.419,2.623,28.307,28.307,0,0,0-3.569-5.375l-.055.391q0,1.272.025,1.359l1.2,4.735a16.89,16.89,0,0,0-4.189,2.764,6.267,6.267,0,0,0-1.785,4.559,7.7,7.7,0,0,0,.653,2.709q1.59,3.993,4.777,3.994m.2-17.486.022-.076a13.306,13.306,0,0,1,1.85,2.8l-1.11.544q-.762-3.167-.762-3.265m-3.34,6.779a13.572,13.572,0,0,1,3.8-2.883q1.078,4.679,1.22,5.745l.119.066.108-.066a.4.4,0,0,0,.044-.207q-.293-2.011-1.076-5.751l1.216-.572a14.274,14.274,0,0,1,2.122,6.54,6.78,6.78,0,0,1-1.045,3.472,4.476,4.476,0,0,1-2.676,2.3,5.4,5.4,0,0,1-1.284.174,3.807,3.807,0,0,1-2.634-1.022,5.207,5.207,0,0,1-1.49-2.437,4,4,0,0,1-.207-1.055,6.414,6.414,0,0,1,1.785-4.3" transform="translate(-287.793 -3.551)" fill="#004060"/>
  <path id="Path_34715" data-name="Path 34715" d="M347.307,115.918h0a3.084,3.084,0,0,1-.5,1.912,1.693,1.693,0,0,1-2.338.142,1.524,1.524,0,0,1-.779-.85q-.213-.425-.425-.071-.779,1.7-2.054,1.7a1.8,1.8,0,0,1-1.063-.355,2.782,2.782,0,0,1-.921-1.275,9.972,9.972,0,0,1-.354-3.682q-.566.071-.566-.283a3.135,3.135,0,0,1,.425-.992,2.84,2.84,0,0,1,.5-.779q.708,0,.638,1.771a11.1,11.1,0,0,0,.177,2.9,1.172,1.172,0,0,0,1.239.991,1.809,1.809,0,0,0,1.239-.567,1.658,1.658,0,0,0,.531-1.416,13.444,13.444,0,0,0-.355-2.373,1.1,1.1,0,0,1-.071-.673c.047-.141.119-.4.213-.779q.141-.425.425-.071a4.931,4.931,0,0,1,.425,1.062,10.312,10.312,0,0,1,.212,2.267,2.9,2.9,0,0,0,.5,1.558,1.377,1.377,0,0,0,1.629.5.454.454,0,0,0,.283-.425,14.382,14.382,0,0,0-1.2-3.187,1.584,1.584,0,0,1-.141-.709.291.291,0,0,1,.071-.213q.284-1.2.5-1.2t.283.708a8.5,8.5,0,0,0,.78,2.054,5.949,5.949,0,0,1,.708,2.338" transform="translate(-284.899 -7.08)" fill="#0f3f66"/>
  <path id="Path_34716" data-name="Path 34716" d="M328.513,112.291h0q-.127-.181.133-.766a1.787,1.787,0,0,1,.381-.651l7.5-2.991a53.735,53.735,0,0,0,6.882-3.222,1.655,1.655,0,0,1,.023.916,1.23,1.23,0,0,1-.287.739,139.987,139.987,0,0,1-14.63,5.975" transform="translate(-284.312 -6.713)" fill="#0f3f66"/>
  <path id="Path_34717" data-name="Path 34717" d="M321.148,115.191h0a2.968,2.968,0,0,1-1.537,2.5,11.976,11.976,0,0,1-3.652,1.217,18.892,18.892,0,0,1-4.036.513,6.556,6.556,0,0,1-1.537-.576q-1.282-.577-1.282-.769,0-.127,1.538-.128a12.926,12.926,0,0,0,2.819-.256,7.54,7.54,0,0,0,2.371-2.115,7.19,7.19,0,0,0,1.089-2.883q0-1.346-.961-1.345-.577,0-1.089.832c-.128.257-.192.192-.192-.192a2.338,2.338,0,0,1,.449-1.154q.64-.961,1.153-.961,1.282,0,1.282,1.6a7.484,7.484,0,0,1-.321,2.242q-.257.642-.449,1.282a4.884,4.884,0,0,1,2.115-1.153q2.241,0,2.242,1.345m-1.089.705h0q0-.128-.608-.353a2.965,2.965,0,0,0-.865-.224,4.085,4.085,0,0,0-2.307,1.025q-1.281.9-1.282,1.281a15.8,15.8,0,0,0,3.172-.736q1.89-.608,1.89-.993" transform="translate(-283.157 -7.024)" fill="#0f3f66"/>
  <path id="Path_34718" data-name="Path 34718" d="M292.621,113.735h0a3.54,3.54,0,0,1-1.055,2.869,6.008,6.008,0,0,1-1.382.743,3.047,3.047,0,0,1-.812.243.1.1,0,0,1-.07-.018c-.011-.034.081-.109.276-.225a7.069,7.069,0,0,0,.865-.553,9.505,9.505,0,0,0,1.3-1.124,2.157,2.157,0,0,0,.588-1.4,4.2,4.2,0,0,0-.708-2.213,20.668,20.668,0,0,0-1.383-1.781q-.329.536-.951,1.625a4.093,4.093,0,0,0-.519,1.988,1.106,1.106,0,0,0,.4.821,1.152,1.152,0,0,0,1.746-.06.994.994,0,0,0,.311-.623.492.492,0,0,0-.173-.432.528.528,0,0,1-.5.4.5.5,0,0,1-.389-.19.644.644,0,0,1-.164-.432,1.376,1.376,0,0,1,.172-.64c.127-.264.277-.4.449-.4a.768.768,0,0,1,.692.4,1.554,1.554,0,0,1,.207.812,3.531,3.531,0,0,1-.38,1.66,1.407,1.407,0,0,1-1.3.882,1.258,1.258,0,0,1-1.124-.726,2.542,2.542,0,0,1-.345-1.28A7.763,7.763,0,0,1,290.046,110a2.006,2.006,0,0,1-.588-1.21,4.735,4.735,0,0,1,.242-1.27,4.5,4.5,0,0,1,.5-1.184,2.391,2.391,0,0,1,.415.761,3.333,3.333,0,0,1,.276,1.21,3.563,3.563,0,0,1-.293,1.262,13.763,13.763,0,0,1,1.435,1.884,4.554,4.554,0,0,1,.588,2.282m-2.023-5.186h0a2.333,2.333,0,0,0-.519-1.21,3.769,3.769,0,0,0-.31.917.521.521,0,0,0,.034.19,3.066,3.066,0,0,0,.554.829,1.365,1.365,0,0,0,.242-.726" transform="translate(-281.92 -6.813)" fill="#0f3f66"/>
  <path id="Path_34719" data-name="Path 34719" d="M361.849,55.756s-10.166-11.072-10.5-11.473a56,56,0,0,1-9.767,10.352l8.6,8.95-8.735,8.258s9.034,11.619,9.832,14.23c.015.047.065.041.068-.008.369-6.531,9.9-13.364,9.9-13.364L353.3,63.6Z" transform="translate(-285.086 -3.111)" fill="#0f3f66"/>
  <path id="Path_34720" data-name="Path 34720" d="M295.316,134.683h0l5.99-5.689,5.991,5.689.052-27.831a90.533,90.533,0,0,1-12.158-.766Z" transform="translate(-282.37 -6.92)" fill="url(#linear-gradient-2)"/>
  <path id="Path_34721" data-name="Path 34721" d="M327.378,87.218a.34.34,0,0,1-.622.261c-3.492-6.346-6.629-12.851-8.141-20.027-1.685-7.995-.954-15.654,3.487-22.734,2.786-4.442,6.886-7.3,11.471-9.57a64.923,64.923,0,0,1,13.554-4.668,4.131,4.131,0,0,0,2.964-2.286,26.739,26.739,0,0,1,3.772-5.984c.481-.53.923-1.2,1.8-.828a11.359,11.359,0,0,0,7.371.795,1.827,1.827,0,0,1,2,2.809l-.038.054a29.477,29.477,0,0,1-17.381,11.423c-3.944.988-7.9,1.913-11.829,2.972-10.855,2.932-14.965,9.812-15.443,20.747-.307,7.052,1.974,13.523,4.663,19.864a33.439,33.439,0,0,1,1.261,3.469Z" transform="translate(-283.674 -1.739)" fill="#0f3f66"/>
</svg>
