<svg xmlns="http://www.w3.org/2000/svg" xmlns:xlink="http://www.w3.org/1999/xlink" width="342.14" height="95.027" viewBox="0 0 342.14 95.027">
  <defs>
    <clipPath id="clip-path">
      <rect id="Rectangle_20574" data-name="Rectangle 20574" width="342.14" height="95.027" fill="none"/>
    </clipPath>
  </defs>
  <g id="Group_27214" data-name="Group 27214" transform="translate(0 0)">
    <g id="Group_27213" data-name="Group 27213" transform="translate(0 0)" clip-path="url(#clip-path)">
      <path id="Path_34667" data-name="Path 34667" d="M17.614,9.173a2.741,2.741,0,0,0,2.024-.8,2.63,2.63,0,0,0,.8-1.928,2.638,2.638,0,0,0-.8-1.93,2.962,2.962,0,0,0-4.047,0,2.632,2.632,0,0,0-.8,1.93,2.624,2.624,0,0,0,.8,1.928,2.739,2.739,0,0,0,2.024.8" transform="translate(4.683 1.177)" fill="#0f3f66"/>
      <path id="Path_34668" data-name="Path 34668" d="M3.81,29.521a9.438,9.438,0,0,0,3.482.564H34.907V11.362H29.5V24.628H7.621a2.659,2.659,0,0,1-1.741-.448,2.62,2.62,0,0,1-.517-1.953v-7.01H0V23.17A9.785,9.785,0,0,0,.353,25.8a5.422,5.422,0,0,0,1.2,2.211A5.948,5.948,0,0,0,3.81,29.521" transform="translate(0 3.598)" fill="#0f3f66"/>
      <path id="Path_34669" data-name="Path 34669" d="M12.041,9.173a2.736,2.736,0,0,0,2.022-.8,2.626,2.626,0,0,0,.8-1.928,2.634,2.634,0,0,0-.8-1.93,2.746,2.746,0,0,0-2.022-.8,2.747,2.747,0,0,0-2.024.8,2.632,2.632,0,0,0-.8,1.93,2.624,2.624,0,0,0,.8,1.928,2.737,2.737,0,0,0,2.024.8" transform="translate(2.919 1.177)" fill="#0f3f66"/>
      <path id="Path_34670" data-name="Path 34670" d="M197.356,0h-5.315V28.226h-4.97a1.69,1.69,0,0,0-.3-.047h-1.693a4.952,4.952,0,0,1-2.234-.42,3.43,3.43,0,0,1-1.247-1.006,3,3,0,0,1-.541-1.239,6.243,6.243,0,0,1-.117-1.076q0-5.234-2.423-8.133a8.6,8.6,0,0,0-6.986-2.9,9.448,9.448,0,0,0-6.939,2.968,9.958,9.958,0,0,0-2.024,3.273,11.425,11.425,0,0,0-.728,4.137A8.673,8.673,0,0,1,161.6,26a3.685,3.685,0,0,1-.635,1.356,1.952,1.952,0,0,1-.918.654,3.422,3.422,0,0,1-1.035.163h-1.834a1.378,1.378,0,0,0-.358.047h-.583a6.053,6.053,0,0,1-3.223-.682,2.556,2.556,0,0,1-1.059-2.329,13.656,13.656,0,0,0-.8-4.727,10.86,10.86,0,0,0-2.282-3.764,10.514,10.514,0,0,0-3.575-2.47,11.827,11.827,0,0,0-4.682-.894,11.45,11.45,0,0,0-5.974,1.6,14.67,14.67,0,0,0-4.375,3.905V14.912h-5.363V28.226h-8a5.906,5.906,0,0,1-3.2-.706,2.594,2.594,0,0,1-1.081-2.353,15.1,15.1,0,0,0-.706-4.7,10.939,10.939,0,0,0-2.047-3.741,9.313,9.313,0,0,0-3.339-2.47,11.156,11.156,0,0,0-4.587-.894,11.694,11.694,0,0,0-6.021,1.6,14.485,14.485,0,0,0-4.423,3.905V0H86.242V28.226H78.48q-2.4,0-3.269-1.223a5.224,5.224,0,0,1-.87-3.1V0h-5.41V25.78a3.815,3.815,0,0,1-.353,1.787,1.428,1.428,0,0,1-1.388.66H61.826a2.021,2.021,0,0,1-1.551-.66,5.051,5.051,0,0,1-.989-1.622,11.8,11.8,0,0,1-.587-2.07q-.213-1.1-.307-2.046a15.113,15.113,0,0,0-.611-2.989,8.981,8.981,0,0,0-1.435-2.8,7.329,7.329,0,0,0-2.494-2.07,8.1,8.1,0,0,0-3.787-.8,12.53,12.53,0,0,0-2.093.188q-1.106.188-2.14.448t-1.953.541c-.611.187-1.106.345-1.483.47l1.318,5.127a12.659,12.659,0,0,1,2.916-1.011,12.229,12.229,0,0,1,2.4-.305,3.69,3.69,0,0,1,2.657.965,5.294,5.294,0,0,1,1.247,3.363,17.472,17.472,0,0,0,.541,3.34,9.617,9.617,0,0,0,.775,1.929H37.412V0H32.049V33.682H52.7a5.783,5.783,0,0,0,2.046-.377A3.966,3.966,0,0,0,56.6,31.612a8.349,8.349,0,0,0,2.424,1.459,7.757,7.757,0,0,0,2.986.611h5.41a7.212,7.212,0,0,0,3.435-.775,5.33,5.33,0,0,0,2.258-2.329,7.106,7.106,0,0,0,1.905,2.141,5.2,5.2,0,0,0,3.269.964h27.332a7.871,7.871,0,0,0,3.693-.823,5.567,5.567,0,0,0,2.375-2.282,7.025,7.025,0,0,0,1.834,2.165,5.143,5.143,0,0,0,3.293.94h28.132a8.331,8.331,0,0,0,3.669-.752,4.851,4.851,0,0,0,2.305-2.305,6.76,6.76,0,0,0,1.928,2.117,5.387,5.387,0,0,0,3.293.94H159.3a4.557,4.557,0,0,0,2.775-.9,6.007,6.007,0,0,0,1.881-2.279,8.621,8.621,0,0,0,2.893,2.467,9.312,9.312,0,0,0,4.446.949c.753,0,1.489-.032,2.212-.095a8.2,8.2,0,0,0,2.068-.45,6.684,6.684,0,0,0,1.929-1.115,8.571,8.571,0,0,0,1.788-2.088,6.12,6.12,0,0,0,5.646,3.513h12.418ZM106.988,27.59a1.34,1.34,0,0,1-1.317.636H91.6a10.677,10.677,0,0,1,1.036-3.669A11.567,11.567,0,0,1,94.8,21.476a10.073,10.073,0,0,1,3.01-2.117,8.36,8.36,0,0,1,3.529-.777,5.4,5.4,0,0,1,4.563,1.834,8.241,8.241,0,0,1,1.411,5.128,4.717,4.717,0,0,1-.329,2.046m39.28,0a1.236,1.236,0,0,1-1.269.636H130.367a10.706,10.706,0,0,1,1.036-3.669,11.859,11.859,0,0,1,2.14-3.081,9.872,9.872,0,0,1,2.964-2.117,8.2,8.2,0,0,1,3.5-.777,6.288,6.288,0,0,1,4.893,1.81,7.475,7.475,0,0,1,1.646,5.2,5.235,5.235,0,0,1-.282,2m28.531-.463a4.791,4.791,0,0,1-6.633,0,5.142,5.142,0,0,1-1.059-3.3,6.516,6.516,0,0,1,.353-2.2,5.486,5.486,0,0,1,.941-1.685,4.039,4.039,0,0,1,1.388-1.077,3.934,3.934,0,0,1,1.693-.374,3.84,3.84,0,0,1,1.647.374,4.076,4.076,0,0,1,1.388,1.077,5.9,5.9,0,0,1,.964,1.685,6.144,6.144,0,0,1,.377,2.2,5.142,5.142,0,0,1-1.059,3.3" transform="translate(10.148 0)" fill="#0f3f66"/>
      <rect id="Rectangle_20571" data-name="Rectangle 20571" width="5.315" height="33.683" transform="translate(215.221)" fill="#0f3f66"/>
      <path id="Path_34671" data-name="Path 34671" d="M213.651,33.468a2.762,2.762,0,0,0,1.982-.781,2.617,2.617,0,0,0,.816-1.97,2.563,2.563,0,0,0-.816-1.924,2.758,2.758,0,0,0-1.982-.782,2.818,2.818,0,0,0-2.03.782,2.558,2.558,0,0,0-.816,1.924,2.612,2.612,0,0,0,.816,1.97,2.823,2.823,0,0,0,2.03.781" transform="translate(66.747 8.87)" fill="#0f3f66"/>
      <path id="Path_34672" data-name="Path 34672" d="M284.874,16.724a9.3,9.3,0,0,0-1.717-3.378,7.928,7.928,0,0,0-2.916-2.207,9.914,9.914,0,0,0-4.117-.8,9.4,9.4,0,0,0-6.962,2.931,9.746,9.746,0,0,0-2.046,3.306,11.683,11.683,0,0,0-.729,4.174q0,4.408-2.916,4.408h-5.6a26.243,26.243,0,0,1-3.293-.142,16.445,16.445,0,0,0,4.045-5.268,11.5,11.5,0,0,0,1.035-4.423,3.683,3.683,0,0,0-.565-1.858,5.785,5.785,0,0,0-1.693-1.764,9.368,9.368,0,0,0-2.869-1.293,15.24,15.24,0,0,0-4.141-.494,14.888,14.888,0,0,0-3.1.329,20.212,20.212,0,0,0-3.035.894,19.782,19.782,0,0,0-2.8,1.317,16.98,16.98,0,0,0-2.352,1.6l.187,3.763A7.919,7.919,0,0,0,240,19.256q.519.871,1.223,1.834t1.552,1.953a23.513,23.513,0,0,0,1.695,1.788,11.035,11.035,0,0,1-1.365.234,15.741,15.741,0,0,1-1.834.095H235.62a2.029,2.029,0,0,1-1.552-.658,5.054,5.054,0,0,1-.987-1.623,11.794,11.794,0,0,1-.589-2.07q-.211-1.1-.305-2.046a15.135,15.135,0,0,0-.611-2.989,8.981,8.981,0,0,0-1.435-2.8,7.356,7.356,0,0,0-2.494-2.07,8.1,8.1,0,0,0-3.787-.8,12.671,12.671,0,0,0-2.093.188q-1.106.188-2.14.448t-1.953.541c-.612.187-1.106.345-1.483.47l1.318,5.127a12.658,12.658,0,0,1,2.916-1.011,12.218,12.218,0,0,1,2.4-.305,3.693,3.693,0,0,1,2.658.965,5.294,5.294,0,0,1,1.247,3.363,17.489,17.489,0,0,0,.54,3.34,9.689,9.689,0,0,0,.777,1.929H212.711a4.694,4.694,0,0,1-2.234-.448,3.5,3.5,0,0,1-1.247-1.059,2.951,2.951,0,0,1-.517-1.246,7.187,7.187,0,0,1-.093-1.012V20.079a12.49,12.49,0,0,0-.682-4.187,8.94,8.94,0,0,0-5.1-5.434,10.532,10.532,0,0,0-4.139-.775,9.375,9.375,0,0,0-4.211.918,9.592,9.592,0,0,0-3.128,2.421,10.867,10.867,0,0,0-1.953,3.459,11.988,11.988,0,0,0-.682,3.975v4.61h-1.693a7.958,7.958,0,0,0-5.739,2.117q-2.212,2.117-2.211,6.257v12.89h5.363V34.756a5.287,5.287,0,0,1,.729-3.268,2.743,2.743,0,0,1,2.234-.87h10.349A14.614,14.614,0,0,0,203,29.746,7.9,7.9,0,0,0,206.69,26.9a7.954,7.954,0,0,0,2.423,2.611,6.036,6.036,0,0,0,3.552,1.106h13.83a5.791,5.791,0,0,0,2.046-.378,3.972,3.972,0,0,0,1.858-1.693,8.349,8.349,0,0,0,2.424,1.459,7.759,7.759,0,0,0,2.986.612h5.457a18.673,18.673,0,0,0,4.116-.471,13.674,13.674,0,0,0,3.883-1.5,16.271,16.271,0,0,0,3.244,1.317,17.962,17.962,0,0,0,5.269.66H263.8a4.942,4.942,0,0,0,2.657-.777,5.108,5.108,0,0,0,1.953-2.423,7.414,7.414,0,0,0,1.669,1.623,8.077,8.077,0,0,0,1.929.987,9.425,9.425,0,0,0,2.047.47,18.139,18.139,0,0,0,2.068.118,10.408,10.408,0,0,0,4.3-.8,8.055,8.055,0,0,0,2.894-2.137,8.179,8.179,0,0,0,1.623-3.073,12.984,12.984,0,0,0,.494-3.568,15.636,15.636,0,0,0-.565-4.317m-82.629,7.118q-.966,1.224-3.693,1.223h-4.423V20.926a8.849,8.849,0,0,1,.377-2.775,5.13,5.13,0,0,1,1.011-1.834A3.639,3.639,0,0,1,197,15.3,5.383,5.383,0,0,1,198.833,15a3.943,3.943,0,0,1,3.245,1.388,5.911,5.911,0,0,1,1.13,3.834,5.771,5.771,0,0,1-.964,3.622m51.911-5.926a9.508,9.508,0,0,1-1.035,1.741,12.338,12.338,0,0,1-1.576,1.739,11.422,11.422,0,0,1-1.953,1.459,11.691,11.691,0,0,1-1.764-1.5,24.415,24.415,0,0,1-1.622-1.835,21.062,21.062,0,0,1-1.271-1.741,9.774,9.774,0,0,1-.706-1.223,9.614,9.614,0,0,1,2.823-1.059,14.763,14.763,0,0,1,3.293-.4c.5,0,1,.025,1.481.071a10.43,10.43,0,0,1,1.342.212,2.909,2.909,0,0,1,.987.4.759.759,0,0,1,.377.636,3.778,3.778,0,0,1-.377,1.506M279.3,24.078a4.685,4.685,0,0,1-6.633-.024,5.4,5.4,0,0,1-1.011-3.269,6.56,6.56,0,0,1,.353-2.211,5.493,5.493,0,0,1,.941-1.695,4.026,4.026,0,0,1,1.386-1.081,3.928,3.928,0,0,1,1.695-.377,3.673,3.673,0,0,1,1.623.377,4.1,4.1,0,0,1,1.364,1.081,5.909,5.909,0,0,1,.964,1.695,6.155,6.155,0,0,1,.377,2.211,5.207,5.207,0,0,1-1.059,3.293" transform="translate(56.701 3.066)" fill="#0f3f66"/>
      <path id="Path_34673" data-name="Path 34673" d="M3.979,43.317a2.727,2.727,0,0,0,0,3.858,2.739,2.739,0,0,0,2.022.8,2.742,2.742,0,0,0,2.022-.8,2.724,2.724,0,0,0,0-3.858A2.746,2.746,0,0,0,6,42.518a2.744,2.744,0,0,0-2.022.8" transform="translate(1.007 13.463)" fill="#0f3f66"/>
      <path id="Path_34674" data-name="Path 34674" d="M17.261,51.489a8.277,8.277,0,0,0-2.869-1.929,9.693,9.693,0,0,0-3.693-.682,9.331,9.331,0,0,0-4.046.87,9.869,9.869,0,0,0-3.174,2.375A10.749,10.749,0,0,0,1.407,55.63a12.192,12.192,0,0,0-.728,4.209,10.785,10.785,0,0,0,.564,3.434,8.09,8.09,0,0,0,1.835,3.035,9.276,9.276,0,0,0,3.269,2.163,12.789,12.789,0,0,0,4.869.824h8.515V58.239a10.866,10.866,0,0,0-.635-3.787,8.47,8.47,0,0,0-1.835-2.964M14.368,63.838H11.075A6.983,6.983,0,0,1,9.17,63.58a4.337,4.337,0,0,1-1.623-.848,4.243,4.243,0,0,1-1.13-1.5,5.315,5.315,0,0,1-.423-2.234,5.128,5.128,0,0,1,.377-2.022,4.9,4.9,0,0,1,.987-1.529,4.49,4.49,0,0,1,1.388-.989,3.763,3.763,0,0,1,1.576-.353,3.48,3.48,0,0,1,3.01,1.435,6.97,6.97,0,0,1,1.036,4.116Z" transform="translate(0.215 15.477)" fill="#0f3f66"/>
      <path id="Path_34675" data-name="Path 34675" d="M9.554,43.317a2.724,2.724,0,0,0,0,3.858,2.742,2.742,0,0,0,2.024.8,2.744,2.744,0,0,0,2.022-.8,2.727,2.727,0,0,0,0-3.858,2.748,2.748,0,0,0-2.022-.8,2.747,2.747,0,0,0-2.024.8" transform="translate(2.771 13.463)" fill="#0f3f66"/>
      <path id="Path_34676" data-name="Path 34676" d="M85.032,62.778a6.6,6.6,0,0,1-.941-1.646,8.416,8.416,0,0,1-.494-1.812c-.093-.612-.172-1.23-.236-1.858a16.734,16.734,0,0,0-.8-3.482,8.344,8.344,0,0,0-1.577-2.75,6.845,6.845,0,0,0-2.492-1.788,8.848,8.848,0,0,0-3.5-.636,14.9,14.9,0,0,0-2.188.165q-1.106.166-2.117.4t-1.905.517q-.893.282-1.459.517l1.365,5.174a13.041,13.041,0,0,1,2.847-.987A11.838,11.838,0,0,1,74,54.263a3.641,3.641,0,0,1,2.728.965A5.592,5.592,0,0,1,77.9,58.591a9.075,9.075,0,0,0,.964,3.457,13.8,13.8,0,0,0,1.153,1.812H41.069a3.892,3.892,0,0,1-3.244-1.247,5.765,5.765,0,0,1-.989-3.646,15.623,15.623,0,0,0-.494-4.022,8.341,8.341,0,0,0-1.623-3.222,7.558,7.558,0,0,0-3.011-2.141,12.107,12.107,0,0,0-4.61-.777H21.548V53.98h4.469a7.929,7.929,0,0,1,3.034.471,3.511,3.511,0,0,1,1.671,1.386,5.5,5.5,0,0,1,.706,2.354q.14,1.434.141,3.317a3.29,3.29,0,0,1-.377,1.787,1.632,1.632,0,0,1-1.458.565H19.008v5.456h11.1a6.965,6.965,0,0,0,3.363-.8,5.561,5.561,0,0,0,2.282-2.258A6.92,6.92,0,0,0,37.731,68.4a5.411,5.411,0,0,0,3.245.916H86.56V64.095a5.5,5.5,0,0,1-1.529-1.317" transform="translate(6.019 15.454)" fill="#0f3f66"/>
      <path id="Path_34677" data-name="Path 34677" d="M147.537,67.028H134.946a1.689,1.689,0,0,0-.3-.047h-1.693a4.962,4.962,0,0,1-2.236-.42,3.425,3.425,0,0,1-1.246-1.006,3,3,0,0,1-.542-1.239,6.342,6.342,0,0,1-.116-1.076q0-5.234-2.424-8.133a8.593,8.593,0,0,0-6.986-2.9,9.447,9.447,0,0,0-6.939,2.968,9.954,9.954,0,0,0-2.022,3.273,11.4,11.4,0,0,0-.729,4.137,8.732,8.732,0,0,1-.234,2.22,3.686,3.686,0,0,1-.636,1.356,1.958,1.958,0,0,1-.918.656,3.448,3.448,0,0,1-1.035.162h-1.834a1.393,1.393,0,0,0-.358.047H93.061v-5.6a11.222,11.222,0,0,0-.612-3.788,8.338,8.338,0,0,0-1.787-2.962,8.043,8.043,0,0,0-2.847-1.929,9.95,9.95,0,0,0-3.787-.682,9.177,9.177,0,0,0-4.022.87,9.668,9.668,0,0,0-3.128,2.375,10.982,10.982,0,0,0-2.046,3.5,12.17,12.17,0,0,0-.729,4.211,10.792,10.792,0,0,0,.565,3.434A8.24,8.24,0,0,0,76.48,69.5a9.026,9.026,0,0,0,3.244,2.163,12.942,12.942,0,0,0,4.918.823h3.151a5.6,5.6,0,0,1-.587,2.565,3.958,3.958,0,0,1-1.459,1.5,5.955,5.955,0,0,1-2.093.729,15.824,15.824,0,0,1-2.494.188c-.6,0-1.3-.033-2.117-.093s-1.677-.158-2.586-.283l-.377,5.269a25.008,25.008,0,0,0,2.587.305q1.175.069,2.258.07a18.118,18.118,0,0,0,4.75-.587,10.782,10.782,0,0,0,3.764-1.81,8.687,8.687,0,0,0,2.54-3.176,12.154,12.154,0,0,0,1.082-4.682h14.113a4.557,4.557,0,0,0,2.775-.9,6.007,6.007,0,0,0,1.881-2.279,8.608,8.608,0,0,0,2.893,2.467,9.31,9.31,0,0,0,4.445.949c.754,0,1.49-.032,2.212-.095a8.2,8.2,0,0,0,2.07-.45,6.7,6.7,0,0,0,1.929-1.115,8.57,8.57,0,0,0,1.788-2.088,6.116,6.116,0,0,0,5.644,3.513h20.04V38.8h-5.315Zm-59.791,0H84.452a6.99,6.99,0,0,1-1.905-.259,4.32,4.32,0,0,1-1.622-.847,4.228,4.228,0,0,1-1.13-1.5,5.319,5.319,0,0,1-.423-2.234,5.176,5.176,0,0,1,.375-2.022,4.951,4.951,0,0,1,.989-1.53,4.512,4.512,0,0,1,1.388-.989,3.891,3.891,0,0,1,1.623-.352,3.45,3.45,0,0,1,2.94,1.434,6.859,6.859,0,0,1,1.059,4.117Zm34.929-1.1a4.791,4.791,0,0,1-6.633,0,5.142,5.142,0,0,1-1.059-3.3,6.483,6.483,0,0,1,.353-2.2,5.432,5.432,0,0,1,.941-1.685,4.034,4.034,0,0,1,1.386-1.077,3.939,3.939,0,0,1,1.693-.374,3.832,3.832,0,0,1,1.647.374,4.051,4.051,0,0,1,1.388,1.077,5.876,5.876,0,0,1,.965,1.685,6.143,6.143,0,0,1,.375,2.2,5.142,5.142,0,0,1-1.057,3.3" transform="translate(23.463 12.286)" fill="#0f3f66"/>
      <rect id="Rectangle_20572" data-name="Rectangle 20572" width="5.317" height="33.682" transform="translate(184.03 51.089)" fill="#0f3f66"/>
      <path id="Path_34678" data-name="Path 34678" d="M160.783,47.975a2.735,2.735,0,0,0,2.021-.8,2.724,2.724,0,0,0,0-3.858,2.96,2.96,0,0,0-4.046,0,2.727,2.727,0,0,0,0,3.858,2.738,2.738,0,0,0,2.025.8" transform="translate(50.015 13.463)" fill="#0f3f66"/>
      <path id="Path_34679" data-name="Path 34679" d="M166.356,42.518a2.743,2.743,0,0,0-2.022.8,2.724,2.724,0,0,0,0,3.858,2.955,2.955,0,0,0,4.045,0,2.724,2.724,0,0,0,0-3.858,2.746,2.746,0,0,0-2.022-.8" transform="translate(51.78 13.463)" fill="#0f3f66"/>
      <path id="Path_34680" data-name="Path 34680" d="M188.437,66.814a2.768,2.768,0,0,0-2.022.783,2.582,2.582,0,0,0-.8,1.921,2.641,2.641,0,0,0,.8,1.97,3,3,0,0,0,4.046,0,2.645,2.645,0,0,0,.8-1.97,2.586,2.586,0,0,0-.8-1.921,2.775,2.775,0,0,0-2.024-.783" transform="translate(58.771 21.156)" fill="#0f3f66"/>
      <path id="Path_34681" data-name="Path 34681" d="M193.975,66.814a2.768,2.768,0,0,0-2.022.783,2.582,2.582,0,0,0-.8,1.921,2.641,2.641,0,0,0,.8,1.97,3,3,0,0,0,4.046,0,2.645,2.645,0,0,0,.8-1.97A2.586,2.586,0,0,0,196,67.6a2.775,2.775,0,0,0-2.024-.783" transform="translate(60.525 21.156)" fill="#0f3f66"/>
      <path id="Path_34682" data-name="Path 34682" d="M216.26,63.838H208.5a3.775,3.775,0,0,1-3.246-1.223,5.121,5.121,0,0,1-.894-3.1V50.571H199v10.82a3.822,3.822,0,0,1-.352,1.788,1.431,1.431,0,0,1-1.389.658H174.439v-5.6a10.836,10.836,0,0,0-.635-3.787,8.448,8.448,0,0,0-1.834-2.964,8.283,8.283,0,0,0-2.87-1.929,9.693,9.693,0,0,0-3.693-.682,9.321,9.321,0,0,0-4.045.87,9.627,9.627,0,0,0-3.152,2.375,11.3,11.3,0,0,0-2.07,3.506,11.82,11.82,0,0,0-.753,4.209,10.787,10.787,0,0,0,.565,3.434,8.087,8.087,0,0,0,1.834,3.035,9.282,9.282,0,0,0,3.271,2.163,12.777,12.777,0,0,0,4.868.824H197.49a6.327,6.327,0,0,0,3.41-.894,6.543,6.543,0,0,0,2.234-2.258,7.442,7.442,0,0,0,1.905,2.165,5.19,5.19,0,0,0,3.317.987h13.266V50.571H216.26Zm-47.184,0h-3.292a6.992,6.992,0,0,1-1.906-.258,4.347,4.347,0,0,1-1.623-.848,4.225,4.225,0,0,1-1.128-1.5,5.314,5.314,0,0,1-.424-2.234,5.152,5.152,0,0,1,.377-2.022,4.949,4.949,0,0,1,.987-1.529,4.505,4.505,0,0,1,1.388-.989,3.877,3.877,0,0,1,1.623-.353,3.422,3.422,0,0,1,2.987,1.435,7.1,7.1,0,0,1,1.011,4.116Z" transform="translate(49.201 15.477)" fill="#0f3f66"/>
      <path id="Path_34683" data-name="Path 34683" d="M203.789,66.814a2.819,2.819,0,0,0-2.032.783,2.556,2.556,0,0,0-.815,1.921,2.614,2.614,0,0,0,.815,1.97,2.819,2.819,0,0,0,2.032.783,2.754,2.754,0,0,0,1.982-.783,2.615,2.615,0,0,0,.816-1.97,2.557,2.557,0,0,0-.816-1.921,2.754,2.754,0,0,0-1.982-.783" transform="translate(63.625 21.156)" fill="#0f3f66"/>
      <path id="Path_34684" data-name="Path 34684" d="M257.21,67.028h-9.266a26.351,26.351,0,0,1-3.294-.141,16.436,16.436,0,0,0,4.046-5.269,11.5,11.5,0,0,0,1.036-4.423,3.676,3.676,0,0,0-.566-1.858,5.8,5.8,0,0,0-1.693-1.764A9.385,9.385,0,0,0,244.6,52.28a15.3,15.3,0,0,0-4.14-.494,15,15,0,0,0-3.106.329,20.443,20.443,0,0,0-3.034.894,20.151,20.151,0,0,0-2.8,1.317,17.192,17.192,0,0,0-2.353,1.6l.188,3.763a7.727,7.727,0,0,0,.707,1.435q.515.871,1.222,1.835t1.552,1.953a23.48,23.48,0,0,0,1.695,1.787,10.577,10.577,0,0,1-1.364.234,15.5,15.5,0,0,1-1.835.095h-6.163q-2.445,0-3.315-1.223a5.221,5.221,0,0,1-.87-3.1V53.762h-5.364V71.31a8.364,8.364,0,0,1-.706,3.858,2.856,2.856,0,0,1-2.775,1.317,10.442,10.442,0,0,1-1.152-.071c-.423-.047-.823-.1-1.2-.163l-1.318-.283-.564,5.363a3.552,3.552,0,0,0,.589.141c.2.032.429.062.682.095q.563.093,1.34.165t1.622.07a8.843,8.843,0,0,0,3.81-.775,7.958,7.958,0,0,0,2.777-2.141,9.183,9.183,0,0,0,1.692-3.2,13.312,13.312,0,0,0,.566-3.951V70.463a6.578,6.578,0,0,0,1.834,1.41,5.143,5.143,0,0,0,2.494.612h6.021a18.75,18.75,0,0,0,4.116-.47,13.653,13.653,0,0,0,3.881-1.506,16.264,16.264,0,0,0,3.247,1.318,18,18,0,0,0,5.268.658h14.678V38.8H257.21Zm-12.983-7.244a9.464,9.464,0,0,1-1.035,1.741,12.346,12.346,0,0,1-1.576,1.741,11.544,11.544,0,0,1-1.953,1.459,11.77,11.77,0,0,1-1.764-1.506,24.4,24.4,0,0,1-1.622-1.834q-.752-.94-1.271-1.741a9.8,9.8,0,0,1-.706-1.223,9.6,9.6,0,0,1,2.823-1.059,14.763,14.763,0,0,1,3.293-.4q.752,0,1.481.071a10.4,10.4,0,0,1,1.342.212,2.909,2.909,0,0,1,.987.4.76.76,0,0,1,.377.635,3.8,3.8,0,0,1-.377,1.506" transform="translate(65.831 12.286)" fill="#0f3f66"/>
      <rect id="Rectangle_20573" data-name="Rectangle 20573" width="5.317" height="33.682" transform="translate(336.072 51.089)" fill="#0f3f66"/>
    </g>
  </g>
</svg>
