<svg id="Component_48_1" data-name="Component 48 – 1" xmlns="http://www.w3.org/2000/svg" xmlns:xlink="http://www.w3.org/1999/xlink" width="125.244" height="112.953" viewBox="0 0 125.244 112.953">
  <defs>
    <clipPath id="clip-path">
      <rect id="Rectangle_20581" data-name="Rectangle 20581" width="125.244" height="112.953" fill="none"/>
    </clipPath>
    <linearGradient id="linear-gradient" x1="1.034" y1="-0.111" x2="-0.061" y2="1" gradientUnits="objectBoundingBox">
      <stop offset="0" stop-color="#39bcd2"/>
      <stop offset="0.539" stop-color="#199eab"/>
      <stop offset="1" stop-color="#126b9a"/>
    </linearGradient>
  </defs>
  <g id="Group_27966" data-name="Group 27966">
    <g id="Group_27965" data-name="Group 27965" clip-path="url(#clip-path)">
      <path id="Path_34733" data-name="Path 34733" d="M77.336,114.257c-.027-.009-.042-.051-.039-.115q.073-1.493.143-2.99c.063-1.363.322-2.809-.241-4.107a2.691,2.691,0,0,0-1-1.216,1.726,1.726,0,0,0-1.608-.169,2.193,2.193,0,0,0-.979,1.114c-.128.272-.231.555-.348.829-.042.1-.3.77-.453.651-.075-.058-.044-.237-.035-.317.124-1.2.062-2.423.247-3.616a4.524,4.524,0,0,1,.872-2.074A1.994,1.994,0,0,1,77.124,102a3.83,3.83,0,0,1,1.133,2.386,30.65,30.65,0,0,1,.122,3.233,28.757,28.757,0,0,1-.635,5.835,1.948,1.948,0,0,1-.318.742c-.036.05-.068.068-.091.06" transform="translate(-10.478 -14.585)" fill="#0f3f66"/>
      <path id="Path_34734" data-name="Path 34734" d="M137.01,28.215c-.015-.005-.024-.03-.022-.067q.042-.869.083-1.74a5.3,5.3,0,0,0-.14-2.39,1.57,1.57,0,0,0-.58-.708,1.006,1.006,0,0,0-.936-.1,1.271,1.271,0,0,0-.569.648c-.074.158-.134.323-.2.483-.025.056-.176.448-.264.378-.044-.033-.026-.138-.021-.184.073-.7.036-1.411.144-2.1a2.641,2.641,0,0,1,.508-1.207,1.16,1.16,0,0,1,1.876-.143,2.223,2.223,0,0,1,.66,1.388,17.71,17.71,0,0,1,.072,1.882,16.785,16.785,0,0,1-.371,3.4,1.137,1.137,0,0,1-.184.431c-.021.029-.039.039-.053.035" transform="translate(-19.345 -2.976)" fill="#0f3f66"/>
      <path id="Path_34735" data-name="Path 34735" d="M111.369,75.993s-3.507-3.82-3.623-3.958a19.3,19.3,0,0,1-3.368,3.571l2.967,3.088-3.013,2.849s3.117,4.008,3.392,4.909c.005.016.022.015.023,0,.128-2.253,3.415-4.61,3.415-4.61l-2.74-3.138Z" transform="translate(-15.023 -10.372)" fill="#0f3f66"/>
      <path id="Path_34736" data-name="Path 34736" d="M34.645,108.7s-1.739-1.893-1.8-1.962a9.56,9.56,0,0,1-1.67,1.77l1.471,1.531-1.493,1.412a20.405,20.405,0,0,1,1.681,2.434c0,.008.011.007.011,0,.063-1.116,1.692-2.285,1.692-2.285l-1.358-1.555Z" transform="translate(-4.486 -15.369)" fill="#0f3f66"/>
      <path id="Path_34737" data-name="Path 34737" d="M119.167,44.784a3.571,3.571,0,0,0,1.307.538,1.42,1.42,0,0,0,.27-.346,7.423,7.423,0,0,1,2.114,3.576q.538,1.769,1.038,1.808.347.039.828-4.1t1.595-4.134a1.323,1.323,0,0,1,1.02.634,3.459,3.459,0,0,1,.442.635q.347,0,.5-.923a1.763,1.763,0,0,0,0-1.192,2.7,2.7,0,0,0-1.961-1.192q-1.384-.04-2,3.576-.345,1.962-.653,3.922a12.008,12.008,0,0,1-.808-2q-2.115-4.077-4.037-4-1,0-.808,2.153.078.461,1.154,1.038" transform="translate(-16.988 -5.773)" fill="#0f3f66"/>
      <path id="Path_34738" data-name="Path 34738" d="M40.544,113.415a3.06,3.06,0,0,0,1.115.46,1.2,1.2,0,0,0,.229-.3,6.334,6.334,0,0,1,1.8,3.051q.46,1.51.886,1.542.3.033.706-3.494t1.361-3.527a1.13,1.13,0,0,1,.87.541,2.951,2.951,0,0,1,.377.542q.3,0,.426-.788a1.5,1.5,0,0,0,0-1.017,2.305,2.305,0,0,0-1.673-1.017q-1.181-.033-1.706,3.052-.3,1.673-.558,3.346a10.335,10.335,0,0,1-.689-1.706q-1.8-3.478-3.445-3.412-.853,0-.689,1.837.067.394.984.886" transform="translate(-5.692 -15.754)" fill="#0f3f66"/>
      <path id="Path_34739" data-name="Path 34739" d="M127.705,29.666h0c-.009.153-.021.482-.035.988.028.294.02.446-.027.459a1.134,1.134,0,0,1-.337-.135,10.732,10.732,0,0,0-1.241-.419,9.843,9.843,0,0,1-2.385,3.726,21.455,21.455,0,0,1-2.641,2.214c-.58.458-.942.6-1.085.443q-.178-.1.826-1.125,1.785-1.759,2.425-2.458a9.3,9.3,0,0,0,1.853-2.905,4.483,4.483,0,0,0-.918-.055q-1.465-.134-1.71-1.045a3.5,3.5,0,0,1,.431-2.6,2.955,2.955,0,0,1,1.593-1.632q1.193-.321,1.721,1.644a5.259,5.259,0,0,1,.093,2.307q1.364.312,1.438.592m-2.5-2.036h0q-.245-.913-1.087-.686-1.193.32-.929,1.3.094.351,2.144.7a4.591,4.591,0,0,0-.128-1.32" transform="translate(-17.268 -3.611)" fill="#0f3f66"/>
      <path id="Path_34740" data-name="Path 34740" d="M58.466,114.217h0c-.017.1-.051.322-.1.66,0,.2-.021.3-.053.306a.746.746,0,0,1-.216-.116,7.327,7.327,0,0,0-.8-.373,6.635,6.635,0,0,1-1.88,2.32,14.374,14.374,0,0,1-1.937,1.287q-.634.394-.761.216-.112-.083.639-.693,1.329-1.045,1.811-1.466a6.267,6.267,0,0,0,1.46-1.81,3.09,3.09,0,0,0-.611-.105q-.973-.2-1.069-.829a2.364,2.364,0,0,1,.484-1.71,2,2,0,0,1,1.192-.976q.824-.125,1.031,1.233a3.556,3.556,0,0,1-.11,1.555q.891.311.92.505m-1.526-1.554h0q-.1-.63-.678-.542-.824.126-.721.8.037.243,1.386.633a3.1,3.1,0,0,0,.013-.9" transform="translate(-7.589 -15.971)" fill="#0f3f66"/>
      <path id="Path_34741" data-name="Path 34741" d="M84.68,97.625a23.44,23.44,0,0,1,1.293-2.041c.483-.692.954-1.392,1.426-2.091a12.207,12.207,0,0,0,1.7-3.727c.086-.327.17-.656.254-.984a.253.253,0,0,0-.017-.234c-.062-.07-.14-.016-.167.074-.052.171-.126.383-.142.476a5.651,5.651,0,0,1-.559,1.525,10.516,10.516,0,0,1-1.015,1.65c-.752,1.067-1.495,2.139-2.239,3.209a16.118,16.118,0,0,0-2.98,9.253A8.347,8.347,0,0,0,83,108.339a3.006,3.006,0,0,0,2.728,2.054c3.523,0,4.849-4.069,5.145-6.951a5.305,5.305,0,0,0-.942-4.026,2.276,2.276,0,0,0-1.694-.91A2.142,2.142,0,0,0,86.2,100.2a20.09,20.09,0,0,0-.565,2.822,16.37,16.37,0,0,0-.235,2.007l.094.235a19.792,19.792,0,0,0,2.038.532,4.875,4.875,0,0,0,.533-2.054,1.633,1.633,0,0,0-.063-.5,2.591,2.591,0,0,0-1.724-.423,2.023,2.023,0,0,1,1.865-1.364,2.215,2.215,0,0,1,1.334.408,1.4,1.4,0,0,1,.643,1.192,4.973,4.973,0,0,1-1.333,3.058,3.747,3.747,0,0,1-2.761,1.709,2.937,2.937,0,0,1-.345-.015q-2.759-.393-2.76-4.111a12.345,12.345,0,0,1,.888-4.193,13.613,13.613,0,0,1,.871-1.879" transform="translate(-11.84 -12.745)" fill="#0f3f66"/>
      <path id="Path_34742" data-name="Path 34742" d="M137.085,13.727h0a4,4,0,0,1-.311,1.135q-.412.928-.619.928a12.288,12.288,0,0,0-5,.825,2.143,2.143,0,0,0-1.5,2.476q.207,1.445,1.341,5.674a35.288,35.288,0,0,1,1.238,8.871,6.314,6.314,0,0,1-.62,3.3c-.137.206-.275.309-.412.309q-.309,0-.1-.722a9.651,9.651,0,0,0,.31-2.579,20.174,20.174,0,0,0-.928-5.983q-1.961-7.633-1.961-9.076a4.721,4.721,0,0,1,1.549-3.921,7.062,7.062,0,0,1,3.61-1.444,2.015,2.015,0,0,0-1.65-1.134,1.6,1.6,0,0,0-1.443,1.134c-.139.413-.241.619-.31.619-.275,0-.413-.275-.413-.825a4.519,4.519,0,0,1,.825-1.959,3.046,3.046,0,0,1,2.269-1.548q.412,0,2.269,1.805t1.858,2.114" transform="translate(-18.506 -1.412)" fill="#0f3f66"/>
      <path id="Path_34743" data-name="Path 34743" d="M104.342,93.453h0a10.082,10.082,0,0,1-7.8,3.29q-3.385-.094-3.384-2.256a10.473,10.473,0,0,1,3.2-5.828q-1.88-1.222-1.88-2.35a4.311,4.311,0,0,1,1.457-2.491,3.976,3.976,0,0,1,2.679-1.551q1.034,0,1.034,1.316a2.847,2.847,0,0,1-.282,1.034q-.281.659-.564.658a.606.606,0,0,1-.282-.376.737.737,0,0,0-.752-.564,2.335,2.335,0,0,0-.94.376q-.657.376-.657.752,0,1.222,2.631,1.222a3.422,3.422,0,0,0,1.692-.846q.751-.659,1.222-.564.282,0-.094,1.5a2.032,2.032,0,0,1-.939.752,11.956,11.956,0,0,0-3.76,2.538q-2.35,1.975-2.35,2.914,0,1.41,3.2,1.41a15.762,15.762,0,0,0,6.11-1.5,1.181,1.181,0,0,1,.752-.094q.187.189-.282.658" transform="translate(-13.414 -11.846)" fill="#0f3f66"/>
      <path id="Path_34744" data-name="Path 34744" d="M113.792,68.38q4.358,0,4.358-8.251a12.824,12.824,0,0,0-1.506-5.16,41.117,41.117,0,0,0,4.854-2.576l.01-.128-.109-.05a45.594,45.594,0,0,1-4.933,2.387,25.77,25.77,0,0,0-3.249-4.893l-.05.356q0,1.158.023,1.237l1.1,4.31a15.376,15.376,0,0,0-3.814,2.516,5.7,5.7,0,0,0-1.625,4.15,7.01,7.01,0,0,0,.594,2.466q1.447,3.635,4.349,3.635m.178-15.917.02-.069a12.111,12.111,0,0,1,1.684,2.546l-1.01.5q-.693-2.883-.693-2.972m-3.041,6.171a12.356,12.356,0,0,1,3.457-2.625q.981,4.259,1.11,5.229l.109.06.1-.06a.352.352,0,0,0,.039-.188q-.266-1.831-.978-5.235l1.107-.52a12.993,12.993,0,0,1,1.932,5.954,6.172,6.172,0,0,1-.951,3.16,4.075,4.075,0,0,1-2.436,2.09,4.911,4.911,0,0,1-1.168.158,3.466,3.466,0,0,1-2.4-.93,4.739,4.739,0,0,1-1.357-2.219,3.642,3.642,0,0,1-.188-.96,5.839,5.839,0,0,1,1.625-3.913" transform="translate(-15.673 -7.158)" fill="#004060"/>
      <path id="Path_34745" data-name="Path 34745" d="M69.2,114.252h0a2.807,2.807,0,0,1-.451,1.74,1.541,1.541,0,0,1-2.128.129,1.388,1.388,0,0,1-.709-.774q-.194-.386-.387-.064-.709,1.547-1.87,1.548a1.635,1.635,0,0,1-.967-.323,2.532,2.532,0,0,1-.838-1.161A9.079,9.079,0,0,1,61.525,112q-.515.064-.515-.258a2.854,2.854,0,0,1,.387-.9,2.584,2.584,0,0,1,.451-.709q.645,0,.58,1.612a10.1,10.1,0,0,0,.161,2.643,1.067,1.067,0,0,0,1.128.9,1.646,1.646,0,0,0,1.128-.516,1.509,1.509,0,0,0,.484-1.289,12.244,12.244,0,0,0-.323-2.16,1,1,0,0,1-.064-.613c.043-.128.108-.365.193-.709q.128-.386.387-.064a4.49,4.49,0,0,1,.387.966,9.385,9.385,0,0,1,.193,2.064,2.643,2.643,0,0,0,.451,1.418,1.253,1.253,0,0,0,1.483.451.413.413,0,0,0,.258-.387,13.093,13.093,0,0,0-1.1-2.9,1.442,1.442,0,0,1-.128-.645.265.265,0,0,1,.064-.193q.258-1.1.451-1.1t.258.645a7.738,7.738,0,0,0,.71,1.87,5.416,5.416,0,0,1,.645,2.128" transform="translate(-8.785 -15.783)" fill="#0f3f66"/>
      <path id="Path_34746" data-name="Path 34746" d="M50.91,109.724h0q-.146-.208.155-.888a2.054,2.054,0,0,1,.441-.752l8.681-3.463a62.24,62.24,0,0,0,7.967-3.73,1.915,1.915,0,0,1,.027,1.06,1.433,1.433,0,0,1-.333.857,162.411,162.411,0,0,1-16.937,6.917" transform="translate(-7.324 -14.527)" fill="#0f3f66"/>
      <path id="Path_34747" data-name="Path 34747" d="M39.1,116.481h0a1.718,1.718,0,0,1-.891,1.448,6.945,6.945,0,0,1-2.115.705,10.969,10.969,0,0,1-2.338.3,3.807,3.807,0,0,1-.891-.334q-.742-.334-.742-.445,0-.074.891-.074a7.525,7.525,0,0,0,1.632-.148,4.374,4.374,0,0,0,1.374-1.225,4.168,4.168,0,0,0,.631-1.67q0-.779-.557-.779-.334,0-.631.482c-.074.149-.111.111-.111-.111a1.349,1.349,0,0,1,.26-.668q.371-.557.668-.556.742,0,.742.927a4.326,4.326,0,0,1-.186,1.3q-.148.371-.259.742A2.832,2.832,0,0,1,37.8,115.7q1.3,0,1.3.779m-.631.408h0q0-.074-.353-.2a1.7,1.7,0,0,0-.5-.13,2.365,2.365,0,0,0-1.336.594q-.742.519-.742.741a9.138,9.138,0,0,0,1.837-.426q1.1-.353,1.095-.575" transform="translate(-4.625 -16.329)" fill="#0f3f66"/>
      <path id="Path_34748" data-name="Path 34748" d="M15.123,110.833h0a3.7,3.7,0,0,1-1.1,3,6.354,6.354,0,0,1-1.446.777,3.181,3.181,0,0,1-.849.253.1.1,0,0,1-.072-.018q-.018-.054.288-.235a7.349,7.349,0,0,0,.9-.579,9.962,9.962,0,0,0,1.355-1.174,2.257,2.257,0,0,0,.615-1.464,4.384,4.384,0,0,0-.74-2.313,21.622,21.622,0,0,0-1.446-1.862q-.344.561-.994,1.7A4.274,4.274,0,0,0,11.093,111a1.157,1.157,0,0,0,.416.858,1.2,1.2,0,0,0,1.825-.063,1.034,1.034,0,0,0,.325-.651.512.512,0,0,0-.181-.451.552.552,0,0,1-.524.415.52.52,0,0,1-.407-.2.672.672,0,0,1-.172-.452,1.428,1.428,0,0,1,.181-.669q.2-.416.47-.416a.8.8,0,0,1,.723.416,1.627,1.627,0,0,1,.217.849,3.681,3.681,0,0,1-.4,1.735,1.469,1.469,0,0,1-1.355.922,1.314,1.314,0,0,1-1.174-.759,2.65,2.65,0,0,1-.361-1.337,8.121,8.121,0,0,1,1.752-4.265,2.1,2.1,0,0,1-.614-1.264,4.92,4.92,0,0,1,.253-1.329,4.679,4.679,0,0,1,.524-1.238,2.5,2.5,0,0,1,.434.8,3.487,3.487,0,0,1,.289,1.264,3.725,3.725,0,0,1-.307,1.32,14.23,14.23,0,0,1,1.5,1.97,4.749,4.749,0,0,1,.615,2.386m-2.114-5.422h0a2.441,2.441,0,0,0-.542-1.265,3.905,3.905,0,0,0-.325.958.529.529,0,0,0,.036.2,3.224,3.224,0,0,0,.578.868,1.426,1.426,0,0,0,.253-.759" transform="translate(-1.538 -14.845)" fill="#0f3f66"/>
    </g>
  </g>
  <path id="Path_34749" data-name="Path 34749" d="M60.635,73.9c-.7-2.276-8.637-12.4-8.637-12.4l7.67-7.2-7.551-7.8A49.154,49.154,0,0,0,60.7,37.466c.291.351,9.218,10.007,9.218,10.007l-7.507,6.84,6.976,7.927S61.021,68.2,60.7,73.889c-.005.023-.02.037-.034.037s-.022-.009-.026-.029m-20.3,2.423c-3.065-5.53-5.822-11.205-7.148-17.454-1.481-6.968-.839-13.645,3.065-19.817C38.7,35.172,42.3,32.681,46.331,30.7a57.1,57.1,0,0,1,11.9-4.066,3.635,3.635,0,0,0,2.6-1.995,23.087,23.087,0,0,1,3.313-5.214c.419-.47.8-1.052,1.583-.727A10.012,10.012,0,0,0,72.2,19.4a1.6,1.6,0,0,1,1.756,2.448.17.17,0,0,0-.034.051A25.911,25.911,0,0,1,58.657,31.85c-3.466.865-6.942,1.669-10.383,2.594C38.739,36.994,35.134,43,34.715,52.523c-.274,6.146,1.73,11.787,4.093,17.317a29.894,29.894,0,0,1,1.1,3.022l.976,3.236a.293.293,0,0,1-.293.377.285.285,0,0,1-.254-.154M111.318,0c-.073,0-.146.007-.221.015a174.046,174.046,0,0,0-29.969,6.4c-20.51,5.924-41.817,15.023-54.357,33.1C21.652,46.882,17.621,54.937,13.734,63,9.78,71.21,5.259,79.282,1.938,87.764A23.513,23.513,0,0,0,0,95.956v.13a10.469,10.469,0,0,0,.621,3.594c1.335,3.647,4.87,6.12,8.593,7.208s7.678,1,11.556.933c3.9-.068,7.828-.011,11.761.045,6.42.092,12.851.184,19.184-.267,8.535-.6,16.966-1.455,24.936-4.836a41.64,41.64,0,0,0,11.907-7.524C95.9,88.5,100.1,79.094,104.094,69.96q10.2-23.266,20.391-46.541a7.111,7.111,0,0,0,.758-2.641V20.67a3.124,3.124,0,0,0-.04-.453,2.022,2.022,0,0,0-2.242-1.763c-.856.222-1.31,1.129-1.661,1.943q-8.564,20.056-17.13,40.1C97.3,76.594,89.3,93.072,72.115,100.032c-1.131.462-2.286.873-3.451,1.232-7.892,2.423-16.238,2.569-24.422,2.518-8.492-.061-16.974-.154-25.457-.231-3.758-.026-7.765-.138-10.838-2.286a8.347,8.347,0,0,1-3.621-7.155,6.72,6.72,0,0,1,4.939-6.061c1.917-.437,3.758.171,5.633.462a66.571,66.571,0,0,0,7.011.685,137.768,137.768,0,0,0,13.817-.223,100.454,100.454,0,0,0,19.663-2.518c10.049-2.6,19.637-8.14,25.988-16.477C95.722,49.844,101.433,25,113.4,3.558A2.384,2.384,0,0,0,111.419,0Z" fill="url(#linear-gradient)"/>
  <g id="Group_27970" data-name="Group 27970">
    <g id="Group_27969" data-name="Group 27969" clip-path="url(#clip-path)">
      <path id="Path_34750" data-name="Path 34750" d="M16.216,127.812h0l5.26-4.959,5.259,4.959v-23.68a67.568,67.568,0,0,1-10.52-.937Z" transform="translate(-2.335 -14.859)" fill="#0f3f66"/>
    </g>
  </g>
</svg>
