<svg id="Component_54_1" data-name="Component 54 – 1" xmlns="http://www.w3.org/2000/svg" xmlns:xlink="http://www.w3.org/1999/xlink" width="1439.367" height="368.192" viewBox="0 0 1439.367 368.192">
  <defs>
    <linearGradient id="linear-gradient" x1="-1.012" y1="3.874" x2="-1.004" y2="3.874" gradientUnits="objectBoundingBox">
      <stop offset="0" stop-color="#e6e6e6"/>
      <stop offset="0.539" stop-color="#e1e1e1"/>
      <stop offset="1" stop-color="#cddbe2"/>
    </linearGradient>
    <clipPath id="clip-path">
      <path id="Path_34757" data-name="Path 34757" d="M147.436,77.893c-1.37,2.978-2.7,6.013-4,9.075-3.737,8.747-6.2,14.1-8.582,19.279s-4.852,10.547-8.595,19.307a.561.561,0,1,0,1.031.441c3.737-8.747,6.2-14.1,8.581-19.278s4.853-10.548,8.6-19.307c1.372-3.215,2.764-6.4,4.207-9.516Zm117.21,0c-.832,1.773-1.737,3.67-2.75,5.774-4.909,10.187-10.267,20.946-17.029,30.695-17.62,25.4-48.9,36.784-70.9,43.135-15.063,4.425-27.5,7.08-39.148,8.357a2.464,2.464,0,0,1-2.371-1.113,2.548,2.548,0,0,1-.1-2.693c6.6-11.827,11.833-24.636,16.891-37.024,6.543-16.023,13.3-32.561,23.093-47.131h-1.348c-9.64,14.518-16.314,30.862-22.784,46.707-5.045,12.356-10.262,25.133-16.832,36.9a3.7,3.7,0,0,0,.145,3.859,3.571,3.571,0,0,0,3.01,1.632,4.031,4.031,0,0,0,.417-.024c11.714-1.283,24.214-3.952,39.339-8.394,22.161-6.4,53.681-17.878,71.5-43.572,6.809-9.814,12.19-20.621,17.118-30.848,1.108-2.3,2.085-4.348,2.979-6.26Z" transform="translate(-126.21 -77.893)" fill="url(#linear-gradient)"/>
    </clipPath>
    <clipPath id="clip-path-2">
      <path id="Path_34758" data-name="Path 34758" d="M134.683,77.893c-8.615,18.994-18.9,35.88-38.288,43.731-1.46.593-2.965,1.129-4.476,1.594-10.243,3.15-20.9,3.339-31.819,3.27q-10-.066-20.006-.173-6.668-.066-13.337-.123c-4.388-.037-9.848-.083-13.874-2.9a10.359,10.359,0,0,1-4.509-8.876,8.275,8.275,0,0,1,6.043-7.425,13.019,13.019,0,0,1,5.447.3c.572.112,1.145.224,1.721.314a85.276,85.276,0,0,0,9.235.9,175.082,175.082,0,0,0,18.157-.291c8.36-.456,17.242-1.091,25.857-3.317,14.251-3.683,26.448-11.417,34.354-21.793q1.828-2.563,3.523-5.211h-1.332q-1.5,2.3-3.092,4.547C100.54,92.6,88.561,100.193,74.553,103.812c-8.515,2.2-17.334,2.83-25.638,3.284a175.459,175.459,0,0,1-18.043.291,84.466,84.466,0,0,1-9.115-.891c-.562-.087-1.121-.2-1.679-.307a14.061,14.061,0,0,0-5.908-.291,9.308,9.308,0,0,0-6.914,8.443,11.5,11.5,0,0,0,4.986,9.868c4.311,3.018,9.964,3.067,14.506,3.106q6.67.056,13.338.123,10,.1,20.007.173,1.535.012,3.065.011c9.945,0,19.664-.433,29.093-3.332,1.539-.475,3.076-1.02,4.565-1.625,19.92-8.067,30.344-25.37,39.1-44.772Z" transform="translate(-7.235 -77.893)" fill="url(#linear-gradient)"/>
    </clipPath>
    <clipPath id="clip-path-3">
      <path id="Path_34759" data-name="Path 34759" d="M409.4,77.893c-1.37,2.978-2.7,6.013-4,9.075-3.736,8.747-6.2,14.1-8.581,19.279s-4.853,10.547-8.595,19.307a.561.561,0,1,0,1.031.441c3.736-8.747,6.2-14.1,8.582-19.278s4.852-10.548,8.594-19.307c1.373-3.215,2.765-6.4,4.208-9.516Zm117.211,0c-.832,1.773-1.737,3.67-2.75,5.774-4.91,10.187-10.269,20.946-17.03,30.695-17.618,25.4-48.9,36.784-70.9,43.135-15.063,4.425-27.5,7.08-39.149,8.357a2.463,2.463,0,0,1-2.37-1.113,2.548,2.548,0,0,1-.1-2.693c6.6-11.827,11.833-24.636,16.89-37.024C417.747,109,424.5,92.465,434.3,77.893h-1.348c-9.641,14.518-16.314,30.862-22.784,46.707-5.045,12.356-10.263,25.133-16.833,36.9a3.7,3.7,0,0,0,.146,3.859,3.57,3.57,0,0,0,3.01,1.632,3.992,3.992,0,0,0,.416-.024c11.715-1.283,24.216-3.952,39.341-8.394,22.158-6.4,53.68-17.878,71.5-43.572,6.808-9.814,12.189-20.621,17.119-30.848,1.107-2.3,2.084-4.348,2.978-6.26Z" transform="translate(-388.172 -77.893)" fill="url(#linear-gradient)"/>
    </clipPath>
    <clipPath id="clip-path-4">
      <path id="Path_34760" data-name="Path 34760" d="M279.453,77.893c-3.767,7.967-6,13.238-9.695,22.685a.56.56,0,0,0,1.044.408c3.756-9.606,6-14.881,9.892-23.093Zm117.191,0c-8.614,18.994-18.9,35.88-38.287,43.731-1.46.593-2.965,1.129-4.474,1.594-10.243,3.15-20.9,3.339-31.821,3.27q-10-.066-20-.173-6.67-.066-13.339-.123c-4.387-.037-9.847-.083-13.873-2.9a10.359,10.359,0,0,1-4.509-8.876,8.276,8.276,0,0,1,6.042-7.425,13.024,13.024,0,0,1,5.448.3c.572.112,1.145.224,1.72.314a85.3,85.3,0,0,0,9.235.9,175.725,175.725,0,0,0,18.158-.291c8.359-.456,17.242-1.091,25.857-3.317,14.251-3.683,26.447-11.417,34.354-21.793q1.828-2.563,3.523-5.211h-1.333q-1.5,2.3-3.091,4.547c-7.746,10.161-19.727,17.752-33.733,21.371-8.515,2.2-17.334,2.83-25.637,3.284a175.507,175.507,0,0,1-18.045.291,84.472,84.472,0,0,1-9.114-.891c-.562-.087-1.121-.2-1.679-.307a14.066,14.066,0,0,0-5.91-.291,9.308,9.308,0,0,0-6.913,8.443,11.5,11.5,0,0,0,4.986,9.868c4.311,3.018,9.965,3.067,14.507,3.106q6.67.056,13.337.123,10,.1,20.008.173,1.535.012,3.065.011c9.945,0,19.664-.433,29.091-3.332,1.54-.475,3.078-1.02,4.566-1.625,19.92-8.066,30.344-25.37,39.1-44.772Z" transform="translate(-269.197 -77.893)" fill="url(#linear-gradient)"/>
    </clipPath>
    <clipPath id="clip-path-5">
      <path id="Path_34761" data-name="Path 34761" d="M671.358,77.893c-1.37,2.978-2.7,6.013-4,9.075-3.737,8.747-6.2,14.1-8.581,19.28s-4.852,10.545-8.595,19.306a.56.56,0,1,0,1.03.441c3.737-8.746,6.2-14.1,8.582-19.278s4.852-10.547,8.595-19.307c1.372-3.215,2.765-6.4,4.208-9.516Zm117.21,0c-.831,1.773-1.736,3.67-2.75,5.774-4.908,10.186-10.267,20.946-17.028,30.695-17.62,25.4-48.9,36.784-70.9,43.135-15.063,4.425-27.5,7.08-39.148,8.357a2.472,2.472,0,0,1-2.371-1.113,2.548,2.548,0,0,1-.1-2.693c6.6-11.827,11.834-24.636,16.891-37.022,6.544-16.026,13.3-32.56,23.094-47.132h-1.348c-9.641,14.518-16.315,30.862-22.785,46.708-5.045,12.355-10.262,25.132-16.832,36.9a3.7,3.7,0,0,0,.146,3.859,3.57,3.57,0,0,0,3.01,1.632,4.026,4.026,0,0,0,.416-.024c11.714-1.283,24.216-3.952,39.34-8.394,22.159-6.4,53.681-17.878,71.5-43.572,6.809-9.816,12.189-20.621,17.118-30.848,1.107-2.3,2.084-4.349,2.978-6.26Z" transform="translate(-650.133 -77.893)" fill="url(#linear-gradient)"/>
    </clipPath>
    <clipPath id="clip-path-6">
      <path id="Path_34762" data-name="Path 34762" d="M541.414,77.893c-3.767,7.968-6,13.24-9.693,22.685a.56.56,0,0,0,1.044.408c3.756-9.6,6-14.881,9.891-23.093Zm117.192,0c-8.615,18.994-18.9,35.88-38.288,43.731-1.46.593-2.965,1.129-4.475,1.594-10.243,3.15-20.9,3.337-31.82,3.27q-10-.066-20-.173-6.67-.066-13.338-.123c-4.388-.037-9.848-.083-13.873-2.9a10.359,10.359,0,0,1-4.511-8.876,8.278,8.278,0,0,1,6.044-7.425,13.02,13.02,0,0,1,5.446.3c.572.112,1.144.224,1.72.314a85.276,85.276,0,0,0,9.235.9,175.725,175.725,0,0,0,18.158-.291c8.359-.456,17.242-1.091,25.857-3.317C613.007,101.214,625.2,93.48,633.11,83.1q1.828-2.563,3.523-5.211H635.3q-1.5,2.3-3.092,4.547c-7.745,10.162-19.724,17.752-33.732,21.371-8.516,2.2-17.335,2.83-25.638,3.284a175.8,175.8,0,0,1-18.044.291,84.471,84.471,0,0,1-9.114-.891c-.562-.087-1.121-.2-1.678-.307a14.055,14.055,0,0,0-5.911-.291,9.307,9.307,0,0,0-6.913,8.443,11.5,11.5,0,0,0,4.985,9.868c4.312,3.018,9.966,3.067,14.508,3.106q6.668.056,13.337.123,10,.1,20.007.173,1.537.012,3.065.011c9.946,0,19.664-.433,29.093-3.332,1.539-.475,3.076-1.02,4.566-1.625,19.919-8.066,30.343-25.37,39.1-44.772Z" transform="translate(-531.159 -77.893)" fill="url(#linear-gradient)"/>
    </clipPath>
    <clipPath id="clip-path-7">
      <path id="Path_34763" data-name="Path 34763" d="M933.319,77.893c-1.37,2.978-2.7,6.013-4,9.075-3.734,8.746-6.2,14.1-8.58,19.279s-4.852,10.545-8.595,19.307a.56.56,0,1,0,1.03.441c3.737-8.747,6.2-14.1,8.582-19.279s4.852-10.547,8.594-19.306c1.373-3.215,2.765-6.4,4.208-9.516Zm23.553,0c-9.641,14.518-16.314,30.862-22.784,46.707-5.045,12.355-10.262,25.133-16.832,36.9a3.7,3.7,0,0,0,.145,3.859,3.572,3.572,0,0,0,3.011,1.632,4.028,4.028,0,0,0,.416-.024c11.715-1.283,24.216-3.952,39.34-8.394,15.731-4.543,36.181-11.648,53.1-24.579v-1.416c-16.9,13.154-37.566,20.342-53.413,24.917-15.061,4.425-27.5,7.08-39.147,8.357a2.465,2.465,0,0,1-2.371-1.113,2.546,2.546,0,0,1-.1-2.693c6.6-11.827,11.833-24.636,16.89-37.024,6.543-16.023,13.3-32.561,23.093-47.131Z" transform="translate(-912.096 -77.893)" fill="url(#linear-gradient)"/>
    </clipPath>
    <clipPath id="clip-path-8">
      <path id="Path_34764" data-name="Path 34764" d="M803.377,77.893c-3.767,7.967-6,13.237-9.695,22.685a.56.56,0,0,0,1.043.408c3.757-9.607,6-14.881,9.892-23.093Zm117.191,0c-8.615,18.994-18.895,35.88-38.288,43.732-1.46.592-2.965,1.128-4.474,1.593-10.243,3.15-20.9,3.34-31.821,3.27q-10-.066-20-.173-6.67-.066-13.337-.123c-4.388-.037-9.848-.083-13.874-2.9a10.357,10.357,0,0,1-4.509-8.876,8.274,8.274,0,0,1,6.042-7.425,13.019,13.019,0,0,1,5.447.3c.572.112,1.146.224,1.721.314a85.282,85.282,0,0,0,9.234.9,175.745,175.745,0,0,0,18.159-.291c8.358-.456,17.241-1.091,25.856-3.317,14.251-3.683,26.447-11.417,34.355-21.793q1.826-2.563,3.521-5.211h-1.332q-1.5,2.3-3.092,4.547c-7.745,10.161-19.724,17.752-33.733,21.371-8.515,2.2-17.334,2.83-25.637,3.284a175.805,175.805,0,0,1-18.044.291,84.494,84.494,0,0,1-9.115-.891c-.562-.087-1.121-.2-1.678-.307a14.053,14.053,0,0,0-5.911-.291,9.308,9.308,0,0,0-6.913,8.443,11.5,11.5,0,0,0,4.986,9.868c4.311,3.018,9.965,3.067,14.508,3.106q6.668.056,13.337.123,10,.1,20.007.173,1.537.012,3.065.011c9.946,0,19.664-.433,29.091-3.332,1.542-.475,3.078-1.02,4.568-1.625,19.92-8.067,30.343-25.37,39.1-44.772Z" transform="translate(-793.12 -77.893)" fill="url(#linear-gradient)"/>
    </clipPath>
    <clipPath id="clip-path-9">
      <path id="Path_34765" data-name="Path 34765" d="M190.293,152.585c-1.542.473-3.078,1.02-4.568,1.623-22.391,9.068-32.783,29.808-42.294,52.077-3.737,8.747-6.2,14.1-8.582,19.279s-4.852,10.547-8.595,19.307a.561.561,0,0,0,1.031.441c3.737-8.746,6.2-14.1,8.581-19.279s4.853-10.545,8.6-19.307c9.415-22.045,19.687-42.572,41.684-51.478,1.46-.592,2.965-1.127,4.474-1.592,10.243-3.15,20.9-3.337,31.82-3.272q10,.067,20,.174,6.668.064,13.337.122c4.388.037,9.848.084,13.874,2.9a10.357,10.357,0,0,1,4.509,8.876,8.272,8.272,0,0,1-6.042,7.424,12.963,12.963,0,0,1-5.447-.3c-.572-.112-1.146-.223-1.721-.313a85,85,0,0,0-9.234-.9,175.7,175.7,0,0,0-18.159.289c-8.358.459-17.241,1.092-25.856,3.319-14.251,3.683-26.447,11.417-34.355,21.793-10.939,15.346-18.164,33.039-25.151,50.149-5.045,12.356-10.262,25.133-16.832,36.9a3.7,3.7,0,0,0,.145,3.859,3.571,3.571,0,0,0,3.01,1.632,4.031,4.031,0,0,0,.417-.024c11.714-1.284,24.214-3.951,39.339-8.4,22.161-6.4,53.681-17.878,71.5-43.572,6.809-9.814,12.19-20.62,17.118-30.848,5.174-10.733,7.5-16.066,11.84-27.174a.56.56,0,1,0-1.044-.408c-4.331,11.076-6.648,16.393-11.806,27.1-4.909,10.187-10.267,20.947-17.029,30.695-17.62,25.4-48.9,36.782-70.9,43.136-15.063,4.424-27.5,7.079-39.148,8.356a2.466,2.466,0,0,1-2.371-1.113,2.548,2.548,0,0,1-.1-2.693c6.6-11.828,11.833-24.637,16.891-37.023,6.962-17.05,14.161-34.683,25.015-49.908,7.745-10.162,19.724-17.752,33.733-21.372,8.515-2.2,17.334-2.829,25.637-3.284a175.8,175.8,0,0,1,18.045-.29,83.906,83.906,0,0,1,9.114.891c.562.087,1.12.2,1.678.307a14.049,14.049,0,0,0,5.91.29,9.305,9.305,0,0,0,6.913-8.443,11.5,11.5,0,0,0-4.986-9.868c-4.31-3.018-9.964-3.066-14.507-3.106q-6.668-.056-13.336-.122-10-.1-20.008-.174-1.478-.01-2.946-.01c-9.987,0-19.746.419-29.21,3.332" transform="translate(-126.21 -149.253)" fill="url(#linear-gradient)"/>
    </clipPath>
    <clipPath id="clip-path-10">
      <path id="Path_34766" data-name="Path 34766" d="M147.6,114.16c-11.715,1.284-24.216,3.952-39.34,8.4-22.159,6.4-53.681,17.878-71.5,43.572-6.809,9.814-12.19,20.62-17.119,30.848-5.173,10.733-7.5,16.066-11.84,27.175a.561.561,0,1,0,1.045.407c4.331-11.076,6.647-16.393,11.806-27.1,4.908-10.188,10.267-20.947,17.029-30.695,17.619-25.4,48.9-36.784,70.9-43.136,15.061-4.425,27.5-7.08,39.147-8.356a2.466,2.466,0,0,1,2.371,1.112,2.546,2.546,0,0,1,.1,2.693c-6.6,11.828-11.833,24.637-16.891,37.024-6.961,17.051-14.16,34.683-25.014,49.908-7.746,10.163-19.725,17.752-33.733,21.372-8.515,2.2-17.334,2.829-25.638,3.285a175.738,175.738,0,0,1-18.043.289,84.186,84.186,0,0,1-9.115-.891c-.562-.087-1.121-.2-1.679-.306a14.061,14.061,0,0,0-5.908-.291,9.308,9.308,0,0,0-6.914,8.444,11.5,11.5,0,0,0,4.986,9.867c4.311,3.019,9.964,3.067,14.506,3.106q6.67.056,13.338.122,10,.1,20.007.175,1.535.008,3.065.01c9.945,0,19.664-.433,29.093-3.332,1.539-.474,3.076-1.021,4.565-1.625,22.391-9.068,32.783-29.808,42.3-52.077q1.532-3.587,3.018-7.108c6.253-14.768,12.159-28.717,19.769-41.4a.56.56,0,0,0-.962-.575c-7.65,12.752-13.571,26.737-19.839,41.541q-1.492,3.518-3.017,7.1c-9.416,22.046-19.69,42.572-41.685,51.478-1.46.592-2.965,1.127-4.476,1.592-10.243,3.152-20.9,3.35-31.819,3.273q-10-.069-20.006-.175-6.668-.064-13.337-.122c-4.388-.037-9.848-.084-13.874-2.9a10.363,10.363,0,0,1-4.509-8.877,8.273,8.273,0,0,1,6.043-7.424,13,13,0,0,1,5.447.3c.572.112,1.145.223,1.721.313a85,85,0,0,0,9.235.9,175.044,175.044,0,0,0,18.157-.289c8.36-.459,17.242-1.092,25.857-3.319,14.251-3.682,26.448-11.417,34.354-21.793,10.941-15.346,18.165-33.038,25.152-50.149,5.045-12.356,10.261-25.133,16.831-36.9a3.7,3.7,0,0,0-.144-3.859,3.568,3.568,0,0,0-3-1.632,3.859,3.859,0,0,0-.423.024" transform="translate(-7.235 -114.136)" fill="url(#linear-gradient)"/>
    </clipPath>
    <clipPath id="clip-path-11">
      <path id="Path_34768" data-name="Path 34768" d="M409.56,114.16c-11.714,1.284-24.214,3.952-39.339,8.4-22.16,6.4-53.681,17.878-71.5,43.572-6.809,9.816-12.189,20.62-17.118,30.848-5.173,10.733-7.5,16.066-11.84,27.175a.56.56,0,1,0,1.044.407c4.331-11.076,6.648-16.393,11.807-27.1,4.908-10.188,10.267-20.947,17.028-30.695,17.62-25.4,48.9-36.784,70.9-43.136,15.061-4.425,27.5-7.08,39.148-8.356a2.465,2.465,0,0,1,2.37,1.112,2.543,2.543,0,0,1,.1,2.693c-6.6,11.828-11.833,24.637-16.89,37.024-6.963,17.051-14.162,34.681-25.015,49.908-7.746,10.162-19.727,17.752-33.733,21.372-8.515,2.2-17.334,2.829-25.637,3.285a175.787,175.787,0,0,1-18.045.289,84.192,84.192,0,0,1-9.114-.891c-.562-.087-1.121-.2-1.679-.306a14.066,14.066,0,0,0-5.91-.291,9.308,9.308,0,0,0-6.913,8.444,11.5,11.5,0,0,0,4.986,9.867c4.311,3.019,9.965,3.067,14.507,3.106q6.67.056,13.337.122,10,.1,20.008.175,1.535.008,3.065.01c9.945,0,19.664-.433,29.091-3.332,1.54-.474,3.078-1.021,4.566-1.625,22.391-9.067,32.783-29.808,42.3-52.077q1.53-3.587,3.018-7.107c6.253-14.769,12.159-28.717,19.768-41.4a.56.56,0,1,0-.961-.575c-7.651,12.752-13.571,26.737-19.84,41.542q-1.49,3.518-3.017,7.1c-9.415,22.046-19.69,42.572-41.684,51.478-1.46.592-2.965,1.127-4.474,1.592-10.243,3.152-20.9,3.35-31.821,3.273q-10-.069-20-.175-6.67-.064-13.339-.122c-4.387-.037-9.847-.084-13.873-2.9a10.363,10.363,0,0,1-4.509-8.877,8.273,8.273,0,0,1,6.042-7.424,13.006,13.006,0,0,1,5.448.3c.572.112,1.145.223,1.72.313a85.026,85.026,0,0,0,9.235.9,176.006,176.006,0,0,0,18.158-.289c8.359-.459,17.242-1.092,25.857-3.319,14.251-3.682,26.447-11.417,34.354-21.793,10.94-15.346,18.165-33.038,25.152-50.149,5.045-12.356,10.262-25.133,16.831-36.9a3.7,3.7,0,0,0-.144-3.859,3.57,3.57,0,0,0-3-1.632,3.863,3.863,0,0,0-.424.024" transform="translate(-269.197 -114.136)" fill="url(#linear-gradient)"/>
    </clipPath>
    <clipPath id="clip-path-12">
      <path id="Path_34769" data-name="Path 34769" d="M714.216,152.585c-1.54.473-3.078,1.02-4.566,1.623-22.392,9.068-32.783,29.808-42.3,52.077-3.737,8.747-6.2,14.1-8.581,19.28s-4.852,10.545-8.595,19.306a.56.56,0,1,0,1.03.441c3.737-8.746,6.2-14.1,8.582-19.279s4.852-10.545,8.595-19.307c9.415-22.045,19.69-42.572,41.685-51.478,1.459-.592,2.964-1.127,4.474-1.592,10.242-3.15,20.9-3.35,31.82-3.272q10,.067,20,.174,6.67.064,13.338.122c4.388.037,9.848.084,13.873,2.9a10.358,10.358,0,0,1,4.51,8.876,8.274,8.274,0,0,1-6.043,7.424,12.984,12.984,0,0,1-5.446-.3c-.572-.112-1.145-.223-1.72-.313a85,85,0,0,0-9.235-.9,175.079,175.079,0,0,0-18.159.289c-8.358.459-17.241,1.092-25.856,3.319-14.251,3.683-26.447,11.417-34.354,21.793-10.94,15.346-18.165,33.039-25.152,50.15-5.045,12.355-10.262,25.132-16.832,36.9a3.7,3.7,0,0,0,.146,3.859,3.57,3.57,0,0,0,3.01,1.632,4.026,4.026,0,0,0,.416-.024c11.714-1.284,24.216-3.951,39.34-8.4,22.159-6.4,53.681-17.878,71.5-43.572,6.809-9.816,12.189-20.62,17.118-30.848,5.173-10.734,7.5-16.067,11.84-27.174a.56.56,0,1,0-1.044-.408c-4.331,11.075-6.647,16.393-11.807,27.1-4.908,10.186-10.267,20.946-17.028,30.695-17.62,25.4-48.9,36.782-70.9,43.136-15.063,4.424-27.5,7.079-39.148,8.356a2.464,2.464,0,0,1-2.371-1.113,2.548,2.548,0,0,1-.1-2.693c6.6-11.828,11.834-24.637,16.891-37.022,6.962-17.051,14.162-34.683,25.016-49.909,7.745-10.163,19.724-17.752,33.732-21.372,8.515-2.2,17.334-2.829,25.637-3.284a175.485,175.485,0,0,1,18.045-.29,83.878,83.878,0,0,1,9.114.891c.562.087,1.121.2,1.678.307a14.017,14.017,0,0,0,5.911.29,9.308,9.308,0,0,0,6.913-8.443,11.5,11.5,0,0,0-4.986-9.868c-4.311-3.018-9.965-3.066-14.507-3.106q-6.67-.056-13.337-.122-10-.1-20.008-.174-1.475-.01-2.941-.01c-9.988,0-19.749.42-29.216,3.332" transform="translate(-650.133 -149.253)" fill="url(#linear-gradient)"/>
    </clipPath>
    <clipPath id="clip-path-13">
      <path id="Path_34771" data-name="Path 34771" d="M993.593,171.976c-14.25,3.683-26.447,11.417-34.353,21.793-10.941,15.346-18.165,33.039-25.152,50.149-5.045,12.355-10.262,25.133-16.832,36.9a3.7,3.7,0,0,0,.145,3.859,3.572,3.572,0,0,0,3.011,1.632,4.028,4.028,0,0,0,.416-.024c11.715-1.284,24.216-3.951,39.34-8.4,15.731-4.543,36.181-11.648,53.1-24.578V251.9c-16.9,13.155-37.566,20.343-53.413,24.92-15.061,4.424-27.5,7.079-39.147,8.356a2.478,2.478,0,0,1-2.371-1.113,2.546,2.546,0,0,1-.1-2.693c6.6-11.828,11.833-24.637,16.89-37.023,6.964-17.05,14.161-34.683,25.015-49.908,7.746-10.163,19.725-17.752,33.733-21.372a109.64,109.64,0,0,1,19.392-2.894v-1.123a110.86,110.86,0,0,0-19.674,2.932m-17.416-19.391c-1.539.473-3.076,1.02-4.565,1.623-22.392,9.067-32.784,29.808-42.3,52.077-3.734,8.746-6.2,14.1-8.58,19.279s-4.852,10.546-8.595,19.307a.56.56,0,1,0,1.03.441c3.737-8.746,6.2-14.1,8.582-19.28s4.852-10.544,8.594-19.306c9.417-22.045,19.689-42.572,41.685-51.478,1.46-.592,2.965-1.127,4.474-1.592,10.243-3.15,20.9-3.341,31.821-3.272l4.939.036V149.3q-2.466-.02-4.932-.037-1.431-.008-2.857-.01c-10.017,0-19.807.411-29.3,3.332" transform="translate(-912.096 -149.253)" fill="url(#linear-gradient)"/>
    </clipPath>
    <clipPath id="clip-path-14">
      <path id="Path_34772" data-name="Path 34772" d="M933.484,114.159c-11.714,1.284-24.214,3.952-39.339,8.4-22.159,6.4-53.682,17.878-71.505,43.572-6.808,9.816-12.189,20.62-17.118,30.848-5.172,10.733-7.5,16.066-11.839,27.175a.56.56,0,1,0,1.043.407c4.332-11.077,6.648-16.394,11.807-27.1,4.908-10.187,10.267-20.947,17.029-30.695,17.619-25.4,48.9-36.784,70.9-43.136,15.061-4.425,27.5-7.08,39.148-8.356a2.477,2.477,0,0,1,2.37,1.112,2.546,2.546,0,0,1,.1,2.693c-6.6,11.828-11.833,24.637-16.891,37.022-6.961,17.053-14.161,34.683-25.015,49.909-7.745,10.162-19.724,17.752-33.733,21.372-8.515,2.2-17.334,2.829-25.637,3.285a176.085,176.085,0,0,1-18.044.289,84.214,84.214,0,0,1-9.115-.891c-.562-.087-1.121-.2-1.678-.306a14.034,14.034,0,0,0-5.911-.292,9.308,9.308,0,0,0-6.913,8.444,11.5,11.5,0,0,0,4.986,9.867c4.311,3.019,9.965,3.067,14.508,3.106q6.668.056,13.337.122,10,.1,20.007.175,1.537.008,3.065.01c9.946,0,19.664-.433,29.091-3.332,1.542-.474,3.078-1.021,4.568-1.625,22.39-9.068,32.783-29.808,42.294-52.077q1.532-3.585,3.018-7.106c6.253-14.768,12.159-28.718,19.769-41.4a.56.56,0,1,0-.961-.575c-7.652,12.753-13.573,26.738-19.842,41.543q-1.488,3.518-3.015,7.1c-9.417,22.046-19.69,42.572-41.685,51.48-1.46.591-2.965,1.126-4.474,1.591-10.243,3.152-20.9,3.342-31.821,3.273q-10-.069-20-.175-6.67-.064-13.337-.122c-4.388-.037-9.848-.084-13.874-2.9a10.36,10.36,0,0,1-4.509-8.877,8.272,8.272,0,0,1,6.042-7.424,13,13,0,0,1,5.447.3c.572.112,1.146.223,1.721.313a85,85,0,0,0,9.234.9,176.027,176.027,0,0,0,18.159-.289c8.358-.459,17.241-1.092,25.856-3.319,14.251-3.682,26.447-11.417,34.355-21.793,10.939-15.346,18.164-33.038,25.151-50.15,5.045-12.355,10.262-25.132,16.832-36.9a3.7,3.7,0,0,0-.145-3.859,3.571,3.571,0,0,0-3.011-1.631,3.991,3.991,0,0,0-.416.022" transform="translate(-793.12 -114.137)" fill="url(#linear-gradient)"/>
    </clipPath>
    <clipPath id="clip-path-15">
      <path id="Path_34773" data-name="Path 34773" d="M272.819,290.023c-4.331,11.077-6.648,16.395-11.806,27.1-3.748,7.775-7.756,15.884-12.45,23.624h1.309c4.568-7.6,8.485-15.531,12.15-23.137,5.174-10.734,7.5-16.068,11.84-27.177a.559.559,0,0,0-.317-.725.551.551,0,0,0-.205-.039.558.558,0,0,0-.521.357m-83.408-23.3c-1.542.474-3.078,1.02-4.568,1.623-22.391,9.068-32.783,29.808-42.294,52.077-3.737,8.747-6.2,14.1-8.582,19.278l-.48,1.045h1.234l.263-.575c2.386-5.185,4.853-10.547,8.6-19.307,9.415-22.045,19.687-42.572,41.684-51.477,1.46-.593,2.965-1.129,4.474-1.593,10.243-3.152,20.9-3.34,31.82-3.272q10,.066,20,.174,6.668.064,13.337.122c4.388.038,9.848.083,13.874,2.9a10.358,10.358,0,0,1,4.509,8.876,8.273,8.273,0,0,1-6.042,7.425,12.983,12.983,0,0,1-5.447-.3c-.572-.112-1.146-.224-1.721-.314a84.986,84.986,0,0,0-9.234-.9,175.425,175.425,0,0,0-18.159.292c-8.358.456-17.241,1.091-25.856,3.317-14.251,3.683-26.447,11.417-34.355,21.793-7.269,10.2-12.9,21.43-17.906,32.839h1.224c4.934-11.2,10.475-22.2,17.584-32.176,7.745-10.161,19.724-17.751,33.733-21.371,8.515-2.2,17.334-2.829,25.637-3.284a175.8,175.8,0,0,1,18.045-.29,83.921,83.921,0,0,1,9.114.89c.562.089,1.12.2,1.678.307a14.068,14.068,0,0,0,5.91.292,9.305,9.305,0,0,0,6.913-8.443,11.5,11.5,0,0,0-4.986-9.868c-4.31-3.018-9.964-3.066-14.506-3.106q-6.668-.055-13.336-.122-10-.1-20.008-.174c-1.021-.007-2.037-.011-3.053-.011-9.949,0-19.673.432-29.1,3.333" transform="translate(-133.488 -263.388)" fill="url(#linear-gradient)"/>
    </clipPath>
    <clipPath id="clip-path-16">
      <path id="Path_34774" data-name="Path 34774" d="M14.113,343.605A8.275,8.275,0,0,0,11.076,345h2.316a6.541,6.541,0,0,1,.969-.3,13.019,13.019,0,0,1,5.447.3h9.281c-2.62-.168-5.052-.43-7.387-.8-.562-.087-1.121-.2-1.679-.306a20.542,20.542,0,0,0-3.925-.506,8.867,8.867,0,0,0-1.983.214m146.767-84.4c-7.65,12.752-13.571,26.736-19.839,41.541q-1.492,3.518-3.017,7.1c-5.9,13.8-12.129,27.011-21.362,37.143h1.516c8.961-10.138,15.083-23.137,20.877-36.7q1.532-3.587,3.018-7.109c6.253-14.767,12.159-28.717,19.769-41.4a.56.56,0,0,0-.193-.768.55.55,0,0,0-.287-.082.562.562,0,0,0-.482.275M147.542,228.3c-11.715,1.283-24.216,3.952-39.34,8.4-22.159,6.4-53.681,17.878-71.5,43.572-6.809,9.815-12.19,20.621-17.119,30.847-5.173,10.733-7.5,16.068-11.84,27.177a.561.561,0,0,0,1.045.407c4.331-11.076,6.647-16.393,11.806-27.1C25.5,301.41,30.858,290.65,37.62,280.9c17.619-25.4,48.9-36.784,70.9-43.135,15.061-4.425,27.5-7.08,39.147-8.357a2.468,2.468,0,0,1,2.371,1.114,2.544,2.544,0,0,1,.1,2.692c-6.6,11.828-11.833,24.636-16.891,37.023-6.961,17.051-14.16,34.683-25.014,49.908C100.483,330.309,88.5,337.9,74.5,341.519c-8.515,2.2-17.334,2.83-25.638,3.285-1.326.073-2.61.138-3.861.2H61.112a96.416,96.416,0,0,0,13.665-2.394c14.251-3.683,26.448-11.418,34.354-21.793,10.941-15.346,18.165-33.039,25.152-50.148,5.045-12.357,10.261-25.134,16.831-36.9a3.7,3.7,0,0,0-.144-3.86,3.571,3.571,0,0,0-3.009-1.631,4.053,4.053,0,0,0-.418.022" transform="translate(-7.702 -228.273)" fill="url(#linear-gradient)"/>
    </clipPath>
    <clipPath id="clip-path-17">
      <path id="Path_34776" data-name="Path 34776" d="M276.074,343.605A8.27,8.27,0,0,0,273.038,345h2.315a6.582,6.582,0,0,1,.969-.3,13.025,13.025,0,0,1,5.448.3h9.281c-2.621-.168-5.052-.43-7.387-.8-.562-.087-1.121-.2-1.679-.306a20.542,20.542,0,0,0-3.926-.506,8.881,8.881,0,0,0-1.983.214m146.768-84.4c-7.651,12.752-13.571,26.736-19.84,41.543q-1.49,3.516-3.017,7.1c-5.895,13.8-12.127,27.011-21.361,37.143h1.517c8.961-10.138,15.082-23.137,20.876-36.7q1.53-3.587,3.018-7.108c6.253-14.768,12.159-28.717,19.768-41.4a.558.558,0,0,0-.192-.768.55.55,0,0,0-.287-.082.561.561,0,0,0-.482.275M409.5,228.3c-11.714,1.283-24.214,3.952-39.339,8.4-22.161,6.4-53.681,17.878-71.5,43.572-6.809,9.815-12.189,20.621-17.118,30.847-5.173,10.733-7.5,16.068-11.84,27.177a.56.56,0,0,0,1.044.407c4.331-11.076,6.648-16.393,11.807-27.1,4.908-10.187,10.267-20.946,17.028-30.695,17.62-25.4,48.9-36.784,70.9-43.135,15.061-4.425,27.5-7.08,39.148-8.357a2.466,2.466,0,0,1,2.37,1.114,2.541,2.541,0,0,1,.1,2.692c-6.6,11.828-11.833,24.636-16.89,37.023-6.963,17.051-14.162,34.68-25.015,49.908-7.746,10.161-19.727,17.752-33.733,21.371-8.515,2.2-17.334,2.83-25.637,3.285-1.326.073-2.611.138-3.862.2h16.115a96.443,96.443,0,0,0,13.664-2.394c14.251-3.683,26.447-11.418,34.354-21.793,10.94-15.346,18.165-33.039,25.152-50.148,5.045-12.357,10.262-25.134,16.831-36.9a3.7,3.7,0,0,0-.143-3.86,3.572,3.572,0,0,0-3.01-1.631,4.071,4.071,0,0,0-.418.022" transform="translate(-269.664 -228.273)" fill="url(#linear-gradient)"/>
    </clipPath>
    <clipPath id="clip-path-18">
      <path id="Path_34777" data-name="Path 34777" d="M796.743,290.023c-4.331,11.076-6.647,16.395-11.807,27.1-3.747,7.774-7.756,15.884-12.45,23.624H773.8c4.569-7.6,8.485-15.53,12.151-23.137,5.173-10.735,7.5-16.069,11.84-27.177a.561.561,0,0,0-.317-.725.559.559,0,0,0-.727.317m-83.409-23.3c-1.54.474-3.078,1.02-4.566,1.623-22.391,9.068-32.783,29.808-42.3,52.077-3.737,8.747-6.2,14.1-8.581,19.279-.16.346-.32.694-.481,1.044h1.234l.265-.575c2.385-5.184,4.852-10.545,8.595-19.307,9.415-22.045,19.69-42.572,41.685-51.478,1.459-.592,2.964-1.128,4.474-1.592,10.242-3.152,20.9-3.35,31.82-3.272q10,.066,20,.174,6.67.064,13.338.122c4.388.038,9.848.083,13.873,2.9a10.359,10.359,0,0,1,4.51,8.876,8.276,8.276,0,0,1-6.043,7.425,13,13,0,0,1-5.447-.3c-.572-.112-1.145-.224-1.72-.314a84.981,84.981,0,0,0-9.235-.9,175.11,175.11,0,0,0-18.159.292c-8.358.456-17.241,1.091-25.856,3.317C716.5,289.8,704.3,297.529,696.4,307.905c-7.27,10.2-12.9,21.43-17.907,32.839h1.225c4.933-11.2,10.475-22.2,17.584-32.176,7.745-10.162,19.724-17.751,33.732-21.371,8.515-2.2,17.334-2.829,25.637-3.284a174.846,174.846,0,0,1,18.045-.29,83.89,83.89,0,0,1,9.114.89c.562.089,1.121.2,1.678.307a14.036,14.036,0,0,0,5.911.292,9.308,9.308,0,0,0,6.913-8.443,11.5,11.5,0,0,0-4.986-9.868c-4.311-3.018-9.965-3.066-14.506-3.106q-6.67-.055-13.337-.122-10-.1-20.008-.174-1.542-.01-3.079-.011c-9.94,0-19.654.433-29.078,3.333" transform="translate(-657.411 -263.388)" fill="url(#linear-gradient)"/>
    </clipPath>
    <clipPath id="clip-path-19">
      <path id="Path_34779" data-name="Path 34779" d="M992.711,286.112c-14.25,3.683-26.447,11.417-34.353,21.793-7.271,10.2-12.9,21.43-17.907,32.839h1.224c4.934-11.2,10.475-22.2,17.584-32.176,7.746-10.162,19.725-17.751,33.733-21.371a109.639,109.639,0,0,1,19.392-2.894v-1.123a110.961,110.961,0,0,0-19.674,2.932M975.3,266.721c-1.539.474-3.076,1.02-4.565,1.623-22.392,9.066-32.783,29.808-42.3,52.077-3.734,8.746-6.2,14.1-8.58,19.278-.16.348-.319.7-.481,1.045h1.234c.089-.193.176-.385.265-.575,2.385-5.185,4.852-10.547,8.594-19.307,9.417-22.045,19.689-42.572,41.685-51.477,1.46-.593,2.965-1.129,4.475-1.593,10.243-3.152,20.9-3.35,31.821-3.272q2.471.017,4.939.036v-1.121l-4.932-.036q-1.466-.008-2.924-.01c-9.994,0-19.761.418-29.234,3.332" transform="translate(-919.373 -263.389)" fill="url(#linear-gradient)"/>
    </clipPath>
    <clipPath id="clip-path-20">
      <path id="Path_34780" data-name="Path 34780" d="M800,343.6A8.278,8.278,0,0,0,796.961,345h2.316a6.5,6.5,0,0,1,.969-.3,13.019,13.019,0,0,1,5.447.3h9.282c-2.621-.168-5.053-.43-7.388-.8-.562-.087-1.121-.2-1.678-.306a20.564,20.564,0,0,0-3.926-.5A8.881,8.881,0,0,0,800,343.6m146.769-84.4c-7.652,12.753-13.573,26.737-19.842,41.543q-1.488,3.518-3.015,7.1c-5.9,13.8-12.127,27.011-21.361,37.143h1.515c8.962-10.138,15.083-23.137,20.877-36.7q1.532-3.585,3.018-7.106c6.253-14.769,12.159-28.719,19.769-41.4a.56.56,0,1,0-.961-.575M933.427,228.3c-11.714,1.283-24.214,3.952-39.339,8.4-22.159,6.4-53.682,17.878-71.505,43.572-6.808,9.815-12.189,20.621-17.118,30.847-5.172,10.733-7.5,16.067-11.839,27.177a.56.56,0,1,0,1.043.407c4.332-11.077,6.648-16.394,11.807-27.1,4.908-10.186,10.267-20.945,17.029-30.695,17.619-25.4,48.9-36.784,70.9-43.135,15.061-4.425,27.5-7.08,39.148-8.357a2.473,2.473,0,0,1,2.37,1.114,2.544,2.544,0,0,1,.1,2.692c-6.6,11.828-11.833,24.636-16.891,37.024-6.961,17.051-14.161,34.68-25.015,49.908-7.745,10.161-19.724,17.752-33.733,21.371-8.515,2.2-17.334,2.83-25.637,3.285-1.329.073-2.613.138-3.866.2H847a96.414,96.414,0,0,0,13.664-2.394c14.251-3.683,26.447-11.418,34.355-21.793,10.939-15.346,18.164-33.039,25.151-50.149,5.045-12.356,10.262-25.133,16.832-36.9a3.7,3.7,0,0,0-.145-3.86,3.581,3.581,0,0,0-3.023-1.63c-.133,0-.269.008-.4.021" transform="translate(-793.587 -228.274)" fill="url(#linear-gradient)"/>
    </clipPath>
  </defs>
  <path id="Path_34751" data-name="Path 34751" d="M0,138.992l1439.367-37.1V413L0,470.08Z" transform="translate(0 -101.888)" fill="#f8f8f8"/>
  <rect id="Rectangle_20676" data-name="Rectangle 20676" width="167.2" height="233.15" transform="matrix(0.996, -0.087, 0.087, 0.996, 214.428, 100.736)" fill="none"/>
  <g id="Group_28027" data-name="Group 28027" transform="translate(142.32 -48.469)" opacity="0.51">
    <g id="Group_27980" data-name="Group 27980" transform="translate(140.623 77.893)">
      <g id="Group_27979" data-name="Group 27979" clip-path="url(#clip-path)">
        <rect id="Rectangle_20587" data-name="Rectangle 20587" width="139.749" height="89.098" transform="translate(-0.076 0)" fill="url(#linear-gradient)"/>
      </g>
    </g>
    <g id="Group_27982" data-name="Group 27982" transform="translate(7.235 77.893)">
      <g id="Group_27981" data-name="Group 27981" clip-path="url(#clip-path-2)">
        <rect id="Rectangle_20588" data-name="Rectangle 20588" width="128.902" height="49.728" transform="translate(-0.223 0)" fill="url(#linear-gradient)"/>
      </g>
    </g>
    <g id="Group_27984" data-name="Group 27984" transform="translate(434.32 77.893)">
      <g id="Group_27983" data-name="Group 27983" clip-path="url(#clip-path-3)">
        <rect id="Rectangle_20589" data-name="Rectangle 20589" width="139.751" height="89.098" transform="translate(-0.077 0)" fill="url(#linear-gradient)"/>
      </g>
    </g>
    <g id="Group_27986" data-name="Group 27986" transform="translate(300.932 77.893)">
      <g id="Group_27985" data-name="Group 27985" clip-path="url(#clip-path-4)">
        <rect id="Rectangle_20590" data-name="Rectangle 20590" width="128.902" height="49.728" transform="translate(-0.223 0)" fill="url(#linear-gradient)"/>
      </g>
    </g>
    <g id="Group_27988" data-name="Group 27988" transform="translate(728.017 77.893)">
      <g id="Group_27987" data-name="Group 27987" clip-path="url(#clip-path-5)">
        <rect id="Rectangle_20591" data-name="Rectangle 20591" width="139.749" height="89.098" transform="translate(-0.077 0)" fill="url(#linear-gradient)"/>
      </g>
    </g>
    <g id="Group_27990" data-name="Group 27990" transform="translate(594.629 77.893)">
      <g id="Group_27989" data-name="Group 27989" clip-path="url(#clip-path-6)">
        <rect id="Rectangle_20592" data-name="Rectangle 20592" width="128.902" height="49.728" transform="translate(-0.224 0)" fill="url(#linear-gradient)"/>
      </g>
    </g>
    <g id="Group_27992" data-name="Group 27992" transform="translate(1021.714 77.893)">
      <g id="Group_27991" data-name="Group 27991" clip-path="url(#clip-path-7)">
        <rect id="Rectangle_20593" data-name="Rectangle 20593" width="101.247" height="89.098" transform="translate(-0.076 0)" fill="url(#linear-gradient)"/>
      </g>
    </g>
    <g id="Group_27994" data-name="Group 27994" transform="translate(888.325 77.893)">
      <g id="Group_27993" data-name="Group 27993" clip-path="url(#clip-path-8)">
        <rect id="Rectangle_20594" data-name="Rectangle 20594" width="128.901" height="49.728" transform="translate(-0.222 0)" fill="url(#linear-gradient)"/>
      </g>
    </g>
    <g id="Group_27996" data-name="Group 27996" transform="translate(140.623 157.898)">
      <g id="Group_27995" data-name="Group 27995" clip-path="url(#clip-path-9)">
        <rect id="Rectangle_20595" data-name="Rectangle 20595" width="149.396" height="137.056" transform="translate(-0.076)" fill="url(#linear-gradient)"/>
      </g>
    </g>
    <g id="Group_27998" data-name="Group 27998" transform="translate(7.235 118.527)">
      <g id="Group_27997" data-name="Group 27997" clip-path="url(#clip-path-10)">
        <rect id="Rectangle_20596" data-name="Rectangle 20596" width="155.044" height="137.058" transform="translate(-0.223 0)" fill="url(#linear-gradient)"/>
      </g>
    </g>
    <g id="Group_28002" data-name="Group 28002" transform="translate(300.932 118.527)">
      <g id="Group_28001" data-name="Group 28001" clip-path="url(#clip-path-11)">
        <rect id="Rectangle_20598" data-name="Rectangle 20598" width="155.045" height="137.058" transform="translate(-0.223 0)" fill="url(#linear-gradient)"/>
      </g>
    </g>
    <g id="Group_28004" data-name="Group 28004" transform="translate(728.017 157.898)">
      <g id="Group_28003" data-name="Group 28003" clip-path="url(#clip-path-12)">
        <rect id="Rectangle_20599" data-name="Rectangle 20599" width="149.397" height="137.056" transform="translate(-0.077)" fill="url(#linear-gradient)"/>
      </g>
    </g>
    <g id="Group_28008" data-name="Group 28008" transform="translate(1021.714 157.898)">
      <g id="Group_28007" data-name="Group 28007" clip-path="url(#clip-path-13)">
        <rect id="Rectangle_20601" data-name="Rectangle 20601" width="101.247" height="137.056" transform="translate(-0.076)" fill="url(#linear-gradient)"/>
      </g>
    </g>
    <g id="Group_28010" data-name="Group 28010" transform="translate(888.325 118.528)">
      <g id="Group_28009" data-name="Group 28009" clip-path="url(#clip-path-14)">
        <rect id="Rectangle_20602" data-name="Rectangle 20602" width="155.044" height="137.056" transform="translate(-0.222 0)" fill="url(#linear-gradient)"/>
      </g>
    </g>
    <g id="Group_28012" data-name="Group 28012" transform="translate(148.783 285.86)">
      <g id="Group_28011" data-name="Group 28011" clip-path="url(#clip-path-15)">
        <rect id="Rectangle_20603" data-name="Rectangle 20603" width="141.16" height="77.357" transform="translate(0)" fill="url(#linear-gradient)"/>
      </g>
    </g>
    <g id="Group_28014" data-name="Group 28014" transform="translate(7.758 246.491)">
      <g id="Group_28013" data-name="Group 28013" transform="translate(0 0)" clip-path="url(#clip-path-16)">
        <rect id="Rectangle_20604" data-name="Rectangle 20604" width="154.371" height="116.726" transform="translate(-0.074 0)" fill="url(#linear-gradient)"/>
      </g>
    </g>
    <g id="Group_28018" data-name="Group 28018" transform="translate(301.456 246.491)">
      <g id="Group_28017" data-name="Group 28017" transform="translate(0 0)" clip-path="url(#clip-path-17)">
        <rect id="Rectangle_20606" data-name="Rectangle 20606" width="154.373" height="116.726" transform="translate(-0.074 0)" fill="url(#linear-gradient)"/>
      </g>
    </g>
    <g id="Group_28020" data-name="Group 28020" transform="translate(736.176 285.86)">
      <g id="Group_28019" data-name="Group 28019" clip-path="url(#clip-path-18)">
        <rect id="Rectangle_20607" data-name="Rectangle 20607" width="141.161" height="77.357" transform="translate(0)" fill="url(#linear-gradient)"/>
      </g>
    </g>
    <g id="Group_28024" data-name="Group 28024" transform="translate(1029.873 285.861)">
      <g id="Group_28023" data-name="Group 28023" clip-path="url(#clip-path-19)">
        <rect id="Rectangle_20609" data-name="Rectangle 20609" width="93.012" height="77.356" fill="url(#linear-gradient)"/>
      </g>
    </g>
    <g id="Group_28026" data-name="Group 28026" transform="translate(888.849 246.492)">
      <g id="Group_28025" data-name="Group 28025" transform="translate(0 0)" clip-path="url(#clip-path-20)">
        <rect id="Rectangle_20610" data-name="Rectangle 20610" width="154.373" height="116.724" transform="translate(-0.074 0)" fill="url(#linear-gradient)"/>
      </g>
    </g>
  </g>
</svg>
