<svg xmlns="http://www.w3.org/2000/svg" width="111.975" height="38.846" viewBox="0 0 111.975 38.846">
  <g id="Component_51_2" data-name="Component 51 – 2" transform="translate(0.5 0.5)">
    <path id="Union_3" data-name="Union 3" d="M98.141,37.8a36.311,36.311,0,0,0-4.013-6.7,4.674,4.674,0,0,0,.842.073q2.411,0,5.633-2.432a26.258,26.258,0,0,0,4.011-3.78,6.391,6.391,0,0,0,1.228-2.31,5.844,5.844,0,0,0,.346-1.768l.466-.2a10.561,10.561,0,0,1,3.286-.91,1.11,1.11,0,0,1,.849.283c-.191.2-.375.4-.55.59a50.063,50.063,0,0,0-6.978,6.77c-2.435,2.911-4.807,6.47-5.027,10.376,0,.037-.023.056-.045.056A.057.057,0,0,1,98.141,37.8ZM37.455,36V32.664a2.136,2.136,0,0,1,.571-1.617A2.057,2.057,0,0,1,39.51,30.5h.437V29.309a3.1,3.1,0,0,1,.176-1.028,2.808,2.808,0,0,1,.5-.894,2.482,2.482,0,0,1,.808-.626,2.423,2.423,0,0,1,1.088-.237,2.723,2.723,0,0,1,1.069.2,2.308,2.308,0,0,1,1.319,1.4,3.222,3.222,0,0,1,.176,1.082v.34a1.819,1.819,0,0,0,.024.261.769.769,0,0,0,.134.322.908.908,0,0,0,.322.274,1.214,1.214,0,0,0,.577.115h4.17a3.536,3.536,0,0,1-.3-.468,2.342,2.342,0,0,1-.25-.894,1.443,1.443,0,0,0-.3-.87.943.943,0,0,0-.7-.249,3.045,3.045,0,0,0-.638.085,3.359,3.359,0,0,0-.735.255l-.353-1.337q.146-.06.377-.134c.154-.049.318-.093.493-.134s.356-.075.547-.1a3.8,3.8,0,0,1,.565-.043,2.287,2.287,0,0,1,.906.164,1.779,1.779,0,0,1,.645.462,2.155,2.155,0,0,1,.407.711,4.3,4.3,0,0,1,.206.9c.016.162.037.322.061.48a2.2,2.2,0,0,0,.128.468,1.7,1.7,0,0,0,.243.425,1.427,1.427,0,0,0,.4.34v1.349H46.135a1.562,1.562,0,0,1-.918-.286,2.059,2.059,0,0,1-.626-.675,2.042,2.042,0,0,1-.954.735,3.8,3.8,0,0,1-1.355.225H39.607a.711.711,0,0,0-.577.224,1.372,1.372,0,0,0-.189.845V36Zm4.632-8.018a.945.945,0,0,0-.383.262,1.327,1.327,0,0,0-.262.474,2.293,2.293,0,0,0-.1.717V30.5h1.143a1.167,1.167,0,0,0,.954-.316,1.494,1.494,0,0,0,.249-.936,1.531,1.531,0,0,0-.292-.991,1.019,1.019,0,0,0-.839-.358A1.4,1.4,0,0,0,42.087,27.977Zm-30.526,6.59a6.386,6.386,0,0,1-.669-.079l.1-1.362q.352.049.669.073c.21.016.393.024.547.024a4.112,4.112,0,0,0,.644-.049,1.525,1.525,0,0,0,.541-.188,1.028,1.028,0,0,0,.377-.389,1.438,1.438,0,0,0,.152-.663h-.814a3.347,3.347,0,0,1-1.27-.212A2.339,2.339,0,0,1,11,31.163a2.141,2.141,0,0,1-.468-.784,2.787,2.787,0,0,1-.146-.888A3.154,3.154,0,0,1,10.57,28.4,2.836,2.836,0,0,1,11.1,27.5a2.5,2.5,0,0,1,.809-.614,2.371,2.371,0,0,1,1.039-.225,2.57,2.57,0,0,1,.978.176,2.089,2.089,0,0,1,.735.5,2.157,2.157,0,0,1,.462.766,2.9,2.9,0,0,1,.158.978v1.446h2.371a4.026,4.026,0,0,0,.474-.024,2.869,2.869,0,0,0,.353-.061,5.917,5.917,0,0,1-.438-.462q-.218-.255-.4-.5T17.323,29a1.978,1.978,0,0,1-.182-.371l-.049-.972a4.434,4.434,0,0,1,.608-.414,5.192,5.192,0,0,1,.723-.34,5.318,5.318,0,0,1,.784-.23,3.861,3.861,0,0,1,.8-.085,3.936,3.936,0,0,1,1.069.128,2.422,2.422,0,0,1,.742.334,1.5,1.5,0,0,1,.438.456.955.955,0,0,1,.146.48,2.972,2.972,0,0,1-.268,1.143,4.252,4.252,0,0,1-1.046,1.362,6.912,6.912,0,0,0,.851.036h2.14a.368.368,0,0,0,.358-.17.989.989,0,0,0,.091-.462V23.231h1.4v6.176a1.349,1.349,0,0,0,.225.8.974.974,0,0,0,.845.316h1.775V23.231h1.374v8.7h-3.2a1.341,1.341,0,0,1-.845-.249,1.837,1.837,0,0,1-.492-.553,1.375,1.375,0,0,1-.583.6,1.866,1.866,0,0,1-.888.2H21.919a4.635,4.635,0,0,1-1.362-.17,4.222,4.222,0,0,1-.839-.34,3.512,3.512,0,0,1-1,.389,4.82,4.82,0,0,1-1.063.121H15.281a3.143,3.143,0,0,1-.28,1.21,2.24,2.24,0,0,1-.657.821,2.789,2.789,0,0,1-.972.468,4.693,4.693,0,0,1-1.228.152Q11.865,34.585,11.561,34.567Zm.894-6.467a1.157,1.157,0,0,0-.358.255,1.274,1.274,0,0,0-.256.4,1.338,1.338,0,0,0-.1.523,1.369,1.369,0,0,0,.11.578,1.1,1.1,0,0,0,.291.389,1.123,1.123,0,0,0,.42.219,1.822,1.822,0,0,0,.492.066h.851V29.443a1.772,1.772,0,0,0-.274-1.064.891.891,0,0,0-.76-.371A1,1,0,0,0,12.455,28.1Zm6.693-.073a2.468,2.468,0,0,0-.729.274,2.466,2.466,0,0,0,.182.316,5.415,5.415,0,0,0,.328.45,6.225,6.225,0,0,0,.419.474,3,3,0,0,0,.456.389,2.973,2.973,0,0,0,.5-.377,3.193,3.193,0,0,0,.407-.45,2.4,2.4,0,0,0,.268-.45.976.976,0,0,0,.1-.389.2.2,0,0,0-.1-.164.744.744,0,0,0-.256-.1,2.639,2.639,0,0,0-.346-.055c-.126-.013-.254-.018-.383-.018A3.808,3.808,0,0,0,19.147,28.027Zm29.728,5.943a.675.675,0,0,1-.211-.509.661.661,0,0,1,.211-.5.726.726,0,0,1,.525-.2.712.712,0,0,1,.512.2.661.661,0,0,1,.211.5.675.675,0,0,1-.211.509.712.712,0,0,1-.512.2A.726.726,0,0,1,48.875,33.969Zm-40.985,0a.681.681,0,0,1-.207-.509.666.666,0,0,1,.207-.5.776.776,0,0,1,1.045,0,.666.666,0,0,1,.207.5.681.681,0,0,1-.207.509.776.776,0,0,1-1.045,0Zm-1.885,0A.68.68,0,0,1,5.8,33.46a.666.666,0,0,1,.206-.5.777.777,0,0,1,1.046,0,.668.668,0,0,1,.206.5.682.682,0,0,1-.206.509.777.777,0,0,1-1.046,0Zm58.65-2.219a2.228,2.228,0,0,1-.748-.638,1.558,1.558,0,0,1-.486.589,1.177,1.177,0,0,1-.717.233H61.161a4.631,4.631,0,0,1-1.362-.17,4.192,4.192,0,0,1-.839-.34,3.517,3.517,0,0,1-1,.389,4.821,4.821,0,0,1-1.064.121H53.5v-8.7h1.386v7.294h2.006a4.035,4.035,0,0,0,.474-.024,2.86,2.86,0,0,0,.352-.061,5.915,5.915,0,0,1-.437-.462q-.219-.255-.4-.5T56.565,29a1.979,1.979,0,0,1-.182-.371l-.049-.972a4.428,4.428,0,0,1,.607-.414,5.2,5.2,0,0,1,.723-.34,5.318,5.318,0,0,1,.784-.23,3.861,3.861,0,0,1,.8-.085,3.956,3.956,0,0,1,1.069.128,2.428,2.428,0,0,1,.742.334,1.5,1.5,0,0,1,.437.456.955.955,0,0,1,.146.48,2.971,2.971,0,0,1-.267,1.143,4.252,4.252,0,0,1-1.046,1.362,6.907,6.907,0,0,0,.851.036h.88a.382.382,0,0,1,.093-.012h.473a.889.889,0,0,0,.268-.042.5.5,0,0,0,.237-.169.945.945,0,0,0,.164-.35,2.251,2.251,0,0,0,.061-.573,2.955,2.955,0,0,1,.188-1.069,2.573,2.573,0,0,1,.523-.845,2.441,2.441,0,0,1,1.793-.767,2.22,2.22,0,0,1,1.805.749,3.184,3.184,0,0,1,.626,2.1,1.649,1.649,0,0,0,.03.278.778.778,0,0,0,.14.32.885.885,0,0,0,.322.26,1.28,1.28,0,0,0,.578.108H69.8a.49.49,0,0,1,.077.012h1.029a.368.368,0,0,0,.358-.17.988.988,0,0,0,.091-.462V23.231h1.4v6.176a1.349,1.349,0,0,0,.225.8.973.973,0,0,0,.845.316H75.6V23.231h1.374v8.7h-3.2a1.343,1.343,0,0,1-.845-.249,1.837,1.837,0,0,1-.492-.553,1.373,1.373,0,0,1-.583.6,1.866,1.866,0,0,1-.888.2H69.33a1.557,1.557,0,0,1-.893-.258,1.575,1.575,0,0,1-.565-.65,2.222,2.222,0,0,1-.462.54,1.734,1.734,0,0,1-.5.288,2.133,2.133,0,0,1-.535.116C66.189,31.988,66,32,65.8,32A2.4,2.4,0,0,1,64.656,31.751Zm.76-3.645a1.038,1.038,0,0,0-.358.278,1.422,1.422,0,0,0-.243.436,1.69,1.69,0,0,0-.091.569,1.327,1.327,0,0,0,.274.853,1.238,1.238,0,0,0,1.714,0,1.33,1.33,0,0,0,.274-.853,1.583,1.583,0,0,0-.1-.569,1.509,1.509,0,0,0-.249-.436,1.052,1.052,0,0,0-.358-.278.991.991,0,0,0-.426-.1A1.015,1.015,0,0,0,65.415,28.105Zm-7.027-.079a2.479,2.479,0,0,0-.729.274,2.449,2.449,0,0,0,.182.316,5.533,5.533,0,0,0,.328.45,6.233,6.233,0,0,0,.42.474,3.021,3.021,0,0,0,.455.389,2.977,2.977,0,0,0,.505-.377,3.218,3.218,0,0,0,.407-.449,2.42,2.42,0,0,0,.267-.45.967.967,0,0,0,.1-.389.2.2,0,0,0-.1-.164.741.741,0,0,0-.255-.1,2.639,2.639,0,0,0-.346-.055c-.126-.013-.254-.018-.383-.018A3.809,3.809,0,0,0,58.389,28.027ZM32.142,31.935v-8.7h1.374v8.7Zm-26.355,0H2.723a3.312,3.312,0,0,1-1.258-.212,2.4,2.4,0,0,1-.845-.559,2.089,2.089,0,0,1-.474-.784A2.79,2.79,0,0,1,0,29.491,3.064,3.064,0,0,1,.195,28.4,2.916,2.916,0,0,1,.729,27.5a2.487,2.487,0,0,1,.814-.614,2.407,2.407,0,0,1,1.046-.225,2.5,2.5,0,0,1,.954.176,2.141,2.141,0,0,1,.742.5,2.179,2.179,0,0,1,.474.766,2.792,2.792,0,0,1,.164.979v1.446H7.367V27.1H8.753v4.838ZM2.085,28.1a1.173,1.173,0,0,0-.358.256,1.283,1.283,0,0,0-.256.4,1.338,1.338,0,0,0-.1.523,1.365,1.365,0,0,0,.11.577,1.093,1.093,0,0,0,.291.389,1.12,1.12,0,0,0,.42.219,1.8,1.8,0,0,0,.492.067h.851V29.442a1.83,1.83,0,0,0-.262-1.064.884.884,0,0,0-.772-.371A1,1,0,0,0,2.085,28.1Zm92.978.612a3.468,3.468,0,0,1-2.941-1.275,3.657,3.657,0,0,1-.639-2.159,16.113,16.113,0,0,1,.76-4.023,3.034,3.034,0,0,0,.09-.456,5.5,5.5,0,0,0,1.931-1.375l.2-.222q.194-.213.391-.425c.252,3.722.379,5.93.379,6.565a22.362,22.362,0,0,1-.119,2.474,5.005,5.005,0,0,0-.054.9h0Zm-1.584-6.423a9.9,9.9,0,0,0-.487,1.629,5.39,5.39,0,0,0-.11.914,1.624,1.624,0,0,0,.251.878.4.4,0,0,0,.368.193c.288,0,.5-.243.636-.724.056-.2.066-.328.03-.376a.056.056,0,0,0-.046-.022c-.019,0-.054.044-.1.132a1.916,1.916,0,0,1-.156.242.3.3,0,0,1-.228.105.389.389,0,0,1-.354-.245,1.607,1.607,0,0,1-.059-1.025c.186-.8.33-1.357.428-1.645a1.1,1.1,0,0,0,.073-.324c0-.039-.01-.062-.029-.066C93.637,21.957,93.565,22.069,93.478,22.289Zm1.837,6.42v0a6.875,6.875,0,0,0,.308-.667,14.6,14.6,0,0,0,.944-5.448c0-.5-.11-2.346-.319-5.33l.638-.7.337-.368.508-.554c2.068-2.086,3.93-3.143,5.533-3.145a2.132,2.132,0,0,1,1.983,1.166c.092.168.154.25.191.25s.087-.084.161-.25a3.464,3.464,0,0,0,.275-1.051c1.358,1.587,2.74,3.17,4.109,4.707a25.843,25.843,0,0,0-3.492,1.215l-.195.069a2.368,2.368,0,0,1-.274.091,8.817,8.817,0,0,0-1.407-2.135,2.437,2.437,0,0,0-1.653-.957,2.573,2.573,0,0,0-1.923,1.082,4.075,4.075,0,0,0-.962,2.675c0,1.321.978,1.991,2.909,1.991a6.793,6.793,0,0,0,2.094-.252,2.408,2.408,0,0,1,.148.811c0,.361-.579,1.1-1.72,2.183a22.342,22.342,0,0,1-3.985,3.071,9.225,9.225,0,0,1-4.208,1.542Zm3.031-5.169a2.265,2.265,0,0,1,.642,1.086c.111.362.214.541.315.549.072,0,.156-.419.251-1.244s.262-1.255.486-1.255a.4.4,0,0,1,.309.192,1.366,1.366,0,0,1,.136.19c.07,0,.12-.094.151-.279s.039-.307,0-.361a.816.816,0,0,0-.6-.363h-.009c-.275,0-.476.365-.6,1.086-.071.4-.138.8-.2,1.191a3.794,3.794,0,0,1-.246-.607c-.418-.807-.824-1.215-1.205-1.215h-.022a.2.2,0,0,0-.157.066.818.818,0,0,0-.087.588c.015.092.132.2.35.316a1.255,1.255,0,0,0,.386.164h.01a.38.38,0,0,0,.081-.1h0Zm.158-6.207c-.019,0-.32.156-.346.174a1.544,1.544,0,0,0-.319.308,1.761,1.761,0,0,0-.312,1.315.993.993,0,0,0,.262.581.6.6,0,0,0,.407.173.442.442,0,0,0,.189-.041.59.59,0,0,0,.243-.717,1.582,1.582,0,0,0-.248-.42l-.027-.038-.036-.049a1.2,1.2,0,0,1-.207-.4.761.761,0,0,1,.4-.839s0-.009,0-.024l0-.008,0-.015h0Zm-13.9.874,4.945-4.675a10.3,10.3,0,0,0-.976,3.868,3.86,3.86,0,0,0,.885,2.568,2.411,2.411,0,0,0,2.609.916c-.037.076-.078.168-.121.273a13.918,13.918,0,0,0-1.082,5.229c0,.046,0,.093,0,.138C87.653,22.126,84.6,18.206,84.6,18.206ZM19.2,25.7a.694.694,0,0,1,0-1,.705.705,0,0,1,.512-.207.72.72,0,0,1,.525.207.694.694,0,0,1,0,1,.72.72,0,0,1-.525.206A.7.7,0,0,1,19.2,25.7Zm-16.221,0a.7.7,0,0,1,0-1A.707.707,0,0,1,3.5,24.5a.707.707,0,0,1,.523.207.7.7,0,0,1,0,1,.708.708,0,0,1-.523.206A.708.708,0,0,1,2.979,25.7Zm-1.9,0a.705.705,0,0,1,0-1,.709.709,0,0,1,.523-.207.708.708,0,0,1,.523.207.705.705,0,0,1,0,1,.71.71,0,0,1-.523.206A.71.71,0,0,1,1.082,25.7Zm9.64-5.72a6.507,6.507,0,0,1-.668-.079l.1-1.362q.352.049.668.073t.547.024a4.109,4.109,0,0,0,.644-.048,1.532,1.532,0,0,0,.541-.189,1.024,1.024,0,0,0,.377-.389,1.444,1.444,0,0,0,.153-.662h-.815A3.347,3.347,0,0,1,11,17.135a2.339,2.339,0,0,1-.839-.559,2.137,2.137,0,0,1-.468-.784,2.784,2.784,0,0,1-.146-.887,3.156,3.156,0,0,1,.188-1.088,2.828,2.828,0,0,1,.529-.906,2.5,2.5,0,0,1,.808-.614,2.371,2.371,0,0,1,1.039-.225,2.58,2.58,0,0,1,.979.176,2.1,2.1,0,0,1,.735.5,2.149,2.149,0,0,1,.461.766,2.9,2.9,0,0,1,.158.978v1.447H68.868a.367.367,0,0,0,.364-.17,1.046,1.046,0,0,0,.085-.462V13.639H70.7v1.179a1.324,1.324,0,0,0,.231.8.975.975,0,0,0,.839.316h.3a.378.378,0,0,0,.365-.158,1.04,1.04,0,0,0,.085-.474v-2.14h1.386v1.654a1.324,1.324,0,0,0,.231.8.974.974,0,0,0,.838.316H75.7V12.509h1.374v4.839H74.946a1.3,1.3,0,0,1-.826-.25,1.87,1.87,0,0,1-.487-.553,1.354,1.354,0,0,1-.6.6,1.933,1.933,0,0,1-.9.2h-.389a1.408,1.408,0,0,1-.863-.237,1.747,1.747,0,0,1-.486-.541,1.382,1.382,0,0,1-.6.577,2.057,2.057,0,0,1-.942.2H14.442a3.14,3.14,0,0,1-.28,1.209,2.234,2.234,0,0,1-.656.821,2.792,2.792,0,0,1-.973.468A4.686,4.686,0,0,1,11.306,20Q11.026,20,10.722,19.979Zm.894-6.467a1.159,1.159,0,0,0-.359.255,1.278,1.278,0,0,0-.255.4,1.329,1.329,0,0,0-.1.523,1.363,1.363,0,0,0,.109.577,1.1,1.1,0,0,0,.292.39,1.132,1.132,0,0,0,.419.219,1.822,1.822,0,0,0,.492.067h.851V14.855a1.772,1.772,0,0,0-.274-1.064.891.891,0,0,0-.76-.371A.992.992,0,0,0,11.616,13.512ZM2.03,19.736q-.194-.018-.34-.042l-.164-.025a1.266,1.266,0,0,1-.164-.037l.158-1.386.34.073q.145.025.3.043a2.472,2.472,0,0,0,.292.018.739.739,0,0,0,.718-.34,2.168,2.168,0,0,0,.182-1V12.509H4.741v4.644A3.453,3.453,0,0,1,4.6,18.174,2.381,2.381,0,0,1,4.158,19a2.063,2.063,0,0,1-.717.553,2.283,2.283,0,0,1-.985.2Q2.224,19.755,2.03,19.736Zm87.515-1.1a2.256,2.256,0,0,1-.417-1.426,9.863,9.863,0,0,1,.747-3.174c.186-.5.331-.9.442-1.23L94.192,9.14q-.259-3.923-.26-4.62a4.827,4.827,0,0,0-.4-2.1A8.31,8.31,0,0,1,94.278.214c.064-.141.116-.212.159-.214s.115.076.187.226q.212.453.985,2.5c.541,1.419.858,2.291.946,2.618a2.268,2.268,0,0,1,.105.558q0,.587-1.132-.7c-.089-.122-.134-.069-.134.159q0,.067.174,2.482l-1.378,1.3c.1,1.53.23,3.4.393,5.7l.043.6.013.182q.035.481.067.94c-.674.725-.99,1.063-1.056,1.129a4.6,4.6,0,0,1-2.867,1.515A1.476,1.476,0,0,1,89.546,18.632Zm2.225-2.258a2.03,2.03,0,0,1,.792.158c-.656.314-1.122.532-1.464.689-.042.021-.058.045-.047.07s.031.034.068.034h.019a4.046,4.046,0,0,0,1.29-.254,1.773,1.773,0,0,0,.551-.478,1.1,1.1,0,0,0,.328-.605c0-.137-.082-.23-.244-.277a4.41,4.41,0,0,0-1.192-.2,2.2,2.2,0,0,0-.423.039,7.1,7.1,0,0,0-.554.719c-.033.048-.037.078-.016.095a.082.082,0,0,0,.039.008.228.228,0,0,0,.056-.008,1.135,1.135,0,0,1,.258-.022C91.365,16.344,91.547,16.354,91.77,16.374Zm9.547,2.009c0-.373.36-.56,1.083-.561q.74,0,1.6,1.122a5.307,5.307,0,0,1-1.182.146Q101.316,19.089,101.317,18.383ZM6.565,17.347v-8.7H7.938v8.7Zm89.529-2.281q-.051-.733-.11-1.537-.267-3.668-.413-5.692l.459-.434.568-.538c.006-.007.816-.816,2.409-2.405l.145-.145c.608.915,1.324,1.873,2.254,3.015.658.808,1.346,1.614,2.012,2.393l.034.041.326.381.082.1c-.04,0-.087,0-.153,0-2.09,0-4.493,1.455-7.142,4.323l-.309.333-.066.071-.095.1,0,0Zm2.149-7.9a10.031,10.031,0,0,0-.485,1.63,5.309,5.309,0,0,0-.111.915,1.64,1.64,0,0,0,.251.877.4.4,0,0,0,.369.192c.289,0,.5-.243.633-.724.056-.2.067-.329.031-.377a.056.056,0,0,0-.046-.021c-.02,0-.052.043-.1.133a2.173,2.173,0,0,1-.154.244.305.305,0,0,1-.229.1.387.387,0,0,1-.353-.244,1.608,1.608,0,0,1-.061-1.025c.193-.829.334-1.367.43-1.645a1.126,1.126,0,0,0,.074-.324c0-.04-.01-.061-.032-.066C98.4,6.834,98.332,6.945,98.242,7.165Z" fill="#fff" stroke="rgba(0,0,0,0)" stroke-width="1"/>
  </g>
</svg>
