<svg xmlns="http://www.w3.org/2000/svg" xmlns:xlink="http://www.w3.org/1999/xlink" width="1152" height="56.644" viewBox="0 0 1152 56.644">
  <defs>
    <linearGradient id="linear-gradient" x1="1.415" y1="7.941" x2="0.224" y2="-0.63" gradientUnits="objectBoundingBox">
      <stop offset="0" stop-color="#22aca1"/>
      <stop offset="0.459" stop-color="#036779"/>
      <stop offset="1" stop-color="#002b55"/>
    </linearGradient>
    <linearGradient id="linear-gradient-2" x1="0.5" x2="0.5" y2="1" gradientUnits="objectBoundingBox">
      <stop offset="0" stop-color="#009247"/>
      <stop offset="1" stop-color="#d6a329"/>
    </linearGradient>
  </defs>
  <g id="Component_349_1" data-name="Component 349 – 1" transform="translate(0 0.322)">
    <path id="Path_40391" data-name="Path 40391" d="M15,0H1137a15,15,0,0,1,15,15V41a15,15,0,0,1-15,15H15A15,15,0,0,1,0,41V15A15,15,0,0,1,15,0Z" fill="url(#linear-gradient)"/>
    <g id="Group_27206" data-name="Group 27206" transform="translate(31.337 2.678)" style="mix-blend-mode: luminosity;isolation: isolate">
      <g id="Group_27072" data-name="Group 27072" transform="translate(0 0)" style="mix-blend-mode: normal;isolation: isolate">
        <g id="Group_27073" data-name="Group 27073">
          <path id="Path_25927" data-name="Path 25927" d="M24.705,13.893S12.4.487,11.987,0A67.806,67.806,0,0,1,.161,12.536L10.577,23.374,0,33.374S10.939,47.443,11.9,50.6c.018.057.079.051.082-.01.447-7.908,11.988-16.183,11.988-16.183L14.357,23.4Z" fill="url(#linear-gradient-2)"/>
        </g>
      </g>
      <g id="Group_27085" data-name="Group 27085" transform="translate(30.338 0)" style="mix-blend-mode: normal;isolation: isolate">
        <g id="Group_27086" data-name="Group 27086" transform="translate(0 0)" style="mix-blend-mode: normal;isolation: isolate">
          <path id="Path_25934" data-name="Path 25934" d="M10.5,34.719a10.654,10.654,0,0,1-1.717.425C2.936,36.482-1.534,31.2.5,25.513c1.625-4.063,6.095-4.875,8.99-1.911a16.279,16.279,0,0,1,2.185,2.546,39.744,39.744,0,0,1,4.42,8.813,2.1,2.1,0,0,0,.648.92.8.8,0,0,0,1.266-.089,2.551,2.551,0,0,0,.43-1.828,12.1,12.1,0,0,0-.55-2.554,24.742,24.742,0,0,0-1.093-2.881c-2.53-5.639-5.285-14.083-3.833-20.2a11.635,11.635,0,0,1,.5-1.61,10.394,10.394,0,0,1,3.76-4.88c3.358-2.411,8.351-2.669,11.056.59a7.935,7.935,0,0,1,1,1.476,10.418,10.418,0,0,1,1.128,5.247,12.838,12.838,0,0,1-.132,1.641,12.41,12.41,0,0,1-.333,1.572,14.461,14.461,0,0,1-.709,2.179,17.707,17.707,0,0,1-3.816,5.65A22.117,22.117,0,0,0,24.374,13.4a5.638,5.638,0,0,0-.812-1.565c-.618-.773-1.391-.927-2.319,0a5.574,5.574,0,0,0-1.2,1.809c-1.2,2.851-.517,6.937.256,11.006.129.678.261,1.355.388,2.026q.21.956.368,1.921a53.9,53.9,0,0,1,.771,11.794c-.041.793-.111,1.562-.218,2.3-.534,3.69-1.958,6.609-4.875,7.947,0,0,2.577-12.265-6.235-15.923" transform="translate(0 0.001)" fill="url(#linear-gradient-2)"/>
        </g>
      </g>
      <g id="Group_27091" data-name="Group 27091" transform="translate(63.668)" style="mix-blend-mode: normal;isolation: isolate">
        <path id="Path_25930" data-name="Path 25930" d="M65.6,12.557c.035,9.03-4.014,15.543-9.74,21.23-9.724,9.66-21.195,15.763-35.048,16.752-5.731.41-11.292-.241-15.75-4.423-8.211-7.7-6.1-23.336,3.917-29.922,4.353-2.861,9.253-3.718,14.254-4.35,1.494-.188,3-.327,4.475-.595,5.075-.917,9.195-2.917,11.248-8.243,1.48-3.838,2.824-3.893,5.331-.785,1.761,2.185-.5,3.6-1.341,5.22-.968,1.852-1.882.475-2.794-.2-.845-.623-1.557-1.573-2.683-.112C34.5,11,30.067,12.064,25.591,12.912c-3.25.616-6.585.773-9.761,1.8a19.575,19.575,0,0,0-12.662,11.6c-3.318,8.119,1.407,15.721,10.8,17.3,7.737,1.3,15.255-.058,22.4-3.018,11.488-4.76,21.12-11.853,27.227-23.044a5.612,5.612,0,0,0,.864-2.535c.024-.908.073-1.956-.75-2.486-.994-.64-1.265.623-1.859,1.019-2.612,1.742-5.409.581-5.761-2.577a14.23,14.23,0,0,1,.46-6.266c.459-1.334.817-2.779,2.527-3.021a4.219,4.219,0,0,1,3.893,1.86A12.119,12.119,0,0,1,65.6,12.557" transform="translate(0 -0.001)" fill="url(#linear-gradient-2)"/>
        <g id="Group_27081" data-name="Group 27081" transform="translate(26.975 19.389)">
          <g id="Group_27087" data-name="Group 27087" transform="translate(0 0)">
            <path id="Path_25932" data-name="Path 25932" d="M4.941,7.845A7.133,7.133,0,0,1,3.683,5.4,4.669,4.669,0,0,1,6.114.286C6.138.272,6.1.164,6.088,0A21.372,21.372,0,0,0,3.976,1.066,9.091,9.091,0,0,0,2.029,2.939,10.8,10.8,0,0,0,.123,10.96a6.177,6.177,0,0,0,1.6,3.546,3.353,3.353,0,0,0,3.633.805c1.528-.713,2.019-2.777,1.481-4.375a12.2,12.2,0,0,0-1.9-3.092" transform="translate(0 0)" fill="url(#linear-gradient-2)"/>
          </g>
        </g>
      </g>
    </g>
  </g>
</svg>
