<svg id="Group_22419" data-name="Group 22419" xmlns="http://www.w3.org/2000/svg" xmlns:xlink="http://www.w3.org/1999/xlink" width="296.495" height="80.759" viewBox="0 0 296.495 80.759">
  <defs>
    <clipPath id="clip-path">
      <rect id="Rectangle_8" data-name="Rectangle 8" width="296.495" height="80.759" fill="none"/>
    </clipPath>
  </defs>
  <path id="Path_181" data-name="Path 181" d="M3.41,395.271l-2.255,2.878H1.124v-2.878H0v6.334H1.124v-1.848l.911-1.131,1.712,2.978h1.24l-2.278-3.863,1.949-2.471Z" transform="translate(-0.001 -329.073)"/>
  <rect id="Rectangle_6" data-name="Rectangle 6" width="1.116" height="4.758" transform="translate(5.685 67.775)"/>
  <g id="Group_22418" data-name="Group 22418">
    <g id="Group_22417" data-name="Group 22417" clip-path="url(#clip-path)">
      <path id="Path_182" data-name="Path 182" d="M33.874,392.17a.634.634,0,1,0,.69.631.637.637,0,0,0-.69-.631" transform="translate(-27.626 -326.491)"/>
      <path id="Path_183" data-name="Path 183" d="M51.693,403.992a2.224,2.224,0,0,0-1.562.759H50.1l-.086-.643H49.1v4.758h1.116v-3.325a1.5,1.5,0,0,1,1.084-.593c.515,0,.741.295.741,1.078v2.84h1.115v-2.984c0-1.2-.446-1.89-1.464-1.89" transform="translate(-40.878 -336.333)"/>
      <path id="Path_184" data-name="Path 184" d="M82.316,408.117H81.47c-.578,0-.771-.163-.771-.43a.546.546,0,0,1,.232-.455,1.836,1.836,0,0,0,.643.126,1.623,1.623,0,0,0,1.81-1.623,1.252,1.252,0,0,0-.271-.8h.868v-.829h-1.7a2.121,2.121,0,0,0-.706-.116A1.732,1.732,0,0,0,79.7,405.7a1.585,1.585,0,0,0,.627,1.256v.039a1.152,1.152,0,0,0-.527.887.9.9,0,0,0,.43.795v.038a1.212,1.212,0,0,0-.686,1.014c0,.833.845,1.24,1.98,1.24,1.554,0,2.538-.739,2.538-1.677,0-.822-.605-1.174-1.742-1.174m-.742-3.355a.835.835,0,0,1,.826.937.835.835,0,1,1-1.651,0,.833.833,0,0,1,.825-.937m.116,5.482c-.747,0-1.212-.252-1.212-.686a.789.789,0,0,1,.368-.627,2.606,2.606,0,0,0,.643.065h.652c.545,0,.84.108.84.477,0,.41-.523.771-1.29.771" transform="translate(-66.219 -336.332)"/>
      <path id="Path_185" data-name="Path 185" d="M124.389,397.551l-.854-.358c-.525-.214-1.007-.4-1.007-.9,0-.463.39-.744.992-.744a2.037,2.037,0,0,1,1.375.544l.577-.713a2.777,2.777,0,0,0-1.953-.808,1.927,1.927,0,0,0-2.128,1.786,1.817,1.817,0,0,0,1.281,1.679l.866.375c.575.244.984.411.984.933,0,.494-.391.816-1.1.816a2.491,2.491,0,0,1-1.651-.722l-.654.771a3.264,3.264,0,0,0,2.282.928,2.016,2.016,0,0,0,2.274-1.883,1.755,1.755,0,0,0-1.28-1.709" transform="translate(-100.83 -328.494)"/>
      <path id="Path_186" data-name="Path 186" d="M155.255,403.994a3.707,3.707,0,0,0-1.953.623l.411.745a2.621,2.621,0,0,1,1.336-.469c.643,0,.849.427.864.938-1.953.208-2.8.74-2.8,1.758a1.333,1.333,0,0,0,1.406,1.4,2.3,2.3,0,0,0,1.476-.644h.031l.085.527h.915v-2.817c0-1.325-.586-2.057-1.775-2.057m.659,3.6a1.5,1.5,0,0,1-1.034.515c-.4,0-.686-.185-.686-.6,0-.481.429-.817,1.72-.98Z" transform="translate(-127.474 -336.335)"/>
      <path id="Path_187" data-name="Path 187" d="M185.841,398.288c-.116,0-.24-.1-.24-.372V392.24h-1.116v5.618c0,.829.29,1.341,1.081,1.341a1.58,1.58,0,0,0,.588-.1l-.139-.833a.656.656,0,0,1-.175.019" transform="translate(-153.588 -326.549)"/>
      <path id="Path_188" data-name="Path 188" d="M205.845,406.026v2.84h1.116v-2.983c0-1.2-.465-1.891-1.469-1.891a2.155,2.155,0,0,0-1.531.852,1.282,1.282,0,0,0-1.313-.852,2.047,2.047,0,0,0-1.461.765h-.03l-.086-.649h-.914v4.758h1.116v-3.324a1.484,1.484,0,0,1,1-.594c.5,0,.733.295.733,1.078v2.84h1.116v-3.324a1.469,1.469,0,0,1,1-.594c.5,0,.733.295.733,1.078" transform="translate(-166.636 -336.333)"/>
      <path id="Path_189" data-name="Path 189" d="M247.385,407.589a1.333,1.333,0,0,0,1.406,1.4,2.3,2.3,0,0,0,1.476-.644h.031l.085.527h.915V406.05c0-1.324-.585-2.056-1.775-2.056a3.708,3.708,0,0,0-1.952.623l.411.744a2.628,2.628,0,0,1,1.336-.468c.643,0,.849.426.864.938-1.953.209-2.8.74-2.8,1.759m2.8-1.065v1.07a1.5,1.5,0,0,1-1.034.515c-.4,0-.686-.185-.686-.6,0-.48.429-.818,1.72-.98" transform="translate(-205.954 -336.335)"/>
      <path id="Path_190" data-name="Path 190" d="M281.346,403.992a2.224,2.224,0,0,0-1.562.759h-.03l-.086-.643h-.914v4.758h1.116v-3.325a1.5,1.5,0,0,1,1.084-.593c.515,0,.741.295.741,1.078v2.84h1.115v-2.984c0-1.2-.446-1.89-1.464-1.89" transform="translate(-232.07 -336.333)"/>
      <path id="Path_191" data-name="Path 191" d="M324.277,401.142a2.881,2.881,0,0,0,2.022-.751V397.6h-2.2v.922h1.194v1.368a1.417,1.417,0,0,1-.9.278c-1.271,0-1.941-.875-1.941-2.32,0-1.422.755-2.294,1.88-2.294a1.713,1.713,0,0,1,1.278.55l.6-.725a2.608,2.608,0,0,0-1.915-.8,3,3,0,0,0-3,3.3,2.929,2.929,0,0,0,2.983,3.263" transform="translate(-267.485 -328.493)"/>
      <path id="Path_192" data-name="Path 192" d="M360.1,399.194a1.569,1.569,0,0,0,.588-.1l-.139-.833a.66.66,0,0,1-.174.019c-.116,0-.24-.1-.24-.372v-5.677h-1.117v5.618c0,.829.291,1.341,1.082,1.341" transform="translate(-298.891 -326.545)"/>
      <path id="Path_193" data-name="Path 193" d="M375.083,408.982a2.507,2.507,0,1,0-2.263-2.491,2.3,2.3,0,0,0,2.263,2.491m0-4.08c.7,0,1.116.635,1.116,1.589s-.419,1.581-1.116,1.581-1.117-.628-1.117-1.581.42-1.589,1.117-1.589" transform="translate(-310.382 -336.333)"/>
      <path id="Path_194" data-name="Path 194" d="M407.07,398.583h.03a1.913,1.913,0,0,0,1.3.616c1.059,0,2.031-.942,2.031-2.575,0-1.462-.688-2.415-1.877-2.415a2.159,2.159,0,0,0-1.374.593l.031-.791v-1.77h-1.117v6.842h.88Zm.139-2.918a1.493,1.493,0,0,1,1.038-.534c.725,0,1.036.562,1.036,1.511,0,1.077-.485,1.635-1.12,1.635a1.468,1.468,0,0,1-.953-.4Z" transform="translate(-338.082 -326.55)"/>
      <path id="Path_195" data-name="Path 195" d="M439.315,408.341h.03l.086.527h.914v-2.817c0-1.325-.585-2.057-1.775-2.057a3.7,3.7,0,0,0-1.952.623l.41.744a2.629,2.629,0,0,1,1.337-.468c.643,0,.848.426.863.938-1.952.209-2.8.74-2.8,1.759a1.334,1.334,0,0,0,1.407,1.4,2.3,2.3,0,0,0,1.477-.643m-1.806-.838c0-.481.43-.817,1.72-.98v1.07a1.5,1.5,0,0,1-1.033.515c-.4,0-.686-.184-.686-.6" transform="translate(-363.34 -336.335)"/>
      <path id="Path_196" data-name="Path 196" d="M469.16,398.288c-.116,0-.24-.1-.24-.372V392.24H467.8v5.618c0,.829.29,1.341,1.081,1.341a1.58,1.58,0,0,0,.588-.1l-.139-.833a.656.656,0,0,1-.174.019" transform="translate(-389.458 -326.549)"/>
      <path id="Path_197" data-name="Path 197" d="M492.331,399.887h2.124l.491,1.716h1.19l-2.065-6.335h-1.317l-2.065,6.335h1.148Zm.477-1.654c.2-.67.388-1.387.562-2.088h.038c.186.695.372,1.418.573,2.088l.221.773h-1.618Z" transform="translate(-408.51 -329.071)"/>
      <path id="Path_198" data-name="Path 198" d="M528.836,407.662a1.565,1.565,0,0,1-.984.411c-.74,0-1.263-.628-1.263-1.581s.531-1.589,1.3-1.589a1.166,1.166,0,0,1,.791.349l.542-.725a2.036,2.036,0,0,0-1.392-.534,2.351,2.351,0,0,0-2.385,2.5,2.264,2.264,0,0,0,2.293,2.491,2.349,2.349,0,0,0,1.554-.585Z" transform="translate(-437.444 -336.334)"/>
      <path id="Path_199" data-name="Path 199" d="M555.84,406.051c0-1.325-.586-2.057-1.775-2.057a3.712,3.712,0,0,0-1.953.623l.412.745a2.621,2.621,0,0,1,1.336-.469c.643,0,.849.427.864.938-1.953.208-2.8.74-2.8,1.758a1.333,1.333,0,0,0,1.406,1.4,2.3,2.3,0,0,0,1.476-.644h.031l.085.527h.915Zm-1.117,1.542a1.5,1.5,0,0,1-1.034.515c-.4,0-.685-.185-.685-.6,0-.481.429-.817,1.72-.98Z" transform="translate(-459.492 -336.335)"/>
      <path id="Path_200" data-name="Path 200" d="M585.893,399.08v-6.843h-1.117v1.724l.043.768a1.749,1.749,0,0,0-1.248-.523,2.237,2.237,0,0,0-2.015,2.5c0,1.569.768,2.491,1.953,2.491a1.993,1.993,0,0,0,1.352-.632h.031l.085.515Zm-1.117-1.341a1.257,1.257,0,0,1-.992.535c-.685,0-1.081-.546-1.081-1.581,0-.991.5-1.565,1.1-1.565a1.4,1.4,0,0,1,.969.4Z" transform="translate(-484.16 -326.547)"/>
      <path id="Path_201" data-name="Path 201" d="M617.634,407.773a2.025,2.025,0,0,1-1.1.346,1.355,1.355,0,0,1-1.4-1.326h3.021a2.926,2.926,0,0,0,.048-.541c0-1.33-.678-2.259-1.964-2.259a2.508,2.508,0,0,0,.152,4.99,2.952,2.952,0,0,0,1.63-.515Zm-1.379-2.917c.651,0,.977.446.977,1.178h-2.116a1.2,1.2,0,0,1,1.139-1.178" transform="translate(-511.203 -336.333)"/>
      <path id="Path_202" data-name="Path 202" d="M648.074,408.866h1.116v-3.324a1.466,1.466,0,0,1,1-.593c.5,0,.732.295.732,1.078v2.84h1.115v-2.983c0-1.2-.465-1.891-1.468-1.891a2.152,2.152,0,0,0-1.531.852,1.282,1.282,0,0,0-1.313-.852,2.045,2.045,0,0,0-1.461.765h-.031l-.085-.649h-.915v4.758h1.117v-3.324a1.483,1.483,0,0,1,1-.593c.5,0,.733.295.733,1.078Z" transform="translate(-537.169 -336.333)"/>
      <path id="Path_203" data-name="Path 203" d="M692.229,409.684a1.006,1.006,0,0,1-.949.817,1.327,1.327,0,0,1-.341-.065l-.205.864a1.855,1.855,0,0,0,.62.1c1.038,0,1.539-.665,1.933-1.736l1.721-4.975H693.93l-.709,2.332c-.124.434-.244.9-.364,1.344h-.039c-.139-.453-.275-.923-.419-1.344l-.821-2.332h-1.131l1.871,4.7Z" transform="translate(-574.814 -336.911)"/>
      <path id="Path_204" data-name="Path 204" d="M733.022,393.2v.5l-.64.046v.836h.64v3.871h1.116v-3.871h.93v-.886h-.93v-.512c0-.552.209-.8.6-.8a1.323,1.323,0,0,1,.515.112l.213-.833a2.418,2.418,0,0,0-.872-.167c-1.123,0-1.576.723-1.576,1.709" transform="translate(-609.726 -325.923)"/>
      <path id="Path_205" data-name="Path 205" d="M753.208,403.938a2.507,2.507,0,1,0,2.263,2.5,2.305,2.305,0,0,0-2.263-2.5m0,4.08c-.7,0-1.117-.628-1.117-1.581s.42-1.589,1.117-1.589,1.116.635,1.116,1.589-.419,1.581-1.116,1.581" transform="translate(-625.18 -336.288)"/>
      <path id="Path_206" data-name="Path 206" d="M785.6,404.9h-.031l-.085-.848h-.915v4.758h1.116v-2.9c.287-.725.744-.984,1.124-.984a1.6,1.6,0,0,1,.488.077l.194-.968a1.2,1.2,0,0,0-.539-.1,1.625,1.625,0,0,0-1.352.965" transform="translate(-653.17 -336.288)"/>
      <path id="Path_207" data-name="Path 207" d="M815.421,395.217l-2.065,6.335H814.5l.5-1.716h2.124l.491,1.716h1.19l-2.065-6.335Zm-.169,3.737.223-.773c.2-.671.388-1.387.562-2.088h.039c.185.695.371,1.418.573,2.088l.221.773Z" transform="translate(-677.139 -329.028)"/>
      <path id="Path_208" data-name="Path 208" d="M851.005,404.9h-.031l-.085-.848h-.915v4.758h1.116v-2.9c.287-.725.744-.984,1.124-.984a1.6,1.6,0,0,1,.488.077l.194-.968a1.2,1.2,0,0,0-.539-.1,1.625,1.625,0,0,0-1.352.965" transform="translate(-707.624 -336.288)"/>
      <path id="Path_209" data-name="Path 209" d="M870.658,403.939a3.711,3.711,0,0,0-1.953.623l.412.745a2.619,2.619,0,0,1,1.336-.469c.643,0,.849.427.864.938-1.953.209-2.8.74-2.8,1.758a1.333,1.333,0,0,0,1.406,1.4,2.3,2.3,0,0,0,1.476-.644h.031l.085.527h.915V406c0-1.325-.585-2.057-1.775-2.057m.659,3.6a1.5,1.5,0,0,1-1.034.515c-.4,0-.686-.185-.686-.6,0-.48.429-.817,1.72-.98Z" transform="translate(-723.063 -336.289)"/>
      <path id="Path_210" data-name="Path 210" d="M902.341,394.151a2.158,2.158,0,0,0-1.373.592l.031-.79v-1.771h-1.116v6.843h.88l.1-.5h.031a1.913,1.913,0,0,0,1.3.616c1.058,0,2.031-.941,2.031-2.575,0-1.463-.688-2.415-1.878-2.415m-.389,4.068a1.47,1.47,0,0,1-.953-.4v-2.217a1.494,1.494,0,0,1,1.038-.534c.725,0,1.035.561,1.035,1.511,0,1.077-.485,1.635-1.12,1.635" transform="translate(-749.175 -326.501)"/>
      <path id="Path_211" data-name="Path 211" d="M932.368,392.115a.634.634,0,1,0,.69.631.637.637,0,0,0-.69-.631" transform="translate(-775.645 -326.445)"/>
      <rect id="Rectangle_7" data-name="Rectangle 7" width="1.116" height="4.758" transform="translate(156.161 67.766)"/>
      <path id="Path_212" data-name="Path 212" d="M948.135,408.018c-.74,0-1.263-.628-1.263-1.581s.531-1.589,1.3-1.589a1.168,1.168,0,0,1,.791.349l.543-.725a2.038,2.038,0,0,0-1.392-.534,2.352,2.352,0,0,0-2.386,2.5,2.264,2.264,0,0,0,2.293,2.491,2.355,2.355,0,0,0,1.554-.585l-.453-.737a1.562,1.562,0,0,1-.985.411" transform="translate(-787.339 -336.288)"/>
      <path id="Path_213" data-name="Path 213" d="M987.58,395.215h-1.124v6.335h3.755V400.6H987.58Z" transform="translate(-821.25 -329.026)"/>
      <path id="Path_214" data-name="Path 214" d="M1015.527,403.939a3.711,3.711,0,0,0-1.953.623l.411.745a2.62,2.62,0,0,1,1.336-.469c.643,0,.849.427.864.938-1.953.209-2.8.74-2.8,1.758a1.333,1.333,0,0,0,1.406,1.4,2.3,2.3,0,0,0,1.476-.644h.031l.085.527h.915V406c0-1.325-.586-2.057-1.775-2.057m.659,3.6a1.5,1.5,0,0,1-1.034.515c-.4,0-.686-.185-.686-.6,0-.48.43-.817,1.72-.98Z" transform="translate(-843.671 -336.289)"/>
      <path id="Path_215" data-name="Path 215" d="M1047.348,403.938a2.223,2.223,0,0,0-1.562.759h-.03l-.086-.643h-.914v4.757h1.116v-3.325a1.5,1.5,0,0,1,1.085-.592c.515,0,.741.295.741,1.077v2.84h1.115v-2.984c0-1.2-.446-1.89-1.464-1.89" transform="translate(-869.785 -336.288)"/>
      <path id="Path_216" data-name="Path 216" d="M1077.972,408.064h-.846c-.578,0-.772-.163-.772-.43a.546.546,0,0,1,.233-.455,1.821,1.821,0,0,0,.643.126,1.623,1.623,0,0,0,1.81-1.623,1.254,1.254,0,0,0-.271-.8h.868v-.829h-1.7a2.115,2.115,0,0,0-.705-.116,1.731,1.731,0,0,0-1.879,1.708,1.582,1.582,0,0,0,.627,1.256v.039a1.151,1.151,0,0,0-.527.887.9.9,0,0,0,.431.795v.038a1.212,1.212,0,0,0-.686,1.014c0,.833.845,1.24,1.98,1.24,1.554,0,2.538-.739,2.538-1.677,0-.822-.605-1.174-1.742-1.174m-.742-3.355a.835.835,0,0,1,.826.937.835.835,0,1,1-1.652,0,.833.833,0,0,1,.826-.937m.116,5.482c-.748,0-1.213-.252-1.213-.686a.789.789,0,0,1,.369-.627,2.6,2.6,0,0,0,.643.065h.652c.545,0,.84.109.84.477,0,.41-.523.771-1.29.771" transform="translate(-895.127 -336.288)"/>
      <path id="Path_217" data-name="Path 217" d="M1109.8,407.892c-.36.465-.636.659-1.054.659-.515,0-.74-.294-.74-1.077v-2.84h-1.116v2.983c0,1.2.446,1.891,1.465,1.891a1.935,1.935,0,0,0,1.53-.818h.031l.085.7h.914v-4.758H1109.8Z" transform="translate(-921.511 -336.868)"/>
      <path id="Path_218" data-name="Path 218" d="M1139.98,403.939a3.706,3.706,0,0,0-1.952.623l.411.745a2.62,2.62,0,0,1,1.337-.469c.643,0,.849.427.864.938-1.953.209-2.8.74-2.8,1.758a1.333,1.333,0,0,0,1.406,1.4,2.3,2.3,0,0,0,1.476-.644h.031l.085.527h.915V406c0-1.325-.585-2.057-1.775-2.057m.659,3.6a1.5,1.5,0,0,1-1.034.515c-.4,0-.686-.185-.686-.6,0-.48.429-.817,1.72-.98Z" transform="translate(-947.282 -336.289)"/>
      <path id="Path_219" data-name="Path 219" d="M1170.04,408.064h-.846c-.578,0-.772-.163-.772-.43a.547.547,0,0,1,.233-.455,1.824,1.824,0,0,0,.643.126,1.623,1.623,0,0,0,1.81-1.623,1.253,1.253,0,0,0-.271-.8h.868v-.829H1170a2.114,2.114,0,0,0-.705-.116,1.732,1.732,0,0,0-1.879,1.708,1.584,1.584,0,0,0,.627,1.256v.039a1.151,1.151,0,0,0-.527.887.9.9,0,0,0,.43.795v.038a1.212,1.212,0,0,0-.686,1.014c0,.833.845,1.24,1.98,1.24,1.554,0,2.538-.739,2.538-1.677,0-.822-.605-1.174-1.742-1.174m-.742-3.355a.835.835,0,0,1,.826.937.834.834,0,1,1-1.651,0,.833.833,0,0,1,.825-.937m.116,5.482c-.747,0-1.212-.252-1.212-.686a.788.788,0,0,1,.368-.627,2.608,2.608,0,0,0,.643.065h.652c.545,0,.84.109.84.477,0,.41-.523.771-1.29.771" transform="translate(-971.776 -336.288)"/>
      <path id="Path_220" data-name="Path 220" d="M1198.672,403.94a2.508,2.508,0,0,0,.151,4.99,2.962,2.962,0,0,0,1.631-.515l-.38-.694a2.025,2.025,0,0,1-1.1.345,1.354,1.354,0,0,1-1.4-1.325h3.02a2.876,2.876,0,0,0,.049-.542c0-1.329-.678-2.258-1.965-2.258m-1.116,2.041a1.2,1.2,0,0,1,1.139-1.178c.651,0,.977.446.977,1.178Z" transform="translate(-996.098 -336.29)"/>
      <path id="Path_221" data-name="Path 221" d="M9.151,87.024H33.26a5.012,5.012,0,0,0,2.15-2.958q.1-.993.1-2c0-.274,0-.542-.013-.809a27.411,27.411,0,0,0-.781-4.386l-.349-.1-1.814,2.7A38.087,38.087,0,0,1,33.62,84.2H9.151a16.7,16.7,0,0,1-4.376-.56q-3.652-1.18-3.653-4.448v-.634L.8,78.437A7.329,7.329,0,0,0,0,81.183v.472q0,5.332,9.148,5.369" transform="translate(-0.002 -63.914)"/>
      <path id="Path_222" data-name="Path 222" d="M93.32,76.757V76.72a17.305,17.305,0,0,0-2.424-1.5.359.359,0,0,0-.162.036,3.91,3.91,0,0,0-1.068,2.187v.038a17.081,17.081,0,0,0,2.51,1.466,3.914,3.914,0,0,0,1.144-2.187" transform="translate(-74.649 -62.62)"/>
      <path id="Path_223" data-name="Path 223" d="M271.772,56.151a8.026,8.026,0,0,0,.5-2.921V51.652l-.286-.186-1.851,1.926.025,2.7q-3.182-.137-3.616-.708l.9-3.654-.262-.136-1.665,1.591-.82,2.846h-5.381a8.958,8.958,0,0,0,.883-1.672,4.425,4.425,0,0,0,.309-1.6l-.322-.15a10.519,10.519,0,0,1-1.74,2.107,5.876,5.876,0,0,1-2.946,1.311h-3.058a2.278,2.278,0,0,1-2.2-1.119,12.386,12.386,0,0,1-.851-4.337q-.25-3.219-.685-7.644h-.31L247.066,45.2q.434,4.323.622,6.834a28.532,28.532,0,0,0,.348,3.046q-.61.957-3.084.956-.2,0-.4-.011h-.591a6.581,6.581,0,0,1-1.086-.324,4.263,4.263,0,0,1-2.4-3.9v-.932c0-.1-.185-.175-.559-.224a8.112,8.112,0,0,0-3.642.981,6.431,6.431,0,0,0-2.721,2.4q-1.044,2.038-3.94,2.038h-.131c-.022-.018-.044-.037-.055-.037h-.4a2.292,2.292,0,0,1-2.21-1.119,12.212,12.212,0,0,1-.852-4.337q-.243-3.219-.677-7.644h-.324l-1.3,2.276q.434,4.323.615,6.834a22.364,22.364,0,0,0,.491,3.7,3.954,3.954,0,0,0,1.627,2.311,4.523,4.523,0,0,0,2.439.772l.023.024h.572l.008-.009a7.761,7.761,0,0,0,1.569-.383,3.42,3.42,0,0,0,1.951-2.268q.038.361.994,1.194a25.873,25.873,0,0,0,6.027,2.522q.435,0,1.182-1.615a5.365,5.365,0,0,0,2.6.559h.659l.018-.019a5.176,5.176,0,0,0,1.6-.256,5.316,5.316,0,0,0,2.411-2.136,3.66,3.66,0,0,0,1.368,1.615,4.506,4.506,0,0,0,2.5.777l.018.019h3.057a3.693,3.693,0,0,0,2.088-1.131l.4,1.131h3.716v-.014h2l1.243-1.193q1.292,1.157,4.785,1.207h.585a8.534,8.534,0,0,0,1.565-2.7m-32.375.335q-3.678-1.341-4.337-2.163v-.075a11.532,11.532,0,0,1,3.356-.906.468.468,0,0,1,.385.223v.783a4.162,4.162,0,0,0,.6,2.076Z" transform="translate(-186.206 -35.738)"/>
      <path id="Path_224" data-name="Path 224" d="M593.252,71.326l.087.038a3.331,3.331,0,0,0,1.99-2.946q0-1.106-3.107-1.106a6.077,6.077,0,0,1,3.38-1.156h.4q.995,0,.995.794h.038a2.6,2.6,0,0,0,.758-1.553q0-.87-1.155-.869h-.473a6.57,6.57,0,0,0-4.052,1.665q-1.44,1.33-1.442,2.187v.162q0,.4.684.4h.435a4.319,4.319,0,0,1,2.51.6,7.442,7.442,0,0,1-3.741.759q-1.316-.05-2.908-.249l-.075.049v.038a10.708,10.708,0,0,0,5.171,1.355,1.019,1.019,0,0,0,.51-.162" transform="translate(-489.168 -53.721)"/>
      <path id="Path_225" data-name="Path 225" d="M567.265,58.851h8.327a9.972,9.972,0,0,0,2.422-2.411,6.487,6.487,0,0,0,2.151,3.8,2.523,2.523,0,0,0,1.764.671A4.247,4.247,0,0,0,583,60.765a3.289,3.289,0,0,0,.994-1.069,4.9,4.9,0,0,0,.447-2.448v-.373a4.769,4.769,0,0,0,3.206,1.939,6.281,6.281,0,0,0,.681.035l0,0h.273l.03-.025a6.175,6.175,0,0,0,1.537-.273,8.255,8.255,0,0,1,2.509-.832h.1a10.136,10.136,0,0,1,3.641,1.478h.211a11.759,11.759,0,0,0,.933-2.411,1.061,1.061,0,0,0,.05-.335.859.859,0,0,0-.026-.223,7.222,7.222,0,0,0-1.143-.783,5.6,5.6,0,0,1-2.262-1.418q-.6-.745-.956-5.133l.7.349h.187l1.218-2.386v-.273l-2.437-1.578a1.723,1.723,0,0,1-1.155-1.591c0-.1,0-.2.013-.3l-.224-.174-.175.273A5.305,5.305,0,0,0,590.245,46v.3q0,.745,1.4,1.5.646,6.724.72,7.345a7.2,7.2,0,0,1-3.592.882c-.141,0-.278,0-.41-.013l-.018.013h-.143c-.158,0-.38-.013-.67-.037a2.186,2.186,0,0,1-1.679-1.094q-.634-1.106-1.777-11.969h-.323l-1.342,2.275q.993,8.9,1.018,10.326a13.112,13.112,0,0,1-.316,1.994.887.887,0,0,1-.951.665l-.013.013a2.333,2.333,0,0,1-2.119-1.609q-.753-1.61-1.672-13.665h-.324l-1.4,2.275.609,6.834a28.714,28.714,0,0,0,.348,3.045q-.5.944-3.034.945h-7.294a17.852,17.852,0,0,1-4.374-.522q-3.654-1.181-3.654-4.448v-.635l-.323-.124a7.314,7.314,0,0,0-.8,2.747v.472q0,5.331,9.146,5.331" transform="translate(-464.648 -35.741)"/>
      <path id="Path_226" data-name="Path 226" d="M804.184,58.974a13.539,13.539,0,0,0,1.33-4.051,104.292,104.292,0,0,0-1.368-11.845h-.434l-1.454,2.958a99.478,99.478,0,0,1,1.491,12.937Z" transform="translate(-667.9 -35.864)"/>
      <path id="Path_227" data-name="Path 227" d="M902.755,74.107a9.534,9.534,0,0,1,3.838-1.809,6.867,6.867,0,0,0,.709,2.56q.522,1.182,3.307,1.18h2.51l.016-.016a6.508,6.508,0,0,0,2.184-.357,6.057,6.057,0,0,0,1.062-1.05q.467-.59,1.038-1.447a9.07,9.07,0,0,0,1.578.907,19.923,19.923,0,0,0,3.989,1.33q.3,0,1.64-2.561V71.827q-.458-5.319-2.82-5.319h-.1q-2.685,0-4.885,5.518-.858,1.18-3.877,1.18h-3.653a1.839,1.839,0,0,1-1.506-1.106h2.374l1.4-2.66-.087-.224h-.659a23.4,23.4,0,0,1-6.052-1.13q-.46-.113-1.672-.423a8.513,8.513,0,0,0-2.056-.311H901a4.025,4.025,0,0,0-3.442,1.7,7.316,7.316,0,0,0-.994,2.075l.3.15a2.9,2.9,0,0,1,2.435-1.107h.36a11.362,11.362,0,0,1,2.492.392q1.61.392,1.871.466a16.418,16.418,0,0,1-7.631,2.175h-1.615l-.026.037h-.061a6.49,6.49,0,0,1-1.243-.361,4.26,4.26,0,0,1-2.4-3.9v-.932c0-.1-.187-.175-.56-.224a8.108,8.108,0,0,0-3.641.981,6.433,6.433,0,0,0-2.721,2.4q-1.044,2.038-3.94,2.038h-.234l-.038-.037H877.4q-3.244,0-4.126-.821l-.124-.137.907-.361a13.238,13.238,0,0,0,2.722-1.106l1.081-2.4-.336-.236q-3.6,1.578-6.712,2.982a7.067,7.067,0,0,1-2.832-1.28q-1.79-1.305-1.79-2.225,1.169-1.542,4.09-1.54a18.187,18.187,0,0,1,3.28.422h.036l.262-.4-.124-.2a9.922,9.922,0,0,0-3.58-2.349,4.565,4.565,0,0,0-3.219,1.466,6.807,6.807,0,0,0-1.9,4.337q0,2.362,3.218,3.865a9.41,9.41,0,0,0-2.379,3.51,8.943,8.943,0,0,0-.578,2.6v1.218a4.844,4.844,0,0,0,.559,1.863q1.453,2.423,7,2.424a8.6,8.6,0,0,0,4.3-.845l2.523-1.579v-.4H874q-3.966,0-5.929-1.5a3.239,3.239,0,0,1-1.393-2.66,4.333,4.333,0,0,1,.038-.559,6.645,6.645,0,0,1,2.1-2.523,13.321,13.321,0,0,1,3.393-2.15,6.532,6.532,0,0,0,.286,1.827q.856,1.565,4.486,1.567h2.946a6.932,6.932,0,0,0,1.653-.392,3.42,3.42,0,0,0,1.951-2.268q.037.361.994,1.194a25.848,25.848,0,0,0,6.028,2.522q.435,0,1.18-1.615a5.363,5.363,0,0,0,2.6.559h2.063a12.394,12.394,0,0,0,6.364-1.921m18.132-5.164q1.316.1,2,3.517a16.553,16.553,0,0,1-4.089-1.776,2.862,2.862,0,0,1,2.088-1.741m-30.921,4.723q-3.677-1.341-4.337-2.163v-.075a11.534,11.534,0,0,1,3.356-.906.47.47,0,0,1,.385.223v.783a4.16,4.16,0,0,0,.6,2.076Z" transform="translate(-720.164 -52.917)"/>
      <path id="Path_228" data-name="Path 228" d="M1085.3,145.92a4.113,4.113,0,0,0-.981,2.026.5.5,0,0,1,.037.137q2.3,1.379,2.4,1.38h.1a4.163,4.163,0,0,0,1.044-2.139.212.212,0,0,0-.026-.087q-.436-.3-2.374-1.453c-.042,0-.108.045-.2.137" transform="translate(-902.721 -121.368)"/>
      <path id="Path_229" data-name="Path 229" d="M5.845,208.394A12.783,12.783,0,0,0,3.348,207a4.468,4.468,0,0,0-1.119,2.2,13.244,13.244,0,0,0,2.5,1.616q.2-.038,1.058-1.38a11.667,11.667,0,0,0,2.323,1.28h.1a3.762,3.762,0,0,0,1.019-2.076v-.1A8.608,8.608,0,0,0,6.828,207q-.425,0-.983,1.393" transform="translate(-1.856 -172.333)"/>
      <path id="Path_230" data-name="Path 230" d="M199.064,315.347q-.384,0-1.019,1.38-2.263-1.318-2.288-1.38a.58.58,0,0,0-.236.062,4.575,4.575,0,0,0-1.019,2.136v.038a20.079,20.079,0,0,0,2.436,1.5,3.155,3.155,0,0,0,.945-1.342v-.036q2.3,1.316,2.336,1.378l.124-.025a4.08,4.08,0,0,0,1.081-2.175v-.023a17.956,17.956,0,0,0-2.361-1.517" transform="translate(-161.929 -262.534)"/>
      <path id="Path_231" data-name="Path 231" d="M50.881,242.763a9.223,9.223,0,0,0-1.629-4.66h-.2l-1.28,2.548a16.069,16.069,0,0,1,1.392,3.144H46.109A3.783,3.783,0,0,1,44,243.3a2.524,2.524,0,0,1-.977-1.255q.36-.944.61-1.615l-1.107-.461q-1.79,3.829-4.536,3.828H11.931a4.079,4.079,0,0,1-2.151-1.23q-1.2-1.231-1.864-5.021a10.761,10.761,0,0,0-.322-2.336l-.075.036a4.046,4.046,0,0,0-.957,2.3v.447l.038.075c-.157.1-.236.166-.236.2q-4.2,1.813-4.61,2.51A8.229,8.229,0,0,0,0,244.8v.162q0,.919,1.754.919a8.5,8.5,0,0,0,5.008-1.193,3.368,3.368,0,0,0,.8-1.491h.038q1.316,3.416,4.262,3.417H37.744a7.271,7.271,0,0,0,1.752-.4,4.624,4.624,0,0,0,2.5-2.51h.038a2.746,2.746,0,0,0,.287,1.043,3.545,3.545,0,0,0,3.094,1.864h4.25a19.656,19.656,0,0,0,1.219-3.852m-47.574.273H2.586a5,5,0,0,1-1.118-.124v-.038a2.746,2.746,0,0,1,.758-.51,19.547,19.547,0,0,0,3.616-1.677,4.689,4.689,0,0,0,.919-1.194,15.816,15.816,0,0,0,.472,2.623,7.732,7.732,0,0,1-3.926.92" transform="translate(0 -195.816)"/>
      <path id="Path_232" data-name="Path 232" d="M280.137,315.519v.162a12.991,12.991,0,0,0,2.424,1.541q.522,0,1.218-2.262a16.607,16.607,0,0,0-2.437-1.541q-.583,0-1.205,2.1" transform="translate(-233.221 -260.929)"/>
      <path id="Path_233" data-name="Path 233" d="M330,204.448l.088-.459-.312-.175a5.024,5.024,0,0,0-1.256,2.946,2.367,2.367,0,0,0,1.28,2.113,56.877,56.877,0,0,1,1.393,8.786H327.65a3.872,3.872,0,0,1-2.76-.957,4.584,4.584,0,0,0,.722-2.261v-.2a2.551,2.551,0,0,0-.1-.585,3.262,3.262,0,0,0-3.021-1.6h-.559a6.752,6.752,0,0,0-2.908.708q-.571,1.255-1.031,2.535l.111.112a4.821,4.821,0,0,1,.945-.112,3.882,3.882,0,0,1,2.859,1.6,16.647,16.647,0,0,1-5.407.757h-.994a3.648,3.648,0,0,1-3.5-3.566l-.41-.013a9.914,9.914,0,0,0-1.006,2.51,3.82,3.82,0,0,0,1.876,2.97l-.261.61a7.023,7.023,0,0,1-6.4,3.815,8.925,8.925,0,0,1-2.586-.5l-.148.547q3.716,2.175,5.17,2.274a5.414,5.414,0,0,0,1.293-.173q.4-.063,1.652-1.466a14.161,14.161,0,0,0,2.511-4.574l.336.136a4.792,4.792,0,0,0,1.228.234l.014.014h.5a14.071,14.071,0,0,0,7.383-1.963,1.465,1.465,0,0,1,.3.323q.98,1.641,3.927,1.64h4.276a10.79,10.79,0,0,0,1.205-4.81,29.456,29.456,0,0,0-.6-5.207l.311.149.137-.038,1.218-2.449v-.2l-1.579-1.044Q330,205.529,330,204.448" transform="translate(-252.311 -169.68)"/>
      <path id="Path_234" data-name="Path 234" d="M502.43,208.415l-1.454,2.958a99.3,99.3,0,0,1,1.492,12.937h.434a13.568,13.568,0,0,0,1.329-4.052,104.36,104.36,0,0,0-1.366-11.843Z" transform="translate(-417.075 -173.511)"/>
      <path id="Path_235" data-name="Path 235" d="M568.93,208.394a12.8,12.8,0,0,0-2.5-1.393,4.473,4.473,0,0,0-1.119,2.2,13.2,13.2,0,0,0,2.5,1.616q.2-.038,1.056-1.38a11.652,11.652,0,0,0,2.325,1.28h.1a3.776,3.776,0,0,0,1.019-2.076v-.1a8.619,8.619,0,0,0-2.4-1.542q-.424,0-.982,1.393" transform="translate(-470.638 -172.333)"/>
      <path id="Path_236" data-name="Path 236" d="M694.455,219.211a4.17,4.17,0,0,0-1.056,2.038v.223a18.127,18.127,0,0,0,2.423,1.417h.075a4.7,4.7,0,0,0,1.081-2.037v-.187q-.136-.149-2.4-1.492a.2.2,0,0,0-.124.037" transform="translate(-577.272 -182.467)"/>
      <path id="Path_237" data-name="Path 237" d="M603.859,204.446l.087-.459-.31-.175a5.028,5.028,0,0,0-1.256,2.946,2.365,2.365,0,0,0,1.281,2.113,57.046,57.046,0,0,1,1.393,8.786h-3.442a2.282,2.282,0,0,1-2.207-1.119,12.459,12.459,0,0,1-.851-4.337q-.248-3.219-.683-7.644h-.31l-1.317,2.276q.435,4.324.621,6.834a28.89,28.89,0,0,0,.348,3.045q-.609.957-3.081.957c-.133,0-.266,0-.4-.012h-.484a3.865,3.865,0,0,1-2.759-.957,4.6,4.6,0,0,0,.72-2.261v-.2a2.594,2.594,0,0,0-.1-.585,3.262,3.262,0,0,0-3.021-1.6h-.558a6.752,6.752,0,0,0-2.909.708q-.571,1.255-1.031,2.535l.113.112a4.807,4.807,0,0,1,.945-.112,3.882,3.882,0,0,1,2.857,1.6,16.642,16.642,0,0,1-5.406.758h-7.084a4.079,4.079,0,0,1-2.15-1.23q-1.206-1.231-1.863-5.021a10.8,10.8,0,0,0-.324-2.336l-.075.036a4.043,4.043,0,0,0-.956,2.3v.447l.037.075c-.158.1-.236.166-.236.2q-4.2,1.813-4.612,2.51a8.245,8.245,0,0,0-1.752,4.026v.162q0,.919,1.752.919a8.5,8.5,0,0,0,5.009-1.193,3.367,3.367,0,0,0,.8-1.491h.038q1.316,3.416,4.263,3.417h6.426a14.058,14.058,0,0,0,7.381-1.963,1.432,1.432,0,0,1,.3.323q.983,1.641,3.928,1.64h.658l.023-.02a5.162,5.162,0,0,0,1.556-.253,5.32,5.32,0,0,0,2.411-2.137,3.653,3.653,0,0,0,1.367,1.615,4.511,4.511,0,0,0,2.5.777l.018.018h4a10.778,10.778,0,0,0,1.206-4.809,29.475,29.475,0,0,0-.6-5.207l.311.149.137-.038,1.217-2.447v-.2l-1.578-1.044q-2.348-1.355-2.349-2.436M566.39,216.9h-.721a5,5,0,0,1-1.118-.124v-.038a2.726,2.726,0,0,1,.757-.51,19.538,19.538,0,0,0,3.617-1.677,4.671,4.671,0,0,0,.919-1.194,15.827,15.827,0,0,0,.472,2.623,7.733,7.733,0,0,1-3.927.92" transform="translate(-468.78 -169.679)"/>
      <path id="Path_238" data-name="Path 238" d="M919.837,337.313a4.23,4.23,0,0,0-.858,1.3.033.033,0,0,1-.038.038q-2.261-1.342-2.361-1.342h-.025l-.1.025a4.06,4.06,0,0,0-1.031,2.138v.124a20.535,20.535,0,0,0,2.5,1.416,3.387,3.387,0,0,0,.858-1.341h.025q2.336,1.342,2.4,1.341h.074a4.734,4.734,0,0,0,1.045-2v-.3a23.166,23.166,0,0,0-2.436-1.4Z" transform="translate(-762.114 -280.821)"/>
      <path id="Path_239" data-name="Path 239" d="M899.462,220.845a5.586,5.586,0,0,1-2.261-1.417q-.6-.744-.958-5.133l.7.348h.187l1.217-2.385v-.275l-2.435-1.578a1.72,1.72,0,0,1-1.155-1.591c0-.1,0-.2.011-.3l-.223-.173-.175.273a5.307,5.307,0,0,0-1.105,2.784v.3q0,.745,1.4,1.5.645,6.723.72,7.345a7.186,7.186,0,0,1-3.59.882c-.141,0-.278,0-.41-.012l-.018.012h-3.91l-1.329,2.647.124.173a8.277,8.277,0,0,1,2.615.361,2.888,2.888,0,0,1,1.659,1.9H881.9a16.765,16.765,0,0,1-4.376-.559q-3.654-1.181-3.653-4.462v-.622l-.323-.124a7.317,7.317,0,0,0-.8,2.734v.486q0,5.331,9.147,5.369h7.705a9.237,9.237,0,0,0,2.162-2.622,4.623,4.623,0,0,0,.336-.752,2.443,2.443,0,0,0,.111-.764,1.655,1.655,0,0,0-.385-.945h.9l.223-.223v-.019c.081-.022.158-.03.236-.056a8.3,8.3,0,0,1,2.51-.833h.1a10.153,10.153,0,0,1,3.643,1.478h.21a11.77,11.77,0,0,0,.933-2.411,1.061,1.061,0,0,0,.049-.335.932.932,0,0,0-.024-.224,7.411,7.411,0,0,0-1.144-.783" transform="translate(-726.59 -173.451)"/>
      <path id="Path_240" data-name="Path 240" d="M1066.694,204.448l.087-.459-.31-.175a5.019,5.019,0,0,0-1.255,2.946,2.367,2.367,0,0,0,1.279,2.113,56.878,56.878,0,0,1,1.393,8.786h-3.542a3.867,3.867,0,0,1-2.76-.957,4.583,4.583,0,0,0,.721-2.261v-.2a2.519,2.519,0,0,0-.1-.585,3.261,3.261,0,0,0-3.019-1.6h-.56a6.751,6.751,0,0,0-2.908.708q-.573,1.255-1.031,2.535l.112.112a4.83,4.83,0,0,1,.945-.112,3.879,3.879,0,0,1,2.858,1.6,16.646,16.646,0,0,1-5.406.757h-1.057a2.29,2.29,0,0,1-2.211-1.119,12.21,12.21,0,0,1-.852-4.337q-.241-3.219-.677-7.644h-.324l-1.3,2.274q.435,4.325.615,6.836a22.325,22.325,0,0,0,.491,3.7,3.959,3.959,0,0,0,1.628,2.311,4.516,4.516,0,0,0,2.438.772l.023.023h.572l.005-.005a14.008,14.008,0,0,0,7.3-1.958c.025,0,.124.107.3.323q.981,1.641,3.928,1.64h4.275a10.776,10.776,0,0,0,1.2-4.81,29.434,29.434,0,0,0-.6-5.207l.31.149.138-.038,1.217-2.449v-.2l-1.579-1.044q-2.347-1.355-2.348-2.436" transform="translate(-871.464 -169.68)"/>
      <path id="Path_241" data-name="Path 241" d="M1204.714,208.415h-.434l-1.456,2.958a99.28,99.28,0,0,1,1.492,12.937h.435a13.591,13.591,0,0,0,1.33-4.052,104.262,104.262,0,0,0-1.367-11.843" transform="translate(-1001.381 -173.511)"/>
      <path id="Path_242" data-name="Path 242" d="M1498.465,369.41s5.227,5.693,5.4,5.9a28.8,28.8,0,0,1,5.022-5.323l-4.423-4.6,4.491-4.246s-4.645-5.974-5.055-7.317c-.008-.024-.033-.021-.035,0-.189,3.358-5.09,6.872-5.09,6.872l4.084,4.677Z" transform="translate(-1247.509 -294.55)" fill="#024e28"/>
      <path id="Path_243" data-name="Path 243" d="M1323.885,296.557s-2.316,7.374-2.409,7.627a28.846,28.846,0,0,1,7.121,1.686l1.774-6.131,5.923,1.767s2.851-7.01,3.809-8.037c.018-.019,0-.04-.021-.029-3,1.515-8.5-.972-8.5-.972l-2.009,5.876Z" transform="translate(-1100.162 -243.488)" fill="#024e28"/>
      <path id="Path_244" data-name="Path 244" d="M1328.407,111s-7.543,1.681-7.81,1.728a28.8,28.8,0,0,1,2.1,7.011l6.2-1.529,1.431,6.012s7.5-1.036,8.864-.72c.025.006.035-.018.014-.032-2.813-1.844-3.406-7.844-3.406-7.844l-6.093,1.2Z" transform="translate(-1099.43 -92.407)" fill="#024e28"/>
      <path id="Path_245" data-name="Path 245" d="M1509.065,5.9s-5.228-5.693-5.4-5.9a28.79,28.79,0,0,1-5.022,5.323l4.423,4.6-4.491,4.247s4.645,5.974,5.055,7.317c.008.024.033.021.035,0,.19-3.358,5.09-6.872,5.09-6.872l-4.084-4.677Z" transform="translate(-1247.6)" fill="#024e28"/>
      <path id="Path_246" data-name="Path 246" d="M1643.165,119.043s2.316-7.374,2.408-7.626a28.845,28.845,0,0,1-7.121-1.686l-1.774,6.131-5.923-1.767s-2.851,7.01-3.809,8.037c-.017.019,0,.04.021.028,3-1.515,8.5.972,8.5.972l2.009-5.876Z" transform="translate(-1354.467 -91.353)" fill="#024e28"/>
      <path id="Path_247" data-name="Path 247" d="M1638.725,305.495s7.543-1.681,7.809-1.728a28.814,28.814,0,0,1-2.1-7.01l-6.2,1.529-1.431-6.012s-7.5,1.036-8.864.72c-.025-.006-.035.018-.014.032,2.814,1.844,3.406,7.844,3.406,7.844l6.093-1.2Z" transform="translate(-1355.281 -243.324)" fill="#024e28"/>
      <path id="Path_248" data-name="Path 248" d="M1398.218,16.9h0q.46.142.784,1.5.425,1.305.023,1.517L1398,19.43a1.9,1.9,0,0,0-1.733-.112q-1.414.741.727,6.3t1.583,5.726q-.606.318-2.517-1.609a9.814,9.814,0,0,0-5.082-3.067,1.775,1.775,0,0,1-.093.558q-.25.259-2.007.224t-2.171-.581q-1.714-2.539-.4-3.226,2.372-1.37,7.82,2.4a27.262,27.262,0,0,0,2.419,1.916q-1-2.657-1.807-5.418-1.6-5.02.17-5.819a3.782,3.782,0,0,1,3.311.176" transform="translate(-1153.66 -13.668)" fill="#082f18"/>
      <path id="Path_249" data-name="Path 249" d="M1293.719,196.082h0q.352-.327,1.691.07c.894.189,1.337.434,1.323.739l-.928.647a1.9,1.9,0,0,0-.963,1.444q-.065,1.593,5.822,2.521t5.75,1.492q-.027.684-2.651,1.375a9.819,9.819,0,0,0-5.2,2.867,1.769,1.769,0,0,1,.436.36q.1.348-.809,1.85t-1.588,1.59q-3.057.216-3-1.266,0-2.738,5.986-5.574a26.914,26.914,0,0,0,2.868-1.137q-2.8-.458-5.6-1.143-5.143-1.126-4.953-3.058a3.783,3.783,0,0,1,1.808-2.779" transform="translate(-1075.542 -163.12)" fill="#082f18"/>
      <path id="Path_250" data-name="Path 250" d="M1379.465,378.817h0q-.107-.469.906-1.429.916-1.019,1.3-.776s.033.375.1,1.128a1.9,1.9,0,0,0,.771,1.556q1.348.854,5.094-3.781t4.168-4.235q.578.367-.136,2.985a9.814,9.814,0,0,0-.114,5.934,1.775,1.775,0,0,1,.529-.2q.35.086,1.2,1.626t.582,2.17q-1.343,2.755-2.593,1.962-2.371-1.37-1.835-7.971a27.225,27.225,0,0,0,.451-3.053q-1.8,2.2-3.789,4.275-3.546,3.894-5.124,2.761a3.775,3.775,0,0,1-1.5-2.955" transform="translate(-1148.43 -309.073)" fill="#082f18"/>
      <path id="Path_251" data-name="Path 251" d="M1600.6,386.334h0q-.46-.139-.784-1.5-.425-1.305-.023-1.516s.343.16,1.025.483a1.906,1.906,0,0,0,1.733.11q1.414-.741-.727-6.3t-1.583-5.726q.606-.318,2.517,1.61a9.814,9.814,0,0,0,5.082,3.065,1.772,1.772,0,0,1,.093-.557q.25-.26,2.008-.224t2.171.581q1.714,2.539.4,3.227-2.372,1.369-7.82-2.4a27.243,27.243,0,0,0-2.419-1.914q1,2.655,1.807,5.418,1.6,5.019-.169,5.817a3.775,3.775,0,0,1-3.311-.176" transform="translate(-1331.703 -309.566)" fill="#082f18"/>
      <path id="Path_252" data-name="Path 252" d="M1696.433,210.913h0q-.353.329-1.691-.07c-.894-.188-1.336-.434-1.323-.739l.928-.645a1.9,1.9,0,0,0,.963-1.444q.065-1.595-5.822-2.523t-5.75-1.492q.028-.683,2.652-1.375a9.811,9.811,0,0,0,5.2-2.867,1.759,1.759,0,0,1-.435-.36q-.1-.347.808-1.849t1.588-1.591q3.057-.216,3,1.266,0,2.739-5.986,5.574a26.925,26.925,0,0,0-2.868,1.138q2.8.455,5.6,1.141,5.144,1.126,4.952,3.058a3.78,3.78,0,0,1-1.807,2.779" transform="translate(-1401.751 -163.116)" fill="#082f18"/>
      <path id="Path_253" data-name="Path 253" d="M1614.055,31.38h0q.107.469-.906,1.429c-.611.681-1.046.939-1.3.777,0,0-.033-.377-.1-1.128a1.9,1.9,0,0,0-.77-1.556q-1.348-.854-5.094,3.78t-4.168,4.235q-.579-.365.136-2.984a9.826,9.826,0,0,0,.115-5.935,1.783,1.783,0,0,1-.53.2q-.349-.088-1.2-1.628t-.582-2.17q1.343-2.753,2.593-1.962,2.371,1.37,1.835,7.971a27.285,27.285,0,0,0-.451,3.054q1.8-2.2,3.789-4.275,3.546-3.893,5.124-2.761a3.777,3.777,0,0,1,1.5,2.955" transform="translate(-1331.705 -20.197)" fill="#082f18"/>
      <path id="Path_254" data-name="Path 254" d="M1472.636,176.164a9.846,9.846,0,0,0-1.9-.823,11.338,11.338,0,0,0-5.24-.383,12.632,12.632,0,0,0-2.268.585c-.075.027-.15.052-.227.08a12.58,12.58,0,0,0-1.2.534c-.343.174-.683.364-1.025.568a24.54,24.54,0,0,0-2.283,1.567,64.068,64.068,0,0,1-.36-10.921c.128-.393.433-.449.564-.867a.954.954,0,0,0-.1-.708c1.449.547,2.319,1.9,2.378,4.369a3.784,3.784,0,0,0-.953-5.339c1.563.406,2.877,1.192,3.152,4.5,1.138-3.079-.252-5.692-2.852-6.276,2.3.171,3.882,1.5,4.518,4.371.5-2.469-.245-5.453-4.291-6.088a4.318,4.318,0,0,1,4.279,1.21c-.919-1.684-2.164-2.955-4.7-2.588.25-.5,1.118-.857,2.643-1.072a3.765,3.765,0,0,0-3.769.389,2.947,2.947,0,0,1,1.4-1.707,2.953,2.953,0,0,0-2.535,1.48,3.7,3.7,0,0,0-.5-2.073,2.436,2.436,0,0,0-.38.914,6.687,6.687,0,0,0-.118,1.16,2.953,2.953,0,0,0-2.535-1.48,2.95,2.95,0,0,1,1.4,1.707,3.766,3.766,0,0,0-3.769-.389c1.524.215,2.392.575,2.642,1.072-2.541-.367-3.785.9-4.7,2.588a4.318,4.318,0,0,1,4.279-1.21c-4.046.634-4.794,3.618-4.291,6.088.636-2.869,2.219-4.2,4.518-4.371-2.6.584-3.991,3.2-2.852,6.276.275-3.307,1.589-4.093,3.152-4.5a3.784,3.784,0,0,0-.953,5.339c.06-2.473.929-3.822,2.379-4.369a.947.947,0,0,0-.1.708c.131.42.439.474.566.874a64.866,64.866,0,0,1-.362,10.914,18.54,18.54,0,0,0-4.51-2.669c-.187-.07-.372-.134-.554-.194a11.925,11.925,0,0,0-4.26-.605,11.021,11.021,0,0,0-4.4,1.112c-.17.085-.315.164-.427.229a.043.043,0,0,0,.037.077c.131-.042.261-.077.391-.114a12.158,12.158,0,0,1,4.4-.432,13.116,13.116,0,0,1,4.26,1.146,22.561,22.561,0,0,1,5.071,3.3,55.771,55.771,0,0,1-5.071,4.334c-.056.031-.111.062-.162.089a1.186,1.186,0,0,0-2.114.417,1.144,1.144,0,0,0,.23,1.023,1.7,1.7,0,0,0,2.046.3c1.487-.625,3.34-2.594,5.614-4.674.189-.174.38-.349.577-.522.2.173.386.346.574.52,1.03.942,1.974,1.862,2.836,2.644.356.321.7.621,1.025.889a8.939,8.939,0,0,0,1.427.989,1.853,1.853,0,0,0,2.268-.05,1.24,1.24,0,0,0,.105-.094,1.326,1.326,0,0,0,.232-1.023,1.2,1.2,0,0,0-.889-.878,1.185,1.185,0,0,0-1.225.461,4.4,4.4,0,0,1-.49-.3,16.758,16.758,0,0,1-1.427-1.152c-.322-.282-.664-.59-1.025-.917-.7-.637-1.47-1.343-2.29-2.056a28.19,28.19,0,0,1,2.29-1.731c.335-.226.676-.444,1.025-.652q.694-.413,1.427-.764a14.523,14.523,0,0,1,2.268-.867,11.974,11.974,0,0,1,5.24-.325,13.194,13.194,0,0,1,1.867.439.043.043,0,0,0,.037-.077" transform="translate(-1200.553 -130.681)" fill="#024e28"/>
    </g>
  </g>
</svg>
