<svg xmlns="http://www.w3.org/2000/svg" width="19.75" height="19.518" viewBox="0 0 19.75 19.518">
  <g id="filter-remove-stroke-rounded" transform="translate(0.689 0.75)">
    <path id="Path_36818" data-name="Path 36818" d="M21,4.5a1.439,1.439,0,0,0-.327-.993C20.211,3,19.4,3,17.766,3H6.234C4.6,3,3.789,3,3.328,3.507S2.968,4.8,3.17,6.373a1.789,1.789,0,0,0,.457,1.076,31.541,31.541,0,0,0,5.23,5.057,1.049,1.049,0,0,1,.4.755c.28,3.425.537,5.765.674,6.916a.851.851,0,0,0,1.293.679c.927-.656,2.659-1.391,2.888-2.612.084-.451.2-1.164.331-2.244" transform="translate(-3 -3)" fill="none" stroke="#444" stroke-linecap="round" stroke-linejoin="round" stroke-width="1.5"/>
    <path id="Path_36819" data-name="Path 36819" d="M21,7l-6,6m6,0L15,7" transform="translate(-3 -3)" fill="none" stroke="#444" stroke-linecap="round" stroke-linejoin="round" stroke-width="1.5"/>
  </g>
</svg>
