<svg xmlns="http://www.w3.org/2000/svg" width="18.5" height="21.5" viewBox="0 0 18.5 21.5">
  <g id="archive-02-stroke-rounded" transform="translate(0.75 0.75)">
    <path id="Path_36103" data-name="Path 36103" d="M2,16c0-2.339,0-3.508.456-4.362a3.288,3.288,0,0,1,.936-1.1C4.118,10,5.112,10,7.1,10h6.8c1.988,0,2.982,0,3.708.536a3.288,3.288,0,0,1,.936,1.1C19,12.492,19,13.661,19,16s0,3.508-.456,4.362a3.288,3.288,0,0,1-.936,1.1C16.882,22,15.888,22,13.9,22H7.1c-1.988,0-2.982,0-3.708-.537a3.288,3.288,0,0,1-.936-1.1C2,19.508,2,18.339,2,16Z" transform="translate(-2 -2)" fill="none" stroke="#444" stroke-linecap="round" stroke-linejoin="round" stroke-width="1.5"/>
    <path id="Path_36104" data-name="Path 36104" d="M17,10a7.558,7.558,0,0,0-.221-2.635,2.322,2.322,0,0,0-.888-1.093A4.169,4.169,0,0,0,13.75,6H7.25a4.169,4.169,0,0,0-2.141.272,2.322,2.322,0,0,0-.888,1.093A7.559,7.559,0,0,0,4,10" transform="translate(-2 -2)" fill="none" stroke="#444" stroke-linecap="round" stroke-linejoin="round" stroke-width="1.5"/>
    <path id="Path_36105" data-name="Path 36105" d="M15,6c0-1.886,0-2.828-.439-3.414S13.414,2,12,2H9c-1.414,0-2.121,0-2.561.586S6,4.114,6,6" transform="translate(-2 -2)" fill="none" stroke="#444" stroke-linecap="round" stroke-linejoin="round" stroke-width="1.5"/>
    <path id="Path_36106" data-name="Path 36106" d="M15,14a2,2,0,0,1-2,2H11a2,2,0,0,1-2-2" transform="translate(-3.5 -1.613)" fill="none" stroke="#444" stroke-linecap="round" stroke-width="1.5"/>
  </g>
</svg>
