<svg xmlns="http://www.w3.org/2000/svg" width="17.384" height="18.203" viewBox="0 0 17.384 18.203">
  <g id="notification-03-stroke-rounded" transform="translate(0.758 0.75)">
    <path id="Path_36452" data-name="Path 36452" d="M2.525,12.351a2.168,2.168,0,0,0,1.589,2.305,18.333,18.333,0,0,0,12.641,0,2.168,2.168,0,0,0,1.589-2.305,4.768,4.768,0,0,0-1.049-1.837,3.983,3.983,0,0,1-.576-2.434A6.185,6.185,0,0,0,10.434,2,6.185,6.185,0,0,0,4.15,8.079a3.983,3.983,0,0,1-.576,2.434A4.768,4.768,0,0,0,2.525,12.351Z" transform="translate(-2.5 -2)" fill="none" stroke="#0f2837" stroke-linecap="round" stroke-linejoin="round" stroke-width="1.5"/>
    <path id="Path_36453" data-name="Path 36453" d="M9,21a4.176,4.176,0,0,0,5.011,0" transform="translate(-3.571 -5.132)" fill="none" stroke="#0f2837" stroke-linecap="round" stroke-linejoin="round" stroke-width="1.5"/>
  </g>
</svg>
