<svg xmlns="http://www.w3.org/2000/svg" width="20.5" height="20.5" viewBox="0 0 20.5 20.5">
  <g id="inbox-stroke-rounded" transform="translate(0.75 0.75)">
    <path id="Path_36316" data-name="Path 36316" d="M2.5,12c0-4.478,0-6.718,1.391-8.109S7.522,2.5,12,2.5s6.718,0,8.109,1.391S21.5,7.522,21.5,12s0,6.718-1.391,8.109S16.478,21.5,12,21.5s-6.718,0-8.109-1.391S2.5,16.478,2.5,12Z" transform="translate(-2.5 -2.5)" fill="none" stroke="#444" stroke-linecap="round" stroke-linejoin="round" stroke-width="1.5"/>
    <path id="Path_36317" data-name="Path 36317" d="M21.5,13.5H16.574A2.3,2.3,0,0,0,14.7,14.947,2.8,2.8,0,0,1,12,16.5a2.8,2.8,0,0,1-2.7-1.553A2.3,2.3,0,0,0,7.426,13.5H2.5" transform="translate(-2.5 -2.5)" fill="none" stroke="#444" stroke-linejoin="round" stroke-width="1.5"/>
  </g>
</svg>
