<svg xmlns="http://www.w3.org/2000/svg" width="21.159" height="21.158" viewBox="0 0 21.159 21.158">
  <g id="Component_512_2" data-name="Component 512 – 2" transform="translate(0.75 0.734)">
    <path id="Path_25961" data-name="Path 25961" d="M656.527,654.18v.493a4.985,4.985,0,0,0,.038.878,1.972,1.972,0,0,0,1.551,1.55,4.964,4.964,0,0,0,.878.038h5.819a2.106,2.106,0,0,0,1.038-.13,1.076,1.076,0,0,0,.434-.509,1.788,1.788,0,0,0-.018-.933A9.871,9.871,0,0,0,658.1,647.4a1.785,1.785,0,0,0-.933-.018,1.075,1.075,0,0,0-.509.434,2.108,2.108,0,0,0-.13,1.038v1.381m-2.959-2.508A9.865,9.865,0,1,0,665.939,660.1" transform="translate(-646.664 -647.328)" fill="none" stroke="#444" stroke-linecap="round" stroke-linejoin="round" stroke-width="1.5"/>
  </g>
</svg>
