<svg xmlns="http://www.w3.org/2000/svg" width="19.665" height="20.32" viewBox="0 0 19.665 20.32">
  <g id="calendar-setting-01-stroke-rounded" transform="translate(0.75 0.75)">
    <path id="Path_36185" data-name="Path 36185" d="M17.292,2V3.882M6,2V3.882" transform="translate(-2.707 -2)" fill="none" stroke="#444" stroke-linecap="round" stroke-linejoin="round" stroke-width="1.5"/>
    <path id="Path_36186" data-name="Path 36186" d="M20.378,11c0-3.638-.069-5.525-1.178-6.724C18.022,3,16.126,3,12.333,3H10.545C6.753,3,4.856,3,3.678,4.274S2.5,7.6,2.5,11.7v.483c0,4.1,0,6.15,1.178,7.424,1.128,1.22,2.872,1.271,6.349,1.274" transform="translate(-2.5 -2.059)" fill="none" stroke="#444" stroke-linecap="round" stroke-linejoin="round" stroke-width="1.5"/>
    <path id="Path_36187" data-name="Path 36187" d="M3,8H19.937" transform="translate(-2.53 -2.354)" fill="none" stroke="#444" stroke-linecap="round" stroke-linejoin="round" stroke-width="1.5"/>
    <path id="Path_36188" data-name="Path 36188" d="M17.264,20.259v1.21m0-1.21a3.165,3.165,0,0,1-2.61-1.347m2.61,1.347a3.165,3.165,0,0,0,2.61-1.347m-2.61-4.7a3.165,3.165,0,0,1,2.61,1.347m-2.61-1.347a3.165,3.165,0,0,0-2.61,1.347m2.61-1.347V13m3.764,1.815-1.154.742m-6.374,4.1,1.154-.742m-1.154-4.1,1.154.742m6.374,4.1-1.154-.742m0-3.356a2.937,2.937,0,0,1,0,3.356m-5.22-3.356a2.937,2.937,0,0,0,0,3.356" transform="translate(-3.149 -2.649)" fill="none" stroke="#444" stroke-linecap="round" stroke-width="1.5"/>
  </g>
</svg>
