<svg xmlns="http://www.w3.org/2000/svg" width="17.881" height="17.881" viewBox="0 0 17.881 17.881">
  <g id="Component_505_2" data-name="Component 505 – 2" transform="translate(0.75 0.75)">
    <path id="Path_36809" data-name="Path 36809" d="M17.367,8.116v.936m0-.936a2.4,2.4,0,0,1-1.988-1.042m1.988,1.042a2.4,2.4,0,0,0,1.988-1.042M17.367,3.436a2.4,2.4,0,0,1,1.988,1.042M17.367,3.436a2.4,2.4,0,0,0-1.988,1.042m1.988-1.042V2.5m2.867,1.4-.879.574M14.5,7.648l.878-.574M14.5,3.9l.879.574m4.854,3.17-.878-.574m0-2.6a2.3,2.3,0,0,1,0,2.6m-3.976-2.6a2.3,2.3,0,0,0,0,2.6" transform="translate(-4.262 -2.09)" fill="none" stroke="#0f2837" stroke-linecap="round" stroke-width="1.5"/>
    <path id="Path_36810" data-name="Path 36810" d="M2,5.276a5.087,5.087,0,0,1,.223-2.158,2.048,2.048,0,0,1,.895-.895A5.087,5.087,0,0,1,5.276,2a5.087,5.087,0,0,1,2.158.223,2.048,2.048,0,0,1,.895.895,5.087,5.087,0,0,1,.223,2.158,5.087,5.087,0,0,1-.223,2.158,2.048,2.048,0,0,1-.895.895,5.087,5.087,0,0,1-2.158.223,5.087,5.087,0,0,1-2.158-.223,2.048,2.048,0,0,1-.895-.895A5.087,5.087,0,0,1,2,5.276Z" transform="translate(-2 -2)" fill="none" stroke="#0f2837" stroke-width="1.5"/>
    <path id="Path_36811" data-name="Path 36811" d="M2,17.276a5.087,5.087,0,0,1,.223-2.158,2.048,2.048,0,0,1,.895-.895A5.087,5.087,0,0,1,5.276,14a5.087,5.087,0,0,1,2.158.223,2.048,2.048,0,0,1,.895.895,5.087,5.087,0,0,1,.223,2.158,5.087,5.087,0,0,1-.223,2.158,2.048,2.048,0,0,1-.895.895,5.087,5.087,0,0,1-2.158.223,5.087,5.087,0,0,1-2.158-.223,2.048,2.048,0,0,1-.895-.895A5.087,5.087,0,0,1,2,17.276Z" transform="translate(-2 -4.172)" fill="none" stroke="#0f2837" stroke-width="1.5"/>
    <path id="Path_36812" data-name="Path 36812" d="M14,17.276a5.087,5.087,0,0,1,.223-2.158,2.048,2.048,0,0,1,.895-.895A5.087,5.087,0,0,1,17.276,14a5.087,5.087,0,0,1,2.158.223,2.048,2.048,0,0,1,.895.895,5.087,5.087,0,0,1,.223,2.158,5.087,5.087,0,0,1-.223,2.158,2.048,2.048,0,0,1-.895.895,5.087,5.087,0,0,1-2.158.223,5.087,5.087,0,0,1-2.158-.223,2.048,2.048,0,0,1-.895-.895A5.087,5.087,0,0,1,14,17.276Z" transform="translate(-4.172 -4.172)" fill="none" stroke="#0f2837" stroke-width="1.5"/>
  </g>
</svg>
