<svg xmlns="http://www.w3.org/2000/svg" width="18.5" height="21.5" viewBox="0 0 18.5 21.5">
  <g id="Component_502_2" data-name="Component 502 – 2" transform="translate(0.75 0.75)">
    <path id="Path_36469" data-name="Path 36469" d="M20.5,14V10.5c0-2.335,0-3.5-.472-4.386a4,4,0,0,0-1.642-1.642C17.5,4,16.335,4,14,4a2,2,0,0,0-4,0c-2.335,0-3.5,0-4.386.472A4,4,0,0,0,3.972,6.114C3.5,7,3.5,8.165,3.5,10.5V14c0,3.771,0,5.657,1.172,6.828S7.729,22,11.5,22h1c3.771,0,5.657,0,6.828-1.172S20.5,17.771,20.5,14Z" transform="translate(-3.5 -2)" fill="none" stroke="#0f2837" stroke-linecap="square" stroke-linejoin="round" stroke-width="1.5"/>
    <path id="Path_36470" data-name="Path 36470" d="M6.5,10h4" transform="translate(-3.5 -2)" fill="none" stroke="#0f2837" stroke-linecap="round" stroke-width="1.5"/>
    <path id="Path_36471" data-name="Path 36471" d="M13.5,11s.5,0,1,1c0,0,1.588-2.5,3-3" transform="translate(-3.5 -2)" fill="none" stroke="#0f2837" stroke-linecap="round" stroke-linejoin="round" stroke-width="1.5"/>
    <path id="Path_36472" data-name="Path 36472" d="M6.5,16h4" transform="translate(-3.5 -2)" fill="none" stroke="#0f2837" stroke-linecap="round" stroke-width="1.5"/>
    <path id="Path_36473" data-name="Path 36473" d="M13.5,17s.5,0,1,1c0,0,1.588-2.5,3-3" transform="translate(-3.5 -2)" fill="none" stroke="#0f2837" stroke-linecap="round" stroke-linejoin="round" stroke-width="1.5"/>
  </g>
</svg>
