<svg xmlns="http://www.w3.org/2000/svg" width="21.793" height="20.5" viewBox="0 0 21.793 20.5">
  <g id="Component_508_2" data-name="Component 508 – 2" transform="translate(0.75 0.75)">
    <g id="message-user-01-stroke-rounded" transform="translate(0 -1)">
      <path id="Path_36406" data-name="Path 36406" d="M12.521,3h-1c-.563.008-1.123.031-1.674.067a8.422,8.422,0,0,0-7.8,7.9,19.717,19.717,0,0,0,0,2.521,8.713,8.713,0,0,0,1.591,4.185A3.035,3.035,0,0,1,3.3,20.5c-.352.665-.527,1-.386,1.238S3.373,21.983,4,22a4.221,4.221,0,0,0,2.755-.814,2.218,2.218,0,0,1,.7-.434,2.836,2.836,0,0,1,.9.3,4.889,4.889,0,0,0,1.488.339,33.3,33.3,0,0,0,4.35,0A8.464,8.464,0,0,0,22,14" transform="translate(-2 -2)" fill="none" stroke="#444" stroke-linecap="round" stroke-linejoin="round" stroke-width="1.5"/>
      <path id="Path_36409" data-name="Path 36409" d="M8.5,15h7m-7-5h2" transform="translate(-2 -2)" fill="none" stroke="#444" stroke-linecap="round" stroke-linejoin="round" stroke-width="1.5"/>
    </g>
    <path id="Path_36823" data-name="Path 36823" d="M20.733,9.679v1.28m0-1.28a3.086,3.086,0,0,1-2.588-1.424m2.588,1.424a3.086,3.086,0,0,0,2.588-1.424M20.733,3.28A3.086,3.086,0,0,1,23.321,4.7M20.733,3.28A3.086,3.086,0,0,0,18.144,4.7M20.733,3.28V2m3.733,1.92L23.321,4.7M17,9.039l1.144-.785M17,3.92l1.144.785m6.321,4.335-1.144-.785m0-3.55a3.278,3.278,0,0,1,0,3.55M18.144,4.7a3.278,3.278,0,0,0,0,3.55" transform="translate(-4.466 -2)" fill="none" stroke="#444" stroke-linecap="round" stroke-width="1.5"/>
  </g>
</svg>
