<svg xmlns="http://www.w3.org/2000/svg" width="19.224" height="19.224" viewBox="0 0 19.224 19.224">
  <g id="analytics-02-stroke-rounded" transform="translate(0.75 0.75)">
    <path id="Path_36098" data-name="Path 36098" d="M6.5,18.47V15.146m3.877,3.323V8.5m3.877,9.97V14.039" transform="translate(-2.069 -3.848)" fill="none" stroke="#444" stroke-linecap="round" stroke-width="1.5"/>
    <path id="Path_36099" data-name="Path 36099" d="M22.146,5.823A3.323,3.323,0,1,1,18.823,2.5,3.323,3.323,0,0,1,22.146,5.823Z" transform="translate(-4.423 -2.5)" fill="none" stroke="#444" stroke-width="1.5"/>
    <path id="Path_36100" data-name="Path 36100" d="M20.219,10.429s0,.317,0,.933c0,4.178,0,6.266-1.3,7.564s-3.387,1.3-7.564,1.3-6.266,0-7.564-1.3-1.3-3.387-1.3-7.564S2.5,5.1,3.8,3.8s3.387-1.3,7.564-1.3h.933" transform="translate(-2.5 -2.5)" fill="none" stroke="#444" stroke-linecap="round" stroke-linejoin="round" stroke-width="1.5"/>
  </g>
</svg>
