<svg xmlns="http://www.w3.org/2000/svg" width="21.587" height="21.5" viewBox="0 0 21.587 21.5">
  <g id="message-user-01-stroke-rounded" transform="translate(0.75 0.75)">
    <path id="Path_36406" data-name="Path 36406" d="M12.521,3h-1c-.563.008-1.123.031-1.674.067a8.422,8.422,0,0,0-7.8,7.9,19.717,19.717,0,0,0,0,2.521,8.713,8.713,0,0,0,1.591,4.185A3.035,3.035,0,0,1,3.3,20.5c-.352.665-.527,1-.386,1.238S3.373,21.983,4,22a4.221,4.221,0,0,0,2.755-.814,2.218,2.218,0,0,1,.7-.434,2.836,2.836,0,0,1,.9.3,4.889,4.889,0,0,0,1.488.339,33.3,33.3,0,0,0,4.35,0A8.464,8.464,0,0,0,22,14" transform="translate(-2 -2)" fill="none" stroke="#444" stroke-linecap="round" stroke-linejoin="round" stroke-width="1.5"/>
    <path id="Path_36407" data-name="Path 36407" d="M15.59,8.648c-.629.369-2.277,1.121-1.273,2.063a2.49,2.49,0,0,0,1.724.789H19.96a2.49,2.49,0,0,0,1.724-.789c1-.942-.645-1.694-1.273-2.063A4.8,4.8,0,0,0,15.59,8.648Z" transform="translate(-2 -2)" fill="none" stroke="#444" stroke-width="1.5"/>
    <path id="Path_36408" data-name="Path 36408" d="M20,4a2,2,0,1,1-2-2A2,2,0,0,1,20,4Z" transform="translate(-2 -2)" fill="none" stroke="#444" stroke-width="1.5"/>
    <path id="Path_36409" data-name="Path 36409" d="M8.5,15h7m-7-5h2" transform="translate(-2 -2)" fill="none" stroke="#444" stroke-linecap="round" stroke-linejoin="round" stroke-width="1.5"/>
  </g>
</svg>
