<svg xmlns="http://www.w3.org/2000/svg" width="19.786" height="21.5" viewBox="0 0 19.786 21.5">
  <g id="Component_511_2" data-name="Component 511 – 2" transform="translate(0.75 0.75)">
    <ellipse id="Ellipse_107" data-name="Ellipse 107" cx="8" cy="3" rx="8" ry="3" fill="none" stroke="#0f2837" stroke-width="1.5"/>
    <path id="Path_36235" data-name="Path 36235" d="M6,10.842a14.6,14.6,0,0,0,2,.44" transform="translate(-3 -2)" fill="none" stroke="#0f2837" stroke-linecap="round" stroke-width="1.5"/>
    <path id="Path_36236" data-name="Path 36236" d="M3,12c0,1.53,3.054,2.792,7,2.977" transform="translate(-3 -2)" fill="none" stroke="#0f2837" stroke-linecap="round" stroke-width="1.5"/>
    <path id="Path_36237" data-name="Path 36237" d="M6,17.842a14.6,14.6,0,0,0,2,.44" transform="translate(-3 -2)" fill="none" stroke="#0f2837" stroke-linecap="round" stroke-width="1.5"/>
    <path id="Path_36238" data-name="Path 36238" d="M11,22c-4.418,0-8-1.343-8-3V5M19,5v6" transform="translate(-3 -2)" fill="none" stroke="#0f2837" stroke-linecap="round" stroke-linejoin="round" stroke-width="1.5"/>
    <path id="Path_36239" data-name="Path 36239" d="M17,20.714V22m0-1.286a3.364,3.364,0,0,1-2.774-1.431M17,20.714a3.364,3.364,0,0,0,2.774-1.431m-2.774-5a3.364,3.364,0,0,1,2.774,1.431M17,14.286a3.364,3.364,0,0,0-2.774,1.431M17,14.286V13m4,1.929-1.226.788M13,20.071l1.226-.788M13,14.929l1.226.788M21,20.071l-1.226-.788m0-3.566a3.121,3.121,0,0,1,0,3.566m-5.548-3.566a3.121,3.121,0,0,0,0,3.566" transform="translate(-3 -2)" fill="none" stroke="#0f2837" stroke-linecap="round" stroke-width="1.5"/>
  </g>
</svg>
