<svg xmlns="http://www.w3.org/2000/svg" width="20.556" height="21.668" viewBox="0 0 20.556 21.668">
  <g id="task-edit-02-stroke-rounded" transform="translate(0.745 0.902)">
    <g id="Component_503_1" data-name="Component 503 – 1">
      <path id="Path_36531" data-name="Path 36531" d="M7.014,16h4m-4-5h8" transform="translate(-2.499 -2)" fill="none" stroke="#444" stroke-linecap="round" stroke-width="1.5"/>
      <path id="Path_36532" data-name="Path 36532" d="M10.014,22h1" transform="translate(-2.499 -2)" fill="none" stroke="#444" stroke-linecap="round" stroke-width="1.5"/>
      <path id="Path_36533" data-name="Path 36533" d="M7.511,22a10.345,10.345,0,0,1-2.747-.325,2.928,2.928,0,0,1-2.04-2.5,60.322,60.322,0,0,1-.21-7.846c0-2.791-.125-5.472.325-7,.275-.5.5-2.324,4.225-2.3.625-.025,7.25-.075,8.3.025,3.5.075,3.85,1.874,4.05,3.573.127,1.249.1,3.248.1,5.372m-12.5-9c.3,1.624.275,2.674,1.375,2.924a26.009,26.009,0,0,0,2.725.075,16.021,16.021,0,0,0,2.575-.1c1.175-.275,1.05-1.724,1.35-2.9" transform="translate(-2.499 -2)" fill="none" stroke="#444" stroke-linecap="round" stroke-width="1.5"/>
      <path id="Path_36534" data-name="Path 36534" d="M18.279,14.379c-1.374,1.4-4.022,3.9-4.022,4.073a4.413,4.413,0,0,0-.525,1.749c-.157.788-.345,1.474-.125,1.674s1.048.031,1.924-.15A3.636,3.636,0,0,0,17.2,21.15c.475-.42,3.7-3.673,4.072-4.1a1.55,1.55,0,0,0,.06-1.5,7.3,7.3,0,0,0-1.259-1.324A1.52,1.52,0,0,0,18.279,14.379Z" transform="translate(-2.499 -2)" fill="none" stroke="#444" stroke-linecap="round" stroke-width="1.5"/>
    </g>
  </g>
</svg>
