<svg xmlns="http://www.w3.org/2000/svg" width="21.502" height="20.5" viewBox="0 0 21.502 20.5">
  <g id="mail-at-sign-02-stroke-rounded" transform="translate(0.75 0.75)">
    <path id="Path_36326" data-name="Path 36326" d="M7,7.5,9.942,9.239c1.715,1.014,2.4,1.014,4.116,0L17,7.5" transform="translate(-2 -2.5)" fill="none" stroke="#444" stroke-linecap="round" stroke-linejoin="round" stroke-width="1.5"/>
    <path id="Path_36327" data-name="Path 36327" d="M10.5,19.5q-.7-.009-1.4-.027c-3.149-.079-4.723-.119-5.854-1.255s-1.164-2.67-1.229-5.737c-.021-.986-.021-1.967,0-2.953.065-3.067.1-4.6,1.229-5.737S5.95,2.616,9.1,2.537c1.94-.049,3.862-.049,5.8,0,3.148.079,4.723.119,5.854,1.255s1.164,2.67,1.229,5.737c.01.454.015.668.016.972" transform="translate(-2 -2.5)" fill="none" stroke="#444" stroke-linecap="round" stroke-linejoin="round" stroke-width="1.5"/>
    <path id="Path_36328" data-name="Path 36328" d="M19,17a1.5,1.5,0,1,1-1.5-1.5A1.5,1.5,0,0,1,19,17Zm0,0v.5a1.5,1.5,0,0,0,3,0V17a4.5,4.5,0,1,0-4.5,4.5" transform="translate(-2 -2.5)" fill="none" stroke="#444" stroke-linecap="round" stroke-linejoin="round" stroke-width="1.5"/>
  </g>
</svg>
