<svg xmlns="http://www.w3.org/2000/svg" width="18.786" height="17.65" viewBox="0 0 18.786 17.65">
  <g id="Component_509_2" data-name="Component 509 – 2" transform="translate(0.75 0.75)">
    <path id="Path_36270" data-name="Path 36270" d="M6.25,5.9h8.287c1.791,0,2.686,0,3.329.43a2.55,2.55,0,0,1,.7.7A4.914,4.914,0,0,1,19,9.725M10.5,5.9,9.962,4.823A3.719,3.719,0,0,0,8.119,2.662,5.69,5.69,0,0,0,6.2,2.5a6.322,6.322,0,0,0-2.9.323,2.55,2.55,0,0,0-.984.984A6.322,6.322,0,0,0,2,6.7V9.3c0,4.007,0,6.01,1.245,7.255C4.35,17.66,6.053,17.784,9.225,17.8H9.65" transform="translate(-2 -2.5)" fill="none" stroke="#0f2837" stroke-linecap="round" stroke-width="1.5"/>
    <path id="Path_36271" data-name="Path 36271" d="M17.4,19.057V20.15m0-1.093a2.859,2.859,0,0,1-2.358-1.216M17.4,19.057a2.859,2.859,0,0,0,2.358-1.216M17.4,13.593a2.859,2.859,0,0,1,2.358,1.217M17.4,13.593a2.859,2.859,0,0,0-2.358,1.217M17.4,13.593V12.5m3.4,1.639-1.042.67M14,18.511l1.042-.67M14,14.139l1.042.67m5.757,3.7-1.042-.67m0-3.031a2.653,2.653,0,0,1,0,3.031m-4.715-3.031a2.653,2.653,0,0,0,0,3.031" transform="translate(-3.8 -4)" fill="none" stroke="#0f2837" stroke-linecap="round" stroke-width="1.5"/>
  </g>
</svg>
