<svg xmlns="http://www.w3.org/2000/svg" width="17.389" height="17.5" viewBox="0 0 17.389 17.5">
  <g id="home-04-stroke-rounded" transform="translate(0.695 0.75)">
    <path id="Path_36314" data-name="Path 36314" d="M10,18h3.343" transform="translate(-3.672 -5.343)" fill="none" stroke="#0f2837" stroke-linecap="round" stroke-linejoin="round" stroke-width="1.5"/>
    <path id="Path_36315" data-name="Path 36315" d="M2.281,10.971C2,9.133,1.857,8.214,2.2,7.4s1.118-1.372,2.66-2.487L6.017,4.08C7.935,2.693,8.894,2,10,2s2.065.693,3.983,2.08l1.152.833C16.677,6.028,17.448,6.585,17.8,7.4s.206,1.733-.076,3.571l-.241,1.567c-.4,2.605-.6,3.908-1.535,4.685s-2.3.777-5.032.777H9.089c-2.732,0-4.1,0-5.032-.777s-1.135-2.08-1.535-4.685Z" transform="translate(-2 -2)" fill="none" stroke="#0f2837" stroke-linejoin="round" stroke-width="1.5"/>
  </g>
</svg>
