<svg xmlns="http://www.w3.org/2000/svg" width="17.5" height="21.5" viewBox="0 0 17.5 21.5">
  <g id="hierarchy-files-stroke-rounded" transform="translate(0.75 0.75)">
    <path id="Path_36298" data-name="Path 36298" d="M18.965,3.964,17.485,2.485a2.137,2.137,0,0,0-.4-.349,1,1,0,0,0-.248-.1A2.138,2.138,0,0,0,16.314,2a4.956,4.956,0,0,0-2.3.26,2,2,0,0,0-.753.753,4.956,4.956,0,0,0-.26,2.3V6.5c0,1.4,0,2.107.337,2.611a2,2,0,0,0,.552.552C14.393,10,15.1,10,16.5,10s2.107,0,2.611-.337a2,2,0,0,0,.552-.552C20,8.607,20,7.9,20,6.475a4.328,4.328,0,0,0-.09-1.24A2.006,2.006,0,0,0,19.77,4.9,4.273,4.273,0,0,0,18.965,3.964Z" transform="translate(-4 -2)" fill="none" stroke="#444" stroke-linecap="round" stroke-linejoin="round" stroke-width="1.5"/>
    <path id="Path_36299" data-name="Path 36299" d="M18.965,15.965l-1.479-1.479a2.138,2.138,0,0,0-.4-.349,1,1,0,0,0-.248-.1A2.137,2.137,0,0,0,16.314,14a4.956,4.956,0,0,0-2.3.26,2,2,0,0,0-.753.753,4.956,4.956,0,0,0-.26,2.3V18.5c0,1.4,0,2.107.337,2.611a2,2,0,0,0,.552.552C14.393,22,15.1,22,16.5,22s2.107,0,2.611-.337a2,2,0,0,0,.552-.552C20,20.607,20,19.9,20,18.475a4.328,4.328,0,0,0-.09-1.24,2,2,0,0,0-.139-.337A4.271,4.271,0,0,0,18.965,15.965Z" transform="translate(-4 -2)" fill="none" stroke="#444" stroke-linecap="round" stroke-linejoin="round" stroke-width="1.5"/>
    <path id="Path_36300" data-name="Path 36300" d="M10,6H4M4,6V2M4,6v6c0,2.828,0,4.243.879,5.121S7.172,18,10,18" transform="translate(-4 -2)" fill="none" stroke="#444" stroke-linecap="round" stroke-linejoin="round" stroke-width="1.5"/>
  </g>
</svg>
