<svg xmlns="http://www.w3.org/2000/svg" width="17.5" height="21.5" viewBox="0 0 17.5 21.5">
  <g id="square-unlock-02-stroke-rounded" transform="translate(0.75 0.75)">
    <path id="Path_36502" data-name="Path 36502" d="M12,16.5v-2" transform="translate(-4 -2)" fill="none" stroke="#444" stroke-linecap="round" stroke-width="1.5"/>
    <path id="Path_36503" data-name="Path 36503" d="M4.268,18.845A3.519,3.519,0,0,0,7.56,21.9c1.417.065,2.856.1,4.44.1s3.024-.034,4.44-.1a3.519,3.519,0,0,0,3.292-3.056A25.024,25.024,0,0,0,20,15.5a25.024,25.024,0,0,0-.268-3.345A3.519,3.519,0,0,0,16.44,9.1C15.024,9.034,13.585,9,12,9s-3.024.034-4.44.1a3.519,3.519,0,0,0-3.292,3.056A25.031,25.031,0,0,0,4,15.5,25.031,25.031,0,0,0,4.268,18.845Z" transform="translate(-4 -2)" fill="none" stroke="#444" stroke-width="1.5"/>
    <path id="Path_36504" data-name="Path 36504" d="M7.5,9V6.5A4.5,4.5,0,0,1,12,2a4.4,4.4,0,0,1,4,3" transform="translate(-4 -2)" fill="none" stroke="#444" stroke-linecap="round" stroke-linejoin="round" stroke-width="1.5"/>
  </g>
</svg>
