<svg xmlns="http://www.w3.org/2000/svg" width="20.5" height="20.5" viewBox="0 0 20.5 20.5">
  <g id="language-square-stroke-rounded" transform="translate(0.75 0.75)">
    <path id="Path_36816" data-name="Path 36816" d="M7,8.379h4.5m5.5,0H14.5m-3,0h3m-3,0V7m3,1.379a15.131,15.131,0,0,1-2.893,5.236M8.393,17a31.523,31.523,0,0,0,3.214-3.384m0,0a16.183,16.183,0,0,1-1.8-2.525m1.8,2.525,1.929,2" transform="translate(-2.5 -2.5)" fill="none" stroke="#444" stroke-linecap="round" stroke-linejoin="round" stroke-width="1.5"/>
    <path id="Path_36817" data-name="Path 36817" d="M2.5,12c0-4.478,0-6.718,1.391-8.109S7.522,2.5,12,2.5s6.718,0,8.109,1.391S21.5,7.522,21.5,12s0,6.718-1.391,8.109S16.478,21.5,12,21.5s-6.718,0-8.109-1.391S2.5,16.478,2.5,12Z" transform="translate(-2.5 -2.5)" fill="none" stroke="#444" stroke-width="1.5"/>
  </g>
</svg>
