<svg xmlns="http://www.w3.org/2000/svg" width="23.534" height="17.5" viewBox="0 0 23.534 17.5">
  <g id="user-group-stroke-rounded" transform="translate(0.767 0.75)">
    <path id="Path_36824" data-name="Path 36824" d="M20.774,18a2.5,2.5,0,0,0,1.88-1.131c1.1-1.35-.7-2.428-1.389-2.957A4.349,4.349,0,0,0,19,13m-1-2a2.5,2.5,0,0,0,0-5" transform="translate(-1 -4)" fill="none" stroke="#444" stroke-linecap="round" stroke-width="1.5"/>
    <path id="Path_36825" data-name="Path 36825" d="M3.226,18a2.5,2.5,0,0,1-1.88-1.131c-1.1-1.35.7-2.428,1.389-2.957A4.348,4.348,0,0,1,5,13m.5-2a2.5,2.5,0,0,1,0-5" transform="translate(-1 -4)" fill="none" stroke="#444" stroke-linecap="round" stroke-width="1.5"/>
    <path id="Path_36826" data-name="Path 36826" d="M8.084,15.111c-1.022.632-3.7,1.922-2.069,3.536A3.958,3.958,0,0,0,8.816,20h6.369a3.958,3.958,0,0,0,2.8-1.353c1.632-1.614-1.047-2.9-2.069-3.536A7.457,7.457,0,0,0,8.084,15.111Z" transform="translate(-1 -4)" fill="none" stroke="#444" stroke-linecap="round" stroke-linejoin="round" stroke-width="1.5"/>
    <path id="Path_36827" data-name="Path 36827" d="M15.5,7.5A3.5,3.5,0,1,1,12,4,3.5,3.5,0,0,1,15.5,7.5Z" transform="translate(-1 -4)" fill="none" stroke="#444" stroke-width="1.5"/>
  </g>
</svg>
