<svg xmlns="http://www.w3.org/2000/svg" width="17" height="21.5" viewBox="0 0 17 21.5">
  <g id="node-add-stroke-rounded" transform="translate(0.75 0.75)">
    <path id="Path_36426" data-name="Path 36426" d="M13.5,19.5H13c-2.828,0-4.243,0-5.121-.879S7,16.328,7,13.5v-2m0-1v1m0,0h6.5" transform="translate(-4 -2)" fill="none" stroke="#444" stroke-linecap="round" stroke-linejoin="round" stroke-width="1.5"/>
    <path id="Path_36427" data-name="Path 36427" d="M13.5,11.5c0-1.179,0-1.768.351-2.134S14.769,9,15.9,9h1.2c1.131,0,1.7,0,2.049.366s.351.955.351,2.134,0,1.768-.351,2.134S18.231,14,17.1,14H15.9c-1.131,0-1.7,0-2.049-.366S13.5,12.679,13.5,11.5Z" transform="translate(-4 -2)" fill="none" stroke="#444" stroke-width="1.5"/>
    <path id="Path_36428" data-name="Path 36428" d="M13.5,19.5c0-1.178,0-1.768.351-2.134S14.769,17,15.9,17h1.2c1.131,0,1.7,0,2.049.366s.351.955.351,2.134,0,1.768-.351,2.134S18.231,22,17.1,22H15.9c-1.131,0-1.7,0-2.049-.366S13.5,20.678,13.5,19.5Z" transform="translate(-4 -2)" fill="none" stroke="#444" stroke-width="1.5"/>
    <path id="Path_36429" data-name="Path 36429" d="M7,2V8m3-3H4" transform="translate(-4 -2)" fill="none" stroke="#444" stroke-linecap="round" stroke-linejoin="round" stroke-width="1.5"/>
  </g>
</svg>
