<svg xmlns="http://www.w3.org/2000/svg" width="17.5" height="20.323" viewBox="0 0 17.5 20.323">
  <g id="file-01-stroke-rounded" transform="translate(0.75 0.75)">
    <path id="Path_36667" data-name="Path 36667" d="M3.5,9.529c0-3.549,0-5.324,1.172-6.427S7.729,2,11.5,2h.727c3.069,0,4.6,0,5.67.751a3.89,3.89,0,0,1,.805.758c.8,1,.8,2.448.8,5.336v2.4c0,2.789,0,4.183-.441,5.3a6.807,6.807,0,0,1-4.112,3.87c-1.183.415-2.665.415-5.628.415A10.592,10.592,0,0,1,6.1,20.586a3.89,3.89,0,0,1-2.35-2.212A8.872,8.872,0,0,1,3.5,15.348Z" transform="translate(-3.5 -2)" fill="none" stroke="#444" stroke-linejoin="round" stroke-width="1.5"/>
    <path id="Path_36668" data-name="Path 36668" d="M19.912,12a3.137,3.137,0,0,1-3.137,3.137,7.981,7.981,0,0,0-1.975.053A1.569,1.569,0,0,0,13.691,16.3a7.981,7.981,0,0,0-.053,1.975A3.137,3.137,0,0,1,10.5,21.412" transform="translate(-3.912 -2.588)" fill="none" stroke="#444" stroke-linecap="round" stroke-linejoin="round" stroke-width="1.5"/>
    <path id="Path_36669" data-name="Path 36669" d="M8,7h6.588" transform="translate(-3.765 -2.294)" fill="none" stroke="#444" stroke-linecap="round" stroke-linejoin="round" stroke-width="1.5"/>
    <path id="Path_36670" data-name="Path 36670" d="M8,11h2.824" transform="translate(-3.765 -2.529)" fill="none" stroke="#444" stroke-linecap="round" stroke-linejoin="round" stroke-width="1.5"/>
  </g>
</svg>
