<svg xmlns="http://www.w3.org/2000/svg" width="17.7" height="19.5" viewBox="0 0 17.7 19.5">
  <g id="file-add-stroke-rounded" transform="translate(0.75 0.75)">
    <path id="Path_36671" data-name="Path 36671" d="M11.2,20h-.245c-2.935,0-4.4,0-5.422-.718a3.72,3.72,0,0,1-.77-.725C4,17.6,4,16.217,4,13.454V11.163c0-2.667,0-4,.422-5.065A6.509,6.509,0,0,1,8.355,2.4C9.486,2,10.9,2,13.736,2a10.129,10.129,0,0,1,3.075.227,3.72,3.72,0,0,1,2.247,2.115A8.483,8.483,0,0,1,19.3,7.236V11" transform="translate(-4 -2)" fill="none" stroke="#444" stroke-linecap="round" stroke-linejoin="round" stroke-width="1.5"/>
    <path id="Path_36672" data-name="Path 36672" d="M11,21a3,3,0,0,1,3-3,7.632,7.632,0,0,0,1.888-.051,1.5,1.5,0,0,0,1.061-1.061A7.632,7.632,0,0,0,17,15a3,3,0,0,1,3-3" transform="translate(-11 -12)" fill="none" stroke="#444" stroke-linecap="round" stroke-linejoin="round" stroke-width="1.5"/>
    <path id="Path_36673" data-name="Path 36673" d="M3,5.6h7.2M6.6,9.2V2" transform="translate(6 8.8)" fill="none" stroke="#444" stroke-linecap="round" stroke-width="1.5"/>
  </g>
</svg>
