<svg xmlns="http://www.w3.org/2000/svg" width="18.5" height="21.495" viewBox="0 0 18.5 21.495">
  <g id="file-corrupt-stroke-rounded" transform="translate(0.75 0.745)">
    <path id="Path_36689" data-name="Path 36689" d="M10,22c-.869,0-1.542-.01-2.093-.052a4.708,4.708,0,0,1-3.524-1.51,3.758,3.758,0,0,1-.288-.46A6.436,6.436,0,0,1,3.5,16.911V10.388A9.18,9.18,0,0,1,4.323,5.8a6.91,6.91,0,0,1,3.2-2.924,8.683,8.683,0,0,1,1.96-.662A40.734,40.734,0,0,1,16,2.02c2.215.2,3.325.814,4.064,2.358A5.41,5.41,0,0,1,20.5,6.736c-.006,4.023-.009,6.989,0,11.267-.412,3.09-2.089,3.819-5,3.975a.979.979,0,0,1-.813-.369l-1.432-1.789a.63.63,0,0,1-.1-.694,9.7,9.7,0,0,1,1.49-1.758.5.5,0,0,0-.016-.713,6.008,6.008,0,0,1-1.536-1.9.456.456,0,0,1,.074-.464l2-2.281" transform="translate(-3.5 -2)" fill="none" stroke="#444" stroke-linecap="round" stroke-linejoin="round" stroke-width="1.5"/>
    <path id="Path_36690" data-name="Path 36690" d="M3.5,12.02A3.333,3.333,0,0,1,6.833,8.686a8.477,8.477,0,0,0,2.1-.057A1.667,1.667,0,0,0,10.11,7.451a8.479,8.479,0,0,0,.057-2.1A3.333,3.333,0,0,1,13.5,2.02" transform="translate(-3.5 -2)" fill="none" stroke="#444" stroke-linecap="round" stroke-linejoin="round" stroke-width="1.5"/>
  </g>
</svg>
