<svg xmlns="http://www.w3.org/2000/svg" width="19.5" height="21.5" viewBox="0 0 19.5 21.5">
  <g id="Component_510_2" data-name="Component 510 – 2" transform="translate(0.75 0.75)">
    <g id="file-block-stroke-rounded" transform="translate(21 22) rotate(180)">
      <path id="Path_36250" data-name="Path 36250" d="M12.5,2h.773c3.261,0,4.892,0,6.024.8a4.133,4.133,0,0,1,.855.805C21,4.669,21,6.2,21,9.273v2.545c0,2.963,0,4.445-.469,5.628a7.233,7.233,0,0,1-4.369,4.112C14.9,22,13.33,22,10.182,22a11.254,11.254,0,0,1-3.417-.252,4.133,4.133,0,0,1-2.5-2.35A9.426,9.426,0,0,1,4,16.182V11.818" fill="none" stroke="#444" stroke-linecap="round" stroke-linejoin="round" stroke-width="1.5"/>
      <path id="Path_36251" data-name="Path 36251" d="M21,12a3.333,3.333,0,0,1-3.333,3.333,8.48,8.48,0,0,0-2.1.057,1.667,1.667,0,0,0-1.179,1.179,8.48,8.48,0,0,0-.057,2.1A3.333,3.333,0,0,1,11,22" fill="none" stroke="#444" stroke-linecap="round" stroke-linejoin="round" stroke-width="1.5"/>
    </g>
    <path id="Path_36387" data-name="Path 36387" d="M18,6l1-1m3,1a4,4,0,1,1-4-4A4,4,0,0,1,22,6Z" transform="translate(-4 10)" fill="none" stroke="#444" stroke-linecap="round" stroke-width="1.5"/>
  </g>
</svg>
