<svg xmlns="http://www.w3.org/2000/svg" width="19.811" height="21.811" viewBox="0 0 19.811 21.811">
  <g id="file-search-stroke-rounded" transform="translate(0.75 0.75)">
    <path id="Path_36745" data-name="Path 36745" d="M21,22l-2.147-2.147m0,0a3.429,3.429,0,1,0-2.424,1A3.434,3.434,0,0,0,18.853,19.853Z" transform="translate(-3 -2)" fill="none" stroke="#444" stroke-linecap="round" stroke-width="1.5"/>
    <path id="Path_36746" data-name="Path 36746" d="M11,22h-.273c-3.261,0-4.892,0-6.024-.8a4.134,4.134,0,0,1-.855-.805C3,19.331,3,17.8,3,14.727V12.182c0-2.963,0-4.445.469-5.628A7.233,7.233,0,0,1,7.838,2.441C9.1,2,10.67,2,13.818,2a11.254,11.254,0,0,1,3.417.252,4.133,4.133,0,0,1,2.5,2.35A9.425,9.425,0,0,1,20,7.818V12" transform="translate(-3 -2)" fill="none" stroke="#444" stroke-linecap="round" stroke-linejoin="round" stroke-width="1.5"/>
    <path id="Path_36747" data-name="Path 36747" d="M3,12A3.333,3.333,0,0,1,6.333,8.667a8.477,8.477,0,0,0,2.1-.057A1.667,1.667,0,0,0,9.61,7.431a8.477,8.477,0,0,0,.057-2.1A3.333,3.333,0,0,1,13,2" transform="translate(-3 -2)" fill="none" stroke="#444" stroke-linecap="round" stroke-linejoin="round" stroke-width="1.5"/>
  </g>
</svg>
