<svg xmlns="http://www.w3.org/2000/svg" width="20.5" height="21.5" viewBox="0 0 20.5 21.5">
  <g id="Component_506_2" data-name="Component 506 – 2" transform="translate(0.75 0.75)">
    <path id="Path_36382" data-name="Path 36382" d="M19,9V7.818A9.991,9.991,0,0,0,18.748,4.6a4,4,0,0,0-2.35-2.35A9.991,9.991,0,0,0,13.182,2c-2.963,0-4.445,0-5.628.441A7,7,0,0,0,3.441,6.554C3,7.737,3,9.219,3,12.182v2.545c0,3.069,0,4.6.8,5.67A4,4,0,0,0,4.6,21.2c1.066.8,2.6.8,5.67.8H14.5" transform="translate(-3 -2)" fill="none" stroke="#0f2837" stroke-linecap="round" stroke-linejoin="round" stroke-width="1.5"/>
    <path id="Path_36383" data-name="Path 36383" d="M11,14.333h.84a2.3,2.3,0,0,1,1.258.174c.266.174.414.488.71,1.116L15.4,19l2.2-7,1.592,3.377c.3.628.444.941.71,1.116a2.3,2.3,0,0,0,1.258.174H22" transform="translate(-3 -2)" fill="none" stroke="#0f2837" stroke-linecap="round" stroke-linejoin="round" stroke-width="1.5"/>
    <path id="Path_36384" data-name="Path 36384" d="M3,12A3.333,3.333,0,0,1,6.333,8.667H7.444a4.177,4.177,0,0,0,.987-.057A1.667,1.667,0,0,0,9.61,7.431a4.177,4.177,0,0,0,.057-.987V5.333A3.333,3.333,0,0,1,13,2" transform="translate(-3 -2)" fill="none" stroke="#0f2837" stroke-linecap="round" stroke-linejoin="round" stroke-width="1.5"/>
  </g>
</svg>
