<svg xmlns="http://www.w3.org/2000/svg" width="19.5" height="21.5" viewBox="0 0 19.5 21.5">
  <g id="file-import-stroke-rounded" transform="translate(0.75 0.75)">
    <path id="Path_36708" data-name="Path 36708" d="M15.5,16c-.506.492-2.5,1.8-2.5,2.5M15.5,21c-.506-.492-2.5-1.8-2.5-2.5m0,0h8" transform="translate(-3 -2)" fill="none" stroke="#444" stroke-linecap="round" stroke-linejoin="round" stroke-width="1.5"/>
    <path id="Path_36709" data-name="Path 36709" d="M11,22h-.273c-3.261,0-4.892,0-6.024-.8a4.134,4.134,0,0,1-.855-.805C3,19.331,3,17.8,3,14.727V12.182c0-2.963,0-4.445.469-5.628A7.233,7.233,0,0,1,7.838,2.441C9.1,2,10.67,2,13.818,2a11.254,11.254,0,0,1,3.417.252,4.133,4.133,0,0,1,2.5,2.35A9.425,9.425,0,0,1,20,7.818V13" transform="translate(-3 -2)" fill="none" stroke="#444" stroke-linecap="round" stroke-linejoin="round" stroke-width="1.5"/>
    <path id="Path_36710" data-name="Path 36710" d="M3,12A3.333,3.333,0,0,1,6.333,8.667a8.477,8.477,0,0,0,2.1-.057A1.667,1.667,0,0,0,9.61,7.431a8.477,8.477,0,0,0,.057-2.1A3.333,3.333,0,0,1,13,2" transform="translate(-3 -2)" fill="none" stroke="#444" stroke-linecap="round" stroke-linejoin="round" stroke-width="1.5"/>
  </g>
</svg>
