<svg xmlns="http://www.w3.org/2000/svg" width="17.786" height="19.278" viewBox="0 0 17.786 19.278">
  <g id="Component_515_2" data-name="Component 515 – 2" transform="translate(0.75 0.75)">
    <path id="Path_36717" data-name="Path 36717" d="M6.556,3.143V2m0,1.143A2.99,2.99,0,0,1,9.021,4.415M6.556,3.143A2.99,2.99,0,0,0,4.09,4.415M6.556,8.857A2.99,2.99,0,0,1,4.09,7.585M6.556,8.857A2.99,2.99,0,0,0,9.021,7.585M6.556,8.857V10M3,8.286l1.09-.7m6.021-3.871-1.09.7m1.09,3.871-1.09-.7M3,3.714l1.09.7m0,3.17a2.774,2.774,0,0,1,0-3.17m4.931,3.17a2.774,2.774,0,0,0,0-3.17" transform="translate(5.889 7.778)" fill="none" stroke="#0f2837" stroke-linecap="round" stroke-width="1.5"/>
    <path id="Path_36718" data-name="Path 36718" d="M11.111,19.778h-.242c-2.9,0-4.348,0-5.355-.709a3.674,3.674,0,0,1-.76-.716C4,17.406,4,16.041,4,13.313V11.05c0-2.634,0-3.951.417-5A6.429,6.429,0,0,1,8.3,2.392C9.418,2,10.818,2,13.616,2a10,10,0,0,1,3.037.224,3.674,3.674,0,0,1,2.219,2.089,8.379,8.379,0,0,1,.238,2.859V10" transform="translate(-4 -2)" fill="none" stroke="#0f2837" stroke-linecap="round" stroke-linejoin="round" stroke-width="1.5"/>
    <path id="Path_36719" data-name="Path 36719" d="M11,20.889a2.963,2.963,0,0,1,2.963-2.963,7.537,7.537,0,0,0,1.865-.05,1.482,1.482,0,0,0,1.048-1.048,7.537,7.537,0,0,0,.05-1.865A2.963,2.963,0,0,1,19.889,12" transform="translate(-11 -12)" fill="none" stroke="#0f2837" stroke-linecap="round" stroke-linejoin="round" stroke-width="1.5"/>
  </g>
</svg>
