<svg xmlns="http://www.w3.org/2000/svg" width="17.518" height="17.515" viewBox="0 0 17.518 17.515">
  <g id="star-stroke-rounded" transform="translate(0.759 0.75)">
    <path id="star-stroke-rounded-2" data-name="star-stroke-rounded" d="M11.382,3.155,12.79,5.994a1.74,1.74,0,0,0,1.136.847l2.552.427c1.632.274,2.016,1.468.84,2.645l-1.984,2a1.761,1.761,0,0,0-.416,1.46l.568,2.476c.448,1.96-.584,2.718-2.3,1.694L10.79,16.116a1.717,1.717,0,0,0-1.584,0L6.815,17.544c-1.712,1.024-2.752.258-2.3-1.694l.568-2.476a1.761,1.761,0,0,0-.416-1.46l-1.984-2c-1.168-1.178-.792-2.371.84-2.645l2.552-.427A1.744,1.744,0,0,0,7.2,5.994L8.606,3.155C9.374,1.615,10.622,1.615,11.382,3.155Z" transform="translate(-2 -2)" fill="none" stroke="#0f2837" stroke-linecap="round" stroke-linejoin="round" stroke-width="1.5"/>
  </g>
</svg>
