<svg xmlns="http://www.w3.org/2000/svg" width="21.426" height="20.507" viewBox="0 0 21.426 20.507">
  <g id="alert-02-stroke-rounded" transform="translate(0.713 0.757)">
    <path id="Path_36086" data-name="Path 36086" d="M5.322,9.683C7.735,5.412,8.942,3.276,10.6,2.727a4.445,4.445,0,0,1,2.8,0c1.656.55,2.863,2.685,5.277,6.956s3.62,6.406,3.258,8.146a4.658,4.658,0,0,1-1.4,2.48C19.241,21.5,16.827,21.5,12,21.5s-7.241,0-8.535-1.19a4.658,4.658,0,0,1-1.4-2.48C1.7,16.089,2.908,13.954,5.322,9.683Z" transform="translate(-2 -2.5)" fill="none" stroke="#444" stroke-width="1.5"/>
    <path id="Path_36087" data-name="Path 36087" d="M11.992,16H12" transform="translate(-2 -2.5)" fill="none" stroke="#444" stroke-linecap="round" stroke-linejoin="round" stroke-width="2"/>
    <path id="Path_36088" data-name="Path 36088" d="M12,13V9" transform="translate(-2 -2.5)" fill="none" stroke="#444" stroke-linecap="round" stroke-linejoin="round" stroke-width="1.5"/>
  </g>
</svg>
