<svg xmlns="http://www.w3.org/2000/svg" width="17.211" height="17.62" viewBox="0 0 17.211 17.62">
  <g id="Component_514_2" data-name="Component 514 – 2" transform="translate(0.747 0.75)">
    <path id="Path_36482" data-name="Path 36482" d="M17.63,6.145l-.4-.69c-.3-.522-.451-.783-.707-.887s-.545-.022-1.124.142l-.983.277a1.606,1.606,0,0,1-1.095-.137l-.272-.157a1.611,1.611,0,0,1-.635-.78l-.269-.8c-.177-.532-.265-.8-.476-.95s-.49-.152-1.05-.152h-.9c-.56,0-.839,0-1.05.152s-.3.418-.476.95l-.269.8a1.611,1.611,0,0,1-.635.78l-.272.157a1.606,1.606,0,0,1-1.095.137L4.941,4.71c-.579-.164-.868-.246-1.124-.142s-.406.365-.707.887l-.4.69c-.282.489-.423.734-.4.995s.216.47.594.89l.831.929a1.942,1.942,0,0,1,0,2.216L2.91,12.1c-.378.42-.566.63-.594.89s.114.505.4.995l.4.69c.3.522.451.783.707.887s.545.022,1.124-.142l.983-.277a1.606,1.606,0,0,1,1.1.137l.271.157a1.611,1.611,0,0,1,.635.78l.269.8c.177.532.265.8.476.95s.491.152,1.05.152h.9c.56,0,.84,0,1.05-.152s.3-.418.476-.95l.269-.8a1.611,1.611,0,0,1,.635-.78l.271-.157a1.606,1.606,0,0,1,1.1-.137l.983.277c.579.164.868.246,1.124.142s.406-.365.707-.887l.4-.69c.282-.489.423-.734.4-.995s-.216-.47-.594-.89l-.831-.929a1.942,1.942,0,0,1,0-2.216l.831-.929c.378-.42.566-.63.594-.89S17.912,6.635,17.63,6.145Z" transform="translate(-2.313 -2.008)" fill="none" stroke="#0f2837" stroke-linecap="round" stroke-width="1.5"/>
    <path id="Path_36483" data-name="Path 36483" d="M14.161,11.321A2.821,2.821,0,1,1,11.34,8.5,2.821,2.821,0,0,1,14.161,11.321Z" transform="translate(-3.517 -3.267)" fill="none" stroke="#0f2837" stroke-width="1.5"/>
  </g>
</svg>
