<svg xmlns="http://www.w3.org/2000/svg" width="19.133" height="17.337" viewBox="0 0 19.133 17.337">
  <g id="user-add-02-stroke-rounded" transform="translate(0.79 0.75)">
    <path id="Path_36556" data-name="Path 36556" d="M4.682,15.094c-1.061.622-3.842,1.891-2.148,3.48A4.2,4.2,0,0,0,5.442,19.9h6.612a4.2,4.2,0,0,0,2.908-1.331c1.694-1.589-1.087-2.858-2.148-3.48A8.1,8.1,0,0,0,4.682,15.094Z" transform="translate(-2 -4.068)" fill="none" stroke="#444" stroke-linecap="round" stroke-linejoin="round" stroke-width="1.5"/>
    <path id="Path_36557" data-name="Path 36557" d="M12.748,6.374A3.374,3.374,0,1,1,9.374,3,3.374,3.374,0,0,1,12.748,6.374Z" transform="translate(-2.385 -3)" fill="none" stroke="#444" stroke-width="1.5"/>
    <path id="Path_36558" data-name="Path 36558" d="M19.109,4V8.218m2.109-2.109H17" transform="translate(-3.625 -3.156)" fill="none" stroke="#444" stroke-linecap="round" stroke-linejoin="round" stroke-width="1.5"/>
  </g>
</svg>
