<svg xmlns="http://www.w3.org/2000/svg" width="17.427" height="21.5" viewBox="0 0 17.427 21.5">
  <g id="location-user-04-stroke-rounded" transform="translate(0.714 0.75)">
    <path id="Path_36813" data-name="Path 36813" d="M5.533,17c-1.422,2.006-1.78,3.065-1.38,3.916a1.784,1.784,0,0,0,.139.243C4.864,22,6.341,22,9.3,22H14.7c2.955,0,4.432,0,5-.841a1.788,1.788,0,0,0,.139-.243c.4-.85.042-1.909-1.379-3.916" transform="translate(-4 -2)" fill="none" stroke="#444" stroke-linecap="round" stroke-linejoin="round" stroke-width="1.5"/>
    <path id="Path_36814" data-name="Path 36814" d="M13,7H11a4.168,4.168,0,0,0-3.674,5.828,1,1,0,0,0,.919.634h.7a.521.521,0,0,1,.5.409l.905,3.786a1.679,1.679,0,0,0,3.29,0l.9-3.786a.521.521,0,0,1,.5-.409h.7a1,1,0,0,0,.919-.634A4.168,4.168,0,0,0,13,7Z" transform="translate(-4 -2)" fill="none" stroke="#444" stroke-width="1.5"/>
    <path id="Path_36815" data-name="Path 36815" d="M14.5,4.5A2.5,2.5,0,1,1,12,2,2.5,2.5,0,0,1,14.5,4.5Z" transform="translate(-4 -2)" fill="none" stroke="#444" stroke-width="1.5"/>
  </g>
</svg>
