<svg xmlns="http://www.w3.org/2000/svg" width="21.832" height="20.5" viewBox="0 0 21.832 20.5">
  <g id="Component_507_2" data-name="Component 507 – 2" transform="translate(0.789 0.75)">
    <path id="Path_36619" data-name="Path 36619" d="M5.18,15.3c-1.258.737-4.555,2.242-2.547,4.126A4.979,4.979,0,0,0,6.081,21h7.838a4.979,4.979,0,0,0,3.447-1.578c2.008-1.883-1.289-3.389-2.547-4.126A9.608,9.608,0,0,0,5.18,15.3Z" transform="translate(-2 -2)" fill="none" stroke="#0f2837" stroke-linecap="round" stroke-linejoin="round" stroke-width="1.5"/>
    <path id="Path_36620" data-name="Path 36620" d="M14,7a4,4,0,1,1-4-4A4,4,0,0,1,14,7Z" transform="translate(-2 -2)" fill="none" stroke="#0f2837" stroke-width="1.5"/>
    <path id="Path_36621" data-name="Path 36621" d="M19.5,7.143V8m0-.857a2.067,2.067,0,0,1-1.734-.954m1.734.954a2.067,2.067,0,0,0,1.734-.954M19.5,2.857a2.067,2.067,0,0,1,1.734.954M19.5,2.857a2.067,2.067,0,0,0-1.734.954M19.5,2.857V2M22,3.286l-.766.526M17,6.714l.766-.525M17,3.286l.766.526M22,6.714l-.766-.525m0-2.378a2.2,2.2,0,0,1,0,2.378M17.766,3.811a2.2,2.2,0,0,0,0,2.378" transform="translate(-2 -2)" fill="none" stroke="#0f2837" stroke-linecap="round" stroke-width="1.5"/>
  </g>
</svg>
