<svg xmlns="http://www.w3.org/2000/svg" width="18.556" height="18.5" viewBox="0 0 18.556 18.5">
  <g id="Component_513_2" data-name="Component 513 – 2" transform="translate(0.788 0.75)">
    <path id="Path_36576" data-name="Path 36576" d="M9.225,20.8H5.9a4.729,4.729,0,0,1-3.3-1.533c-1.92-1.83,1.233-3.292,2.435-4.008a9.071,9.071,0,0,1,7.159-.9" transform="translate(-2 -3.8)" fill="none" stroke="#0f2837" stroke-linecap="round" stroke-linejoin="round" stroke-width="1.5"/>
    <path id="Path_36577" data-name="Path 36577" d="M15.15,5.825A3.825,3.825,0,1,1,11.325,2,3.825,3.825,0,0,1,15.15,5.825Z" transform="translate(-2.825 -2)" fill="none" stroke="#0f2837" stroke-width="1.5"/>
    <path id="Path_36578" data-name="Path 36578" d="M17.618,13.721a3.086,3.086,0,0,1,.579-.553,1.188,1.188,0,0,1,1.187-.018,3.086,3.086,0,0,1,.595.536,3.112,3.112,0,0,1,.524.607,1.26,1.26,0,0,1-.018,1.212,3.1,3.1,0,0,1-.542.592l-3.6,3.464a4.128,4.128,0,0,1-1.217.968,4.035,4.035,0,0,1-1.539.109l-.107,0c-.24-.006-.359-.009-.429-.088s-.06-.2-.041-.445l.01-.133a4.251,4.251,0,0,1,.214-1.339,4.159,4.159,0,0,1,.828-1.061Z" transform="translate(-3.65 -3.65)" fill="none" stroke="#0f2837" stroke-linejoin="round" stroke-width="1.5"/>
  </g>
</svg>
