<svg id="Component_22_1" data-name="Component 22 – 1" xmlns="http://www.w3.org/2000/svg" width="188.252" height="177.307" viewBox="0 0 188.252 177.307">
  <g id="Group_28386" data-name="Group 28386" transform="translate(33.276 52.92)">
    <g id="Group_28387" data-name="Group 28387" transform="translate(0 0)">
      <path id="Path_40171" data-name="Path 40171" d="M273.713,81.214c-1.142-14.905-2.892-37.236-3.971-51.352a45.941,45.941,0,0,0,3.066,4.027l.39.443c1.624,1.908-2.3-10.108-5.724-18.8l-3.044,7.348a34.064,34.064,0,0,1,1.288,3.9c.719,9.752,3.407,42.195,5,61.8.178,2.007.231,3.453.31,5.051.152,3.664.152,4.337.614,3.123l.053-.106a48.108,48.108,0,0,0,1.677-6.807,38.544,38.544,0,0,0,.337-8.616" transform="translate(-160.682 -9.436)" fill="#59c9bc"/>
      <path id="Path_40172" data-name="Path 40172" d="M141.944,69.147c1.241,2.192,1.756,2.66,2.067,3.948a8.937,8.937,0,0,1-7.507,1.73,5.917,5.917,0,0,1-4.747-4.258c-.773-2.555,2.5-6.239.7-5.8-3.717,1.7-6.345,10.755-14.393,12.28-3.07.587-6.345-.337-8.669-4.905-1.7-3.374-3.684-7.527-8-6.391-5.308,1.393-9.229,4.384-12.683,10.108a24.1,24.1,0,0,0-3.585,11.937l.046,1.161c-.016.29.147-.147.44-.943l-.282,1.148c.038.23.082.454.125.678-4.38-4.252-6.267-10.3-6.78-21.125-1.135-25.841-2.608-38.787-4.384-50.5A85.221,85.221,0,0,0,72.443,8.7L69.4,16.045a83.377,83.377,0,0,1,1.855,9.494c1.472,11.58,2.912,24.527,4.206,50.414.9,19.113,9.051,24.064,24.652,29.763l0-.082.156.082.3-8.511C94.548,94.112,88.2,91.011,87.331,83.834a13.588,13.588,0,0,1,.945-1.661c2.271-3.275,7.427-7.632,11.811-8.306,3.486-.515,4.9,2.04,6.86,5.981,3.248,6.035,7.79,5.8,11.118,5.163,6.5-1.215,9.824-10.709,11.322-9.6.462.469.178.931,1.393,3.044,1.776,2.713,3.532,3.823,5.724,4.311,1.855.409,7.427.026,9.388-10.96.542-2.918-.673-8.154-1.881-10.319Z" transform="translate(-42.171 -5.285)" fill="#59c9bc"/>
      <path id="Path_40173" data-name="Path 40173" d="M18.8,156.791a7.7,7.7,0,0,1-2.252.765c-4.027-.231-10.293-2.991-12.59-5.057-1.393-1.057,5.394-6.213,8.794-6.391a3.457,3.457,0,0,1,2.635,1.155c1.208,1.267,1.749,3.816,2.449,2.5a.026.026,0,0,0,.027-.026l.151-.283.027-.047c.878-1.651,2.324-5.678,1.42-8.206-.621-1.7-1.677-3.017-3.354-3.017-8.332.231-21.094,16.043-14.082,22.414a17.51,17.51,0,0,0,5.079,2.843c-.962.605-1.968,1.251-3.039,1.95l-2.733,7.48a150.327,150.327,0,0,1,14.627-8.546c1.034-.465,2.292-1.119,3.67-1.841,2.178-1.077,4.552-2.232,7.339-3.615l2.733-7.48c-2.616,1.1-5.388,2.585-7.757,3.825-1.086.538-2.125,1.057-3.142,1.576" transform="translate(0 -83.969)" fill="#59c9bc"/>
      <path id="Path_40174" data-name="Path 40174" d="M224.1,13.679c-2.937,2.485-5.713,6.518-3.559,4.9l.337-.257a30.388,30.388,0,0,1,2.635-1.73c1.7-1.066,3.845-2.178,6.132-3.38q.292-.148.57-.3c1.459-.769,2.963-1.576,4.436-2.433l1.757-4.82c-2.35.951-3.743,2.271-6.087,3.248-2.249.368-7.531-.014-9.267-2.338a6.37,6.37,0,0,1,4.7-1.709c2.192.31,1.393,2.548,2.456.64l.667-1.234C229.8,2.792,229.926.6,227.5.032c-1.73-.31-5.493,1.677-7.012,5.057L218.94,9.367c-.765,2.207,2.187,3.727,5.157,4.312" transform="translate(-132.966 0)" fill="#59c9bc"/>
      <path id="Path_40175" data-name="Path 40175" d="M119.495,113.935l-.951.31c-3.222,1.208,3.737.647,8.873-.488a137.346,137.346,0,0,0,17.872-4.774c2.37-.957,3.063-2.3,4.641-5.361l.772-1.677c1.056-1.961-.257-.957-2.786.641-4.721,2.945-14.828,6.833-19.886,8.51-3.789,1.321-6.239,2.014-8.536,2.839" transform="translate(-71.535 -61.29)" fill="#59c9bc"/>
      <path id="Path_40176" data-name="Path 40176" d="M26.7,1.571a2.741,2.741,0,0,1,.677,1.541.877.877,0,0,1-.437.234c-2.234.42-3.374,0-3.278-1.146.012-.074.022-.141.03-.2,0-.014,0-.026.006-.04v0c.03-.259.015-.386-.077-.265l-.063.1c-.344.428-.632,1.263-1.185,2.161a3.493,3.493,0,0,1-4.568.757C15.607,3.326,13.258,6.3,11,8.87a15.957,15.957,0,0,1-5.1,3.978c-2.428,1.264-7.628,3.059-5.32,2.673l.506-.1a19.153,19.153,0,0,0,5.711-1.77A14.944,14.944,0,0,0,11.2,10.1c2.12-2.511,4.365-4.448,6.829-3.08,2.287,1.143,4.427-.308,5.122-2.673.047-.155.095-.328.143-.508.268.947,1.2,1.544,3.141,1a1.177,1.177,0,0,0,.9-.961l.344-1.305A3.051,3.051,0,0,0,27.15,0Z" transform="translate(76.853 78.192) rotate(13)" fill="#59c9bc"/>
      <path id="Path_40177" data-name="Path 40177" d="M38.845,74.335A4.452,4.452,0,0,0,44.774,72.2a18.934,18.934,0,0,0,1.545-5.421l.027-.231c.185-1.855-.152.337-1.182,1.729a4.212,4.212,0,0,1-4.773.825,6.348,6.348,0,0,1-3.07-5.288c-.363-4.3,1.782-9,3.532-14.34a49.706,49.706,0,0,0,1.809-6.239l.152-.693c.7-4.648-1.215,3.327-3.07,7.447C37.551,55.3,34.666,61.593,34.871,67.06c.125,2.582.878,5.757,3.974,7.276" transform="translate(-21.183 -24.992)" fill="#59c9bc"/>
      <path id="Path_40178" data-name="Path 40178" d="M139.3,65.5l.915-1.271c2.663,3.24,4.516,8.462,5.636,13.934l.91-.736c1.936-5.525,1.514-15.418,3.913-17.222.868-.654,2.159-.3,4.16,1.679l1.034-2.523c-2.126-3.259-3.648-3.913-4.814-2.937-2.663,2.193-3.154,12.365-4.433,18.76-.631-6.078-3.453-15.862-9.687-16.634a1.351,1.351,0,0,0-.356.323L135.19,61.5c-.546,1.034.3,3.292,4.111,4" transform="translate(-82.058 -34.035)" fill="#59c9bc"/>
      <path id="Path_40179" data-name="Path 40179" d="M202.644,47.454a7.18,7.18,0,0,0,1.756-4.232,10.085,10.085,0,0,0,.027-2.6l.02.1c-.179-1.261,0-.178-.587,1.6a3.056,3.056,0,0,1-1.6,1.935,1.945,1.945,0,0,1-2.344-.41c-1-1.162-.957-2.991-.8-4.437a79.486,79.486,0,0,1,2.013-7.737c.541-1.988.3-3.506.073-2.318l.026-.026a36.814,36.814,0,0,1-1.287,4.021c-1.162,3.017-2.423,6.318-2.555,8.741a6.838,6.838,0,0,0,1.7,5.519c.931.931,2.192,1.056,3.559-.152" transform="translate(-119.918 -17.581)" fill="#59c9bc"/>
      <path id="Path_40180" data-name="Path 40180" d="M107.58,40.938c-.026,1.809-.39,7.612.231,5.163l.178-.878a27.545,27.545,0,0,0-9.124-28.112l-1.01,5.645c7.844,6.682,9.778,12.406,9.725,18.182" transform="translate(-59.462 -10.398)" fill="#59c9bc"/>
      <path id="Path_40181" data-name="Path 40181" d="M224.991,99.478l.31-.337a28.946,28.946,0,0,0,3.07-3.354c5.982-7.269,5.236-14.571,2.318-15.521-1.136-.337-3.869.878-5.566,5.077-.211.594-.548,1.5-.779,2.43l-.152.587c-.257,1.393.621-.772,1.162-1.34,1.829-2.449,3.889-2.291,4.615-1.42,1.314,1.908.621,6.166-3.176,10.94-1.083,1.367-3.274,4.3-1.8,2.938" transform="translate(-136.203 -48.742)" fill="#59c9bc"/>
    </g>
  </g>
  <g id="Group_28262" data-name="Group 28262" transform="translate(0 48.607)">
    <g id="Group_28388" data-name="Group 28388" transform="translate(0 0)">
      <path id="Path_39859" data-name="Path 39859" d="M187.963,59.243c-.405,5.8-.96,11.572-1.435,17.358q-.989,11.855-1.944,23.711c-.671,8.355-1.354,16.721-1.932,25.088-.451,6.353-.683,12.717-1.146,19.07-.428,5.948-4.825,9.5-11.873,9.7-6.388.174-12.717-.717-19.047-1.319-8.228-.787-16.42-1.967-24.613-3.136-6.272-.891-12.613-.093-18.816-1.493a4.657,4.657,0,0,0-2.916.428,25.753,25.753,0,0,1-20.089,0c-1.886-.787-3.414-.174-5.08.046-12.116,1.6-24.2,2.3-36.336,3.645-7.869.879-15.761,1.863-23.711,1.817a14.555,14.555,0,0,1-8.378-2.372,9.135,9.135,0,0,1-3.958-7.221c-.451-6.723-.671-13.458-1.169-20.181-.787-10.658-1.736-21.315-2.627-31.961-.359-4.316-.868-8.633-1.076-12.949C1.367,69.693-.045,59.984,0,50.194a74.613,74.613,0,0,1,.96-9.084c.417-3.263,2.407-4.652,5.184-5.74.472-.183.948-.341,1.426-.479a1.513,1.513,0,0,1,1.7,2.237l-.087.152-.3.544c-.417.729-.81,1.423-1.238,2.025a6.571,6.571,0,0,0-1.134,4.328c.116,1.666.22,3.321.336,4.987.278,4.351.579,8.841.937,13.284.336,4.224.717,8.517,1.1,12.671.312,3.483.625,6.966.914,10.449.312,3.7.59,7.406.879,11.121.3,3.853.6,7.834.937,11.757.347,4.085.706,8.181,1.076,12.266.509,5.717,1.03,11.63,1.493,17.427a10.365,10.365,0,0,0,10.357,9.906,10.039,10.039,0,0,0,1.308-.081c4.825-.579,9.674-1.3,14.372-2,8.135-1.2,16.559-2.465,24.856-2.951,2.326-.139,4.7-.208,7.07-.208a134.9,134.9,0,0,1,13.9.729,25.48,25.48,0,0,1,2.8.521,23.322,23.322,0,0,0,5.207.741,13.089,13.089,0,0,0,2.881-.312,81.671,81.671,0,0,1,18.006-1.909c1.886,0,3.842.058,5.8.174,9.57.544,19.279,1.967,28.652,3.356,4.085.6,8.3,1.227,12.463,1.77a12.689,12.689,0,0,0,1.62.1,10.454,10.454,0,0,0,10.658-9.917c.069-1.065.116-2.129.15-3.159.046-1.192.093-2.314.174-3.437q.677-8.193,1.377-16.386.4-4.6.787-9.2c.162-1.967.324-3.923.474-5.89.243-2.9.474-5.8.729-8.69.289-3.344.6-6.677.9-10.021.405-4.386.822-8.922,1.2-13.389.555-6.446,1.065-13.134,1.539-19.9.023-.359.069-.717.1-1.088a10.472,10.472,0,0,0-.8-6.515q-.883-1.63-1.813-3.13a1.511,1.511,0,0,1,1.673-2.243q.715.175,1.424.374a6.859,6.859,0,0,1,5.416,5.9,77.718,77.718,0,0,1,.486,17.959" transform="translate(0 -25.488)" fill="#59c9bc"/>
      <path id="Path_39860" data-name="Path 39860" d="M92.619,41.569c8.714-8.13,19.3-11.922,30.78-13.8,15.3-2.506,30.021.05,44.52,4.831a4.554,4.554,0,0,1,1.987,1.415A47.314,47.314,0,0,1,176.37,43.3c.96,1.773.411,3.8.28,5.706q-.687,9.929-1.529,19.848c-.664,7.8-1.423,15.6-2.112,23.4-.429,4.865-.8,9.735-1.2,14.6-.717,8.532-1.462,17.062-2.157,25.6-.179,2.206-.182,4.426-.336,6.635-.31,4.459-3.926,7.192-8.365,6.611-13.777-1.8-27.465-4.367-41.361-5.156a89.39,89.39,0,0,0-24.761,1.816c-3.49.786-6.532-.673-9.772-1.006a132.413,132.413,0,0,0-21.529-.544c-13.271.79-26.282,3.4-39.436,4.979a6.926,6.926,0,0,1-7.794-6.648c-.785-9.911-1.737-19.81-2.571-29.718-.642-7.62-1.178-15.251-1.814-22.872-.643-7.708-1.4-15.408-2.019-23.117C9.4,57.367,9.039,51.288,8.63,45.215a3.085,3.085,0,0,1,.51-2.1c.634-.9,1.161-1.88,1.71-2.839a18.519,18.519,0,0,1,12.132-9.424c9.325-2.355,18.656-4.376,28.29-4.063,12.873.419,25.2,3.017,36.14,10.35a28,28,0,0,1,5.207,4.43M93.892,140.2a4.159,4.159,0,0,0,2.593.014,84.293,84.293,0,0,1,17.248-2.014c4.172,0,8.31.358,12.444.672,5.873.449,11.722,1.23,17.57,1.965,5.934.746,11.836,1.776,17.784,2.366,4.241.42,6.2-1.732,6.41-5.969.314-6.169.748-12.332,1.2-18.493.673-9.193,1.429-18.378,2.108-27.571.462-6.257.794-12.523,1.288-18.776.625-7.9,1.173-15.821,2.129-23.686.393-3.234-.728-5.486-2.482-7.939-3.172-4.434-6.967-7.452-12.507-8.7-10.213-2.3-20.357-3.776-30.9-2.753-11.458,1.111-21.946,4.37-31.237,11.262-4.719,3.5-4.787,3.514-9.475.058-9.385-6.919-19.942-10.23-31.508-11.33-11.695-1.114-22.9.621-34.055,3.779-6.076,1.721-8.344,7.138-11.738,11.482-.26.334-.041,1.067,0,1.611.768,10.209,1.47,20.424,2.348,30.624.459,5.333.789,10.669,1.127,16.01.6,9.571,1.411,19.128,2.122,28.692.4,5.332.663,10.678,1.194,16,.41,4.1,2.449,6.388,6.721,5.75q5.865-.875,11.738-1.689c9.038-1.251,18.093-2.284,27.2-2.932a87.775,87.775,0,0,1,20.125.53c2.6.413,5.2,1.458,8.033,1.126a6.485,6.485,0,0,0-2.01-3.2c-5.632-5.734-12.786-8.015-20.5-8.194-11.839-.273-23.368,2.312-34.889,4.7-4.024.834-8.251,1.285-10.567,5.469-.174.312-.763.4-1.168.59-.847-1.5.349-2.348.833-3.362.472-.992,1.673-2.082,1.481-2.867-.849-3.473.039-6.936-.3-10.371-.515-5.2-1.232-10.385-1.75-15.586-.819-8.238-1.426-16.5-2.336-24.726C18.813,70.593,17.212,58.464,17.412,46.2c.022-1.382-1.038-3.8,1.073-3.843,1.676-.037.977,2.432.985,3.746a339.518,339.518,0,0,0,1.986,34.8c1.406,12.819,2.228,25.677,3.266,38.521a91.737,91.737,0,0,0,1.965,13.764A5.75,5.75,0,0,0,29.3,133c12.3-2.618,24.542-5.592,37.2-5.972C77,126.716,86.1,129.675,92.752,138.266c5.571-7.271,13.187-10.683,22.322-11.155,10.413-.539,20.486,1.737,30.6,3.629,4.365.816,8.694,1.816,13.6,2.851,2.52-30.772,6.123-60.988,7.066-91.6,2.186.377,1.915,1.79,2.029,3.013.371,3.984-.322,7.929-.529,11.884-.359,6.891-1.1,13.766-1.768,20.638-.625,6.405-1.359,12.8-2.06,19.2-.5,4.563-1.156,9.112-1.51,13.686-.4,5.129-1.523,10.194-1.28,15.38a26.311,26.311,0,0,1-.112,6.086,4.78,4.78,0,0,0,.724,3.555c.685,1.245,2.224,2.292,1.508,4.088-1.274.02-1.762-.861-2.228-1.614a7.744,7.744,0,0,0-5.416-3.4c-10.327-2.162-20.636-4.307-31.188-5.3-6.855-.645-13.411-.321-19.794,2.228-4.422,1.766-8.29,4.272-10.83,8.774" transform="translate(1.354 -26.757)" fill="#aaafae"/>
    </g>
  </g>
  <path id="Path_40182" data-name="Path 40182" d="M105.473,79.375a1.274,1.274,0,0,1-1.146,1.053c-5.473.926-9.292,4.42-12.428,8.575-2.87,3.8-5.554,7.8-6.376,12.706-.127.764-.035,2.037-1.215,2.106-1.516.069-1.215-1.481-1.389-2.245-1.5-6.746-5.416-12.023-10.16-16.768A16.991,16.991,0,0,0,65.1,80.59c-.787-.22-1.666-.162-2.118-1.1.139-.879.822-1.03,1.574-1.2a19.07,19.07,0,0,0,10.681-6.92c3.506-4.316,6.654-8.795,7.765-14.419.116-.613-.174-2.141,1.3-1.99,1.192.127,1.065,1.342,1.238,2.118,1.655,7.2,5.8,12.833,11.155,17.682a16.513,16.513,0,0,0,6.816,3.46c.787.208,1.689.139,1.967,1.157" transform="translate(9.9 -49.251)" fill="#a6e8e0"/>
  <path id="Path_40183" data-name="Path 40183" d="M92.6,22.607a.3.3,0,0,1-.267.245,4.623,4.623,0,0,0-2.9,2,6.835,6.835,0,0,0-1.486,2.961c-.03.178-.008.476-.284.492-.353.016-.284-.346-.324-.524a8.009,8.009,0,0,0-2.369-3.909,3.967,3.967,0,0,0-1.786-.981c-.184-.051-.389-.038-.494-.257.032-.2.192-.24.367-.28a4.444,4.444,0,0,0,2.49-1.613,7.756,7.756,0,0,0,1.811-3.362c.027-.143-.041-.5.3-.464.278.03.248.312.288.494a7.937,7.937,0,0,0,2.6,4.122,3.857,3.857,0,0,0,1.59.807c.183.049.393.032.458.27" transform="translate(-2.811 -16.912)" fill="#a6e8e0"/>
  <path id="Path_40184" data-name="Path 40184" d="M88.046,9.551a.5.5,0,0,1-.448.412,7.753,7.753,0,0,0-4.86,3.352,11.486,11.486,0,0,0-2.493,4.969c-.05.3-.014.8-.476.823-.592.028-.474-.579-.543-.877a13.43,13.43,0,0,0-3.973-6.557,6.632,6.632,0,0,0-3-1.647c-.308-.087-.651-.064-.827-.43.054-.344.321-.4.614-.471A7.461,7.461,0,0,0,76.223,6.42,13.011,13.011,0,0,0,79.258.782c.045-.24-.067-.837.507-.779.466.05.417.525.485.829a13.318,13.318,0,0,0,4.361,6.914A6.472,6.472,0,0,0,87.276,9.1c.308.081.661.054.77.452" transform="translate(34.063 3.591)" fill="#59c9bc"/>
</svg>
