<svg id="Component_26_1" data-name="Component 26 – 1" xmlns="http://www.w3.org/2000/svg" xmlns:xlink="http://www.w3.org/1999/xlink" width="725.053" height="132.02" viewBox="0 0 725.053 132.02">
  <defs>
    <clipPath id="clip-path">
      <rect id="Rectangle_21057" data-name="Rectangle 21057" width="725.053" height="132.02" fill="none"/>
    </clipPath>
  </defs>
  <g id="Group_28467" data-name="Group 28467" clip-path="url(#clip-path)">
    <path id="Path_40489" data-name="Path 40489" d="M36.038,23.237H33.521A4.963,4.963,0,0,1,30.044,22.2a3.03,3.03,0,0,1-1.11-2.22,2.616,2.616,0,0,1,.814-2.146,3.05,3.05,0,0,1,2-.666,8.47,8.47,0,0,1,1.591.148c.518.1,1,.2,1.442.3l.666-4.144a14.021,14.021,0,0,0-3.995-.592q-3.774,0-5.587,1.813a5.74,5.74,0,0,0-1.813,4.181,5.092,5.092,0,0,0,.592,2.442,16.229,16.229,0,0,0,1.184,1.924H22.2V27.6H36.038Z" fill="#173347"/>
    <path id="Path_40490" data-name="Path 40490" d="M164.576,44.4H160.21q-3.7,0-5.106-1.924a8.059,8.059,0,0,1-1.407-4.884V27.528h-8.435V40.553a6.293,6.293,0,0,1-.518,2.886,2.294,2.294,0,0,1-2.22.962h-1.85q-3.7,0-5.106-1.924a8.066,8.066,0,0,1-1.406-4.884V30.414h-8.435V40.553a6.357,6.357,0,0,1-.519,2.811,2.235,2.235,0,0,1-2.22,1.037h-11.7a2.991,2.991,0,0,0-.658-.075h-2.664a7.788,7.788,0,0,1-3.516-.661,5.383,5.383,0,0,1-1.961-1.582,4.718,4.718,0,0,1-.851-1.948,9.975,9.975,0,0,1-.185-1.692q0-8.235-3.811-12.793T86.654,21.091A14.841,14.841,0,0,0,75.739,25.76a15.636,15.636,0,0,0-3.182,5.147,17.941,17.941,0,0,0-1.147,6.507,13.614,13.614,0,0,1-.37,3.493,5.753,5.753,0,0,1-1,2.132,3.028,3.028,0,0,1-1.443,1.03,5.364,5.364,0,0,1-1.627.257H64.084a2.2,2.2,0,0,0-.563.075H61.716q-3.625,0-4.995-1.924a8.218,8.218,0,0,1-1.369-4.884V0H46.916V40.553a6.308,6.308,0,0,1-.517,2.886,2.3,2.3,0,0,1-2.221.962H10.952a3.96,3.96,0,0,1-.962-.112,1.522,1.522,0,0,1-.777-.48,2.926,2.926,0,0,1-.555-1.148,7.608,7.608,0,0,1-.222-2.035V29.6H0V42.107A15.442,15.442,0,0,0,.555,46.25a9.323,9.323,0,0,0,1.776,3.479A8.685,8.685,0,0,0,5.514,52.1a11.722,11.722,0,0,0,4.845.888H44.475a11.192,11.192,0,0,0,5.179-1.3,9.529,9.529,0,0,0,3.922-3.664,11.04,11.04,0,0,0,2.849,3.4,7.853,7.853,0,0,0,5.143,1.554h5.846a7.172,7.172,0,0,0,4.366-1.419,9.466,9.466,0,0,0,2.96-3.585,13.612,13.612,0,0,0,4.551,3.88,14.634,14.634,0,0,0,6.993,1.494q1.778,0,3.478-.15a12.818,12.818,0,0,0,3.256-.709,10.542,10.542,0,0,0,3.035-1.754,13.417,13.417,0,0,0,2.811-3.285,9.625,9.625,0,0,0,8.88,5.528h15.17a12.546,12.546,0,0,0,5.735-1.221,8.427,8.427,0,0,0,3.664-3.516,10.558,10.558,0,0,0,2.959,3.293,8.575,8.575,0,0,0,5.254,1.444H142.9a11.8,11.8,0,0,0,5.475-1.221A8.281,8.281,0,0,0,152,48.1a11.4,11.4,0,0,0,2.96,3.367,7.885,7.885,0,0,0,5.032,1.517h12.95V23.532h-8.362ZM91.8,42.672q-1.663,2.1-5.217,2.1t-5.217-2.1A8.093,8.093,0,0,1,79.7,37.48a10.193,10.193,0,0,1,.555-3.462,8.591,8.591,0,0,1,1.48-2.652,6.33,6.33,0,0,1,2.183-1.694,6.2,6.2,0,0,1,2.664-.59,6.042,6.042,0,0,1,2.59.59,6.362,6.362,0,0,1,2.184,1.694,9.27,9.27,0,0,1,1.516,2.652,9.608,9.608,0,0,1,.592,3.462A8.093,8.093,0,0,1,91.8,42.672" fill="#173347"/>
    <rect id="Rectangle_21054" data-name="Rectangle 21054" width="8.361" height="52.984" transform="translate(184.482 0.001)" fill="#173347"/>
    <path id="Path_40491" data-name="Path 40491" d="M300.477,16.281a4.379,4.379,0,0,0,3.192-1.258,4.224,4.224,0,0,0,0-6.068A4.383,4.383,0,0,0,300.477,7.7a4.293,4.293,0,0,0-3.119,1.258,4.229,4.229,0,0,0,0,6.068,4.289,4.289,0,0,0,3.119,1.258" fill="#173347"/>
    <path id="Path_40492" data-name="Path 40492" d="M386.835,25.817a12.484,12.484,0,0,0-4.588-3.471,15.594,15.594,0,0,0-6.475-1.254,15.048,15.048,0,0,0-6.105,1.216,14.9,14.9,0,0,0-4.846,3.393,15.3,15.3,0,0,0-3.219,5.2,18.341,18.341,0,0,0-1.147,6.566q0,6.933-4.588,6.933h-8.806a41.63,41.63,0,0,1-5.181-.222,25.867,25.867,0,0,0,6.365-8.288,18.1,18.1,0,0,0,1.627-6.956,5.8,5.8,0,0,0-.887-2.923,9.152,9.152,0,0,0-2.664-2.775,14.774,14.774,0,0,0-4.515-2.035,24.034,24.034,0,0,0-6.512-.776,23.482,23.482,0,0,0-4.883.517,32.307,32.307,0,0,0-4.774,1.406,31.424,31.424,0,0,0-4.4,2.072,26.964,26.964,0,0,0-3.7,2.516l.3,5.92a12.278,12.278,0,0,0,1.11,2.257q.814,1.37,1.924,2.886t2.442,3.071a36.933,36.933,0,0,0,2.664,2.813,17.449,17.449,0,0,1-2.145.369,24.926,24.926,0,0,1-2.887.148h-9.693q-3.7,0-5.107-1.924a8.062,8.062,0,0,1-1.4-4.883V23.533H296.3v17.02a5.977,5.977,0,0,1-.555,2.812,2.244,2.244,0,0,1-2.183,1.036h-11.4V38.7q0-7.62-3.7-11.4t-11.544-3.774H256.632v25.6a9.024,9.024,0,0,1-1.184,4.625,9.876,9.876,0,0,1-3.367,3.4,17.047,17.047,0,0,1-5.143,2.072,28.17,28.17,0,0,1-6.512.7,21.631,21.631,0,0,1-6.327-.85,14.28,14.28,0,0,1-4.661-2.331,9.732,9.732,0,0,1-2.85-3.516,10.348,10.348,0,0,1-.962-4.477,14.432,14.432,0,0,1,.777-4.4,19.619,19.619,0,0,1,2.479-4.921l-6.956-4.07a33.334,33.334,0,0,0-3.515,6.513,20,20,0,0,0-.074,14.355,17.559,17.559,0,0,0,4.033,6.253,20.982,20.982,0,0,0,7.031,4.551,26.837,26.837,0,0,0,10.285,1.776,34.21,34.21,0,0,0,11.4-1.7A22.485,22.485,0,0,0,259,62.531a17.764,17.764,0,0,0,4.588-6.77,23.19,23.19,0,0,0,1.481-8.326V31.821h.666a21.154,21.154,0,0,1,3.514.259,5.341,5.341,0,0,1,2.516,1.073,4.779,4.779,0,0,1,1.48,2.331,13.766,13.766,0,0,1,.481,4.033V52.985h20.2a9.944,9.944,0,0,0,5.365-1.406,10.292,10.292,0,0,0,3.515-3.552,11.62,11.62,0,0,0,3,3.4,8.155,8.155,0,0,0,5.217,1.554h9.916a29.439,29.439,0,0,0,6.475-.74,21.471,21.471,0,0,0,6.105-2.368,25.579,25.579,0,0,0,5.106,2.072,28.281,28.281,0,0,0,8.289,1.036h9.472a7.772,7.772,0,0,0,4.18-1.221,8.041,8.041,0,0,0,3.072-3.811,11.618,11.618,0,0,0,2.627,2.554A12.635,12.635,0,0,0,369.3,52.06a14.825,14.825,0,0,0,3.219.741,28.891,28.891,0,0,0,3.256.184,16.357,16.357,0,0,0,6.771-1.255,12.676,12.676,0,0,0,4.551-3.359,12.845,12.845,0,0,0,2.553-4.836,20.406,20.406,0,0,0,.777-5.611,24.646,24.646,0,0,0-.887-6.792,14.644,14.644,0,0,0-2.7-5.315m-45.621,7.188a14.813,14.813,0,0,1-1.628,2.738,19.476,19.476,0,0,1-2.478,2.738,18.044,18.044,0,0,1-3.072,2.294,18.285,18.285,0,0,1-2.775-2.368q-1.369-1.406-2.553-2.886a33.424,33.424,0,0,1-2-2.738,15.4,15.4,0,0,1-1.11-1.924,15.107,15.107,0,0,1,4.44-1.665,23.186,23.186,0,0,1,5.18-.629q1.182,0,2.331.112a16.187,16.187,0,0,1,2.11.333,4.553,4.553,0,0,1,1.553.628,1.192,1.192,0,0,1,.592,1,5.951,5.951,0,0,1-.592,2.368M380.768,42.7a6.1,6.1,0,0,1-5.144,2.146q-3.7,0-5.291-2.183a8.489,8.489,0,0,1-1.59-5.143,10.317,10.317,0,0,1,.554-3.478,8.667,8.667,0,0,1,1.481-2.664,6.309,6.309,0,0,1,2.182-1.7,6.179,6.179,0,0,1,2.664-.593,5.783,5.783,0,0,1,2.554.593,6.434,6.434,0,0,1,2.146,1.7,9.28,9.28,0,0,1,1.516,2.664,9.7,9.7,0,0,1,.592,3.478,8.2,8.2,0,0,1-1.664,5.18" fill="#173347"/>
    <path id="Path_40493" data-name="Path 40493" d="M531.023,43.809a12.564,12.564,0,0,1-3.773-1.7,8.8,8.8,0,0,1-2.627-2.776,7.253,7.253,0,0,1-1-3.81,6.209,6.209,0,0,1,2.145-4.958,9.141,9.141,0,0,1,6.143-1.851q1.479,0,2.96.149t3.33.444l1.036-8.436q-2.517-.37-4.514-.555t-3.7-.186a19.952,19.952,0,0,0-7.252,1.185,14.021,14.021,0,0,0-4.994,3.182,12.164,12.164,0,0,0-2.85,4.514,15.456,15.456,0,0,0-.887,5.18,12.761,12.761,0,0,0,1.332,5.92,14.477,14.477,0,0,0,3.255,4.292H507.714q-3.774,0-5.143-1.924a8.216,8.216,0,0,1-1.369-4.884V0h-8.51V40.553a5.978,5.978,0,0,1-.556,2.812,2.242,2.242,0,0,1-2.182,1.036h-11.4V38.7q0-7.621-3.7-11.4t-11.543-3.774H453.027v25.6a9.024,9.024,0,0,1-1.184,4.625,9.873,9.873,0,0,1-3.367,3.4,17.016,17.016,0,0,1-5.142,2.073,28.238,28.238,0,0,1-6.512.7,21.594,21.594,0,0,1-6.328-.851,14.231,14.231,0,0,1-4.661-2.331,9.717,9.717,0,0,1-2.849-3.515,10.32,10.32,0,0,1-.963-4.477,14.457,14.457,0,0,1,.777-4.4,19.619,19.619,0,0,1,2.479-4.921l-6.955-4.071a33.29,33.29,0,0,0-3.516,6.513,20.005,20.005,0,0,0-.074,14.356,17.559,17.559,0,0,0,4.033,6.253,20.965,20.965,0,0,0,7.03,4.55,26.831,26.831,0,0,0,10.287,1.777,34.244,34.244,0,0,0,11.4-1.7,22.5,22.5,0,0,0,7.918-4.588,17.794,17.794,0,0,0,4.588-6.771,23.205,23.205,0,0,0,1.479-8.325V31.821h.666a21.176,21.176,0,0,1,3.515.259,5.331,5.331,0,0,1,2.516,1.073,4.78,4.78,0,0,1,1.48,2.331,13.762,13.762,0,0,1,.481,4.033V52.985h20.2a11.337,11.337,0,0,0,5.4-1.221,8.374,8.374,0,0,0,3.552-3.663,11.213,11.213,0,0,0,3,3.367,8.167,8.167,0,0,0,5.143,1.517h34.558V44.4h-6.513a16.563,16.563,0,0,1-4.44-.592" fill="#173347"/>
    <path id="Path_40494" data-name="Path 40494" d="M611.425,16.281a4.377,4.377,0,0,0,3.192-1.258,4.222,4.222,0,0,0,0-6.068A4.381,4.381,0,0,0,611.425,7.7a4.3,4.3,0,0,0-3.12,1.258,4.229,4.229,0,0,0,0,6.068,4.291,4.291,0,0,0,3.12,1.258" fill="#173347"/>
    <path id="Path_40495" data-name="Path 40495" d="M614.051,20.869a16.187,16.187,0,0,0-6.733,1.369,16.618,16.618,0,0,0-5.181,3.589,16.019,16.019,0,0,0-3.33,5.106,15.451,15.451,0,0,0-1.183,5.92,14.778,14.778,0,0,0,.666,4.847,11.206,11.206,0,0,0,1.257,2.7H575.2a2.606,2.606,0,0,1-1.85-.777q-.815-.777-.814-3.367V28.935h-8.51v12.8a13.752,13.752,0,0,0,.851,5.143,9.731,9.731,0,0,0,2.294,3.478,8.757,8.757,0,0,0,3.4,2,13.336,13.336,0,0,0,4.107.629h52.985V35.3q0-6.51-3.59-10.471t-10.027-3.959M619.232,44.4h-6.513a7.921,7.921,0,0,1-3.4-1.11,8.242,8.242,0,0,1-2.295-2.331,7.325,7.325,0,0,1-1.035-4.181,8.109,8.109,0,0,1,.592-3.182,7.442,7.442,0,0,1,1.591-2.405,7.26,7.26,0,0,1,2.293-1.554,7.254,7.254,0,0,1,5.477-.037,5.317,5.317,0,0,1,2.959,3.256,6.715,6.715,0,0,1,.334,2.072Z" fill="#173347"/>
    <path id="Path_40496" data-name="Path 40496" d="M723.794,8.955a4.653,4.653,0,0,0-6.364,0,4.137,4.137,0,0,0-1.258,3.034,4.131,4.131,0,0,0,1.258,3.034,4.653,4.653,0,0,0,6.364,0,4.132,4.132,0,0,0,1.259-3.034,4.138,4.138,0,0,0-1.259-3.034" fill="#173347"/>
    <path id="Path_40497" data-name="Path 40497" d="M709.068,16.281a4.315,4.315,0,0,0,3.182-1.258,4.134,4.134,0,0,0,1.257-3.034,4.139,4.139,0,0,0-1.257-3.034,4.653,4.653,0,0,0-6.364,0,4.136,4.136,0,0,0-1.258,3.034,4.131,4.131,0,0,0,1.258,3.034,4.31,4.31,0,0,0,3.182,1.258" fill="#173347"/>
    <path id="Path_40498" data-name="Path 40498" d="M710.918,44.4H694.934a41.864,41.864,0,0,1-5.18-.221,25.894,25.894,0,0,0,6.363-8.288,18.078,18.078,0,0,0,1.629-6.956,5.8,5.8,0,0,0-.888-2.923,9.112,9.112,0,0,0-2.665-2.776A14.8,14.8,0,0,0,689.68,21.2a24.083,24.083,0,0,0-6.512-.776,23.583,23.583,0,0,0-4.885.517,32.2,32.2,0,0,0-4.772,1.407,31.432,31.432,0,0,0-4.4,2.071,26.926,26.926,0,0,0-3.7,2.517l.295,5.92a12.335,12.335,0,0,0,1.112,2.256q.812,1.37,1.923,2.886t2.442,3.071a36.746,36.746,0,0,0,2.664,2.813,17.453,17.453,0,0,1-2.147.369,24.64,24.64,0,0,1-2.884.148h-9.7q-3.848,0-5.218-1.923a8.227,8.227,0,0,1-1.368-4.884V23.532H644.1v27.6a13.152,13.152,0,0,1-1.11,6.067q-1.11,2.072-4.366,2.073a16.547,16.547,0,0,1-1.813-.112q-1-.109-1.887-.259l-2.072-.444L631.96,66.9a5.776,5.776,0,0,0,.925.221q.48.074,1.073.149.89.146,2.109.258t2.553.112a13.9,13.9,0,0,0,5.994-1.222,12.527,12.527,0,0,0,4.367-3.366,14.5,14.5,0,0,0,2.664-5.032,21.068,21.068,0,0,0,.887-6.216v-2a10.39,10.39,0,0,0,2.886,2.22,8.1,8.1,0,0,0,3.922.961h9.473a29.43,29.43,0,0,0,6.474-.74,21.472,21.472,0,0,0,6.105-2.368,25.527,25.527,0,0,0,5.106,2.072,28.247,28.247,0,0,0,8.287,1.036h24.569V23.532h-8.436ZM689.088,33a14.749,14.749,0,0,1-1.628,2.738,19.433,19.433,0,0,1-2.479,2.739,18.141,18.141,0,0,1-3.071,2.294,18.352,18.352,0,0,1-2.775-2.369q-1.371-1.4-2.553-2.885a33.6,33.6,0,0,1-2-2.739,15.334,15.334,0,0,1-1.11-1.924,15.1,15.1,0,0,1,4.44-1.665,23.234,23.234,0,0,1,5.18-.628q1.184,0,2.331.111a16.047,16.047,0,0,1,2.108.333,4.544,4.544,0,0,1,1.555.629,1.187,1.187,0,0,1,.592,1A5.935,5.935,0,0,1,689.088,33" fill="#173347"/>
    <path id="Path_40499" data-name="Path 40499" d="M11.922,98.36a2.072,2.072,0,1,0-1.463-.607,2,2,0,0,0,1.463.607" fill="#42848d"/>
    <path id="Path_40500" data-name="Path 40500" d="M17.906,98.36a2.072,2.072,0,1,0-1.462-.607,1.993,1.993,0,0,0,1.462.607" fill="#42848d"/>
    <path id="Path_40501" data-name="Path 40501" d="M75.732,127.16a2.072,2.072,0,1,0,1.462.607,2,2,0,0,0-1.462-.607" fill="#42848d"/>
    <path id="Path_40502" data-name="Path 40502" d="M81.717,127.16a2.072,2.072,0,1,0,1.463.607,2,2,0,0,0-1.463-.607" fill="#42848d"/>
    <path id="Path_40503" data-name="Path 40503" d="M127.031,127.16a2.072,2.072,0,1,0,1.463.607,2,2,0,0,0-1.463-.607" fill="#42848d"/>
    <path id="Path_40504" data-name="Path 40504" d="M125.547,118.385H85.541a6.409,6.409,0,0,1-2.43-.407,4.062,4.062,0,0,1-1.6-1.128,4.212,4.212,0,0,1-.855-1.694,8.467,8.467,0,0,1-.247-2.1v-8.172h-3.6v10.068a4.8,4.8,0,0,1-.562,2.506,2.35,2.35,0,0,1-2.183.926H23.307V111.75a10.134,10.134,0,0,0-.586-3.5,7.927,7.927,0,0,0-1.647-2.73,7.348,7.348,0,0,0-2.6-1.76,8.9,8.9,0,0,0-3.427-.633,8.407,8.407,0,0,0-3.678.811,8.961,8.961,0,0,0-2.91,2.2,10.494,10.494,0,0,0-1.918,3.262,11.168,11.168,0,0,0-.7,3.938,9.8,9.8,0,0,0,.518,3.127,7.385,7.385,0,0,0,1.67,2.767,8.507,8.507,0,0,0,3.023,1.981,11.985,11.985,0,0,0,4.534.765H74.337a10.521,10.521,0,0,0,1.71-.133,5.25,5.25,0,0,0,1.516-.489,4.22,4.22,0,0,0,1.3-1.044,7.44,7.44,0,0,0,1.1-1.8,4.237,4.237,0,0,0,1.985,2.667,7.04,7.04,0,0,0,3.465.8h43.74v-17.1h-3.6Zm-105.84,0H15.432a8.112,8.112,0,0,1-2.3-.316,5.426,5.426,0,0,1-1.936-1.017,4.808,4.808,0,0,1-1.349-1.829,6.708,6.708,0,0,1-.5-2.711,6.3,6.3,0,0,1,.451-2.44,5.95,5.95,0,0,1,1.214-1.874,5.291,5.291,0,0,1,1.71-1.2,4.977,4.977,0,0,1,1.981-.406,4.329,4.329,0,0,1,3.712,1.739,8.048,8.048,0,0,1,1.283,4.856Z" fill="#42848d"/>
    <path id="Path_40505" data-name="Path 40505" d="M189.986,118.385H175.9a28.274,28.274,0,0,1-3.15-.158,18.2,18.2,0,0,1-2.295-.384,29.406,29.406,0,0,0,3.127-3.159,17.535,17.535,0,0,0,1.935-2.775,10.025,10.025,0,0,0,.967-2.415,8.967,8.967,0,0,0,.271-2.076,3.033,3.033,0,0,0-.5-1.579,4.584,4.584,0,0,0-1.552-1.467,10.031,10.031,0,0,0-2.633-1.084,14.373,14.373,0,0,0-3.735-.428,14.691,14.691,0,0,0-2.9.293,20.327,20.327,0,0,0-2.857.791,17.1,17.1,0,0,0-2.611,1.173,15.075,15.075,0,0,0-2.16,1.443c.03.542.06,1.092.091,1.647s.074,1.107.135,1.648a8.78,8.78,0,0,0,.787,1.556,18.455,18.455,0,0,0,1.373,1.942q.808,1.016,1.822,2.076a25.571,25.571,0,0,0,2.092,1.963,13.258,13.258,0,0,1-2.34.722,12.868,12.868,0,0,1-2.7.271h-9.99a6.547,6.547,0,0,1-2.476-.407,4.054,4.054,0,0,1-1.6-1.128,4.189,4.189,0,0,1-.855-1.693,8.433,8.433,0,0,1-.248-2.1v-8.172h-3.6V121.76a9.2,9.2,0,0,1-.922,4.635q-.923,1.529-3.533,1.53c-.269,0-.57-.008-.9-.022a6.264,6.264,0,0,1-.945-.114l-1.035-.179-.4,3.554c.33.061.787.12,1.373.181a18.8,18.8,0,0,0,1.912.09,7.919,7.919,0,0,0,3.446-.72,7.25,7.25,0,0,0,2.536-1.98,8.708,8.708,0,0,0,1.549-2.948,12.167,12.167,0,0,0,.524-3.623v-3.38a4.579,4.579,0,0,0,.968,1.712,4.315,4.315,0,0,0,1.327.978,4.838,4.838,0,0,0,1.485.422,13.3,13.3,0,0,0,1.53.089h9.856a17.056,17.056,0,0,0,4.117-.518,14.476,14.476,0,0,0,4.027-1.687,17.731,17.731,0,0,0,3.262,1.462,16.166,16.166,0,0,0,5.333.743h17.775V89.72h-3.6Zm-22.5-2.205a16.038,16.038,0,0,1-2.2-1.8,28.231,28.231,0,0,1-2.07-2.2,24.6,24.6,0,0,1-1.62-2.138,6.768,6.768,0,0,1-.855-1.6,7.335,7.335,0,0,1,1.508-.856,15.176,15.176,0,0,1,1.957-.7,20.345,20.345,0,0,1,2.093-.473,11.806,11.806,0,0,1,1.958-.179,12.717,12.717,0,0,1,1.822.134,8.474,8.474,0,0,1,1.665.406,3.46,3.46,0,0,1,1.215.719,1.4,1.4,0,0,1,.472,1.036,4.482,4.482,0,0,1-.45,1.777,10.348,10.348,0,0,1-1.26,2.07,17.117,17.117,0,0,1-1.89,2.071,12.426,12.426,0,0,1-2.34,1.732" fill="#42848d"/>
    <rect id="Rectangle_21055" data-name="Rectangle 21055" width="3.465" height="32.265" transform="translate(200.742 89.72)" fill="#42848d"/>
    <path id="Path_40506" data-name="Path 40506" d="M225.582,98.36a2.072,2.072,0,1,0-1.463-.607,2,2,0,0,0,1.463.607" fill="#42848d"/>
    <path id="Path_40507" data-name="Path 40507" d="M231.566,98.36a2.072,2.072,0,1,0-1.462-.607,1.993,1.993,0,0,0,1.462.607" fill="#42848d"/>
    <path id="Path_40508" data-name="Path 40508" d="M296.457,98.36a2.072,2.072,0,1,0-1.463-.607,2,2,0,0,0,1.463.607" fill="#42848d"/>
    <path id="Path_40509" data-name="Path 40509" d="M356.576,118.385H344.967a6.423,6.423,0,0,1-2.43-.406,4.054,4.054,0,0,1-1.6-1.126,4.187,4.187,0,0,1-.855-1.691,8.439,8.439,0,0,1-.248-2.1V89.72h-3.6v25.239a4.791,4.791,0,0,1-.562,2.5,2.351,2.351,0,0,1-2.182.924h-28.62a28.274,28.274,0,0,1-3.15-.158,18.237,18.237,0,0,1-2.295-.384,29.422,29.422,0,0,0,3.128-3.159,17.523,17.523,0,0,0,1.934-2.775,10.031,10.031,0,0,0,.968-2.415,8.963,8.963,0,0,0,.27-2.076,3.041,3.041,0,0,0-.495-1.579,4.6,4.6,0,0,0-1.552-1.467,10.045,10.045,0,0,0-2.633-1.084,14.378,14.378,0,0,0-3.735-.428,14.7,14.7,0,0,0-2.9.293,20.326,20.326,0,0,0-2.857.791,17.144,17.144,0,0,0-2.611,1.173,15.129,15.129,0,0,0-2.16,1.443c.03.542.061,1.092.091,1.647s.074,1.107.135,1.648a8.728,8.728,0,0,0,.788,1.556,18.439,18.439,0,0,0,1.372,1.942q.81,1.016,1.822,2.076a25.414,25.414,0,0,0,2.093,1.963,13.285,13.285,0,0,1-2.34.722,12.871,12.871,0,0,1-2.7.271H236.967V111.75a10.134,10.134,0,0,0-.586-3.5,7.927,7.927,0,0,0-1.647-2.73,7.353,7.353,0,0,0-2.595-1.76,8.9,8.9,0,0,0-3.428-.633,8.407,8.407,0,0,0-3.678.811,8.972,8.972,0,0,0-2.91,2.2,10.519,10.519,0,0,0-1.918,3.263,11.159,11.159,0,0,0-.7,3.937,9.832,9.832,0,0,0,.518,3.127,7.4,7.4,0,0,0,1.67,2.768,8.519,8.519,0,0,0,3.023,1.98,11.989,11.989,0,0,0,4.534.765h58.79a17.049,17.049,0,0,0,4.117-.518,14.47,14.47,0,0,0,4.028-1.687,17.731,17.731,0,0,0,3.262,1.462,16.155,16.155,0,0,0,5.332.743h28.981a10.521,10.521,0,0,0,1.71-.133,5.24,5.24,0,0,0,1.516-.489,4.246,4.246,0,0,0,1.3-1.044,7.471,7.471,0,0,0,1.094-1.8,4.231,4.231,0,0,0,1.986,2.667,7.032,7.032,0,0,0,3.465.8h15.344V89.72h-3.6Zm-123.209,0h-4.275a8.117,8.117,0,0,1-2.295-.316,5.434,5.434,0,0,1-1.936-1.017,4.808,4.808,0,0,1-1.349-1.829,6.725,6.725,0,0,1-.495-2.711,6.3,6.3,0,0,1,.45-2.439,5.93,5.93,0,0,1,1.215-1.874,5.257,5.257,0,0,1,1.71-1.2,4.972,4.972,0,0,1,1.98-.406,4.329,4.329,0,0,1,3.712,1.739,8.048,8.048,0,0,1,1.283,4.856Zm63.09-2.205a15.977,15.977,0,0,1-2.2-1.8,28.231,28.231,0,0,1-2.07-2.2,24.392,24.392,0,0,1-1.62-2.138,6.729,6.729,0,0,1-.855-1.6,7.308,7.308,0,0,1,1.508-.856,15.07,15.07,0,0,1,1.957-.7,20.266,20.266,0,0,1,2.092-.473,11.815,11.815,0,0,1,1.958-.179,12.721,12.721,0,0,1,1.823.134,8.464,8.464,0,0,1,1.664.406,3.442,3.442,0,0,1,1.215.719,1.4,1.4,0,0,1,.472,1.036,4.5,4.5,0,0,1-.449,1.777,10.4,10.4,0,0,1-1.26,2.07,17.2,17.2,0,0,1-1.89,2.071,12.459,12.459,0,0,1-2.34,1.732" fill="#42848d"/>
    <rect id="Rectangle_21056" data-name="Rectangle 21056" width="3.465" height="32.265" transform="translate(367.332 89.72)" fill="#42848d"/>
    <path id="Path_40510" data-name="Path 40510" d="M498.1,116.7a7.384,7.384,0,0,1-.922-1.778,10.84,10.84,0,0,1-.5-1.935q-.158-.989-.292-1.98a13.862,13.862,0,0,0-.7-3.217,7.928,7.928,0,0,0-1.417-2.52,6.125,6.125,0,0,0-2.25-1.643,7.873,7.873,0,0,0-3.15-.585,14.374,14.374,0,0,0-3.623.473q-1.822.473-3.038.833.225.9.473,1.665t.473,1.755a12.49,12.49,0,0,1,2.519-.788,11.559,11.559,0,0,1,2.16-.248q4.23,0,4.9,5.241a14.873,14.873,0,0,0,.9,3.253,10.324,10.324,0,0,0,1.981,3.162H431.363a1.782,1.782,0,0,0-.4-.045H429.88a5.943,5.943,0,0,1-2.767-.54,4.253,4.253,0,0,1-1.529-1.283,4.044,4.044,0,0,1-.676-1.576,7.534,7.534,0,0,1-.156-1.372q0-4.9-2.25-7.6a7.8,7.8,0,0,0-6.346-2.7,8.823,8.823,0,0,0-3.577.719,8.109,8.109,0,0,0-2.813,2.026,9.725,9.725,0,0,0-1.844,3.082,10.707,10.707,0,0,0-.676,3.847,9.138,9.138,0,0,1-.338,2.723,4.342,4.342,0,0,1-.877,1.643,2.883,2.883,0,0,1-1.215.809,4.359,4.359,0,0,1-1.394.226h-1.17a1.368,1.368,0,0,0-.3.045H385.781a.929.929,0,0,0-1.035,1.066v1.734q0,.8,1.035.8h17.955a4.907,4.907,0,0,0,2.812-.945,5.357,5.357,0,0,0,2-2.835,8.236,8.236,0,0,0,3.016,3.038,8.83,8.83,0,0,0,4.32.967,15.814,15.814,0,0,0,2.092-.135,6.784,6.784,0,0,0,1.981-.585,7.394,7.394,0,0,0,1.89-1.3,11.345,11.345,0,0,0,1.823-2.295,5.247,5.247,0,0,0,.944,2,5.059,5.059,0,0,0,1.463,1.26,5.749,5.749,0,0,0,1.777.653,10.078,10.078,0,0,0,1.89.179h69.93V118.16A5.492,5.492,0,0,1,498.1,116.7m-76.95-1.53a4.963,4.963,0,0,1-.968,1.777,4.6,4.6,0,0,1-1.664,1.215,6.665,6.665,0,0,1-4.815,0,4.727,4.727,0,0,1-2.678-2.992,7.31,7.31,0,0,1-.315-2.183,7.7,7.7,0,0,1,.427-2.655,6.168,6.168,0,0,1,1.17-2,5.173,5.173,0,0,1,1.733-1.283,4.962,4.962,0,0,1,2.07-.449,4.712,4.712,0,0,1,2,.449,5.254,5.254,0,0,1,1.711,1.283,6.492,6.492,0,0,1,1.192,2,7.9,7.9,0,0,1,.135,4.838" fill="#42848d"/>
    <path id="Path_40511" data-name="Path 40511" d="M489.012,127.16a2.072,2.072,0,1,0,1.463.607,2,2,0,0,0-1.463-.607" fill="#42848d"/>
    <path id="Path_40512" data-name="Path 40512" d="M622.054,106.056a7.356,7.356,0,0,0-2.655-2.048,9.567,9.567,0,0,0-7.334-.023,8.476,8.476,0,0,0-2.836,2,9.286,9.286,0,0,0-1.868,3.06,10.9,10.9,0,0,0-.674,3.892q0,5.4-3.87,5.4h-1.17a1.378,1.378,0,0,0-.3.045H582.387a28.318,28.318,0,0,1-3.151-.158,18.247,18.247,0,0,1-2.294-.384,29.293,29.293,0,0,0,3.126-3.159A17.357,17.357,0,0,0,582,111.909a10.051,10.051,0,0,0,.968-2.414,9.023,9.023,0,0,0,.27-2.076,3.03,3.03,0,0,0-.5-1.579,4.578,4.578,0,0,0-1.553-1.467,10.01,10.01,0,0,0-2.631-1.084,14.372,14.372,0,0,0-3.736-.429,14.766,14.766,0,0,0-2.9.293,20.459,20.459,0,0,0-2.857.791,17.233,17.233,0,0,0-2.61,1.173,15.022,15.022,0,0,0-2.16,1.444c.029.542.06,1.091.09,1.647s.074,1.106.135,1.648a8.886,8.886,0,0,0,.787,1.556,18.713,18.713,0,0,0,1.373,1.942q.81,1.014,1.822,2.076a25.742,25.742,0,0,0,2.093,1.963,13.268,13.268,0,0,1-2.341.721,12.8,12.8,0,0,1-2.7.272h-56.43V89.721h-3.6v32.264h60.03a17.06,17.06,0,0,0,4.117-.517,14.449,14.449,0,0,0,4.027-1.688,17.641,17.641,0,0,0,3.263,1.463,16.187,16.187,0,0,0,5.333.742h20.34a5.683,5.683,0,0,0,3.24-.878,6.083,6.083,0,0,0,2.114-2.9,8.137,8.137,0,0,0,1.755,2.07,7.568,7.568,0,0,0,1.958,1.17,8.357,8.357,0,0,0,2.025.54,14.5,14.5,0,0,0,1.913.135,9.218,9.218,0,0,0,3.96-.765,7.3,7.3,0,0,0,2.632-2.025,7.942,7.942,0,0,0,1.462-2.857,11.981,11.981,0,0,0,.451-3.263,14.714,14.714,0,0,0-.518-4.027,8.685,8.685,0,0,0-1.575-3.127m-48.082,10.125a16.05,16.05,0,0,1-2.2-1.8,28.05,28.05,0,0,1-2.071-2.2,24.605,24.605,0,0,1-1.62-2.138,6.8,6.8,0,0,1-.854-1.6,7.318,7.318,0,0,1,1.507-.855,14.988,14.988,0,0,1,1.958-.7,20.068,20.068,0,0,1,2.092-.473,11.831,11.831,0,0,1,1.957-.18,12.591,12.591,0,0,1,1.823.135,8.557,8.557,0,0,1,1.666.4,3.471,3.471,0,0,1,1.215.72,1.4,1.4,0,0,1,.472,1.035,4.468,4.468,0,0,1-.451,1.778,10.328,10.328,0,0,1-1.26,2.07,17.181,17.181,0,0,1-1.889,2.07,12.466,12.466,0,0,1-2.34,1.733m46.575-1.013a4.994,4.994,0,0,1-.968,1.777,4.6,4.6,0,0,1-1.665,1.215,5.762,5.762,0,0,1-2.363.45,5.992,5.992,0,0,1-2.451-.45,4.591,4.591,0,0,1-1.666-1.215,4.946,4.946,0,0,1-.967-1.777,7.277,7.277,0,0,1-.316-2.183,7.679,7.679,0,0,1,.428-2.655,6.133,6.133,0,0,1,1.17-2,5.173,5.173,0,0,1,1.733-1.283,4.957,4.957,0,0,1,2.069-.449,4.62,4.62,0,0,1,1.958.449,5.24,5.24,0,0,1,1.71,1.283,6.494,6.494,0,0,1,1.193,2,7.922,7.922,0,0,1,.135,4.838" fill="#42848d"/>
    <path id="Path_40513" data-name="Path 40513" d="M652.137,102.86a2.072,2.072,0,1,0-1.463-.607,2,2,0,0,0,1.463.607" fill="#42848d"/>
    <path id="Path_40514" data-name="Path 40514" d="M723.709,109.183a8.684,8.684,0,0,0-1.575-3.127,7.355,7.355,0,0,0-2.655-2.048,9.567,9.567,0,0,0-7.334-.023,8.476,8.476,0,0,0-2.836,2,9.286,9.286,0,0,0-1.868,3.06,10.9,10.9,0,0,0-.674,3.892q0,5.4-3.87,5.4h-1.17a1.378,1.378,0,0,0-.3.045H668.291a11.54,11.54,0,0,1-2.092-.158,3.9,3.9,0,0,1-1.395-.518,2.73,2.73,0,0,1-.923-1.012,7.385,7.385,0,0,1-.629-1.687q-.316-1.17-.811-2.566t-1.214-2.924q-.9.495-1.643.945t-1.732.989a18.968,18.968,0,0,1,1.822,4.343,16.109,16.109,0,0,1,.652,4.343,8.872,8.872,0,0,1-.562,3.127,7.5,7.5,0,0,1-1.688,2.655,8.035,8.035,0,0,1-2.835,1.822,10.733,10.733,0,0,1-3.96.675,11.37,11.37,0,0,1-4.342-.72,7.79,7.79,0,0,1-2.791-1.867,6.6,6.6,0,0,1-1.484-2.52,8.982,8.982,0,0,1-.428-2.677,12.488,12.488,0,0,1,.406-3.083,11.411,11.411,0,0,1,1.259-3.037l-2.969-1.71a13.811,13.811,0,0,0-1.756,3.734,14.014,14.014,0,0,0-.629,4.1,14.384,14.384,0,0,0,.584,4,9.627,9.627,0,0,0,2.025,3.679A10.354,10.354,0,0,0,645,131a17.059,17.059,0,0,0,10.418.394,11.372,11.372,0,0,0,6.975-5.727,14.634,14.634,0,0,0,1.529-5.547,3.155,3.155,0,0,0,1.868,1.512,8.687,8.687,0,0,0,2.5.355h34.426a5.683,5.683,0,0,0,3.24-.878,6.082,6.082,0,0,0,2.114-2.9,8.138,8.138,0,0,0,1.755,2.07,7.567,7.567,0,0,0,1.958,1.17,8.355,8.355,0,0,0,2.025.54,14.5,14.5,0,0,0,1.913.135,9.219,9.219,0,0,0,3.96-.765,7.3,7.3,0,0,0,2.632-2.025,7.943,7.943,0,0,0,1.462-2.857,11.981,11.981,0,0,0,.451-3.263,14.712,14.712,0,0,0-.518-4.027m-3.082,5.985a4.994,4.994,0,0,1-.968,1.777,4.6,4.6,0,0,1-1.665,1.215,5.762,5.762,0,0,1-2.363.45,5.992,5.992,0,0,1-2.451-.45,4.592,4.592,0,0,1-1.666-1.215,4.946,4.946,0,0,1-.967-1.777,7.277,7.277,0,0,1-.316-2.183,7.678,7.678,0,0,1,.428-2.655,6.133,6.133,0,0,1,1.17-2,5.173,5.173,0,0,1,1.733-1.283,4.957,4.957,0,0,1,2.069-.449,4.62,4.62,0,0,1,1.958.449,5.24,5.24,0,0,1,1.71,1.283,6.5,6.5,0,0,1,1.193,2,7.924,7.924,0,0,1,.135,4.838" fill="#42848d"/>
  </g>
</svg>
