<svg id="Component_379_1" data-name="Component 379 – 1" xmlns="http://www.w3.org/2000/svg" width="62.106" height="58.573" viewBox="0 0 62.106 58.573">
  <path id="Ellipse_79" data-name="Ellipse 79" d="M28.787-.5A29.287,29.287,0,0,1,49.5,49.5,29.287,29.287,0,0,1,8.078,8.078,29.1,29.1,0,0,1,28.787-.5Zm0,56.233A26.946,26.946,0,1,0,1.841,28.787,26.976,26.976,0,0,0,28.787,55.733Z" transform="translate(0.5 0.5)" fill="#219f8a"/>
  <path id="Path_34752" data-name="Path 34752" d="M180.256,108.407l-12.112-21.53a7.022,7.022,0,1,1,12.24-6.886l3.173,5.64L205.884,63.96a7.022,7.022,0,1,1,9.782,10.078Z" transform="translate(-155.691 -60.031)" fill="#219f8a"/>
</svg>
