<!--?xml version="1.0" encoding="UTF-8"?-->
<svg id="Layer_1" class="active" data-name="Layer 1" xmlns="http://www.w3.org/2000/svg" viewBox="0 0 236.37 293.42" width="236.3699951171875" height="293.4200134277344">
  <style type="text/css">
	.st0{fill:#FFFFFF;stroke:#B5B5B5;stroke-width:0.75;stroke-miterlimit:10;}

  @keyframes draw1 {
    0% {
        stroke-dashoffset: 507px;
        fill: transparent;

    }
    25% {
        stroke-dashoffset: 400px;
        fill: transparent;

    }
    100% {
        stroke-dashoffset: 0;
        fill: fill: rgb(28, 39, 76);;
    }
}

  svg .svg-elem-1 {
  stroke-dashoffset: 686.6426391601562px;
  stroke-dasharray: 686.6426391601562px;
  fill: transparent;
  -webkit-transition: stroke-dashoffset 1s cubic-bezier(0.47, 0, 0.745, 0.715) 0s,
                        fill 0.7s cubic-bezier(0.47, 0, 0.745, 0.715) 0.8s;
          transition: stroke-dashoffset 1s cubic-bezier(0.47, 0, 0.745, 0.715) 0s,
                fill 0.7s cubic-bezier(0.47, 0, 0.745, 0.715) 0.8s;
                animation: draw1 3000ms ease-in-out;
}
svg.active .svg-elem-1 {
  stroke-dashoffset: 0;
  fill: rgb(242, 242, 243);
}
svg .svg-elem-2 {
  stroke-dashoffset: 113.9403305053711px;
  stroke-dasharray: 113.9403305053711px;
  fill: transparent;
  -webkit-transition: stroke-dashoffset 1s cubic-bezier(0.47, 0, 0.745, 0.715) 0.12s,
                        fill 0.7s cubic-bezier(0.47, 0, 0.745, 0.715) 0.9s;
          transition: stroke-dashoffset 1s cubic-bezier(0.47, 0, 0.745, 0.715) 0.12s,
                fill 0.7s cubic-bezier(0.47, 0, 0.745, 0.715) 0.9s;
                animation: draw1 3000ms ease-in-out;

}
svg.active .svg-elem-2 {
  stroke-dashoffset: 0;
  fill: rgb(40, 116, 119);
}
svg .svg-elem-3 {
  stroke-dashoffset: 113.9403305053711px;
  stroke-dasharray: 113.9403305053711px;
  -webkit-transition: stroke-dashoffset 1s cubic-bezier(0.47, 0, 0.745, 0.715) 0.24s,
                        fill 0.7s cubic-bezier(0.47, 0, 0.745, 0.715) 1s;
          transition: stroke-dashoffset 1s cubic-bezier(0.47, 0, 0.745, 0.715) 0.24s,
                fill 0.7s cubic-bezier(0.47, 0, 0.745, 0.715) 1s;
                animation: draw1 3000ms ease-in-out;

}
svg.active .svg-elem-3 {
  stroke-dashoffset: 0;
}
svg .svg-elem-4 {
  stroke-dashoffset: 55.28022003173828px;
  stroke-dasharray: 55.28022003173828px;
  fill: transparent;
  -webkit-transition: stroke-dashoffset 1s cubic-bezier(0.47, 0, 0.745, 0.715) 0.36s,
                        fill 0.7s cubic-bezier(0.47, 0, 0.745, 0.715) 1.1s;
          transition: stroke-dashoffset 1s cubic-bezier(0.47, 0, 0.745, 0.715) 0.36s,
                fill 0.7s cubic-bezier(0.47, 0, 0.745, 0.715) 1.1s;
                animation: draw1 3000ms ease-in-out;
}
svg.active .svg-elem-4 {
  stroke-dashoffset: 0;
  fill: rgb(40, 116, 119);
}
svg .svg-elem-5 {
  stroke-dashoffset: 55.28022003173828px;
  stroke-dasharray: 55.28022003173828px;
  -webkit-transition: stroke-dashoffset 1s cubic-bezier(0.47, 0, 0.745, 0.715) 0.48s,
                        fill 0.7s cubic-bezier(0.47, 0, 0.745, 0.715) 1.2000000000000002s;
          transition: stroke-dashoffset 1s cubic-bezier(0.47, 0, 0.745, 0.715) 0.48s,
                fill 0.7s cubic-bezier(0.47, 0, 0.745, 0.715) 1.2000000000000002s;
                animation: draw1 3000ms ease-in-out;
}
svg.active .svg-elem-5 {
  stroke-dashoffset: 0;
}
svg .svg-elem-6 {
  stroke-dashoffset: 923.9977416992188px;
  stroke-dasharray: 923.9977416992188px;
  fill: transparent;
  -webkit-transition: stroke-dashoffset 1s cubic-bezier(0.47, 0, 0.745, 0.715) 0.6s,
                        fill 0.7s cubic-bezier(0.47, 0, 0.745, 0.715) 1.3s;
          transition: stroke-dashoffset 1s cubic-bezier(0.47, 0, 0.745, 0.715) 0.6s,
                fill 0.7s cubic-bezier(0.47, 0, 0.745, 0.715) 1.3s;
                animation: draw1 3000ms ease-in-out;
}
svg.active .svg-elem-6 {
  stroke-dashoffset: 0;
  fill: rgb(38, 154, 149);
}
svg .svg-elem-7 {
  stroke-dashoffset: 923.9977416992188px;
  stroke-dasharray: 923.9977416992188px;
  -webkit-transition: stroke-dashoffset 1s cubic-bezier(0.47, 0, 0.745, 0.715) 0.72s,
                        fill 0.7s cubic-bezier(0.47, 0, 0.745, 0.715) 1.4000000000000001s;
          transition: stroke-dashoffset 1s cubic-bezier(0.47, 0, 0.745, 0.715) 0.72s,
                fill 0.7s cubic-bezier(0.47, 0, 0.745, 0.715) 1.4000000000000001s;
                animation: draw1 3000ms ease-in-out;
}
svg.active .svg-elem-7 {
  stroke-dashoffset: 0;
}
svg .svg-elem-8 {
  stroke-dashoffset: 552.9254150390625px;
  stroke-dasharray: 552.9254150390625px;
  fill: transparent;
  -webkit-transition: stroke-dashoffset 1s cubic-bezier(0.47, 0, 0.745, 0.715) 0.84s,
                        fill 0.7s cubic-bezier(0.47, 0, 0.745, 0.715) 1.5s;
          transition: stroke-dashoffset 1s cubic-bezier(0.47, 0, 0.745, 0.715) 0.84s,
                fill 0.7s cubic-bezier(0.47, 0, 0.745, 0.715) 1.5s;
                animation: draw1 3000ms ease-in-out;
}
svg.active .svg-elem-8 {
  stroke-dashoffset: 0;
  fill: rgb(40, 116, 119);
}
svg .svg-elem-9 {
  stroke-dashoffset: 552.9254150390625px;
  stroke-dasharray: 552.9254150390625px;
  -webkit-transition: stroke-dashoffset 1s cubic-bezier(0.47, 0, 0.745, 0.715) 0.96s,
                        fill 0.7s cubic-bezier(0.47, 0, 0.745, 0.715) 1.6s;
          transition: stroke-dashoffset 1s cubic-bezier(0.47, 0, 0.745, 0.715) 0.96s,
                fill 0.7s cubic-bezier(0.47, 0, 0.745, 0.715) 1.6s;
                animation: draw1 3000ms ease-in-out;
}
svg.active .svg-elem-9 {
  stroke-dashoffset: 0;
}
svg .svg-elem-10 {
  stroke-dashoffset: 510.6385498046875px;
  stroke-dasharray: 510.6385498046875px;
  fill: transparent;
  -webkit-transition: stroke-dashoffset 1s cubic-bezier(0.47, 0, 0.745, 0.715) 1.08s,
                        fill 0.7s cubic-bezier(0.47, 0, 0.745, 0.715) 1.7000000000000002s;
          transition: stroke-dashoffset 1s cubic-bezier(0.47, 0, 0.745, 0.715) 1.08s,
                fill 0.7s cubic-bezier(0.47, 0, 0.745, 0.715) 1.7000000000000002s;
                animation: draw1 3000ms ease-in-out;
}
svg.active .svg-elem-10 {
  stroke-dashoffset: 0;
  fill: rgb(22, 68, 79);
}
svg .svg-elem-11 {
  stroke-dashoffset: 510.6385498046875px;
  stroke-dasharray: 510.6385498046875px;
  -webkit-transition: stroke-dashoffset 1s cubic-bezier(0.47, 0, 0.745, 0.715) 1.2s,
                        fill 0.7s cubic-bezier(0.47, 0, 0.745, 0.715) 1.8s;
          transition: stroke-dashoffset 1s cubic-bezier(0.47, 0, 0.745, 0.715) 1.2s,
                fill 0.7s cubic-bezier(0.47, 0, 0.745, 0.715) 1.8s;
                animation: draw1 3000ms ease-in-out;
}
svg.active .svg-elem-11 {
  stroke-dashoffset: 0;
}
svg .svg-elem-12 {
  stroke-dashoffset: 86.47368621826172px;
  stroke-dasharray: 86.47368621826172px;
  fill: transparent;
  -webkit-transition: stroke-dashoffset 1s cubic-bezier(0.47, 0, 0.745, 0.715) 1.3199999999999998s,
                        fill 0.7s cubic-bezier(0.47, 0, 0.745, 0.715) 1.9000000000000001s;
          transition: stroke-dashoffset 1s cubic-bezier(0.47, 0, 0.745, 0.715) 1.3199999999999998s,
                fill 0.7s cubic-bezier(0.47, 0, 0.745, 0.715) 1.9000000000000001s;
                animation: draw1 3000ms ease-in-out;
}
svg.active .svg-elem-12 {
  stroke-dashoffset: 0;
  fill: rgb(40, 116, 119);
}
svg .svg-elem-13 {
  stroke-dashoffset: 86.47368621826172px;
  stroke-dasharray: 86.47368621826172px;
  -webkit-transition: stroke-dashoffset 1s cubic-bezier(0.47, 0, 0.745, 0.715) 1.44s,
                        fill 0.7s cubic-bezier(0.47, 0, 0.745, 0.715) 2s;
          transition: stroke-dashoffset 1s cubic-bezier(0.47, 0, 0.745, 0.715) 1.44s,
                fill 0.7s cubic-bezier(0.47, 0, 0.745, 0.715) 2s;
                animation: draw1 3000ms ease-in-out;
}
svg.active .svg-elem-13 {
  stroke-dashoffset: 0;
}
svg .svg-elem-14 {
  stroke-dashoffset: 86.45817565917969px;
  stroke-dasharray: 86.45817565917969px;
  fill: transparent;
  -webkit-transition: stroke-dashoffset 1s cubic-bezier(0.47, 0, 0.745, 0.715) 1.56s,
                        fill 0.7s cubic-bezier(0.47, 0, 0.745, 0.715) 2.1s;
          transition: stroke-dashoffset 1s cubic-bezier(0.47, 0, 0.745, 0.715) 1.56s,
                fill 0.7s cubic-bezier(0.47, 0, 0.745, 0.715) 2.1s;
                animation: draw1 3000ms ease-in-out;
}
svg.active .svg-elem-14 {
  stroke-dashoffset: 0;
  fill: rgb(38, 154, 149);
}
svg .svg-elem-15 {
  stroke-dashoffset: 86.45817565917969px;
  stroke-dasharray: 86.45817565917969px;
  -webkit-transition: stroke-dashoffset 1s cubic-bezier(0.47, 0, 0.745, 0.715) 1.68s,
                        fill 0.7s cubic-bezier(0.47, 0, 0.745, 0.715) 2.2s;
          transition: stroke-dashoffset 1s cubic-bezier(0.47, 0, 0.745, 0.715) 1.68s,
                fill 0.7s cubic-bezier(0.47, 0, 0.745, 0.715) 2.2s;
                animation: draw1 3000ms ease-in-out;
}
svg.active .svg-elem-15 {
  stroke-dashoffset: 0;
}
svg .svg-elem-16 {
  stroke-dashoffset: 79.18727111816406px;
  stroke-dasharray: 79.18727111816406px;
  fill: transparent;
  -webkit-transition: stroke-dashoffset 1s cubic-bezier(0.47, 0, 0.745, 0.715) 1.7999999999999998s,
                        fill 0.7s cubic-bezier(0.47, 0, 0.745, 0.715) 2.3s;
          transition: stroke-dashoffset 1s cubic-bezier(0.47, 0, 0.745, 0.715) 1.7999999999999998s,
                fill 0.7s cubic-bezier(0.47, 0, 0.745, 0.715) 2.3s;
                animation: draw1 3000ms ease-in-out;

}
svg.active .svg-elem-16 {
  stroke-dashoffset: 0;
  fill: rgb(38, 154, 149);
}
svg .svg-elem-17 {
  stroke-dashoffset: 79.18727111816406px;
  stroke-dasharray: 79.18727111816406px;
  -webkit-transition: stroke-dashoffset 1s cubic-bezier(0.47, 0, 0.745, 0.715) 1.92s,
                        fill 0.7s cubic-bezier(0.47, 0, 0.745, 0.715) 2.4000000000000004s;
          transition: stroke-dashoffset 1s cubic-bezier(0.47, 0, 0.745, 0.715) 1.92s,
                fill 0.7s cubic-bezier(0.47, 0, 0.745, 0.715) 2.4000000000000004s;
                animation: draw1 3000ms ease-in-out;
}
svg.active .svg-elem-17 {
  stroke-dashoffset: 0;
}
</style>

  <g id="Group_27965" data-name="Group 27965">
  <path d="m106.93,293.19c-1.73-30.69-20.38-58.65-39.51-81.52-16.93-20.23-36.35-38.46-56.95-54.9-2.58-2.06-5.25-4.01-7.82-6.08-.39-.31-1.96-1.09-2.11-1.56-.71-2.36,8.13-10.08,9.99-12.16,15.96-17.83,31.65-35.89,47.09-54.17,8.06-9.59,16.43-19.11,24.4-28.91,6.26-7.68,12.27-15.53,17.71-23.69,0,0,20.07,20.03,20.06,20.03l4.47,4.23,89.76,84.87s-97.74,125.69-106.37,153.95" style="fill: rgb(242, 242, 243); stroke: rgb(232, 232, 232); stroke-miterlimit: 10;" class="svg-elem-1"></path>
    <path id="Path_34780" data-name="Path 34780" d="m114.35,185.95c.32.45.32,1.45,0,3-.26,1.55-.68,2.32-1.26,2.32-.31-.57-.68-1.11-1.11-1.6-.55-.91-1.5-1.51-2.56-1.6-1.87,0-3.21,3.47-4.01,10.4-.8,6.93-1.5,10.37-2.08,10.31-.84-.07-1.71-1.58-2.61-4.55-.88-3.44-2.72-6.57-5.31-9-.18.32-.41.62-.68.87-.39.07-1.48-.38-3.28-1.35s-2.77-1.84-2.9-2.61c-.32-3.61.36-5.42,2.03-5.42,3.22-.13,6.6,3.22,10.14,10.07.52,1.74,1.2,3.42,2.03,5.03.51-3.29,1.06-6.58,1.64-9.87,1.03-6.07,2.7-9.07,5.02-9,1.74.07,3.38,1.07,4.93,3" style="fill: rgb(40, 116, 119); stroke-width: 0px;" class="svg-elem-2"></path>
    <path id="Path_34781" data-name="Path 34781" d="m114.35,185.95c.32.45.32,1.45,0,3-.26,1.55-.68,2.32-1.26,2.32-.31-.57-.68-1.11-1.11-1.6-.55-.91-1.5-1.51-2.56-1.6-1.87,0-3.21,3.47-4.01,10.4-.8,6.93-1.5,10.37-2.08,10.31-.84-.07-1.71-1.58-2.61-4.55-.88-3.44-2.72-6.57-5.31-9-.18.32-.41.62-.68.87-.39.07-1.48-.38-3.28-1.35s-2.77-1.84-2.9-2.61c-.32-3.61.36-5.42,2.03-5.42,3.22-.13,6.6,3.22,10.14,10.07.52,1.74,1.2,3.42,2.03,5.03.51-3.29,1.06-6.58,1.64-9.87,1.03-6.07,2.7-9.07,5.02-9,1.74.07,3.38,1.07,4.93,3" style="fill: none; stroke: rgb(37, 154, 149); stroke-miterlimit: 10; stroke-width: 0.5px;" class="svg-elem-3"></path>
    <path id="Path_34782" data-name="Path 34782" d="m95.18,154.48c-.78-.99-1.36-2.11-1.71-3.32-.71-2.91.85-5.46,3.3-6.95.03-.02-.01-.17-.04-.39-.98.43-1.94.91-2.86,1.45-1,.71-1.89,1.57-2.64,2.54-2.26,3.15-3.19,7.06-2.58,10.89.19,1.8.95,3.49,2.17,4.82,1.27,1.33,3.22,1.76,4.93,1.09,2.07-.97,2.74-3.77,2.01-5.94-.64-1.52-1.51-2.94-2.57-4.2" style="fill: rgb(40, 116, 119); stroke-width: 0px;" class="svg-elem-4"></path>
    <path id="Path_34783" data-name="Path 34783" d="m95.18,154.48c-.78-.99-1.36-2.11-1.71-3.32-.71-2.91.85-5.46,3.3-6.95.03-.02-.01-.17-.04-.39-.98.43-1.94.91-2.86,1.45-1,.71-1.89,1.57-2.64,2.54-2.26,3.15-3.19,7.06-2.58,10.89.19,1.8.95,3.49,2.17,4.82,1.27,1.33,3.22,1.76,4.93,1.09,2.07-.97,2.74-3.77,2.01-5.94-.64-1.52-1.51-2.94-2.57-4.2" style="fill: none; stroke: rgb(37, 154, 149); stroke-miterlimit: 10; stroke-width: 0.5px;" class="svg-elem-5"></path>
    <path id="Path_34784" data-name="Path 34784" d="m223,132.48c-5.24,0-42.31,14.03-60.22,21.31-1.22.41-3.57,1.32-3.88,1.32-2.99-6.43-6.91-12.38-11.62-17.68-4.9-5.28-9.46-7.92-13.67-7.93-5.57,0-10.87,2.99-15.9,8.96-5.23,6.19-8.06,14.06-7.95,22.17,0,11,8.01,16.5,24.04,16.49,7.48,0,13.25-.69,17.32-2.07.79,2.15,1.2,4.42,1.22,6.71,0,2.99-4.74,9.02-14.23,18.1-9.98,9.7-21.04,18.23-32.95,25.43-14.09,8.54-26.16,12.81-36.2,12.81-11.52,0-19.86-3.52-25.01-10.57-3.6-5.26-5.45-11.51-5.28-17.88,0-7.57,2.09-18.68,6.28-33.33.46-1.52.73-3.09.81-4.68,0-.53-.13-.87-.41-1.01-.53,0-1.48,1.63-2.84,4.88-5.96,14.78-8.94,29.22-8.95,43.31,0,10.98,2.71,20.06,8.13,27.25,6.12,8.27,14.73,12.4,25.83,12.4,13.29,0,28.82-6.71,46.58-20.14,12.12-9.25,23.23-19.75,33.16-31.32,4.67-5.61,8.13-12.12,10.16-19.13,1.91-5.82,2.86-10.7,2.86-14.65l29.34-12.04c12.62-5.01,21.68-7.52,27.18-7.54,3.27,0,5.61.79,7.02,2.34-15.53,16.28-25.12,30.45-28.78,42.52-1.49,5.01-2.23,8.16-2.23,9.46,0,.41.1.65.3.71.68,0,2.84-3.39,6.51-10.16,2.1-3.94,5.96-9.26,11.59-15.97,7.4-8.81,11.74-14.07,13.02-15.77,2.51-3.31,4.98-6.6,7.42-9.86,2.86-4.39,4.41-9.5,4.47-14.74,0-6.44-4.37-9.66-13.12-9.67m-90.59,25.89c-8.28,0-12.42-1.95-12.42-5.85,0-3.09,2.99-4.64,8.96-4.64,4.07,0,8.48,3.1,13.24,9.29-3.2.77-6.49,1.17-9.78,1.21" style="fill: rgb(38, 154, 149); stroke-width: 0px;" class="svg-elem-6"></path>
    <path id="Path_34785" data-name="Path 34785" d="m223,132.48c-5.24,0-42.31,14.03-60.22,21.31-1.22.41-3.57,1.32-3.88,1.32-2.99-6.43-6.91-12.38-11.62-17.68-4.9-5.28-9.46-7.92-13.67-7.93-5.57,0-10.87,2.99-15.9,8.96-5.23,6.19-8.06,14.06-7.95,22.17,0,11,8.01,16.5,24.04,16.49,7.48,0,13.25-.69,17.32-2.07.79,2.15,1.2,4.42,1.22,6.71,0,2.99-4.74,9.02-14.23,18.1-9.98,9.7-21.04,18.23-32.95,25.43-14.09,8.54-26.16,12.81-36.2,12.81-11.52,0-19.86-3.52-25.01-10.57-3.6-5.26-5.45-11.51-5.28-17.88,0-7.57,2.09-18.68,6.28-33.33.46-1.52.73-3.09.81-4.68,0-.53-.13-.87-.41-1.01-.53,0-1.48,1.63-2.84,4.88-5.96,14.78-8.94,29.22-8.95,43.31,0,10.98,2.71,20.06,8.13,27.25,6.12,8.27,14.73,12.4,25.83,12.4,13.29,0,28.82-6.71,46.58-20.14,12.12-9.25,23.23-19.75,33.16-31.32,4.67-5.61,8.13-12.12,10.16-19.13,1.91-5.82,2.86-10.7,2.86-14.65l29.34-12.04c12.62-5.01,21.68-7.52,27.18-7.54,3.27,0,5.61.79,7.02,2.34-15.53,16.28-25.12,30.45-28.78,42.52-1.49,5.01-2.23,8.16-2.23,9.46,0,.41.1.65.3.71.68,0,2.84-3.39,6.51-10.16,2.1-3.94,5.96-9.26,11.59-15.97,7.4-8.81,11.74-14.07,13.02-15.77,2.51-3.31,4.98-6.6,7.42-9.86,2.86-4.39,4.41-9.5,4.47-14.74,0-6.44-4.37-9.66-13.12-9.67m-90.59,25.89c-8.28,0-12.42-1.95-12.42-5.85,0-3.09,2.99-4.64,8.96-4.64,4.07,0,8.48,3.1,13.24,9.29-3.2.77-6.49,1.17-9.78,1.21" style="fill: none; stroke: rgb(37, 154, 149); stroke-miterlimit: 10; stroke-width: 0.5px;" class="svg-elem-7"></path>
    <path id="Path_34786" data-name="Path 34786" d="m51.54,164.95c-6.97,0-13.06-3.13-18.27-9.39-5.48-6.55-8.23-14.54-8.24-23.97,0-13.01,5.35-29.98,16.04-50.92,1.14-2.17,2.02-3.26,2.65-3.28.29.1.43.37.43.85,0,2.12-2.32,9.43-6.97,21.92-4.65,12.51-6.97,22.39-6.97,29.63,0,5.57,1.3,10.01,3.89,13.31,2.76,3.6,6.59,5.38,11.52,5.38,7.68,0,16.59-4.72,26.72-14.15,1.14-1.12,10.19-10.87,27.15-29.26,24.79-26.88,46.97-40.33,66.54-40.35,5.29-.11,10.44,1.72,14.47,5.14,4.02,3.42,6.03,7.41,6.03,11.96.11,5.11-.86,10.19-2.85,14.9-.71,1.57-1.2,2.34-1.49,2.33-.35.02-.95-.75-1.8-2.33-4-7.24-10.16-10.87-18.47-10.89-15,.02-32.18,9.81-51.54,29.37-10.77,11.79-21.54,23.55-32.32,35.28-9.36,9.65-18.2,14.47-26.51,14.47" style="fill: rgb(40, 116, 119); stroke-width: 0px;" class="svg-elem-8"></path>
    <path id="Path_34787" data-name="Path 34787" d="m51.54,164.95c-6.97,0-13.06-3.13-18.27-9.39-5.48-6.55-8.23-14.54-8.24-23.97,0-13.01,5.35-29.98,16.04-50.92,1.14-2.17,2.02-3.26,2.65-3.28.29.1.43.37.43.85,0,2.12-2.32,9.43-6.97,21.92-4.65,12.51-6.97,22.39-6.97,29.63,0,5.57,1.3,10.01,3.89,13.31,2.76,3.6,6.59,5.38,11.52,5.38,7.68,0,16.59-4.72,26.72-14.15,1.14-1.12,10.19-10.87,27.15-29.26,24.79-26.88,46.97-40.33,66.54-40.35,5.29-.11,10.44,1.72,14.47,5.14,4.02,3.42,6.03,7.41,6.03,11.96.11,5.11-.86,10.19-2.85,14.9-.71,1.57-1.2,2.34-1.49,2.33-.35.02-.95-.75-1.8-2.33-4-7.24-10.16-10.87-18.47-10.89-15,.02-32.18,9.81-51.54,29.37-10.77,11.79-21.54,23.55-32.32,35.28-9.36,9.65-18.2,14.47-26.51,14.47" style="fill: none; stroke: rgb(37, 154, 149); stroke-miterlimit: 10; stroke-width: 0.5px;" class="svg-elem-9"></path>
    <path id="Path_34788" data-name="Path 34788" d="m58.93,37.68c0-7.03-1.1-12.83-3.3-17.39,0-2.56,2.06-8.65,6.17-18.27.52-1.17.96-1.76,1.32-1.77.45,0,.96.63,1.54,1.87,1.17,2.5,3.89,9.4,8.15,20.7,4.48,11.75,7.09,18.98,7.82,21.68.48,1.5.78,3.05.88,4.62,0,3.25-3.12,1.31-9.36-5.83-.73-1.01-1.1-.58-1.1,1.32,0,.68,1.62,23.25,4.85,67.72,3.23,44.48,4.84,69.5,4.84,75.07,0,17.11-2.6,32.16-7.81,45.14-.78,1.95-1.66,3.87-2.64,5.73-1.02,1.76-1.64,2.02-1.87.77-.29-1.32-.19-4.1.33-8.37.71-6.8,1.04-13.64.99-20.48,0-7.03-1.8-36.02-5.39-86.96-3.59-50.94-5.39-79.46-5.4-85.54" style="fill: rgb(22, 68, 79); stroke-width: 0px;" class="svg-elem-10"></path>
    <path id="Path_34789" data-name="Path 34789" d="m58.93,37.68c0-7.03-1.1-12.83-3.3-17.39,0-2.56,2.06-8.65,6.17-18.27.52-1.17.96-1.76,1.32-1.77.45,0,.96.63,1.54,1.87,1.17,2.5,3.89,9.4,8.15,20.7,4.48,11.75,7.09,18.98,7.82,21.68.48,1.5.78,3.05.88,4.62,0,3.25-3.12,1.31-9.36-5.83-.73-1.01-1.1-.58-1.1,1.32,0,.68,1.62,23.25,4.85,67.72,3.23,44.48,4.84,69.5,4.84,75.07,0,17.11-2.6,32.16-7.81,45.14-.78,1.95-1.66,3.87-2.64,5.73-1.02,1.76-1.64,2.02-1.87.77-.29-1.32-.19-4.1.33-8.37.71-6.8,1.04-13.64.99-20.48,0-7.03-1.8-36.02-5.39-86.96-3.59-50.94-5.39-79.46-5.4-85.54" style="fill: none; stroke: rgb(37, 154, 149); stroke-miterlimit: 10; stroke-width: 0.5px;" class="svg-elem-11"></path>
    <path id="Path_34790" data-name="Path 34790" d="m100,83.55c-1.1,3.99-2.85,5.99-5.25,5.99-1.23.08-2.41-.53-3.05-1.59-1.36-2.18-2.08-4.7-2.07-7.27.09-2.55.39-5.08.92-7.58.95-4.61,2.3-9.12,4.02-13.5.73-1.83,1.32-2.75,1.77-2.75.16.04.24.22.24.55-.07.92-.27,1.83-.61,2.69-.81,2.4-1.99,6.94-3.54,13.62-.69,3.79-.53,6.62.49,8.49.48,1.2,1.64,2,2.93,2.02.72,0,1.41-.31,1.89-.86.47-.64.9-1.32,1.28-2.02.41-.73.69-1.1.85-1.1.69,0,.73,1.1.12,3.3" style="fill: rgb(40, 116, 119); stroke-width: 0px;" class="svg-elem-12"></path>
    <path id="Path_34791" data-name="Path 34791" d="m100,83.55c-1.1,3.99-2.85,5.99-5.25,5.99-1.23.08-2.41-.53-3.05-1.59-1.36-2.18-2.08-4.7-2.07-7.27.09-2.55.39-5.08.92-7.58.95-4.61,2.3-9.12,4.02-13.5.73-1.83,1.32-2.75,1.77-2.75.16.04.24.22.24.55-.07.92-.27,1.83-.61,2.69-.81,2.4-1.99,6.94-3.54,13.62-.69,3.79-.53,6.62.49,8.49.48,1.2,1.64,2,2.93,2.02.72,0,1.41-.31,1.89-.86.47-.64.9-1.32,1.28-2.02.41-.73.69-1.1.85-1.1.69,0,.73,1.1.12,3.3" style="fill: none; stroke: rgb(37, 154, 149); stroke-miterlimit: 10; stroke-width: 0.5px;" class="svg-elem-13"></path>
    <path id="Path_34792" data-name="Path 34792" d="m60.6,208.83c-1.1,3.99-2.85,5.99-5.24,5.99-1.23.08-2.41-.53-3.05-1.59-1.36-2.18-2.08-4.7-2.07-7.27.09-2.55.39-5.08.92-7.58.95-4.61,2.3-9.12,4.02-13.5.73-1.83,1.32-2.75,1.77-2.75.16.04.24.23.24.55-.07.92-.27,1.83-.61,2.69-.81,2.4-1.99,6.94-3.54,13.62-.69,3.79-.53,6.62.49,8.49.48,1.2,1.64,2,2.93,2.02.72,0,1.41-.31,1.89-.85.47-.64.9-1.32,1.28-2.02.41-.73.69-1.1.85-1.1.69,0,.73,1.1.12,3.3" style="fill: rgb(38, 154, 149); stroke-width: 0px;" class="svg-elem-14"></path>
    <path id="Path_34793" data-name="Path 34793" d="m60.6,208.83c-1.1,3.99-2.85,5.99-5.24,5.99-1.23.08-2.41-.53-3.05-1.59-1.36-2.18-2.08-4.7-2.07-7.27.09-2.55.39-5.08.92-7.58.95-4.61,2.3-9.12,4.02-13.5.73-1.83,1.32-2.75,1.77-2.75.16.04.24.23.24.55-.07.92-.27,1.83-.61,2.69-.81,2.4-1.99,6.94-3.54,13.62-.69,3.79-.53,6.62.49,8.49.48,1.2,1.64,2,2.93,2.02.72,0,1.41-.31,1.89-.85.47-.64.9-1.32,1.28-2.02.41-.73.69-1.1.85-1.1.69,0,.73,1.1.12,3.3" style="fill: none; stroke: rgb(37, 154, 149); stroke-miterlimit: 10; stroke-width: 0.5px;" class="svg-elem-15"></path>
    <path id="Path_34794" data-name="Path 34794" d="m48.37,125.42c-2.31,1.05-5.86,1.75-10.66,2.1-.39.04-.63-.04-.72-.26s.04-.41.39-.59c3.05-1.4,7.08-3.3,12.1-5.7-.74-.57-2.92-1.01-6.54-1.31-3.45-.31-5.65-.33-6.61-.07-.25.09-.53.09-.78,0-.17-.13-.13-.39.13-.79,1.39-2.09,2.92-4.08,4.58-5.96,3.49-.7,7.94-.26,13.35,1.31,1.35.39,2.03,1.16,2.03,2.29,0,1.22-.9,2.9-2.72,5.01-1.22,1.63-2.77,2.98-4.55,3.97" style="fill: rgb(38, 154, 149); stroke-width: 0px;" class="svg-elem-16"></path>
    <path id="Path_34795" data-name="Path 34795" d="m48.37,125.42c-2.31,1.05-5.86,1.75-10.66,2.1-.39.04-.63-.04-.72-.26s.04-.41.39-.59c3.05-1.4,7.08-3.3,12.1-5.7-.74-.57-2.92-1.01-6.54-1.31-3.45-.31-5.65-.33-6.61-.07-.25.09-.53.09-.78,0-.17-.13-.13-.39.13-.79,1.39-2.09,2.92-4.08,4.58-5.96,3.49-.7,7.94-.26,13.35,1.31,1.35.39,2.03,1.16,2.03,2.29,0,1.22-.9,2.9-2.72,5.01-1.22,1.63-2.77,2.98-4.55,3.97" style="fill: none; stroke: rgb(37, 154, 149); stroke-miterlimit: 10; stroke-width: 0.5px;" class="svg-elem-17"></path>
  </g>
</svg>
