<svg xmlns="http://www.w3.org/2000/svg" xmlns:xlink="http://www.w3.org/1999/xlink" width="283.125" height="343.018" viewBox="0 0 283.125 343.018">
  <defs>
    <filter id="Path_34796" x="0.501" y="0.541" width="282.07" height="342.101" filterUnits="userSpaceOnUse">
      <feOffset dy="3" input="SourceAlpha"/>
      <feGaussianBlur stdDeviation="3" result="blur"/>
      <feFlood flood-opacity="0.031"/>
      <feComposite operator="in" in2="blur"/>
      <feComposite in="SourceGraphic"/>
    </filter>
    <clipPath id="clip-path">
      <g transform="matrix(1, 0, 0, 1, 0, 0)" filter="url(#Path_34796)">
        <path id="Path_34796-2" data-name="Path 34796" d="M136.851.541.5,134.411s120.49,154.96,131.13,189.8c.2.62.86.56.9-.11,4.91-87.1,132.04-178.25,132.04-178.25L158.641,24.521Z" fill="#fff"/>
      </g>
    </clipPath>
    <filter id="Path_34797" x="0" y="0" width="283.125" height="343.018" filterUnits="userSpaceOnUse">
      <feOffset dy="3" input="SourceAlpha"/>
      <feGaussianBlur stdDeviation="3" result="blur-2"/>
      <feFlood flood-opacity="0.161"/>
      <feComposite operator="in" in2="blur-2"/>
      <feComposite in="SourceGraphic"/>
    </filter>
  </defs>
  <g id="Component_376_1" data-name="Component 376 – 1" transform="translate(9.501 6.541)">
    <g id="Group_27967" data-name="Group 27967" transform="translate(-0.501 -0.541)">
      <g id="Mask_Group_27201" data-name="Mask Group 27201" clip-path="url(#clip-path)">
        <g id="Component_360_1" transform="translate(0.502 0.709)">
          <path id="Path_34754-2" d="M136.391.5.5,133.9S120.55,288.325,131.111,323c.2.6.9.6.9-.1,4.882-86.776,131.51-177.538,131.51-177.538L158.011,24.409Z" fill="#fff" stroke="#b5b5b5" stroke-width="0.747"/>
        </g>
      </g>
      <g transform="matrix(1, 0, 0, 1, -9, -6)" filter="url(#Path_34797)">
        <path id="Path_34797-2" data-name="Path 34797" d="M136.851.541.5,134.411s120.49,154.96,131.13,189.8c.2.62.86.56.9-.11,4.91-87.1,132.04-178.25,132.04-178.25L158.641,24.521Z" transform="translate(9 6)" fill="none" stroke="#eaeaea" stroke-width="0.75"/>
      </g>
    </g>
  </g>
</svg>
