<svg xmlns="http://www.w3.org/2000/svg" width="37.281" height="37.281" viewBox="0 0 37.281 37.281">
  <g id="checkmark-badge-01-stroke-rounded" transform="translate(1.25 1.25)">
    <path id="Path_36193" data-name="Path 36193" d="M31.547,31.564h.017m-.017,0c-1.083,1.074-3.045.806-4.422.806a4.378,4.378,0,0,0-3.709,1.536c-1.027,1.027-2.4,2.875-4.027,2.875s-3-1.848-4.027-2.875a4.378,4.378,0,0,0-3.709-1.536c-1.376,0-3.339.267-4.422-.806s-.823-3.053-.823-4.438a4.494,4.494,0,0,0-1.629-3.8C2.927,21.47,2,20.542,2,19.391s.927-2.079,2.781-3.933a4.942,4.942,0,0,0,1.629-3.8c0-1.376-.267-3.339.806-4.422s3.053-.823,4.438-.823a4.942,4.942,0,0,0,3.8-1.629C17.311,2.927,18.238,2,19.391,2s2.079.927,3.933,2.781a4.942,4.942,0,0,0,3.8,1.629c1.376,0,3.339-.267,4.422.806s.823,3.053.823,4.438A4.5,4.5,0,0,0,34,15.457c1.854,1.854,2.781,2.781,2.781,3.933S35.854,21.47,34,23.324a4.494,4.494,0,0,0-1.629,3.8C32.37,28.511,32.639,30.481,31.547,31.564Z" transform="translate(-2 -2)" fill="none" stroke="#fff" stroke-width="2.5"/>
    <path id="Path_36194" data-name="Path 36194" d="M9,15.4A9.688,9.688,0,0,1,12.13,18.2s3.13-6.521,7.3-8.7" transform="translate(3.173 3.543)" fill="none" stroke="#fff" stroke-linecap="round" stroke-linejoin="round" stroke-width="2.5"/>
  </g>
</svg>
