<svg width="24" height="24" viewBox="0 0 24 24" fill="none" xmlns="http://www.w3.org/2000/svg">
<path fill-rule="evenodd" clip-rule="evenodd" d="M16.5992 5.14645C16.404 4.95118 16.0874 4.95118 15.8921 5.14645C15.6969 5.34171 15.6969 5.65829 15.8921 5.85355L17.1704 7.13187H9.16667C7.41777 7.13187 6 8.54963 6 10.2985V11.2865C6 11.5626 6.22386 11.7865 6.5 11.7865C6.77614 11.7865 7 11.5626 7 11.2865V10.2985C7 9.10192 7.97005 8.13187 9.16667 8.13187H17.1704L15.8921 9.41018C15.6969 9.60545 15.6969 9.92203 15.8921 10.1173C16.0874 10.3126 16.404 10.3126 16.5992 10.1173L18.7311 7.98542C18.9264 7.79016 18.9264 7.47358 18.7311 7.27832L16.5992 5.14645ZM8.27831 18.9492C8.47358 19.1445 8.79016 19.1445 8.98542 18.9492C9.18068 18.754 9.18068 18.4374 8.98542 18.2421L7.70711 16.9638H15.7109C17.4598 16.9638 18.8776 15.5461 18.8776 13.7972V12.8092C18.8776 12.533 18.6537 12.3092 18.3776 12.3092C18.1014 12.3092 17.8776 12.533 17.8776 12.8092V13.7972C17.8776 14.9938 16.9075 15.9638 15.7109 15.9638H7.70711L8.98542 14.6855C9.18068 14.4902 9.18068 14.1737 8.98542 13.9784C8.79016 13.7831 8.47358 13.7831 8.27831 13.9784L6.14645 16.1103C5.95118 16.3055 5.95118 16.6221 6.14645 16.8174L8.27831 18.9492Z" fill="white"/>
</svg>
