<svg width="37" height="37" viewBox="0 0 37 37" fill="none" xmlns="http://www.w3.org/2000/svg">
<path d="M12.4688 20C12.4688 19.1716 11.7972 18.5 10.9688 18.5C10.1403 18.5 9.46875 19.1716 9.46875 20H12.4688ZM12.4688 29V20H9.46875V29H12.4688Z" fill="white"/>
<path d="M28.4688 7C28.4688 6.17157 27.7972 5.5 26.9688 5.5C26.1403 5.5 25.4688 6.17157 25.4688 7H28.4688ZM28.4688 29V7H25.4688V29H28.4688Z" fill="white" fill-opacity="0.5"/>
<path d="M20.4688 13C20.4688 12.1716 19.7972 11.5 18.9688 11.5C18.1403 11.5 17.4688 12.1716 17.4688 13H20.4688ZM20.4688 29V13H17.4688V29H20.4688Z" fill="white" fill-opacity="0.5"/>
</svg>
