<svg width="37" height="37" viewBox="0 0 37 37" fill="none" xmlns="http://www.w3.org/2000/svg">
<path d="M12.5493 20C12.5493 19.1716 11.8777 18.5 11.0493 18.5C10.2209 18.5 9.54932 19.1716 9.54932 20H12.5493ZM12.5493 29V20H9.54932V29H12.5493Z" fill="white"/>
<path d="M28.5493 7C28.5493 6.17157 27.8777 5.5 27.0493 5.5C26.2209 5.5 25.5493 6.17157 25.5493 7H28.5493ZM28.5493 29V7H25.5493V29H28.5493Z" fill="white"/>
<path d="M20.5493 13C20.5493 12.1716 19.8777 11.5 19.0493 11.5C18.2209 11.5 17.5493 12.1716 17.5493 13H20.5493ZM20.5493 29V13H17.5493V29H20.5493Z" fill="white"/>
</svg>
