<svg id="Component_385_1" data-name="Component 385 – 1" xmlns="http://www.w3.org/2000/svg" xmlns:xlink="http://www.w3.org/1999/xlink" width="355.054" height="245.183" viewBox="0 0 355.054 245.183">
  <defs>
    <clipPath id="clip-path">
      <rect id="Rectangle_20836" data-name="Rectangle 20836" width="355.054" height="245.183" fill="none"/>
    </clipPath>
    <clipPath id="clip-path-2">
      <path id="Path_34912" data-name="Path 34912" d="M70.392,81.787A7.111,7.111,0,0,0,63.28,88.9v46.9a7.111,7.111,0,0,0,7.112,7.112h37.7A7.111,7.111,0,0,0,115.2,135.8V98.133a7.111,7.111,0,0,0-2.083-5.028L110.815,90.8l-6.927-6.927a7.113,7.113,0,0,0-5.029-2.083Z" transform="translate(-63.28 -81.787)" fill="none"/>
    </clipPath>
    <linearGradient id="linear-gradient" x1="-1.081" y1="2.825" x2="-1.064" y2="2.825" gradientUnits="objectBoundingBox">
      <stop offset="0" stop-color="#15444f"/>
      <stop offset="0.54" stop-color="#287477"/>
      <stop offset="1" stop-color="#269a95"/>
    </linearGradient>
    <clipPath id="clip-path-4">
      <path id="Path_34913" data-name="Path 34913" d="M106.72,84.582V94.3a1.077,1.077,0,0,0,1.078,1.077h9.722a1.078,1.078,0,0,0,.762-1.839l-2.551-2.551-7.171-7.171a1.05,1.05,0,0,0-.754-.317,1.077,1.077,0,0,0-1.085,1.079" transform="translate(-106.72 -83.503)" fill="none"/>
    </clipPath>
    <linearGradient id="linear-gradient-2" x1="-7.732" y1="14.406" x2="-7.66" y2="14.406" xlink:href="#linear-gradient"/>
  </defs>
  <g id="Group_28070" data-name="Group 28070">
    <g id="Group_28069" data-name="Group 28069" clip-path="url(#clip-path)">
      <rect id="Rectangle_20835" data-name="Rectangle 20835" width="353.543" height="15.248" transform="translate(1.068 0.444)" fill="none" stroke="#263238" stroke-linecap="round" stroke-linejoin="round" stroke-width="1"/>
      <path id="Path_34865" data-name="Path 34865" d="M393.049,11.672a4.442,4.442,0,1,1,0-6.282A4.442,4.442,0,0,1,393.049,11.672Z" transform="translate(-43.617 -0.463)" fill="none" stroke="#263238" stroke-linecap="round" stroke-linejoin="round" stroke-width="1"/>
      <line id="Line_90" data-name="Line 90" x1="3.236" y2="3.236" transform="translate(344.673 6.45)" fill="none" stroke="#263238" stroke-linecap="round" stroke-linejoin="round" stroke-width="1"/>
      <line id="Line_91" data-name="Line 91" x1="3.236" y1="3.236" transform="translate(344.673 6.45)" fill="none" stroke="#263238" stroke-linecap="round" stroke-linejoin="round" stroke-width="1"/>
      <circle id="Ellipse_80" data-name="Ellipse 80" cx="4.441" cy="4.441" r="4.441" transform="matrix(0.23, -0.973, 0.973, 0.23, 327.616, 11.37)" fill="none" stroke="#263238" stroke-linecap="round" stroke-linejoin="round" stroke-width="1"/>
      <path id="Path_34866" data-name="Path 34866" d="M375.149,11.094V6.517h2.289V8.8H372.86v2.289Z" transform="translate(-42.191 -0.737)" fill="none" stroke="#263238" stroke-linecap="round" stroke-linejoin="round" stroke-width="1"/>
      <circle id="Ellipse_81" data-name="Ellipse 81" cx="4.441" cy="4.441" r="4.441" transform="matrix(0.23, -0.973, 0.973, 0.23, 314.284, 11.37)" fill="none" stroke="#263238" stroke-linecap="round" stroke-linejoin="round" stroke-width="1"/>
      <line id="Line_92" data-name="Line 92" x1="4.577" transform="translate(317.338 8.068)" fill="none" stroke="#263238" stroke-linecap="round" stroke-linejoin="round" stroke-width="1"/>
      <path id="Path_34867" data-name="Path 34867" d="M.553,101.66V22.437H67.08" transform="translate(-0.063 -2.539)" fill="none" stroke="#263238" stroke-linecap="round" stroke-linejoin="round" stroke-width="1"/>
      <path id="Path_34868" data-name="Path 34868" d="M395.393,147.143V22.436H360.408" transform="translate(-40.782 -2.539)" fill="none" stroke="#263238" stroke-linecap="round" stroke-linejoin="round" stroke-width="1"/>
      <line id="Line_93" data-name="Line 93" y2="27.481" transform="translate(354.611 153.028)" fill="none" stroke="#263238" stroke-linecap="round" stroke-linejoin="round" stroke-width="1"/>
      <line id="Line_94" data-name="Line 94" y2="10.775" transform="translate(354.611 201.423)" fill="none" stroke="#263238" stroke-linecap="round" stroke-linejoin="round" stroke-width="1"/>
      <line id="Line_95" data-name="Line 95" y2="12.635" transform="translate(0.443 106.336)" fill="none" stroke="#263238" stroke-linecap="round" stroke-linejoin="round" stroke-width="1"/>
      <line id="Line_96" data-name="Line 96" x2="94.477" transform="translate(74.388 19.898)" fill="none" stroke="#263238" stroke-linecap="round" stroke-linejoin="round" stroke-width="1"/>
      <line id="Line_97" data-name="Line 97" x2="6.011" transform="translate(199.071 19.898)" fill="none" stroke="#263238" stroke-linecap="round" stroke-linejoin="round" stroke-width="1"/>
      <path id="Path_34869" data-name="Path 34869" d="M38.482,208.211H13.734a3.859,3.859,0,0,1-3.676-3.162L7.3,187.768A2.632,2.632,0,0,1,9.97,184.6H34.717a3.859,3.859,0,0,1,3.676,3.163l2.755,17.281A2.632,2.632,0,0,1,38.482,208.211Z" transform="translate(-0.822 -20.889)" fill="none" stroke="#263238" stroke-linecap="round" stroke-linejoin="round" stroke-width="1"/>
      <path id="Path_34870" data-name="Path 34870" d="M38.924,207.6a3.171,3.171,0,0,0,3.171-3.171V184.944A3.162,3.162,0,0,0,39.15,181.8l-.77-1.981a.966.966,0,0,0-.9-.616H29.388a.966.966,0,0,0-.9.616l-.762,1.958H14.177a3.173,3.173,0,0,0-3,2.154" transform="translate(-1.264 -20.277)" fill="none" stroke="#263238" stroke-linecap="round" stroke-linejoin="round" stroke-width="1"/>
      <path id="Path_34871" data-name="Path 34871" d="M211.936,269.141h-5.684a3.859,3.859,0,0,1-3.676-3.163l-1.378-8.641" transform="translate(-22.766 -29.119)" fill="none" stroke="#263238" stroke-linecap="round" stroke-linejoin="round" stroke-width="1"/>
      <path id="Path_34872" data-name="Path 34872" d="M234.016,257.338l1.378,8.641a2.632,2.632,0,0,1-2.667,3.163H216.471" transform="translate(-24.495 -29.119)" fill="none" stroke="#263238" stroke-linecap="round" stroke-linejoin="round" stroke-width="1"/>
      <path id="Path_34873" data-name="Path 34873" d="M223.592,244.029h6.177a3.86,3.86,0,0,1,3.676,3.162l.835,5.236" transform="translate(-25.3 -27.613)" fill="none" stroke="#263238" stroke-linecap="round" stroke-linejoin="round" stroke-width="1"/>
      <line id="Line_98" data-name="Line 98" x2="1.966" transform="translate(193.977 216.416)" fill="none" stroke="#263238" stroke-linecap="round" stroke-linejoin="round" stroke-width="1"/>
      <path id="Path_34874" data-name="Path 34874" d="M200.635,253.435l-1-6.243a2.633,2.633,0,0,1,2.668-3.163h10.267" transform="translate(-22.585 -27.613)" fill="none" stroke="#263238" stroke-linecap="round" stroke-linejoin="round" stroke-width="1"/>
      <path id="Path_34875" data-name="Path 34875" d="M224.009,238.622h-2.285a.967.967,0,0,0-.9.615l-.762,1.959H206.514a3.173,3.173,0,0,0-3,2.154" transform="translate(-23.028 -27.001)" fill="none" stroke="#263238" stroke-linecap="round" stroke-linejoin="round" stroke-width="1"/>
      <path id="Path_34876" data-name="Path 34876" d="M237.242,244.368a3.161,3.161,0,0,0-2.944-3.148l-.771-1.982a.967.967,0,0,0-.9-.615H228.34" transform="translate(-25.838 -27.001)" fill="none" stroke="#263238" stroke-linecap="round" stroke-linejoin="round" stroke-width="1"/>
      <path id="Path_34877" data-name="Path 34877" d="M234.8,268.171A3.171,3.171,0,0,0,237.973,265V248.764" transform="translate(-26.569 -28.149)" fill="none" stroke="#263238" stroke-linecap="round" stroke-linejoin="round" stroke-width="1"/>
      <path id="Path_34878" data-name="Path 34878" d="M149.046,258.994l-1.882-11.8a2.632,2.632,0,0,1,2.667-3.162h4.076" transform="translate(-16.648 -27.613)" fill="none" stroke="#263238" stroke-linecap="round" stroke-linejoin="round" stroke-width="1"/>
      <path id="Path_34879" data-name="Path 34879" d="M168.008,269.894H153.9a3.858,3.858,0,0,1-3.675-3.163l-.437-2.739" transform="translate(-16.949 -29.872)" fill="none" stroke="#263238" stroke-linecap="round" stroke-linejoin="round" stroke-width="1"/>
      <line id="Line_99" data-name="Line 99" x1="4.678" transform="translate(153.164 240.022)" fill="none" stroke="#263238" stroke-linecap="round" stroke-linejoin="round" stroke-width="1"/>
      <path id="Path_34880" data-name="Path 34880" d="M158.8,244.029H175.9a3.859,3.859,0,0,1,3.676,3.162l2.756,17.281a2.633,2.633,0,0,1-2.668,3.163" transform="translate(-17.969 -27.613)" fill="none" stroke="#263238" stroke-linecap="round" stroke-linejoin="round" stroke-width="1"/>
      <path id="Path_34881" data-name="Path 34881" d="M161.951,241.525h-7.913a3.173,3.173,0,0,0-3,2.154" transform="translate(-17.09 -27.329)" fill="none" stroke="#263238" stroke-linecap="round" stroke-linejoin="round" stroke-width="1"/>
      <path id="Path_34882" data-name="Path 34882" d="M183.678,255.22V244.368a3.162,3.162,0,0,0-2.945-3.148l-.77-1.981a.967.967,0,0,0-.9-.616h-8.092a.966.966,0,0,0-.9.616l-.762,1.958h-3.058" transform="translate(-18.812 -27.001)" fill="none" stroke="#263238" stroke-linecap="round" stroke-linejoin="round" stroke-width="1"/>
      <path id="Path_34883" data-name="Path 34883" d="M182.326,269.409a3.171,3.171,0,0,0,3.171-3.171V259.7" transform="translate(-20.631 -29.387)" fill="none" stroke="#263238" stroke-linecap="round" stroke-linejoin="round" stroke-width="1"/>
      <path id="Path_34884" data-name="Path 34884" d="M159.46,220.949h-5.685a3.858,3.858,0,0,1-3.675-3.162l-1.378-8.641" transform="translate(-16.828 -23.666)" fill="none" stroke="#263238" stroke-linecap="round" stroke-linejoin="round" stroke-width="1"/>
      <path id="Path_34885" data-name="Path 34885" d="M181.54,209.146l1.378,8.641a2.633,2.633,0,0,1-2.668,3.162H163.995" transform="translate(-18.557 -23.666)" fill="none" stroke="#263238" stroke-linecap="round" stroke-linejoin="round" stroke-width="1"/>
      <path id="Path_34886" data-name="Path 34886" d="M171.116,195.837h6.177A3.858,3.858,0,0,1,180.968,199l.835,5.236" transform="translate(-19.362 -22.16)" fill="none" stroke="#263238" stroke-linecap="round" stroke-linejoin="round" stroke-width="1"/>
      <line id="Line_100" data-name="Line 100" x2="1.966" transform="translate(147.439 173.677)" fill="none" stroke="#263238" stroke-linecap="round" stroke-linejoin="round" stroke-width="1"/>
      <path id="Path_34887" data-name="Path 34887" d="M148.159,205.243l-1-6.243a2.633,2.633,0,0,1,2.668-3.162H160.1" transform="translate(-16.647 -22.16)" fill="none" stroke="#263238" stroke-linecap="round" stroke-linejoin="round" stroke-width="1"/>
      <path id="Path_34888" data-name="Path 34888" d="M171.533,190.43h-2.285a.966.966,0,0,0-.9.616L167.587,193H154.038a3.173,3.173,0,0,0-3,2.154" transform="translate(-17.09 -21.548)" fill="none" stroke="#263238" stroke-linecap="round" stroke-linejoin="round" stroke-width="1"/>
      <path id="Path_34889" data-name="Path 34889" d="M184.766,196.176a3.162,3.162,0,0,0-2.945-3.148l-.77-1.981a.967.967,0,0,0-.9-.616h-4.287" transform="translate(-19.9 -21.548)" fill="none" stroke="#263238" stroke-linecap="round" stroke-linejoin="round" stroke-width="1"/>
      <path id="Path_34890" data-name="Path 34890" d="M182.326,219.979a3.171,3.171,0,0,0,3.171-3.171V200.572" transform="translate(-20.631 -22.696)" fill="none" stroke="#263238" stroke-linecap="round" stroke-linejoin="round" stroke-width="1"/>
      <path id="Path_34891" data-name="Path 34891" d="M201.522,210.8,199.64,199a2.632,2.632,0,0,1,2.667-3.162h4.076" transform="translate(-22.585 -22.16)" fill="none" stroke="#263238" stroke-linecap="round" stroke-linejoin="round" stroke-width="1"/>
      <path id="Path_34892" data-name="Path 34892" d="M220.483,221.7H206.371a3.858,3.858,0,0,1-3.675-3.162l-.437-2.739" transform="translate(-22.886 -24.419)" fill="none" stroke="#263238" stroke-linecap="round" stroke-linejoin="round" stroke-width="1"/>
      <line id="Line_101" data-name="Line 101" x1="4.678" transform="translate(199.702 197.283)" fill="none" stroke="#263238" stroke-linecap="round" stroke-linejoin="round" stroke-width="1"/>
      <path id="Path_34893" data-name="Path 34893" d="M211.281,195.837h17.094A3.859,3.859,0,0,1,232.051,199l2.756,17.281a2.633,2.633,0,0,1-2.668,3.162" transform="translate(-23.907 -22.16)" fill="none" stroke="#263238" stroke-linecap="round" stroke-linejoin="round" stroke-width="1"/>
      <path id="Path_34894" data-name="Path 34894" d="M214.426,193.333h-7.913a3.173,3.173,0,0,0-3,2.154" transform="translate(-23.028 -21.876)" fill="none" stroke="#263238" stroke-linecap="round" stroke-linejoin="round" stroke-width="1"/>
      <path id="Path_34895" data-name="Path 34895" d="M236.154,207.028V196.176a3.161,3.161,0,0,0-2.944-3.148l-.771-1.981a.966.966,0,0,0-.9-.616h-8.092a.966.966,0,0,0-.9.616L221.785,193h-3.058" transform="translate(-24.75 -21.548)" fill="none" stroke="#263238" stroke-linecap="round" stroke-linejoin="round" stroke-width="1"/>
      <path id="Path_34896" data-name="Path 34896" d="M234.8,221.217a3.171,3.171,0,0,0,3.171-3.171v-6.533" transform="translate(-26.569 -23.934)" fill="none" stroke="#263238" stroke-linecap="round" stroke-linejoin="round" stroke-width="1"/>
      <path id="Path_34897" data-name="Path 34897" d="M153.835,221.705a4.717,4.717,0,1,1-4.717-4.717,4.717,4.717,0,0,1,4.717,4.717" transform="translate(-16.34 -24.553)" fill="#fff"/>
      <circle id="Ellipse_82" data-name="Ellipse 82" cx="4.717" cy="4.717" r="4.717" transform="translate(128.062 192.435)" fill="none" stroke="#263238" stroke-linecap="round" stroke-linejoin="round" stroke-width="1"/>
      <path id="Path_34898" data-name="Path 34898" d="M148.722,220.234a.7.7,0,0,0,.776-.564h.474v4.49h-.706v-3.426h-.545Z" transform="translate(-16.828 -24.857)" fill="#263238"/>
      <path id="Path_34899" data-name="Path 34899" d="M210.077,221.705a4.717,4.717,0,1,1-4.717-4.717,4.717,4.717,0,0,1,4.717,4.717" transform="translate(-22.704 -24.553)" fill="#fff"/>
      <circle id="Ellipse_83" data-name="Ellipse 83" cx="4.717" cy="4.717" r="4.717" transform="translate(177.94 192.435)" fill="none" stroke="#263238" stroke-linecap="round" stroke-linejoin="round" stroke-width="1"/>
      <path id="Path_34900" data-name="Path 34900" d="M205.853,220.253c-.225,0-.365.122-.365.443v.482h-.668v-.436c0-.719.359-1.13,1.052-1.13s1.052.411,1.052,1.13a2.461,2.461,0,0,1-.872,1.776c-.417.449-.532.661-.532.9a.5.5,0,0,0,.006.1h1.334v.641h-2.04V223.6a1.944,1.944,0,0,1,.706-1.43,1.889,1.889,0,0,0,.693-1.4c0-.4-.141-.513-.365-.513" transform="translate(-23.176 -24.85)" fill="#263238"/>
      <path id="Path_34901" data-name="Path 34901" d="M153.835,270.045a4.717,4.717,0,1,1-4.717-4.717,4.717,4.717,0,0,1,4.717,4.717" transform="translate(-16.34 -30.023)" fill="#fff"/>
      <circle id="Ellipse_84" data-name="Ellipse 84" cx="4.717" cy="4.717" r="4.717" transform="translate(128.062 235.305)" fill="none" stroke="#263238" stroke-linecap="round" stroke-linejoin="round" stroke-width="1"/>
      <path id="Path_34902" data-name="Path 34902" d="M149.935,269.107c0-.4-.141-.513-.365-.513s-.365.122-.365.443v.288h-.667v-.243c0-.719.358-1.13,1.051-1.13s1.053.411,1.053,1.13v.115a.865.865,0,0,1-.494.917v.012a.907.907,0,0,1,.494.937v.354c0,.717-.359,1.128-1.053,1.128s-1.051-.411-1.051-1.128v-.372h.667v.417c0,.321.141.443.365.443s.365-.109.365-.506v-.353c0-.417-.141-.571-.461-.571h-.238v-.642h.275c.263,0,.424-.115.424-.474Z" transform="translate(-16.808 -30.32)" fill="#263238"/>
      <path id="Path_34903" data-name="Path 34903" d="M210.077,270.045a4.717,4.717,0,1,1-4.717-4.717,4.717,4.717,0,0,1,4.717,4.717" transform="translate(-22.704 -30.023)" fill="#fff"/>
      <circle id="Ellipse_85" data-name="Ellipse 85" cx="4.717" cy="4.717" r="4.717" transform="translate(177.94 235.305)" fill="none" stroke="#263238" stroke-linecap="round" stroke-linejoin="round" stroke-width="1"/>
      <path id="Path_34904" data-name="Path 34904" d="M204.632,271.044l1.283-3.034h.77v3.034h.333v.641h-.333v.815h-.706v-.815h-1.347Zm1.347,0v-1.661h-.013l-.686,1.661Z" transform="translate(-23.155 -30.326)" fill="#263238"/>
      <line id="Line_102" data-name="Line 102" x2="17.021" transform="translate(305.419 154.484)" fill="none" stroke="#263238" stroke-linecap="round" stroke-linejoin="round" stroke-width="1"/>
      <path id="Path_34905" data-name="Path 34905" d="M336.738,185.677V174.195h3.977" transform="translate(-38.103 -19.711)" fill="none" stroke="#263238" stroke-linecap="round" stroke-linejoin="round" stroke-width="1"/>
      <path id="Path_34906" data-name="Path 34906" d="M340.131,213.694h-3.392V189.488" transform="translate(-38.103 -21.441)" fill="none" stroke="#263238" stroke-linecap="round" stroke-linejoin="round" stroke-width="1"/>
      <line id="Line_103" data-name="Line 103" x1="4.269" transform="translate(303.956 192.252)" fill="none" stroke="#263238" stroke-linecap="round" stroke-linejoin="round" stroke-width="1"/>
      <path id="Path_34907" data-name="Path 34907" d="M370.614,216.1v.607H352.563" transform="translate(-39.894 -24.452)" fill="none" stroke="#263238" stroke-linecap="round" stroke-linejoin="round" stroke-width="1"/>
      <line id="Line_104" data-name="Line 104" y2="26.591" transform="translate(330.72 162.764)" fill="none" stroke="#263238" stroke-linecap="round" stroke-linejoin="round" stroke-width="1"/>
      <path id="Path_34908" data-name="Path 34908" d="M374.824,176.475v29.488H342.738V168.195h23.8l5.568,5.568Z" transform="translate(-38.782 -19.032)" fill="#fff"/>
      <path id="Path_34909" data-name="Path 34909" d="M374.824,176.475v29.488H342.738V168.195h23.8l5.568,5.568Z" transform="translate(-38.782 -19.032)" fill="none" stroke="#263238" stroke-linecap="round" stroke-linejoin="round" stroke-width="1"/>
      <path id="Path_34910" data-name="Path 34910" d="M377.861,176.475H369.58v-8.28l5.568,5.568Z" transform="translate(-41.819 -19.032)" fill="#fff"/>
      <path id="Path_34911" data-name="Path 34911" d="M377.861,176.475H369.58v-8.28l5.568,5.568Z" transform="translate(-41.819 -19.032)" fill="none" stroke="#263238" stroke-linecap="round" stroke-linejoin="round" stroke-width="1"/>
      <line id="Line_105" data-name="Line 105" y2="8.069" transform="translate(319.999 164.013)" fill="none" stroke="#263238" stroke-linecap="round" stroke-linejoin="round" stroke-width="1"/>
      <line id="Line_106" data-name="Line 106" x1="8.069" transform="translate(315.964 168.047)" fill="none" stroke="#263238" stroke-linecap="round" stroke-linejoin="round" stroke-width="1"/>
    </g>
  </g>
  <g id="Group_28072" data-name="Group 28072" transform="translate(56.119 72.532)">
    <g id="Group_28071" data-name="Group 28071" clip-path="url(#clip-path-2)">
      <rect id="Rectangle_20837" data-name="Rectangle 20837" width="51.925" height="61.121" transform="translate(0 0)" fill="url(#linear-gradient)"/>
    </g>
  </g>
  <g id="Group_28074" data-name="Group 28074">
    <g id="Group_28073" data-name="Group 28073" clip-path="url(#clip-path)">
      <line id="Line_107" data-name="Line 107" x2="23.657" transform="translate(62.93 81.721)" fill="none" stroke="#fff" stroke-linecap="round" stroke-linejoin="round" stroke-width="1"/>
      <line id="Line_108" data-name="Line 108" x2="38.415" transform="translate(62.93 87.835)" fill="none" stroke="#fff" stroke-linecap="round" stroke-linejoin="round" stroke-width="1"/>
      <line id="Line_109" data-name="Line 109" x2="38.415" transform="translate(62.93 93.949)" fill="none" stroke="#fff" stroke-linecap="round" stroke-linejoin="round" stroke-width="1"/>
      <line id="Line_110" data-name="Line 110" x2="38.415" transform="translate(62.93 100.063)" fill="none" stroke="#fff" stroke-linecap="round" stroke-linejoin="round" stroke-width="1"/>
      <line id="Line_111" data-name="Line 111" x2="38.415" transform="translate(62.93 106.177)" fill="none" stroke="#fff" stroke-linecap="round" stroke-linejoin="round" stroke-width="1"/>
      <line id="Line_112" data-name="Line 112" x2="38.415" transform="translate(62.93 112.291)" fill="none" stroke="#fff" stroke-linecap="round" stroke-linejoin="round" stroke-width="1"/>
      <line id="Line_113" data-name="Line 113" x2="38.415" transform="translate(62.93 118.404)" fill="none" stroke="#fff" stroke-linecap="round" stroke-linejoin="round" stroke-width="1"/>
      <line id="Line_114" data-name="Line 114" x2="33.678" transform="translate(62.93 124.518)" fill="none" stroke="#fff" stroke-linecap="round" stroke-linejoin="round" stroke-width="1"/>
    </g>
  </g>
  <g id="Group_28076" data-name="Group 28076" transform="translate(94.644 74.054)">
    <g id="Group_28075" data-name="Group 28075" clip-path="url(#clip-path-4)">
      <rect id="Rectangle_20839" data-name="Rectangle 20839" width="12.24" height="11.879" transform="translate(0 -0.001)" fill="url(#linear-gradient-2)"/>
    </g>
  </g>
  <g id="Group_28078" data-name="Group 28078">
    <g id="Group_28077" data-name="Group 28077" clip-path="url(#clip-path)">
      <path id="Path_34914" data-name="Path 34914" d="M306.991,81v37.77a7.036,7.036,0,0,1-7.037,7.036H262.1a7.035,7.035,0,0,1-7.035-7.036V71.726a7.036,7.036,0,0,1,7.035-7.037h28.574a7.036,7.036,0,0,1,4.975,2.061L302.6,73.7l2.33,2.33A7.04,7.04,0,0,1,306.991,81" transform="translate(-28.862 -7.32)" fill="#51a29c"/>
      <line id="Line_115" data-name="Line 115" x2="24.767" transform="translate(233.014 66.558)" fill="none" stroke="#fff" stroke-linecap="round" stroke-linejoin="round" stroke-width="1"/>
      <line id="Line_116" data-name="Line 116" x2="38.415" transform="translate(233.014 72.672)" fill="none" stroke="#fff" stroke-linecap="round" stroke-linejoin="round" stroke-width="1"/>
      <line id="Line_117" data-name="Line 117" x2="38.415" transform="translate(233.014 78.786)" fill="none" stroke="#fff" stroke-linecap="round" stroke-linejoin="round" stroke-width="1"/>
      <line id="Line_118" data-name="Line 118" x2="38.415" transform="translate(233.014 84.9)" fill="none" stroke="#fff" stroke-linecap="round" stroke-linejoin="round" stroke-width="1"/>
      <line id="Line_119" data-name="Line 119" x2="38.415" transform="translate(233.014 91.013)" fill="none" stroke="#fff" stroke-linecap="round" stroke-linejoin="round" stroke-width="1"/>
      <line id="Line_120" data-name="Line 120" x2="38.415" transform="translate(233.014 97.127)" fill="none" stroke="#fff" stroke-linecap="round" stroke-linejoin="round" stroke-width="1"/>
      <line id="Line_121" data-name="Line 121" x2="38.415" transform="translate(233.014 103.241)" fill="none" stroke="#fff" stroke-linecap="round" stroke-linejoin="round" stroke-width="1"/>
      <line id="Line_122" data-name="Line 122" x2="33.678" transform="translate(233.014 109.355)" fill="none" stroke="#fff" stroke-linecap="round" stroke-linejoin="round" stroke-width="1"/>
      <path id="Path_34915" data-name="Path 34915" d="M308.823,78.319h-9.04a1.277,1.277,0,0,1-1.277-1.276V68a1.277,1.277,0,0,1,2.18-.9l6.83,6.83,2.21,2.21a1.276,1.276,0,0,1-.9,2.179" transform="translate(-33.777 -7.55)" fill="#51a29c"/>
      <rect id="Rectangle_20840" data-name="Rectangle 20840" width="63.151" height="76.472" rx="8.315" transform="translate(220.591 49.695)" fill="none" stroke="#263238" stroke-linecap="round" stroke-linejoin="round" stroke-width="1" stroke-dasharray="11.56 11.56"/>
      <line id="Line_123" data-name="Line 123" y1="14.863" x2="94.565" transform="translate(114.39 89.664)" fill="none" stroke="#263238" stroke-linecap="round" stroke-linejoin="round" stroke-width="1" stroke-dasharray="12 12"/>
      <path id="Path_34916" data-name="Path 34916" d="M237.364,100.465l-2.894-1.1.689,3.28Z" transform="translate(-26.531 -11.243)" fill="#263238"/>
      <path id="Path_34917" data-name="Path 34917" d="M129.827,117.74a.965.965,0,1,1-.965-.965.965.965,0,0,1,.965.965" transform="translate(-14.472 -13.214)" fill="#263238"/>
      <path id="Path_34918" data-name="Path 34918" d="M324.467,57.643a7.83,7.83,0,1,1-7.83-7.83,7.831,7.831,0,0,1,7.83,7.83" transform="translate(-34.943 -5.637)" fill="#fff"/>
      <path id="Path_34919" data-name="Path 34919" d="M324.467,57.643a7.83,7.83,0,1,1-7.83-7.83A7.831,7.831,0,0,1,324.467,57.643Z" transform="translate(-34.943 -5.637)" fill="none" stroke="#263238" stroke-linecap="round" stroke-linejoin="round" stroke-width="1"/>
      <line id="Line_124" data-name="Line 124" y2="8.069" transform="translate(281.694 47.972)" fill="none" stroke="#263238" stroke-linecap="round" stroke-linejoin="round" stroke-width="1"/>
      <line id="Line_125" data-name="Line 125" x1="8.069" transform="translate(277.659 52.006)" fill="none" stroke="#263238" stroke-linecap="round" stroke-linejoin="round" stroke-width="1"/>
    </g>
  </g>
</svg>
