<svg xmlns="http://www.w3.org/2000/svg" width="16" height="22" viewBox="0 0 16 22">
  <g id="Component_131_1" data-name="Component 131 – 1" transform="translate(1 1)">
    <path id="Path_21896" data-name="Path 21896" d="M1960,732h0m-.6,3h1.2c2.24,0,3.36,0,4.22-.436a3.974,3.974,0,0,0,1.74-1.748c.44-.856.44-1.976.44-4.216v-7.2c0-2.24,0-3.36-.44-4.216a3.974,3.974,0,0,0-1.74-1.748c-.86-.436-1.98-.436-4.22-.436h-1.2c-2.24,0-3.36,0-4.22.436a3.974,3.974,0,0,0-1.74,1.748c-.44.856-.44,1.976-.44,4.216v7.2c0,2.24,0,3.36.44,4.216a3.974,3.974,0,0,0,1.74,1.748C1956.04,735,1957.16,735,1959.4,735Z" transform="translate(-1953 -715)" fill="none" stroke="#d1d1d1" stroke-linecap="round" stroke-linejoin="round" stroke-width="2"/>
  </g>
</svg>
