<svg xmlns="http://www.w3.org/2000/svg" width="20" height="20.005" viewBox="0 0 20 20.005">
  <g id="Component_132_1" data-name="Component 132 – 1" transform="translate(1 1.007)">
    <path id="Path_25252" data-name="Path 25252" d="M1387,277.759a8.494,8.494,0,0,1,.12-2,3.99,3.99,0,0,1,.51-1.191,8.9,8.9,0,0,1,1.38-1.46l2.6-2.456c1.54-1.46,2.32-2.191,3.2-2.466a3.976,3.976,0,0,1,2.38,0c.88.275,1.66,1.006,3.2,2.466l2.6,2.456a8.9,8.9,0,0,1,1.38,1.46,3.99,3.99,0,0,1,.51,1.191,8.494,8.494,0,0,1,.12,2V279.6c0,2.24,0,3.36-.44,4.216a3.974,3.974,0,0,1-1.74,1.748c-.86.436-1.98.436-4.22.436h-5.2c-2.24,0-3.36,0-4.22-.436a3.974,3.974,0,0,1-1.74-1.748c-.44-.856-.44-1.976-.44-4.216Z" transform="translate(-1387 -268.002)" fill="none" stroke="#fff" stroke-linecap="round" stroke-linejoin="round" stroke-width="2"/>
  </g>
</svg>
