<svg xmlns="http://www.w3.org/2000/svg" width="20" height="16" viewBox="0 0 20 16">
  <path id="Path_21971" data-name="Path 21971" d="M1404.41,944.209l-3.01,2.343c-1.93,1.5-2.89,2.247-3.96,2.535a5.557,5.557,0,0,1-2.88,0c-1.07-.288-2.03-1.037-3.96-2.535l-3.01-2.343m16.82,0a4.4,4.4,0,0,0-1.87-1.732c-.96-.477-2.22-.477-4.74-.477h-3.6c-2.52,0-3.78,0-4.74.477a4.4,4.4,0,0,0-1.87,1.732m16.82,0c.03.059.07.119.1.18.49.936.49,2.161.49,4.611s0,3.675-.49,4.611a4.423,4.423,0,0,1-1.97,1.912c-.96.477-2.22.477-4.74.477h-3.6c-2.52,0-3.78,0-4.74-.477a4.423,4.423,0,0,1-1.97-1.912c-.49-.936-.49-2.161-.49-4.611s0-3.675.49-4.611c.03-.061.07-.121.1-.18" transform="translate(-1386 -941)" fill="none" stroke="#fff" stroke-linecap="round" stroke-linejoin="round" stroke-width="2"/>
</svg>
