<svg xmlns="http://www.w3.org/2000/svg" width="18.037" height="22.071" viewBox="0 0 18.037 22.071">
  <g id="Component_130_1" data-name="Component 130 – 1" transform="translate(1 1.071)">
    <path id="Path_22003" data-name="Path 22003" d="M1116,715.058V716.2a7.392,7.392,0,0,0,.33,3.162,2.935,2.935,0,0,0,1.31,1.311,7.437,7.437,0,0,0,3.16.327h1.14m-5.94-5.942a12.223,12.223,0,0,0-1.65-.058h-1.95c-2.24,0-3.36,0-4.22.436a3.974,3.974,0,0,0-1.74,1.748c-.44.856-.44,1.976-.44,4.216v7.2c0,2.24,0,3.36.44,4.216a3.974,3.974,0,0,0,1.74,1.748c.86.436,1.98.436,4.22.436h3.2c2.24,0,3.36,0,4.22-.436a3.974,3.974,0,0,0,1.74-1.748c.44-.856.44-1.976.44-4.216v-5.949a11.874,11.874,0,0,0-.06-1.651m-5.94-5.942a2.793,2.793,0,0,1,.28.053,3.863,3.863,0,0,1,1.15.478,8.288,8.288,0,0,1,1.44,1.286l1.26,1.25a8.67,8.67,0,0,1,1.28,1.442,4.041,4.041,0,0,1,.48,1.156,2.393,2.393,0,0,1,.05.277" transform="translate(-1106 -715)" fill="none" stroke="#d1d1d1" stroke-linecap="round" stroke-linejoin="round" stroke-width="2"/>
  </g>
</svg>
