<svg id="Component_386_1" data-name="Component 386 – 1" xmlns="http://www.w3.org/2000/svg" xmlns:xlink="http://www.w3.org/1999/xlink" width="303.284" height="280" viewBox="0 0 303.284 280">
  <defs>
    <clipPath id="clip-path">
      <rect id="Rectangle_20809" data-name="Rectangle 20809" width="303.284" height="280" fill="none"/>
    </clipPath>
    <clipPath id="clip-path-2">
      <path id="Path_34812" data-name="Path 34812" d="M181.674,42.61a8.246,8.246,0,0,0-2.651.438L56.337,93.287,87.429,254.744c4.362,6.551,127.029-35.834,127.029-35.834a8.254,8.254,0,0,0,5.414-9.735l-25.1-105.665a12.868,12.868,0,0,1,2.517-11.069l6.9-8.524a8.27,8.27,0,0,0,1.656-6.945L199.3,46.6a5.059,5.059,0,0,0-4.945-3.994Z" transform="translate(-56.337 -42.61)" fill="none"/>
    </clipPath>
    <linearGradient id="linear-gradient" x1="-0.251" y1="1.138" x2="-0.246" y2="1.138" gradientUnits="objectBoundingBox">
      <stop offset="0" stop-color="#15444f"/>
      <stop offset="0.54" stop-color="#287477"/>
      <stop offset="1" stop-color="#269a95"/>
    </linearGradient>
    <clipPath id="clip-path-4">
      <rect id="Rectangle_20812" data-name="Rectangle 20812" width="153.882" height="203.109" fill="none"/>
    </clipPath>
    <clipPath id="clip-path-6">
      <path id="Path_34823" data-name="Path 34823" d="M174.824,44.555,73.944,93.366l1.578,8.219,27.719,144.453L216.475,210.09a5.255,5.255,0,0,0,3.458-6.428L182.064,55.247l-2.085-8.157a3.85,3.85,0,0,0-3.675-2.874,3.373,3.373,0,0,0-1.481.338" transform="translate(-73.944 -44.217)" fill="none"/>
    </clipPath>
    <clipPath id="clip-path-7">
      <rect id="Rectangle_20815" data-name="Rectangle 20815" width="146.169" height="201.821" fill="none"/>
    </clipPath>
    <clipPath id="clip-path-10">
      <rect id="Rectangle_20817" data-name="Rectangle 20817" width="37.235" height="132.061" fill="none"/>
    </clipPath>
    <clipPath id="clip-path-12">
      <rect id="Rectangle_20818" data-name="Rectangle 20818" width="73.416" height="31.095" fill="none"/>
    </clipPath>
    <clipPath id="clip-path-13">
      <rect id="Rectangle_20819" data-name="Rectangle 20819" width="92.869" height="40.126" fill="none"/>
    </clipPath>
    <clipPath id="clip-path-14">
      <rect id="Rectangle_20821" data-name="Rectangle 20821" width="27.364" height="40.806" fill="none"/>
    </clipPath>
    <clipPath id="clip-path-16">
      <rect id="Rectangle_20823" data-name="Rectangle 20823" width="26.9" height="40.096" fill="none"/>
    </clipPath>
    <clipPath id="clip-path-18">
      <rect id="Rectangle_20825" data-name="Rectangle 20825" width="25.571" height="35.335" fill="none"/>
    </clipPath>
    <clipPath id="clip-path-20">
      <rect id="Rectangle_20827" data-name="Rectangle 20827" width="26.958" height="37.783" fill="none"/>
    </clipPath>
    <clipPath id="clip-path-22">
      <rect id="Rectangle_20829" data-name="Rectangle 20829" width="99.968" height="10.645" transform="matrix(0.876, -0.482, 0.482, 0.876, 0, 48.171)" fill="none"/>
    </clipPath>
    <clipPath id="clip-path-23">
      <path id="Path_34856" data-name="Path 34856" d="M130.3,23.055s-66.1,41.532-73.961,64.513L87.429,249.025c9.951-11.366,81.036-63.428,81.036-63.428A17.086,17.086,0,0,0,175.1,168L142.171,26.874a7.233,7.233,0,0,0-7.093-5.652,7.143,7.143,0,0,0-4.781,1.833" transform="translate(-56.337 -21.222)" fill="none"/>
    </clipPath>
    <linearGradient id="linear-gradient-2" x1="-0.343" y1="1.161" x2="-0.337" y2="1.161" xlink:href="#linear-gradient"/>
    <clipPath id="clip-path-25">
      <rect id="Rectangle_20831" data-name="Rectangle 20831" width="5.817" height="11.087" fill="none"/>
    </clipPath>
    <clipPath id="clip-path-26">
      <rect id="Rectangle_20832" data-name="Rectangle 20832" width="102.017" height="131.186" fill="none"/>
    </clipPath>
  </defs>
  <g id="Group_28068" data-name="Group 28068">
    <line id="Line_82" data-name="Line 82" x1="2.564" transform="translate(231.794 41.419)" fill="none" stroke="#263238" stroke-linejoin="round" stroke-width="1"/>
    <line id="Line_83" data-name="Line 83" x1="161.311" transform="translate(65.362 41.419)" fill="none" stroke="#263238" stroke-linejoin="round" stroke-width="1" stroke-dasharray="6.99 6.99"/>
    <line id="Line_84" data-name="Line 84" x1="2.564" transform="translate(60.238 41.419)" fill="none" stroke="#263238" stroke-linejoin="round" stroke-width="1"/>
    <line id="Line_85" data-name="Line 85" y1="2.564" transform="translate(236.131 247.56)" fill="none" stroke="#263238" stroke-linejoin="round" stroke-width="1"/>
    <line id="Line_86" data-name="Line 86" y1="194.043" transform="translate(236.131 48.343)" fill="none" stroke="#263238" stroke-linejoin="round" stroke-width="1" stroke-dasharray="7.063 7.063"/>
    <line id="Line_87" data-name="Line 87" y1="2.564" transform="translate(236.131 43.192)" fill="none" stroke="#263238" stroke-linejoin="round" stroke-width="1"/>
    <rect id="Rectangle_20808" data-name="Rectangle 20808" width="3.549" height="3.549" transform="translate(234.358 39.643)" fill="none" stroke="#263238" stroke-linejoin="round" stroke-width="1"/>
    <path id="Path_34805" data-name="Path 34805" d="M353.414,67.076,327.623,56.242l10.834,25.791,2.993-8.726,5.758,5.758,3.237-3.237-5.758-5.758Z" transform="translate(-87.613 -15.04)" fill="none" stroke="#263238" stroke-linecap="round" stroke-linejoin="round" stroke-width="1"/>
    <g id="Group_27995" data-name="Group 27995">
      <g id="Group_27994" data-name="Group 27994" clip-path="url(#clip-path)">
        <path id="Path_34806" data-name="Path 34806" d="M283.257,372.433H257.806a3.97,3.97,0,0,1-3.781-3.253l-2.834-17.772a2.708,2.708,0,0,1,2.744-3.253h25.451a3.968,3.968,0,0,1,3.78,3.253L286,369.18A2.707,2.707,0,0,1,283.257,372.433Z" transform="translate(-67.162 -93.103)" fill="none" stroke="#0e2837" stroke-width="1"/>
        <path id="Path_34807" data-name="Path 34807" d="M284.559,370.633a3.261,3.261,0,0,0,3.261-3.261V347.333a3.251,3.251,0,0,0-3.029-3.238L284,342.057a.992.992,0,0,0-.926-.633h-8.322a.992.992,0,0,0-.925.633l-.784,2.015H259.108a3.263,3.263,0,0,0-3.091,2.215" transform="translate(-68.464 -91.303)" fill="none" stroke="#0e2837" stroke-width="1"/>
        <path id="Path_34808" data-name="Path 34808" d="M152.591,372.433H127.139a3.968,3.968,0,0,1-3.78-3.253l-2.834-17.772a2.707,2.707,0,0,1,2.743-3.253h25.451a3.968,3.968,0,0,1,3.78,3.253l2.834,17.772A2.707,2.707,0,0,1,152.591,372.433Z" transform="translate(-32.219 -93.103)" fill="none" stroke="#0e2837" stroke-width="1"/>
        <path id="Path_34809" data-name="Path 34809" d="M153.892,370.633a3.261,3.261,0,0,0,3.261-3.261V347.333a3.251,3.251,0,0,0-3.029-3.238l-.793-2.038a.992.992,0,0,0-.926-.633h-8.321a.992.992,0,0,0-.926.633l-.784,2.015H128.441a3.262,3.262,0,0,0-3.09,2.215" transform="translate(-33.521 -91.303)" fill="none" stroke="#0e2837" stroke-width="1"/>
        <path id="Path_34810" data-name="Path 34810" d="M217.925,372.433H192.473a3.968,3.968,0,0,1-3.78-3.253l-2.834-17.772a2.707,2.707,0,0,1,2.743-3.253h25.451a3.969,3.969,0,0,1,3.78,3.253l2.834,17.772A2.707,2.707,0,0,1,217.925,372.433Z" transform="translate(-49.691 -93.103)" fill="none" stroke="#0e2837" stroke-width="1"/>
        <path id="Path_34811" data-name="Path 34811" d="M219.226,370.633a3.261,3.261,0,0,0,3.261-3.261V347.333a3.251,3.251,0,0,0-3.029-3.238l-.793-2.038a.992.992,0,0,0-.926-.633h-8.321a.992.992,0,0,0-.926.633l-.784,2.015H193.775a3.262,3.262,0,0,0-3.09,2.215" transform="translate(-50.993 -91.303)" fill="none" stroke="#0e2837" stroke-width="1"/>
      </g>
    </g>
    <g id="Group_27997" data-name="Group 27997" transform="translate(41.271 31.215)">
      <g id="Group_27996" data-name="Group 27996" clip-path="url(#clip-path-2)">
        <rect id="Rectangle_20810" data-name="Rectangle 20810" width="164.522" height="218.686" transform="translate(0 0)" fill="url(#linear-gradient)"/>
      </g>
    </g>
    <g id="Group_28005" data-name="Group 28005">
      <g id="Group_28004" data-name="Group 28004" clip-path="url(#clip-path)">
        <g id="Group_28003" data-name="Group 28003" transform="translate(49.237 34.803)" opacity="0.3">
          <g id="Group_28002" data-name="Group 28002">
            <g id="Group_28001" data-name="Group 28001" clip-path="url(#clip-path-4)">
              <g id="Group_28000" data-name="Group 28000" opacity="0.7">
                <g id="Group_27999" data-name="Group 27999">
                  <g id="Group_27998" data-name="Group 27998" clip-path="url(#clip-path-4)">
                    <path id="Path_34813" data-name="Path 34813" d="M182.257,47.507l38.834,166.426S89.792,262.843,95.979,247.71c0,0-31.247-148.678-28.612-149.228S182.257,47.507,182.257,47.507" transform="translate(-67.21 -47.507)"/>
                  </g>
                </g>
              </g>
            </g>
          </g>
        </g>
        <path id="Path_34814" data-name="Path 34814" d="M216.475,210.089,103.242,246.038,75.522,101.584l-1.578-8.218,100.88-48.81a3.763,3.763,0,0,1,5.155,2.535l2.085,8.157L219.933,203.66a5.255,5.255,0,0,1-3.458,6.428" transform="translate(-19.774 -11.824)" fill="#fff"/>
      </g>
    </g>
    <g id="Group_28013" data-name="Group 28013" transform="translate(54.17 32.393)">
      <g id="Group_28012" data-name="Group 28012" clip-path="url(#clip-path-6)">
        <path id="Path_34815" data-name="Path 34815" d="M182.064,55.247l-105.734,48.4L73.944,93.366l100.88-48.81a3.763,3.763,0,0,1,5.155,2.535Z" transform="translate(-73.944 -44.217)" fill="#263238"/>
        <path id="Path_34816" data-name="Path 34816" d="M212.591,53.349a2.324,2.324,0,0,1-2.343,2.511,2.749,2.749,0,0,1-2.343-2.839,2.324,2.324,0,0,1,2.343-2.511,2.749,2.749,0,0,1,2.343,2.838" transform="translate(-109.768 -45.899)" fill="#92e3a9"/>
        <path id="Path_34817" data-name="Path 34817" d="M212.591,53.349a2.324,2.324,0,0,1-2.343,2.511,2.749,2.749,0,0,1-2.343-2.839,2.324,2.324,0,0,1,2.343-2.511A2.749,2.749,0,0,1,212.591,53.349Z" transform="translate(-109.768 -45.899)" fill="none" stroke="#263238" stroke-linecap="round" stroke-linejoin="round" stroke-width="1"/>
        <path id="Path_34818" data-name="Path 34818" d="M204.466,57.5a2.157,2.157,0,0,1-2.174,2.33,2.551,2.551,0,0,1-2.174-2.634,2.157,2.157,0,0,1,2.174-2.33,2.551,2.551,0,0,1,2.174,2.634" transform="translate(-107.685 -47.064)" fill="#92e3a9"/>
        <path id="Path_34819" data-name="Path 34819" d="M204.466,57.5a2.157,2.157,0,0,1-2.174,2.33,2.551,2.551,0,0,1-2.174-2.634,2.157,2.157,0,0,1,2.174-2.33A2.551,2.551,0,0,1,204.466,57.5Z" transform="translate(-107.685 -47.064)" fill="none" stroke="#263238" stroke-linecap="round" stroke-linejoin="round" stroke-width="1"/>
        <path id="Path_34820" data-name="Path 34820" d="M196.781,61.095a2.018,2.018,0,0,1-2.034,2.18,2.386,2.386,0,0,1-2.035-2.464,2.018,2.018,0,0,1,2.035-2.18,2.387,2.387,0,0,1,2.034,2.464" transform="translate(-105.705 -48.07)" fill="#92e3a9"/>
        <path id="Path_34821" data-name="Path 34821" d="M196.781,61.095a2.018,2.018,0,0,1-2.034,2.18,2.386,2.386,0,0,1-2.035-2.464,2.018,2.018,0,0,1,2.035-2.18A2.387,2.387,0,0,1,196.781,61.095Z" transform="translate(-105.705 -48.07)" fill="none" stroke="#263238" stroke-linecap="round" stroke-linejoin="round" stroke-width="1"/>
        <g id="Group_28011" data-name="Group 28011" transform="translate(0 0)" opacity="0.3">
          <g id="Group_28010" data-name="Group 28010">
            <g id="Group_28009" data-name="Group 28009" clip-path="url(#clip-path-7)">
              <g id="Group_28008" data-name="Group 28008" opacity="0.7">
                <g id="Group_28007" data-name="Group 28007">
                  <g id="Group_28006" data-name="Group 28006" clip-path="url(#clip-path-7)">
                    <path id="Path_34822" data-name="Path 34822" d="M216.475,210.089,103.242,246.038,75.522,101.584l-1.578-8.218,100.88-48.81a3.763,3.763,0,0,1,5.155,2.535l2.085,8.157L219.933,203.66a5.255,5.255,0,0,1-3.458,6.428" transform="translate(-73.944 -44.217)"/>
                  </g>
                </g>
              </g>
            </g>
          </g>
        </g>
      </g>
    </g>
    <g id="Group_28051" data-name="Group 28051">
      <g id="Group_28050" data-name="Group 28050" clip-path="url(#clip-path)">
        <path id="Path_34824" data-name="Path 34824" d="M216.475,210.089,103.242,246.038,75.522,101.584l-1.578-8.218,100.88-48.81a3.763,3.763,0,0,1,5.155,2.535l2.085,8.157L219.933,203.66A5.255,5.255,0,0,1,216.475,210.089Z" transform="translate(-19.774 -11.824)" fill="none" stroke="#263238" stroke-linecap="round" stroke-linejoin="round" stroke-width="1"/>
        <path id="Path_34825" data-name="Path 34825" d="M208.032,201.392l-111.7,43.86L68.982,102.736l-1.556-8.107L166.944,38.77a3.484,3.484,0,0,1,5.086,2.174l2.056,8.012,37.357,145.768a5.659,5.659,0,0,1-3.411,6.669" transform="translate(-18.031 -10.247)" fill="#fff"/>
        <path id="Path_34826" data-name="Path 34826" d="M208.032,201.392l-111.7,43.86L68.982,102.736l-1.556-8.107L166.944,38.77a3.484,3.484,0,0,1,5.086,2.174l2.056,8.012,37.357,145.768A5.659,5.659,0,0,1,208.032,201.392Z" transform="translate(-18.031 -10.247)" fill="none" stroke="#263238" stroke-linecap="round" stroke-linejoin="round" stroke-width="1"/>
        <path id="Path_34827" data-name="Path 34827" d="M174.085,48.955,69.78,104.74,67.425,94.628l99.518-55.859a3.484,3.484,0,0,1,5.086,2.174Z" transform="translate(-18.031 -10.247)" fill="#51a29c"/>
        <g id="Group_28019" data-name="Group 28019" transform="translate(150.569 41.763)" opacity="0.3">
          <g id="Group_28018" data-name="Group 28018">
            <g id="Group_28017" data-name="Group 28017" clip-path="url(#clip-path-10)">
              <g id="Group_28016" data-name="Group 28016" opacity="0.7">
                <g id="Group_28015" data-name="Group 28015">
                  <g id="Group_28014" data-name="Group 28014" clip-path="url(#clip-path-10)">
                    <path id="Path_34828" data-name="Path 34828" d="M209.839,57.555,242.733,186.35a1.115,1.115,0,0,1-.629,1.3l-3,1.329a1.1,1.1,0,0,1-1.509-.738L205.578,60.179A1.512,1.512,0,0,1,206.3,58.5l2.476-1.394a.726.726,0,0,1,1.061.453" transform="translate(-205.532 -57.008)"/>
                  </g>
                </g>
              </g>
            </g>
          </g>
        </g>
        <g id="Group_28022" data-name="Group 28022" transform="translate(95.793 189.503)" opacity="0.4">
          <g id="Group_28021" data-name="Group 28021">
            <g id="Group_28020" data-name="Group 28020" clip-path="url(#clip-path-12)">
              <line id="Line_88" data-name="Line 88" x1="71.951" y2="29.629" transform="translate(0.733 0.733)" fill="none" stroke="#000" stroke-linecap="round" stroke-linejoin="round" stroke-width="2"/>
            </g>
          </g>
        </g>
        <g id="Group_28025" data-name="Group 28025" transform="translate(86.066 180.472)" opacity="0.4">
          <g id="Group_28024" data-name="Group 28024">
            <g id="Group_28023" data-name="Group 28023" clip-path="url(#clip-path-13)">
              <line id="Line_89" data-name="Line 89" x1="91.404" y2="38.661" transform="translate(0.733 0.732)" fill="none" stroke="#000" stroke-linecap="round" stroke-linejoin="round" stroke-width="2"/>
            </g>
          </g>
        </g>
        <g id="Group_28031" data-name="Group 28031" transform="translate(141.859 110.959)" opacity="0.3">
          <g id="Group_28030" data-name="Group 28030">
            <g id="Group_28029" data-name="Group 28029" clip-path="url(#clip-path-14)">
              <g id="Group_28028" data-name="Group 28028" opacity="0.7">
                <g id="Group_28027" data-name="Group 28027">
                  <g id="Group_28026" data-name="Group 28026" clip-path="url(#clip-path-14)">
                    <path id="Path_34829" data-name="Path 34829" d="M221.006,182.826l-7.373-31.363-19.991,9.549,7.307,31.258Z" transform="translate(-193.642 -151.463)" fill="#ccc"/>
                  </g>
                </g>
              </g>
            </g>
          </g>
        </g>
        <g id="Group_28037" data-name="Group 28037" transform="translate(133.712 75.264)" opacity="0.3">
          <g id="Group_28036" data-name="Group 28036">
            <g id="Group_28035" data-name="Group 28035" clip-path="url(#clip-path-16)">
              <g id="Group_28034" data-name="Group 28034" opacity="0.7">
                <g id="Group_28033" data-name="Group 28033">
                  <g id="Group_28032" data-name="Group 28032" clip-path="url(#clip-path-16)">
                    <path id="Path_34830" data-name="Path 34830" d="M182.522,113.137l6.943,29.7,19.957-9.664-7.154-30.432Z" transform="translate(-182.522 -102.738)" fill="#ccc"/>
                  </g>
                </g>
              </g>
            </g>
          </g>
        </g>
        <g id="Group_28043" data-name="Group 28043" transform="translate(127.255 47.708)" opacity="0.3">
          <g id="Group_28042" data-name="Group 28042">
            <g id="Group_28041" data-name="Group 28041" clip-path="url(#clip-path-18)">
              <g id="Group_28040" data-name="Group 28040" opacity="0.7">
                <g id="Group_28039" data-name="Group 28039">
                  <g id="Group_28038" data-name="Group 28038" clip-path="url(#clip-path-18)">
                    <path id="Path_34831" data-name="Path 34831" d="M199.279,89.989l-5.845-24.865L173.707,75.456l5.845,25Z" transform="translate(-173.707 -65.123)" fill="#ccc"/>
                  </g>
                </g>
              </g>
            </g>
          </g>
        </g>
        <g id="Group_28049" data-name="Group 28049" transform="translate(149.891 145.846)" opacity="0.3">
          <g id="Group_28048" data-name="Group 28048">
            <g id="Group_28047" data-name="Group 28047" clip-path="url(#clip-path-20)">
              <g id="Group_28046" data-name="Group 28046" opacity="0.7">
                <g id="Group_28045" data-name="Group 28045">
                  <g id="Group_28044" data-name="Group 28044" clip-path="url(#clip-path-20)">
                    <path id="Path_34832" data-name="Path 34832" d="M204.607,208.1l6.725,28.764,20.233-8.862-6.8-28.921Z" transform="translate(-204.607 -199.085)" fill="#ccc"/>
                  </g>
                </g>
              </g>
            </g>
          </g>
        </g>
      </g>
    </g>
    <g id="Group_28053" data-name="Group 28053" transform="translate(64.999 27.294)">
      <g id="Group_28052" data-name="Group 28052" clip-path="url(#clip-path-22)">
        <path id="Path_34833" data-name="Path 34833" d="M151.984,67.842c-.043-.071-.087-.144-.127-.217a5.4,5.4,0,0,1-.577-1.784,10.938,10.938,0,0,1-.093-2.5,18.072,18.072,0,0,1,.4-2.693,15.63,15.63,0,0,1,.791-2.547,10.606,10.606,0,0,1,1.107-2.065,4.038,4.038,0,0,1,1.305-1.267.953.953,0,0,1,.889-.1,1.556,1.556,0,0,1,.672.661l.039.07a4.207,4.207,0,0,1,.391,1.086,12.68,12.68,0,0,1,.223,1.368,7.779,7.779,0,0,1,.034,1.338,4.924,4.924,0,0,1-.147,1.007,1.8,1.8,0,0,1-.183.356c-.018.021-.036.046-.041.049a.007.007,0,0,1-.01,0,.374.374,0,0,1,.027-.152q0-.378.007-.862t-.025-.982a5.874,5.874,0,0,0-.142-.936,2.022,2.022,0,0,0-.193-.519,1.944,1.944,0,0,0-.136-.207.943.943,0,0,0-.815-.429,1.362,1.362,0,0,0-.557.173,2.621,2.621,0,0,0-.394.281,5.154,5.154,0,0,0-.963,1.2,9.6,9.6,0,0,0-.856,1.843,14.72,14.72,0,0,0-.674,2.635,10.541,10.541,0,0,0-.142,2.481,3.3,3.3,0,0,0,.344,1.326,1.666,1.666,0,0,0,.211.307c.314.365.789.395,1.421.1a2.425,2.425,0,0,0,.235-.106,1.066,1.066,0,0,0,.343-.28c.12-.158.274-.357.459-.6a.482.482,0,0,1,.123-.159c.005,0,.01,0,.012,0,.032-.006.075.046.133.152a2.1,2.1,0,0,1-.146,1.35,2.42,2.42,0,0,1-.822,1c-.054.034-.116.075-.169.1a1.761,1.761,0,0,1-.954.22,1.241,1.241,0,0,1-1-.7m2.04,6.7q.257-.656.767-1.657t1.035-2.2c.347-.8.668-1.642.954-2.53a11.891,11.891,0,0,0,.537-2.7c-.01-.018-.119,0-.333.045a7.308,7.308,0,0,1-.722.122,4.175,4.175,0,0,1-.812.015.733.733,0,0,1-.584-.278c-.013-.023-.029-.045-.042-.068a2.55,2.55,0,0,1-.229-.8,6.312,6.312,0,0,1-.064-1.3,5.11,5.11,0,0,1,.212-1.264,1.256,1.256,0,0,1,.546-.781c.018-.01.034-.023.051-.032a.681.681,0,0,1,.825.1,3.208,3.208,0,0,1,.727.919,8.414,8.414,0,0,1,.523,1.138c.141.38.221.61.245.689.009.015.073.013.2-.007a3.938,3.938,0,0,1,.435-.053,1.244,1.244,0,0,1,.453.045.381.381,0,0,1,.241.177c.008.015.015.041.023.056.023.125.051.341.086.654a1.019,1.019,0,0,1-.062.637,1.265,1.265,0,0,0-.629-.155c-.175.016-.413.041-.717.07a14.794,14.794,0,0,1-1.037,4.875,19.566,19.566,0,0,1-2.486,4.543.312.312,0,0,1-.075.086c-.023.012-.048,0-.065-.029a.517.517,0,0,1-.005-.321m1.025-10.722c.008.015.016.037.024.051a.491.491,0,0,0,.355.236,2.118,2.118,0,0,0,.619.038c.22-.018.431-.042.631-.073s.332-.049.394-.061a4.043,4.043,0,0,0-.234-.489,2.033,2.033,0,0,0-.377-.5,1.208,1.208,0,0,0-.5-.289.818.818,0,0,0-.629.105.77.77,0,0,0-.281.979" transform="translate(-105.421 -41.895)" fill="#e9ecef"/>
        <path id="Path_34834" data-name="Path 34834" d="M165.609,69.464h0a13,13,0,0,1-.245,1.788q-1.686,1.92-4.952,6.031-1.792,2.5-1.756,2.478c-.075-.022-.09-.251-.045-.685a3.59,3.59,0,0,1,.306-1.161,16.989,16.989,0,0,1,2.032-3.007q2.134-2.734,4.66-5.445" transform="translate(-107.408 -45.87)" fill="#e9ecef"/>
        <path id="Path_34835" data-name="Path 34835" d="M185.945,55.72h0a2.144,2.144,0,0,1,.219,1.344,1.545,1.545,0,0,1-.733,1.16q-.979.54-1.618-.622a7.477,7.477,0,0,1-.634-2.014,5.609,5.609,0,0,0-.6-1.607,3.639,3.639,0,0,0-2.968-1.959c-.075-.022-.151-.217-.227-.585a1.681,1.681,0,0,1-.078-.572q.254-.14,1.313.412a5.386,5.386,0,0,1,2.218,2.229,3.806,3.806,0,0,1,.308.776,3.507,3.507,0,0,0,.268.7.561.561,0,0,0,.3.118q1.79-.181,2.229.617m-.276.53h0q-.06-.109-.843-.2a3.477,3.477,0,0,0-.854-.051q-.146.08-.073.514a2.112,2.112,0,0,0,.173.615.587.587,0,0,0,.9.262,1.7,1.7,0,0,0,.468-.566c.193-.311.268-.5.229-.575" transform="translate(-112.949 -40.889)" fill="#e9ecef"/>
        <path id="Path_34836" data-name="Path 34836" d="M120.781,95.135h0a.036.036,0,0,1,.051.007l.005.009a2.432,2.432,0,0,1-.321,2.209,6.124,6.124,0,0,1-2.627,2.483,7.908,7.908,0,0,1-2.52.96q-1.068.162-1.1.182-.181.1-.273.623c-.061.349-.127.544-.2.583a.148.148,0,0,1-.169-.049,2.61,2.61,0,0,1-.122-1.256q.033-1.058.5-1.317a9.738,9.738,0,0,0,1.234-.205,8.245,8.245,0,0,0,2.467-.883,6.635,6.635,0,0,0,2.579-2.269q.588-1.08.5-1.075" transform="translate(-95.348 -52.733)" fill="#e9ecef"/>
        <path id="Path_34837" data-name="Path 34837" d="M194.325,46.5h0q.275.08.487.886.271.774.035.9l-.614-.278a1.122,1.122,0,0,0-1.028-.05q-.827.455.524,3.752t1.024,3.4q-.355.2-1.516-.936a5.878,5.878,0,0,0-3.058-1.782,1.057,1.057,0,0,1-.048.334q-.144.156-1.186.152t-1.3-.327q-1.055-1.5-.286-1.92,1.386-.838,4.671,1.356a16.162,16.162,0,0,0,1.462,1.12q-.635-1.575-1.152-3.215-1.023-2.978.015-3.471a2.227,2.227,0,0,1,1.965.074" transform="translate(-115.017 -39.656)" fill="#e9ecef"/>
        <path id="Path_34838" data-name="Path 34838" d="M131.963,88.826h0c.068.02.13.131.183.333s.073.308.013.341l-.231-.1a.422.422,0,0,0-.387-.019q-.311.171.2,1.412t.385,1.279q-.134.073-.571-.352a2.205,2.205,0,0,0-1.149-.671.4.4,0,0,1-.018.125c-.037.04-.185.058-.447.056s-.424-.042-.488-.123q-.4-.563-.108-.722.522-.315,1.758.511a6.005,6.005,0,0,0,.55.421q-.24-.592-.434-1.21-.385-1.121.006-1.307a.84.84,0,0,1,.739.028" transform="translate(-99.556 -51.02)" fill="#e9ecef"/>
        <path id="Path_34839" data-name="Path 34839" d="M116.076,88.88h0q.678,1.233-.229,1.733a.96.96,0,0,1-.757.084c-.137-.019-.208.052-.215.212A1.6,1.6,0,0,1,114,92.241a1.094,1.094,0,0,1-.625.154,2.116,2.116,0,0,0-1.758,1.014,11.8,11.8,0,0,0-.9,2.148q-.354.9-.671,1.787a12.473,12.473,0,0,1-1.709,2.735,6.116,6.116,0,0,1-1.3,1.33c-.073.04-.122.036-.149-.012a1.317,1.317,0,0,1,.28-.438,14,14,0,0,0,1.128-1.471,15.251,15.251,0,0,0,1.77-4A9.128,9.128,0,0,1,111.4,92.4a1.584,1.584,0,0,1,1.448-.891,1.152,1.152,0,0,0,.738-.122,1.393,1.393,0,0,0,.755-1.549q-.118-.645.136-.785c.048-.026.094.028.136.162q.111.459.223.492a.7.7,0,0,0,.826-.218q.287-.252-.087-.33a.251.251,0,0,1-.255-.248.358.358,0,0,1,0-.04q-.062-.629.011-.668.291-.16.749.674" transform="translate(-93.584 -50.875)" fill="#e9ecef"/>
        <path id="Path_34840" data-name="Path 34840" d="M92.978,103.434a1.088,1.088,0,0,0,.788-.007,4.747,4.747,0,0,0,.651-.292c.052-.029.1-.059.154-.089a6.029,6.029,0,0,0,.883-.649,1.043,1.043,0,0,0-.765-.524,1.564,1.564,0,0,0-.886.141c-.029.013-.06.031-.088.046a1.653,1.653,0,0,0-.59.55.986.986,0,0,0-.147.823m2.125,1.76-.149.062a3.194,3.194,0,0,1-.966.217,1.966,1.966,0,0,1-.669-.07,2.141,2.141,0,0,1-.677-.328,2.258,2.258,0,0,1-.615-.711c-.016-.029-.034-.059-.05-.088a3.145,3.145,0,0,1-.365-1.056,2.9,2.9,0,0,1,.041-1.142,2.749,2.749,0,0,1,.494-1.023,2.919,2.919,0,0,1,.935-.79,1.2,1.2,0,0,1,.788-.137,2.158,2.158,0,0,1,.8.311,3.246,3.246,0,0,1,.713.615,3.694,3.694,0,0,1,.464.655c.02.037.041.079.06.114a10.651,10.651,0,0,0,.532-1.228q.193-.554.311-1.026c.075-.314.136-.607.174-.878s.087-.533.141-.78a.1.1,0,0,1,.045-.057c.007,0,.013,0,.02-.009a.163.163,0,0,1,.1,0,.662.662,0,0,1,.259.305l.031.056c.106.206.209.423.309.653q.153.425.323.921a12.314,12.314,0,0,1-.419,1.971c-.2.672-.367,1.3-.5,1.892.055.122.116.249.179.365a4.874,4.874,0,0,0,.45.673q.386.479.759.864a.334.334,0,0,1,.05.065.072.072,0,0,1,0,.092s-.012.01-.017.012a.167.167,0,0,1-.152-.021,4.7,4.7,0,0,1-.533-.346c-.184-.136-.349-.267-.492-.392s-.262-.225-.357-.3-.144-.1-.161-.088l-.007.006q-.42,1-.819,2.089a16.865,16.865,0,0,0-.64,2.163,9.972,9.972,0,0,0-.248,2.078,4.491,4.491,0,0,0,.335,1.809c.058.127.118.256.181.371a3.188,3.188,0,0,0,.862,1.029,3.421,3.421,0,0,0,1.424.632,5.313,5.313,0,0,0,1.675.034,9.844,9.844,0,0,0,1.771-.4,14.593,14.593,0,0,0,1.706-.662q.826-.384,1.5-.752a18.942,18.942,0,0,0,2.627-1.738,23.889,23.889,0,0,0,2.307-2.082q1.082-1.114,2.058-2.333t1.887-2.513a.808.808,0,0,1,.214-.226.093.093,0,0,1,.071-.012.055.055,0,0,1,.026.023c.023.042,0,.14-.07.285a21.79,21.79,0,0,1-1.881,3.19,22.8,22.8,0,0,1-2.419,2.877,23.815,23.815,0,0,1-2.861,2.459,22.937,22.937,0,0,1-2.422,1.541c-.245.136-.5.27-.748.394a11.082,11.082,0,0,1-2.39.858,7.569,7.569,0,0,1-2.459.181,5.43,5.43,0,0,1-2.227-.708,4.591,4.591,0,0,1-1.706-1.829c-.018-.033-.039-.067-.056-.1a5.327,5.327,0,0,1-.589-1.629,8.234,8.234,0,0,1-.133-1.718,8.33,8.33,0,0,1,.2-1.609c.116-.511.245-.976.382-1.39s.264-.769.38-1.064a4.742,4.742,0,0,0,.214-.626" transform="translate(-89.488 -53.456)" fill="#e9ecef"/>
        <path id="Path_34841" data-name="Path 34841" d="M200.9,44.477a.941.941,0,0,0,.683-.006,4.044,4.044,0,0,0,.563-.253c.045-.025.09-.051.134-.077a5.312,5.312,0,0,0,.764-.562.9.9,0,0,0-.663-.454,1.352,1.352,0,0,0-.767.122c-.025.012-.051.026-.076.04a1.442,1.442,0,0,0-.511.477.855.855,0,0,0-.127.713M202.745,46l-.129.053a2.558,2.558,0,0,1-.343.11,2.675,2.675,0,0,1-.494.078,1.7,1.7,0,0,1-.579-.061,1.847,1.847,0,0,1-.587-.284,1.956,1.956,0,0,1-.533-.615c-.014-.026-.029-.051-.043-.076a2.722,2.722,0,0,1-.315-.915,2.5,2.5,0,0,1,.035-.99,2.371,2.371,0,0,1,.427-.886,2.524,2.524,0,0,1,.81-.684,1.034,1.034,0,0,1,.682-.119,1.874,1.874,0,0,1,.7.27,2.814,2.814,0,0,1,.617.532,3.146,3.146,0,0,1,.4.568c.018.032.036.068.053.1a9.172,9.172,0,0,0,.461-1.064q.167-.48.268-.888c.066-.272.119-.525.152-.76s.075-.462.122-.676a.083.083,0,0,1,.04-.049l.018-.008a.137.137,0,0,1,.086,0,.575.575,0,0,1,.223.264l.027.048c.092.179.182.366.267.566q.132.368.28.8a10.688,10.688,0,0,1-.363,1.707q-.257.874-.434,1.639c.048.105.1.215.156.316a4.2,4.2,0,0,0,.389.583q.335.415.659.748a.3.3,0,0,1,.043.056.062.062,0,0,1,0,.08l-.014.01a.142.142,0,0,1-.131-.018,4.133,4.133,0,0,1-.463-.3c-.159-.117-.3-.231-.426-.339s-.226-.195-.309-.261-.125-.084-.139-.076l-.006.005q-.364.87-.71,1.81a14.716,14.716,0,0,0-.554,1.872,8.658,8.658,0,0,0-.214,1.8,3.883,3.883,0,0,0,.29,1.568c.051.11.1.222.157.322a2.771,2.771,0,0,0,.747.891,2.97,2.97,0,0,0,1.234.548,4.593,4.593,0,0,0,1.451.029,8.529,8.529,0,0,0,1.535-.343,12.55,12.55,0,0,0,1.478-.574c.478-.221.908-.439,1.3-.652a16.374,16.374,0,0,0,2.275-1.506,20.618,20.618,0,0,0,2-1.8q.937-.966,1.782-2.021t1.634-2.177a.7.7,0,0,1,.185-.2.085.085,0,0,1,.061-.01.047.047,0,0,1,.023.021c.02.036,0,.121-.061.246a18.953,18.953,0,0,1-1.628,2.764,19.741,19.741,0,0,1-2.1,2.492,20.613,20.613,0,0,1-2.478,2.13,19.926,19.926,0,0,1-2.1,1.335c-.213.117-.431.234-.649.341a9.558,9.558,0,0,1-2.07.743,6.554,6.554,0,0,1-2.13.157,4.692,4.692,0,0,1-1.929-.613,3.976,3.976,0,0,1-1.478-1.584c-.015-.029-.033-.058-.049-.086a4.635,4.635,0,0,1-.51-1.411,7.135,7.135,0,0,1-.115-1.488,7.253,7.253,0,0,1,.176-1.393c.1-.443.213-.845.331-1.2s.229-.666.33-.922a4.037,4.037,0,0,0,.185-.542" transform="translate(-118.4 -37.89)" fill="#e9ecef"/>
        <path id="Path_34842" data-name="Path 34842" d="M174.989,71.7a2.921,2.921,0,0,0,.992-.94,5.264,5.264,0,0,0,.674-1.405,6.193,6.193,0,0,0,.278-1.614,4.775,4.775,0,0,0-.195-1.588c-.045-.1-.083-.186-.116-.247a.458.458,0,0,0-.086-.119.082.082,0,0,0-.094-.005.324.324,0,0,0-.069.062c-.059.073-.146.182-.257.325a2.156,2.156,0,0,1-.491.431c-.059.04-.122.081-.179.112a.971.971,0,0,1-.845.107,1.607,1.607,0,0,1-.777-.77,3.672,3.672,0,0,1-.259-.617,2.952,2.952,0,0,1-.145-.744,1.784,1.784,0,0,1,.092-.7.905.905,0,0,1,.44-.506,1.485,1.485,0,0,1,.919-.169,2.1,2.1,0,0,1,.864.356,3.8,3.8,0,0,1,.784.725,6.033,6.033,0,0,1,.637.937,5.891,5.891,0,0,1,.476,1.2,8.737,8.737,0,0,1,.286,1.477,9.992,9.992,0,0,1,.039,1.581,6.071,6.071,0,0,1-.28,1.534,4.938,4.938,0,0,1-.667,1.329,3.123,3.123,0,0,1-1.037.915l-.07.037a2.84,2.84,0,0,1-1.5.389,3.323,3.323,0,0,1-1.369-.354,4.127,4.127,0,0,1-1.148-.87,5.717,5.717,0,0,1-.849-1.156,5.947,5.947,0,0,1-.638-1.787,11.055,11.055,0,0,1-.191-1.915,12.931,12.931,0,0,1,.106-1.9q.12-.938.275-1.763c.1-.55.2-1.048.293-1.491a8.421,8.421,0,0,0,.171-1.088,2.015,2.015,0,0,0-.069-.864c-.081-.22-.146-.412-.194-.574a.127.127,0,0,1-.013-.114.038.038,0,0,1,.013-.019c.019-.01.051.007.091.042a2.907,2.907,0,0,1,.272.257,1.743,1.743,0,0,1,.267.369c.01.018.023.046.033.065a2.334,2.334,0,0,1,.2.628,2.731,2.731,0,0,1,.01.846c-.1.688-.216,1.429-.368,2.221a23.273,23.273,0,0,0-.326,2.392,10.991,10.991,0,0,0,.045,2.307,4.328,4.328,0,0,0,.486,1.535,3.847,3.847,0,0,0,.253.4,2.47,2.47,0,0,0,1.491,1.108,2.6,2.6,0,0,0,1.733-.365" transform="translate(-110.517 -43.31)" fill="#e9ecef"/>
        <path id="Path_34843" data-name="Path 34843" d="M128.717,84.3h0q.938,1.7-.586,2.543-.762.419-1.281-.525a4.161,4.161,0,0,1-.448-2.447q-.138-.681-.029-.74c.073-.04.111,0,.116.125a1.315,1.315,0,0,0,.131.5q1.837.076,2.1.548m-.235.6h0a2.072,2.072,0,0,0-.777-.164,5.054,5.054,0,0,0-.772-.073c-.048.026-.048.185,0,.473a2.164,2.164,0,0,0,.152.579.4.4,0,0,0,.518.235.382.382,0,0,0,.1-.056,2.206,2.206,0,0,0,.508-.492q.327-.393.269-.5" transform="translate(-98.781 -49.52)" fill="#e9ecef"/>
        <path id="Path_34844" data-name="Path 34844" d="M180.082,57.061h0q.149.043.264.481c.1.28.1.444.019.491l-.333-.151a.61.61,0,0,0-.559-.027q-.449.247.284,2.037t.556,1.846q-.192.107-.823-.508a3.193,3.193,0,0,0-1.661-.968.586.586,0,0,1-.025.182q-.079.085-.645.083t-.7-.178q-.573-.813-.155-1.043.753-.455,2.536.737a8.888,8.888,0,0,0,.794.607q-.345-.855-.626-1.745-.555-1.616.008-1.885a1.21,1.21,0,0,1,1.067.04" transform="translate(-112.099 -42.514)" fill="#e9ecef"/>
        <path id="Path_34845" data-name="Path 34845" d="M107.472,104.264h0a3.809,3.809,0,0,1-1.954,2.634q-1.524.838-2.062-.141a2.854,2.854,0,0,1-.212-2.1q.049-.168.692-1.75a3.926,3.926,0,0,0-.894.35,1.851,1.851,0,0,0-.912.833c-.033.112-.087.158-.162.136-.062,0-.1-.059-.1-.182a1.909,1.909,0,0,1,.158-1.174,2.666,2.666,0,0,1,.936-.7q1.088-.6,1.308-.2a2.659,2.659,0,0,1-.223,2.344q-.653,1.3-.394,1.776c.081.145.29.211.63.2a1.945,1.945,0,0,0,.872-.219,5.19,5.19,0,0,0,2.039-1.877c.081-.139.152-.21.214-.212.086-.016.108.082.067.294" transform="translate(-92.232 -54.518)" fill="#e9ecef"/>
        <path id="Path_34846" data-name="Path 34846" d="M166.689,63.793h0a1.918,1.918,0,0,1-.093,1.894,7.7,7.7,0,0,1-1.689,1.827,12.246,12.246,0,0,1-2.126,1.547,4.241,4.241,0,0,1-1.051.152c-.6.048-.925.036-.965-.037q-.041-.073.831-.552a8.4,8.4,0,0,0,1.516-1.023,4.859,4.859,0,0,0,.684-1.935,4.651,4.651,0,0,0-.281-1.971q-.419-.762-.964-.462-.326.18-.357.812c.007.185-.049.168-.169-.049a1.519,1.519,0,0,1-.105-.794q.064-.745.354-.9.725-.4,1.224.508a4.836,4.836,0,0,1,.516,1.37q.055.443.145.865A3.161,3.161,0,0,1,165,63.729q1.269-.7,1.689.064m-.4.739h0q-.04-.073-.455-.01a1.918,1.918,0,0,0-.56.143,2.639,2.639,0,0,0-.987,1.3q-.445.908-.327,1.125a10.23,10.23,0,0,0,1.566-1.406q.88-.933.761-1.151" transform="translate(-107.991 -43.921)" fill="#e9ecef"/>
        <path id="Path_34847" data-name="Path 34847" d="M125.424,92.44h0a8.69,8.69,0,0,1-.41,2.688,8.5,8.5,0,0,1-2.163,3.589q-.712.689-.955.572-.08-.079.354-.6a8.835,8.835,0,0,0,2.338-5.714q-.038-3.444-4.4-6.4a21.157,21.157,0,0,0-2.659-1.431q-1.57-.724-1.651-.783a3.18,3.18,0,0,1-.053-1.1,6.293,6.293,0,0,1,.068-1.082q.2-.163,3.7,1.8,5.765,3.3,5.823,8.465" transform="translate(-95.972 -49.266)" fill="#e9ecef"/>
        <path id="Path_34848" data-name="Path 34848" d="M190.411,61.874l-.071,2.448-2.094-.029.07-2.448Z" transform="translate(-115.34 -43.832)" fill="#e9ecef"/>
        <path id="Path_34849" data-name="Path 34849" d="M107.285,94.179l2.448.071-.029,2.1-2.449-.071Z" transform="translate(-93.681 -52.479)" fill="#e9ecef"/>
        <path id="Path_34850" data-name="Path 34850" d="M104.72,95.59l2.448.071-.029,2.1-2.449-.071Z" transform="translate(-92.995 -52.856)" fill="#e9ecef"/>
        <path id="Path_34851" data-name="Path 34851" d="M140.253,79.469l2.448.071-.029,2.1-2.449-.071Z" transform="translate(-102.498 -48.545)" fill="#e9ecef"/>
        <path id="Path_34852" data-name="Path 34852" d="M137.688,80.88l2.448.071-.029,2.1-2.449-.071Z" transform="translate(-101.812 -48.923)" fill="#e9ecef"/>
        <path id="Path_34853" data-name="Path 34853" d="M120.32,92.477l1.721.05L122.02,94l-1.721-.05Z" transform="translate(-97.17 -52.024)" fill="#e9ecef"/>
        <path id="Path_34854" data-name="Path 34854" d="M118.519,93.467l1.721.05-.021,1.472-1.721-.05Z" transform="translate(-96.688 -52.289)" fill="#e9ecef"/>
        <path id="Path_34855" data-name="Path 34855" d="M130.874,76.486c.134.295.311.653.529,1.048.063.114.132.24.2.364a9.4,9.4,0,0,0,1.172,1.625,8.265,8.265,0,0,0,1.612,1.4,4.548,4.548,0,0,0,2.045.735,3.382,3.382,0,0,0,2.129-.357l.124-.064a5.78,5.78,0,0,0,1.694-1.449,10.253,10.253,0,0,0,1.413-2.341,13.435,13.435,0,0,0,.9-2.843,15.523,15.523,0,0,0,.313-3.035,10.5,10.5,0,0,0-.374-2.922,3.794,3.794,0,0,0-.227-.64.165.165,0,0,0-.255-.066,2.844,2.844,0,0,0-.468.369,10.256,10.256,0,0,1-.837.662c-.084.056-.175.113-.255.157a1.438,1.438,0,0,1-1.363.107,2.805,2.805,0,0,1-1.238-1.259,5.674,5.674,0,0,1-.4-.951,4.557,4.557,0,0,1-.223-1.145,2.791,2.791,0,0,1,.141-1.078,1.413,1.413,0,0,1,.68-.78,2.3,2.3,0,0,1,1.418-.262,3.266,3.266,0,0,1,1.333.549,5.825,5.825,0,0,1,1.209,1.118,9.511,9.511,0,0,1,.979,1.446c.052.08.1.168.151.254a8.341,8.341,0,0,1,.735,1.949,15.7,15.7,0,0,1,.432,2.828,20.956,20.956,0,0,1-.041,3.137,17.121,17.121,0,0,1-.548,3.117,12.586,12.586,0,0,1-1.111,2.752,7.229,7.229,0,0,1-1.681,2.081,4.989,4.989,0,0,1-2.3,1.075,5.893,5.893,0,0,1-2.949-.286,6.194,6.194,0,0,1-1.927-1.207,11.354,11.354,0,0,1-1.6-1.777,15.251,15.251,0,0,1-1-1.571c-.081-.147-.158-.292-.233-.442a12.984,12.984,0,0,1-.809-1.951c-.147-.647-.15-1.013-.007-1.092.118-.064.282.1.486.467.044.08.092.181.144.281" transform="translate(-99.801 -44.338)" fill="#e9ecef"/>
      </g>
    </g>
    <g id="Group_28055" data-name="Group 28055" transform="translate(41.271 15.547)">
      <g id="Group_28054" data-name="Group 28054" clip-path="url(#clip-path-23)">
        <rect id="Rectangle_20830" data-name="Rectangle 20830" width="120.266" height="227.803" transform="translate(0 0)" fill="url(#linear-gradient-2)"/>
      </g>
    </g>
    <g id="Group_28063" data-name="Group 28063">
      <g id="Group_28062" data-name="Group 28062" clip-path="url(#clip-path)">
        <g id="Group_28058" data-name="Group 28058" transform="translate(150.658 156.277)" opacity="0.7">
          <g id="Group_28057" data-name="Group 28057">
            <g id="Group_28056" data-name="Group 28056" clip-path="url(#clip-path-25)">
              <path id="Path_34857" data-name="Path 34857" d="M209.383,224.411a2.085,2.085,0,0,1-2.024-1.593q-.842-3.463-1.651-6.935a2.084,2.084,0,0,1,4.059-.949q.808,3.454,1.643,6.9a2.083,2.083,0,0,1-1.533,2.517,2.115,2.115,0,0,1-.493.059" transform="translate(-205.653 -213.324)" fill="#fff"/>
            </g>
          </g>
        </g>
        <g id="Group_28061" data-name="Group 28061" transform="translate(50.203 17.63)" opacity="0.7">
          <g id="Group_28060" data-name="Group 28060">
            <g id="Group_28059" data-name="Group 28059" clip-path="url(#clip-path-26)">
              <path id="Path_34858" data-name="Path 34858" d="M168.458,155.251a2.085,2.085,0,0,1-2.03-1.622L137.91,28.433a.241.241,0,0,0-.155-.182.228.228,0,0,0-.231.024c-7.321,4.874-32.1,21.49-43.581,30.675A153.715,153.715,0,0,0,72.237,81.611,2.084,2.084,0,1,1,68.988,79,157.653,157.653,0,0,1,91.307,55.721c11.329-9.063,34.478-24.639,43.907-30.916a4.421,4.421,0,0,1,6.761,2.7L170.492,152.7a2.084,2.084,0,0,1-1.57,2.5,2.062,2.062,0,0,1-.464.053" transform="translate(-68.528 -24.065)" fill="#fff"/>
            </g>
          </g>
        </g>
      </g>
    </g>
    <g id="Group_28065" data-name="Group 28065">
      <g id="Group_28064" data-name="Group 28064" clip-path="url(#clip-path)">
        <path id="Path_34859" data-name="Path 34859" d="M131.552,190.279q-1.11-.032-1.6,2.864-.277,1.57-.524,3.142a9.65,9.65,0,0,1-.647-1.6q-1.694-3.265-3.234-3.2-.8,0-.648,1.725.062.367.924.83a2.862,2.862,0,0,0,1.048.432,1.148,1.148,0,0,0,.215-.278,5.955,5.955,0,0,1,1.694,2.864q.431,1.416.831,1.448.278.03.662-3.281t1.278-3.31a1.059,1.059,0,0,1,.815.508,2.831,2.831,0,0,1,.354.508c.184,0,.318-.246.4-.739a1.415,1.415,0,0,0,0-.955h0A2.165,2.165,0,0,0,131.552,190.279Z" transform="translate(-33.394 -50.884)" fill="none" stroke="#fff" stroke-width="0.25"/>
        <path id="Path_34860" data-name="Path 34860" d="M127.514,173.41c.01-.007,0-.053-.012-.123a9.5,9.5,0,0,0-.913.46,3.9,3.9,0,0,0-.841.81,4.667,4.667,0,0,0-.824,3.466,2.663,2.663,0,0,0,.692,1.533,1.448,1.448,0,0,0,1.57.349,1.553,1.553,0,0,0,.64-1.891,5.266,5.266,0,0,0-.82-1.337,3.094,3.094,0,0,1-.544-1.056A2.019,2.019,0,0,1,127.514,173.41Z" transform="translate(-33.392 -46.34)" fill="none" stroke="#fff" stroke-width="0.25"/>
        <path id="Path_34861" data-name="Path 34861" d="M152.249,156.3h0q-2.507.005-11.072,3.478c-.388.131-1.139.421-1.236.421h0a23.185,23.185,0,0,0-3.7-5.625q-2.344-2.522-4.357-2.522-2.663,0-5.069,2.85a10.7,10.7,0,0,0-2.535,7.055q0,5.249,7.666,5.246a17.886,17.886,0,0,0,5.523-.659,6.366,6.366,0,0,1,.39,2.136q0,1.429-4.538,5.759a58.579,58.579,0,0,1-10.505,8.093c-4.288,2.595-7.98,3.935-11.091,4.053a18.556,18.556,0,0,0,.807-1.752,38.321,38.321,0,0,0,2.49-14.363c0-1.186-.231-5.169-.694-11.92q5.076-5.512,10.147-11.051,9.258-9.338,16.433-9.346a6.315,6.315,0,0,1,5.891,3.464c.271.5.46.746.573.741.091.005.25-.24.475-.741a11.534,11.534,0,0,0,.91-4.742,4.867,4.867,0,0,0-1.922-3.806,6.931,6.931,0,0,0-4.614-1.635q-9.359.01-21.216,12.841-5.017,5.427-7.138,7.7c-.12-1.688-.249-3.479-.388-5.393q-1.546-21.226-1.546-21.548c0-.6.118-.743.351-.42q2.985,3.4,2.985,1.854a5.983,5.983,0,0,0-.28-1.47q-.351-1.29-2.493-6.9-2.038-5.391-2.6-6.586c-.187-.395-.348-.592-.492-.6-.115,0-.255.19-.42.563q-1.966,4.593-1.966,5.815a12.742,12.742,0,0,1,1.051,5.535q0,2.907,1.722,27.22c.133,1.887.259,3.675.377,5.373-2.344,1.772-4.458,2.667-6.339,2.667a4.361,4.361,0,0,1-3.675-1.712,6.663,6.663,0,0,1-1.241-4.236q0-3.457,2.223-9.428t2.223-6.975c0-.153-.046-.24-.138-.27q-.3.008-.843,1.042-5.115,10-5.115,16.2a11.492,11.492,0,0,0,2.626,7.628,7.406,7.406,0,0,0,5.825,2.99h0a9.131,9.131,0,0,0,4.884-1.627q.911,13.567.912,16.017a58.518,58.518,0,0,1-.315,6.519,13.6,13.6,0,0,0-.143,2.361q-5.335-.068-7.755-3.354a9.6,9.6,0,0,1-1.685-5.691,42.378,42.378,0,0,1,2-10.606,6.232,6.232,0,0,0,.256-1.49c0-.168-.041-.278-.13-.322q-.255,0-.907,1.554a36.679,36.679,0,0,0-2.853,13.782,13.981,13.981,0,0,0,2.592,8.671,9.654,9.654,0,0,0,8.236,3.947q6.356,0,14.851-6.409a69.228,69.228,0,0,0,10.571-9.968,16.9,16.9,0,0,0,3.241-6.088,15.527,15.527,0,0,0,.911-4.662l1.228-.528q6.033-2.392,8.664-2.4a2.918,2.918,0,0,1,2.237.746q-7.425,7.77-9.176,13.53a15.4,15.4,0,0,0-.713,3.009c0,.129.033.207.1.226q.323,0,2.075-3.235a33.09,33.09,0,0,1,3.7-5.083q3.537-4.205,4.152-5.018,1.2-1.582,2.367-3.138a8.784,8.784,0,0,0,1.426-4.691Q156.432,156.307,152.249,156.3Zm-20.756,4.935q-3.959,0-3.959-1.861,0-1.475,2.857-1.478,1.948,0,4.221,2.955A13.985,13.985,0,0,1,131.492,161.237Z" transform="translate(-26.009 -29.661)" fill="none" stroke="#fff" stroke-width="0.25"/>
        <path id="Path_34862" data-name="Path 34862" d="M127.009,145.907q1.147,0,1.672-1.905h0q.292-1.051-.039-1.05-.078,0-.272.349a5.369,5.369,0,0,1-.408.642.8.8,0,0,1-.6.273,1.022,1.022,0,0,1-.933-.641,4.219,4.219,0,0,1-.155-2.7q.738-3.189,1.127-4.335a2.91,2.91,0,0,0,.194-.856c0-.1-.026-.161-.078-.174q-.214,0-.564.875a26.207,26.207,0,0,0-1.283,4.3,13.983,13.983,0,0,0-.292,2.411,4.318,4.318,0,0,0,.661,2.313A1.06,1.06,0,0,0,127.009,145.907Z" transform="translate(-33.528 -36.237)" fill="none" stroke="#fff" stroke-width="0.25"/>
        <path id="Path_34863" data-name="Path 34863" d="M110.249,190.956a2.935,2.935,0,0,0,.195-.856c0-.1-.027-.161-.078-.174q-.214,0-.563.875a26.139,26.139,0,0,0-1.283,4.3,14.057,14.057,0,0,0-.292,2.411,4.314,4.314,0,0,0,.661,2.314,1.06,1.06,0,0,0,.972.505q1.147,0,1.672-1.9.291-1.051-.039-1.051-.078,0-.272.35a5.369,5.369,0,0,1-.408.642.8.8,0,0,1-.6.273,1.023,1.023,0,0,1-.933-.642,4.224,4.224,0,0,1-.155-2.7Q109.86,192.1,110.249,190.956Z" transform="translate(-28.942 -50.79)" fill="none" stroke="#fff" stroke-width="0.25"/>
        <path id="Path_34864" data-name="Path 34864" d="M103.323,159.785a17.966,17.966,0,0,0-1.46,1.9c-.084.125-.1.209-.042.251a.377.377,0,0,0,.251,0,7.9,7.9,0,0,1,2.107.021,5.264,5.264,0,0,1,2.086.418q-2.4,1.148-3.859,1.815c-.111.056-.153.119-.125.188s.1.1.23.084a10.589,10.589,0,0,0,3.4-.667,4.659,4.659,0,0,0,1.45-1.262,2.89,2.89,0,0,0,.865-1.6q0-.543-.647-.73A9.232,9.232,0,0,0,103.323,159.785Z" transform="translate(-27.22 -42.702)" fill="none" stroke="#fff" stroke-width="0.25"/>
      </g>
    </g>
  </g>
</svg>
