<svg xmlns="http://www.w3.org/2000/svg" xmlns:xlink="http://www.w3.org/1999/xlink" width="269.04" height="288.663" viewBox="0 0 269.04 288.663">
  <defs>
    <clipPath id="clip-path">
      <rect id="Rectangle_20863" data-name="Rectangle 20863" width="81.434" height="95.857" fill="#eff3f6"/>
    </clipPath>
    <clipPath id="clip-path-2">
      <rect id="Rectangle_20863-2" data-name="Rectangle 20863" width="129.379" height="152.294" fill="#eff3f6"/>
    </clipPath>
    <clipPath id="clip-path-3">
      <rect id="Rectangle_20863-3" data-name="Rectangle 20863" width="49.045" height="57.732" fill="#52a39d"/>
    </clipPath>
    <linearGradient id="linear-gradient" x1="0.5" x2="0.5" y2="1" gradientUnits="objectBoundingBox">
      <stop offset="0" stop-color="#16444f"/>
      <stop offset="0.54" stop-color="#287477"/>
      <stop offset="1" stop-color="#2a9a95"/>
    </linearGradient>
  </defs>
  <g id="Component_388_1" data-name="Component 388 – 1" transform="translate(0.5)">
    <g id="Group_28127" data-name="Group 28127" transform="translate(187.106 177.328)">
      <g id="Group_28126" data-name="Group 28126" transform="translate(0 0)" clip-path="url(#clip-path)">
        <path id="Path_35009" data-name="Path 35009" d="M78.2,17.783l-3.652-3.652-10.9-10.9A11.036,11.036,0,0,0,55.846,0H11.035A11.035,11.035,0,0,0,0,11.035V84.822A11.035,11.035,0,0,0,11.035,95.857H70.4A11.035,11.035,0,0,0,81.434,84.822V25.587a11.036,11.036,0,0,0-3.232-7.8M10.68,13.715H49.521a.7.7,0,0,1,0,1.391H10.68a.7.7,0,0,1,0-1.391M63.5,82.224H10.68a.7.7,0,1,1,0-1.391H63.5a.7.7,0,0,1,0,1.391m7.428-9.587H10.68a.7.7,0,1,1,0-1.391H70.926a.7.7,0,0,1,0,1.391m0-9.59H10.68a.7.7,0,1,1,0-1.391H70.926a.7.7,0,0,1,0,1.391m0-9.587H10.68a.7.7,0,0,1,0-1.391H70.926a.7.7,0,0,1,0,1.391m0-9.588H10.68a.7.7,0,0,1,0-1.391H70.926a.7.7,0,0,1,0,1.391m0-9.588H10.68a.7.7,0,1,1,0-1.391H70.926a.7.7,0,0,1,0,1.391m0-9.588H10.68a.7.7,0,1,1,0-1.391H70.926a.7.7,0,0,1,0,1.391" transform="translate(0 0)" fill="#eff3f6"/>
      </g>
    </g>
    <g id="Group_28129" data-name="Group 28129" transform="translate(4.875 0)">
      <g id="Group_28126-2" data-name="Group 28126" transform="translate(0 0)" clip-path="url(#clip-path-2)">
        <path id="Path_35009-2" data-name="Path 35009" d="M124.243,28.253l-5.8-5.8L101.125,5.135A17.533,17.533,0,0,0,88.727,0H17.532A17.531,17.531,0,0,0,0,17.532v117.23a17.531,17.531,0,0,0,17.532,17.532h94.315a17.531,17.531,0,0,0,17.532-17.532V40.652a17.533,17.533,0,0,0-5.135-12.4M16.968,21.79H78.677a1.1,1.1,0,0,1,0,2.21H16.968a1.1,1.1,0,0,1,0-2.21m83.914,108.844H16.968a1.1,1.1,0,0,1,0-2.21h83.914a1.1,1.1,0,0,1,0,2.21m11.8-15.232H16.968a1.1,1.1,0,1,1,0-2.21h95.716a1.1,1.1,0,0,1,0,2.21m0-15.236H16.968a1.1,1.1,0,0,1,0-2.21h95.716a1.1,1.1,0,0,1,0,2.21m0-15.232H16.968a1.1,1.1,0,0,1,0-2.21h95.716a1.1,1.1,0,0,1,0,2.21m0-15.234H16.968a1.1,1.1,0,0,1,0-2.21h95.716a1.1,1.1,0,0,1,0,2.21m0-15.234H16.968a1.1,1.1,0,0,1,0-2.21h95.716a1.1,1.1,0,0,1,0,2.21m0-15.234H16.968a1.1,1.1,0,0,1,0-2.21h95.716a1.1,1.1,0,0,1,0,2.21" transform="translate(0 0)" fill="#eff3f6"/>
      </g>
    </g>
    <g id="Group_28128" data-name="Group 28128" transform="translate(112.001 230.932)">
      <g id="Group_28126-3" data-name="Group 28126" transform="translate(0 0)" clip-path="url(#clip-path-3)">
        <path id="Path_35009-3" data-name="Path 35009" d="M47.1,10.71l-2.2-2.2L38.335,1.947A6.646,6.646,0,0,0,33.635,0H6.646A6.646,6.646,0,0,0,0,6.646v44.44a6.646,6.646,0,0,0,6.646,6.646H42.4a6.646,6.646,0,0,0,6.646-6.646V15.41a6.646,6.646,0,0,0-1.947-4.7M6.432,8.26H29.825a.419.419,0,1,1,0,.838H6.432a.419.419,0,1,1,0-.838m31.81,41.261H6.432a.419.419,0,0,1,0-.838h31.81a.419.419,0,0,1,0,.838m4.474-5.774H6.432a.419.419,0,1,1,0-.838H42.717a.419.419,0,0,1,0,.838m0-5.776H6.432a.419.419,0,1,1,0-.838H42.717a.419.419,0,0,1,0,.838m0-5.774H6.432a.419.419,0,1,1,0-.838H42.717a.419.419,0,1,1,0,.838m0-5.775H6.432a.419.419,0,0,1,0-.838H42.717a.419.419,0,0,1,0,.838m0-5.775H6.432a.419.419,0,0,1,0-.838H42.717a.419.419,0,0,1,0,.838m0-5.775H6.432a.419.419,0,0,1,0-.838H42.717a.419.419,0,0,1,0,.838" transform="translate(0 0)" fill="#52a39d"/>
      </g>
    </g>
    <g id="Group_28123" data-name="Group 28123" transform="translate(-0.001 32.026)">
      <path id="Union_16" data-name="Union 16" d="M10.654,246.819a11.243,11.243,0,0,1-8.418-17.954l72.4-96.98a11.262,11.262,0,0,1,2.609-2.521A75.616,75.616,0,0,1,55.074,75.783q0-1.941.1-3.9a75.8,75.8,0,0,1,151.5,3.933q0,1.94-.1,3.9A75.833,75.833,0,0,1,94.3,142.207a11.182,11.182,0,0,1-1.646,3.132l-72.4,96.98a11.238,11.238,0,0,1-9.02,4.515C11.043,246.834,10.85,246.829,10.654,246.819ZM127.549,140.046A64.333,64.333,0,0,0,195.125,79.12q.088-1.664.088-3.311A64.339,64.339,0,0,0,66.621,72.473q-.085,1.664-.086,3.311A64.335,64.335,0,0,0,127.549,140.046Z" transform="translate(-0.001 0)" stroke="rgba(0,0,0,0)" stroke-width="1" fill="url(#linear-gradient)"/>
    </g>
  </g>
</svg>
