<svg xmlns="http://www.w3.org/2000/svg" width="23.405" height="22.385" viewBox="0 0 23.405 22.385">
  <g id="Component_104_2" data-name="Component 104 – 2" transform="translate(1 1)">
    <path id="Path_23916" data-name="Path 23916" d="M387.251,579.643h-1.325a3.262,3.262,0,0,1-3.262-3.261,4.892,4.892,0,0,1,4.893-4.893h4.485a4.893,4.893,0,0,1,4.893,4.893,3.262,3.262,0,0,1-3.262,3.261h-1.325m8.664-15.289v3.058m0,0v3.058m0-3.058h-3.058m3.058,0h3.058m-10.193-4.077a4.077,4.077,0,1,1-4.078-4.077A4.077,4.077,0,0,1,393.876,563.335Z" transform="translate(-382.664 -559.258)" fill="none" stroke="#d1d1d1" stroke-linecap="round" stroke-linejoin="round" stroke-width="2"/>
  </g>
</svg>
