<svg xmlns="http://www.w3.org/2000/svg" width="18.466" height="22.707" viewBox="0 0 18.466 22.707">
  <path id="Path_23987" data-name="Path 23987" d="M490.3,42.92V39.739c0-2.969,0-4.454-.577-5.588a5.3,5.3,0,0,0-2.317-2.317c-1.134-.578-2.619-.578-5.588-.578s-4.454,0-5.588.578a5.294,5.294,0,0,0-2.317,2.317c-.578,1.134-.578,2.619-.578,5.588V52.463l2.414-1.206a18.437,18.437,0,0,1,4.505-1.888,8.476,8.476,0,0,1,3.128,0,18.448,18.448,0,0,1,4.506,1.888l2.413,1.206V48.222" transform="translate(-472.582 -30.506)" fill="none" stroke="#52a39d" stroke-linecap="round" stroke-linejoin="round" stroke-width="1.5"/>
</svg>
