<svg xmlns="http://www.w3.org/2000/svg" width="19.175" height="23.593" viewBox="0 0 19.175 23.593">
  <g id="Group_26880" data-name="Group 26880" transform="translate(0.75 0.75)">
    <path id="Path_24220" data-name="Path 24220" d="M209.332,568.095v-.552c0-2.574,0-3.861.421-4.875a5.512,5.512,0,0,1,2.989-2.989c1.014-.421,2.3-.421,4.875-.421h.307a11.821,11.821,0,0,1,2.466.131,5.507,5.507,0,0,1,1.772.734A11.8,11.8,0,0,1,224,561.774l.418.418a11.8,11.8,0,0,1,1.775,1.991,5.55,5.55,0,0,1,.661,1.6,11.823,11.823,0,0,1,.152,2.662v4.072c0,3.093,0,4.64-.6,5.821a5.519,5.519,0,0,1-2.414,2.414c-1.181.6-2.728.6-5.821.6h-.553c-2.574,0-3.861,0-4.875-.421a5.512,5.512,0,0,1-2.989-2.989c-.421-1.014-.421-2.3-.421-4.875v-.552m11.047-12.7v3.867a2.21,2.21,0,0,0,2.21,2.21h1.1" transform="translate(-209.332 -559.258)" fill="none" stroke="#52a39d" stroke-linecap="round" stroke-linejoin="round" stroke-width="1.5"/>
    <path id="Path_24226" data-name="Path 24226" d="M219.427,571.258v6.628m0,0,2.761-2.762m-2.761,2.762-2.762-2.762" transform="translate(-210.589 -561.316)" fill="none" stroke="#52a39d" stroke-linecap="round" stroke-linejoin="round" stroke-width="1.5"/>
  </g>
</svg>
