<svg xmlns="http://www.w3.org/2000/svg" width="23.594" height="23.594" viewBox="0 0 23.594 23.594">
  <g id="Group_26879" data-name="Group 26879" transform="translate(0.75 0.75)">
    <path id="Path_24227" data-name="Path 24227" d="M927.506,127.7m.184-.442a11.03,11.03,0,0,1,3.582.283,4.419,4.419,0,0,1,2.579,2.579,11.026,11.026,0,0,1,.283,3.581v1.952c0,2.475,0,3.712-.482,4.658a4.4,4.4,0,0,1-1.93,1.93c-.946.482-2.183.482-4.658.482h-1.952a11.023,11.023,0,0,1-3.581-.283,4.422,4.422,0,0,1-2.58-2.579,11.063,11.063,0,0,1-.282-3.582" transform="translate(-912.04 -120.628)" fill="none" stroke="#52a39d" stroke-linecap="round" stroke-linejoin="round" stroke-width="1.5"/>
    <path id="Path_24225" data-name="Path 24225" d="M910.668,124.78v-.553c0-.513,0-.77.021-.985a4.419,4.419,0,0,1,3.965-3.964c.216-.022.472-.022.985-.022h3.424c2.475,0,3.712,0,4.658.481a4.411,4.411,0,0,1,1.93,1.931c.482.945.482,2.182.482,4.657v1.326c0,2.475,0,3.713-.482,4.658a4.4,4.4,0,0,1-1.93,1.93c-.946.482-2.183.482-4.658.482h-3.424c-.513,0-.769,0-.985-.022a4.42,4.42,0,0,1-3.965-3.964c-.021-.216-.021-.472-.021-.985V129.2" transform="translate(-910.668 -119.256)" fill="none" stroke="#52a39d" stroke-linecap="round" stroke-linejoin="round" stroke-width="1.5"/>
  </g>
</svg>
