<svg xmlns="http://www.w3.org/2000/svg" class="highlight"  width="22.094" height="22.093" viewBox="0 0 22.094 22.093">
  <g id="Group_24436" data-name="Group 24436" transform="translate(0 0)">
    <path id="Path_23983" data-name="Path 23983" d="M836.811,52.251a2.862,2.862,0,0,1-1.255-.291c-1.015-.495-1.565-1.926-2.77-5.063l-.4-1.031a.781.781,0,1,1,1.457-.56l.4,1.029c.529,1.378.947,2.466,1.3,3.2.376.778.6.975.7,1.023a1.3,1.3,0,0,0,1.247-.059c.093-.057.295-.273.6-1.082.282-.758.581-1.825.994-3.3l0-.005,2.982-10.649c.429-1.533.713-2.545.561-2.944a1.3,1.3,0,0,0-.756-.756c-.4-.152-1.415.133-2.95.563L828.272,35.3c-1.48.414-2.547.713-3.306,1-.809.3-1.025.5-1.082.6a1.3,1.3,0,0,0-.059,1.247c.048.1.245.32,1.023.7.73.353,1.818.771,3.2,1.3l2.133.82a4.668,4.668,0,0,0,1.2.378,1.3,1.3,0,0,0,.581-.123,4.673,4.673,0,0,0,.941-.831l1.592-1.592a.781.781,0,1,1,1.1,1.1L834,41.486a5.16,5.16,0,0,1-1.38,1.14,2.877,2.877,0,0,1-1.28.272,5.147,5.147,0,0,1-1.722-.481l-2.134-.821c-3.137-1.206-4.569-1.757-5.062-2.771a2.852,2.852,0,0,1,.128-2.742c.586-.963,2.063-1.376,5.3-2.282l10.647-2.981c2.027-.568,3.044-.852,3.924-.519a2.865,2.865,0,0,1,1.663,1.663c.334.879.049,1.9-.518,3.919v.005L840.58,46.536c-.906,3.233-1.319,4.709-2.28,5.295A2.859,2.859,0,0,1,836.811,52.251Z" transform="translate(-822.131 -30.158)" fill="#52a39d"/>
  </g>
</svg>
