<svg width="36" height="36" viewBox="0 0 36 36" fill="none" xmlns="http://www.w3.org/2000/svg">
<path d="M11.9997 19.5C11.9997 18.6716 11.3281 18 10.4997 18C9.67127 18 8.99969 18.6716 8.99969 19.5H11.9997ZM11.9997 28.5V19.5H8.99969V28.5H11.9997Z" fill="white"/>
<path d="M27.9997 6.5C27.9997 5.67157 27.3281 5 26.4997 5C25.6713 5 24.9997 5.67157 24.9997 6.5H27.9997ZM27.9997 28.5V6.5H24.9997V28.5H27.9997Z" fill="white" fill-opacity="0.5"/>
<path d="M19.9997 12.5C19.9997 11.6716 19.3281 11 18.4997 11C17.6713 11 16.9997 11.6716 16.9997 12.5H19.9997ZM19.9997 28.5V12.5H16.9997V28.5H19.9997Z" fill="white"/>
</svg>
