<svg width="36" height="36" viewBox="0 0 36 36" fill="none" xmlns="http://www.w3.org/2000/svg">
<path d="M11.9995 19.5C11.9995 18.6716 11.3279 18 10.4995 18C9.67108 18 8.99951 18.6716 8.99951 19.5H11.9995ZM11.9995 28.5V19.5H8.99951V28.5H11.9995Z" fill="#B7B7B7"/>
<path d="M27.9995 6.5C27.9995 5.67157 27.3279 5 26.4995 5C25.6711 5 24.9995 5.67157 24.9995 6.5H27.9995ZM27.9995 28.5V6.5H24.9995V28.5H27.9995Z" fill="#B7B7B7" fill-opacity="0.3"/>
<path d="M19.9995 12.5C19.9995 11.6716 19.3279 11 18.4995 11C17.6711 11 16.9995 11.6716 16.9995 12.5H19.9995ZM19.9995 28.5V12.5H16.9995V28.5H19.9995Z" fill="#B7B7B7"/>
</svg>
