<svg width="37" height="37" viewBox="0 0 37 37" fill="none" xmlns="http://www.w3.org/2000/svg">
<path d="M12.3369 20C12.3369 19.1716 11.6653 18.5 10.8369 18.5C10.0085 18.5 9.33691 19.1716 9.33691 20H12.3369ZM12.3369 29V20H9.33691V29H12.3369Z" fill="white"/>
<path d="M28.3369 7C28.3369 6.17157 27.6653 5.5 26.8369 5.5C26.0085 5.5 25.3369 6.17157 25.3369 7H28.3369ZM28.3369 29V7H25.3369V29H28.3369Z" fill="white" fill-opacity="0.5"/>
<path d="M20.3369 13C20.3369 12.1716 19.6653 11.5 18.8369 11.5C18.0085 11.5 17.3369 12.1716 17.3369 13H20.3369ZM20.3369 29V13H17.3369V29H20.3369Z" fill="white"/>
</svg>
