<svg xmlns="http://www.w3.org/2000/svg" xmlns:v="https://svgstorm.com"
viewBox = "0 0 1202 156"
width="1202"
height="156">
<g fill="None" fill-opacity="0.0" stroke="#FEFEFE" stroke-opacity="1.00" stroke-width="0.3"><path d="
M 0.00 73.00 
C 145.00 73.00 290.00 73.00 435.00 73.00
C 435.31 68.48 435.84 64.53 440.00 62.00
C 440.66 61.60 441.35 61.36 442.00 61.00
C 447.12 58.18 455.05 61.04 461.00 60.00
C 462.51 57.84 459.67 52.06 461.93 49.93 C 464.19 47.80 465.24 45.35 468.00 44.00
C 468.91 39.76 478.06 42.62 482.00 42.00 C 485.94 41.38 493.24 42.31 498.00 42.00 C 502.76 41.69 510.01 42.23 515.00 42.00
C 512.32 35.46 522.42 33.75 525.00 38.00
C 525.51 43.62 524.62 49.37 525.00 55.00
C 535.92 56.80 550.35 51.28 559.00 58.00
C 560.49 62.30 558.51 65.57 555.00 67.00
C 547.98 69.86 534.05 68.73 526.00 68.00
C 522.44 72.81 526.59 82.20 525.00 88.00
C 533.24 87.25 547.89 86.04 555.00 89.00
C 559.04 90.68 560.90 96.44 557.25 99.25 C 553.59 102.05 547.19 101.88 543.00 101.00 C 538.81 100.12 529.35 103.37 526.00 101.00
C 525.98 106.84 526.65 124.87 516.00 118.00
C 514.63 117.12 515.10 115.52 515.00 114.00
C 500.50 113.33 484.68 115.33 471.00 113.00
C 465.18 111.56 463.33 109.73 462.00 104.00
C 461.45 101.63 461.00 98.97 461.00 96.00
C 455.45 96.50 448.78 96.18 444.00 95.00
C 439.71 93.94 438.05 93.14 436.00 89.00
C 435.33 87.64 434.50 85.97 435.00 84.00
C 290.00 84.00 145.00 84.00 0.00 84.00
L 0.00 156.00
L 1202.00 156.00
L 1202.00 85.00
C 1050.68 85.00 899.32 85.00 748.00 85.00
C 747.72 85.58 748.45 87.58 748.00 88.00
C 747.99 91.09 744.96 94.53 742.00 95.00
C 741.51 95.08 740.50 95.00 740.00 95.00
C 736.02 96.69 726.40 93.62 723.00 96.00
C 720.41 98.59 723.25 103.91 721.07 107.07 C 718.90 110.24 716.45 111.91 713.00 113.00
C 699.52 117.26 682.39 111.89 668.00 114.00
C 667.17 114.77 668.63 118.01 668.00 119.00
C 665.00 119.00 662.00 119.00 659.00 119.00
C 659.00 91.67 659.00 64.33 659.00 37.00
C 662.00 37.00 665.00 37.00 668.00 37.00
C 668.00 38.67 668.00 40.33 668.00 42.00
C 686.06 45.62 724.96 30.59 723.00 60.00
C 728.50 60.65 735.33 58.68 740.00 61.00
C 743.62 62.14 746.74 64.06 748.00 68.00
C 748.58 69.81 747.56 72.14 748.00 74.00
C 899.33 74.00 1050.67 74.00 1202.00 74.00
L 1202.00 0.00
L 0.00 0.00
L 0.00 73.00 Z"/>
</g>
<g fill="None" fill-opacity="0.0" stroke="#B6BFDF" stroke-opacity="1.00" stroke-width="0.3"><path d="
M 468.00 44.00 
C 468.40 43.80 469.00 44.00 469.00 44.00
C 474.12 40.21 483.55 44.42 490.00 43.00 C 496.45 41.58 505.42 44.46 512.00 43.00
C 515.49 42.23 516.78 41.24 516.00 37.00
C 518.52 37.56 522.30 35.81 524.00 38.00
C 524.32 38.24 525.00 38.00 525.00 38.00
C 522.42 33.75 512.32 35.46 515.00 42.00
C 510.01 42.23 502.76 41.69 498.00 42.00 C 493.24 42.31 485.94 41.38 482.00 42.00 C 478.06 42.62 468.91 39.76 468.00 44.00 Z"/>
</g>
<g fill="None" fill-opacity="0.0" stroke="#384680" stroke-opacity="1.00" stroke-width="0.3"><path d="
M 512.00 43.00 
C 507.49 49.64 512.59 61.07 511.00 69.00 C 509.41 76.93 512.19 87.81 511.00 96.00
C 488.02 91.12 474.41 65.95 474.00 44.00
C 472.33 44.00 470.67 44.00 469.00 44.00
C 469.00 44.00 468.40 43.80 468.00 44.00
C 465.24 45.35 464.19 47.80 461.93 49.93 C 459.67 52.06 462.51 57.84 461.00 60.00
C 458.58 63.45 446.06 60.14 442.00 61.00
C 441.35 61.36 440.66 61.60 440.00 62.00
C 435.91 66.57 440.47 79.60 443.75 82.25 C 447.03 84.89 455.99 95.69 458.92 88.92 C 461.85 82.14 456.06 69.38 460.00 63.00
C 461.81 73.28 460.70 84.33 461.00 95.00
C 461.22 97.25 461.68 101.17 462.00 104.00
C 463.33 109.73 465.18 111.56 471.00 113.00
C 477.53 113.81 484.42 112.70 491.00 113.00 C 497.58 113.30 504.42 113.01 511.00 113.00 C 517.58 112.99 513.07 115.42 516.00 118.00
C 526.65 124.87 525.98 106.84 526.00 101.00
C 526.01 97.47 525.00 92.94 525.00 89.00
C 525.00 88.50 525.00 88.00 525.00 88.00
C 522.92 85.19 522.55 70.03 525.00 67.00
C 522.22 64.31 524.99 58.60 525.00 56.00
C 525.02 50.41 523.45 44.03 524.00 38.00
C 522.30 35.81 518.52 37.56 516.00 37.00
C 516.78 41.24 515.49 42.23 512.00 43.00 Z"/>
</g>
<g fill="None" fill-opacity="0.0" stroke="#3C4A86" stroke-opacity="1.00" stroke-width="0.3"><path d="
M 668.00 114.00 
C 671.25 110.99 683.37 113.00 688.00 113.00
C 691.31 112.16 694.26 107.68 699.00 109.00
C 700.94 104.68 707.54 103.10 710.75 97.75 C 713.97 92.40 716.20 88.19 719.77 82.77 C 723.34 77.35 718.87 66.92 722.00 61.00
C 722.82 52.22 720.47 44.26 711.00 43.00
C 710.09 52.58 705.85 60.90 705.00 71.00
C 699.29 73.04 697.77 82.06 691.75 86.75 C 685.73 91.44 679.86 96.29 672.00 97.00
C 671.34 79.09 673.32 60.47 671.00 43.00
C 669.52 42.87 668.86 43.32 668.00 42.00
C 668.00 40.33 668.00 38.67 668.00 37.00
C 665.00 37.00 662.00 37.00 659.00 37.00
C 659.00 64.33 659.00 91.67 659.00 119.00
C 662.00 119.00 665.00 119.00 668.00 119.00
C 668.63 118.01 667.17 114.77 668.00 114.00 Z"/>
</g>
<g fill="None" fill-opacity="0.0" stroke="#82849C" stroke-opacity="1.00" stroke-width="0.3"><path d="
M 525.00 56.00 
C 528.01 53.89 539.42 56.58 543.00 56.00 C 546.58 55.42 557.24 54.50 559.00 58.00
C 550.35 51.28 535.92 56.80 525.00 55.00
C 524.62 49.37 525.51 43.62 525.00 38.00
C 525.00 38.00 524.32 38.24 524.00 38.00
C 523.45 44.03 525.02 50.41 525.00 56.00 Z"/>
</g>
<g fill="None" fill-opacity="0.0" stroke="#AEB7D5" stroke-opacity="1.00" stroke-width="0.3"><path d="
M 671.00 43.00 
C 684.16 44.13 697.91 41.26 711.00 43.00
C 720.47 44.26 722.82 52.22 722.00 61.00
C 724.26 59.40 737.11 60.48 740.00 61.00
C 735.33 58.68 728.50 60.65 723.00 60.00
C 724.96 30.59 686.06 45.62 668.00 42.00
C 668.86 43.32 669.52 42.87 671.00 43.00 Z"/>
</g>
<g fill="None" fill-opacity="0.0" stroke="#485899" stroke-opacity="1.00" stroke-width="0.3"><path d="
M 469.00 44.00 
C 470.67 44.00 472.33 44.00 474.00 44.00
C 474.41 65.95 488.02 91.12 511.00 96.00
C 512.19 87.81 509.41 76.93 511.00 69.00 C 512.59 61.07 507.49 49.64 512.00 43.00
C 505.42 44.46 496.45 41.58 490.00 43.00 C 483.55 44.42 474.12 40.21 469.00 44.00 Z"/>
</g>
<g fill="None" fill-opacity="0.0" stroke="#48589B" stroke-opacity="1.00" stroke-width="0.3"><path d="
M 711.00 43.00 
C 697.91 41.26 684.16 44.13 671.00 43.00
C 673.32 60.47 671.34 79.09 672.00 97.00
C 679.86 96.29 685.73 91.44 691.75 86.75 C 697.77 82.06 699.29 73.04 705.00 71.00
C 705.85 60.90 710.09 52.58 711.00 43.00 Z"/>
</g>
<g fill="None" fill-opacity="0.0" stroke="#25284A" stroke-opacity="1.00" stroke-width="0.3"><path d="
M 525.00 67.00 
C 525.20 66.76 526.00 67.00 526.00 67.00
C 534.75 67.00 546.56 69.12 555.00 67.00
C 558.51 65.57 560.49 62.30 559.00 58.00
C 557.24 54.50 546.58 55.42 543.00 56.00 C 539.42 56.58 528.01 53.89 525.00 56.00
C 524.99 58.60 522.22 64.31 525.00 67.00 Z"/>
</g>
<g fill="None" fill-opacity="0.0" stroke="#A6AFC0" stroke-opacity="1.00" stroke-width="0.3"><path d="
M 442.00 61.00 
C 446.06 60.14 458.58 63.45 461.00 60.00
C 455.05 61.04 447.12 58.18 442.00 61.00 Z"/>
</g>
<g fill="None" fill-opacity="0.0" stroke="#2C3866" stroke-opacity="1.00" stroke-width="0.3"><path d="
M 688.00 113.00 
C 695.91 113.00 705.24 114.39 713.00 113.00
C 716.45 111.91 718.90 110.24 721.07 107.07 C 723.25 103.91 720.41 98.59 723.00 96.00
C 725.71 93.29 736.03 95.00 740.00 95.00
C 740.50 95.00 741.51 95.08 742.00 95.00
C 744.65 93.88 746.45 90.74 747.00 88.00
C 746.58 81.82 748.91 73.45 748.00 68.00
C 746.74 64.06 743.62 62.14 740.00 61.00
C 737.11 60.48 724.26 59.40 722.00 61.00
C 718.87 66.92 723.34 77.35 719.77 82.77 C 716.20 88.19 713.97 92.40 710.75 97.75 C 707.54 103.10 700.94 104.68 699.00 109.00
C 694.26 107.68 691.31 112.16 688.00 113.00 Z"/>
</g>
<g fill="None" fill-opacity="0.0" stroke="#293055" stroke-opacity="1.00" stroke-width="0.3"><path d="
M 435.00 73.00 
C 434.73 76.92 435.65 80.45 436.00 84.00
C 436.16 85.62 435.70 87.40 436.00 89.00
C 438.05 93.14 439.71 93.94 444.00 95.00
C 449.58 95.69 455.40 94.49 461.00 95.00
C 460.70 84.33 461.81 73.28 460.00 63.00
C 456.06 69.38 461.85 82.14 458.92 88.92 C 455.99 95.69 447.03 84.89 443.75 82.25 C 440.47 79.60 435.91 66.57 440.00 62.00
C 435.84 64.53 435.31 68.48 435.00 73.00 Z"/>
</g>
<g fill="None" fill-opacity="0.0" stroke="#8282A7" stroke-opacity="1.00" stroke-width="0.3"><path d="
M 525.00 88.00 
C 526.59 82.20 522.44 72.81 526.00 68.00
C 526.24 67.68 526.00 67.00 526.00 67.00
C 526.00 67.00 525.20 66.76 525.00 67.00
C 522.55 70.03 522.92 85.19 525.00 88.00 Z"/>
</g>
<g fill="None" fill-opacity="0.0" stroke="#9296A1" stroke-opacity="1.00" stroke-width="0.3"><path d="
M 526.00 68.00 
C 534.05 68.73 547.98 69.86 555.00 67.00
C 546.56 69.12 534.75 67.00 526.00 67.00
C 526.00 67.00 526.24 67.68 526.00 68.00 Z"/>
</g>
<g fill="None" fill-opacity="0.0" stroke="#334778" stroke-opacity="1.00" stroke-width="0.3"><path d="
M 747.00 88.00 
C 747.02 87.90 748.00 88.00 748.00 88.00
C 748.45 87.58 747.72 85.58 748.00 85.00
C 749.92 81.11 761.96 85.03 767.00 84.00 C 772.04 82.97 781.92 84.47 788.00 84.00 C 794.08 83.53 802.51 84.22 809.00 84.00 C 815.49 83.78 822.28 84.09 829.00 84.00 C 835.72 83.91 843.16 84.04 850.00 84.00 C 856.84 83.96 864.15 84.02 871.00 84.00 C 877.85 83.98 884.13 84.01 891.00 84.00 C 897.87 83.99 905.09 84.00 912.00 84.00 C 918.91 84.00 926.11 84.00 933.00 84.00 C 939.89 84.00 946.11 84.00 953.00 84.00 C 959.89 84.00 967.08 84.00 974.00 84.00 C 980.92 84.00 988.11 84.00 995.00 84.00 C 1001.89 84.00 1008.11 84.00 1015.00 84.00 C 1021.89 84.00 1029.08 84.00 1036.00 84.00 C 1042.92 84.00 1050.11 84.00 1057.00 84.00 C 1063.89 84.00 1070.11 84.00 1077.00 84.00 C 1083.89 84.00 1091.08 84.00 1098.00 84.00 C 1104.92 84.00 1112.10 84.00 1119.00 84.00 C 1125.90 84.00 1132.09 84.00 1139.00 84.00 C 1145.91 84.00 1153.04 84.00 1160.00 84.00 C 1166.96 84.00 1174.02 84.00 1181.00 84.00 C 1187.98 84.00 1195.02 84.00 1202.00 84.00
L 1202.00 74.00
C 1050.67 74.00 899.33 74.00 748.00 74.00
C 747.56 72.14 748.58 69.81 748.00 68.00
C 748.91 73.45 746.58 81.82 747.00 88.00 Z"/>
</g>
<g fill="None" fill-opacity="0.0" stroke="#324678" stroke-opacity="1.00" stroke-width="0.3"><path d="
M 0.00 83.00 
C 6.33 83.00 12.67 83.00 19.00 83.00 C 25.33 83.00 31.67 83.00 38.00 83.00 C 44.33 83.00 50.67 83.00 57.00 83.00 C 63.33 83.00 69.67 83.00 76.00 83.00 C 82.33 83.00 88.67 83.00 95.00 83.00 C 101.33 83.00 107.67 83.00 114.00 83.00 C 120.33 83.00 126.67 83.00 133.00 83.00 C 139.33 83.00 145.67 83.00 152.00 83.00 C 158.33 83.00 164.67 83.00 171.00 83.00 C 177.33 83.00 183.67 83.00 190.00 83.00 C 196.33 83.00 202.67 83.00 209.00 83.00 C 215.33 83.00 221.67 83.00 228.00 83.00 C 234.33 83.00 240.67 83.00 247.00 83.00 C 253.33 83.00 259.67 83.00 266.00 83.00 C 272.33 83.00 278.67 83.00 285.00 83.00 C 291.33 83.00 297.68 82.99 304.00 83.00 C 310.32 83.01 316.70 82.98 323.00 83.00 C 329.30 83.02 335.74 82.96 342.00 83.00 C 348.26 83.04 354.83 82.90 361.00 83.00 C 367.17 83.10 374.03 82.78 380.00 83.00 C 385.97 83.22 393.47 82.51 399.00 83.00 C 404.53 83.49 413.44 81.92 418.00 83.00 C 422.56 84.08 433.96 80.14 436.00 84.00
C 435.65 80.45 434.73 76.92 435.00 73.00
C 290.00 73.00 145.00 73.00 0.00 73.00
L 0.00 83.00 Z"/>
</g>
<g fill="None" fill-opacity="0.0" stroke="#899AAE" stroke-opacity="1.00" stroke-width="0.3"><path d="
M 0.00 84.00 
C 145.00 84.00 290.00 84.00 435.00 84.00
C 434.50 85.97 435.33 87.64 436.00 89.00
C 435.70 87.40 436.16 85.62 436.00 84.00
C 433.96 80.14 422.56 84.08 418.00 83.00 C 413.44 81.92 404.53 83.49 399.00 83.00 C 393.47 82.51 385.97 83.22 380.00 83.00 C 374.03 82.78 367.17 83.10 361.00 83.00 C 354.83 82.90 348.26 83.04 342.00 83.00 C 335.74 82.96 329.30 83.02 323.00 83.00 C 316.70 82.98 310.32 83.01 304.00 83.00 C 297.68 82.99 291.33 83.00 285.00 83.00 C 278.67 83.00 272.33 83.00 266.00 83.00 C 259.67 83.00 253.33 83.00 247.00 83.00 C 240.67 83.00 234.33 83.00 228.00 83.00 C 221.67 83.00 215.33 83.00 209.00 83.00 C 202.67 83.00 196.33 83.00 190.00 83.00 C 183.67 83.00 177.33 83.00 171.00 83.00 C 164.67 83.00 158.33 83.00 152.00 83.00 C 145.67 83.00 139.33 83.00 133.00 83.00 C 126.67 83.00 120.33 83.00 114.00 83.00 C 107.67 83.00 101.33 83.00 95.00 83.00 C 88.67 83.00 82.33 83.00 76.00 83.00 C 69.67 83.00 63.33 83.00 57.00 83.00 C 50.67 83.00 44.33 83.00 38.00 83.00 C 31.67 83.00 25.33 83.00 19.00 83.00 C 12.67 83.00 6.33 83.00 0.00 83.00
L 0.00 84.00 Z"/>
</g>
<g fill="None" fill-opacity="0.0" stroke="#8B95B1" stroke-opacity="1.00" stroke-width="0.3"><path d="
M 748.00 85.00 
C 899.32 85.00 1050.68 85.00 1202.00 85.00
L 1202.00 84.00
C 1195.02 84.00 1187.98 84.00 1181.00 84.00 C 1174.02 84.00 1166.96 84.00 1160.00 84.00 C 1153.04 84.00 1145.91 84.00 1139.00 84.00 C 1132.09 84.00 1125.90 84.00 1119.00 84.00 C 1112.10 84.00 1104.92 84.00 1098.00 84.00 C 1091.08 84.00 1083.89 84.00 1077.00 84.00 C 1070.11 84.00 1063.89 84.00 1057.00 84.00 C 1050.11 84.00 1042.92 84.00 1036.00 84.00 C 1029.08 84.00 1021.89 84.00 1015.00 84.00 C 1008.11 84.00 1001.89 84.00 995.00 84.00 C 988.11 84.00 980.92 84.00 974.00 84.00 C 967.08 84.00 959.89 84.00 953.00 84.00 C 946.11 84.00 939.89 84.00 933.00 84.00 C 926.11 84.00 918.91 84.00 912.00 84.00 C 905.09 84.00 897.87 83.99 891.00 84.00 C 884.13 84.01 877.85 83.98 871.00 84.00 C 864.15 84.02 856.84 83.96 850.00 84.00 C 843.16 84.04 835.72 83.91 829.00 84.00 C 822.28 84.09 815.49 83.78 809.00 84.00 C 802.51 84.22 794.08 83.53 788.00 84.00 C 781.92 84.47 772.04 82.97 767.00 84.00 C 761.96 85.03 749.92 81.11 748.00 85.00 Z"/>
</g>
<g fill="None" fill-opacity="0.0" stroke="#A2A3B6" stroke-opacity="1.00" stroke-width="0.3"><path d="
M 525.00 89.00 
C 534.42 89.85 545.88 86.64 555.00 89.00
C 547.89 86.04 533.24 87.25 525.00 88.00
C 525.00 88.00 525.00 88.50 525.00 89.00 Z"/>
</g>
<g fill="None" fill-opacity="0.0" stroke="#9092A3" stroke-opacity="1.00" stroke-width="0.3"><path d="
M 742.00 95.00 
C 744.96 94.53 747.99 91.09 748.00 88.00
C 748.00 88.00 747.02 87.90 747.00 88.00
C 746.45 90.74 744.65 93.88 742.00 95.00 Z"/>
</g>
<g fill="None" fill-opacity="0.0" stroke="#282B4F" stroke-opacity="1.00" stroke-width="0.3"><path d="
M 526.00 101.00 
C 529.35 103.37 538.81 100.12 543.00 101.00 C 547.19 101.88 553.59 102.05 557.25 99.25 C 560.90 96.44 559.04 90.68 555.00 89.00
C 545.88 86.64 534.42 89.85 525.00 89.00
C 525.00 92.94 526.01 97.47 526.00 101.00 Z"/>
</g>
<g fill="None" fill-opacity="0.0" stroke="#8D8FA2" stroke-opacity="1.00" stroke-width="0.3"><path d="
M 461.00 96.00 
C 461.00 95.50 461.00 95.00 461.00 95.00
C 455.40 94.49 449.58 95.69 444.00 95.00
C 448.78 96.18 455.45 96.50 461.00 96.00 Z"/>
</g>
<g fill="None" fill-opacity="0.0" stroke="#636782" stroke-opacity="1.00" stroke-width="0.3"><path d="
M 461.00 96.00 
C 461.00 98.97 461.45 101.63 462.00 104.00
C 461.68 101.17 461.22 97.25 461.00 95.00
C 461.00 95.00 461.00 95.50 461.00 96.00 Z"/>
</g>
<g fill="None" fill-opacity="0.0" stroke="#8F91A2" stroke-opacity="1.00" stroke-width="0.3"><path d="
M 723.00 96.00 
C 726.40 93.62 736.02 96.69 740.00 95.00
C 736.03 95.00 725.71 93.29 723.00 96.00 Z"/>
</g>
<g fill="None" fill-opacity="0.0" stroke="#8791AF" stroke-opacity="1.00" stroke-width="0.3"><path d="
M 516.00 118.00 
C 513.07 115.42 517.58 112.99 511.00 113.00 C 504.42 113.01 497.58 113.30 491.00 113.00 C 484.42 112.70 477.53 113.81 471.00 113.00
C 484.68 115.33 500.50 113.33 515.00 114.00
C 515.10 115.52 514.63 117.12 516.00 118.00 Z"/>
</g>
<g fill="None" fill-opacity="0.0" stroke="#8590AF" stroke-opacity="1.00" stroke-width="0.3"><path d="
M 668.00 114.00 
C 682.39 111.89 699.52 117.26 713.00 113.00
C 705.24 114.39 695.91 113.00 688.00 113.00
C 683.37 113.00 671.25 110.99 668.00 114.00 Z"/>
</g>
<g fill="#FEFEFE" fill-opacity="1.00" stroke="None">
<path d="
M 0.00 73.00 
C 145.00 73.00 290.00 73.00 435.00 73.00
C 435.31 68.48 435.84 64.53 440.00 62.00
C 440.66 61.60 441.35 61.36 442.00 61.00
C 447.12 58.18 455.05 61.04 461.00 60.00
C 462.51 57.84 459.67 52.06 461.93 49.93 C 464.19 47.80 465.24 45.35 468.00 44.00
C 468.91 39.76 478.06 42.62 482.00 42.00 C 485.94 41.38 493.24 42.31 498.00 42.00 C 502.76 41.69 510.01 42.23 515.00 42.00
C 512.32 35.46 522.42 33.75 525.00 38.00
C 525.51 43.62 524.62 49.37 525.00 55.00
C 535.92 56.80 550.35 51.28 559.00 58.00
C 560.49 62.30 558.51 65.57 555.00 67.00
C 547.98 69.86 534.05 68.73 526.00 68.00
C 522.44 72.81 526.59 82.20 525.00 88.00
C 533.24 87.25 547.89 86.04 555.00 89.00
C 559.04 90.68 560.90 96.44 557.25 99.25 C 553.59 102.05 547.19 101.88 543.00 101.00 C 538.81 100.12 529.35 103.37 526.00 101.00
C 525.98 106.84 526.65 124.87 516.00 118.00
C 514.63 117.12 515.10 115.52 515.00 114.00
C 500.50 113.33 484.68 115.33 471.00 113.00
C 465.18 111.56 463.33 109.73 462.00 104.00
C 461.45 101.63 461.00 98.97 461.00 96.00
C 455.45 96.50 448.78 96.18 444.00 95.00
C 439.71 93.94 438.05 93.14 436.00 89.00
C 435.33 87.64 434.50 85.97 435.00 84.00
C 290.00 84.00 145.00 84.00 0.00 84.00
L 0.00 156.00
L 1202.00 156.00
L 1202.00 85.00
C 1050.68 85.00 899.32 85.00 748.00 85.00
C 747.72 85.58 748.45 87.58 748.00 88.00
C 747.99 91.09 744.96 94.53 742.00 95.00
C 741.51 95.08 740.50 95.00 740.00 95.00
C 736.02 96.69 726.40 93.62 723.00 96.00
C 720.41 98.59 723.25 103.91 721.07 107.07 C 718.90 110.24 716.45 111.91 713.00 113.00
C 699.52 117.26 682.39 111.89 668.00 114.00
C 667.17 114.77 668.63 118.01 668.00 119.00
C 665.00 119.00 662.00 119.00 659.00 119.00
C 659.00 91.67 659.00 64.33 659.00 37.00
C 662.00 37.00 665.00 37.00 668.00 37.00
C 668.00 38.67 668.00 40.33 668.00 42.00
C 686.06 45.62 724.96 30.59 723.00 60.00
C 728.50 60.65 735.33 58.68 740.00 61.00
C 743.62 62.14 746.74 64.06 748.00 68.00
C 748.58 69.81 747.56 72.14 748.00 74.00
C 899.33 74.00 1050.67 74.00 1202.00 74.00
L 1202.00 0.00
L 0.00 0.00
L 0.00 73.00 Z"/>
</g>
<g fill="#B6BFDF" fill-opacity="1.00" stroke="None">
<path d="
M 468.00 44.00 
C 468.40 43.80 469.00 44.00 469.00 44.00
C 474.12 40.21 483.55 44.42 490.00 43.00 C 496.45 41.58 505.42 44.46 512.00 43.00
C 515.49 42.23 516.78 41.24 516.00 37.00
C 518.52 37.56 522.30 35.81 524.00 38.00
C 524.32 38.24 525.00 38.00 525.00 38.00
C 522.42 33.75 512.32 35.46 515.00 42.00
C 510.01 42.23 502.76 41.69 498.00 42.00 C 493.24 42.31 485.94 41.38 482.00 42.00 C 478.06 42.62 468.91 39.76 468.00 44.00 Z"/>
</g>
<g fill="#384680" fill-opacity="1.00" stroke="None">
<path d="
M 512.00 43.00 
C 507.49 49.64 512.59 61.07 511.00 69.00 C 509.41 76.93 512.19 87.81 511.00 96.00
C 488.02 91.12 474.41 65.95 474.00 44.00
C 472.33 44.00 470.67 44.00 469.00 44.00
C 469.00 44.00 468.40 43.80 468.00 44.00
C 465.24 45.35 464.19 47.80 461.93 49.93 C 459.67 52.06 462.51 57.84 461.00 60.00
C 458.58 63.45 446.06 60.14 442.00 61.00
C 441.35 61.36 440.66 61.60 440.00 62.00
C 435.91 66.57 440.47 79.60 443.75 82.25 C 447.03 84.89 455.99 95.69 458.92 88.92 C 461.85 82.14 456.06 69.38 460.00 63.00
C 461.81 73.28 460.70 84.33 461.00 95.00
C 461.22 97.25 461.68 101.17 462.00 104.00
C 463.33 109.73 465.18 111.56 471.00 113.00
C 477.53 113.81 484.42 112.70 491.00 113.00 C 497.58 113.30 504.42 113.01 511.00 113.00 C 517.58 112.99 513.07 115.42 516.00 118.00
C 526.65 124.87 525.98 106.84 526.00 101.00
C 526.01 97.47 525.00 92.94 525.00 89.00
C 525.00 88.50 525.00 88.00 525.00 88.00
C 522.92 85.19 522.55 70.03 525.00 67.00
C 522.22 64.31 524.99 58.60 525.00 56.00
C 525.02 50.41 523.45 44.03 524.00 38.00
C 522.30 35.81 518.52 37.56 516.00 37.00
C 516.78 41.24 515.49 42.23 512.00 43.00 Z"/>
</g>
<g fill="#3C4A86" fill-opacity="1.00" stroke="None">
<path d="
M 668.00 114.00 
C 671.25 110.99 683.37 113.00 688.00 113.00
C 691.31 112.16 694.26 107.68 699.00 109.00
C 700.94 104.68 707.54 103.10 710.75 97.75 C 713.97 92.40 716.20 88.19 719.77 82.77 C 723.34 77.35 718.87 66.92 722.00 61.00
C 722.82 52.22 720.47 44.26 711.00 43.00
C 710.09 52.58 705.85 60.90 705.00 71.00
C 699.29 73.04 697.77 82.06 691.75 86.75 C 685.73 91.44 679.86 96.29 672.00 97.00
C 671.34 79.09 673.32 60.47 671.00 43.00
C 669.52 42.87 668.86 43.32 668.00 42.00
C 668.00 40.33 668.00 38.67 668.00 37.00
C 665.00 37.00 662.00 37.00 659.00 37.00
C 659.00 64.33 659.00 91.67 659.00 119.00
C 662.00 119.00 665.00 119.00 668.00 119.00
C 668.63 118.01 667.17 114.77 668.00 114.00 Z"/>
</g>
<g fill="#82849C" fill-opacity="1.00" stroke="None">
<path d="
M 525.00 56.00 
C 528.01 53.89 539.42 56.58 543.00 56.00 C 546.58 55.42 557.24 54.50 559.00 58.00
C 550.35 51.28 535.92 56.80 525.00 55.00
C 524.62 49.37 525.51 43.62 525.00 38.00
C 525.00 38.00 524.32 38.24 524.00 38.00
C 523.45 44.03 525.02 50.41 525.00 56.00 Z"/>
</g>
<g fill="#AEB7D5" fill-opacity="1.00" stroke="None">
<path d="
M 671.00 43.00 
C 684.16 44.13 697.91 41.26 711.00 43.00
C 720.47 44.26 722.82 52.22 722.00 61.00
C 724.26 59.40 737.11 60.48 740.00 61.00
C 735.33 58.68 728.50 60.65 723.00 60.00
C 724.96 30.59 686.06 45.62 668.00 42.00
C 668.86 43.32 669.52 42.87 671.00 43.00 Z"/>
</g>
<g fill="#485899" fill-opacity="1.00" stroke="None">
<path d="
M 469.00 44.00 
C 470.67 44.00 472.33 44.00 474.00 44.00
C 474.41 65.95 488.02 91.12 511.00 96.00
C 512.19 87.81 509.41 76.93 511.00 69.00 C 512.59 61.07 507.49 49.64 512.00 43.00
C 505.42 44.46 496.45 41.58 490.00 43.00 C 483.55 44.42 474.12 40.21 469.00 44.00 Z"/>
</g>
<g fill="#48589B" fill-opacity="1.00" stroke="None">
<path d="
M 711.00 43.00 
C 697.91 41.26 684.16 44.13 671.00 43.00
C 673.32 60.47 671.34 79.09 672.00 97.00
C 679.86 96.29 685.73 91.44 691.75 86.75 C 697.77 82.06 699.29 73.04 705.00 71.00
C 705.85 60.90 710.09 52.58 711.00 43.00 Z"/>
</g>
<g fill="#25284A" fill-opacity="1.00" stroke="None">
<path d="
M 525.00 67.00 
C 525.20 66.76 526.00 67.00 526.00 67.00
C 534.75 67.00 546.56 69.12 555.00 67.00
C 558.51 65.57 560.49 62.30 559.00 58.00
C 557.24 54.50 546.58 55.42 543.00 56.00 C 539.42 56.58 528.01 53.89 525.00 56.00
C 524.99 58.60 522.22 64.31 525.00 67.00 Z"/>
</g>
<g fill="#A6AFC0" fill-opacity="1.00" stroke="None">
<path d="
M 442.00 61.00 
C 446.06 60.14 458.58 63.45 461.00 60.00
C 455.05 61.04 447.12 58.18 442.00 61.00 Z"/>
</g>
<g fill="#2C3866" fill-opacity="1.00" stroke="None">
<path d="
M 688.00 113.00 
C 695.91 113.00 705.24 114.39 713.00 113.00
C 716.45 111.91 718.90 110.24 721.07 107.07 C 723.25 103.91 720.41 98.59 723.00 96.00
C 725.71 93.29 736.03 95.00 740.00 95.00
C 740.50 95.00 741.51 95.08 742.00 95.00
C 744.65 93.88 746.45 90.74 747.00 88.00
C 746.58 81.82 748.91 73.45 748.00 68.00
C 746.74 64.06 743.62 62.14 740.00 61.00
C 737.11 60.48 724.26 59.40 722.00 61.00
C 718.87 66.92 723.34 77.35 719.77 82.77 C 716.20 88.19 713.97 92.40 710.75 97.75 C 707.54 103.10 700.94 104.68 699.00 109.00
C 694.26 107.68 691.31 112.16 688.00 113.00 Z"/>
</g>
<g fill="#293055" fill-opacity="1.00" stroke="None">
<path d="
M 435.00 73.00 
C 434.73 76.92 435.65 80.45 436.00 84.00
C 436.16 85.62 435.70 87.40 436.00 89.00
C 438.05 93.14 439.71 93.94 444.00 95.00
C 449.58 95.69 455.40 94.49 461.00 95.00
C 460.70 84.33 461.81 73.28 460.00 63.00
C 456.06 69.38 461.85 82.14 458.92 88.92 C 455.99 95.69 447.03 84.89 443.75 82.25 C 440.47 79.60 435.91 66.57 440.00 62.00
C 435.84 64.53 435.31 68.48 435.00 73.00 Z"/>
</g>
<g fill="#8282A7" fill-opacity="1.00" stroke="None">
<path d="
M 525.00 88.00 
C 526.59 82.20 522.44 72.81 526.00 68.00
C 526.24 67.68 526.00 67.00 526.00 67.00
C 526.00 67.00 525.20 66.76 525.00 67.00
C 522.55 70.03 522.92 85.19 525.00 88.00 Z"/>
</g>
<g fill="#9296A1" fill-opacity="1.00" stroke="None">
<path d="
M 526.00 68.00 
C 534.05 68.73 547.98 69.86 555.00 67.00
C 546.56 69.12 534.75 67.00 526.00 67.00
C 526.00 67.00 526.24 67.68 526.00 68.00 Z"/>
</g>
<g fill="#334778" fill-opacity="1.00" stroke="None">
<path d="
M 747.00 88.00 
C 747.02 87.90 748.00 88.00 748.00 88.00
C 748.45 87.58 747.72 85.58 748.00 85.00
C 749.92 81.11 761.96 85.03 767.00 84.00 C 772.04 82.97 781.92 84.47 788.00 84.00 C 794.08 83.53 802.51 84.22 809.00 84.00 C 815.49 83.78 822.28 84.09 829.00 84.00 C 835.72 83.91 843.16 84.04 850.00 84.00 C 856.84 83.96 864.15 84.02 871.00 84.00 C 877.85 83.98 884.13 84.01 891.00 84.00 C 897.87 83.99 905.09 84.00 912.00 84.00 C 918.91 84.00 926.11 84.00 933.00 84.00 C 939.89 84.00 946.11 84.00 953.00 84.00 C 959.89 84.00 967.08 84.00 974.00 84.00 C 980.92 84.00 988.11 84.00 995.00 84.00 C 1001.89 84.00 1008.11 84.00 1015.00 84.00 C 1021.89 84.00 1029.08 84.00 1036.00 84.00 C 1042.92 84.00 1050.11 84.00 1057.00 84.00 C 1063.89 84.00 1070.11 84.00 1077.00 84.00 C 1083.89 84.00 1091.08 84.00 1098.00 84.00 C 1104.92 84.00 1112.10 84.00 1119.00 84.00 C 1125.90 84.00 1132.09 84.00 1139.00 84.00 C 1145.91 84.00 1153.04 84.00 1160.00 84.00 C 1166.96 84.00 1174.02 84.00 1181.00 84.00 C 1187.98 84.00 1195.02 84.00 1202.00 84.00
L 1202.00 74.00
C 1050.67 74.00 899.33 74.00 748.00 74.00
C 747.56 72.14 748.58 69.81 748.00 68.00
C 748.91 73.45 746.58 81.82 747.00 88.00 Z"/>
</g>
<g fill="#324678" fill-opacity="1.00" stroke="None">
<path d="
M 0.00 83.00 
C 6.33 83.00 12.67 83.00 19.00 83.00 C 25.33 83.00 31.67 83.00 38.00 83.00 C 44.33 83.00 50.67 83.00 57.00 83.00 C 63.33 83.00 69.67 83.00 76.00 83.00 C 82.33 83.00 88.67 83.00 95.00 83.00 C 101.33 83.00 107.67 83.00 114.00 83.00 C 120.33 83.00 126.67 83.00 133.00 83.00 C 139.33 83.00 145.67 83.00 152.00 83.00 C 158.33 83.00 164.67 83.00 171.00 83.00 C 177.33 83.00 183.67 83.00 190.00 83.00 C 196.33 83.00 202.67 83.00 209.00 83.00 C 215.33 83.00 221.67 83.00 228.00 83.00 C 234.33 83.00 240.67 83.00 247.00 83.00 C 253.33 83.00 259.67 83.00 266.00 83.00 C 272.33 83.00 278.67 83.00 285.00 83.00 C 291.33 83.00 297.68 82.99 304.00 83.00 C 310.32 83.01 316.70 82.98 323.00 83.00 C 329.30 83.02 335.74 82.96 342.00 83.00 C 348.26 83.04 354.83 82.90 361.00 83.00 C 367.17 83.10 374.03 82.78 380.00 83.00 C 385.97 83.22 393.47 82.51 399.00 83.00 C 404.53 83.49 413.44 81.92 418.00 83.00 C 422.56 84.08 433.96 80.14 436.00 84.00
C 435.65 80.45 434.73 76.92 435.00 73.00
C 290.00 73.00 145.00 73.00 0.00 73.00
L 0.00 83.00 Z"/>
</g>
<g fill="#899AAE" fill-opacity="1.00" stroke="None">
<path d="
M 0.00 84.00 
C 145.00 84.00 290.00 84.00 435.00 84.00
C 434.50 85.97 435.33 87.64 436.00 89.00
C 435.70 87.40 436.16 85.62 436.00 84.00
C 433.96 80.14 422.56 84.08 418.00 83.00 C 413.44 81.92 404.53 83.49 399.00 83.00 C 393.47 82.51 385.97 83.22 380.00 83.00 C 374.03 82.78 367.17 83.10 361.00 83.00 C 354.83 82.90 348.26 83.04 342.00 83.00 C 335.74 82.96 329.30 83.02 323.00 83.00 C 316.70 82.98 310.32 83.01 304.00 83.00 C 297.68 82.99 291.33 83.00 285.00 83.00 C 278.67 83.00 272.33 83.00 266.00 83.00 C 259.67 83.00 253.33 83.00 247.00 83.00 C 240.67 83.00 234.33 83.00 228.00 83.00 C 221.67 83.00 215.33 83.00 209.00 83.00 C 202.67 83.00 196.33 83.00 190.00 83.00 C 183.67 83.00 177.33 83.00 171.00 83.00 C 164.67 83.00 158.33 83.00 152.00 83.00 C 145.67 83.00 139.33 83.00 133.00 83.00 C 126.67 83.00 120.33 83.00 114.00 83.00 C 107.67 83.00 101.33 83.00 95.00 83.00 C 88.67 83.00 82.33 83.00 76.00 83.00 C 69.67 83.00 63.33 83.00 57.00 83.00 C 50.67 83.00 44.33 83.00 38.00 83.00 C 31.67 83.00 25.33 83.00 19.00 83.00 C 12.67 83.00 6.33 83.00 0.00 83.00
L 0.00 84.00 Z"/>
</g>
<g fill="#8B95B1" fill-opacity="1.00" stroke="None">
<path d="
M 748.00 85.00 
C 899.32 85.00 1050.68 85.00 1202.00 85.00
L 1202.00 84.00
C 1195.02 84.00 1187.98 84.00 1181.00 84.00 C 1174.02 84.00 1166.96 84.00 1160.00 84.00 C 1153.04 84.00 1145.91 84.00 1139.00 84.00 C 1132.09 84.00 1125.90 84.00 1119.00 84.00 C 1112.10 84.00 1104.92 84.00 1098.00 84.00 C 1091.08 84.00 1083.89 84.00 1077.00 84.00 C 1070.11 84.00 1063.89 84.00 1057.00 84.00 C 1050.11 84.00 1042.92 84.00 1036.00 84.00 C 1029.08 84.00 1021.89 84.00 1015.00 84.00 C 1008.11 84.00 1001.89 84.00 995.00 84.00 C 988.11 84.00 980.92 84.00 974.00 84.00 C 967.08 84.00 959.89 84.00 953.00 84.00 C 946.11 84.00 939.89 84.00 933.00 84.00 C 926.11 84.00 918.91 84.00 912.00 84.00 C 905.09 84.00 897.87 83.99 891.00 84.00 C 884.13 84.01 877.85 83.98 871.00 84.00 C 864.15 84.02 856.84 83.96 850.00 84.00 C 843.16 84.04 835.72 83.91 829.00 84.00 C 822.28 84.09 815.49 83.78 809.00 84.00 C 802.51 84.22 794.08 83.53 788.00 84.00 C 781.92 84.47 772.04 82.97 767.00 84.00 C 761.96 85.03 749.92 81.11 748.00 85.00 Z"/>
</g>
<g fill="#A2A3B6" fill-opacity="1.00" stroke="None">
<path d="
M 525.00 89.00 
C 534.42 89.85 545.88 86.64 555.00 89.00
C 547.89 86.04 533.24 87.25 525.00 88.00
C 525.00 88.00 525.00 88.50 525.00 89.00 Z"/>
</g>
<g fill="#9092A3" fill-opacity="1.00" stroke="None">
<path d="
M 742.00 95.00 
C 744.96 94.53 747.99 91.09 748.00 88.00
C 748.00 88.00 747.02 87.90 747.00 88.00
C 746.45 90.74 744.65 93.88 742.00 95.00 Z"/>
</g>
<g fill="#282B4F" fill-opacity="1.00" stroke="None">
<path d="
M 526.00 101.00 
C 529.35 103.37 538.81 100.12 543.00 101.00 C 547.19 101.88 553.59 102.05 557.25 99.25 C 560.90 96.44 559.04 90.68 555.00 89.00
C 545.88 86.64 534.42 89.85 525.00 89.00
C 525.00 92.94 526.01 97.47 526.00 101.00 Z"/>
</g>
<g fill="#8D8FA2" fill-opacity="1.00" stroke="None">
<path d="
M 461.00 96.00 
C 461.00 95.50 461.00 95.00 461.00 95.00
C 455.40 94.49 449.58 95.69 444.00 95.00
C 448.78 96.18 455.45 96.50 461.00 96.00 Z"/>
</g>
<g fill="#636782" fill-opacity="1.00" stroke="None">
<path d="
M 461.00 96.00 
C 461.00 98.97 461.45 101.63 462.00 104.00
C 461.68 101.17 461.22 97.25 461.00 95.00
C 461.00 95.00 461.00 95.50 461.00 96.00 Z"/>
</g>
<g fill="#8F91A2" fill-opacity="1.00" stroke="None">
<path d="
M 723.00 96.00 
C 726.40 93.62 736.02 96.69 740.00 95.00
C 736.03 95.00 725.71 93.29 723.00 96.00 Z"/>
</g>
<g fill="#8791AF" fill-opacity="1.00" stroke="None">
<path d="
M 516.00 118.00 
C 513.07 115.42 517.58 112.99 511.00 113.00 C 504.42 113.01 497.58 113.30 491.00 113.00 C 484.42 112.70 477.53 113.81 471.00 113.00
C 484.68 115.33 500.50 113.33 515.00 114.00
C 515.10 115.52 514.63 117.12 516.00 118.00 Z"/>
</g>
<g fill="#8590AF" fill-opacity="1.00" stroke="None">
<path d="
M 668.00 114.00 
C 682.39 111.89 699.52 117.26 713.00 113.00
C 705.24 114.39 695.91 113.00 688.00 113.00
C 683.37 113.00 671.25 110.99 668.00 114.00 Z"/>
</g>
</svg>