<svg xmlns="http://www.w3.org/2000/svg" xmlns:xlink="http://www.w3.org/1999/xlink" width="186.595" height="259.227" viewBox="0 0 186.595 259.227">
  <defs>
    <linearGradient id="linear-gradient" x1="0.5" x2="0.5" y2="1" gradientUnits="objectBoundingBox">
      <stop offset="0" stop-color="#16444f"/>
      <stop offset="0.54" stop-color="#287477"/>
      <stop offset="1" stop-color="#2a9a95"/>
    </linearGradient>
  </defs>
  <g id="Component_52_1" data-name="Component 52 – 1" transform="translate(0.5 0.5)">
    <g id="Group_27880" data-name="Group 27880" style="mix-blend-mode: normal;isolation: isolate">
      <path id="Union_2" data-name="Union 2" d="M16.655,245.825q-8.12-10.776-8.13-27.248,0-21.139,8.948-43.314c1.357-3.25,2.31-4.875,2.844-4.881.277.141.406.483.406,1.012a19.576,19.576,0,0,1-.805,4.682q-6.276,21.959-6.276,33.329a30.236,30.236,0,0,0,5.285,17.885q7.567,10.359,24.317,10.565a43.126,43.126,0,0,1,.452-7.439,184.5,184.5,0,0,0,.99-20.483q0-7.684-2.855-50.292-7.935,5.076-15.324,5.074-10.457,0-18.271-9.394Q.016,145.494,0,131.347,0,111.838,16.042,80.43q1.707-3.251,2.645-3.275c.288.1.433.368.433.851q0,3.179-6.972,21.917-6.971,18.763-6.971,29.626,0,8.358,3.893,13.311c2.758,3.6,6.587,5.38,11.524,5.38q8.853,0,19.888-8.358-.555-8.005-1.184-16.906-5.4-76.4-5.4-85.538,0-10.552-3.3-17.393,0-3.839,6.165-18.273C37.283.6,37.722.012,38.082,0c.45.012.956.632,1.542,1.872q1.755,3.753,8.145,20.7Q54.485,40.2,55.588,44.257a18.971,18.971,0,0,1,.878,4.622q0,4.87-9.361-5.828-1.1-1.522-1.1,1.319,0,1.013,4.848,67.715.654,9.008,1.22,16.953,6.658-7.149,22.388-24.2Q111.647,64.517,141,64.485a21.713,21.713,0,0,1,14.471,5.139q6.034,5.129,6.026,11.962a36.294,36.294,0,0,1-2.853,14.9c-.706,1.574-1.2,2.344-1.49,2.329-.353.016-.945-.755-1.8-2.329Q149.35,85.625,136.881,85.6q-22.5.024-51.541,29.368-15.9,17.4-31.825,34.731,2.177,31.851,2.175,37.45,0,25.668-7.809,45.137-1.571,3.774-2.542,5.545,14.628-.561,34.8-12.781a183.778,183.778,0,0,0,32.951-25.43q14.243-13.611,14.231-18.1a20.075,20.075,0,0,0-1.223-6.713q-6.1,2.079-17.322,2.07-24.033.009-24.042-16.484a33.629,33.629,0,0,1,7.95-22.167q7.55-8.959,15.9-8.958,6.323.011,13.665,7.927a72.836,72.836,0,0,1,11.62,17.677h.006c.3,0,2.658-.908,3.875-1.322q26.872-10.921,34.728-10.931,13.122.019,13.119,9.674a27.633,27.633,0,0,1-4.474,14.743q-3.659,4.9-7.423,9.861-1.921,2.555-13.021,15.77-8.438,10.079-11.593,15.974-5.494,10.169-6.508,10.165c-.2-.058-.3-.3-.3-.71q0-1.934,2.235-9.455,5.5-18.1,28.779-42.52-2.124-2.331-7.016-2.341-8.246.011-27.177,7.54l-3.85,1.657q0,5.921-2.858,14.652a53.033,53.033,0,0,1-10.164,19.129,217.368,217.368,0,0,1-33.157,31.325q-26.639,20.15-46.578,20.141Q25.82,258.227,16.655,245.825Zm100.5-88.9q-7.135-9.288-13.241-9.287-8.959.009-8.96,4.643,0,5.863,12.417,5.85A43.762,43.762,0,0,0,117.156,156.926ZM27.275,212.987a13.6,13.6,0,0,1-2.072-7.271,44.173,44.173,0,0,1,.915-7.576,82.178,82.178,0,0,1,4.024-13.5q1.1-2.749,1.768-2.749c.161.042.244.225.244.549a9.187,9.187,0,0,1-.61,2.688q-1.221,3.605-3.536,13.624-1.038,5.681.487,8.492a3.2,3.2,0,0,0,2.927,2.016,2.491,2.491,0,0,0,1.891-.856,16.5,16.5,0,0,0,1.281-2.016q.608-1.1.854-1.1,1.035,0,.122,3.3-1.646,5.987-5.245,5.987A3.322,3.322,0,0,1,27.275,212.987Zm51.035-4.441q-1.259-.1-2.609-4.548a18.7,18.7,0,0,0-5.312-9,3.59,3.59,0,0,1-.676.871q-.58.1-3.285-1.356t-2.9-2.613q-.482-5.419,2.028-5.419,4.829-.192,10.142,10.065a30.283,30.283,0,0,0,2.029,5.033q.771-4.936,1.641-9.872,1.544-9.1,5.023-9,2.608.1,4.926,3,.482.679,0,3-.388,2.324-1.256,2.323a8.725,8.725,0,0,0-1.109-1.6,3.323,3.323,0,0,0-2.561-1.595q-2.8,0-4.007,10.4-1.2,10.306-2.061,10.309ZM65.789,163.284a8.4,8.4,0,0,1-2.17-4.816A14.7,14.7,0,0,1,66.2,147.574a12.285,12.285,0,0,1,2.638-2.544,28.85,28.85,0,0,1,2.864-1.445c.023.22.067.365.035.386-2.444,1.487-4,4.034-3.3,6.947a9.711,9.711,0,0,0,1.706,3.319,16.555,16.555,0,0,1,2.571,4.2c.73,2.17.064,4.974-2.007,5.943a3.655,3.655,0,0,1-1.556.335A4.942,4.942,0,0,1,65.789,163.284Zm-53.834-36.27c-.086-.218.044-.414.392-.59q4.579-2.095,12.1-5.7-1.115-.855-6.543-1.312-5.169-.458-6.609-.065a1.168,1.168,0,0,1-.785,0c-.172-.131-.13-.393.132-.786a56.133,56.133,0,0,1,4.578-5.965q5.234-1.05,13.347,1.311,2.027.59,2.028,2.295,0,1.836-2.715,5.014a14.542,14.542,0,0,1-4.547,3.967q-3.47,1.573-10.663,2.1a1.647,1.647,0,0,1-.183.011C12.206,127.287,12.028,127.2,11.954,127.014ZM66.679,87.7a13.6,13.6,0,0,1-2.072-7.271,44.182,44.182,0,0,1,.915-7.576,82.257,82.257,0,0,1,4.024-13.5q1.1-2.749,1.768-2.749c.161.042.244.225.244.549a9.17,9.17,0,0,1-.61,2.688q-1.22,3.6-3.536,13.623-1.039,5.682.487,8.492a3.2,3.2,0,0,0,2.927,2.016,2.5,2.5,0,0,0,1.891-.855A16.727,16.727,0,0,0,74,81.106q.608-1.1.853-1.1,1.036,0,.123,3.3-1.648,5.986-5.245,5.987A3.324,3.324,0,0,1,66.679,87.7Z" stroke="rgba(0,0,0,0)" stroke-width="1" fill="url(#linear-gradient)"/>
    </g>
  </g>
</svg>
