<?xml version="1.0" encoding="UTF-8"?>
<svg id="Layer_1" data-name="Layer 1" xmlns="http://www.w3.org/2000/svg" viewBox="0 0 509.62 207.32">
  <defs>
    <style>
      .cls-1 {
        fill: #231f20;
      }

      .cls-1, .cls-2, .cls-3, .cls-4 {
        stroke-width: 0px;
      }

      .cls-2 {
        fill: #52a39d;
      }

      .cls-3 {
        fill: #102937;
      }

      .cls-4 {
        fill: #010101;
      }
    </style>
  </defs>
  <path id="Path_25808" data-name="Path 25808" class="cls-3" d="M406.92,106.65c.91,0,1.82-.13,2.7-.37-.15.32-.32.7-.5,1.14-2.89,6.9-4.42,14.3-4.51,21.78v.57c-13.38-18.31-26.08-34.64-26.08-34.64l20.59-19.47c-2.39,5.05-3.77,10.53-4.07,16.11-.11,3.89,1.2,7.7,3.68,10.7,1.92,2.59,4.94,4.14,8.16,4.19"/>
  <path id="Path_25809" data-name="Path 25809" class="cls-3" d="M422.11,138.88c-5.62-.06-9.71-1.83-12.26-5.31-1.81-2.64-2.75-5.79-2.66-8.99.34-5.7,1.4-11.33,3.17-16.76.18-.62.3-1.26.38-1.9,3.07-1.29,5.81-3.24,8.04-5.71.83-.9,1.65-1.8,2.48-2.7,1.05,15.54,1.58,24.66,1.58,27.34.03,3.44-.14,6.88-.5,10.3-.19,1.24-.27,2.49-.23,3.74"/>
  <path id="Path_25810" data-name="Path 25810" class="cls-3" d="M420.11,81.12c.18,2.5.34,4.88.5,7.17-2.64,2.84-4.1,4.41-4.4,4.7-4.53,4.21-8.51,6.32-11.94,6.31-2.01.1-3.93-.8-5.15-2.4-1.24-1.73-1.85-3.82-1.74-5.94.29-4.55,1.34-9.02,3.11-13.22.75-2.01,1.36-3.72,1.83-5.12l16.14-15.26c.42,6.38.97,14.3,1.64,23.76"/>
  <path id="Path_25811" data-name="Path 25811" class="cls-3" d="M458.74,61.96c-.21-.02-.43-.02-.64-.02-8.75,0-18.66,6-29.74,18-.69.74-1.33,1.45-1.96,2.12-.14-2.04-.3-4.17-.46-6.4-.74-10.19-1.31-18.09-1.72-23.71l1.91-1.81,2.37-2.24,10.63-10.62c2.88,4.32,6.07,8.48,9.39,12.56,3.32,4.08,6.81,8.12,10.23,12.11"/>
  <path id="Path_25812" data-name="Path 25812" class="cls-3" d="M484.24,91.44c-4.96,1.34-9.82,3.03-14.54,5.06-.61.21-1.8.67-1.95.67h0c-1.51-3.23-3.48-6.23-5.85-8.89-1.65-2.21-4.14-3.65-6.88-3.99-3.21.22-6.15,1.88-8,4.51-2.64,3.11-4.06,7.07-4.01,11.14,0,5.53,4.04,8.29,12.11,8.29,2.94.11,5.89-.24,8.72-1.04.4,1.08.61,2.22.61,3.38,0,1.51-2.39,4.54-7.17,9.1-5.03,4.88-10.6,9.17-16.6,12.79-6.78,4.1-12.62,6.25-17.54,6.43.48-.91.91-1.84,1.29-2.79,2.75-7.24,4.09-14.94,3.93-22.69,0-2.07-.44-9.47-1.33-22.2,2.06-2.24,4.11-4.49,6.17-6.74,8.66-8.73,16.34-13.09,23.04-13.1,3.47-.14,6.7,1.76,8.26,4.86.38.7.65,1.04.8,1.04s.35-.34.67-1.04c.61-1.39.99-2.86,1.14-4.37,5.64,6.59,11.34,13.13,17.11,19.6"/>
  <path id="Path_25813" data-name="Path 25813" class="cls-3" d="M452.66,93.53c2.05,0,4.27,1.56,6.67,4.67-1.61.39-3.26.59-4.92.61-4.17,0-6.26-.98-6.26-2.94,0-1.55,1.5-2.33,4.51-2.34"/>
  <path id="Path_25814" data-name="Path 25814" class="cls-3" d="M487.61,102.82c-.8.83-1.56,1.65-2.29,2.46-10.58,8.43-20.31,17.88-29.06,28.2-10.14,12.11-20.02,26.94-20.94,43.21-.02.29-.3.32-.39.05-1.53-5-8.33-15.77-16.71-27.91,1.16.21,2.33.31,3.51.3,6.7,0,14.52-3.38,23.46-10.13,6.1-4.65,11.7-9.93,16.7-15.74,2.35-2.82,4.09-6.1,5.12-9.62.86-2.36,1.34-4.85,1.44-7.36l1.94-.84c4.33-2,8.95-3.28,13.69-3.79,1.29-.12,2.57.31,3.54,1.18"/>
  <path id="Path_25815" data-name="Path 25815" class="cls-2" d="M445.31,112.67c-.56-.85-1.47-1.4-2.48-1.51-1.17-.03-2.01,1.48-2.53,4.53-.29,1.65-.57,3.31-.83,4.96-.41-.81-.76-1.66-1.02-2.53-1.79-3.44-3.49-5.13-5.11-5.06-.84,0-1.18.91-1.02,2.72.06.39.55.83,1.46,1.31.5.34,1.06.57,1.65.69.14-.13.25-.27.34-.43,1.31,1.22,2.23,2.79,2.68,4.52.46,1.49.89,2.26,1.31,2.29.29.03.64-1.7,1.04-5.18.41-3.49,1.08-5.23,2.02-5.23.53.04,1.01.34,1.29.8.22.24.41.51.56.8.29,0,.5-.39.63-1.17.16-.78.16-1.28,0-1.51"/>
  <path id="Path_25817" data-name="Path 25817" class="cls-2" d="M420.28,20.25c.59,1.26,1.96,4.72,4.11,10.4,2.25,5.91,3.57,9.55,3.94,10.9.24.75.39,1.53.44,2.32"/>
  <path id="Path_25817-2" data-name="Path 25817" class="cls-2" d="M428.76,43.88c0,1.63-1.57.66-4.71-2.93-.37-.51-.56-.29-.56.66,0,.19.24,3.63.73,10.34l-5.74,5.42c-.72-10.89-1.08-17.31-1.08-19.24.11-3-.46-5.99-1.66-8.75.6-3.19,1.64-6.28,3.1-9.18"/>
  <path id="Path_25818" data-name="Path 25818" class="cls-2" d="M438.02,59.52c-.08,0-.23.19-.43.55-.19.35-.41.69-.64,1.02-.24.27-.59.43-.95.43-.65,0-1.24-.41-1.47-1.02-.55-1.36-.64-2.86-.25-4.27.78-3.35,1.37-5.64,1.79-6.86.17-.43.27-.89.31-1.35,0-.16-.04-.25-.13-.28-.22,0-.52.46-.89,1.38-.87,2.2-1.54,4.47-2.03,6.78-.26,1.25-.42,2.53-.46,3.81,0,1.29.36,2.56,1.04,3.66.32.53.92.84,1.54.8,1.21,0,2.09-1.01,2.64-3.01.31-1.11.29-1.66-.06-1.66"/>
  <path id="Path_25819" data-name="Path 25819" class="cls-2" d="M418.17,122.51c-.08,0-.23.19-.43.55-.19.35-.41.69-.65,1.01-.24.28-.58.43-.95.43-.65,0-1.24-.41-1.47-1.02-.55-1.36-.64-2.86-.25-4.27.78-3.35,1.37-5.64,1.78-6.86.17-.43.28-.89.31-1.35,0-.16-.04-.25-.12-.28-.23,0-.53.46-.89,1.38-.87,2.2-1.55,4.47-2.03,6.78-.26,1.25-.41,2.53-.46,3.81,0,1.29.36,2.56,1.04,3.66.32.53.91.84,1.53.8,1.21,0,2.09-1.01,2.64-3.01.31-1.11.29-1.66-.06-1.66"/>
  <path id="Path_25820" data-name="Path 25820" class="cls-2" d="M413.76,84.73c-2.16-.74-4.46-.97-6.73-.66-.83.95-1.6,1.95-2.31,2.99-.13.2-.15.33-.06.4.13.04.27.04.39,0,1.11-.14,2.23-.13,3.33.03,1.13,0,2.25.22,3.3.66-2.53,1.21-4.56,2.16-6.1,2.87-.17.09-.24.19-.2.3s.16.15.36.13c1.84-.05,3.65-.41,5.37-1.06.89-.5,1.67-1.18,2.29-1.99.71-.67,1.2-1.55,1.37-2.51,0-.57-.34-.96-1.02-1.16"/>
  <path class="cls-2" d="M453.87,74.58l-.75,2.55c-1.74.95-5.14,3.5-10.19,7.67-5.39,4.45-8.32,7.27-8.78,8.49l.64-2.61c.41-1.2,3.31-4.02,8.7-8.46,5.2-4.27,8.67-6.81,10.38-7.63Z"/>
  <path class="cls-2" d="M481.93,104.98l-.88,1.54c-.97.19-3.02,1.04-6.15,2.55-3.33,1.62-5.24,2.78-5.7,3.48l.84-1.61c.44-.71,2.33-1.87,5.66-3.49,3.21-1.55,5.29-2.37,6.22-2.48Z"/>
  <path id="Path_25796" data-name="Path 25796" class="cls-4" d="M37.2,100.22c.4.07.88.13,1.42.18s1.13.08,1.77.08c1.41.03,2.81-.26,4.1-.83,1.15-.54,2.17-1.32,2.99-2.3.83-1.02,1.45-2.19,1.83-3.44.41-1.38.62-2.81.61-4.25v-19.34h-5.78v18.89c.08,1.42-.18,2.85-.76,4.15-.64,1.01-1.8,1.57-2.99,1.42-.41,0-.81-.03-1.21-.08-.44-.05-.86-.11-1.27-.18l-1.42-.3-.66,5.77c.23.07.45.12.69.15l.69.1"/>
  <rect id="Rectangle_20362" data-name="Rectangle 20362" class="cls-4" x="57.5" y="54.2" width="5.72" height="36.25"/>
  <path id="Path_25797" data-name="Path 25797" class="cls-4" d="M345.43,70.3v14.28h-2.99c-1.31.15-2.61-.34-3.49-1.32-.67-.98-1.01-2.15-.96-3.34v-6.88h-5.78v8.91c.04.68-.08,1.35-.35,1.97-.34.49-.93.75-1.52.66h-1.27c-1.31.15-2.61-.34-3.49-1.32-.67-.98-1.01-2.15-.96-3.34v-4.91h-5.77v6.94c.03.66-.09,1.32-.35,1.92-.32.52-.92.8-1.52.71H90.31v-6.03c.02-1.39-.21-2.76-.66-4.08-.41-1.19-1.06-2.28-1.92-3.2-.86-.9-1.9-1.61-3.06-2.08-1.3-.51-2.68-.76-4.08-.73-1.5-.02-2.98.3-4.33.94-1.29.62-2.43,1.49-3.37,2.56-.96,1.11-1.71,2.39-2.2,3.77-.53,1.45-.79,2.99-.78,4.53,0,1.26.21,2.51.61,3.7.41,1.22,1.07,2.33,1.95,3.27.98,1.02,2.17,1.82,3.49,2.33,1.69.63,3.49.93,5.29.88h3.39c.01.96-.21,1.9-.63,2.76-.37.67-.91,1.23-1.57,1.62-.7.4-1.46.67-2.25.78-.89.14-1.79.2-2.68.2-.64,0-1.4-.03-2.29-.1-.88-.07-1.81-.17-2.78-.3l-.4,5.67c.92.16,1.85.27,2.78.33.84.05,1.65.08,2.43.08,1.72.02,3.44-.2,5.11-.63,1.46-.38,2.84-1.04,4.05-1.95,1.17-.91,2.11-2.08,2.74-3.43.72-1.58,1.11-3.29,1.17-5.03h226.62c1.36.04,2.7-.25,3.92-.83,1.07-.52,1.94-1.36,2.51-2.4.51.89,1.2,1.65,2.03,2.25,1.06.71,2.32,1.06,3.6.99h1.62c1.3.03,2.58-.26,3.75-.83,1.07-.55,1.94-1.43,2.48-2.51.52.89,1.2,1.68,2.03,2.3,1,.73,2.21,1.1,3.44,1.04h8.86v-20.15h-5.74ZM84.58,84.58h-3.55c-.7,0-1.39-.09-2.06-.28-.64-.18-1.24-.49-1.75-.91-.52-.44-.94-1-1.21-1.62-.32-.76-.48-1.58-.46-2.4-.01-.75.12-1.49.4-2.18.25-.61.61-1.17,1.06-1.65.43-.45.93-.81,1.49-1.06.55-.25,1.14-.38,1.75-.38,1.25-.05,2.44.53,3.16,1.54.84,1.32,1.24,2.87,1.14,4.43v4.51Z"/>
  <path id="Path_25798" data-name="Path 25798" class="cls-4" d="M36.84,126.09c.81.03,1.6-.29,2.18-.86,1.15-1.15,1.15-3,0-4.15h0c-.58-.58-1.36-.89-2.18-.86-.81-.03-1.6.29-2.18.86-1.15,1.15-1.15,3.01,0,4.15.58.57,1.36.89,2.18.86"/>
  <path id="Path_25799" data-name="Path 25799" class="cls-4" d="M44.74,120.22c-.81-.03-1.6.29-2.18.86-1.15,1.14-1.15,3,0,4.15,0,0,0,0,0,0,1.22,1.14,3.12,1.14,4.34,0,1.15-1.14,1.15-3,0-4.15,0,0,0,0,0,0-.58-.57-1.36-.89-2.18-.86"/>
  <path id="Path_25800" data-name="Path 25800" class="cls-4" d="M57.35,154.65c-.81-.03-1.6.28-2.18.84-.56.54-.87,1.28-.86,2.06-.02.8.29,1.56.86,2.12,1.23,1.12,3.12,1.12,4.35,0,.57-.55.88-1.32.86-2.12.01-.78-.3-1.52-.86-2.06-.58-.57-1.37-.87-2.18-.84"/>
  <path id="Path_25801" data-name="Path 25801" class="cls-4" d="M66.61,131.06h-5.77v14.28h-10.18v-6.03c.02-1.39-.22-2.77-.69-4.08-.43-1.19-1.1-2.28-1.97-3.2-.87-.9-1.92-1.61-3.09-2.08-1.26-.5-2.61-.75-3.97-.73-1.5-.02-2.99.3-4.35.94-1.3.61-2.45,1.48-3.39,2.56-.96,1.11-1.72,2.39-2.23,3.77-.54,1.45-.82,2.99-.81,4.54,0,1.26.21,2.5.61,3.7.41,1.22,1.08,2.34,1.97,3.27.99,1.02,2.19,1.81,3.52,2.33,1.67.63,3.45.93,5.24.88h25.11v-20.15ZM44.89,145.34h-3.54c-.7,0-1.39-.09-2.06-.28-.64-.18-1.24-.49-1.75-.91-.52-.44-.94-.99-1.22-1.61-.32-.76-.48-1.58-.46-2.4-.01-.75.12-1.49.4-2.18.25-.61.61-1.17,1.06-1.65.43-.45.93-.81,1.49-1.06.55-.25,1.14-.38,1.75-.38,1.27-.07,2.48.51,3.22,1.54.81,1.33,1.19,2.88,1.09,4.43v4.5Z"/>
  <path id="Path_25802" data-name="Path 25802" class="cls-4" d="M65.19,154.65c-.81-.03-1.6.28-2.18.84-.56.54-.87,1.28-.86,2.06-.02.8.29,1.56.86,2.12,1.23,1.12,3.11,1.12,4.34,0,.57-.55.88-1.32.86-2.12.01-.78-.3-1.52-.86-2.06-.58-.57-1.37-.87-2.18-.84"/>
  <path id="Path_25803" data-name="Path 25803" class="cls-4" d="M114.44,125.23c1.15-1.11,1.18-2.94.07-4.09-.02-.02-.04-.05-.07-.07-.58-.57-1.37-.88-2.18-.86-.8-.01-1.57.3-2.13.86-1.15,1.11-1.18,2.94-.06,4.09.02.02.04.04.06.06.57.56,1.34.88,2.13.86.81.02,1.6-.29,2.18-.86"/>
  <path id="Path_25804" data-name="Path 25804" class="cls-4" d="M150,145.35h-7.39c-1.32.16-2.63-.33-3.52-1.32-.66-.99-.99-2.16-.94-3.34v-25.74h-5.82v27.74c.03.66-.1,1.32-.38,1.92-.32.51-.9.78-1.49.71h-8.91c-1.18.02-2.37-.03-3.55-.15,1.82-1.57,3.3-3.5,4.35-5.67.68-1.5,1.06-3.11,1.11-4.76-.02-.71-.23-1.4-.61-2-.47-.76-1.09-1.4-1.83-1.9-.94-.63-1.99-1.1-3.09-1.39-1.45-.38-2.95-.56-4.45-.53-1.12,0-2.24.12-3.34.35-1.11.24-2.2.56-3.27.96-1.04.39-2.05.87-3.01,1.42-.89.5-1.74,1.08-2.53,1.72l.2,4.05c.2.54.45,1.06.76,1.55.37.62.81,1.28,1.32,1.97.51.69,1.06,1.39,1.67,2.1.57.67,1.19,1.32,1.83,1.92-.48.12-.98.2-1.47.25-.66.07-1.31.11-1.97.1h-9.88v-6.03c.02-1.39-.21-2.76-.66-4.08-.41-1.19-1.07-2.28-1.92-3.2-.86-.9-1.9-1.61-3.06-2.08-1.3-.51-2.68-.76-4.08-.73-1.5-.02-2.98.3-4.33.94-1.29.61-2.43,1.48-3.37,2.56-.96,1.11-1.71,2.39-2.2,3.77-.53,1.45-.79,2.99-.78,4.53,0,1.26.21,2.51.61,3.7.41,1.22,1.07,2.33,1.95,3.27.98,1.02,2.17,1.82,3.49,2.33,1.69.63,3.49.93,5.29.88h3.39c.01.96-.21,1.9-.63,2.76-.37.67-.91,1.23-1.57,1.62-.7.4-1.46.67-2.25.78-.89.14-1.79.2-2.68.2-.64,0-1.4-.03-2.29-.1-.88-.07-1.81-.17-2.78-.3l-.4,5.67c.92.16,1.85.27,2.78.33.84.05,1.65.08,2.43.08,1.73.02,3.45-.2,5.12-.63,1.46-.38,2.84-1.04,4.05-1.95,1.17-.91,2.11-2.08,2.74-3.43.72-1.58,1.11-3.29,1.16-5.03h9.87c1.49,0,2.98-.17,4.43-.51,1.47-.32,2.88-.87,4.18-1.62,1.11.6,2.28,1.07,3.49,1.42,1.84.52,3.76.75,5.67.71h9.26c1.28.04,2.56-.24,3.71-.81,1.05-.56,1.9-1.44,2.43-2.51.52.9,1.22,1.68,2.06,2.3,1.02.73,2.26,1.1,3.52,1.04h13.31v-36.26h-5.71l-.02,30.4ZM88.08,145.35h-3.54c-.7,0-1.39-.09-2.06-.28-.64-.18-1.24-.49-1.75-.91-.52-.44-.94-1-1.21-1.62-.32-.76-.48-1.58-.46-2.4-.01-.75.12-1.49.4-2.18.25-.61.61-1.17,1.06-1.65.43-.45.93-.81,1.49-1.06.55-.25,1.14-.38,1.75-.38,1.25-.05,2.44.53,3.17,1.54.84,1.32,1.24,2.87,1.14,4.43v4.51ZM117.54,137.55c-.3.66-.68,1.29-1.11,1.87-.51.68-1.07,1.3-1.7,1.87-.64.6-1.35,1.12-2.1,1.57-.68-.47-1.32-1.02-1.9-1.62-.61-.63-1.2-1.29-1.75-1.97-.49-.6-.95-1.23-1.37-1.87-.28-.42-.54-.86-.76-1.31.95-.54,1.97-.92,3.04-1.14,1.16-.28,2.35-.42,3.54-.43.54,0,1.07.03,1.6.08.49.04.97.12,1.44.23.38.08.74.22,1.06.43.24.14.4.4.4.69-.02.56-.16,1.11-.4,1.62"/>
  <rect id="Rectangle_20363" data-name="Rectangle 20363" class="cls-4" x="164.02" y="114.96" width="5.72" height="36.25"/>
  <path id="Path_25805" data-name="Path 25805" class="cls-4" d="M235.89,154.65c-.81-.02-1.6.28-2.19.84-.57.53-.89,1.28-.88,2.06-.02.8.3,1.57.88,2.12.59.56,1.37.87,2.19.84.8.02,1.56-.29,2.13-.84.58-.55.9-1.32.88-2.12.01-.78-.31-1.53-.88-2.06-.57-.56-1.34-.86-2.13-.84"/>
  <path id="Path_25806" data-name="Path 25806" class="cls-4" d="M245.11,144.17c-.42-.54-.76-1.14-1.01-1.77-.25-.63-.43-1.28-.53-1.95-.1-.66-.19-1.32-.25-2-.15-1.28-.44-2.53-.86-3.75-.37-1.09-.95-2.1-1.7-2.97-.74-.84-1.66-1.49-2.68-1.92-1.2-.48-2.48-.72-3.77-.69-.79,0-1.57.06-2.35.18-.79.12-1.56.26-2.29.43s-1.42.35-2.06.56c-.64.2-1.17.39-1.57.56l1.47,5.57c.98-.47,2-.83,3.06-1.06.87-.21,1.76-.33,2.66-.35,1.08-.07,2.14.3,2.94,1.04.8,1.04,1.25,2.31,1.26,3.62.09,1.3.45,2.56,1.04,3.72.36.68.78,1.33,1.24,1.95h-17.37c-.83.04-1.65-.13-2.4-.48-.53-.27-.99-.66-1.34-1.14-.29-.4-.48-.86-.56-1.34-.06-.36-.09-.72-.1-1.09v-1.42c.01-1.53-.23-3.06-.73-4.51-.89-2.66-2.89-4.79-5.49-5.85-1.41-.57-2.93-.86-4.45-.83-1.57-.03-3.12.31-4.53.99-1.29.63-2.44,1.51-3.37,2.61-.92,1.1-1.64,2.36-2.1,3.72-.49,1.37-.73,2.82-.74,4.28v4.96h-1.83c-2.28-.09-4.5.73-6.17,2.29-1.7,1.81-2.56,4.26-2.38,6.73v13.87h5.77v-12.46c-.12-1.23.15-2.46.78-3.52.62-.66,1.5-1.01,2.41-.94h11.14c1.92.03,3.84-.28,5.65-.94,1.6-.6,2.99-1.67,3.97-3.06.65,1.12,1.54,2.08,2.61,2.81,1.12.79,2.46,1.2,3.82,1.19h24.46v-5.62c-.63-.37-1.19-.85-1.65-1.42M211.08,143.91c-1.06,1.02-2.52,1.5-3.97,1.32h-4.76v-4.46c-.02-1.01.11-2.02.4-2.99.22-.73.59-1.4,1.09-1.97.43-.49.98-.87,1.6-1.09.63-.22,1.3-.33,1.97-.33,1.33-.08,2.63.47,3.49,1.49.87,1.19,1.3,2.65,1.21,4.13.1,1.38-.27,2.75-1.04,3.9"/>
  <path id="Path_25807" data-name="Path 25807" class="cls-4" d="M345.03,145.35h-7.39c-1.32.16-2.63-.33-3.52-1.32-.66-.99-.98-2.16-.94-3.34v-25.74h-5.82v27.74c.03.66-.1,1.32-.38,1.92-.32.51-.9.78-1.49.71h-4.29c-.11-.03-.21-.04-.32-.05h-1.83c-.83.04-1.65-.12-2.41-.46-.53-.25-.99-.62-1.34-1.08-.29-.39-.49-.85-.58-1.33-.07-.38-.12-.77-.13-1.16.2-3.13-.73-6.24-2.61-8.75-1.89-2.15-4.67-3.3-7.52-3.12-2.83-.02-5.53,1.14-7.47,3.2-.95,1.02-1.69,2.22-2.18,3.52-.53,1.42-.8,2.93-.78,4.45.02.8-.07,1.61-.25,2.39-.13.53-.36,1.03-.69,1.46-.25.33-.6.57-.99.7-.36.12-.74.17-1.12.18h-1.97c-.13,0-.26.02-.39.05h-3.66c-1.18.02-2.37-.03-3.55-.15,1.82-1.58,3.3-3.51,4.34-5.67.68-1.5,1.06-3.11,1.11-4.76-.02-.71-.23-1.4-.61-2-.47-.76-1.09-1.4-1.83-1.9-.94-.64-1.99-1.11-3.09-1.39-1.45-.38-2.95-.56-4.46-.53-1.12,0-2.24.12-3.34.35-1.11.24-2.2.56-3.27.96-1.04.39-2.05.87-3.01,1.42-.89.5-1.74,1.08-2.53,1.72l.2,4.05c.2.54.45,1.06.76,1.55.37.62.81,1.28,1.32,1.97.51.69,1.06,1.39,1.67,2.1.58.67,1.19,1.32,1.83,1.92-.48.12-.97.2-1.47.25-.66.07-1.32.11-1.97.1h-8.34v-30.38h-5.77v36.25h14.13c1.49,0,2.98-.17,4.43-.51,1.47-.32,2.88-.87,4.18-1.62,1.11.6,2.28,1.07,3.49,1.42,1.84.52,3.76.75,5.67.71h6.43c1.08.01,2.12-.33,2.99-.97.87-.64,1.56-1.48,2.03-2.45.83,1.11,1.89,2.02,3.12,2.67,1.49.73,3.13,1.08,4.78,1.02.81,0,1.6-.03,2.38-.1.76-.06,1.51-.23,2.23-.48.75-.28,1.46-.69,2.08-1.2.76-.64,1.41-1.4,1.92-2.25,1.1,2.35,3.48,3.83,6.08,3.78h6.83c1.28.03,2.55-.25,3.7-.83,1.05-.56,1.9-1.44,2.43-2.51.52.9,1.22,1.68,2.06,2.3,1.02.73,2.26,1.1,3.52,1.04h13.31v-36.26h-5.71l-.02,30.4ZM280.98,137.55c-.3.66-.68,1.29-1.11,1.87-.51.68-1.07,1.3-1.7,1.87-.64.6-1.35,1.12-2.1,1.57-.68-.48-1.32-1.02-1.9-1.62-.62-.63-1.2-1.29-1.75-1.97-.54-.68-1-1.3-1.37-1.87-.28-.42-.54-.86-.76-1.31.95-.54,1.97-.92,3.04-1.14,1.16-.28,2.35-.42,3.54-.43.54,0,1.07.03,1.6.08.49.04.97.12,1.44.23.38.08.74.22,1.06.43.25.14.4.4.4.69-.02.56-.16,1.11-.4,1.62M307.99,144.16c-1.99,1.91-5.14,1.91-7.14,0-.78-1.02-1.18-2.27-1.14-3.55-.01-.81.12-1.61.38-2.37.23-.66.57-1.27,1.01-1.81.41-.49.92-.89,1.49-1.16.57-.27,1.2-.41,1.83-.4.61,0,1.22.14,1.77.4.58.27,1.09.67,1.49,1.16.44.54.8,1.16,1.04,1.81.28.76.42,1.56.4,2.37.04,1.28-.36,2.54-1.14,3.55"/>
  <path class="cls-1" d="M327.16,101.05c2.64-.96,5.18-1.87,7.63-2.74,2.45-.86,4.97-1.75,7.56-2.66v3.31c-2.64.91-5.18,1.8-7.63,2.66-2.45.86-4.97,1.75-7.56,2.66v-3.24Z"/>
  <path class="cls-1" d="M293.42,124.24c2.64-.96,5.18-1.87,7.63-2.74,2.45-.86,4.97-1.75,7.56-2.66v3.31c-2.64.91-5.18,1.8-7.63,2.66-2.45.86-4.97,1.75-7.56,2.66v-3.24Z"/>
  <path class="cls-1" d="M99.26,114.52c2.64-.96,5.18-1.87,7.63-2.74,2.45-.86,4.97-1.75,7.56-2.66v3.31c-2.64.91-5.18,1.8-7.63,2.66-2.45.86-4.97,1.75-7.56,2.66v-3.24Z"/>
  <path class="cls-1" d="M72.13,60.05c2.64-.96,5.18-1.87,7.63-2.74,2.45-.86,4.97-1.75,7.56-2.66v3.31c-2.64.91-5.18,1.8-7.63,2.66-2.45.86-4.97,1.75-7.56,2.66v-3.24Z"/>
  <path class="cls-1" d="M135.25,109.54c-.29.37-.64.67-1.06.92-.42.25-.88.37-1.37.37-.97,0-1.75-.31-2.33-.92-.59-.61-.88-1.42-.88-2.41v-3.06h1.57v3.14c0,.58.16,1,.49,1.27.33.27.73.41,1.2.41.45,0,.82-.16,1.14-.49.31-.33.47-.73.47-1.2v-2.63h1.53v2.63c0,.47.16.87.47,1.2.31.33.69.49,1.14.49.47,0,.87-.14,1.2-.41.33-.27.49-.7.49-1.27v-3.14h1.57v3.06c0,.99-.31,1.8-.92,2.41-.61.61-1.38.92-2.29.92-.5,0-.95-.12-1.37-.37-.42-.25-.76-.56-1.02-.92ZM134.42,100.37c.45,0,.98-.1,1.61-.31-.47-.37-.84-.8-1.1-1.29-.26-.5-.39-.97-.39-1.41,0-.78.27-1.44.8-1.96.54-.52,1.16-.78,1.86-.78s1.33.21,1.8.63c.47.42.71,1.09.71,2,0,.71-.18,1.34-.53,1.9-.35.56-.8,1.04-1.33,1.43-.54.39-1.12.69-1.75.88s-1.22.29-1.76.29c-.73,0-1.43-.06-2.1-.18-.67-.12-1.3-.27-1.9-.45l.35-1.33c.58.18,1.15.33,1.73.43.58.1,1.24.16,2,.16ZM135.83,97.31c0,.37.08.73.25,1.08.17.35.5.73,1,1.12.39-.26.72-.57.98-.94.26-.37.39-.78.39-1.26,0-.44-.12-.78-.37-1.02-.25-.24-.54-.35-.88-.35-.37,0-.69.12-.96.37-.27.25-.41.58-.41,1Z"/>
  <path class="cls-1" d="M63.24,124.05c-.29.37-.64.67-1.06.92-.42.25-.88.37-1.37.37-.97,0-1.75-.31-2.33-.92-.59-.61-.88-1.42-.88-2.41v-3.06h1.57v3.14c0,.58.16,1,.49,1.27.33.27.73.41,1.2.41.45,0,.82-.16,1.14-.49.31-.33.47-.73.47-1.2v-2.63h1.53v2.63c0,.47.16.87.47,1.2.31.33.69.49,1.14.49.47,0,.87-.14,1.2-.41.33-.27.49-.7.49-1.27v-3.14h1.57v3.06c0,.99-.31,1.8-.92,2.41-.61.61-1.38.92-2.29.92-.5,0-.95-.12-1.37-.37-.42-.25-.76-.56-1.02-.92ZM58.77,114.01c1.44-.52,2.82-1.02,4.16-1.49,1.33-.47,2.71-.95,4.12-1.45v1.8c-1.44.52-2.82,1.02-4.16,1.49-1.33.47-2.71.95-4.12,1.45v-1.8Z"/>
</svg>