<svg width="36" height="36" viewBox="0 0 36 36" fill="none" xmlns="http://www.w3.org/2000/svg">
<path d="M30.4733 18.971L31.2498 16.0731C32.1561 12.6905 32.6093 10.9992 32.268 9.53555C31.9986 8.37986 31.3925 7.33002 30.5264 6.51881C29.4294 5.49143 27.738 5.03825 24.3555 4.13187C20.9729 3.22549 19.2815 2.77231 17.8179 3.11359C16.6622 3.38305 15.6123 3.98917 14.8011 4.85531C13.9215 5.79447 13.4628 7.16936 12.7802 9.66842C12.6655 10.0881 12.5446 10.5395 12.4143 11.0259L11.6377 13.924C10.7314 17.3066 10.2782 18.9978 10.6195 20.4615C10.8889 21.6173 11.495 22.6671 12.3612 23.4783C13.4581 24.5057 15.1494 24.9588 18.5321 25.8653C21.581 26.6822 23.2557 27.131 24.6284 26.9616C24.7787 26.9432 24.9252 26.9172 25.0697 26.8835C26.2253 26.6141 27.2751 26.0079 28.0863 25.1418C29.1137 24.0449 29.567 22.3536 30.4733 18.971Z" stroke="#52A39D" stroke-width="2.25"/>
<path opacity="0.5" d="M24.6225 26.9612C24.3098 27.9189 23.7599 28.7853 23.0205 29.4779C21.9236 30.5052 20.2322 30.9584 16.8497 31.8648C13.467 32.7711 11.7757 33.2243 10.312 32.883C9.15632 32.6136 8.10648 32.0075 7.29527 31.1414C6.26789 30.0444 5.81471 28.3532 4.90833 24.9705L4.13187 22.0727C3.22549 18.69 2.77231 16.9988 3.11359 15.5351C3.38305 14.3794 3.98917 13.3296 4.85531 12.5184C5.95223 11.491 7.64354 11.0378 11.0262 10.1314C11.6661 9.95994 12.2455 9.80469 12.7743 9.66797" stroke="#52A39D" stroke-width="2.25"/>
<path d="M17.666 15L24.9104 16.9412" stroke="#52A39D" stroke-width="2.25" stroke-linecap="round"/>
<path opacity="0.5" d="M16.5 19.3462L20.8467 20.5108" stroke="#52A39D" stroke-width="2.25" stroke-linecap="round"/>
</svg>
