<svg width="39" height="39" viewBox="0 0 39 39" fill="none" xmlns="http://www.w3.org/2000/svg">
<path d="M18.3391 34.8685L18.7524 34.1704L16.6964 32.9536L16.2832 33.6517L18.3391 34.8685ZM13.1007 34.1704L13.514 34.8685L15.5699 33.6517L15.1567 32.9536L13.1007 34.1704ZM16.2832 33.6517C16.2109 33.7738 16.0846 33.8457 15.9266 33.8457C15.7685 33.8457 15.6422 33.7738 15.5699 33.6517L13.514 34.8685C14.5922 36.6901 17.261 36.6901 18.3391 34.8685L16.2832 33.6517ZM14.0153 10.7509H17.8379V8.36182H14.0153V10.7509ZM27.474 20.387V21.6612H29.8631V20.387H27.474ZM4.37922 21.6612V20.387H1.99011V21.6612H4.37922ZM1.99011 21.6612C1.99011 23.1292 1.98946 24.2899 2.0535 25.2285C2.11828 26.1777 2.25319 26.9867 2.566 27.742L4.77325 26.8277C4.60111 26.412 4.49355 25.8936 4.43707 25.0658C4.37988 24.2274 4.37922 23.1619 4.37922 21.6612H1.99011ZM10.0546 29.9998C8.79274 29.9594 8.10697 29.8496 7.57471 29.6292L6.66043 31.8364C7.61109 32.2302 8.65962 32.3455 9.97824 32.3877L10.0546 29.9998ZM2.566 27.742C3.33386 29.5958 4.80667 31.0686 6.66043 31.8364L7.57471 29.6292C6.30635 29.1038 5.29863 28.096 4.77325 26.8277L2.566 27.742ZM27.474 21.6612C27.474 23.1619 27.4733 24.2274 27.4162 25.0658C27.3596 25.8936 27.2521 26.412 27.0799 26.8277L29.2871 27.742C29.6 26.9867 29.7349 26.1777 29.7997 25.2285C29.8637 24.2899 29.8631 23.1292 29.8631 21.6612H27.474ZM21.8748 32.3877C23.1935 32.3455 24.2421 32.2302 25.1927 31.8364L24.2785 29.6292C23.7462 29.8496 23.0605 29.9594 21.7986 29.9998L21.8748 32.3877ZM27.0799 26.8277C26.5546 28.096 25.5469 29.1038 24.2785 29.6292L25.1927 31.8364C27.0465 31.0686 28.5193 29.5958 29.2871 27.742L27.0799 26.8277ZM17.8379 10.7509C19.9465 10.7509 21.444 10.7522 22.6086 10.8629C23.7556 10.972 24.4554 11.1787 25.0022 11.5137L26.2506 9.47667C25.2653 8.87291 24.1565 8.61021 22.8348 8.48454C21.531 8.36056 19.9003 8.36182 17.8379 8.36182V10.7509ZM29.8631 20.387C29.8631 18.3247 29.8644 16.6941 29.7404 15.3901C29.6148 14.0684 29.352 12.9596 28.7482 11.9744L26.7112 13.2227C27.0462 13.7695 27.2529 14.4694 27.362 15.6162C27.4727 16.7809 27.474 18.2784 27.474 20.387H29.8631ZM25.0022 11.5137C25.6987 11.9405 26.2844 12.5262 26.7112 13.2227L28.7482 11.9744C28.1244 10.9564 27.2685 10.1005 26.2506 9.47667L25.0022 11.5137ZM14.0153 8.36182C11.9529 8.36182 10.3223 8.36056 9.01839 8.48454C7.6967 8.61021 6.58791 8.87291 5.60266 9.47667L6.85097 11.5137C7.39774 11.1787 8.09772 10.972 9.24452 10.8629C10.4091 10.7522 11.9067 10.7509 14.0153 10.7509V8.36182ZM4.37922 20.387C4.37922 18.2784 4.38048 16.7809 4.49121 15.6162C4.60025 14.4694 4.80696 13.7695 5.14202 13.2227L3.10497 11.9744C2.50121 12.9596 2.2385 14.0684 2.11283 15.3901C1.98885 16.6941 1.99011 18.3247 1.99011 20.387H4.37922ZM5.60266 9.47667C4.58467 10.1005 3.72878 10.9564 3.10497 11.9744L5.14202 13.2227C5.56884 12.5262 6.15446 11.9405 6.85097 11.5137L5.60266 9.47667ZM15.1567 32.9536C14.8369 32.4132 14.5563 31.9369 14.2843 31.5623C13.9981 31.1683 13.6701 30.8121 13.2161 30.5436L11.9997 32.6C12.0732 32.6433 12.1745 32.7229 12.3513 32.9663C12.5422 33.2293 12.7583 33.5919 13.1007 34.1704L15.1567 32.9536ZM9.97824 32.3877C10.6877 32.4105 11.1412 32.4261 11.4858 32.4681C11.8115 32.5078 11.9337 32.5608 11.9997 32.6L13.2161 30.5436C12.7547 30.2708 12.2692 30.1567 11.775 30.0965C11.2997 30.0385 10.7212 30.0212 10.0546 29.9998L9.97824 32.3877ZM18.7524 34.1704C19.0947 33.5919 19.311 33.2293 19.5018 32.9663C19.6786 32.7229 19.7799 32.6433 19.8533 32.6L18.6371 30.5436C18.183 30.8121 17.8551 31.1683 17.5689 31.5623C17.2968 31.9369 17.0162 32.4132 16.6964 32.9536L18.7524 34.1704ZM21.7986 29.9998C21.132 30.0212 20.5535 30.0385 20.0781 30.0965C19.584 30.1567 19.0984 30.2708 18.6371 30.5436L19.8533 32.6C19.9194 32.5608 20.0418 32.5078 20.3673 32.4681C20.7118 32.4261 21.1654 32.4105 21.8748 32.3877L21.7986 29.9998Z" fill="#52A39D"/>
<path opacity="0.5" d="M21.3033 4.38008H24.8869V1.99097H21.3033V4.38008ZM33.8461 13.3393V14.5339H36.2352V13.3393H33.8461ZM33.8461 14.5339C33.8461 15.9416 33.8455 16.9377 33.7921 17.7206C33.7394 18.4927 33.6394 18.9697 33.4825 19.3488L35.6897 20.2631C35.9874 19.5444 36.1146 18.777 36.1756 17.8832C36.236 17.0002 36.2352 15.909 36.2352 14.5339H33.8461ZM33.4825 19.3488C32.9975 20.5196 32.0673 21.4498 30.8965 21.9348L31.8107 24.142C33.5671 23.4146 34.9623 22.0192 35.6897 20.2631L33.4825 19.3488ZM24.8869 4.38008C26.8653 4.38008 28.2651 4.38134 29.3525 4.48474C30.4222 4.58643 31.0657 4.77847 31.5645 5.0842L32.8129 3.04715C31.8756 2.47272 30.8232 2.22469 29.5787 2.10635C28.3519 1.98971 26.8191 1.99097 24.8869 1.99097V4.38008ZM36.2352 13.3393C36.2352 11.4073 36.2365 9.87437 36.1199 8.64759C36.0016 7.40304 35.7536 6.35076 35.1791 5.41339L33.1421 6.6617C33.4478 7.16059 33.6398 7.80404 33.7415 8.87373C33.845 9.96117 33.8461 11.361 33.8461 13.3393H36.2352ZM31.5645 5.0842C32.2075 5.47819 32.7481 6.01875 33.1421 6.6617L35.1791 5.41339C34.5882 4.44898 33.7773 3.63813 32.8129 3.04715L31.5645 5.0842ZM21.3033 1.99097C19.3713 1.99097 17.8384 1.98971 16.6117 2.10635C15.3671 2.22469 14.3148 2.47272 13.3775 3.04715L14.6258 5.0842C15.1247 4.77847 15.7681 4.58643 16.8379 4.48474C17.9252 4.38134 19.3251 4.38008 21.3033 4.38008V1.99097ZM13.3775 3.04715C12.4131 3.63813 11.6022 4.44898 11.0112 5.41339L13.0483 6.6617C13.4423 6.01875 13.9828 5.47819 14.6258 5.0842L13.3775 3.04715ZM12.3955 9.61854C12.4751 8.0889 12.674 7.2724 13.0483 6.6617L11.0112 5.41339C10.315 6.54954 10.0945 7.86368 10.0096 9.49443L12.3955 9.61854ZM28.7095 24.6633C29.9307 24.6227 30.9147 24.5133 31.8107 24.142L30.8965 21.9348C30.4155 22.134 29.791 22.2369 28.6302 22.2756L28.7095 24.6633Z" fill="#52A39D"/>
<path opacity="0.5" d="M10.3671 20.7056H10.3814M15.9269 20.7056H15.9412M21.4871 20.7056H21.5015" stroke="#52A39D" stroke-width="3.18548" stroke-linecap="round" stroke-linejoin="round"/>
</svg>
