<svg xmlns="http://www.w3.org/2000/svg" width="28.667" height="28.667" viewBox="0 0 28.667 28.667">
  <g id="Group_24552" data-name="Group 24552" transform="translate(1 1)">
    <path id="Path_24121" data-name="Path 24121" d="M849.335,129.256v-.667a20.233,20.233,0,0,0-.068-2.377,8,8,0,0,0-6.888-6.888,20.242,20.242,0,0,0-2.378-.068h-4.533c-4.48,0-6.72,0-8.432.872a8,8,0,0,0-3.5,3.5c-.872,1.711-.872,3.951-.872,8.432v1.067c0,4.48,0,6.721.872,8.432a8,8,0,0,0,3.5,3.5c1.712.872,3.952.872,8.432.872H840a20.239,20.239,0,0,0,2.378-.068,8,8,0,0,0,6.888-6.888,20.243,20.243,0,0,0,.068-2.378v-.666" transform="translate(-822.668 -119.256)" fill="none" stroke="#0f2837" stroke-linecap="round" stroke-linejoin="round" stroke-width="2"/>
    <path id="Path_24122" data-name="Path 24122" d="M220,661.924v-6.666m.666,10.666a.666.666,0,1,1-1.333,0m1.333,0a.666.666,0,0,0-1.333,0m1.333,0h-1.333" transform="translate(-206.332 -647.258)" fill="none" stroke="#52a39d" stroke-linecap="round" stroke-linejoin="round" stroke-width="2"/>
  </g>
</svg>
