<svg id="Component_52_1" data-name="Component 52 – 1" xmlns="http://www.w3.org/2000/svg" xmlns:xlink="http://www.w3.org/1999/xlink" width="1440" height="183" viewBox="0 0 1440 183">
  <defs>
    <linearGradient id="linear-gradient" x1="0.5" x2="0.5" y2="1" gradientUnits="objectBoundingBox">
      <stop offset="0" stop-color="#39bcd2"/>
      <stop offset="0.539" stop-color="#199eab"/>
      <stop offset="1" stop-color="#126b9a"/>
    </linearGradient>
    <clipPath id="clip-path">
      <rect id="Rectangle_20681" data-name="Rectangle 20681" width="1440" height="183" transform="translate(0 3348)" fill="url(#linear-gradient)"/>
    </clipPath>
    <clipPath id="clip-path-2">
      <path id="Path_34801" data-name="Path 34801" d="M143.878,61.967c-1.428,3.163-2.725,5.984-4.005,8.764-3.056,6.644-6.218,13.516-11.013,24.743a.718.718,0,1,0,1.322.563c4.788-11.209,7.945-18.069,11-24.7,1.361-2.957,2.741-5.958,4.277-9.367Zm148.614,0A203.882,203.882,0,0,1,280.849,81.13C258.272,113.679,218.19,128.265,190,136.4c-19.29,5.67-35.231,9.072-50.163,10.709a3.169,3.169,0,0,1-3.037-1.427,3.262,3.262,0,0,1-.129-3.451c8.462-15.157,15.162-31.569,21.645-47.442,4.458-10.916,8.991-22.015,14.145-32.826h-1.592c-5.048,10.647-9.5,21.554-13.884,32.283-6.465,15.833-13.15,32.205-21.568,47.283a4.741,4.741,0,0,0,.187,4.948,4.569,4.569,0,0,0,3.855,2.089,5.193,5.193,0,0,0,.536-.029c15.019-1.645,31.039-5.066,50.409-10.758,28.4-8.2,68.789-22.909,91.628-55.832a207.631,207.631,0,0,0,12.094-19.984Z" transform="translate(-128.802 -61.967)" fill="url(#linear-gradient)"/>
    </clipPath>
    <linearGradient id="linear-gradient-42" x1="-1.118" y1="5.254" x2="-1.109" y2="5.254" xlink:href="#linear-gradient"/>
    <clipPath id="clip-path-3">
      <path id="Path_34802" data-name="Path 34802" d="M119.518,61.967a201.019,201.019,0,0,1-16.743,28.7c-9.626,12.628-24.351,22.159-41.6,26.953v1.49c17.717-4.843,32.86-14.6,42.759-27.591a203.945,203.945,0,0,0,17.184-29.556Zm26.934,0q-.815,1.916-1.631,3.849-1.911,4.512-3.867,9.105c-12.066,28.25-25.232,54.552-53.414,65.965-1.885.763-3.814,1.448-5.735,2.041a94.447,94.447,0,0,1-20.632,3.689v1.441A96.022,96.022,0,0,0,82.227,144.3c1.96-.6,3.928-1.3,5.851-2.082,28.691-11.617,42.008-38.195,54.2-66.731q1.963-4.6,3.867-9.11l1.869-4.41Z" transform="translate(-61.173 -61.967)" fill="url(#linear-gradient)"/>
    </clipPath>
    <linearGradient id="linear-gradient-43" x1="-1.012" y1="5.277" x2="-0.995" y2="5.277" xlink:href="#linear-gradient"/>
    <clipPath id="clip-path-4">
      <path id="Path_34803" data-name="Path 34803" d="M415.667,61.967c-1.428,3.163-2.725,5.984-4,8.764-3.059,6.644-6.219,13.516-11.015,24.743a.718.718,0,1,0,1.322.563c4.787-11.209,7.945-18.069,11-24.7,1.359-2.957,2.74-5.958,4.276-9.367Zm148.614,0A204.173,204.173,0,0,1,552.638,81.13c-22.577,32.549-62.659,47.135-90.848,55.274-19.291,5.67-35.231,9.072-50.166,10.709a3.154,3.154,0,0,1-3.036-1.427,3.262,3.262,0,0,1-.129-3.451c8.462-15.157,15.164-31.569,21.645-47.442,4.458-10.916,8.989-22.015,14.145-32.826h-1.592c-5.048,10.646-9.5,21.555-13.884,32.283-6.465,15.833-13.15,32.205-21.568,47.283a4.738,4.738,0,0,0,.187,4.948,4.569,4.569,0,0,0,3.856,2.089,5.158,5.158,0,0,0,.533-.029c15.022-1.645,31.04-5.064,50.412-10.758,28.4-8.2,68.788-22.909,91.625-55.832a207.319,207.319,0,0,0,12.1-19.984Z" transform="translate(-400.591 -61.967)" fill="url(#linear-gradient)"/>
    </clipPath>
    <linearGradient id="linear-gradient-44" x1="-3.478" y1="5.254" x2="-3.47" y2="5.254" xlink:href="#linear-gradient"/>
    <clipPath id="clip-path-5">
      <path id="Path_34804" data-name="Path 34804" d="M296.232,61.967c-3.023,5.739-5.84,11.5-8.551,17.125-6.624,13.747-9.6,20.581-15.172,34.823a.718.718,0,1,0,1.338.521c5.554-14.2,8.522-21.014,15.129-34.721,2.809-5.83,5.734-11.806,8.881-17.748Zm148.72,0q-.815,1.92-1.634,3.855-1.909,4.508-3.865,9.1c-12.066,28.25-25.232,54.552-53.414,65.965-1.885.763-3.816,1.448-5.735,2.041-13.125,4.037-26.778,4.278-40.775,4.191q-12.979-.086-25.957-.226-8.385-.082-16.769-.155c-6.9-.059-13-.376-17.777-3.718a13.265,13.265,0,0,1-5.778-11.372,10.608,10.608,0,0,1,7.742-9.516c2.319-.526,4.581-.083,6.976.384.734.144,1.47.287,2.208.4a109.529,109.529,0,0,0,11.834,1.157,225.425,225.425,0,0,0,23.268-.374c10.7-.585,22.081-1.395,33.133-4.251,18.26-4.719,33.889-14.629,44.022-27.927a203.684,203.684,0,0,0,17.184-29.556h-1.6a201.023,201.023,0,0,1-16.743,28.7c-9.926,13.023-25.275,22.751-43.224,27.388-10.924,2.823-22.221,3.626-32.853,4.208a224.716,224.716,0,0,1-23.121.374A108.863,108.863,0,0,1,290.4,121.5c-.721-.112-1.44-.253-2.154-.394a17.927,17.927,0,0,0-7.571-.375,11.929,11.929,0,0,0-8.858,10.821,14.726,14.726,0,0,0,6.389,12.644c5.528,3.872,12.769,3.932,18.589,3.98q8.383.071,16.766.157,12.982.123,25.963.224,1.967.015,3.928.014c12.742,0,25.2-.555,37.278-4.27,1.96-.6,3.928-1.3,5.851-2.082,28.691-11.617,42.007-38.195,54.2-66.731q1.963-4.6,3.867-9.105.937-2.217,1.869-4.415Z" transform="translate(-271.789 -61.967)" fill="url(#linear-gradient)"/>
    </clipPath>
    <linearGradient id="linear-gradient-45" x1="-2.229" y1="5.246" x2="-2.221" y2="5.246" xlink:href="#linear-gradient"/>
    <clipPath id="clip-path-6">
      <path id="Path_34805" data-name="Path 34805" d="M687.457,61.967c-1.428,3.163-2.727,5.984-4.005,8.764-3.059,6.644-6.218,13.516-11.013,24.743a.718.718,0,1,0,1.32.563c4.787-11.209,7.945-18.069,11-24.7,1.359-2.957,2.74-5.958,4.276-9.367Zm148.612,0A204.133,204.133,0,0,1,824.427,81.13c-22.575,32.549-62.658,47.135-90.848,55.274-19.291,5.67-35.231,9.072-50.165,10.709a3.152,3.152,0,0,1-3.036-1.427,3.262,3.262,0,0,1-.131-3.451c8.462-15.157,15.164-31.569,21.644-47.442,4.458-10.916,8.991-22.015,14.145-32.826h-1.592c-5.048,10.647-9.5,21.554-13.884,32.283-6.465,15.833-13.15,32.205-21.568,47.283a4.741,4.741,0,0,0,.187,4.948,4.569,4.569,0,0,0,3.856,2.089,5.208,5.208,0,0,0,.534-.029c15.02-1.645,31.039-5.064,50.41-10.758,28.4-8.2,68.789-22.909,91.625-55.832a207.308,207.308,0,0,0,12.1-19.984Z" transform="translate(-672.381 -61.967)" fill="url(#linear-gradient)"/>
    </clipPath>
    <linearGradient id="linear-gradient-46" x1="-5.839" y1="5.254" x2="-5.83" y2="5.254" xlink:href="#linear-gradient"/>
    <clipPath id="clip-path-7">
      <path id="Path_34806" data-name="Path 34806" d="M568.023,61.967c-3.023,5.738-5.841,11.5-8.552,17.125-6.626,13.749-9.6,20.583-15.172,34.823a.718.718,0,1,0,1.338.521c5.553-14.2,8.522-21.012,15.129-34.721,2.81-5.83,5.734-11.806,8.881-17.748Zm148.717,0q-.812,1.916-1.631,3.849-1.909,4.512-3.866,9.105c-12.066,28.25-25.232,54.552-53.414,65.965-1.885.763-3.816,1.448-5.735,2.041-13.124,4.036-26.776,4.273-40.775,4.191q-12.979-.086-25.957-.226-8.385-.082-16.767-.155c-6.9-.059-13-.376-17.777-3.718a13.267,13.267,0,0,1-5.78-11.372,10.608,10.608,0,0,1,7.744-9.516c2.317-.526,4.58-.083,6.975.384.734.144,1.47.287,2.208.4a109.6,109.6,0,0,0,11.834,1.157,226.687,226.687,0,0,0,23.269-.374c10.7-.585,22.08-1.395,33.132-4.251,18.26-4.719,33.888-14.629,44.022-27.927A203.67,203.67,0,0,0,691.4,61.967h-1.6a201.155,201.155,0,0,1-16.743,28.7c-9.926,13.023-25.275,22.751-43.224,27.388-10.924,2.823-22.221,3.626-32.852,4.208a224.744,224.744,0,0,1-23.123.374,108.865,108.865,0,0,1-11.678-1.142c-.721-.112-1.44-.253-2.154-.394a17.972,17.972,0,0,0-7.571-.375,11.929,11.929,0,0,0-8.858,10.821,14.732,14.732,0,0,0,6.387,12.644c5.53,3.872,12.772,3.932,18.592,3.98q8.381.071,16.764.157,12.982.123,25.962.224c1.314.01,2.622.014,3.929.014,12.743,0,25.2-.555,37.278-4.27,1.96-.6,3.928-1.3,5.851-2.082,28.693-11.617,42.009-38.195,54.2-66.731q1.963-4.6,3.869-9.11.937-2.213,1.868-4.41Z" transform="translate(-543.578 -61.967)" fill="url(#linear-gradient)"/>
    </clipPath>
    <linearGradient id="linear-gradient-47" x1="-4.461" y1="5.246" x2="-4.452" y2="5.246" xlink:href="#linear-gradient"/>
    <clipPath id="clip-path-8">
      <path id="Path_34807" data-name="Path 34807" d="M959.246,61.967c-1.429,3.163-2.727,5.984-4.007,8.764-3.057,6.644-6.216,13.516-11.012,24.743a.718.718,0,1,0,1.322.563c4.786-11.209,7.943-18.069,11-24.7,1.36-2.957,2.741-5.958,4.277-9.367Zm148.612,0a203.926,203.926,0,0,1-11.642,19.163c-22.576,32.549-62.658,47.135-90.848,55.274-19.291,5.67-35.231,9.072-50.165,10.709a3.152,3.152,0,0,1-3.036-1.427,3.259,3.259,0,0,1-.129-3.451c8.46-15.157,15.162-31.569,21.645-47.442,4.456-10.916,8.989-22.015,14.144-32.826h-1.59c-5.05,10.646-9.5,21.555-13.884,32.283-6.465,15.833-13.15,32.205-21.568,47.283a4.738,4.738,0,0,0,.185,4.948,4.57,4.57,0,0,0,3.854,2.089,5.193,5.193,0,0,0,.536-.029c15.02-1.645,31.039-5.064,50.41-10.758,28.4-8.2,68.79-22.909,91.627-55.832a207.627,207.627,0,0,0,12.1-19.984Z" transform="translate(-944.17 -61.967)" fill="url(#linear-gradient)"/>
    </clipPath>
    <linearGradient id="linear-gradient-48" x1="-8.199" y1="5.254" x2="-8.191" y2="5.254" xlink:href="#linear-gradient"/>
    <clipPath id="clip-path-9">
      <path id="Path_34808" data-name="Path 34808" d="M839.81,61.967c-3.023,5.739-5.84,11.5-8.549,17.125-6.626,13.747-9.605,20.581-15.174,34.823a.718.718,0,1,0,1.337.521c5.554-14.2,8.522-21.015,15.128-34.721,2.81-5.83,5.735-11.806,8.883-17.748Zm148.72,0q-.815,1.92-1.634,3.855-1.907,4.508-3.865,9.1c-12.066,28.25-25.23,54.552-53.414,65.965-1.885.763-3.816,1.448-5.735,2.041-13.125,4.037-26.778,4.278-40.775,4.191q-12.977-.086-25.957-.226-8.385-.082-16.767-.155c-6.9-.059-13-.376-17.777-3.718a13.259,13.259,0,0,1-5.778-11.372,10.606,10.606,0,0,1,7.742-9.516c2.319-.526,4.58-.083,6.975.384.736.144,1.471.287,2.21.4a109.493,109.493,0,0,0,11.832,1.157,225.454,225.454,0,0,0,23.269-.374c10.7-.585,22.08-1.395,33.132-4.251,18.26-4.719,33.889-14.629,44.023-27.927a203.933,203.933,0,0,0,17.184-29.556h-1.6a200.994,200.994,0,0,1-16.743,28.7c-9.924,13.023-25.275,22.751-43.224,27.388-10.924,2.823-22.219,3.626-32.852,4.208a224.743,224.743,0,0,1-23.123.374,108.864,108.864,0,0,1-11.678-1.142c-.721-.112-1.438-.253-2.155-.394a17.912,17.912,0,0,0-7.568-.375,11.925,11.925,0,0,0-8.858,10.821,14.728,14.728,0,0,0,6.387,12.644c5.528,3.872,12.77,3.932,18.59,3.98q8.383.071,16.764.157,12.982.123,25.962.224c1.315.01,2.622.014,3.929.014,12.743,0,25.2-.555,37.278-4.27,1.96-.6,3.929-1.3,5.853-2.082,28.69-11.617,42.008-38.195,54.2-66.731q1.963-4.6,3.866-9.105.94-2.217,1.87-4.415Z" transform="translate(-815.368 -61.967)" fill="url(#linear-gradient)"/>
    </clipPath>
    <linearGradient id="linear-gradient-49" x1="-6.692" y1="5.246" x2="-6.684" y2="5.246" xlink:href="#linear-gradient"/>
    <clipPath id="clip-path-10">
      <path id="Path_34809" data-name="Path 34809" d="M210.919,68.318c-1.961.6-3.929,1.3-5.853,2.08-28.693,11.618-42.009,38.2-54.2,66.732-4.788,11.209-7.945,18.069-11,24.7s-6.218,13.516-11.013,24.743a.718.718,0,0,0,1.322.563c4.788-11.209,7.945-18.07,11-24.7s6.219-13.516,11.015-24.742c12.065-28.249,25.229-54.552,53.414-65.964,1.885-.764,3.814-1.451,5.734-2.041,13.121-4.037,26.773-4.274,40.776-4.192q12.816.084,25.633.224,8.544.08,17.09.157c5.623.047,12.619.106,17.778,3.717A13.27,13.27,0,0,1,318.4,80.967a10.6,10.6,0,0,1-7.742,9.516c-2.32.527-4.583.085-6.979-.384-.733-.144-1.468-.287-2.205-.4a108.57,108.57,0,0,0-11.832-1.155,224.77,224.77,0,0,0-23.269.372c-10.71.585-22.093,1.4-33.132,4.251-18.261,4.719-33.889,14.631-44.023,27.926-14.017,19.663-23.275,42.337-32.228,64.26-6.465,15.833-13.15,32.205-21.568,47.284a4.739,4.739,0,0,0,.187,4.946,4.571,4.571,0,0,0,3.856,2.09,4.474,4.474,0,0,0,.534-.03C155,238,171.022,234.579,190.4,228.886c28.4-8.2,68.791-22.912,91.628-55.834,8.72-12.572,15.616-26.42,21.935-39.528,6.629-13.756,9.605-20.591,15.171-34.824a.718.718,0,1,0-1.338-.521c-5.548,14.191-8.519,21.007-15.128,34.722-6.293,13.056-13.161,26.847-21.821,39.332C258.274,204.779,218.19,219.366,190,227.507c-19.3,5.67-35.239,9.072-50.163,10.709a3.163,3.163,0,0,1-3.037-1.428,3.262,3.262,0,0,1-.129-3.451c8.462-15.157,15.162-31.569,21.645-47.442,8.922-21.847,18.146-44.44,32.054-63.951C200.294,108.92,215.644,99.2,233.6,94.556c10.911-2.82,22.212-3.625,32.852-4.208a225.27,225.27,0,0,1,23.123-.372,107.521,107.521,0,0,1,11.678,1.142c.72.112,1.435.253,2.151.392a18,18,0,0,0,7.573.374,11.924,11.924,0,0,0,8.858-10.821,14.731,14.731,0,0,0-6.389-12.644c-5.522-3.867-12.767-3.929-18.589-3.978q-8.544-.073-17.089-.158-12.82-.125-25.638-.223-2.017-.015-4.024-.016c-12.711,0-25.136.565-37.182,4.273" transform="translate(-128.802 -64.045)" fill="url(#linear-gradient)"/>
    </clipPath>
    <linearGradient id="linear-gradient-50" x1="-0.966" y1="2.572" x2="-0.959" y2="2.572" xlink:href="#linear-gradient"/>
    <clipPath id="clip-path-11">
      <path id="Path_34810" data-name="Path 34810" d="M170.243,103.688c-9.8,16.34-17.391,34.26-25.421,53.229q-1.911,4.512-3.867,9.105c-12.065,28.249-25.229,54.552-53.414,65.965-1.872.759-3.8,1.445-5.735,2.041a94.334,94.334,0,0,1-20.632,3.691v1.44A95.991,95.991,0,0,0,82.227,235.4c1.974-.608,3.944-1.307,5.851-2.082,28.693-11.62,42.009-38.195,54.2-66.732q1.963-4.594,3.867-9.108c8.012-18.923,15.579-36.8,25.331-53.054a.717.717,0,1,0-1.231-.737M153.151,64.076c-15.01,1.644-31.029,5.063-50.409,10.756A261.974,261.974,0,0,0,61.173,90.257v1.6c14.619-7.153,29.466-12.033,41.97-15.645,19.3-5.669,35.241-9.071,50.165-10.707a3.155,3.155,0,0,1,3.037,1.427,3.262,3.262,0,0,1,.129,3.451c-8.46,15.157-15.162,31.57-21.645,47.442-8.922,21.849-18.145,44.44-32.054,63.951-9.624,12.628-24.351,22.157-41.6,26.951v1.49c17.718-4.843,32.86-14.6,42.759-27.589,14.019-19.663,23.277-42.337,32.228-64.26,6.465-15.832,13.15-32.2,21.568-47.283a4.744,4.744,0,0,0-.185-4.948,4.566,4.566,0,0,0-3.84-2.092,4.772,4.772,0,0,0-.552.032" transform="translate(-61.173 -64.044)" fill="url(#linear-gradient)"/>
    </clipPath>
    <linearGradient id="linear-gradient-51" x1="-0.795" y1="2.579" x2="-0.782" y2="2.579" xlink:href="#linear-gradient"/>
    <clipPath id="clip-path-12">
      <path id="Path_34811" data-name="Path 34811" d="M482.708,68.316c-1.961.6-3.929,1.3-5.853,2.08-28.691,11.62-42.009,38.2-54.2,66.732-4.788,11.209-7.945,18.069-11,24.7s-6.219,13.516-11.015,24.743a.718.718,0,0,0,1.322.563c4.787-11.209,7.945-18.07,11-24.7s6.218-13.516,11.012-24.742c12.066-28.249,25.23-54.552,53.416-65.965,1.885-.763,3.814-1.45,5.734-2.04,13.121-4.038,26.776-4.278,40.776-4.192q12.816.084,25.633.224,8.547.08,17.09.157c5.623.047,12.619.106,17.778,3.717a13.27,13.27,0,0,1,5.778,11.372,10.6,10.6,0,0,1-7.742,9.516c-2.319.527-4.583.085-6.979-.384-.733-.144-1.467-.287-2.2-.4a108.591,108.591,0,0,0-11.835-1.155,224.343,224.343,0,0,0-23.268.372c-10.712.585-22.093,1.4-33.132,4.251C486.764,97.884,471.135,107.8,461,121.09c-14.019,19.663-23.277,42.335-32.23,64.26-6.465,15.833-13.15,32.205-21.568,47.284a4.739,4.739,0,0,0,.185,4.946,4.578,4.578,0,0,0,3.859,2.09,4.426,4.426,0,0,0,.531-.03c15.012-1.644,31.03-5.063,50.412-10.756,28.4-8.2,68.789-22.912,91.625-55.834,8.72-12.571,15.618-26.42,21.936-39.528,6.627-13.754,9.605-20.589,15.171-34.824a.717.717,0,1,0-1.336-.521c-5.551,14.194-8.519,21.008-15.129,34.722-6.294,13.056-13.161,26.847-21.821,39.332-22.577,32.546-62.659,47.133-90.848,55.273-19.3,5.67-35.241,9.072-50.165,10.709a3.162,3.162,0,0,1-3.037-1.428,3.262,3.262,0,0,1-.129-3.451c8.462-15.157,15.164-31.569,21.645-47.442,8.92-21.847,18.146-44.44,32.054-63.951,9.926-13.022,25.275-22.748,43.226-27.387,10.911-2.82,22.212-3.625,32.852-4.208a224.867,224.867,0,0,1,23.123-.372,107.52,107.52,0,0,1,11.679,1.142c.72.112,1.437.253,2.151.392a17.985,17.985,0,0,0,7.574.374,11.928,11.928,0,0,0,8.858-10.821,14.738,14.738,0,0,0-6.389-12.644c-5.524-3.867-12.769-3.929-18.59-3.978q-8.544-.073-17.089-.158-12.82-.125-25.638-.223-1.853-.011-3.7-.011c-12.825,0-25.36.529-37.509,4.268" transform="translate(-400.591 -64.048)" fill="url(#linear-gradient)"/>
    </clipPath>
    <linearGradient id="linear-gradient-52" x1="-3.006" y1="2.572" x2="-2.998" y2="2.572" xlink:href="#linear-gradient"/>
    <clipPath id="clip-path-13">
      <path id="Path_34812" data-name="Path 34812" d="M451.653,64.075c-15.012,1.644-31.032,5.063-50.41,10.756-28.4,8.2-68.791,22.912-91.626,55.834-8.72,12.572-15.618,26.42-21.935,39.529-6.629,13.753-9.607,20.587-15.172,34.823a.718.718,0,1,0,1.338.521c5.551-14.193,8.519-21.007,15.129-34.722,6.291-13.056,13.16-26.847,21.82-39.332,22.575-32.544,62.659-47.132,90.848-55.273,19.3-5.669,35.241-9.071,50.165-10.707a3.154,3.154,0,0,1,3.037,1.427,3.262,3.262,0,0,1,.129,3.451c-8.46,15.157-15.162,31.569-21.645,47.442-8.922,21.849-18.145,44.44-32.054,63.951C391.351,194.8,376,204.523,358.051,209.16c-10.913,2.822-22.212,3.625-32.853,4.208a224.862,224.862,0,0,1-23.121.374A107.82,107.82,0,0,1,290.4,212.6c-.72-.112-1.437-.254-2.152-.394a18.023,18.023,0,0,0-7.573-.374,11.928,11.928,0,0,0-8.858,10.821A14.729,14.729,0,0,0,278.2,235.3c5.524,3.867,12.769,3.931,18.589,3.98q8.547.071,17.09.158,12.82.123,25.638.221,1.967.015,3.928.014c12.746,0,25.2-.555,37.278-4.27,1.974-.608,3.944-1.307,5.851-2.082,28.693-11.62,42.009-38.195,54.2-66.732q1.963-4.594,3.867-9.105c8.011-18.925,15.58-36.8,25.331-53.057a.717.717,0,1,0-1.231-.737c-9.8,16.342-17.391,34.261-25.424,53.235q-1.909,4.508-3.865,9.1c-12.065,28.249-25.23,54.552-53.416,65.965-1.869.759-3.8,1.445-5.734,2.041-13.121,4.036-26.775,4.284-40.775,4.191q-12.816-.084-25.633-.221-8.547-.084-17.093-.158c-5.622-.047-12.619-.106-17.777-3.718a13.269,13.269,0,0,1-5.778-11.372,10.6,10.6,0,0,1,7.742-9.516c2.32-.526,4.583-.083,6.981.384.733.144,1.467.287,2.2.4a108.909,108.909,0,0,0,11.834,1.157,225.954,225.954,0,0,0,23.268-.372c10.712-.586,22.094-1.4,33.133-4.252,18.261-4.719,33.889-14.629,44.022-27.926,14.019-19.663,23.277-42.337,32.23-64.26,6.465-15.832,13.15-32.2,21.568-47.284a4.742,4.742,0,0,0-.187-4.946,4.578,4.578,0,0,0-3.866-2.089,4.955,4.955,0,0,0-.524.029" transform="translate(-271.789 -64.046)" fill="url(#linear-gradient)"/>
    </clipPath>
    <linearGradient id="linear-gradient-53" x1="-1.964" y1="2.572" x2="-1.957" y2="2.572" xlink:href="#linear-gradient"/>
    <clipPath id="clip-path-14">
      <path id="Path_34813" data-name="Path 34813" d="M754.5,68.316c-1.96.6-3.929,1.3-5.851,2.08-28.693,11.62-42.009,38.2-54.2,66.732-4.785,11.209-7.942,18.069-10.995,24.7s-6.218,13.516-11.013,24.743a.718.718,0,1,0,1.32.563c4.787-11.209,7.945-18.07,11-24.7s6.218-13.516,11.012-24.742C707.835,109.445,721,83.141,749.184,71.73c1.885-.764,3.814-1.451,5.734-2.041,13.122-4.038,26.776-4.278,40.776-4.192q12.816.084,25.633.224,8.547.08,17.092.157c5.623.047,12.62.106,17.779,3.717a13.278,13.278,0,0,1,5.778,11.372,10.6,10.6,0,0,1-7.744,9.516c-2.319.527-4.583.085-6.979-.384-.733-.142-1.467-.287-2.205-.4a108.529,108.529,0,0,0-11.834-1.155,224.318,224.318,0,0,0-23.266.372c-10.713.585-22.094,1.4-33.135,4.251-18.26,4.719-33.889,14.631-44.02,27.926-14.02,19.663-23.277,42.336-32.23,64.26-6.465,15.833-13.15,32.205-21.568,47.284a4.742,4.742,0,0,0,.185,4.946,4.578,4.578,0,0,0,3.859,2.09,4.466,4.466,0,0,0,.533-.03c15.012-1.644,31.03-5.063,50.41-10.756,28.4-8.2,68.789-22.912,91.625-55.834,8.721-12.571,15.618-26.42,21.936-39.528,6.629-13.756,9.607-20.591,15.171-34.824a.718.718,0,1,0-1.338-.521c-5.55,14.191-8.518,21.007-15.128,34.722-6.293,13.056-13.161,26.847-21.821,39.332-22.575,32.546-62.658,47.133-90.848,55.273-19.3,5.67-35.241,9.074-50.163,10.709a3.161,3.161,0,0,1-3.037-1.428,3.262,3.262,0,0,1-.131-3.451c8.462-15.157,15.164-31.569,21.644-47.442,8.922-21.847,18.146-44.44,32.054-63.951,9.926-13.023,25.276-22.748,43.226-27.387,10.911-2.82,22.212-3.625,32.852-4.208a224.867,224.867,0,0,1,23.123-.372,107.485,107.485,0,0,1,11.679,1.142c.718.112,1.437.253,2.152.392a18,18,0,0,0,7.571.374,11.927,11.927,0,0,0,8.86-10.821,14.732,14.732,0,0,0-6.389-12.644c-5.524-3.867-12.769-3.929-18.59-3.978q-8.544-.073-17.089-.158-12.82-.125-25.638-.223-1.853-.011-3.7-.011c-12.826,0-25.36.529-37.509,4.268" transform="translate(-672.381 -64.048)" fill="url(#linear-gradient)"/>
    </clipPath>
    <linearGradient id="linear-gradient-54" x1="-5.045" y1="2.572" x2="-5.038" y2="2.572" xlink:href="#linear-gradient"/>
    <clipPath id="clip-path-15">
      <path id="Path_34814" data-name="Path 34814" d="M723.442,64.075c-15.01,1.644-31.03,5.063-50.411,10.756-28.4,8.2-68.789,22.912-91.626,55.834-8.72,12.572-15.616,26.42-21.935,39.529-6.629,13.754-9.607,20.59-15.172,34.823a.718.718,0,1,0,1.338.521c5.55-14.191,8.518-21.005,15.129-34.722,6.292-13.056,13.16-26.847,21.821-39.332,22.575-32.544,62.658-47.132,90.846-55.273,19.3-5.669,35.241-9.071,50.166-10.707a3.158,3.158,0,0,1,3.037,1.427,3.265,3.265,0,0,1,.129,3.451C718.3,85.537,711.6,101.95,705.12,117.823c-8.922,21.849-18.148,44.44-32.056,63.951-9.924,13.023-25.275,22.749-43.224,27.387-10.911,2.822-22.213,3.625-32.852,4.208a224.49,224.49,0,0,1-23.123.374,107.854,107.854,0,0,1-11.678-1.142c-.72-.112-1.437-.254-2.151-.394a18.031,18.031,0,0,0-7.574-.374,11.926,11.926,0,0,0-8.858,10.821,14.735,14.735,0,0,0,6.387,12.644c5.525,3.867,12.77,3.931,18.592,3.98q8.544.071,17.089.158,12.818.123,25.637.221c1.314.01,2.622.014,3.929.014,12.746,0,25.2-.555,37.278-4.27,1.974-.608,3.942-1.307,5.851-2.082,28.693-11.618,42.009-38.195,54.2-66.732q1.963-4.594,3.869-9.108c8.011-18.923,15.579-36.8,25.331-53.054a.718.718,0,1,0-1.233-.737c-9.8,16.34-17.389,34.26-25.423,53.229q-1.909,4.512-3.866,9.105c-12.065,28.249-25.23,54.552-53.416,65.965-1.869.759-3.8,1.445-5.734,2.041-13.121,4.037-26.775,4.28-40.775,4.191q-12.816-.084-25.633-.221-8.547-.084-17.092-.158c-5.623-.047-12.62-.106-17.777-3.718a13.27,13.27,0,0,1-5.78-11.372,10.6,10.6,0,0,1,7.744-9.516c2.319-.526,4.581-.083,6.979.384.733.144,1.467.287,2.2.4a108.912,108.912,0,0,0,11.834,1.157,225.987,225.987,0,0,0,23.269-.372c10.71-.586,22.093-1.4,33.132-4.252,18.261-4.719,33.889-14.629,44.022-27.926,14.019-19.663,23.277-42.337,32.23-64.26,6.465-15.832,13.15-32.2,21.568-47.284a4.742,4.742,0,0,0-.187-4.946,4.578,4.578,0,0,0-3.866-2.089,4.951,4.951,0,0,0-.524.029" transform="translate(-543.578 -64.046)" fill="url(#linear-gradient)"/>
    </clipPath>
    <linearGradient id="linear-gradient-55" x1="-3.929" y1="2.572" x2="-3.922" y2="2.572" xlink:href="#linear-gradient"/>
    <clipPath id="clip-path-16">
      <path id="Path_34815" data-name="Path 34815" d="M1081.736,88.913c-10.713.585-22.093,1.4-33.135,4.251-18.259,4.719-33.889,14.631-44.02,27.926-14.02,19.663-23.276,42.335-32.228,64.26-6.465,15.833-13.15,32.205-21.568,47.284a4.738,4.738,0,0,0,.184,4.946,4.58,4.58,0,0,0,3.859,2.09,4.448,4.448,0,0,0,.533-.03c15.012-1.644,31.03-5.063,50.41-10.756,28.4-8.2,68.79-22.912,91.627-55.834a250.747,250.747,0,0,0,18.219-31.905V137.89c-5.64,11.538-11.836,23.437-19.4,34.342-22.576,32.546-62.658,47.133-90.848,55.273-19.3,5.67-35.24,9.072-50.165,10.709a3.16,3.16,0,0,1-3.037-1.428,3.262,3.262,0,0,1-.128-3.451c8.46-15.157,15.162-31.569,21.645-47.442,8.92-21.847,18.145-44.44,32.055-63.951,9.924-13.022,25.275-22.748,43.224-27.387,10.913-2.82,22.213-3.625,32.853-4.208a224.815,224.815,0,0,1,23.12-.372c3.826.178,7.331.5,10.682.991V89.514c-3.334-.477-6.821-.8-10.614-.973-2.393-.115-4.777-.165-7.2-.165-5.024,0-10.23.217-16.063.537m-55.45-20.6c-1.96.6-3.929,1.3-5.851,2.08-28.693,11.62-42.009,38.2-54.2,66.732-4.787,11.209-7.943,18.069-11,24.7s-6.216,13.516-11.012,24.743a.718.718,0,1,0,1.322.563c4.786-11.209,7.943-18.07,11-24.7s6.218-13.516,11.012-24.742c12.067-28.249,25.23-54.552,53.416-65.965,1.885-.763,3.814-1.45,5.735-2.04,13.121-4.038,26.773-4.278,40.774-4.192q12.818.084,25.635.224,8.544.08,17.09.157c1.707.014,3.54.029,5.409.145V64.581c-1.868-.112-3.694-.126-5.4-.141q-8.544-.073-17.089-.158-12.82-.125-25.638-.223-1.853-.011-3.7-.011c-12.825,0-25.36.529-37.509,4.268" transform="translate(-944.17 -64.048)" fill="url(#linear-gradient)"/>
    </clipPath>
    <linearGradient id="linear-gradient-56" x1="-7.907" y1="2.572" x2="-7.898" y2="2.572" xlink:href="#linear-gradient"/>
    <clipPath id="clip-path-17">
      <path id="Path_34816" data-name="Path 34816" d="M995.23,64.075c-15.01,1.644-31.03,5.063-50.411,10.756-28.4,8.2-68.789,22.912-91.626,55.834-8.719,12.572-15.618,26.42-21.933,39.529-6.63,13.753-9.608,20.587-15.174,34.823a.718.718,0,1,0,1.337.521c5.551-14.193,8.521-21.007,15.128-34.722,6.294-13.056,13.163-26.847,21.823-39.332,22.575-32.544,62.659-47.132,90.848-55.273,19.3-5.669,35.24-9.071,50.165-10.707a3.158,3.158,0,0,1,3.037,1.427,3.265,3.265,0,0,1,.129,3.451c-8.462,15.157-15.162,31.569-21.645,47.442-8.922,21.849-18.148,44.44-32.056,63.951-9.923,13.022-25.275,22.749-43.224,27.387-10.913,2.822-22.214,3.625-32.852,4.208a224.9,224.9,0,0,1-23.123.374,107.856,107.856,0,0,1-11.678-1.142c-.72-.112-1.437-.254-2.151-.394-2.439-.473-4.958-.968-7.573-.374a11.923,11.923,0,0,0-8.858,10.821,14.732,14.732,0,0,0,6.387,12.644c5.524,3.867,12.769,3.931,18.59,3.98q8.545.071,17.089.158,12.82.123,25.637.221c1.315.01,2.622.014,3.929.014,12.746,0,25.2-.555,37.278-4.27,1.975-.608,3.942-1.307,5.853-2.082,28.693-11.62,42.009-38.195,54.2-66.732q1.963-4.594,3.866-9.105c8.012-18.925,15.582-36.8,25.334-53.057a.718.718,0,0,0-1.233-.737c-9.8,16.342-17.391,34.261-25.424,53.235q-1.907,4.508-3.865,9.1c-12.065,28.249-25.229,54.552-53.414,65.965-1.87.759-3.8,1.445-5.735,2.041-13.12,4.036-26.775,4.284-40.775,4.191q-12.815-.084-25.633-.221-8.544-.084-17.092-.158c-5.622-.047-12.62-.106-17.777-3.718a13.262,13.262,0,0,1-5.778-11.372,10.6,10.6,0,0,1,7.742-9.516c2.32-.526,4.581-.083,6.979.384.733.144,1.468.287,2.205.4a108.879,108.879,0,0,0,11.832,1.157,225.994,225.994,0,0,0,23.269-.372c10.71-.586,22.093-1.4,33.132-4.252,18.261-4.719,33.889-14.629,44.023-27.926,14.017-19.663,23.275-42.337,32.228-64.26,6.465-15.832,13.15-32.2,21.568-47.284a4.739,4.739,0,0,0-.187-4.946,4.578,4.578,0,0,0-3.866-2.089,4.973,4.973,0,0,0-.524.029" transform="translate(-815.368 -64.046)" fill="url(#linear-gradient)"/>
    </clipPath>
    <linearGradient id="linear-gradient-57" x1="-5.895" y1="2.572" x2="-5.887" y2="2.572" xlink:href="#linear-gradient"/>
    <clipPath id="clip-path-18">
      <path id="Path_34817" data-name="Path 34817" d="M210.919,132.362c-1.961.6-3.928,1.3-5.853,2.08-28.691,11.618-42.008,38.2-54.2,66.732-4.788,11.209-7.945,18.069-11,24.7s-6.218,13.516-11.013,24.743a.718.718,0,0,0,1.322.563c4.788-11.209,7.945-18.069,11-24.7s6.219-13.516,11.015-24.742c12.065-28.25,25.23-54.552,53.414-65.964,1.885-.763,3.814-1.45,5.734-2.041,13.125-4.038,26.778-4.275,40.776-4.192q12.816.086,25.633.223,8.544.082,17.09.158c6.9.059,13.006.378,17.778,3.718a13.267,13.267,0,0,1,5.778,11.372,10.6,10.6,0,0,1-7.742,9.516c-2.319.527-4.581.083-6.976-.384-.734-.144-1.47-.287-2.208-.4a109.183,109.183,0,0,0-11.832-1.155,225.852,225.852,0,0,0-23.269.374c-10.709.585-22.088,1.394-33.132,4.25-18.26,4.719-33.889,14.631-44.023,27.927C175.2,204.8,165.938,227.473,156.985,249.4c-6.465,15.833-13.15,32.205-21.568,47.283a4.741,4.741,0,0,0,.187,4.948,4.569,4.569,0,0,0,3.855,2.089,4.825,4.825,0,0,0,.536-.03c15.016-1.645,31.034-5.063,50.409-10.755,28.4-8.2,68.791-22.912,91.628-55.834,8.72-12.576,15.618-26.424,21.935-39.528,6.626-13.75,9.6-20.583,15.171-34.824a.717.717,0,1,0-1.336-.522c-5.554,14.2-8.522,21.012-15.129,34.722-6.291,13.052-13.16,26.844-21.821,39.331C258.274,268.824,218.19,283.412,190,291.552c-19.293,5.669-35.234,9.07-50.163,10.707a3.169,3.169,0,0,1-3.037-1.427,3.262,3.262,0,0,1-.129-3.451c8.462-15.157,15.162-31.569,21.645-47.442,8.922-21.847,18.146-44.44,32.054-63.951,9.926-13.023,25.276-22.749,43.226-27.388,10.917-2.822,22.216-3.625,32.852-4.206a223.511,223.511,0,0,1,23.123-.374,108.542,108.542,0,0,1,11.678,1.141c.72.113,1.437.254,2.154.394a17.919,17.919,0,0,0,7.57.375,11.927,11.927,0,0,0,8.858-10.821,14.726,14.726,0,0,0-6.389-12.644c-5.525-3.869-12.769-3.931-18.589-3.979q-8.544-.073-17.089-.158-12.82-.125-25.638-.223-2.017-.015-4.023-.016c-12.71,0-25.134.565-37.183,4.273" transform="translate(-128.802 -128.089)" fill="url(#linear-gradient)"/>
    </clipPath>
    <linearGradient id="linear-gradient-58" x1="-0.966" y1="2.048" x2="-0.959" y2="2.048" xlink:href="#linear-gradient"/>
    <clipPath id="clip-path-19">
      <path id="Path_34818" data-name="Path 34818" d="M170.243,167.733c-9.8,16.339-17.391,34.26-25.421,53.229q-1.911,4.512-3.867,9.105c-12.066,28.25-25.232,54.552-53.414,65.964-1.885.763-3.814,1.45-5.735,2.043a94.536,94.536,0,0,1-20.632,3.692V303.2a96.025,96.025,0,0,0,21.054-3.76c1.96-.6,3.928-1.3,5.851-2.08,28.691-11.618,42.008-38.2,54.2-66.732q1.963-4.6,3.867-9.108c8.012-18.925,15.579-36.8,25.331-53.054a.717.717,0,0,0-.246-.984.706.706,0,0,0-.369-.1.721.721,0,0,0-.616.352M153.151,128.12c-15.014,1.646-31.034,5.063-50.409,10.755A261.848,261.848,0,0,0,61.173,154.3v1.6c14.619-7.153,29.466-12.033,41.97-15.645,19.3-5.668,35.237-9.07,50.165-10.707a3.177,3.177,0,0,1,3.037,1.427,3.262,3.262,0,0,1,.129,3.451c-8.46,15.157-15.162,31.57-21.645,47.442-8.922,21.847-18.145,44.44-32.054,63.951-9.626,12.628-24.351,22.157-41.6,26.953v1.49c17.717-4.843,32.86-14.6,42.759-27.591,14.019-19.663,23.277-42.337,32.228-64.26,6.465-15.832,13.15-32.2,21.568-47.283a4.741,4.741,0,0,0-.185-4.948,4.581,4.581,0,0,0-3.859-2.089,4.8,4.8,0,0,0-.533.03" transform="translate(-61.173 -128.09)" fill="url(#linear-gradient)"/>
    </clipPath>
    <linearGradient id="linear-gradient-59" x1="-0.795" y1="2.054" x2="-0.782" y2="2.054" xlink:href="#linear-gradient"/>
    <clipPath id="clip-path-20">
      <path id="Path_34819" data-name="Path 34819" d="M482.708,132.361c-1.961.6-3.929,1.3-5.853,2.08-28.69,11.618-42.008,38.2-54.2,66.732-4.788,11.209-7.945,18.069-11,24.7s-6.219,13.516-11.015,24.743a.718.718,0,1,0,1.322.563c4.787-11.209,7.945-18.069,11-24.7s6.218-13.516,11.012-24.742c12.066-28.25,25.232-54.552,53.416-65.964,1.885-.763,3.814-1.45,5.734-2.041,13.125-4.038,26.776-4.283,40.776-4.192q12.816.086,25.633.223,8.547.082,17.09.158c6.9.059,13.006.378,17.778,3.718a13.267,13.267,0,0,1,5.778,11.372,10.6,10.6,0,0,1-7.742,9.516c-2.317.529-4.58.085-6.976-.384-.733-.144-1.47-.287-2.208-.4a109.172,109.172,0,0,0-11.834-1.155,225.839,225.839,0,0,0-23.268.374c-10.707.585-22.087,1.394-33.132,4.25-18.26,4.719-33.889,14.631-44.022,27.927-14.019,19.663-23.277,42.335-32.23,64.26-6.465,15.833-13.15,32.205-21.568,47.283a4.738,4.738,0,0,0,.187,4.948,4.569,4.569,0,0,0,3.856,2.089,4.792,4.792,0,0,0,.533-.03c15.017-1.645,31.036-5.063,50.412-10.755,28.4-8.2,68.789-22.912,91.625-55.834,8.723-12.575,15.619-26.423,21.936-39.528,6.624-13.747,9.6-20.583,15.171-34.824a.717.717,0,1,0-1.336-.522c-5.554,14.2-8.524,21.014-15.129,34.722C568.167,210,561.3,223.789,552.638,236.277c-22.575,32.547-62.659,47.135-90.848,55.275-19.3,5.669-35.235,9.07-50.166,10.707a3.173,3.173,0,0,1-3.036-1.427,3.262,3.262,0,0,1-.129-3.451c8.462-15.157,15.164-31.569,21.645-47.442,8.92-21.847,18.146-44.44,32.054-63.951,9.926-13.023,25.276-22.749,43.226-27.388,10.919-2.822,22.215-3.625,32.852-4.206a224.291,224.291,0,0,1,23.121-.374,108.5,108.5,0,0,1,11.68,1.141c.72.113,1.438.254,2.154.394a17.949,17.949,0,0,0,7.571.375,11.931,11.931,0,0,0,8.858-10.821,14.733,14.733,0,0,0-6.389-12.644c-5.527-3.869-12.77-3.931-18.59-3.979q-8.544-.073-17.089-.158-12.82-.125-25.638-.223-1.931-.013-3.852-.014c-12.77,0-25.25.549-37.354,4.271" transform="translate(-400.591 -128.09)" fill="url(#linear-gradient)"/>
    </clipPath>
    <linearGradient id="linear-gradient-60" x1="-3.006" y1="2.048" x2="-2.998" y2="2.048" xlink:href="#linear-gradient"/>
    <clipPath id="clip-path-21">
      <path id="Path_34820" data-name="Path 34820" d="M451.653,128.12c-15.016,1.646-31.036,5.063-50.41,10.755-28.4,8.2-68.791,22.912-91.626,55.835-8.723,12.575-15.618,26.423-21.935,39.528-6.624,13.746-9.6,20.581-15.172,34.823a.718.718,0,1,0,1.338.522c5.554-14.2,8.522-21.014,15.129-34.722,6.29-13.052,13.157-26.842,21.82-39.331,22.575-32.546,62.659-47.133,90.848-55.275,19.3-5.668,35.235-9.07,50.165-10.707a3.17,3.17,0,0,1,3.037,1.427,3.262,3.262,0,0,1,.129,3.451c-8.46,15.157-15.162,31.569-21.645,47.442-8.922,21.847-18.145,44.44-32.054,63.951-9.926,13.023-25.275,22.751-43.224,27.388-10.919,2.823-22.216,3.625-32.853,4.206a223.918,223.918,0,0,1-23.121.375,108.869,108.869,0,0,1-11.678-1.142c-.721-.112-1.44-.254-2.154-.394a17.972,17.972,0,0,0-7.571-.375,11.929,11.929,0,0,0-8.858,10.821,14.726,14.726,0,0,0,6.389,12.644c5.527,3.869,12.769,3.931,18.589,3.981q8.547.071,17.09.157,12.82.125,25.638.223,1.967.015,3.926.014c12.743,0,25.2-.555,37.28-4.271,1.96-.6,3.928-1.3,5.851-2.08,28.691-11.618,42.007-38.2,54.2-66.732q1.963-4.594,3.867-9.1c8.011-18.926,15.58-36.8,25.331-53.058a.717.717,0,1,0-1.231-.737c-9.8,16.342-17.391,34.261-25.424,53.235q-1.909,4.508-3.865,9.1c-12.066,28.25-25.232,54.552-53.414,65.964-1.885.763-3.816,1.45-5.735,2.043-13.124,4.037-26.776,4.28-40.775,4.191q-12.816-.084-25.633-.221-8.547-.084-17.093-.158c-6.9-.06-13-.379-17.777-3.719a13.266,13.266,0,0,1-5.778-11.372,10.606,10.606,0,0,1,7.742-9.516c2.319-.524,4.581-.083,6.976.384.734.144,1.47.287,2.208.4a109.517,109.517,0,0,0,11.834,1.157,226.231,226.231,0,0,0,23.268-.374c10.709-.585,22.087-1.395,33.133-4.251,18.26-4.719,33.889-14.629,44.022-27.927,14.019-19.663,23.277-42.337,32.23-64.26,6.465-15.832,13.15-32.2,21.568-47.283a4.744,4.744,0,0,0-.187-4.948,4.579,4.579,0,0,0-3.857-2.089,4.759,4.759,0,0,0-.533.03" transform="translate(-271.789 -128.09)" fill="url(#linear-gradient)"/>
    </clipPath>
    <linearGradient id="linear-gradient-61" x1="-1.964" y1="2.048" x2="-1.957" y2="2.048" xlink:href="#linear-gradient"/>
    <clipPath id="clip-path-22">
      <path id="Path_34821" data-name="Path 34821" d="M754.5,132.361c-1.958.6-3.928,1.3-5.85,2.08-28.691,11.618-42.008,38.2-54.2,66.732-4.785,11.209-7.942,18.069-10.995,24.7s-6.218,13.516-11.013,24.743a.718.718,0,1,0,1.32.563c4.787-11.209,7.945-18.069,11-24.7s6.218-13.516,11.012-24.742c12.066-28.25,25.232-54.552,53.416-65.964,1.885-.763,3.814-1.45,5.734-2.041,13.125-4.038,26.778-4.283,40.776-4.192q12.816.086,25.633.223,8.547.082,17.092.158c6.9.059,13.006.378,17.779,3.718a13.274,13.274,0,0,1,5.778,11.372,10.606,10.606,0,0,1-7.744,9.516c-2.317.529-4.58.085-6.976-.384-.733-.144-1.468-.287-2.208-.4a109.173,109.173,0,0,0-11.834-1.155,224.6,224.6,0,0,0-23.266.374c-10.709.585-22.088,1.394-33.135,4.25-18.258,4.719-33.888,14.631-44.02,27.927-14.02,19.663-23.277,42.336-32.23,64.26-6.465,15.833-13.15,32.205-21.568,47.283a4.741,4.741,0,0,0,.187,4.948,4.57,4.57,0,0,0,3.856,2.089,4.838,4.838,0,0,0,.534-.03c15.016-1.645,31.034-5.063,50.41-10.755,28.4-8.2,68.789-22.912,91.625-55.834,8.723-12.575,15.619-26.423,21.936-39.528,6.626-13.75,9.6-20.583,15.171-34.824a.718.718,0,1,0-1.338-.522c-5.553,14.2-8.521,21.012-15.128,34.722-6.291,13.052-13.158,26.844-21.821,39.331-22.574,32.547-62.658,47.135-90.848,55.275-19.3,5.669-35.235,9.07-50.165,10.707a3.17,3.17,0,0,1-3.036-1.427,3.262,3.262,0,0,1-.131-3.451c8.462-15.157,15.164-31.569,21.644-47.442,8.922-21.847,18.146-44.44,32.054-63.951,9.926-13.023,25.276-22.749,43.226-27.388,10.918-2.822,22.215-3.625,32.852-4.206a224.3,224.3,0,0,1,23.121-.374,108.533,108.533,0,0,1,11.68,1.141c.72.113,1.438.254,2.154.394a18,18,0,0,0,7.571.375,11.931,11.931,0,0,0,8.858-10.821,14.726,14.726,0,0,0-6.389-12.644c-5.527-3.869-12.77-3.931-18.59-3.979q-8.544-.073-17.089-.158-12.82-.125-25.638-.223-1.931-.013-3.852-.014c-12.77,0-25.249.549-37.356,4.271" transform="translate(-672.381 -128.09)" fill="url(#linear-gradient)"/>
    </clipPath>
    <linearGradient id="linear-gradient-62" x1="-5.045" y1="2.048" x2="-5.038" y2="2.048" xlink:href="#linear-gradient"/>
    <clipPath id="clip-path-23">
      <path id="Path_34822" data-name="Path 34822" d="M723.442,128.12c-15.016,1.646-31.036,5.063-50.411,10.755-28.4,8.2-68.789,22.912-91.626,55.835-8.722,12.574-15.618,26.421-21.935,39.528-6.626,13.749-9.6,20.583-15.172,34.823a.718.718,0,1,0,1.338.522c5.553-14.2,8.522-21.012,15.129-34.722,6.291-13.052,13.16-26.842,21.821-39.331,22.575-32.546,62.658-47.133,90.846-55.275,19.3-5.668,35.237-9.07,50.166-10.707a3.174,3.174,0,0,1,3.037,1.427,3.265,3.265,0,0,1,.129,3.451c-8.462,15.157-15.164,31.57-21.645,47.442-8.922,21.847-18.148,44.44-32.056,63.951-9.926,13.023-25.275,22.751-43.224,27.388-10.919,2.823-22.216,3.625-32.852,4.206a225.174,225.174,0,0,1-23.123.375,108.871,108.871,0,0,1-11.678-1.142c-.721-.112-1.44-.254-2.154-.394a17.971,17.971,0,0,0-7.571-.375A11.929,11.929,0,0,0,543.6,286.7a14.732,14.732,0,0,0,6.387,12.644c5.527,3.869,12.772,3.931,18.592,3.981q8.544.071,17.089.157,12.818.125,25.637.223,1.972.015,3.928.014c12.745,0,25.2-.555,37.28-4.271,1.96-.6,3.928-1.3,5.851-2.08,28.693-11.618,42.009-38.195,54.2-66.732q1.963-4.6,3.869-9.108c8.011-18.925,15.579-36.8,25.331-53.054a.718.718,0,1,0-1.233-.737c-9.8,16.339-17.389,34.26-25.423,53.229q-1.909,4.512-3.866,9.105c-12.066,28.25-25.232,54.552-53.414,65.964-1.885.763-3.816,1.45-5.735,2.043-13.124,4.037-26.775,4.28-40.775,4.191q-12.816-.084-25.633-.221-8.547-.084-17.092-.158c-6.9-.06-13.006-.379-17.777-3.719a13.267,13.267,0,0,1-5.78-11.372,10.606,10.606,0,0,1,7.744-9.516c2.317-.524,4.58-.083,6.975.384.734.144,1.47.287,2.208.4a109.589,109.589,0,0,0,11.834,1.157,225.454,225.454,0,0,0,23.269-.374c10.707-.585,22.086-1.395,33.132-4.251,18.26-4.719,33.888-14.629,44.022-27.927,14.019-19.663,23.277-42.337,32.23-64.26,6.465-15.832,13.15-32.2,21.568-47.283a4.744,4.744,0,0,0-.187-4.948,4.579,4.579,0,0,0-3.857-2.089,4.756,4.756,0,0,0-.533.03" transform="translate(-543.578 -128.09)" fill="url(#linear-gradient)"/>
    </clipPath>
    <linearGradient id="linear-gradient-63" x1="-3.929" y1="2.048" x2="-3.922" y2="2.048" xlink:href="#linear-gradient"/>
    <clipPath id="clip-path-24">
      <path id="Path_34823" data-name="Path 34823" d="M1081.736,152.96c-10.709.585-22.089,1.394-33.135,4.25-18.259,4.719-33.888,14.631-44.02,27.927-14.02,19.663-23.276,42.335-32.228,64.26-6.465,15.833-13.15,32.205-21.568,47.283a4.738,4.738,0,0,0,.185,4.948,4.57,4.57,0,0,0,3.854,2.089,4.824,4.824,0,0,0,.536-.03c15.016-1.645,31.036-5.063,50.41-10.755,28.4-8.2,68.791-22.912,91.627-55.834a250.787,250.787,0,0,0,18.219-31.905v-3.257c-5.639,11.535-11.835,23.436-19.4,34.342-22.576,32.547-62.658,47.135-90.848,55.275-19.3,5.669-35.235,9.07-50.165,10.707a3.171,3.171,0,0,1-3.036-1.427,3.26,3.26,0,0,1-.129-3.451c8.46-15.157,15.162-31.569,21.645-47.442,8.92-21.847,18.145-44.44,32.055-63.951,9.924-13.023,25.276-22.749,43.224-27.388,10.917-2.822,22.215-3.625,32.853-4.206a224.265,224.265,0,0,1,23.12-.374c3.826.181,7.331.506,10.682.991v-1.452c-3.333-.476-6.82-.8-10.614-.973-2.392-.112-4.771-.162-7.192-.162-5.036,0-10.243.215-16.075.536m-55.452-20.6c-1.958.6-3.928,1.3-5.85,2.08-28.691,11.618-42.009,38.2-54.2,66.732-4.787,11.209-7.943,18.069-11,24.7s-6.216,13.516-11.012,24.743a.718.718,0,1,0,1.322.563c4.786-11.209,7.943-18.069,11-24.7s6.218-13.516,11.012-24.742c12.067-28.25,25.232-54.552,53.416-65.964,1.885-.763,3.814-1.45,5.735-2.041,13.125-4.038,26.776-4.283,40.774-4.192q12.818.086,25.635.223,8.544.082,17.09.158c1.865.016,3.672.05,5.409.159v-1.455c-1.869-.112-3.694-.126-5.4-.141q-8.544-.073-17.089-.158-12.82-.125-25.638-.223-1.931-.013-3.852-.014c-12.77,0-25.249.549-37.356,4.271" transform="translate(-944.17 -128.09)" fill="url(#linear-gradient)"/>
    </clipPath>
    <linearGradient id="linear-gradient-64" x1="-7.907" y1="2.048" x2="-7.898" y2="2.048" xlink:href="#linear-gradient"/>
    <clipPath id="clip-path-25">
      <path id="Path_34824" data-name="Path 34824" d="M995.23,128.12c-15.016,1.646-31.036,5.063-50.411,10.755-28.4,8.2-68.789,22.912-91.626,55.835-8.722,12.575-15.619,26.423-21.933,39.528-6.626,13.746-9.605,20.581-15.174,34.823a.718.718,0,1,0,1.337.522c5.554-14.2,8.522-21.015,15.128-34.722,6.292-13.052,13.16-26.842,21.823-39.331,22.575-32.546,62.659-47.133,90.848-55.275,19.294-5.668,35.235-9.07,50.165-10.707a3.174,3.174,0,0,1,3.037,1.427,3.265,3.265,0,0,1,.129,3.451c-8.462,15.157-15.162,31.569-21.645,47.442-8.922,21.847-18.148,44.44-32.056,63.951-9.924,13.023-25.275,22.751-43.224,27.388-10.919,2.823-22.216,3.625-32.852,4.206a223.945,223.945,0,0,1-23.123.375,108.87,108.87,0,0,1-11.678-1.142c-.721-.112-1.438-.254-2.155-.394a17.957,17.957,0,0,0-7.568-.375,11.925,11.925,0,0,0-8.858,10.821,14.729,14.729,0,0,0,6.387,12.644c5.525,3.869,12.769,3.931,18.59,3.981q8.545.071,17.089.157,12.82.125,25.637.223c1.315.01,2.622.014,3.929.014,12.743,0,25.2-.555,37.278-4.271,1.96-.6,3.929-1.3,5.853-2.08,28.69-11.618,42.008-38.2,54.2-66.732q1.963-4.594,3.866-9.1c8.012-18.926,15.582-36.8,25.334-53.058a.718.718,0,0,0-1.233-.737c-9.8,16.342-17.391,34.261-25.424,53.235q-1.907,4.508-3.865,9.1c-12.066,28.25-25.23,54.552-53.414,65.964-1.885.763-3.816,1.45-5.735,2.043-13.124,4.037-26.775,4.28-40.775,4.191q-12.815-.084-25.633-.221-8.544-.084-17.092-.158c-6.9-.06-13-.379-17.777-3.719a13.259,13.259,0,0,1-5.778-11.372,10.6,10.6,0,0,1,7.742-9.516c2.319-.524,4.58-.083,6.975.384.736.144,1.471.287,2.21.4a109.481,109.481,0,0,0,11.832,1.157,226.266,226.266,0,0,0,23.269-.374c10.707-.585,22.087-1.395,33.132-4.251,18.26-4.719,33.889-14.629,44.023-27.927,14.017-19.663,23.275-42.337,32.228-64.26,6.465-15.832,13.15-32.2,21.568-47.283a4.741,4.741,0,0,0-.187-4.948,4.577,4.577,0,0,0-3.857-2.089,4.775,4.775,0,0,0-.533.03" transform="translate(-815.368 -128.09)" fill="url(#linear-gradient)"/>
    </clipPath>
    <linearGradient id="linear-gradient-65" x1="-5.895" y1="2.048" x2="-5.887" y2="2.048" xlink:href="#linear-gradient"/>
    <clipPath id="clip-path-26">
      <path id="Path_34825" data-name="Path 34825" d="M210.919,196.406c-1.975.608-3.944,1.307-5.853,2.08-28.693,11.618-42.009,38.2-54.2,66.732-4.788,11.209-7.945,18.069-11,24.7s-6.218,13.516-11.013,24.742a.719.719,0,1,0,1.322.565c4.788-11.209,7.945-18.07,11-24.7s6.219-13.516,11.015-24.742c12.065-28.249,25.229-54.552,53.414-65.964,1.871-.76,3.8-1.447,5.734-2.041,13.121-4.037,26.773-4.275,40.776-4.192q12.816.084,25.633.223,8.544.082,17.09.157c5.623.049,12.619.106,17.778,3.718a13.27,13.27,0,0,1,5.778,11.372,10.6,10.6,0,0,1-7.742,9.516c-2.32.529-4.583.083-6.979-.384-.733-.144-1.468-.287-2.205-.4a108.572,108.572,0,0,0-11.832-1.155,224.359,224.359,0,0,0-23.269.372c-10.71.585-22.093,1.4-33.132,4.251-18.261,4.719-33.889,14.629-44.023,27.925-14.017,19.663-23.275,42.337-32.228,64.26-6.465,15.833-13.15,32.2-21.568,47.284a4.739,4.739,0,0,0,.187,4.946,4.571,4.571,0,0,0,3.856,2.09,4.8,4.8,0,0,0,.534-.03c15.01-1.643,31.029-5.063,50.409-10.756,28.4-8.2,68.791-22.912,91.628-55.834,8.72-12.572,15.616-26.42,21.935-39.528,6.629-13.756,9.605-20.591,15.171-34.824a.718.718,0,1,0-1.338-.521c-5.548,14.191-8.519,21.007-15.128,34.722-6.293,13.056-13.161,26.847-21.821,39.332C258.274,332.867,218.19,347.455,190,355.595c-19.3,5.669-35.239,9.071-50.163,10.709a3.141,3.141,0,0,1-3.037-1.428,3.262,3.262,0,0,1-.129-3.451c8.462-15.157,15.162-31.569,21.645-47.442,8.922-21.849,18.146-44.44,32.054-63.951,9.924-13.023,25.275-22.748,43.226-27.387,10.911-2.822,22.212-3.625,32.852-4.208a225.677,225.677,0,0,1,23.123-.372,107.527,107.527,0,0,1,11.678,1.141c.72.114,1.435.254,2.151.394a18,18,0,0,0,7.573.374,11.924,11.924,0,0,0,8.858-10.821,14.731,14.731,0,0,0-6.389-12.644c-5.522-3.867-12.767-3.929-18.589-3.978q-8.544-.073-17.089-.158-12.82-.125-25.638-.223-1.905-.013-3.8-.013c-12.79,0-25.289.542-37.407,4.27" transform="translate(-128.802 -192.136)" fill="url(#linear-gradient)"/>
    </clipPath>
    <linearGradient id="linear-gradient-66" x1="-0.966" y1="1.524" x2="-0.959" y2="1.524" xlink:href="#linear-gradient"/>
    <clipPath id="clip-path-27">
      <path id="Path_34826" data-name="Path 34826" d="M170.243,231.777c-9.8,16.339-17.391,34.258-25.421,53.229q-1.911,4.512-3.867,9.105c-12.065,28.249-25.229,54.552-53.414,65.965-1.885.763-3.814,1.45-5.735,2.04a94.424,94.424,0,0,1-20.632,3.692v1.439a95.91,95.91,0,0,0,21.054-3.76c1.96-.6,3.929-1.3,5.851-2.08,28.693-11.62,42.009-38.2,54.2-66.732q1.963-4.6,3.867-9.108c8.012-18.924,15.579-36.8,25.331-53.054a.716.716,0,0,0-.246-.984.7.7,0,0,0-.369-.1.72.72,0,0,0-.616.351m-17.092-39.613c-15.01,1.644-31.029,5.063-50.409,10.756a261.977,261.977,0,0,0-41.569,15.425v1.6c14.619-7.153,29.466-12.033,41.97-15.645,19.3-5.669,35.241-9.072,50.165-10.709a3.178,3.178,0,0,1,3.037,1.428,3.262,3.262,0,0,1,.129,3.451c-8.46,15.157-15.162,31.569-21.645,47.442-8.922,21.847-18.145,44.44-32.054,63.951-9.624,12.628-24.351,22.157-41.6,26.951v1.49c17.718-4.843,32.86-14.6,42.759-27.589,14.019-19.663,23.277-42.337,32.228-64.26,6.465-15.833,13.15-32.2,21.568-47.283a4.744,4.744,0,0,0-.185-4.948,4.573,4.573,0,0,0-3.847-2.092,4.653,4.653,0,0,0-.544.032" transform="translate(-61.173 -192.133)" fill="url(#linear-gradient)"/>
    </clipPath>
    <linearGradient id="linear-gradient-67" x1="-0.795" y1="1.528" x2="-0.782" y2="1.528" xlink:href="#linear-gradient"/>
    <clipPath id="clip-path-28">
      <path id="Path_34827" data-name="Path 34827" d="M482.708,196.407c-1.974.608-3.944,1.307-5.853,2.08-28.691,11.62-42.009,38.2-54.2,66.732-4.788,11.209-7.945,18.069-11,24.7s-6.219,13.516-11.015,24.742a.719.719,0,1,0,1.322.565c4.787-11.209,7.945-18.07,11-24.7s6.218-13.516,11.012-24.742c12.066-28.249,25.23-54.552,53.416-65.965,1.871-.759,3.8-1.445,5.734-2.04,13.121-4.038,26.776-4.278,40.776-4.192q12.816.084,25.633.223,8.547.082,17.09.157c5.623.049,12.619.106,17.778,3.718a13.27,13.27,0,0,1,5.778,11.372,10.6,10.6,0,0,1-7.742,9.516c-2.319.529-4.583.083-6.979-.384-.733-.144-1.467-.287-2.2-.4a108.6,108.6,0,0,0-11.835-1.155,223.931,223.931,0,0,0-23.268.372c-10.712.585-22.093,1.4-33.132,4.251-18.261,4.719-33.891,14.629-44.022,27.925-14.019,19.663-23.277,42.335-32.23,64.26-6.465,15.833-13.15,32.2-21.568,47.284a4.739,4.739,0,0,0,.185,4.946,4.578,4.578,0,0,0,3.859,2.09,4.74,4.74,0,0,0,.531-.03c15.012-1.643,31.03-5.063,50.412-10.756,28.4-8.2,68.789-22.912,91.625-55.834,8.72-12.571,15.618-26.42,21.936-39.528,6.627-13.754,9.605-20.589,15.171-34.824a.717.717,0,1,0-1.336-.521c-5.551,14.193-8.519,21.008-15.129,34.722-6.294,13.056-13.161,26.847-21.821,39.332-22.577,32.546-62.659,47.133-90.848,55.273-19.3,5.669-35.241,9.071-50.165,10.709a3.167,3.167,0,0,1-3.037-1.428,3.262,3.262,0,0,1-.129-3.451c8.462-15.157,15.164-31.569,21.645-47.442,8.92-21.849,18.146-44.44,32.054-63.951,9.926-13.022,25.275-22.748,43.226-27.387,10.911-2.822,22.212-3.625,32.852-4.208a224.059,224.059,0,0,1,23.123-.372,107.534,107.534,0,0,1,11.679,1.141c.72.114,1.437.254,2.151.394a17.985,17.985,0,0,0,7.574.374,11.928,11.928,0,0,0,8.858-10.821,14.738,14.738,0,0,0-6.389-12.644c-5.524-3.867-12.769-3.929-18.59-3.978q-8.544-.073-17.089-.158-12.82-.125-25.638-.223-2.017-.015-4.024-.016c-12.711,0-25.136.565-37.182,4.273" transform="translate(-400.591 -192.134)" fill="url(#linear-gradient)"/>
    </clipPath>
    <linearGradient id="linear-gradient-68" x1="-3.006" y1="1.524" x2="-2.998" y2="1.524" xlink:href="#linear-gradient"/>
    <clipPath id="clip-path-29">
      <path id="Path_34828" data-name="Path 34828" d="M451.653,192.164c-15.012,1.643-31.032,5.063-50.41,10.756-28.4,8.2-68.791,22.912-91.626,55.834-8.72,12.572-15.618,26.42-21.935,39.528-6.629,13.754-9.607,20.589-15.172,34.824a.718.718,0,1,0,1.338.521c5.551-14.193,8.519-21.007,15.129-34.722,6.291-13.056,13.16-26.847,21.82-39.332,22.575-32.546,62.659-47.132,90.848-55.274,19.3-5.669,35.241-9.072,50.165-10.709a3.177,3.177,0,0,1,3.037,1.428,3.262,3.262,0,0,1,.129,3.451c-8.46,15.157-15.162,31.569-21.645,47.442-8.922,21.847-18.145,44.44-32.054,63.951-9.924,13.022-25.275,22.749-43.224,27.387-10.913,2.822-22.212,3.625-32.853,4.208a224.816,224.816,0,0,1-23.121.372,107.08,107.08,0,0,1-11.678-1.142c-.72-.112-1.437-.253-2.152-.392a18,18,0,0,0-7.573-.374,11.928,11.928,0,0,0-8.858,10.821,14.731,14.731,0,0,0,6.389,12.644c5.524,3.867,12.769,3.929,18.589,3.98q8.547.071,17.09.157,12.82.125,25.638.223,1.967.013,3.929.014c12.744,0,25.2-.555,37.277-4.271,1.96-.6,3.928-1.3,5.851-2.08,28.693-11.62,42.009-38.2,54.2-66.732q1.963-4.594,3.867-9.105c8.011-18.925,15.58-36.8,25.331-53.057a.717.717,0,1,0-1.231-.737c-9.8,16.342-17.391,34.261-25.424,53.233q-1.909,4.51-3.865,9.1c-12.065,28.249-25.23,54.552-53.416,65.965-1.883.763-3.813,1.45-5.734,2.04-13.121,4.037-26.775,4.285-40.775,4.192q-12.816-.084-25.633-.223-8.547-.082-17.093-.157c-5.622-.049-12.619-.108-17.777-3.718a13.271,13.271,0,0,1-5.778-11.372,10.6,10.6,0,0,1,7.742-9.516c2.32-.527,4.583-.085,6.981.384.733.144,1.467.287,2.2.4a108.916,108.916,0,0,0,11.834,1.156,224.775,224.775,0,0,0,23.268-.374c10.712-.585,22.094-1.4,33.133-4.251,18.261-4.719,33.889-14.629,44.022-27.925,14.019-19.663,23.277-42.337,32.23-64.26,6.465-15.833,13.15-32.2,21.568-47.284a4.742,4.742,0,0,0-.187-4.946,4.578,4.578,0,0,0-3.863-2.089,5.025,5.025,0,0,0-.527.029" transform="translate(-271.789 -192.135)" fill="url(#linear-gradient)"/>
    </clipPath>
    <linearGradient id="linear-gradient-69" x1="-1.964" y1="1.524" x2="-1.957" y2="1.524" xlink:href="#linear-gradient"/>
    <clipPath id="clip-path-30">
      <path id="Path_34829" data-name="Path 34829" d="M754.5,196.407c-1.973.608-3.942,1.307-5.85,2.08-28.693,11.62-42.009,38.2-54.2,66.732-4.785,11.209-7.942,18.069-10.995,24.7s-6.218,13.516-11.013,24.742a.718.718,0,1,0,1.32.565c4.787-11.209,7.945-18.07,11-24.7s6.218-13.516,11.012-24.742c12.066-28.249,25.23-54.552,53.416-65.964,1.871-.76,3.8-1.447,5.734-2.041,13.122-4.038,26.776-4.278,40.776-4.192q12.816.084,25.633.223,8.547.082,17.092.157c5.623.049,12.62.106,17.779,3.718a13.278,13.278,0,0,1,5.778,11.372,10.6,10.6,0,0,1-7.744,9.516c-2.319.529-4.583.083-6.979-.384-.733-.142-1.467-.287-2.205-.4a108.533,108.533,0,0,0-11.834-1.155,223.906,223.906,0,0,0-23.266.372c-10.713.585-22.094,1.4-33.135,4.251-18.26,4.719-33.889,14.629-44.02,27.925-14.02,19.663-23.277,42.337-32.23,64.26-6.465,15.833-13.15,32.2-21.568,47.284a4.742,4.742,0,0,0,.185,4.946,4.577,4.577,0,0,0,3.859,2.09,4.784,4.784,0,0,0,.533-.03c15.012-1.643,31.03-5.063,50.41-10.756,28.4-8.2,68.789-22.912,91.625-55.834,8.721-12.571,15.618-26.42,21.936-39.528,6.629-13.756,9.607-20.591,15.171-34.824a.718.718,0,1,0-1.338-.521c-5.55,14.191-8.518,21.007-15.128,34.722-6.293,13.056-13.161,26.847-21.821,39.332-22.575,32.546-62.658,47.133-90.848,55.273-19.3,5.669-35.241,9.074-50.163,10.709a3.139,3.139,0,0,1-3.037-1.428,3.262,3.262,0,0,1-.131-3.451c8.462-15.157,15.164-31.569,21.644-47.442,8.922-21.849,18.146-44.44,32.054-63.951,9.926-13.023,25.276-22.748,43.226-27.387,10.911-2.822,22.212-3.625,32.852-4.208a224.058,224.058,0,0,1,23.123-.372,107.5,107.5,0,0,1,11.679,1.141c.718.114,1.437.254,2.152.394a18,18,0,0,0,7.571.374,11.927,11.927,0,0,0,8.86-10.821,14.731,14.731,0,0,0-6.389-12.644c-5.524-3.867-12.769-3.929-18.59-3.978q-8.544-.073-17.089-.158-12.82-.125-25.638-.223-2.017-.015-4.024-.016c-12.711,0-25.135.565-37.183,4.273" transform="translate(-672.381 -192.134)" fill="url(#linear-gradient)"/>
    </clipPath>
    <linearGradient id="linear-gradient-70" x1="-5.045" y1="1.524" x2="-5.038" y2="1.524" xlink:href="#linear-gradient"/>
    <clipPath id="clip-path-31">
      <path id="Path_34830" data-name="Path 34830" d="M723.442,192.164c-15.01,1.643-31.03,5.063-50.411,10.756-28.4,8.2-68.789,22.912-91.626,55.834-8.72,12.571-15.616,26.42-21.935,39.528-6.629,13.756-9.607,20.591-15.172,34.824a.718.718,0,1,0,1.338.521c5.55-14.191,8.518-21.005,15.129-34.722,6.292-13.056,13.16-26.847,21.821-39.332,22.575-32.546,62.658-47.132,90.846-55.274,19.3-5.669,35.241-9.072,50.166-10.709a3.18,3.18,0,0,1,3.037,1.428,3.265,3.265,0,0,1,.129,3.451c-8.462,15.157-15.164,31.569-21.645,47.442-8.922,21.847-18.148,44.44-32.056,63.951-9.924,13.023-25.275,22.749-43.224,27.387-10.911,2.822-22.213,3.625-32.852,4.208a224.851,224.851,0,0,1-23.123.372,107.113,107.113,0,0,1-11.678-1.142c-.72-.112-1.437-.253-2.151-.392a18.007,18.007,0,0,0-7.574-.374,11.926,11.926,0,0,0-8.858,10.821,14.737,14.737,0,0,0,6.387,12.644c5.525,3.867,12.77,3.929,18.592,3.98q8.544.071,17.089.157,12.818.125,25.637.223c1.314.009,2.622.014,3.929.014,12.746,0,25.2-.555,37.278-4.271,1.96-.6,3.928-1.3,5.851-2.08,28.693-11.618,42.009-38.2,54.2-66.732q1.963-4.6,3.869-9.108c8.011-18.923,15.579-36.8,25.331-53.054a.718.718,0,1,0-1.233-.737c-9.8,16.339-17.389,34.258-25.423,53.229q-1.909,4.512-3.866,9.105c-12.065,28.249-25.23,54.552-53.416,65.964-1.883.764-3.813,1.451-5.734,2.041-13.121,4.037-26.775,4.284-40.775,4.192q-12.816-.084-25.633-.223-8.547-.082-17.092-.157c-5.623-.049-12.62-.108-17.777-3.718a13.272,13.272,0,0,1-5.78-11.372,10.6,10.6,0,0,1,7.744-9.516c2.319-.527,4.581-.085,6.979.384.733.144,1.467.287,2.2.4a108.919,108.919,0,0,0,11.834,1.156,224.808,224.808,0,0,0,23.269-.374c10.71-.585,22.093-1.4,33.132-4.251,18.261-4.719,33.889-14.629,44.022-27.925,14.019-19.663,23.277-42.337,32.23-64.26,6.465-15.833,13.15-32.2,21.568-47.284a4.742,4.742,0,0,0-.187-4.946,4.58,4.58,0,0,0-3.863-2.089,5.023,5.023,0,0,0-.527.029" transform="translate(-543.578 -192.135)" fill="url(#linear-gradient)"/>
    </clipPath>
    <linearGradient id="linear-gradient-71" x1="-3.929" y1="1.524" x2="-3.922" y2="1.524" xlink:href="#linear-gradient"/>
    <clipPath id="clip-path-32">
      <path id="Path_34831" data-name="Path 34831" d="M1081.736,217c-10.713.585-22.093,1.4-33.135,4.251-18.259,4.719-33.889,14.629-44.02,27.925-14.02,19.663-23.276,42.335-32.228,64.26-6.465,15.833-13.15,32.2-21.568,47.284a4.738,4.738,0,0,0,.184,4.946,4.58,4.58,0,0,0,3.859,2.09,4.763,4.763,0,0,0,.533-.03c15.012-1.643,31.03-5.063,50.41-10.756,28.4-8.2,68.79-22.912,91.627-55.834,7.044-10.156,12.9-21.146,18.219-31.905V265.98c-5.64,11.536-11.836,23.436-19.4,34.342-22.576,32.546-62.658,47.133-90.848,55.273-19.3,5.669-35.24,9.071-50.165,10.709a3.166,3.166,0,0,1-3.037-1.428,3.262,3.262,0,0,1-.128-3.451c8.46-15.157,15.162-31.569,21.645-47.442,8.92-21.849,18.145-44.44,32.055-63.951,9.924-13.022,25.275-22.748,43.224-27.387,10.913-2.822,22.213-3.625,32.853-4.208a224.007,224.007,0,0,1,23.12-.372c3.826.178,7.331.5,10.682.991V217.6c-3.334-.477-6.821-.8-10.614-.973-2.393-.115-4.777-.165-7.2-.165-5.024,0-10.23.217-16.063.537m-55.452-20.6c-1.973.608-3.942,1.307-5.85,2.08-28.693,11.62-42.009,38.2-54.2,66.732-4.787,11.209-7.943,18.069-11,24.7s-6.216,13.516-11.012,24.742a.719.719,0,1,0,1.322.565c4.786-11.209,7.943-18.07,11-24.7s6.218-13.516,11.012-24.742c12.067-28.249,25.23-54.552,53.416-65.965,1.871-.759,3.8-1.445,5.735-2.04,13.121-4.038,26.773-4.278,40.774-4.192q12.818.084,25.635.223,8.544.082,17.09.157c1.707.016,3.54.03,5.409.147v-1.441c-1.868-.112-3.694-.126-5.4-.141q-8.544-.073-17.089-.158-12.82-.125-25.638-.223-2.017-.015-4.024-.016c-12.713,0-25.135.565-37.183,4.273" transform="translate(-944.17 -192.134)" fill="url(#linear-gradient)"/>
    </clipPath>
    <linearGradient id="linear-gradient-72" x1="-7.907" y1="1.524" x2="-7.898" y2="1.524" xlink:href="#linear-gradient"/>
    <clipPath id="clip-path-33">
      <path id="Path_34832" data-name="Path 34832" d="M995.23,192.164c-15.01,1.643-31.03,5.063-50.411,10.756-28.4,8.2-68.789,22.912-91.626,55.834-8.719,12.572-15.618,26.42-21.933,39.528-6.63,13.754-9.608,20.589-15.174,34.824a.718.718,0,1,0,1.337.521c5.551-14.193,8.521-21.007,15.128-34.722,6.294-13.056,13.163-26.847,21.823-39.332,22.575-32.546,62.659-47.132,90.848-55.274,19.3-5.669,35.24-9.072,50.165-10.709a3.181,3.181,0,0,1,3.037,1.428,3.265,3.265,0,0,1,.129,3.451c-8.462,15.157-15.162,31.569-21.645,47.442-8.922,21.847-18.148,44.44-32.056,63.951-9.923,13.022-25.275,22.749-43.224,27.387-10.913,2.822-22.214,3.625-32.852,4.208a224.85,224.85,0,0,1-23.123.372,107.115,107.115,0,0,1-11.678-1.142c-.72-.112-1.437-.253-2.151-.392a18,18,0,0,0-7.573-.374,11.922,11.922,0,0,0-8.858,10.821,14.734,14.734,0,0,0,6.387,12.644c5.524,3.867,12.769,3.929,18.59,3.98q8.545.071,17.089.157,12.82.125,25.637.223c1.315.009,2.622.014,3.929.014,12.746,0,25.2-.555,37.278-4.271,1.96-.6,3.929-1.3,5.853-2.08,28.693-11.62,42.009-38.2,54.2-66.732q1.963-4.594,3.866-9.105c8.012-18.925,15.582-36.8,25.334-53.057a.718.718,0,0,0-1.233-.737c-9.8,16.342-17.391,34.261-25.424,53.233q-1.907,4.51-3.865,9.1c-12.065,28.249-25.229,54.552-53.414,65.965-1.885.763-3.814,1.45-5.735,2.04-13.12,4.037-26.775,4.285-40.775,4.192q-12.815-.084-25.633-.223-8.544-.082-17.092-.157c-5.622-.049-12.62-.108-17.777-3.718a13.264,13.264,0,0,1-5.778-11.372,10.6,10.6,0,0,1,7.742-9.516c2.32-.527,4.581-.085,6.979.384.733.144,1.468.287,2.205.4a108.887,108.887,0,0,0,11.832,1.156,224.815,224.815,0,0,0,23.269-.374c10.71-.585,22.093-1.4,33.132-4.251,18.261-4.719,33.889-14.629,44.023-27.925,14.017-19.663,23.275-42.337,32.228-64.26,6.465-15.833,13.15-32.2,21.568-47.284a4.739,4.739,0,0,0-.187-4.946,4.578,4.578,0,0,0-3.862-2.089,5.029,5.029,0,0,0-.529.029" transform="translate(-815.368 -192.135)" fill="url(#linear-gradient)"/>
    </clipPath>
    <linearGradient id="linear-gradient-73" x1="-5.895" y1="1.524" x2="-5.887" y2="1.524" xlink:href="#linear-gradient"/>
    <clipPath id="clip-path-34">
      <path id="Path_34833" data-name="Path 34833" d="M312.887,290.312c-5.554,14.2-8.522,21.012-15.129,34.722-2.81,5.828-5.734,11.8-8.883,17.747H290.5c3.023-5.738,5.841-11.5,8.552-17.123,6.626-13.75,9.6-20.584,15.171-34.824a.717.717,0,1,0-1.336-.522M206.006,260.45c-1.961.6-3.928,1.3-5.853,2.08-28.691,11.617-42.008,38.2-54.2,66.732-2.284,5.346-4.2,9.7-5.9,13.519h1.573c1.644-3.681,3.48-7.871,5.652-12.954,12.065-28.25,25.23-54.552,53.414-65.964,1.885-.763,3.814-1.45,5.734-2.041,13.125-4.038,26.778-4.277,40.776-4.192q12.977.086,25.957.226,8.383.082,16.767.155c6.9.059,13,.376,17.777,3.718a13.267,13.267,0,0,1,5.778,11.372,10.6,10.6,0,0,1-7.742,9.516c-2.319.526-4.581.083-6.976-.384-.734-.144-1.47-.287-2.208-.4a109.525,109.525,0,0,0-11.832-1.156,225.05,225.05,0,0,0-23.269.375c-10.7.583-22.08,1.394-33.132,4.25-18.26,4.719-33.889,14.629-44.023,27.927a204.018,204.018,0,0,0-17.184,29.556h1.6a201.154,201.154,0,0,1,16.743-28.7c9.926-13.023,25.276-22.749,43.226-27.388,10.924-2.822,22.219-3.626,32.852-4.206a224.326,224.326,0,0,1,23.123-.374,108.562,108.562,0,0,1,11.678,1.141c.72.114,1.437.254,2.154.394a17.965,17.965,0,0,0,7.57.375,11.927,11.927,0,0,0,8.858-10.821,14.726,14.726,0,0,0-6.389-12.644c-5.527-3.872-12.77-3.931-18.589-3.979q-8.383-.071-16.764-.157-12.984-.123-25.963-.224-1.935-.013-3.859-.014c-12.766,0-25.245.547-37.347,4.271" transform="translate(-140.054 -256.179)" fill="url(#linear-gradient)"/>
    </clipPath>
    <linearGradient id="linear-gradient-74" x1="-1.149" y1="2.024" x2="-1.14" y2="2.024" xlink:href="#linear-gradient"/>
    <clipPath id="clip-path-35">
      <path id="Path_34834" data-name="Path 34834" d="M170.243,295.822c-8.716,14.529-15.681,30.3-22.764,46.96h1.562c6.979-16.4,13.864-31.937,22.433-46.223a.717.717,0,1,0-1.231-.737m-17.092-39.613c-15.019,1.645-31.037,5.064-50.409,10.756a261.766,261.766,0,0,0-41.569,15.424v1.6c14.619-7.153,29.467-12.033,41.972-15.644,19.29-5.669,35.231-9.071,50.163-10.709a3.174,3.174,0,0,1,3.037,1.427,3.262,3.262,0,0,1,.129,3.451c-8.46,15.157-15.162,31.57-21.645,47.442-4.456,10.916-8.989,22.015-14.144,32.826h1.59c5.05-10.647,9.5-21.554,13.884-32.283,6.465-15.833,13.15-32.2,21.568-47.283a4.741,4.741,0,0,0-.185-4.948,4.573,4.573,0,0,0-3.853-2.089,4.876,4.876,0,0,0-.539.03" transform="translate(-61.173 -256.179)" fill="url(#linear-gradient)"/>
    </clipPath>
    <linearGradient id="linear-gradient-75" x1="-0.795" y1="2.032" x2="-0.782" y2="2.032" xlink:href="#linear-gradient"/>
    <clipPath id="clip-path-36">
      <path id="Path_34835" data-name="Path 34835" d="M584.676,290.311c-5.554,14.2-8.524,21.014-15.129,34.722-2.81,5.828-5.735,11.8-8.883,17.747h1.625c3.023-5.738,5.841-11.5,8.552-17.123,6.624-13.747,9.6-20.583,15.171-34.824a.716.716,0,0,0-.407-.929.714.714,0,0,0-.93.408M477.8,260.449c-1.961.6-3.929,1.3-5.853,2.08-28.69,11.617-42.008,38.2-54.2,66.732-2.284,5.346-4.2,9.7-5.9,13.519h1.573c1.644-3.681,3.48-7.871,5.65-12.954,12.066-28.25,25.232-54.552,53.416-65.964,1.885-.763,3.814-1.45,5.734-2.042,13.125-4.038,26.776-4.28,40.776-4.192q12.977.086,25.957.226,8.383.082,16.766.155c6.9.059,13.006.376,17.779,3.718a13.267,13.267,0,0,1,5.778,11.373,10.6,10.6,0,0,1-7.742,9.516c-2.317.529-4.58.085-6.976-.384-.733-.144-1.47-.287-2.208-.4a109.515,109.515,0,0,0-11.834-1.156,225.051,225.051,0,0,0-23.268.375c-10.7.583-22.08,1.394-33.132,4.25-18.26,4.719-33.889,14.629-44.022,27.927a203.9,203.9,0,0,0-17.185,29.556h1.6a201.276,201.276,0,0,1,16.743-28.7c9.926-13.023,25.276-22.749,43.224-27.388,10.926-2.822,22.221-3.626,32.853-4.206a225.125,225.125,0,0,1,23.121-.374,108.509,108.509,0,0,1,11.68,1.141c.72.113,1.438.254,2.154.394a17.972,17.972,0,0,0,7.571.375,11.931,11.931,0,0,0,8.858-10.821,14.733,14.733,0,0,0-6.389-12.644c-5.528-3.872-12.772-3.931-18.59-3.979q-8.381-.071-16.764-.157-12.984-.123-25.963-.224-1.838-.011-3.668-.012c-12.833,0-25.375.524-37.538,4.268" transform="translate(-411.843 -256.181)" fill="url(#linear-gradient)"/>
    </clipPath>
    <linearGradient id="linear-gradient-76" x1="-3.378" y1="2.024" x2="-3.369" y2="2.024" xlink:href="#linear-gradient"/>
    <clipPath id="clip-path-37">
      <path id="Path_34836" data-name="Path 34836" d="M460.922,295.822c-8.716,14.529-15.681,30.306-22.764,46.96h1.562c6.979-16.4,13.864-31.937,22.433-46.223a.715.715,0,0,0-.246-.984.7.7,0,0,0-.369-.1.715.715,0,0,0-.616.351m-17.09-39.613c-15.02,1.645-31.039,5.064-50.41,10.756-28.4,8.2-68.789,22.909-91.626,55.834a207.742,207.742,0,0,0-12.1,19.982h1.633a204.041,204.041,0,0,1,11.641-19.163c22.577-32.547,62.659-47.133,90.848-55.273,19.291-5.669,35.232-9.071,50.165-10.709a3.148,3.148,0,0,1,3.037,1.427,3.262,3.262,0,0,1,.129,3.451c-8.46,15.157-15.162,31.569-21.645,47.442-4.456,10.916-8.989,22.015-14.144,32.826h1.59c5.05-10.647,9.5-21.554,13.885-32.283,6.465-15.833,13.15-32.2,21.568-47.283a4.744,4.744,0,0,0-.187-4.948,4.573,4.573,0,0,0-3.853-2.089,4.83,4.83,0,0,0-.537.03" transform="translate(-289.7 -256.179)" fill="url(#linear-gradient)"/>
    </clipPath>
    <linearGradient id="linear-gradient-77" x1="-2.411" y1="2.032" x2="-2.402" y2="2.032" xlink:href="#linear-gradient"/>
    <clipPath id="clip-path-38">
      <path id="Path_34837" data-name="Path 34837" d="M856.463,290.311c-5.553,14.2-8.521,21.012-15.128,34.722-2.81,5.828-5.734,11.8-8.883,17.747h1.626c3.023-5.738,5.84-11.5,8.551-17.123,6.626-13.75,9.6-20.584,15.171-34.824a.716.716,0,0,0-.407-.929.706.706,0,0,0-.263-.05.717.717,0,0,0-.668.458m-106.88-29.862c-1.958.6-3.928,1.3-5.85,2.08-28.691,11.617-42.008,38.2-54.2,66.732-2.283,5.346-4.2,9.7-5.9,13.519h1.573c1.643-3.681,3.479-7.871,5.65-12.954,12.066-28.25,25.232-54.552,53.416-65.964,1.885-.763,3.814-1.45,5.734-2.042,13.125-4.038,26.776-4.28,40.776-4.192q12.979.086,25.957.226,8.383.082,16.767.155c6.9.059,13,.376,17.779,3.718a13.274,13.274,0,0,1,5.778,11.373,10.606,10.606,0,0,1-7.744,9.516c-2.317.529-4.58.085-6.976-.384-.733-.144-1.468-.287-2.208-.4a109.515,109.515,0,0,0-11.834-1.156,225.824,225.824,0,0,0-23.266.375c-10.7.583-22.081,1.394-33.135,4.25-18.258,4.719-33.888,14.629-44.02,27.927a203.9,203.9,0,0,0-17.185,29.556h1.6a201.293,201.293,0,0,1,16.743-28.7c9.926-13.023,25.276-22.749,43.224-27.388,10.926-2.822,22.221-3.626,32.853-4.206a223.906,223.906,0,0,1,23.121-.374,108.545,108.545,0,0,1,11.68,1.141c.72.113,1.438.254,2.154.394a17.97,17.97,0,0,0,7.571.375A11.931,11.931,0,0,0,858.5,273.2a14.726,14.726,0,0,0-6.389-12.644c-5.53-3.872-12.77-3.931-18.589-3.979q-8.383-.071-16.766-.157-12.982-.123-25.963-.224-1.838-.011-3.668-.012c-12.834,0-25.376.524-37.539,4.268" transform="translate(-683.632 -256.181)" fill="url(#linear-gradient)"/>
    </clipPath>
    <linearGradient id="linear-gradient-78" x1="-5.607" y1="2.024" x2="-5.598" y2="2.024" xlink:href="#linear-gradient"/>
    <clipPath id="clip-path-39">
      <path id="Path_34838" data-name="Path 34838" d="M732.711,295.822c-8.718,14.529-15.68,30.3-22.764,46.96h1.562c6.981-16.4,13.864-31.937,22.435-46.223a.718.718,0,1,0-1.233-.737m-17.09-39.613c-15.02,1.645-31.039,5.064-50.411,10.756-28.4,8.2-68.788,22.909-91.626,55.834a207.73,207.73,0,0,0-12.1,19.982h1.633a203.778,203.778,0,0,1,11.643-19.163c22.576-32.547,62.658-47.133,90.846-55.273,19.291-5.669,35.234-9.071,50.166-10.709a3.151,3.151,0,0,1,3.037,1.427,3.265,3.265,0,0,1,.129,3.451c-8.462,15.157-15.164,31.57-21.645,47.442-4.458,10.916-8.99,22.015-14.147,32.826h1.592c5.05-10.647,9.5-21.554,13.885-32.283,6.465-15.833,13.15-32.2,21.568-47.283a4.744,4.744,0,0,0-.187-4.948,4.572,4.572,0,0,0-3.853-2.089,4.867,4.867,0,0,0-.537.03" transform="translate(-561.489 -256.179)" fill="url(#linear-gradient)"/>
    </clipPath>
    <linearGradient id="linear-gradient-79" x1="-4.672" y1="2.032" x2="-4.664" y2="2.032" xlink:href="#linear-gradient"/>
    <clipPath id="clip-path-40">
      <path id="Path_34839" data-name="Path 34839" d="M1104.242,342.78h1.626c1.668-3.168,3.276-6.346,4.836-9.5v-3.257c-2.066,4.225-4.207,8.5-6.462,12.757m-27.418-61.733c-10.7.583-22.081,1.394-33.135,4.25-18.259,4.719-33.888,14.629-44.02,27.927a203.885,203.885,0,0,0-17.185,29.556h1.6a201.017,201.017,0,0,1,16.743-28.7c9.924-13.023,25.276-22.749,43.224-27.388,10.926-2.822,22.219-3.626,32.853-4.206a225.1,225.1,0,0,1,23.12-.374c3.826.181,7.331.506,10.682.991v-1.452c-3.333-.476-6.82-.8-10.614-.974-2.4-.112-4.78-.162-7.2-.162-5.032,0-10.234.217-16.063.537m-55.452-20.6c-1.958.6-3.928,1.3-5.85,2.08-28.691,11.617-42.009,38.2-54.2,66.732-2.284,5.346-4.2,9.7-5.9,13.519h1.573c1.644-3.681,3.48-7.871,5.65-12.954,12.067-28.25,25.232-54.552,53.416-65.964,1.885-.763,3.814-1.45,5.735-2.042,13.125-4.038,26.775-4.28,40.773-4.192q12.979.086,25.96.226,8.381.082,16.766.155c1.865.016,3.672.05,5.409.159v-1.455c-1.868-.111-3.694-.126-5.4-.141q-8.385-.071-16.767-.157-12.979-.123-25.962-.224-1.838-.011-3.668-.012c-12.834,0-25.375.524-37.539,4.268" transform="translate(-955.421 -256.181)" fill="url(#linear-gradient)"/>
    </clipPath>
    <linearGradient id="linear-gradient-80" x1="-8.839" y1="2.024" x2="-8.83" y2="2.024" xlink:href="#linear-gradient"/>
    <clipPath id="clip-path-41">
      <path id="Path_34840" data-name="Path 34840" d="M1004.5,295.822c-8.716,14.529-15.68,30.306-22.764,46.96H983.3c6.981-16.4,13.865-31.937,22.435-46.223a.716.716,0,0,0-.247-.984.708.708,0,0,0-.369-.1.716.716,0,0,0-.616.351m-17.09-39.613c-15.02,1.645-31.04,5.064-50.409,10.756-28.4,8.2-68.789,22.909-91.628,55.834a207.458,207.458,0,0,0-12.094,19.982h1.632a203.8,203.8,0,0,1,11.643-19.163c22.577-32.547,62.659-47.133,90.848-55.273,19.291-5.669,35.231-9.071,50.165-10.709a3.152,3.152,0,0,1,3.037,1.427,3.265,3.265,0,0,1,.129,3.451c-8.462,15.157-15.162,31.569-21.645,47.442-4.458,10.916-8.991,22.015-14.145,32.826h1.592c5.048-10.647,9.5-21.554,13.884-32.283,6.465-15.833,13.15-32.2,21.568-47.283a4.741,4.741,0,0,0-.187-4.948,4.572,4.572,0,0,0-3.853-2.089,4.87,4.87,0,0,0-.537.03" transform="translate(-833.279 -256.179)" fill="url(#linear-gradient)"/>
    </clipPath>
    <linearGradient id="linear-gradient-81" x1="-6.934" y1="2.032" x2="-6.925" y2="2.032" xlink:href="#linear-gradient"/>
  </defs>
  <g id="Group_4" data-name="Group 4" transform="translate(0 -3348)" clip-path="url(#clip-path)">
    <g id="Group_28258" data-name="Group 28258" transform="translate(-61.173 3142.373)">
      <g id="Group_28070" data-name="Group 28070" transform="translate(158.332 61.967)">
        <g id="Group_28069" data-name="Group 28069" clip-path="url(#clip-path-2)">
          <rect id="Rectangle_20631" data-name="Rectangle 20631" width="165.42" height="86.602" transform="translate(-0.098 0)" fill="url(#linear-gradient-42)"/>
        </g>
      </g>
      <g id="Group_28072" data-name="Group 28072" transform="translate(61.173 61.967)">
        <g id="Group_28071" data-name="Group 28071" clip-path="url(#clip-path-3)">
          <rect id="Rectangle_20632" data-name="Rectangle 20632" width="86.839" height="86.091" transform="translate(0 0)" fill="url(#linear-gradient-43)"/>
        </g>
      </g>
      <g id="Group_28074" data-name="Group 28074" transform="translate(548.796 61.967)">
        <g id="Group_28073" data-name="Group 28073" clip-path="url(#clip-path-4)">
          <rect id="Rectangle_20633" data-name="Rectangle 20633" width="165.42" height="86.602" transform="translate(-0.098 0)" fill="url(#linear-gradient-44)"/>
        </g>
      </g>
      <g id="Group_28076" data-name="Group 28076" transform="translate(363.753 61.967)">
        <g id="Group_28075" data-name="Group 28075" clip-path="url(#clip-path-5)">
          <rect id="Rectangle_20634" data-name="Rectangle 20634" width="175.009" height="86.602" transform="translate(-0.286 0)" fill="url(#linear-gradient-45)"/>
        </g>
      </g>
      <g id="Group_28078" data-name="Group 28078" transform="translate(939.262 61.967)">
        <g id="Group_28077" data-name="Group 28077" transform="translate(0)" clip-path="url(#clip-path-6)">
          <rect id="Rectangle_20635" data-name="Rectangle 20635" width="165.42" height="86.602" transform="translate(-0.097 0)" fill="url(#linear-gradient-46)"/>
        </g>
      </g>
      <g id="Group_28080" data-name="Group 28080" transform="translate(754.218 61.967)">
        <g id="Group_28079" data-name="Group 28079" clip-path="url(#clip-path-7)">
          <rect id="Rectangle_20636" data-name="Rectangle 20636" width="175.009" height="86.602" transform="translate(-0.286 0)" fill="url(#linear-gradient-47)"/>
        </g>
      </g>
      <g id="Group_28082" data-name="Group 28082" transform="translate(1329.726 61.967)">
        <g id="Group_28081" data-name="Group 28081" clip-path="url(#clip-path-8)">
          <rect id="Rectangle_20637" data-name="Rectangle 20637" width="165.42" height="86.602" transform="translate(-0.098 0)" fill="url(#linear-gradient-48)"/>
        </g>
      </g>
      <g id="Group_28084" data-name="Group 28084" transform="translate(1144.683 61.967)">
        <g id="Group_28083" data-name="Group 28083" clip-path="url(#clip-path-9)">
          <rect id="Rectangle_20638" data-name="Rectangle 20638" width="175.008" height="86.602" transform="translate(-0.286 0)" fill="url(#linear-gradient-49)"/>
        </g>
      </g>
      <g id="Group_28086" data-name="Group 28086" transform="translate(158.332 64.952)">
        <g id="Group_28085" data-name="Group 28085" clip-path="url(#clip-path-10)">
          <rect id="Rectangle_20639" data-name="Rectangle 20639" width="191.437" height="175.627" transform="translate(-0.098 0)" fill="url(#linear-gradient-50)"/>
        </g>
      </g>
      <g id="Group_28088" data-name="Group 28088" transform="translate(61.173 64.951)">
        <g id="Group_28087" data-name="Group 28087" clip-path="url(#clip-path-11)">
          <rect id="Rectangle_20640" data-name="Rectangle 20640" width="110.505" height="175.116" transform="translate(0 0)" fill="url(#linear-gradient-51)"/>
        </g>
      </g>
      <g id="Group_28090" data-name="Group 28090" transform="translate(548.796 64.957)">
        <g id="Group_28089" data-name="Group 28089" clip-path="url(#clip-path-12)">
          <rect id="Rectangle_20641" data-name="Rectangle 20641" width="191.437" height="175.623" transform="translate(-0.098 0)" fill="url(#linear-gradient-52)"/>
        </g>
      </g>
      <g id="Group_28092" data-name="Group 28092" transform="translate(363.753 64.954)">
        <g id="Group_28091" data-name="Group 28091" clip-path="url(#clip-path-13)">
          <rect id="Rectangle_20642" data-name="Rectangle 20642" width="198.677" height="175.624" transform="translate(-0.286 0)" fill="url(#linear-gradient-53)"/>
        </g>
      </g>
      <g id="Group_28094" data-name="Group 28094" transform="translate(939.262 64.957)">
        <g id="Group_28093" data-name="Group 28093" transform="translate(0)" clip-path="url(#clip-path-14)">
          <rect id="Rectangle_20643" data-name="Rectangle 20643" width="191.437" height="175.623" transform="translate(-0.097 0)" fill="url(#linear-gradient-54)"/>
        </g>
      </g>
      <g id="Group_28096" data-name="Group 28096" transform="translate(754.218 64.954)">
        <g id="Group_28095" data-name="Group 28095" clip-path="url(#clip-path-15)">
          <rect id="Rectangle_20644" data-name="Rectangle 20644" width="198.677" height="175.624" transform="translate(-0.286 0)" fill="url(#linear-gradient-55)"/>
        </g>
      </g>
      <g id="Group_28098" data-name="Group 28098" transform="translate(1329.726 64.957)">
        <g id="Group_28097" data-name="Group 28097" clip-path="url(#clip-path-16)">
          <rect id="Rectangle_20645" data-name="Rectangle 20645" width="171.544" height="175.623" transform="translate(-0.098 0)" fill="url(#linear-gradient-56)"/>
        </g>
      </g>
      <g id="Group_28100" data-name="Group 28100" transform="translate(1144.683 64.954)">
        <g id="Group_28099" data-name="Group 28099" clip-path="url(#clip-path-17)">
          <rect id="Rectangle_20646" data-name="Rectangle 20646" width="198.675" height="175.624" transform="translate(-0.286 0)" fill="url(#linear-gradient-57)"/>
        </g>
      </g>
      <g id="Group_28102" data-name="Group 28102" transform="translate(158.332 156.961)">
        <g id="Group_28101" data-name="Group 28101" clip-path="url(#clip-path-18)">
          <rect id="Rectangle_20647" data-name="Rectangle 20647" width="191.437" height="175.627" transform="translate(-0.098 0)" fill="url(#linear-gradient-58)"/>
        </g>
      </g>
      <g id="Group_28104" data-name="Group 28104" transform="translate(61.173 156.962)">
        <g id="Group_28103" data-name="Group 28103" clip-path="url(#clip-path-19)">
          <rect id="Rectangle_20648" data-name="Rectangle 20648" width="110.505" height="175.114" fill="url(#linear-gradient-59)"/>
        </g>
      </g>
      <g id="Group_28106" data-name="Group 28106" transform="translate(548.796 156.962)">
        <g id="Group_28105" data-name="Group 28105" clip-path="url(#clip-path-20)">
          <rect id="Rectangle_20649" data-name="Rectangle 20649" width="191.437" height="175.626" transform="translate(-0.098)" fill="url(#linear-gradient-60)"/>
        </g>
      </g>
      <g id="Group_28108" data-name="Group 28108" transform="translate(363.753 156.962)">
        <g id="Group_28107" data-name="Group 28107" clip-path="url(#clip-path-21)">
          <rect id="Rectangle_20650" data-name="Rectangle 20650" width="198.677" height="175.626" transform="translate(-0.286)" fill="url(#linear-gradient-61)"/>
        </g>
      </g>
      <g id="Group_28110" data-name="Group 28110" transform="translate(939.262 156.962)">
        <g id="Group_28109" data-name="Group 28109" transform="translate(0)" clip-path="url(#clip-path-22)">
          <rect id="Rectangle_20651" data-name="Rectangle 20651" width="191.437" height="175.626" transform="translate(-0.097 0)" fill="url(#linear-gradient-62)"/>
        </g>
      </g>
      <g id="Group_28112" data-name="Group 28112" transform="translate(754.218 156.962)">
        <g id="Group_28111" data-name="Group 28111" clip-path="url(#clip-path-23)">
          <rect id="Rectangle_20652" data-name="Rectangle 20652" width="198.677" height="175.626" transform="translate(-0.286)" fill="url(#linear-gradient-63)"/>
        </g>
      </g>
      <g id="Group_28114" data-name="Group 28114" transform="translate(1329.726 156.962)">
        <g id="Group_28113" data-name="Group 28113" clip-path="url(#clip-path-24)">
          <rect id="Rectangle_20653" data-name="Rectangle 20653" width="171.544" height="175.626" transform="translate(-0.098)" fill="url(#linear-gradient-64)"/>
        </g>
      </g>
      <g id="Group_28116" data-name="Group 28116" transform="translate(1144.683 156.962)">
        <g id="Group_28115" data-name="Group 28115" clip-path="url(#clip-path-25)">
          <rect id="Rectangle_20654" data-name="Rectangle 20654" width="198.675" height="175.626" transform="translate(-0.286)" fill="url(#linear-gradient-65)"/>
        </g>
      </g>
      <g id="Group_28118" data-name="Group 28118" transform="translate(158.332 248.974)">
        <g id="Group_28117" data-name="Group 28117" clip-path="url(#clip-path-26)">
          <rect id="Rectangle_20655" data-name="Rectangle 20655" width="191.437" height="175.624" transform="translate(-0.098 0)" fill="url(#linear-gradient-66)"/>
        </g>
      </g>
      <g id="Group_28120" data-name="Group 28120" transform="translate(61.173 248.969)">
        <g id="Group_28119" data-name="Group 28119" clip-path="url(#clip-path-27)">
          <rect id="Rectangle_20656" data-name="Rectangle 20656" width="110.505" height="175.116" fill="url(#linear-gradient-67)"/>
        </g>
      </g>
      <g id="Group_28122" data-name="Group 28122" transform="translate(548.796 248.971)">
        <g id="Group_28121" data-name="Group 28121" clip-path="url(#clip-path-28)">
          <rect id="Rectangle_20657" data-name="Rectangle 20657" width="191.437" height="175.627" transform="translate(-0.098)" fill="url(#linear-gradient-68)"/>
        </g>
      </g>
      <g id="Group_28124" data-name="Group 28124" transform="translate(363.753 248.972)">
        <g id="Group_28123" data-name="Group 28123" clip-path="url(#clip-path-29)">
          <rect id="Rectangle_20658" data-name="Rectangle 20658" width="198.677" height="175.624" transform="translate(-0.286)" fill="url(#linear-gradient-69)"/>
        </g>
      </g>
      <g id="Group_28126" data-name="Group 28126" transform="translate(939.262 248.971)">
        <g id="Group_28125" data-name="Group 28125" transform="translate(0)" clip-path="url(#clip-path-30)">
          <rect id="Rectangle_20659" data-name="Rectangle 20659" width="191.437" height="175.627" transform="translate(-0.097 0)" fill="url(#linear-gradient-70)"/>
        </g>
      </g>
      <g id="Group_28128" data-name="Group 28128" transform="translate(754.218 248.972)">
        <g id="Group_28127" data-name="Group 28127" clip-path="url(#clip-path-31)">
          <rect id="Rectangle_20660" data-name="Rectangle 20660" width="198.677" height="175.624" transform="translate(-0.286)" fill="url(#linear-gradient-71)"/>
        </g>
      </g>
      <g id="Group_28130" data-name="Group 28130" transform="translate(1329.726 248.971)">
        <g id="Group_28129" data-name="Group 28129" clip-path="url(#clip-path-32)">
          <rect id="Rectangle_20661" data-name="Rectangle 20661" width="171.544" height="175.627" transform="translate(-0.098)" fill="url(#linear-gradient-72)"/>
        </g>
      </g>
      <g id="Group_28132" data-name="Group 28132" transform="translate(1144.683 248.972)">
        <g id="Group_28131" data-name="Group 28131" clip-path="url(#clip-path-33)">
          <rect id="Rectangle_20662" data-name="Rectangle 20662" width="198.675" height="175.624" transform="translate(-0.286)" fill="url(#linear-gradient-73)"/>
        </g>
      </g>
      <g id="Group_28134" data-name="Group 28134" transform="translate(174.497 340.981)">
        <g id="Group_28133" data-name="Group 28133" transform="translate(0 0)" clip-path="url(#clip-path-34)">
          <rect id="Rectangle_20663" data-name="Rectangle 20663" width="175.174" height="86.602" fill="url(#linear-gradient-74)"/>
        </g>
      </g>
      <g id="Group_28136" data-name="Group 28136" transform="translate(61.173 340.981)">
        <g id="Group_28135" data-name="Group 28135" transform="translate(0 0)" clip-path="url(#clip-path-35)">
          <rect id="Rectangle_20664" data-name="Rectangle 20664" width="110.505" height="86.602" fill="url(#linear-gradient-75)"/>
        </g>
      </g>
      <g id="Group_28138" data-name="Group 28138" transform="translate(564.961 340.984)">
        <g id="Group_28137" data-name="Group 28137" transform="translate(0 0)" clip-path="url(#clip-path-36)">
          <rect id="Rectangle_20665" data-name="Rectangle 20665" width="175.174" height="86.6" fill="url(#linear-gradient-76)"/>
        </g>
      </g>
      <g id="Group_28140" data-name="Group 28140" transform="translate(389.485 340.981)">
        <g id="Group_28139" data-name="Group 28139" transform="translate(0 0)" clip-path="url(#clip-path-37)">
          <rect id="Rectangle_20666" data-name="Rectangle 20666" width="172.659" height="86.602" transform="translate(0)" fill="url(#linear-gradient-77)"/>
        </g>
      </g>
      <g id="Group_28142" data-name="Group 28142" transform="translate(955.426 340.984)">
        <g id="Group_28141" data-name="Group 28141" transform="translate(0 0)" clip-path="url(#clip-path-38)">
          <rect id="Rectangle_20667" data-name="Rectangle 20667" width="175.176" height="86.6" fill="url(#linear-gradient-78)"/>
        </g>
      </g>
      <g id="Group_28144" data-name="Group 28144" transform="translate(779.95 340.981)">
        <g id="Group_28143" data-name="Group 28143" transform="translate(0 0)" clip-path="url(#clip-path-39)">
          <rect id="Rectangle_20668" data-name="Rectangle 20668" width="172.659" height="86.602" transform="translate(0 0)" fill="url(#linear-gradient-79)"/>
        </g>
      </g>
      <g id="Group_28146" data-name="Group 28146" transform="translate(1345.89 340.984)">
        <g id="Group_28145" data-name="Group 28145" transform="translate(0 0)" clip-path="url(#clip-path-40)">
          <rect id="Rectangle_20669" data-name="Rectangle 20669" width="155.283" height="86.6" transform="translate(0)" fill="url(#linear-gradient-80)"/>
        </g>
      </g>
      <g id="Group_28148" data-name="Group 28148" transform="translate(1170.415 340.981)">
        <g id="Group_28147" data-name="Group 28147" transform="translate(0 0)" clip-path="url(#clip-path-41)">
          <rect id="Rectangle_20670" data-name="Rectangle 20670" width="172.658" height="86.602" transform="translate(0 0)" fill="url(#linear-gradient-81)"/>
        </g>
      </g>
    </g>
  </g>
</svg>
