<svg id="Component_156_1" data-name="Component 156 – 1" xmlns="http://www.w3.org/2000/svg" xmlns:xlink="http://www.w3.org/1999/xlink" width="642.18" height="1117.788" viewBox="0 0 642.18 1117.788">
  <defs>
    <clipPath id="clip-path">
      <rect id="Rectangle_19463" data-name="Rectangle 19463" width="642.18" height="1117.788" fill="none" stroke="#eee" stroke-width="1"/>
    </clipPath>
  </defs>
  <g id="Group_24543" data-name="Group 24543" opacity="0.55" style="mix-blend-mode: normal;isolation: isolate">
    <g id="Group_24450" data-name="Group 24450" clip-path="url(#clip-path)">
      <path id="Path_23995" data-name="Path 23995" d="M139.562,728.463a13.118,13.118,0,0,1-3.538,1.75c-.392-53.547,32.537-105.119,75.868-151.6C302.784,481.781,420.276,402.886,457.3,287.178,473.668,413.013,332.723,508.55,235.764,604.32c-33.893,34-67.779,68.014-88.058,107.694a182.562,182.562,0,0,1-8.144,16.456" transform="translate(183.573 387.575)" fill="none" stroke="#eee" stroke-width="1"/>
      <path id="Path_23996" data-name="Path 23996" d="M114.131,232.4a68.394,68.394,0,0,1-11.177,1.8c-38,5.449-63.7-30.6-47.746-65.8a33.807,33.807,0,0,1,58.345-7.439,104.808,104.808,0,0,1,12.591,17.4,254.4,254.4,0,0,1,23.534,58.578,13.386,13.386,0,0,0,3.644,6.21,5.125,5.125,0,0,0,7.178,1.022,5.047,5.047,0,0,0,.942-.916,16.288,16.288,0,0,0,3.7-11.436,77.328,77.328,0,0,0-2.15-16.579,158.9,158.9,0,0,0-5.449-18.952c-13.16-37.3-26.271-92.6-13.778-130.884A74.861,74.861,0,0,1,147.817,55.4,66.6,66.6,0,0,1,174.4,26.218c22.685-13.6,54.67-12.613,70.2,9.631a50.6,50.6,0,0,1,5.618,9.941,66.676,66.676,0,0,1,4.422,34.055,82.849,82.849,0,0,1-1.7,10.432,79.115,79.115,0,0,1-2.951,9.852,92.016,92.016,0,0,1-5.674,13.522,113.471,113.471,0,0,1-27.281,34.015,141.532,141.532,0,0,0-3.073-43.806A35.956,35.956,0,0,0,209.6,93.43c-3.531-5.256-8.386-6.652-14.791-1.229a35.767,35.767,0,0,0-8.592,10.9c-9.14,17.549-6.967,43.966-4.18,70.319.465,4.389.947,8.785,1.4,13.127.562,4.14.994,8.289,1.332,12.453a345.065,345.065,0,0,1-1.316,75.612c-.674,5.04-1.534,9.911-2.6,14.565-5.352,23.27-15.984,41.116-35.307,48.146,0,0,22.911-76.858-31.358-104.846" transform="translate(68.01 23.34)" fill="none" stroke="#eee" stroke-width="1"/>
      <path id="Path_23997" data-name="Path 23997" d="M147.79,77.281c-7.824,8.442-12.349,26.111-17.2,36.633q-8.762,19.021-17.124,38.251C102.4,177.778,92.046,203.72,82.979,230.12a633.259,633.259,0,0,0-34.5,155.67,282.861,282.861,0,0,0,2.406,69.851,359.288,359.288,0,0,0,74.1,170.05c38.684,47.986,75.1,97.9,110.877,147.982,33.383,46.743,62.92,98.587,70.02,156.474.425,3.435,1.252,7.535,4.478,8.755,3.682,1.389,7.286-2.07,9.669-5.207,22.18-29.041,41.438-63.761,37.713-100.119a145.929,145.929,0,0,0-24.37-60.7c-24.723-39.689-55.671-75.316-78.975-115.854a261.188,261.188,0,0,1-37.993-138.4c1.661-42.81,23.39-84.414,35.065-125.1,4.492,12.838,3.449,29.426,6.33,43.033a292.424,292.424,0,0,0,13.386,44.9,347.192,347.192,0,0,0,78.061,115.9,19.913,19.913,0,0,0,14.779,7.871A17.7,17.7,0,0,0,376.5,594.991a77.4,77.4,0,0,0,2.986-60.857,318.174,318.174,0,0,0-27.765-56.083c-37.328-67.281-58.449-142.527-45.8-219.535a298.029,298.029,0,0,1,21.118-71.329,288.46,288.46,0,0,1,17.422-33.573,109.876,109.876,0,0,1,21.929-30.322c-4.741,36.966-10.223,71.691-5.077,109.092a283.261,283.261,0,0,0,35.441,103.4c9.767,16.8,20.293,33.244,30.942,49.492,32.49,50.035,67.678,100.065,82.45,157.853.515,2.023,1.6,4.5,3.651,4.462a4.5,4.5,0,0,0,2.406-1.06c30.871-21.995,36.414-67.081,25.366-103.335s-34.882-66.954-53.876-99.757A348.915,348.915,0,0,1,439.664,152.67C442.442,99.724,459.277,39.079,496.83,0a630.938,630.938,0,0,0,4.243,77.13,375.333,375.333,0,0,0,22.237,78.932,739.117,739.117,0,0,0,51.355,101.411c17.34,29.49,41.726,57.086,50.086,90.979,11.236,45.554-7.333,93.129-30.949,133.669a572.708,572.708,0,0,1-45.321,66.1c-17.772,22.563-37.159,43.764-57.067,64.442q-12.039,12.519-24.426,24.722a275.225,275.225,0,0,1-47.344,39.52c-4.011,2.462,4.551-18,5.618-21.344a77.973,77.973,0,0,0-6.941-60.006c-1.156-2.3-2.96-4.864-5.529-4.685-2.239.15-3.708,2.343-4.814,4.3-9.8,17.549-28.343,40.458-14.316,58.857C435.2,708.542,431.335,766.171,410.4,827.669c-25.42,74.578-76.334,129.15-131.6,181.156a380.4,380.4,0,0,0-31.55,39.574c-3.249,4.013-6.3,8.355-12.342,5.369-5.183-2.568-3.8-7.382-3.153-11.6,6.87-44.687-8.024-84.639-30.491-121.166-48.179-78.46-99.839-154.578-151.154-230.921A302.121,302.121,0,0,1,4.925,570.306C-8.315,492.689,7.1,416.353,27.853,341.263a996.279,996.279,0,0,1,89.4-218.6,229.5,229.5,0,0,1,30.54-45.378" transform="translate(-0.001)" fill="none" stroke="#eee" stroke-width="1"/>
    </g>
  </g>
</svg>
