<svg id="Group_24175" data-name="Group 24175" xmlns="http://www.w3.org/2000/svg" xmlns:xlink="http://www.w3.org/1999/xlink" width="228.899" height="62.347" viewBox="0 0 228.899 62.347">
  <defs>
    <clipPath id="clip-path">
      <rect id="Rectangle_8" data-name="Rectangle 8" width="228.899" height="62.347" fill="#fff"/>
    </clipPath>
  </defs>
  <path id="Path_181" data-name="Path 181" d="M2.633,395.271.892,397.493H.868v-2.222H0v4.89H.868v-1.427l.7-.873,1.322,2.3h.957l-1.759-2.983,1.5-1.907Z" transform="translate(-0.001 -344.165)" fill="#fff"/>
  <rect id="Rectangle_6" data-name="Rectangle 6" width="0.862" height="3.673" transform="translate(4.389 52.323)" fill="#fff"/>
  <g id="Group_22418" data-name="Group 22418">
    <g id="Group_22417" data-name="Group 22417" clip-path="url(#clip-path)">
      <path id="Path_182" data-name="Path 182" d="M33.717,392.17a.49.49,0,1,0,.533.487.492.492,0,0,0-.533-.487" transform="translate(-28.894 -341.465)" fill="#fff"/>
      <path id="Path_183" data-name="Path 183" d="M51.1,403.992a1.717,1.717,0,0,0-1.206.586h-.023l-.066-.5H49.1v3.673h.861v-2.567a1.157,1.157,0,0,1,.837-.458c.4,0,.572.228.572.832v2.192h.861v-2.3c0-.927-.344-1.459-1.13-1.459" transform="translate(-42.753 -351.758)" fill="#fff"/>
      <path id="Path_184" data-name="Path 184" d="M81.683,407.176H81.03c-.446,0-.6-.126-.6-.332a.422.422,0,0,1,.179-.351,1.419,1.419,0,0,0,.5.1,1.253,1.253,0,0,0,1.4-1.253.967.967,0,0,0-.209-.617h.67v-.64H81.655a1.636,1.636,0,0,0-.545-.09,1.337,1.337,0,0,0-1.45,1.319,1.223,1.223,0,0,0,.484.969v.03a.889.889,0,0,0-.407.685.7.7,0,0,0,.332.614v.03a.936.936,0,0,0-.53.783c0,.643.653.957,1.529.957,1.2,0,1.959-.57,1.959-1.295,0-.635-.467-.906-1.345-.906m-.573-2.59a.645.645,0,0,1,.638.723.644.644,0,1,1-1.274,0,.643.643,0,0,1,.637-.723m.09,4.232c-.577,0-.936-.195-.936-.53a.609.609,0,0,1,.284-.484,2.012,2.012,0,0,0,.5.05h.5c.421,0,.648.084.648.368,0,.317-.4.6-1,.6" transform="translate(-69.256 -351.757)" fill="#fff"/>
      <path id="Path_185" data-name="Path 185" d="M123.643,396.873l-.659-.277c-.406-.166-.778-.308-.778-.692,0-.357.3-.574.766-.574a1.573,1.573,0,0,1,1.062.42l.446-.551a2.144,2.144,0,0,0-1.507-.624,1.488,1.488,0,0,0-1.643,1.379,1.4,1.4,0,0,0,.989,1.3l.669.29c.444.188.759.317.759.72,0,.381-.3.63-.852.63a1.923,1.923,0,0,1-1.275-.557l-.505.595a2.52,2.52,0,0,0,1.762.717,1.556,1.556,0,0,0,1.756-1.454,1.355,1.355,0,0,0-.988-1.319" transform="translate(-105.455 -343.56)" fill="#fff"/>
      <path id="Path_186" data-name="Path 186" d="M154.768,403.994a2.862,2.862,0,0,0-1.507.481l.317.575a2.024,2.024,0,0,1,1.032-.362c.5,0,.655.329.667.724-1.507.161-2.159.571-2.159,1.357a1.029,1.029,0,0,0,1.085,1.077,1.775,1.775,0,0,0,1.14-.5h.024l.066.407h.706v-2.175c0-1.023-.452-1.588-1.37-1.588m.509,2.779a1.158,1.158,0,0,1-.8.4c-.309,0-.529-.143-.529-.467,0-.371.332-.631,1.328-.757Z" transform="translate(-133.32 -351.76)" fill="#fff"/>
      <path id="Path_187" data-name="Path 187" d="M185.532,396.909c-.09,0-.185-.074-.185-.287V392.24h-.861v4.337c0,.64.224,1.035.835,1.035a1.222,1.222,0,0,0,.454-.074l-.107-.643a.507.507,0,0,1-.135.015" transform="translate(-160.632 -341.526)" fill="#fff"/>
      <path id="Path_188" data-name="Path 188" d="M204.548,405.563v2.192h.861v-2.3c0-.928-.359-1.46-1.134-1.46a1.664,1.664,0,0,0-1.182.658.99.99,0,0,0-1.014-.658,1.58,1.58,0,0,0-1.128.591h-.024l-.066-.5h-.706v3.673h.861v-2.566a1.146,1.146,0,0,1,.769-.458c.386,0,.566.228.566.832v2.192h.861v-2.566a1.134,1.134,0,0,1,.769-.458c.386,0,.566.228.566.832" transform="translate(-174.278 -351.758)" fill="#fff"/>
      <path id="Path_189" data-name="Path 189" d="M247.385,406.769a1.029,1.029,0,0,0,1.085,1.077,1.775,1.775,0,0,0,1.14-.5h.024l.066.407h.706v-2.175c0-1.022-.452-1.587-1.371-1.587a2.862,2.862,0,0,0-1.507.481l.317.574a2.029,2.029,0,0,1,1.032-.362c.5,0,.655.329.667.724-1.507.162-2.159.572-2.159,1.358m2.159-.822v.826a1.156,1.156,0,0,1-.8.4c-.308,0-.529-.142-.529-.467,0-.371.332-.631,1.328-.757" transform="translate(-215.4 -351.76)" fill="#fff"/>
      <path id="Path_190" data-name="Path 190" d="M280.755,403.992a1.717,1.717,0,0,0-1.206.586h-.023l-.066-.5h-.706v3.673h.861v-2.567a1.157,1.157,0,0,1,.837-.458c.4,0,.572.228.572.832v2.192h.861v-2.3c0-.927-.344-1.459-1.13-1.459" transform="translate(-242.713 -351.758)" fill="#fff"/>
      <path id="Path_191" data-name="Path 191" d="M323.6,399.645a2.224,2.224,0,0,0,1.561-.58v-2.157h-1.7v.712h.922v1.056a1.094,1.094,0,0,1-.7.215c-.981,0-1.5-.676-1.5-1.791,0-1.1.583-1.771,1.451-1.771a1.322,1.322,0,0,1,.987.425l.464-.559a2.014,2.014,0,0,0-1.478-.619,2.316,2.316,0,0,0-2.314,2.551,2.261,2.261,0,0,0,2.3,2.519" transform="translate(-279.753 -343.559)" fill="#fff"/>
      <path id="Path_192" data-name="Path 192" d="M359.852,397.608a1.211,1.211,0,0,0,.454-.074l-.107-.643a.508.508,0,0,1-.135.015c-.09,0-.185-.075-.185-.287v-4.383h-.862v4.338c0,.64.225,1.035.835,1.035" transform="translate(-312.598 -341.521)" fill="#fff"/>
      <path id="Path_193" data-name="Path 193" d="M374.567,407.845a1.935,1.935,0,1,0-1.747-1.923,1.778,1.778,0,0,0,1.747,1.923m0-3.15c.538,0,.861.49.861,1.226s-.323,1.22-.861,1.22-.862-.485-.862-1.22.324-1.226.862-1.226" transform="translate(-324.617 -351.758)" fill="#fff"/>
      <path id="Path_194" data-name="Path 194" d="M406.848,397.137h.023a1.477,1.477,0,0,0,1,.476c.818,0,1.568-.727,1.568-1.988,0-1.129-.531-1.865-1.449-1.865a1.667,1.667,0,0,0-1.061.458l.024-.611v-1.366h-.862v5.282h.679Zm.107-2.253a1.152,1.152,0,0,1,.8-.413c.559,0,.8.434.8,1.167,0,.832-.374,1.262-.865,1.262a1.133,1.133,0,0,1-.736-.305Z" transform="translate(-353.588 -341.527)" fill="#fff"/>
      <path id="Path_195" data-name="Path 195" d="M438.658,407.35h.023l.066.407h.706v-2.175c0-1.023-.452-1.588-1.37-1.588a2.861,2.861,0,0,0-1.507.481l.317.574a2.03,2.03,0,0,1,1.032-.362c.5,0,.655.329.666.724-1.507.162-2.159.571-2.159,1.358a1.03,1.03,0,0,0,1.086,1.077,1.778,1.778,0,0,0,1.14-.5m-1.394-.647c0-.371.332-.631,1.328-.757v.826a1.155,1.155,0,0,1-.8.4c-.309,0-.53-.142-.53-.467" transform="translate(-380.004 -351.76)" fill="#fff"/>
      <path id="Path_196" data-name="Path 196" d="M468.85,396.909c-.09,0-.185-.074-.185-.287V392.24H467.8v4.337c0,.64.224,1.035.835,1.035a1.222,1.222,0,0,0,.454-.074l-.107-.643a.508.508,0,0,1-.135.015" transform="translate(-407.32 -341.526)" fill="#fff"/>
      <path id="Path_197" data-name="Path 197" d="M491.956,398.835h1.64l.379,1.325h.918l-1.595-4.89h-1.017l-1.595,4.89h.886Zm.368-1.277c.156-.517.3-1.071.434-1.612h.03c.144.536.287,1.095.443,1.612l.17.6h-1.249Z" transform="translate(-427.245 -344.163)" fill="#fff"/>
      <path id="Path_198" data-name="Path 198" d="M528.063,406.825a1.208,1.208,0,0,1-.76.317c-.571,0-.975-.485-.975-1.22s.41-1.227,1-1.227a.9.9,0,0,1,.61.27l.419-.56a1.573,1.573,0,0,0-1.075-.413,1.815,1.815,0,0,0-1.842,1.929,1.748,1.748,0,0,0,1.77,1.923,1.813,1.813,0,0,0,1.2-.452Z" transform="translate(-457.507 -351.759)" fill="#fff"/>
      <path id="Path_199" data-name="Path 199" d="M554.947,405.582c0-1.023-.452-1.588-1.37-1.588a2.865,2.865,0,0,0-1.508.481l.318.575a2.024,2.024,0,0,1,1.032-.362c.5,0,.655.329.667.724-1.507.161-2.159.571-2.159,1.357a1.029,1.029,0,0,0,1.085,1.077,1.775,1.775,0,0,0,1.14-.5h.024l.066.407h.706Zm-.862,1.191a1.157,1.157,0,0,1-.8.4c-.308,0-.529-.143-.529-.467,0-.371.331-.631,1.328-.757Z" transform="translate(-480.566 -351.76)" fill="#fff"/>
      <path id="Path_200" data-name="Path 200" d="M584.9,397.52v-5.283h-.862v1.331l.033.593a1.35,1.35,0,0,0-.963-.4,1.727,1.727,0,0,0-1.556,1.929c0,1.212.593,1.923,1.508,1.923a1.538,1.538,0,0,0,1.044-.488h.024l.066.4Zm-.862-1.035a.971.971,0,0,1-.766.413c-.529,0-.835-.422-.835-1.221,0-.765.386-1.208.853-1.208a1.083,1.083,0,0,1,.748.305Z" transform="translate(-506.365 -341.523)" fill="#fff"/>
      <path id="Path_201" data-name="Path 201" d="M616.814,406.911a1.564,1.564,0,0,1-.852.267,1.046,1.046,0,0,1-1.083-1.024h2.332a2.27,2.27,0,0,0,.037-.418c0-1.026-.523-1.744-1.516-1.744a1.936,1.936,0,0,0,.117,3.853,2.279,2.279,0,0,0,1.259-.4Zm-1.065-2.252c.5,0,.754.344.754.91H614.87a.922.922,0,0,1,.879-.91" transform="translate(-534.648 -351.758)" fill="#fff"/>
      <path id="Path_202" data-name="Path 202" d="M647.425,407.755h.861v-2.566a1.132,1.132,0,0,1,.769-.458c.386,0,.566.228.566.832v2.192h.861v-2.3c0-.928-.359-1.46-1.133-1.46a1.661,1.661,0,0,0-1.182.658.989.989,0,0,0-1.014-.658,1.579,1.579,0,0,0-1.128.591H646l-.066-.5h-.706v3.673h.862v-2.566a1.145,1.145,0,0,1,.768-.458c.387,0,.566.228.566.832Z" transform="translate(-561.805 -351.758)" fill="#fff"/>
      <path id="Path_203" data-name="Path 203" d="M691.823,408.545a.776.776,0,0,1-.733.631,1.026,1.026,0,0,1-.264-.05l-.158.667a1.433,1.433,0,0,0,.478.075c.8,0,1.188-.513,1.493-1.34l1.329-3.841h-.832l-.547,1.8c-.1.335-.189.7-.281,1.038h-.03c-.107-.35-.213-.712-.323-1.038l-.634-1.8h-.873l1.444,3.628Z" transform="translate(-601.177 -352.363)" fill="#fff"/>
      <path id="Path_204" data-name="Path 204" d="M732.876,392.806v.384l-.494.036v.646h.494v2.989h.861v-2.989h.718v-.684h-.718v-.4c0-.426.162-.619.466-.619a1.022,1.022,0,0,1,.4.087l.164-.643a1.866,1.866,0,0,0-.673-.129c-.867,0-1.217.558-1.217,1.319" transform="translate(-637.69 -340.87)" fill="#fff"/>
      <path id="Path_205" data-name="Path 205" d="M752.692,403.938a1.936,1.936,0,1,0,1.747,1.929,1.78,1.78,0,0,0-1.747-1.929m0,3.15c-.538,0-.862-.485-.862-1.22s.324-1.226.862-1.226.861.49.861,1.226-.323,1.22-.861,1.22" transform="translate(-653.853 -351.711)" fill="#fff"/>
      <path id="Path_206" data-name="Path 206" d="M785.362,404.683h-.024l-.066-.655h-.706V407.7h.862v-2.24c.221-.56.574-.76.867-.76a1.233,1.233,0,0,1,.377.06l.15-.747a.927.927,0,0,0-.416-.075,1.254,1.254,0,0,0-1.044.745" transform="translate(-683.127 -351.711)" fill="#fff"/>
      <path id="Path_207" data-name="Path 207" d="M814.951,395.217l-1.594,4.89h.885l.382-1.325h1.64l.379,1.325h.918l-1.594-4.89Zm-.13,2.885.172-.6c.156-.518.3-1.071.434-1.612h.03c.143.536.287,1.094.442,1.612l.171.6Z" transform="translate(-708.194 -344.118)" fill="#fff"/>
      <path id="Path_208" data-name="Path 208" d="M850.77,404.683h-.024l-.066-.655h-.706V407.7h.862v-2.24c.222-.56.575-.76.868-.76a1.232,1.232,0,0,1,.377.06l.15-.747a.925.925,0,0,0-.416-.075,1.254,1.254,0,0,0-1.044.745" transform="translate(-740.078 -351.711)" fill="#fff"/>
      <path id="Path_209" data-name="Path 209" d="M870.17,403.939a2.866,2.866,0,0,0-1.508.481l.318.575a2.022,2.022,0,0,1,1.032-.362c.5,0,.655.329.667.724-1.508.161-2.16.571-2.16,1.357a1.029,1.029,0,0,0,1.086,1.077,1.775,1.775,0,0,0,1.14-.5h.024l.066.407h.706v-2.175c0-1.023-.452-1.588-1.37-1.588m.509,2.779a1.158,1.158,0,0,1-.8.4c-.308,0-.529-.143-.529-.467,0-.371.331-.631,1.328-.757Z" transform="translate(-756.225 -351.712)" fill="#fff"/>
      <path id="Path_210" data-name="Path 210" d="M901.781,393.7a1.665,1.665,0,0,0-1.06.457l.024-.61v-1.367h-.862v5.283h.679l.074-.386h.024a1.477,1.477,0,0,0,1,.476c.817,0,1.568-.727,1.568-1.988,0-1.129-.531-1.865-1.45-1.865m-.3,3.141a1.135,1.135,0,0,1-.736-.305v-1.711a1.153,1.153,0,0,1,.8-.413c.56,0,.8.433.8,1.167,0,.831-.374,1.262-.865,1.262" transform="translate(-783.534 -341.475)" fill="#fff"/>
      <path id="Path_211" data-name="Path 211" d="M932.211,392.115a.49.49,0,1,0,.532.487.492.492,0,0,0-.532-.487" transform="translate(-811.218 -341.417)" fill="#fff"/>
      <rect id="Rectangle_7" data-name="Rectangle 7" width="0.862" height="3.673" transform="translate(120.559 52.317)" fill="#fff"/>
      <path id="Path_212" data-name="Path 212" d="M947.585,407.088c-.571,0-.975-.485-.975-1.22s.41-1.226,1-1.226a.9.9,0,0,1,.61.269l.419-.56a1.574,1.574,0,0,0-1.075-.413,1.815,1.815,0,0,0-1.842,1.929,1.748,1.748,0,0,0,1.77,1.923,1.818,1.818,0,0,0,1.2-.452l-.35-.569a1.206,1.206,0,0,1-.76.317" transform="translate(-823.449 -351.711)" fill="#fff"/>
      <path id="Path_213" data-name="Path 213" d="M987.324,395.215h-.867v4.891h2.9v-.73h-2.031Z" transform="translate(-858.914 -344.116)" fill="#fff"/>
      <path id="Path_214" data-name="Path 214" d="M1015.039,403.939a2.865,2.865,0,0,0-1.508.481l.318.575a2.023,2.023,0,0,1,1.032-.362c.5,0,.655.329.667.724-1.507.161-2.16.571-2.16,1.357a1.029,1.029,0,0,0,1.086,1.077,1.775,1.775,0,0,0,1.14-.5h.024l.066.407h.706v-2.175c0-1.023-.452-1.588-1.37-1.588m.508,2.779a1.158,1.158,0,0,1-.8.4c-.308,0-.529-.143-.529-.467,0-.371.332-.631,1.328-.757Z" transform="translate(-882.363 -351.712)" fill="#fff"/>
      <path id="Path_215" data-name="Path 215" d="M1046.757,403.938a1.716,1.716,0,0,0-1.206.586h-.023l-.066-.5h-.706V407.7h.861v-2.567a1.156,1.156,0,0,1,.837-.457c.4,0,.572.227.572.832V407.7h.861v-2.3c0-.927-.344-1.459-1.13-1.459" transform="translate(-909.676 -351.711)" fill="#fff"/>
      <path id="Path_216" data-name="Path 216" d="M1077.339,407.123h-.653c-.446,0-.6-.126-.6-.332a.422.422,0,0,1,.18-.351,1.405,1.405,0,0,0,.5.1,1.253,1.253,0,0,0,1.4-1.253.968.968,0,0,0-.209-.617h.67v-.64h-1.313a1.633,1.633,0,0,0-.545-.09,1.337,1.337,0,0,0-1.451,1.319,1.222,1.222,0,0,0,.484.969v.03a.889.889,0,0,0-.407.685.7.7,0,0,0,.333.614v.03a.936.936,0,0,0-.53.783c0,.643.652.957,1.529.957,1.2,0,1.959-.57,1.959-1.295,0-.635-.467-.906-1.345-.906m-.573-2.59a.645.645,0,0,1,.638.723.645.645,0,1,1-1.275,0,.643.643,0,0,1,.638-.723m.09,4.232c-.578,0-.937-.195-.937-.53a.609.609,0,0,1,.284-.484,2,2,0,0,0,.5.05h.5c.421,0,.648.084.648.368,0,.317-.4.6-1,.6" transform="translate(-936.18 -351.711)" fill="#fff"/>
      <path id="Path_217" data-name="Path 217" d="M1109.135,407.149c-.278.359-.491.508-.814.508-.4,0-.571-.227-.571-.831v-2.192h-.862v2.3c0,.927.344,1.46,1.131,1.46a1.494,1.494,0,0,0,1.181-.631h.024l.066.542H1110v-3.673h-.861Z" transform="translate(-963.775 -352.317)" fill="#fff"/>
      <path id="Path_218" data-name="Path 218" d="M1139.493,403.939a2.859,2.859,0,0,0-1.507.481l.317.575a2.023,2.023,0,0,1,1.032-.362c.5,0,.656.329.667.724-1.508.161-2.159.571-2.159,1.357a1.029,1.029,0,0,0,1.086,1.077,1.775,1.775,0,0,0,1.139-.5h.024l.066.407h.706v-2.175c0-1.023-.452-1.588-1.37-1.588m.509,2.779a1.158,1.158,0,0,1-.8.4c-.308,0-.529-.143-.529-.467,0-.371.332-.631,1.328-.757Z" transform="translate(-990.726 -351.712)" fill="#fff"/>
      <path id="Path_219" data-name="Path 219" d="M1169.407,407.123h-.653c-.446,0-.6-.126-.6-.332a.422.422,0,0,1,.18-.351,1.406,1.406,0,0,0,.5.1,1.253,1.253,0,0,0,1.4-1.253.968.968,0,0,0-.209-.617h.67v-.64h-1.314a1.63,1.63,0,0,0-.545-.09,1.337,1.337,0,0,0-1.45,1.319,1.223,1.223,0,0,0,.484.969v.03a.889.889,0,0,0-.406.685.7.7,0,0,0,.332.614v.03a.936.936,0,0,0-.53.783c0,.643.653.957,1.529.957,1.2,0,1.959-.57,1.959-1.295,0-.635-.467-.906-1.345-.906m-.573-2.59a.645.645,0,0,1,.638.723.644.644,0,1,1-1.275,0,.643.643,0,0,1,.637-.723m.09,4.232c-.577,0-.936-.195-.936-.53a.609.609,0,0,1,.284-.484,2.008,2.008,0,0,0,.5.05h.5c.421,0,.648.084.648.368,0,.317-.4.6-1,.6" transform="translate(-1016.344 -351.711)" fill="#fff"/>
      <path id="Path_220" data-name="Path 220" d="M1198.172,403.94a1.936,1.936,0,0,0,.117,3.853,2.286,2.286,0,0,0,1.259-.4l-.293-.536a1.564,1.564,0,0,1-.852.266,1.045,1.045,0,0,1-1.083-1.023h2.332a2.194,2.194,0,0,0,.038-.419c0-1.026-.524-1.743-1.517-1.743m-.861,1.576a.922.922,0,0,1,.879-.91c.5,0,.754.344.754.91Z" transform="translate(-1041.782 -351.713)" fill="#fff"/>
      <path id="Path_221" data-name="Path 221" d="M7.065,84.686H25.678a3.87,3.87,0,0,0,1.66-2.283q.076-.767.077-1.545c0-.212,0-.419-.01-.624a21.161,21.161,0,0,0-.6-3.386l-.269-.077-1.4,2.082a29.4,29.4,0,0,1,.824,3.655H7.065a12.9,12.9,0,0,1-3.378-.432Q.867,81.166.866,78.642v-.489l-.249-.1A5.658,5.658,0,0,0,0,80.177v.364q0,4.116,7.062,4.145" transform="translate(-0.003 -66.845)" fill="#fff"/>
      <path id="Path_222" data-name="Path 222" d="M92.487,76.406v-.029a13.36,13.36,0,0,0-1.871-1.16.277.277,0,0,0-.125.028,3.019,3.019,0,0,0-.825,1.689v.029A13.187,13.187,0,0,0,91.6,78.095a3.021,3.021,0,0,0,.883-1.689" transform="translate(-78.073 -65.492)" fill="#fff"/>
      <path id="Path_223" data-name="Path 223" d="M260.8,53.136a6.2,6.2,0,0,0,.383-2.255V49.663l-.221-.144-1.429,1.487.019,2.082q-2.457-.106-2.792-.546l.691-2.821-.2-.105-1.286,1.228-.633,2.2h-4.155a6.914,6.914,0,0,0,.682-1.29,3.416,3.416,0,0,0,.239-1.233l-.249-.116a8.121,8.121,0,0,1-1.343,1.627,4.536,4.536,0,0,1-2.274,1.012h-2.361a1.759,1.759,0,0,1-1.7-.864,9.563,9.563,0,0,1-.657-3.349q-.193-2.485-.529-5.9h-.239l-1.017,1.757q.335,3.338.48,5.276a22.018,22.018,0,0,0,.269,2.351q-.471.739-2.381.738-.152,0-.307-.009h-.457a5.079,5.079,0,0,1-.838-.25,3.291,3.291,0,0,1-1.852-3.013v-.72c0-.077-.143-.135-.431-.173a6.263,6.263,0,0,0-2.811.757,4.965,4.965,0,0,0-2.1,1.853,3.1,3.1,0,0,1-3.042,1.573h-.1c-.017-.014-.034-.028-.043-.028h-.308a1.769,1.769,0,0,1-1.706-.864,9.428,9.428,0,0,1-.658-3.349q-.188-2.485-.523-5.9h-.25l-1.007,1.757q.335,3.338.475,5.276a17.273,17.273,0,0,0,.379,2.86,3.052,3.052,0,0,0,1.256,1.784,3.492,3.492,0,0,0,1.883.6l.018.019h.442l.006-.007a5.992,5.992,0,0,0,1.212-.3,2.64,2.64,0,0,0,1.506-1.751q.03.279.768.922a19.976,19.976,0,0,0,4.653,1.947q.336,0,.912-1.247a4.142,4.142,0,0,0,2,.432h.509l.014-.015a4,4,0,0,0,1.233-.2,4.1,4.1,0,0,0,1.861-1.649,2.826,2.826,0,0,0,1.056,1.247,3.479,3.479,0,0,0,1.933.6l.014.015h2.36a2.851,2.851,0,0,0,1.612-.874l.307.874h2.868v-.01h1.545l.96-.921q1,.893,3.694.932h.451a6.588,6.588,0,0,0,1.208-2.082M235.81,53.4a9.435,9.435,0,0,1-3.348-1.67v-.058a8.9,8.9,0,0,1,2.591-.7.362.362,0,0,1,.3.172v.6a3.213,3.213,0,0,0,.46,1.6Z" transform="translate(-194.746 -37.377)" fill="#fff"/>
      <path id="Path_224" data-name="Path 224" d="M591.957,69.776l.067.029a2.572,2.572,0,0,0,1.536-2.274q0-.854-2.4-.854a4.692,4.692,0,0,1,2.609-.892h.307q.768,0,.768.613h.029a2,2,0,0,0,.585-1.2q0-.671-.892-.671H594.2a5.072,5.072,0,0,0-3.128,1.286q-1.112,1.027-1.113,1.689v.125q0,.307.528.307h.336a3.334,3.334,0,0,1,1.938.46,5.745,5.745,0,0,1-2.888.586q-1.016-.039-2.245-.192l-.058.038v.029a8.267,8.267,0,0,0,3.992,1.046.786.786,0,0,0,.393-.125" transform="translate(-511.603 -56.185)" fill="#fff"/>
      <path id="Path_225" data-name="Path 225" d="M565.18,55.222h6.428a7.7,7.7,0,0,0,1.87-1.861,5.008,5.008,0,0,0,1.661,2.937,1.948,1.948,0,0,0,1.362.518,3.28,3.28,0,0,0,.825-.115,2.539,2.539,0,0,0,.768-.825,3.78,3.78,0,0,0,.345-1.89V53.7a3.682,3.682,0,0,0,2.475,1.5,4.853,4.853,0,0,0,.526.027l0,0h.211l.023-.019a4.769,4.769,0,0,0,1.186-.211,6.373,6.373,0,0,1,1.937-.642h.078a7.826,7.826,0,0,1,2.811,1.141h.163a9.08,9.08,0,0,0,.72-1.861.822.822,0,0,0,.038-.259.667.667,0,0,0-.02-.172,5.575,5.575,0,0,0-.883-.6,4.322,4.322,0,0,1-1.746-1.094q-.46-.575-.738-3.963l.537.269h.144l.94-1.842v-.211l-1.881-1.219a1.33,1.33,0,0,1-.891-1.228c0-.077,0-.154.01-.231l-.172-.134-.135.211a4.1,4.1,0,0,0-.854,2.149v.23q0,.575,1.084,1.161.5,5.191.556,5.671a5.556,5.556,0,0,1-2.773.681c-.109,0-.214,0-.317-.01l-.014.01h-.111c-.122,0-.294-.01-.517-.028a1.688,1.688,0,0,1-1.3-.845q-.49-.854-1.372-9.24h-.249l-1.036,1.757q.767,6.868.786,7.972a10.126,10.126,0,0,1-.244,1.54.684.684,0,0,1-.734.513l-.01.01a1.8,1.8,0,0,1-1.636-1.242q-.581-1.243-1.291-10.55h-.25l-1.084,1.757.47,5.276a22.144,22.144,0,0,0,.269,2.351q-.384.729-2.342.729H565.18a13.782,13.782,0,0,1-3.377-.4q-2.821-.912-2.821-3.434v-.49l-.249-.1a5.644,5.644,0,0,0-.614,2.121v.364q0,4.115,7.061,4.116" transform="translate(-485.958 -37.38)" fill="#fff"/>
      <path id="Path_226" data-name="Path 226" d="M803.745,55.35a10.449,10.449,0,0,0,1.027-3.127,80.508,80.508,0,0,0-1.056-9.144h-.335l-1.122,2.284a76.8,76.8,0,0,1,1.151,9.988Z" transform="translate(-698.531 -37.509)" fill="#fff"/>
      <path id="Path_227" data-name="Path 227" d="M894.156,71.7a7.359,7.359,0,0,1,2.963-1.4,5.3,5.3,0,0,0,.547,1.977q.4.912,2.553.911h1.937l.012-.012a5.024,5.024,0,0,0,1.686-.276,4.676,4.676,0,0,0,.82-.811q.361-.455.8-1.117a7,7,0,0,0,1.218.7,15.378,15.378,0,0,0,3.079,1.027q.231,0,1.266-1.977v-.786q-.353-4.106-2.177-4.106h-.077q-2.073,0-3.771,4.26-.663.911-2.993.911H899.2a1.419,1.419,0,0,1-1.162-.854h1.833l1.084-2.054-.067-.173h-.508a18.062,18.062,0,0,1-4.672-.872q-.355-.087-1.291-.327a6.571,6.571,0,0,0-1.587-.24H892.8a3.107,3.107,0,0,0-2.657,1.315,5.644,5.644,0,0,0-.767,1.6l.231.116a2.237,2.237,0,0,1,1.88-.854h.278a8.771,8.771,0,0,1,1.924.3q1.243.3,1.444.36a12.674,12.674,0,0,1-5.891,1.679H888l-.02.028h-.047a5.01,5.01,0,0,1-.959-.278,3.289,3.289,0,0,1-1.851-3.013v-.72c0-.077-.145-.135-.432-.173a6.259,6.259,0,0,0-2.811.757,4.965,4.965,0,0,0-2.1,1.853,3.1,3.1,0,0,1-3.042,1.573h-.181l-.029-.028h-1.939q-2.5,0-3.185-.634l-.1-.106.7-.278a10.225,10.225,0,0,0,2.1-.854l.834-1.851-.259-.182q-2.783,1.218-5.181,2.3a5.455,5.455,0,0,1-2.187-.988q-1.382-1.008-1.382-1.718a3.726,3.726,0,0,1,3.157-1.189,14.039,14.039,0,0,1,2.532.326h.028l.2-.307-.1-.154a7.66,7.66,0,0,0-2.764-1.813,3.524,3.524,0,0,0-2.485,1.132,5.255,5.255,0,0,0-1.468,3.348q0,1.823,2.484,2.984a7.265,7.265,0,0,0-1.837,2.71,6.9,6.9,0,0,0-.446,2.011v.94a3.74,3.74,0,0,0,.432,1.438Q866.791,80,871.071,80a6.642,6.642,0,0,0,3.32-.652l1.948-1.219V77.82h-4.384a7.477,7.477,0,0,1-4.577-1.161,2.5,2.5,0,0,1-1.075-2.053,3.339,3.339,0,0,1,.029-.432,5.129,5.129,0,0,1,1.621-1.948,10.283,10.283,0,0,1,2.62-1.66,5.05,5.05,0,0,0,.221,1.41q.661,1.208,3.463,1.209h2.274a5.354,5.354,0,0,0,1.276-.3,2.64,2.64,0,0,0,1.506-1.751q.029.278.768.922A19.957,19.957,0,0,0,884.734,74q.335,0,.911-1.247a4.141,4.141,0,0,0,2.005.432h1.593a9.569,9.569,0,0,0,4.913-1.483m14-3.987q1.016.076,1.545,2.716a12.78,12.78,0,0,1-3.157-1.371,2.209,2.209,0,0,1,1.612-1.344m-23.871,3.646a9.441,9.441,0,0,1-3.348-1.67v-.058a8.9,8.9,0,0,1,2.591-.7.362.362,0,0,1,.3.172v.6a3.212,3.212,0,0,0,.46,1.6Z" transform="translate(-753.192 -55.344)" fill="#fff"/>
      <path id="Path_228" data-name="Path 228" d="M1085.074,145.889a3.176,3.176,0,0,0-.757,1.564.388.388,0,0,1,.029.106q1.774,1.064,1.853,1.065h.076a3.213,3.213,0,0,0,.806-1.651.162.162,0,0,0-.02-.067q-.336-.229-1.832-1.122c-.032,0-.083.035-.154.106" transform="translate(-944.122 -126.934)" fill="#fff"/>
      <path id="Path_229" data-name="Path 229" d="M5.021,208.076A9.87,9.87,0,0,0,3.093,207a3.449,3.449,0,0,0-.864,1.7,10.226,10.226,0,0,0,1.928,1.247q.154-.029.816-1.065a9.007,9.007,0,0,0,1.793.988h.077a2.9,2.9,0,0,0,.787-1.6v-.077A6.646,6.646,0,0,0,5.78,207q-.328,0-.759,1.075" transform="translate(-1.941 -180.237)" fill="#fff"/>
      <path id="Path_230" data-name="Path 230" d="M198.024,315.347q-.3,0-.786,1.065-1.747-1.018-1.767-1.065a.448.448,0,0,0-.182.048,3.532,3.532,0,0,0-.786,1.649v.03a15.492,15.492,0,0,0,1.881,1.161,2.436,2.436,0,0,0,.729-1.036v-.028q1.775,1.016,1.8,1.064l.1-.019a3.15,3.15,0,0,0,.835-1.679v-.018a13.87,13.87,0,0,0-1.823-1.171" transform="translate(-169.355 -274.575)" fill="#fff"/>
      <path id="Path_231" data-name="Path 231" d="M39.281,241.041a7.12,7.12,0,0,0-1.258-3.6H37.87l-.988,1.967a12.405,12.405,0,0,1,1.075,2.427H35.6a2.921,2.921,0,0,1-1.626-.384,1.948,1.948,0,0,1-.754-.969q.278-.729.471-1.247l-.854-.356q-1.382,2.956-3.5,2.955H9.211a3.149,3.149,0,0,1-1.66-.95,7.716,7.716,0,0,1-1.439-3.876,8.307,8.307,0,0,0-.249-1.8l-.058.028a3.123,3.123,0,0,0-.739,1.775v.345l.029.058c-.121.077-.182.128-.182.154q-3.243,1.4-3.559,1.938A6.353,6.353,0,0,0,0,242.615v.125q0,.709,1.354.71a6.561,6.561,0,0,0,3.866-.921,2.6,2.6,0,0,0,.614-1.151h.029q1.016,2.638,3.291,2.638H29.139a5.613,5.613,0,0,0,1.353-.307,3.569,3.569,0,0,0,1.928-1.938h.029a2.12,2.12,0,0,0,.221.806,2.737,2.737,0,0,0,2.388,1.439H38.34a15.174,15.174,0,0,0,.941-2.974m-36.728.211H2a3.861,3.861,0,0,1-.863-.1v-.029a2.12,2.12,0,0,1,.585-.393,15.093,15.093,0,0,0,2.792-1.295,3.62,3.62,0,0,0,.71-.922,12.21,12.21,0,0,0,.364,2.025,5.969,5.969,0,0,1-3.031.71" transform="translate(0 -204.797)" fill="#fff"/>
      <path id="Path_232" data-name="Path 232" d="M280.137,315.04v.125a10.038,10.038,0,0,0,1.871,1.189q.4,0,.94-1.746a12.82,12.82,0,0,0-1.881-1.189q-.45,0-.93,1.621" transform="translate(-243.917 -272.896)" fill="#fff"/>
      <path id="Path_233" data-name="Path 233" d="M323.858,204.3l.068-.355-.241-.135a3.878,3.878,0,0,0-.969,2.274,1.827,1.827,0,0,0,.988,1.631,43.913,43.913,0,0,1,1.075,6.783h-2.734a2.99,2.99,0,0,1-2.131-.739,3.539,3.539,0,0,0,.557-1.746v-.153a1.972,1.972,0,0,0-.077-.451,2.519,2.519,0,0,0-2.332-1.237h-.432a5.212,5.212,0,0,0-2.245.547q-.441.969-.8,1.957l.086.087a3.723,3.723,0,0,1,.729-.087,3,3,0,0,1,2.207,1.238,12.852,12.852,0,0,1-4.174.585h-.768a2.816,2.816,0,0,1-2.705-2.753l-.317-.01a7.654,7.654,0,0,0-.777,1.938,2.949,2.949,0,0,0,1.448,2.293l-.2.471a5.422,5.422,0,0,1-4.941,2.945,6.891,6.891,0,0,1-2-.385l-.115.423a11.725,11.725,0,0,0,3.991,1.756,4.182,4.182,0,0,0,1-.134q.307-.049,1.275-1.132a10.933,10.933,0,0,0,1.939-3.531l.259.105a3.7,3.7,0,0,0,.948.181l.01.011h.384a10.863,10.863,0,0,0,5.7-1.516,1.132,1.132,0,0,1,.23.249q.757,1.267,3.032,1.266h3.3a8.331,8.331,0,0,0,.93-3.713,22.738,22.738,0,0,0-.461-4.02l.24.115.106-.029.94-1.89v-.153l-1.219-.806q-1.813-1.046-1.813-1.88" transform="translate(-263.882 -177.462)" fill="#fff"/>
      <path id="Path_234" data-name="Path 234" d="M502.1,208.415l-1.123,2.284a76.655,76.655,0,0,1,1.152,9.988h.335a10.473,10.473,0,0,0,1.026-3.128,80.556,80.556,0,0,0-1.055-9.143Z" transform="translate(-436.203 -181.468)" fill="#fff"/>
      <path id="Path_235" data-name="Path 235" d="M568.106,208.076A9.888,9.888,0,0,0,566.178,207a3.454,3.454,0,0,0-.864,1.7,10.193,10.193,0,0,0,1.928,1.247q.154-.029.815-1.065a8.994,8.994,0,0,0,1.795.988h.077a2.915,2.915,0,0,0,.786-1.6v-.077a6.653,6.653,0,0,0-1.852-1.19q-.327,0-.758,1.075" transform="translate(-492.223 -180.237)" fill="#fff"/>
      <path id="Path_236" data-name="Path 236" d="M694.214,219.2a3.22,3.22,0,0,0-.815,1.574v.172a13.991,13.991,0,0,0,1.871,1.094h.058a3.626,3.626,0,0,0,.834-1.573v-.144q-.105-.115-1.851-1.152a.154.154,0,0,0-.1.029" transform="translate(-603.747 -190.835)" fill="#fff"/>
      <path id="Path_237" data-name="Path 237" d="M594.563,204.3l.067-.355-.24-.135a3.882,3.882,0,0,0-.97,2.274,1.826,1.826,0,0,0,.989,1.631,44.04,44.04,0,0,1,1.075,6.783h-2.657a1.762,1.762,0,0,1-1.7-.864,9.619,9.619,0,0,1-.657-3.349q-.191-2.485-.528-5.9h-.24l-1.017,1.757q.336,3.338.48,5.276a22.291,22.291,0,0,0,.268,2.351q-.47.739-2.379.739c-.1,0-.2,0-.308-.009h-.374a2.984,2.984,0,0,1-2.13-.739,3.549,3.549,0,0,0,.556-1.745v-.154a2,2,0,0,0-.077-.451,2.519,2.519,0,0,0-2.332-1.237h-.431a5.212,5.212,0,0,0-2.245.547q-.441.969-.8,1.957l.087.087a3.71,3.71,0,0,1,.729-.087,3,3,0,0,1,2.206,1.238,12.848,12.848,0,0,1-4.174.585h-5.469a3.15,3.15,0,0,1-1.66-.95,7.7,7.7,0,0,1-1.438-3.876,8.33,8.33,0,0,0-.25-1.8l-.058.028a3.121,3.121,0,0,0-.738,1.775v.345l.028.058c-.122.077-.182.128-.182.154q-3.244,1.4-3.561,1.938a6.366,6.366,0,0,0-1.353,3.108v.125q0,.709,1.353.71a6.563,6.563,0,0,0,3.867-.921,2.6,2.6,0,0,0,.614-1.151h.029q1.016,2.638,3.291,2.638H577.2a10.852,10.852,0,0,0,5.7-1.516,1.105,1.105,0,0,1,.231.249q.759,1.267,3.032,1.266h.508l.018-.016a3.985,3.985,0,0,0,1.2-.2,4.107,4.107,0,0,0,1.861-1.65,2.82,2.82,0,0,0,1.055,1.247,3.483,3.483,0,0,0,1.934.6l.014.014h3.089a8.321,8.321,0,0,0,.931-3.713,22.757,22.757,0,0,0-.461-4.02l.24.115.106-.029.94-1.889v-.154l-1.218-.806q-1.812-1.046-1.814-1.881m-28.927,9.614h-.557a3.862,3.862,0,0,1-.863-.1v-.029a2.1,2.1,0,0,1,.585-.393,15.085,15.085,0,0,0,2.792-1.295,3.6,3.6,0,0,0,.71-.922,12.214,12.214,0,0,0,.365,2.025,5.97,5.97,0,0,1-3.031.71" transform="translate(-490.28 -177.46)" fill="#fff"/>
      <path id="Path_238" data-name="Path 238" d="M918.831,337.313a3.27,3.27,0,0,0-.662,1.007.026.026,0,0,1-.029.029q-1.746-1.036-1.823-1.036h-.02l-.076.019a3.135,3.135,0,0,0-.8,1.65v.1a15.847,15.847,0,0,0,1.928,1.093,2.615,2.615,0,0,0,.662-1.035h.019q1.8,1.036,1.852,1.035h.057a3.654,3.654,0,0,0,.807-1.544V338.4a17.9,17.9,0,0,0-1.88-1.084Z" transform="translate(-797.067 -293.701)" fill="#fff"/>
      <path id="Path_239" data-name="Path 239" d="M893.373,217.995a4.313,4.313,0,0,1-1.746-1.094q-.46-.574-.739-3.963l.537.268h.144l.94-1.841v-.212l-1.88-1.218a1.328,1.328,0,0,1-.891-1.228c0-.077,0-.153.008-.231l-.172-.134-.135.211a4.1,4.1,0,0,0-.853,2.149v.231q0,.575,1.084,1.161.5,5.191.555,5.67a5.547,5.547,0,0,1-2.772.681c-.109,0-.214,0-.316-.009l-.014.009h-3.019l-1.026,2.044.1.134a6.391,6.391,0,0,1,2.019.279,2.23,2.23,0,0,1,1.281,1.468h-6.658a12.946,12.946,0,0,1-3.378-.432q-2.821-.912-2.82-3.444v-.48l-.249-.1a5.649,5.649,0,0,0-.614,2.111v.375q0,4.115,7.062,4.145h5.949a7.136,7.136,0,0,0,1.669-2.025,3.572,3.572,0,0,0,.259-.581,1.883,1.883,0,0,0,.086-.59,1.278,1.278,0,0,0-.3-.729h.692l.172-.172v-.014c.062-.017.122-.023.182-.043a6.406,6.406,0,0,1,1.938-.643h.076a7.839,7.839,0,0,1,2.813,1.141h.162a9.088,9.088,0,0,0,.72-1.861.82.82,0,0,0,.038-.259.728.728,0,0,0-.019-.173,5.728,5.728,0,0,0-.883-.6" transform="translate(-759.913 -181.406)" fill="#fff"/>
      <path id="Path_240" data-name="Path 240" d="M1062.152,204.3l.067-.355-.24-.135a3.875,3.875,0,0,0-.969,2.274,1.828,1.828,0,0,0,.988,1.631,43.889,43.889,0,0,1,1.075,6.783h-2.734a2.986,2.986,0,0,1-2.131-.739,3.538,3.538,0,0,0,.557-1.746v-.153a1.932,1.932,0,0,0-.077-.451,2.517,2.517,0,0,0-2.331-1.237h-.432a5.213,5.213,0,0,0-2.245.547q-.442.969-.8,1.957l.086.087a3.731,3.731,0,0,1,.729-.087,3,3,0,0,1,2.207,1.238,12.851,12.851,0,0,1-4.173.585h-.816a1.768,1.768,0,0,1-1.707-.864,9.425,9.425,0,0,1-.658-3.348q-.186-2.485-.523-5.9h-.25l-1.006,1.756q.336,3.339.475,5.277a17.214,17.214,0,0,0,.379,2.859,3.056,3.056,0,0,0,1.257,1.785,3.486,3.486,0,0,0,1.882.6l.018.018h.442l0,0a10.814,10.814,0,0,0,5.638-1.512c.019,0,.1.083.23.249q.757,1.267,3.033,1.266h3.3a8.319,8.319,0,0,0,.93-3.713,22.735,22.735,0,0,0-.46-4.02l.239.115.106-.029.94-1.89v-.153l-1.219-.806q-1.812-1.046-1.813-1.88" transform="translate(-911.431 -177.462)" fill="#fff"/>
      <path id="Path_241" data-name="Path 241" d="M1204.284,208.415h-.335l-1.124,2.284a76.641,76.641,0,0,1,1.152,9.988h.336a10.489,10.489,0,0,0,1.026-3.128,80.485,80.485,0,0,0-1.055-9.143" transform="translate(-1047.307 -181.468)" fill="#fff"/>
      <path id="Path_242" data-name="Path 242" d="M1498.465,365.852s4.036,4.4,4.169,4.555a22.236,22.236,0,0,1,3.877-4.11l-3.414-3.553,3.467-3.278s-3.586-4.612-3.9-5.649c-.006-.019-.026-.017-.027,0-.146,2.592-3.93,5.305-3.93,5.305l3.153,3.611Z" transform="translate(-1304.723 -308.059)" fill="#fff"/>
      <path id="Path_243" data-name="Path 243" d="M1323.336,295.625s-1.789,5.693-1.86,5.888a22.264,22.264,0,0,1,5.5,1.3l1.37-4.733,4.573,1.364s2.2-5.412,2.94-6.2c.014-.015,0-.031-.016-.022-2.319,1.169-6.559-.751-6.559-.751l-1.551,4.537Z" transform="translate(-1150.619 -254.655)" fill="#fff"/>
      <path id="Path_244" data-name="Path 244" d="M1326.626,111s-5.823,1.3-6.029,1.334a22.236,22.236,0,0,1,1.621,5.412l4.784-1.18,1.1,4.642s5.788-.8,6.844-.556c.02,0,.027-.014.011-.025-2.172-1.424-2.63-6.056-2.63-6.056l-4.7.925Z" transform="translate(-1149.853 -96.645)" fill="#fff"/>
      <path id="Path_245" data-name="Path 245" d="M1506.673,4.555S1502.638.159,1502.5,0a22.234,22.234,0,0,1-3.877,4.11l3.414,3.553-3.467,3.278s3.586,4.612,3.9,5.649c.006.018.026.017.027,0,.146-2.592,3.93-5.305,3.93-5.305l-3.153-3.611Z" transform="translate(-1304.818)" fill="#fff"/>
      <path id="Path_246" data-name="Path 246" d="M1639.466,116.92s1.788-5.693,1.859-5.888a22.272,22.272,0,0,1-5.5-1.3l-1.37,4.733-4.573-1.364s-2.2,5.412-2.941,6.2c-.013.015,0,.031.016.022,2.319-1.169,6.56.751,6.56.751l1.551-4.537Z" transform="translate(-1416.587 -95.543)" fill="#fff"/>
      <path id="Path_247" data-name="Path 247" d="M1636.261,302.48s5.824-1.3,6.029-1.334a22.253,22.253,0,0,1-1.621-5.412l-4.784,1.18-1.1-4.642s-5.787.8-6.844.556c-.019,0-.027.014-.011.025,2.172,1.424,2.629,6.056,2.629,6.056l4.7-.925Z" transform="translate(-1417.438 -254.484)" fill="#fff"/>
      <path id="Path_248" data-name="Path 248" d="M1395.372,16.788h0q.355.109.605,1.156.328,1.008.018,1.171l-.791-.372a1.47,1.47,0,0,0-1.338-.086q-1.091.572.561,4.865t1.222,4.421q-.468.246-1.943-1.242a7.576,7.576,0,0,0-3.923-2.368,1.371,1.371,0,0,1-.072.431q-.193.2-1.55.173t-1.676-.448q-1.323-1.96-.31-2.49,1.831-1.058,6.037,1.85a21.021,21.021,0,0,0,1.867,1.479q-.775-2.052-1.4-4.183-1.236-3.875.131-4.492a2.919,2.919,0,0,1,2.556.136" transform="translate(-1206.57 -14.295)" fill="#fff"/>
      <path id="Path_249" data-name="Path 249" d="M1293.305,196.049h0q.272-.252,1.305.054c.69.146,1.032.335,1.022.57l-.717.5a1.467,1.467,0,0,0-.743,1.115q-.05,1.23,4.494,1.946t4.439,1.152q-.021.528-2.047,1.061a7.581,7.581,0,0,0-4.013,2.214,1.376,1.376,0,0,1,.337.278q.078.269-.625,1.428t-1.226,1.227q-2.36.167-2.313-.977,0-2.114,4.621-4.3a20.776,20.776,0,0,0,2.214-.877q-2.164-.353-4.321-.882-3.97-.869-3.823-2.361a2.921,2.921,0,0,1,1.4-2.145" transform="translate(-1124.87 -170.602)" fill="#fff"/>
      <path id="Path_250" data-name="Path 250" d="M1379.462,377.091h0q-.082-.362.7-1.1.708-.787,1-.6s.026.29.073.871a1.469,1.469,0,0,0,.6,1.2q1.04.659,3.932-2.919t3.218-3.27q.446.284-.105,2.3a7.578,7.578,0,0,0-.088,4.581,1.374,1.374,0,0,1,.409-.152q.27.067.925,1.255t.449,1.676q-1.036,2.127-2,1.515-1.83-1.058-1.417-6.153a20.959,20.959,0,0,0,.348-2.357q-1.389,1.7-2.925,3.3-2.738,3.007-3.956,2.132a2.915,2.915,0,0,1-1.161-2.281" transform="translate(-1201.1 -323.248)" fill="#fff"/>
      <path id="Path_251" data-name="Path 251" d="M1600.37,383.03h0q-.356-.108-.606-1.156-.328-1.008-.017-1.17l.791.373a1.471,1.471,0,0,0,1.337.085q1.092-.572-.561-4.865t-1.222-4.421q.467-.246,1.943,1.243a7.579,7.579,0,0,0,3.923,2.367,1.37,1.37,0,0,1,.072-.43q.194-.2,1.55-.173t1.676.448q1.323,1.96.31,2.491-1.831,1.057-6.037-1.85a21.084,21.084,0,0,0-1.867-1.478q.775,2.05,1.4,4.183,1.235,3.874-.131,4.491a2.914,2.914,0,0,1-2.556-.136" transform="translate(-1392.778 -323.764)" fill="#fff"/>
      <path id="Path_252" data-name="Path 252" d="M1693.538,207.5h0q-.272.254-1.305-.054c-.69-.145-1.032-.335-1.021-.57l.717-.5a1.47,1.47,0,0,0,.743-1.115q.05-1.231-4.494-1.947t-4.439-1.152q.021-.527,2.047-1.061a7.577,7.577,0,0,0,4.012-2.214,1.351,1.351,0,0,1-.336-.278q-.078-.268.624-1.427t1.226-1.229q2.36-.167,2.313.978,0,2.115-4.621,4.3a20.758,20.758,0,0,0-2.214.878q2.164.352,4.321.881,3.971.87,3.823,2.361a2.918,2.918,0,0,1-1.4,2.145" transform="translate(-1466.039 -170.597)" fill="#fff"/>
      <path id="Path_253" data-name="Path 253" d="M1610.759,29.756h0q.083.362-.7,1.1c-.472.525-.808.725-1,.6,0,0-.026-.291-.074-.871a1.467,1.467,0,0,0-.595-1.2q-1.041-.659-3.933,2.918t-3.218,3.269q-.446-.282.105-2.3a7.585,7.585,0,0,0,.088-4.582,1.375,1.375,0,0,1-.409.153q-.27-.068-.925-1.256t-.449-1.676q1.036-2.125,2-1.515,1.83,1.058,1.417,6.153a21.01,21.01,0,0,0-.348,2.357q1.389-1.7,2.925-3.3,2.738-3.005,3.956-2.132a2.916,2.916,0,0,1,1.161,2.281" transform="translate(-1392.78 -21.123)" fill="#fff"/>
      <path id="Path_254" data-name="Path 254" d="M1465.666,171.788a7.592,7.592,0,0,0-1.47-.636,8.752,8.752,0,0,0-4.045-.3,9.756,9.756,0,0,0-1.751.451l-.175.062a9.707,9.707,0,0,0-.927.412c-.265.134-.527.281-.791.438a18.971,18.971,0,0,0-1.763,1.21,49.511,49.511,0,0,1-.278-8.431c.1-.3.334-.347.435-.669a.737.737,0,0,0-.074-.546c1.119.422,1.791,1.464,1.836,3.373a2.921,2.921,0,0,0-.735-4.122c1.207.313,2.221.92,2.434,3.473.879-2.377-.195-4.395-2.2-4.846,1.775.132,3,1.16,3.488,3.375a3.656,3.656,0,0,0-3.312-4.7,3.334,3.334,0,0,1,3.3.934,3.242,3.242,0,0,0-3.632-2c.193-.384.863-.662,2.04-.828a2.907,2.907,0,0,0-2.909.3,2.274,2.274,0,0,1,1.078-1.318,2.279,2.279,0,0,0-1.957,1.142,2.858,2.858,0,0,0-.384-1.6,1.882,1.882,0,0,0-.293.705,5.158,5.158,0,0,0-.091.9,2.28,2.28,0,0,0-1.957-1.142,2.278,2.278,0,0,1,1.078,1.318,2.907,2.907,0,0,0-2.909-.3c1.177.166,1.847.444,2.04.828a3.241,3.241,0,0,0-3.631,2,3.334,3.334,0,0,1,3.3-.934,3.657,3.657,0,0,0-3.312,4.7c.491-2.215,1.713-3.243,3.488-3.375-2.008.451-3.081,2.469-2.2,4.846.213-2.553,1.227-3.16,2.433-3.473a2.921,2.921,0,0,0-.736,4.122c.046-1.909.717-2.951,1.837-3.373a.73.73,0,0,0-.074.546c.1.324.339.366.437.674a50.1,50.1,0,0,1-.28,8.426,14.313,14.313,0,0,0-3.482-2.06c-.145-.054-.287-.1-.428-.15a9.2,9.2,0,0,0-3.289-.467,8.506,8.506,0,0,0-3.4.859c-.132.066-.243.127-.33.177a.033.033,0,0,0,.028.059c.1-.032.2-.06.3-.088a9.386,9.386,0,0,1,3.4-.333,10.126,10.126,0,0,1,3.289.885,17.413,17.413,0,0,1,3.915,2.548,43.039,43.039,0,0,1-3.915,3.346c-.043.024-.085.048-.125.069a.916.916,0,0,0-1.632.322.884.884,0,0,0,.178.79,1.316,1.316,0,0,0,1.579.23c1.148-.483,2.578-2,4.334-3.608.146-.134.294-.269.445-.4.151.133.3.267.443.4.8.727,1.524,1.437,2.19,2.041.274.248.537.479.791.686a6.916,6.916,0,0,0,1.1.764,1.431,1.431,0,0,0,1.751-.038,1,1,0,0,0,.081-.072,1.025,1.025,0,0,0,.179-.79.922.922,0,0,0-.686-.678.915.915,0,0,0-.946.356,3.4,3.4,0,0,1-.379-.231,12.926,12.926,0,0,1-1.1-.889c-.249-.217-.513-.456-.791-.708-.541-.492-1.135-1.037-1.768-1.587a21.806,21.806,0,0,1,1.768-1.336c.259-.174.521-.342.791-.5q.536-.319,1.1-.59a11.2,11.2,0,0,1,1.751-.67,9.243,9.243,0,0,1,4.045-.251,10.186,10.186,0,0,1,1.442.339.033.033,0,0,0,.029-.059" transform="translate(-1255.614 -136.675)" fill="#fff"/>
    </g>
  </g>
</svg>
