<svg id="Component_423_1" data-name="Component 423 – 1" xmlns="http://www.w3.org/2000/svg" width="1151" height="68.957" viewBox="0 0 1151 68.957">
  <g id="Group_28318" data-name="Group 28318" transform="translate(-650.702 -6.467)">
    <path id="Path_25808" data-name="Path 25808" d="M354.466,119.87a4.5,4.5,0,0,0,1.183-.162c-.067.139-.141.306-.22.5a25.361,25.361,0,0,0-1.971,9.527c0,.083,0,.169,0,.25-5.854-8.01-11.41-15.153-11.41-15.153l9.01-8.518a18.765,18.765,0,0,0-1.779,7.048,7.032,7.032,0,0,0,1.612,4.68,4.538,4.538,0,0,0,3.571,1.832" transform="translate(860.15 -75.188)" fill="#0f2837"/>
    <path id="Subtraction_12" data-name="Subtraction 12" d="M11558.729,2562.57h0c-2.451-.029-4.255-.811-5.36-2.324a6.671,6.671,0,0,1-1.166-3.934,29.445,29.445,0,0,1,1.387-7.331,5.684,5.684,0,0,0,.165-.83,10,10,0,0,0,3.517-2.506l.219-.238.863-.94c.461,6.753.693,10.777.693,11.96a41.11,41.11,0,0,1-.218,4.505,8.946,8.946,0,0,0-.1,1.635Zm-2.5-12.309c-.1,0-.229.2-.389.606a17.763,17.763,0,0,0-.885,2.968,9.653,9.653,0,0,0-.2,1.665,2.982,2.982,0,0,0,.456,1.6.731.731,0,0,0,.67.348c.527,0,.917-.443,1.157-1.317.1-.368.123-.6.057-.686a.1.1,0,0,0-.083-.04c-.034,0-.1.083-.188.241a3.686,3.686,0,0,1-.281.444.554.554,0,0,1-.418.188.7.7,0,0,1-.644-.444,2.918,2.918,0,0,1-.107-1.868c.328-1.418.6-2.454.777-2.994a2.01,2.01,0,0,0,.134-.592C11556.28,2550.311,11556.263,2550.27,11556.228,2550.261Z" transform="translate(-10337.467 -2503.788)" fill="#0f2837" stroke="rgba(0,0,0,0)" stroke-width="1"/>
    <path id="Subtraction_13" data-name="Subtraction 13" d="M11555.218,2562.813a2.681,2.681,0,0,1-2.254-1.051,4.1,4.1,0,0,1-.761-2.6,17.918,17.918,0,0,1,1.361-5.783c.326-.876.6-1.63.8-2.24l7.06-6.674c.188,2.831.422,6.231.717,10.394.068.962.139,1.958.221,3.134-1.577,1.7-1.871,2-1.924,2.054C11558.472,2561.884,11556.715,2562.813,11555.218,2562.813Zm.823-5.218c.246,0,.573.018.974.053a3.793,3.793,0,0,1,1.441.287c-1.094.525-1.99.948-2.666,1.257-.076.038-.107.084-.087.13a.114.114,0,0,0,.115.058.237.237,0,0,0,.044,0,7.246,7.246,0,0,0,2.348-.461,3.182,3.182,0,0,0,1-.87,2,2,0,0,0,.6-1.1c0-.249-.149-.418-.444-.5a8.012,8.012,0,0,0-2.172-.36,3.928,3.928,0,0,0-.773.072,12.646,12.646,0,0,0-1.007,1.312c-.06.09-.068.143-.028.174a.173.173,0,0,0,.071.013.457.457,0,0,0,.1-.013A2.05,2.05,0,0,1,11556.041,2557.595Z" transform="translate(-10341.756 -2521.346)" fill="#0f2837" stroke="rgba(0,0,0,0)" stroke-width="1"/>
    <path id="Subtraction_14" data-name="Subtraction 14" d="M11553.155,2564.059v0c-.02-.276-.04-.556-.06-.84l-.041-.567q-.048-.683-.1-1.4c-.275-3.77-.521-7.163-.752-10.373l.833-.79,1.037-.981c.015-.021,4.608-4.6,4.653-4.645,1.117,1.679,2.422,3.426,4.107,5.5,1.281,1.573,2.626,3.142,3.926,4.66l.055.064.493.576c-.088-.005-.177-.009-.281-.009-3.81,0-8.187,2.653-13.012,7.876-.236.252-.463.5-.634.685l-.224.242Zm4.306-15.006c-.1,0-.227.2-.39.607a18.291,18.291,0,0,0-.885,2.967,9.745,9.745,0,0,0-.2,1.669,2.988,2.988,0,0,0,.458,1.6.734.734,0,0,0,.674.351c.525,0,.914-.443,1.155-1.318.1-.374.121-.6.055-.686a.1.1,0,0,0-.084-.04c-.035,0-.1.083-.188.241a3.616,3.616,0,0,1-.281.444.547.547,0,0,1-.415.189.7.7,0,0,1-.645-.444,2.924,2.924,0,0,1-.11-1.869c.339-1.461.6-2.469.78-3a1.972,1.972,0,0,0,.137-.589C11557.519,2549.1,11557.5,2549.063,11557.461,2549.054Z" transform="translate(-10330.019 -2530.136)" fill="#0f2837" stroke="rgba(0,0,0,0)" stroke-width="1"/>
    <path id="Subtraction_11" data-name="Subtraction 11" d="M11552.205,2574h0a13.035,13.035,0,0,0,.563-1.218,26.591,26.591,0,0,0,1.721-9.927c0-.926-.2-4.285-.581-9.712l.665-.726.583-.635.57-.623.884-.965c3.774-3.8,7.166-5.728,10.081-5.73a3.881,3.881,0,0,1,3.612,2.124c.166.3.284.456.352.456s.158-.158.29-.456a6.358,6.358,0,0,0,.5-1.912c2.434,2.847,4.951,5.732,7.485,8.575a47.031,47.031,0,0,0-6.36,2.211l-.1.035-.17.061-.053.02-.012,0a3.847,3.847,0,0,1-.522.174,16.056,16.056,0,0,0-2.563-3.888,4.45,4.45,0,0,0-3.008-1.746,4.71,4.71,0,0,0-3.507,1.973,7.435,7.435,0,0,0-1.752,4.873,3.09,3.09,0,0,0,1.324,2.723,7.108,7.108,0,0,0,3.976.907,12.356,12.356,0,0,0,3.815-.459,4.4,4.4,0,0,1,.271,1.479c0,.658-1.055,2-3.136,3.978a40.786,40.786,0,0,1-7.262,5.594A16.774,16.774,0,0,1,11552.205,2574Zm5.521-9.418h0a4.111,4.111,0,0,1,1.17,1.978c.2.661.39.988.575,1,.13,0,.283-.763.457-2.267s.473-2.287.883-2.287a.722.722,0,0,1,.563.349,2.672,2.672,0,0,1,.248.351c.128,0,.221-.173.275-.511a.976.976,0,0,0,0-.657,1.494,1.494,0,0,0-1.087-.663h-.014c-.5,0-.868.667-1.094,1.982-.143.824-.254,1.494-.36,2.171a6.532,6.532,0,0,1-.447-1.107c-.763-1.47-1.5-2.215-2.2-2.215h-.04a.362.362,0,0,0-.28.118,1.49,1.49,0,0,0-.164,1.073c.028.17.243.364.639.575a2.208,2.208,0,0,0,.7.3l.022,0a.788.788,0,0,0,.147-.188Zm.288-11.312v0c-.035,0-.581.286-.631.32a2.769,2.769,0,0,0-.581.558,3.219,3.219,0,0,0-.567,2.4,1.832,1.832,0,0,0,.477,1.058,1.091,1.091,0,0,0,.744.314.791.791,0,0,0,.343-.073,1.077,1.077,0,0,0,.442-1.308,2.849,2.849,0,0,0-.453-.768l0-.005c-.037-.05-.075-.1-.11-.151a2.037,2.037,0,0,1-.374-.729,1.4,1.4,0,0,1,.726-1.529s0-.014,0-.032l0-.006v-.017a.144.144,0,0,1,0-.03Z" transform="translate(-10330.486 -2515.227)" fill="#0f2837" stroke="rgba(0,0,0,0)" stroke-width="1"/>
    <path id="Path_25813" data-name="Path 25813" d="M475.336,140.02q1.346,0,2.917,2.043a9.664,9.664,0,0,1-2.154.267q-2.738,0-2.737-1.287,0-1.019,1.973-1.023" transform="translate(759.292 -101.081)" fill="#0f2837"/>
    <path id="Path_25814" data-name="Path 25814" d="M447.243,155.845c-.348.364-.682.721-1,1.076a91.2,91.2,0,0,0-12.714,12.335c-4.436,5.3-8.759,11.788-9.16,18.905-.007.125-.132.139-.172.021-.668-2.189-3.643-6.9-7.312-12.21a8.58,8.58,0,0,0,1.535.132q4.394,0,10.264-4.432a47.862,47.862,0,0,0,7.308-6.888,11.647,11.647,0,0,0,2.238-4.209,10.655,10.655,0,0,0,.631-3.221l.849-.366a19.271,19.271,0,0,1,5.988-1.658,2.026,2.026,0,0,1,1.547.515" transform="translate(802.674 -112.84)" fill="#0f2837"/>
    <path id="Path_25817" data-name="Path 25817" d="M417.911,10.751q0,1.071-2.062-1.282c-.162-.223-.244-.125-.244.29q0,.122.318,4.522l-2.512,2.372q-.473-7.149-.473-8.418a8.8,8.8,0,0,0-.726-3.827A15.153,15.153,0,0,1,413.57.39c.116-.257.211-.387.29-.39.1,0,.211.139.341.413q.386.824,1.8,4.552,1.478,3.879,1.723,4.77a4.1,4.1,0,0,1,.192,1.016" transform="translate(806.261 6.467)" fill="#52a39d"/>
  </g>
  <line id="Line_148" data-name="Line 148" x2="534" transform="translate(0 34.479)" fill="none" stroke="#707070" stroke-width="1"/>
  <line id="Line_149" data-name="Line 149" x2="534" transform="translate(617 34.479)" fill="none" stroke="#707070" stroke-width="1"/>
</svg>
