<svg xmlns="http://www.w3.org/2000/svg" width="22.385" height="20.347" viewBox="0 0 22.385 20.347">
  <path id="Path_23980" data-name="Path 23980" d="M51.053,127.215v-.51a12.794,12.794,0,0,0-.063-1.816,5.1,5.1,0,0,0-4.236-4.237,12.815,12.815,0,0,0-1.817-.063H38.822c-2.854,0-4.281,0-5.371.556a5.1,5.1,0,0,0-2.227,2.227c-.555,1.09-.555,2.517-.555,5.372v2.038c0,2.854,0,4.281.555,5.372a5.089,5.089,0,0,0,2.227,2.227c1.09.556,2.517.556,5.371.556h6.116a12.664,12.664,0,0,0,1.817-.063,5.094,5.094,0,0,0,4.236-4.236,12.788,12.788,0,0,0,.063-1.816v-.51m-4.077-6.625-1.019.679-.573.382a11.52,11.52,0,0,1-3.335,1.847,5.112,5.112,0,0,1-2.375,0,11.52,11.52,0,0,1-3.335-1.847l-.573-.382-1.019-.679" transform="translate(-29.668 -119.59)" fill="none" stroke="#d1d1d1" stroke-linecap="round" stroke-width="2"/>
</svg>
