<svg id="Layer_2" xmlns="http://www.w3.org/2000/svg" xmlns:xlink="http://www.w3.org/1999/xlink" width="144.851" height="82.312" viewBox="0 0 144.851 82.312">
  <defs>
    <linearGradient id="linear-gradient" x1="0.5" y1="-0.492" x2="0.5" y2="1.575" gradientUnits="objectBoundingBox">
      <stop offset="0" stop-color="#2cb1b1"/>
      <stop offset="0.271" stop-color="#1791b3"/>
      <stop offset="0.476" stop-color="#0b7db4"/>
      <stop offset="1" stop-color="#704997"/>
    </linearGradient>
    <linearGradient id="linear-gradient-2" x1="0.5" y1="0.018" x2="0.5" y2="1.378" xlink:href="#linear-gradient"/>
    <linearGradient id="linear-gradient-3" x1="0.5" y1="-4.291" x2="0.5" y2="4.762" xlink:href="#linear-gradient"/>
    <linearGradient id="linear-gradient-4" x1="0.5" y1="-1.23" x2="0.5" y2="0.765" xlink:href="#linear-gradient"/>
    <linearGradient id="linear-gradient-5" x1="0.5" y1="0.765" x2="0.5" y2="9.817" xlink:href="#linear-gradient"/>
    <linearGradient id="linear-gradient-6" x1="0.5" y1="0.245" x2="0.5" y2="1.716" xlink:href="#linear-gradient"/>
    <linearGradient id="linear-gradient-7" x1="0.5" y1="0.388" x2="0.5" y2="2.723" xlink:href="#linear-gradient"/>
  </defs>
  <g id="Group_28304" data-name="Group 28304">
    <g id="Group_28302" data-name="Group 28302" transform="translate(56.941)">
      <path id="Path_35293" data-name="Path 35293" d="M504.754,376.6a.9.9,0,0,0-.384.737v7.411a.9.9,0,1,0,1.8,0V377.8l7.872-5.513A1.934,1.934,0,1,0,513,370.575a1.831,1.831,0,0,0,.016.238Z" transform="translate(-487.99 -354.436)" fill="url(#linear-gradient)"/>
      <path id="Path_35294" data-name="Path 35294" d="M475,340.425V347.8a1.935,1.935,0,1,0,1.8,0v-6.91l11.635-8.147a.9.9,0,0,0,.384-.737v-5.5a.9.9,0,0,0-1.8,0v5.031l-11.635,8.147A.9.9,0,0,0,475,340.425Z" transform="translate(-463.819 -320.235)" fill="url(#linear-gradient-2)"/>
      <path id="Path_35295" data-name="Path 35295" d="M534.015,409.231l-2.973,2.08a.9.9,0,0,0,1.032,1.475l2.973-2.08a.9.9,0,0,0-1.032-1.475Z" transform="translate(-508.884 -386.57)" fill="url(#linear-gradient-3)"/>
      <path id="Path_35296" data-name="Path 35296" d="M455.333,433.836a.917.917,0,0,0-1.276-.226l-14.042,9.834-14.042-9.832a.916.916,0,0,0-1.05,1.5l13.5,9.45-3.954,2.77a1.967,1.967,0,1,0,1.067,1.748,1.934,1.934,0,0,0-.016-.246l4.5-3.153,4.5,3.151a2,2,0,0,0-.016.246,1.971,1.971,0,1,0,1.067-1.748l-3.954-2.77,13.5-9.45A.917.917,0,0,0,455.333,433.836Z" transform="translate(-424.531 -405.945)" fill="url(#linear-gradient-4)"/>
      <path id="Path_35297" data-name="Path 35297" d="M447.494,317.158l2.973-2.08a.9.9,0,0,0-1.032-1.475l-2.973,2.08a.9.9,0,0,0,1.032,1.475Z" transform="translate(-441.657 -310.562)" fill="url(#linear-gradient-5)"/>
      <path id="Path_35298" data-name="Path 35298" d="M465.659,303.058v4.951l-11.635,8.147a.9.9,0,0,0-.384.737v5.5a.9.9,0,0,0,1.8,0V317.36l11.635-8.147a.9.9,0,0,0,.384-.737v-5.419a1.935,1.935,0,1,0-1.8,0Z" transform="translate(-447.668 -299.41)" fill="url(#linear-gradient-6)"/>
      <path id="Path_35299" data-name="Path 35299" d="M436.643,314.495a1.934,1.934,0,0,0,1.935-1.935,1.843,1.843,0,0,0-.016-.238l8.262-5.786a.9.9,0,0,0,.384-.737v-5.451a.9.9,0,0,0-1.8,0v4.982l-7.872,5.513a1.935,1.935,0,1,0-.895,3.652Z" transform="translate(-432.622 -299.442)" fill="url(#linear-gradient-7)"/>
    </g>
    <g id="Group_28303" data-name="Group 28303" transform="translate(0 54.573)">
      <path id="Path_35300" data-name="Path 35300" d="M156.048,571.427l1.083.909.948-1.071-1.139-.975-.839.975-1.083-.936-.948,1.1,1.137.95Z" transform="translate(-152.619 -569.287)" fill="#2e2566"/>
      <path id="Path_35301" data-name="Path 35301" d="M195.8,624.719l1.083.907.95-1.071-1.139-.974-.841.974-1.083-.933-.948,1.1,1.139.948Z" transform="translate(-184.214 -611.643)" fill="#2e2566"/>
      <path id="Path_35302" data-name="Path 35302" d="M170.373,586.524a4.386,4.386,0,0,0,2.2-.529,2.607,2.607,0,0,0,1.748.515h.392v0l.008,0h3.576q4.118,0,5.784-.907a8.372,8.372,0,0,0,.365-2.792,5.979,5.979,0,0,0-.8-3.34,2.36,2.36,0,0,0-3.941-.258,3.483,3.483,0,0,0-.771,2.284q0,2.21,2.452,2.21a5.381,5.381,0,0,0,1.627-.23,6.284,6.284,0,0,1-.041.677,19.592,19.592,0,0,1-4.756.406h-3.5l-.008,0v0h-.3a1.3,1.3,0,0,1-.915-.244,2.16,2.16,0,0,1-.427-1.03q-.637-2.644-2.505-2.641a2.4,2.4,0,0,0-1.633.525,5.226,5.226,0,0,0-1.13,1.549c-.012.025-.027.051-.039.078l-.037.072-.029.055c-.16.314-.277.54-.349.679a3.509,3.509,0,0,1-.312.482,1.029,1.029,0,0,1-.921.474h-3.549a5.906,5.906,0,0,1-1.762-.23,6.158,6.158,0,0,0,.082-1.057V581.43l-1.625.123v1.9a.992.992,0,0,1-.359.827,2.537,2.537,0,0,1-1.457.285h-3.6a1.756,1.756,0,0,1-1.05-.23,1.076,1.076,0,0,1-.291-.88v-3.97a7.677,7.677,0,0,0-2.71.462,4.659,4.659,0,0,0-2,1.389,3.239,3.239,0,0,0-.771,2.134,1.727,1.727,0,0,0,.806,1.559,4.064,4.064,0,0,0,2.2.515,10.74,10.74,0,0,0,1.247-.082,2.019,2.019,0,0,0,2.033,1.057h4.321a3.627,3.627,0,0,0,2.331-.624,3.884,3.884,0,0,0,2.331.624h3.711a2.313,2.313,0,0,0,1.65-.638A5.281,5.281,0,0,0,170.373,586.524Zm11.645-4.3q-1.653,0-1.654-1.016a1.509,1.509,0,0,1,.291-.907.993.993,0,0,1,.86-.406,1.062,1.062,0,0,1,.927.589,4.213,4.213,0,0,1,.494,1.645A4.238,4.238,0,0,1,182.018,582.228Zm-13.268,1.929a6.011,6.011,0,0,1,.888-1.412,1.141,1.141,0,0,1,.833-.341.853.853,0,0,1,.792.474,7.183,7.183,0,0,1,.548,1.654,3.543,3.543,0,0,1-1.247.2,5.315,5.315,0,0,1-1.941-.336Zm-17.786-.519v.162a5.326,5.326,0,0,1-.624.027,3.407,3.407,0,0,1-1.409-.23c-.324-.154-.488-.347-.488-.583a1.379,1.379,0,0,1,.7-1.016,3.906,3.906,0,0,1,1.822-.665v2.3Z" transform="translate(-147.008 -575.63)" fill="#2e2566"/>
      <path id="Path_35303" data-name="Path 35303" d="M307.668,566.539l1.083.907.948-1.071-1.137-.975-.841.975-1.083-.934-.948,1.1,1.139.948Z" transform="translate(-273.132 -565.4)" fill="#2e2566"/>
      <path id="Path_35304" data-name="Path 35304" d="M333.364,580.381h.082a7.176,7.176,0,0,0,1.613-.191,5.267,5.267,0,0,0,1.3-.447,6.434,6.434,0,0,0,.277-1.537q.062-.862.062-2.4,0-1.677-.014-5.242l-1.734.15q.04,3.441.039,5.38,0,1.342-.053,2.193a6.607,6.607,0,0,1-1.463.15h-.447a1.566,1.566,0,0,1-1.559-.8c-.053-.1-.107-.207-.156-.324s-.09-.224-.121-.318-.07-.224-.115-.386-.078-.285-.1-.371-.062-.238-.115-.453-.09-.369-.109-.46l-1.613.486a12.227,12.227,0,0,1,.556,2.954,3.17,3.17,0,0,1-.6,1.951,2.2,2.2,0,0,1-1.883.8,4.586,4.586,0,0,1-.7-.053l-.15,1.613a6.055,6.055,0,0,0,1.26.135,3.178,3.178,0,0,0,2.39-.915,4.338,4.338,0,0,0,1.118-2.446,2.584,2.584,0,0,0,1.748.542h.488Z" transform="translate(-289.561 -569.501)" fill="#2e2566"/>
      <path id="Path_35305" data-name="Path 35305" d="M386.781,570.55l-1.721.15v9.674h1.721Z" transform="translate(-336.218 -569.493)" fill="#2e2566"/>
      <path id="Path_35306" data-name="Path 35306" d="M425.54,571.427l1.083.909.948-1.071-1.139-.975-.839.975-1.083-.936-.95,1.1,1.139.95Z" transform="translate(-366.819 -569.287)" fill="#2e2566"/>
      <path id="Path_35307" data-name="Path 35307" d="M434.011,588.477a3.5,3.5,0,0,0-.718-2.236,2.27,2.27,0,0,0-1.869-.907,2.413,2.413,0,0,0-1.645.527,5.247,5.247,0,0,0-1.13,1.545c-.01.027-.021.053-.035.082s-.025.049-.033.068-.023.045-.041.082a6.414,6.414,0,0,1-.739,1.233,1.039,1.039,0,0,1-.833.38h-3.629a1.757,1.757,0,0,1-1.05-.23,1.076,1.076,0,0,1-.291-.88v-3.97a7.675,7.675,0,0,0-2.71.462,4.659,4.659,0,0,0-2,1.389,3.239,3.239,0,0,0-.771,2.134,1.727,1.727,0,0,0,.806,1.559,4.064,4.064,0,0,0,2.2.515,10.741,10.741,0,0,0,1.247-.082A2.019,2.019,0,0,0,422.8,591.2h4.05a2.255,2.255,0,0,0,1.666-.665,5.54,5.54,0,0,0,2.8.677,6.967,6.967,0,0,0,2.234-.3A6.174,6.174,0,0,0,434.011,588.477Zm-13.547-.15v.162a5.3,5.3,0,0,1-.624.027,3.405,3.405,0,0,1-1.409-.23c-.324-.154-.488-.347-.488-.583a1.379,1.379,0,0,1,.7-1.016,3.9,3.9,0,0,1,1.822-.665v2.3Zm11.99,1.057c-.271.027-.546.041-.827.041a5.889,5.889,0,0,1-2.113-.339,2.4,2.4,0,0,1,.109-.23,5.867,5.867,0,0,1,.895-1.416,1.175,1.175,0,0,1,.854-.347.947.947,0,0,1,.839.453,2.066,2.066,0,0,1,.3,1.157A4.819,4.819,0,0,1,432.454,589.383Z" transform="translate(-361.215 -580.319)" fill="#2e2566"/>
      <path id="Path_35308" data-name="Path 35308" d="M535.005,578.662a6.438,6.438,0,0,0,.277-1.537q.062-.862.062-2.4,0-1.677-.014-5.242l-1.734.15q.04,3.441.039,5.38,0,1.342-.053,2.193a6.607,6.607,0,0,1-1.463.15h-.312a2.917,2.917,0,0,1-1.28-.236,6.847,6.847,0,0,1-1.375-1.063q-1.166-1.071-1.45-1.315a4.711,4.711,0,0,0-2.682-1.436,1.922,1.922,0,0,0-1.3.468,3.662,3.662,0,0,0-.933,1.51l1.206.462a1.686,1.686,0,0,1,.433-.548.882.882,0,0,1,.515-.144q.732,0,2.778,1.951a28.363,28.363,0,0,1-5.041.353h-.691a1.01,1.01,0,0,1-.345-.053c-.1-.037-.191-.07-.258-.1a.8.8,0,0,1-.238-.211c-.09-.109-.154-.187-.191-.236s-.107-.156-.209-.318-.174-.275-.209-.339q-.354-.542-.548-.806t-.63-.771a6.588,6.588,0,0,0-.962-.921,8.014,8.014,0,0,0-1.192-.765,14.189,14.189,0,0,1,4.35-1.8V569.2a16.6,16.6,0,0,0-5.907,2.614v2.21a6.837,6.837,0,0,1,2.031,1.266,7.845,7.845,0,0,1,1.3,1.633,11.111,11.111,0,0,1-3.523.433h-1.042a5.162,5.162,0,0,0-.874-3.049,2.548,2.548,0,0,0-2.121-1.112,2.4,2.4,0,0,0-1.957.977,3.7,3.7,0,0,0-.78,2.384,2.788,2.788,0,0,0,.589,1.877,2.6,2.6,0,0,0,2.054.683,12.511,12.511,0,0,0,1.41-.068,2.039,2.039,0,0,1-.907.975,3.593,3.593,0,0,1-1.9.433,5.931,5.931,0,0,1-1.083-.094l-.162,1.613a5.964,5.964,0,0,0,1.49.2A3.714,3.714,0,0,0,514.2,579.3h1.311a10.5,10.5,0,0,0,4.471-.8,2.479,2.479,0,0,0,1.963.8h.408a26.079,26.079,0,0,0,6.869-.88,3.567,3.567,0,0,0,2.505.88h.367a7.169,7.169,0,0,0,1.613-.191A5.309,5.309,0,0,0,535.005,578.662Zm-23.1-1.313a2.457,2.457,0,0,1-1.348-.277.919.919,0,0,1-.4-.806,1.517,1.517,0,0,1,.3-.921,1.006,1.006,0,0,1,.866-.406,1.238,1.238,0,0,1,1.1.759,3.763,3.763,0,0,1,.453,1.652Z" transform="translate(-434.475 -568.42)" fill="#2e2566"/>
      <path id="Path_35309" data-name="Path 35309" d="M648.681,570.55l-1.721.15v9.674h1.721Z" transform="translate(-544.384 -569.493)" fill="#2e2566"/>
      <path id="Path_35310" data-name="Path 35310" d="M687.438,571.427l1.083.909.95-1.071-1.139-.975-.841.975-1.083-.936-.948,1.1,1.139.95Z" transform="translate(-574.985 -569.287)" fill="#2e2566"/>
      <path id="Path_35311" data-name="Path 35311" d="M730.757,578.115a15.637,15.637,0,0,1,2.993-.839l-.162-.853a7.192,7.192,0,0,1-1.153.176.73.73,0,0,1-.554-.2.649.649,0,0,1-.191-.468.44.44,0,0,1,.191-.38.816.816,0,0,1,.486-.135,2.526,2.526,0,0,1,.732.121l.285-.759a2.46,2.46,0,0,0-1.11-.271,1.465,1.465,0,0,0-1.009.365,1.4,1.4,0,0,0,.115,2.086c-.207.072-.5.189-.88.353Z" transform="translate(-610.784 -572.641)" fill="#2e2566"/>
      <path id="Path_35312" data-name="Path 35312" d="M770.411,625.625l.948-1.071-1.137-.974-.841.974-1.083-.933-.948,1.1,1.139.948.839-.948Z" transform="translate(-640.074 -611.643)" fill="#2e2566"/>
      <path id="Path_35313" data-name="Path 35313" d="M714.223,589.283a4.164,4.164,0,0,0-1.566-3.19,7.987,7.987,0,0,0-3.867-1.836,5.383,5.383,0,0,0-1.8,3.673,2.518,2.518,0,0,0,.339,1.26,11.671,11.671,0,0,1-1.233.068h-3.5a5.906,5.906,0,0,1-1.762-.23,6.154,6.154,0,0,0,.082-1.057v-1.842l-1.625.123v1.9a.992.992,0,0,1-.359.827,2.536,2.536,0,0,1-1.457.285h-3.525a5.905,5.905,0,0,1-1.762-.23,6.152,6.152,0,0,0,.082-1.057v-1.842l-1.625.123v1.9a.992.992,0,0,1-.359.827,2.536,2.536,0,0,1-1.457.285h-3.6a1.757,1.757,0,0,1-1.05-.23,1.076,1.076,0,0,1-.291-.88v-3.97a7.676,7.676,0,0,0-2.71.462,4.659,4.659,0,0,0-2,1.389,3.239,3.239,0,0,0-.771,2.134,1.727,1.727,0,0,0,.806,1.559,4.065,4.065,0,0,0,2.2.515,10.739,10.739,0,0,0,1.247-.082,2.019,2.019,0,0,0,2.033,1.057h4.321a3.627,3.627,0,0,0,2.331-.624,3.884,3.884,0,0,0,2.331.624h3.982a3.628,3.628,0,0,0,2.331-.624,3.884,3.884,0,0,0,2.331.624h3.941a6.622,6.622,0,0,0,2.737-.515,7.413,7.413,0,0,0,3.6.948Q714.221,591.637,714.223,589.283Zm-31.869-.948v.162a5.327,5.327,0,0,1-.624.027,3.408,3.408,0,0,1-1.409-.23c-.324-.154-.488-.347-.488-.583a1.379,1.379,0,0,1,.7-1.016,3.906,3.906,0,0,1,1.822-.665v2.3Zm27.681-.191a2.852,2.852,0,0,1-.88.677,1.468,1.468,0,0,1-.812-1.233,2.313,2.313,0,0,1,.609-1.448c.921.234,1.383.683,1.383,1.342A1.109,1.109,0,0,1,710.035,588.144Zm.542,1.383a3.145,3.145,0,0,0,.989-2.21V587.3a3.074,3.074,0,0,1,1.221,2.3c0,.236-.127.353-.38.353A5.829,5.829,0,0,1,710.577,589.527Z" transform="translate(-569.373 -580.327)" fill="#2e2566"/>
      <path id="Path_35314" data-name="Path 35314" d="M149.567,653.01H147v7.675h2.567a3.756,3.756,0,0,0,2.774-1.036,3.812,3.812,0,0,0,1.042-2.825,3.552,3.552,0,0,0-3.816-3.814Zm-.045,6.338h-.954v-5h.954q2.237,0,2.236,2.478Q151.761,659.35,149.522,659.348Z" transform="translate(-147 -635.035)" fill="#2e2566"/>
      <path id="Path_35315" data-name="Path 35315" d="M183.746,651.25a.879.879,0,0,0-.646.23.934.934,0,0,0,0,1.227,1.01,1.01,0,0,0,1.282,0,.934.934,0,0,0,0-1.227A.858.858,0,0,0,183.746,651.25Z" transform="translate(-175.511 -633.636)" fill="#2e2566"/>
      <rect id="Rectangle_21050" data-name="Rectangle 21050" width="1.514" height="5.603" transform="translate(7.478 20.047)" fill="#2e2566"/>
      <path id="Path_35316" data-name="Path 35316" d="M197.04,663.265a2.763,2.763,0,0,0-.81,2.095,2.57,2.57,0,0,0,.7,1.925,2.622,2.622,0,0,0,1.924.685,2.864,2.864,0,0,0,1.03-.2v.252a.886.886,0,0,1-.357.757,1.658,1.658,0,0,1-1,.263,4.019,4.019,0,0,1-1.514-.273l-.318,1.2a5.071,5.071,0,0,0,1.918.341,3.011,3.011,0,0,0,2.035-.642,2.252,2.252,0,0,0,.741-1.793v-4.944a5.361,5.361,0,0,0-2.193-.439A2.957,2.957,0,0,0,197.04,663.265Zm2.842,3.256a1.825,1.825,0,0,1-.79.187,1.217,1.217,0,0,1-.97-.4,1.6,1.6,0,0,1-.345-1.085,1.534,1.534,0,0,1,.373-1.085,1.34,1.34,0,0,1,1.04-.406,2.347,2.347,0,0,1,.691.121Z" transform="translate(-186.13 -642.57)" fill="#2e2566"/>
      <rect id="Rectangle_21051" data-name="Rectangle 21051" width="1.514" height="5.603" transform="translate(16.668 20.047)" fill="#2e2566"/>
      <path id="Path_35317" data-name="Path 35317" d="M228.536,651.25a.876.876,0,0,0-.646.23.934.934,0,0,0,0,1.227,1.01,1.01,0,0,0,1.282,0,.934.934,0,0,0,0-1.227A.858.858,0,0,0,228.536,651.25Z" transform="translate(-211.111 -633.636)" fill="#2e2566"/>
      <path id="Path_35318" data-name="Path 35318" d="M242.754,662.588c-.5,0-.755-.312-.755-.931v-2.347h1.217V658.1H242V656.81l-1.514.076V658.1h-.745v1.206h.745v2.37q0,2.16,1.974,2.16a3.986,3.986,0,0,0,.954-.1l-.076-1.217A2.627,2.627,0,0,1,242.754,662.588Z" transform="translate(-220.713 -638.056)" fill="#2e2566"/>
      <path id="Path_35319" data-name="Path 35319" d="M262.378,662.47a4.927,4.927,0,0,0-1.9.328l.273,1.184a3.745,3.745,0,0,1,1.448-.263q1.117,0,1.118.987v.263a6.147,6.147,0,0,0-.977-.088,2.616,2.616,0,0,0-1.6.472,1.5,1.5,0,0,0-.6,1.26,1.526,1.526,0,0,0,.587,1.245,2.589,2.589,0,0,0,1.672.478,5.222,5.222,0,0,0,2.39-.482V664.8a2.328,2.328,0,0,0-.609-1.732A2.45,2.45,0,0,0,262.378,662.47Zm.944,4.629a1.623,1.623,0,0,1-.767.154q-.911,0-.911-.7t.9-.714a3.6,3.6,0,0,1,.778.088V667.1Z" transform="translate(-236.927 -642.554)" fill="#2e2566"/>
      <path id="Path_35320" data-name="Path 35320" d="M291.225,658.5q-.594,0-.593-.911V651.67l-1.512.088v5.855q0,2.139,1.764,2.138a3.675,3.675,0,0,0,.767-.088l-.109-1.2A1.267,1.267,0,0,1,291.225,658.5Z" transform="translate(-259.961 -633.97)" fill="#2e2566"/>
      <path id="Path_35321" data-name="Path 35321" d="M320.177,657.11h1.262v1.7a4.068,4.068,0,0,1-.931.109,2.07,2.07,0,0,1-1.656-.658,2.728,2.728,0,0,1-.57-1.843,3.054,3.054,0,0,1,.57-1.968,2.024,2.024,0,0,1,1.678-.708,4.491,4.491,0,0,1,1.711.328l.351-1.315a5.25,5.25,0,0,0-2.082-.394,3.648,3.648,0,0,0-2.819,1.118,4.162,4.162,0,0,0-1.03,2.938,3.933,3.933,0,0,0,1,2.823,3.647,3.647,0,0,0,2.78,1.059,5.236,5.236,0,0,0,2.423-.6v-3.882h-2.688v1.3Z" transform="translate(-281.851 -634.519)" fill="#2e2566"/>
      <path id="Path_35322" data-name="Path 35322" d="M354.341,662.47a2.589,2.589,0,0,0-2,.8,3.435,3.435,0,0,0,0,4.261,2.885,2.885,0,0,0,3.995.006,3.464,3.464,0,0,0,0-4.266A2.564,2.564,0,0,0,354.341,662.47Zm.878,4.167a1,1,0,0,1-.876.449,1.015,1.015,0,0,1-.884-.449,2.155,2.155,0,0,1-.312-1.239,2.125,2.125,0,0,1,.312-1.227,1.017,1.017,0,0,1,.884-.451,1,1,0,0,1,.876.445,2.14,2.14,0,0,1,.308,1.233A2.171,2.171,0,0,1,355.219,666.637Z" transform="translate(-309.623 -642.554)" fill="#2e2566"/>
      <path id="Path_35323" data-name="Path 35323" d="M384.852,665.474a10.719,10.719,0,0,1-.806,2.023,11.2,11.2,0,0,1-1.151-4.387H381.37a11.719,11.719,0,0,0,.531,2.862,14.34,14.34,0,0,0,1.311,2.741h1.678a14.811,14.811,0,0,0,1.26-2.725,13.5,13.5,0,0,0,.57-2.879h-1.514A10.628,10.628,0,0,1,384.852,665.474Z" transform="translate(-333.285 -643.063)" fill="#2e2566"/>
      <path id="Path_35324" data-name="Path 35324" d="M412.849,662.47a2.559,2.559,0,0,0-1.961.81,2.982,2.982,0,0,0-.757,2.117,2.857,2.857,0,0,0,.817,2.144,2.956,2.956,0,0,0,2.154.794,4.627,4.627,0,0,0,1.92-.373l-.242-1.217a3.877,3.877,0,0,1-1.524.318,1.386,1.386,0,0,1-1.535-1.272h3.465c.029-.291.043-.57.043-.833a2.507,2.507,0,0,0-.652-1.8A2.263,2.263,0,0,0,412.849,662.47Zm.931,2.4H411.7a1.547,1.547,0,0,1,.378-.878,1.022,1.022,0,0,1,.773-.318.842.842,0,0,1,.685.3,1.164,1.164,0,0,1,.246.767v.133Z" transform="translate(-356.144 -642.554)" fill="#2e2566"/>
      <path id="Path_35325" data-name="Path 35325" d="M440.38,662.952V668.2h1.514v-4.3a2.125,2.125,0,0,1,.911-.187,1.97,1.97,0,0,1,.646.088l.22-1.239a4.161,4.161,0,0,0-.987-.1A5.119,5.119,0,0,0,440.38,662.952Z" transform="translate(-380.188 -642.554)" fill="#2e2566"/>
      <path id="Path_35326" data-name="Path 35326" d="M464.711,663.061a2.723,2.723,0,0,0-1.863-.581,6.23,6.23,0,0,0-2.478.482v5.252h1.5v-4.288a2.284,2.284,0,0,1,.964-.2q1.019,0,1.02,1.108v3.377h1.514v-3.488A2.1,2.1,0,0,0,464.711,663.061Z" transform="translate(-396.076 -642.562)" fill="#2e2566"/>
      <path id="Path_35327" data-name="Path 35327" d="M497.06,662.47a3.973,3.973,0,0,0-1.787.449,2.46,2.46,0,0,0-1.545-.449,6.112,6.112,0,0,0-2.468.482V668.2h1.5v-4.288a2.1,2.1,0,0,1,.888-.2.943.943,0,0,1,.751.275,1.26,1.26,0,0,1,.236.833V668.2h1.469v-3.19a3.648,3.648,0,0,0-.131-1.03,2.047,2.047,0,0,1,1.02-.263q.988,0,.987,1.108V668.2h1.5v-3.488a2.16,2.16,0,0,0-.632-1.662A2.541,2.541,0,0,0,497.06,662.47Z" transform="translate(-420.629 -642.554)" fill="#2e2566"/>
      <path id="Path_35328" data-name="Path 35328" d="M539.141,662.47a2.567,2.567,0,0,0-1.963.81,2.981,2.981,0,0,0-.757,2.117,2.857,2.857,0,0,0,.817,2.144,2.956,2.956,0,0,0,2.154.794,4.627,4.627,0,0,0,1.92-.373l-.242-1.217a3.877,3.877,0,0,1-1.524.318,1.386,1.386,0,0,1-1.535-1.272h3.465c.029-.291.043-.57.043-.833a2.507,2.507,0,0,0-.652-1.8A2.255,2.255,0,0,0,539.141,662.47Zm.934,2.4H537.99a1.548,1.548,0,0,1,.378-.878,1.023,1.023,0,0,1,.773-.318.842.842,0,0,1,.685.3,1.164,1.164,0,0,1,.246.767v.133Z" transform="translate(-456.523 -642.554)" fill="#2e2566"/>
      <path id="Path_35329" data-name="Path 35329" d="M570.971,663.061a2.724,2.724,0,0,0-1.863-.581,6.231,6.231,0,0,0-2.478.482v5.252h1.5v-4.288a2.284,2.284,0,0,1,.964-.2q1.019,0,1.02,1.108v3.377h1.514v-3.488A2.1,2.1,0,0,0,570.971,663.061Z" transform="translate(-480.535 -642.562)" fill="#2e2566"/>
      <path id="Path_35330" data-name="Path 35330" d="M597.746,662.588c-.5,0-.757-.312-.757-.931v-2.347h1.217V658.1h-1.217V656.81l-1.514.076V658.1h-.745v1.206h.745v2.37q0,2.16,1.974,2.16a3.986,3.986,0,0,0,.954-.1l-.076-1.217A2.6,2.6,0,0,1,597.746,662.588Z" transform="translate(-502.87 -638.056)" fill="#2e2566"/>
      <path id="Path_35331" data-name="Path 35331" d="M629.1,653.01a48.582,48.582,0,0,0-2.665,7.675h1.613c.154-.613.308-1.178.462-1.688h2.829l.462,1.688h1.613a47.659,47.659,0,0,0-2.675-7.675Zm-.207,4.649a25.854,25.854,0,0,1,1.03-2.983,26.007,26.007,0,0,1,1.02,2.983Z" transform="translate(-528.066 -635.035)" fill="#2e2566"/>
      <path id="Path_35332" data-name="Path 35332" d="M667.733,667.4a2.2,2.2,0,0,1-.954.2q-1,0-1-1.1V663.11h-1.5V666.5a2.441,2.441,0,0,0,.57,1.738,2.509,2.509,0,0,0,1.9.609,6.51,6.51,0,0,0,2.5-.482v-5.252h-1.514V667.4Z" transform="translate(-558.15 -643.063)" fill="#2e2566"/>
      <path id="Path_35333" data-name="Path 35333" d="M695.506,662.588c-.5,0-.755-.312-.755-.931v-2.347h1.217V658.1h-1.217V656.81l-1.514.076V658.1h-.747v1.206h.747v2.37q0,2.16,1.974,2.16a3.986,3.986,0,0,0,.954-.1l-.076-1.217A2.627,2.627,0,0,1,695.506,662.588Z" transform="translate(-580.573 -638.056)" fill="#2e2566"/>
      <path id="Path_35334" data-name="Path 35334" d="M717.373,653.894a2.616,2.616,0,0,0-1.129.22V651.68l-1.514.076v7.874h1.514v-4.266a2.042,2.042,0,0,1,.888-.209.969.969,0,0,1,1.085,1.108v3.367h1.512v-3.488a2.148,2.148,0,0,0-.636-1.662A2.446,2.446,0,0,0,717.373,653.894Z" transform="translate(-598.25 -633.978)" fill="#2e2566"/>
      <path id="Path_35335" data-name="Path 35335" d="M746.921,662.47a2.589,2.589,0,0,0-2,.8,3.435,3.435,0,0,0,0,4.261,2.885,2.885,0,0,0,3.995.006,3.463,3.463,0,0,0,0-4.266A2.564,2.564,0,0,0,746.921,662.47Zm.878,4.167a1,1,0,0,1-.876.449,1.014,1.014,0,0,1-.884-.449,2.154,2.154,0,0,1-.312-1.239,2.124,2.124,0,0,1,.312-1.227,1.016,1.016,0,0,1,.884-.451,1,1,0,0,1,.876.445,2.14,2.14,0,0,1,.308,1.233A2.187,2.187,0,0,1,747.8,666.637Z" transform="translate(-621.657 -642.554)" fill="#2e2566"/>
      <path id="Path_35336" data-name="Path 35336" d="M776.25,662.952V668.2h1.514v-4.3a2.125,2.125,0,0,1,.911-.187,1.971,1.971,0,0,1,.646.088l.22-1.239a4.162,4.162,0,0,0-.987-.1A5.119,5.119,0,0,0,776.25,662.952Z" transform="translate(-647.148 -642.554)" fill="#2e2566"/>
      <path id="Path_35337" data-name="Path 35337" d="M796.586,651.25a.879.879,0,0,0-.646.23.934.934,0,0,0,0,1.227,1.01,1.01,0,0,0,1.282,0,.934.934,0,0,0,0-1.227A.858.858,0,0,0,796.586,651.25Z" transform="translate(-662.615 -633.636)" fill="#2e2566"/>
      <rect id="Rectangle_21052" data-name="Rectangle 21052" width="1.514" height="5.603" transform="translate(133.214 20.047)" fill="#2e2566"/>
      <path id="Path_35338" data-name="Path 35338" d="M810.8,662.588c-.5,0-.755-.312-.755-.931v-2.347h1.217V658.1h-1.217V656.81l-1.514.076V658.1h-.745v1.206h.745v2.37q0,2.16,1.974,2.16a3.987,3.987,0,0,0,.954-.1l-.076-1.217A2.654,2.654,0,0,1,810.8,662.588Z" transform="translate(-672.217 -638.056)" fill="#2e2566"/>
      <path id="Path_35339" data-name="Path 35339" d="M831.365,663.11a13,13,0,0,1-.279,2.275,9.326,9.326,0,0,1-.652,1.849,8.578,8.578,0,0,1-1.239-4.124H827.67a9.976,9.976,0,0,0,.587,2.8,10.532,10.532,0,0,0,1.387,2.479,2.058,2.058,0,0,1-.751.708,2.886,2.886,0,0,1-1.014.38l.242,1.282a4.536,4.536,0,0,0,3.158-2.521,12.178,12.178,0,0,0,1.59-5.121h-1.5Z" transform="translate(-688.018 -643.063)" fill="#2e2566"/>
    </g>
  </g>
</svg>
