<svg id="Ministry_of_Energy-01_1_" data-name="Ministry of Energy-01 (1)" xmlns="http://www.w3.org/2000/svg" width="79.041" height="98.347" viewBox="0 0 79.041 98.347">
  <g id="Group_28173" data-name="Group 28173" transform="translate(0 72.59)">
    <path id="Path_35202" data-name="Path 35202" d="M386,439.726l1.1-1.124-1.1-1.1-1.1,1.1,1.1,1.124" transform="translate(-334.238 -437.479)" fill="#004e6d"/>
    <rect id="Rectangle_20984" data-name="Rectangle 20984" width="1.748" height="11.173" transform="translate(42.673)" fill="#004e6d"/>
    <path id="Path_35203" data-name="Path 35203" d="M397.3,439.726l1.1-1.124-1.1-1.1-1.1,1.1h0l1.1,1.124" transform="translate(-343.187 -437.479)" fill="#004e6d"/>
    <path id="Path_35204" data-name="Path 35204" d="M468.3,438.6l1.1,1.124,1.1-1.124-1.1-1.1-1.1,1.1" transform="translate(-400.286 -437.479)" fill="#004e6d"/>
    <path id="Path_35205" data-name="Path 35205" d="M413.773,464.317a3.762,3.762,0,0,1-1.061-.166l-.312,1.29a4.088,4.088,0,0,0,1.415.291c1.207,0,2.83-.312,2.83-3V455.1H414.9v7.7c0,1.1-.312,1.519-1.123,1.519" transform="translate(-356.016 -451.417)" fill="#004e6d"/>
    <path id="Path_35206" data-name="Path 35206" d="M377.2,458.236c0,2.393,1.29,3.828,3.412,3.828s3.412-1.436,3.433-3.828v-3.683a13.8,13.8,0,0,0-2.746-.354c-2.6,0-4.057,1.436-4.1,4.036m5.1-2.413v2.413c0,1.581-.541,2.372-1.685,2.372-1.124,0-1.685-.77-1.685-2.372,0-1.727.749-2.58,2.226-2.58a3.854,3.854,0,0,1,1.04.146Z" transform="translate(-328.14 -450.705)" fill="#004e6d"/>
    <path id="Path_35207" data-name="Path 35207" d="M458.773,464.317a3.762,3.762,0,0,1-1.061-.166l-.312,1.29a4.088,4.088,0,0,0,1.415.291c1.207,0,2.83-.312,2.83-3V455.1H459.9v7.7c.021,1.1-.312,1.519-1.123,1.519" transform="translate(-391.654 -451.417)" fill="#004e6d"/>
    <path id="Path_35208" data-name="Path 35208" d="M162,439.726l1.1-1.124-1.1-1.1-1.1,1.1,1.1,1.124" transform="translate(-156.843 -437.479)" fill="#004e6d"/>
    <path id="Path_35209" data-name="Path 35209" d="M149.6,438.6l1.1,1.124,1.1-1.124-1.1-1.1-1.1,1.1" transform="translate(-147.894 -437.479)" fill="#004e6d"/>
    <rect id="Rectangle_20985" data-name="Rectangle 20985" width="1.748" height="11.173" transform="translate(63)" fill="#004e6d"/>
    <path id="Path_35210" data-name="Path 35210" d="M218.3,439.726l1.1-1.124-1.1-1.1-1.1,1.1,1.1,1.124" transform="translate(-201.429 -437.479)" fill="#004e6d"/>
    <path id="Path_35211" data-name="Path 35211" d="M244.83,448.573h9.7a2.877,2.877,0,0,0,1.914-.541l.021-.021.021.021a3.465,3.465,0,0,0,2.039.541c1.207,0,2.83-.312,2.83-3V437.4H259.6v8.239c0,1.1-.312,1.519-1.124,1.519s-1.124-.416-1.124-1.519v-.6c0-2.684-1.456-4.161-4.12-4.161a6.576,6.576,0,0,0-3.7,1.415l-.083.062V437.4H247.7v9.758h-2.83c-.811,0-1.124-.416-1.124-1.519V437.4H242v8.177c0,2.7,1.623,3,2.83,3m4.64-4.785h0a5.157,5.157,0,0,1,3.766-1.373c1.519,0,2.372.915,2.372,2.6v.707c-.021,1.04-.333,1.456-1.124,1.456h-5.014Z" transform="translate(-221.069 -437.4)" fill="#004e6d"/>
    <path id="Path_35212" data-name="Path 35212" d="M495.245,462.069v-7.615a13.806,13.806,0,0,0-2.746-.354c-2.642,0-4.1,1.477-4.1,4.161,0,3.162,1.935,3.537,3.391,3.537h1.727v.042q0,1.748-1.873,1.748a8.812,8.812,0,0,1-2.393-.374l-.291,1.352A8.79,8.79,0,0,0,491.6,465c1.748,0,3.641-.77,3.641-2.934M492.1,460.4c-1.207,0-1.935-.375-1.935-2.226,0-1.748.728-2.6,2.205-2.6a3.856,3.856,0,0,1,1.04.146l.1.021V460.4Z" transform="translate(-416.204 -450.625)" fill="#004e6d"/>
    <path id="Path_35213" data-name="Path 35213" d="M205.9,438.6l1.1,1.124,1.1-1.124-1.1-1.1-1.1,1.1" transform="translate(-192.48 -437.479)" fill="#004e6d"/>
    <path id="Path_35214" data-name="Path 35214" d="M157.288,461.481c1.165,0,2.7-.27,2.83-2.7v-4.64a13.805,13.805,0,0,0-2.746-.354c-2.642,0-4.1,1.477-4.1,4.161a4.6,4.6,0,0,0,.4,2.06l.042.062h-4.14c-.811,0-1.124-.437-1.124-1.519v-4.494a13.805,13.805,0,0,0-2.746-.354c-1.873,0-4.1.707-4.1,4.057,0,2.393,1.165,3.62,3.5,3.62a3.928,3.928,0,0,0,2.205-.666l.042-.021.021.021a2.735,2.735,0,0,0,2.185.77h7.74m-.062-6.242a3.857,3.857,0,0,1,1.04.146l.1.021v3.183c0,1.061-.333,1.477-1.124,1.477h-.27c-1.207,0-1.956-.374-1.956-2.226C155.02,456.093,155.727,455.24,157.225,455.24Zm-10.569,4.39-.021.021a2.691,2.691,0,0,1-1.269.333c-1.436,0-2.06-.687-2.06-2.309,0-1.706.707-2.5,2.205-2.5a3.854,3.854,0,0,1,1.04.146l.1.021Z" transform="translate(-141.558 -450.309)" fill="#004e6d"/>
    <path id="Path_35215" data-name="Path 35215" d="M141.4,534.6h1.311l1.644,4.536,1.852-4.536h1.248v5.41h-1.061v-2.622l.042-1.124h-.021l-1.477,3.745h-1.248l-1.269-3.745h-.042l.062,1.061v2.684H141.4V534.6" transform="translate(-141.4 -514.377)" fill="#004e6d"/>
    <rect id="Rectangle_20986" data-name="Rectangle 20986" width="1.04" height="5.41" transform="translate(7.22 20.223)" fill="#004e6d"/>
    <path id="Path_35216" data-name="Path 35216" d="M186.8,534.6h1.228l2.393,4.078h.021l-.042-.645V534.6h1.061v5.41h-1.29l-2.33-4.016H187.8l.042.666v3.35H186.8V534.6" transform="translate(-177.354 -514.377)" fill="#004e6d"/>
    <rect id="Rectangle_20987" data-name="Rectangle 20987" width="1.04" height="5.41" transform="translate(15.271 20.223)" fill="#004e6d"/>
    <path id="Path_35217" data-name="Path 35217" d="M223.4,539.36l.312-.791a3.2,3.2,0,0,0,1.394.333c.624,0,1.061-.25,1.061-.707,0-1.061-2.6-.707-2.6-2.517,0-.978.895-1.477,1.831-1.477a2.9,2.9,0,0,1,1.56.375l-.312.77a2.717,2.717,0,0,0-1.207-.271c-.478,0-.832.229-.832.6,0,.915,2.642.791,2.642,2.476,0,1.124-1.04,1.623-2.122,1.623a3.247,3.247,0,0,1-1.727-.416" transform="translate(-206.339 -514.06)" fill="#004e6d"/>
    <path id="Path_35218" data-name="Path 35218" d="M244.048,535.432H242.3V534.6h4.536v.832h-1.748v4.577h-1.04v-4.577" transform="translate(-221.307 -514.377)" fill="#004e6d"/>
    <path id="Path_35219" data-name="Path 35219" d="M269.422,538.886l-.687-.874a2.146,2.146,0,0,1-.375.021h-.52v1.977H266.8V534.6h1.977c1.144,0,1.956.541,1.956,1.706a1.584,1.584,0,0,1-.936,1.477l.624.749a2.171,2.171,0,0,0,1.207.791l-.229.812a2.894,2.894,0,0,1-1.977-1.248m-1-1.623c.791,0,1.228-.291,1.228-.936,0-.666-.312-.916-1.04-.916h-.749v1.852Z" transform="translate(-240.71 -514.377)" fill="#004e6d"/>
    <path id="Path_35220" data-name="Path 35220" d="M290.114,538.137,288.2,534.6h1.207l1.269,2.663,1.352-2.663h1.165l-2.039,3.516v1.893h-1.04v-1.873" transform="translate(-257.657 -514.377)" fill="#004e6d"/>
    <path id="Path_35221" data-name="Path 35221" d="M320.3,536.967a2.635,2.635,0,0,1,2.892-2.767,2.552,2.552,0,0,1,2.767,2.788,2.61,2.61,0,0,1-2.892,2.788,2.54,2.54,0,0,1-2.767-2.809m4.577,0c0-1.124-.562-1.956-1.748-1.956a1.7,1.7,0,0,0-1.789,1.935c0,1.082.52,1.976,1.727,1.976C324.357,538.944,324.877,538.091,324.877,536.967Z" transform="translate(-283.078 -514.06)" fill="#004e6d"/>
    <path id="Path_35222" data-name="Path 35222" d="M351.4,534.6h3.558v.811H352.44v1.623h2.351v.77H352.44v2.205H351.4V534.6" transform="translate(-307.708 -514.377)" fill="#004e6d"/>
    <path id="Path_35223" data-name="Path 35223" d="M379.8,534.6h3.35v.811h-2.31v1.477h2.143v.791H380.84v1.5h2.476v.832H379.8V534.6" transform="translate(-330.199 -514.377)" fill="#004e6d"/>
    <path id="Path_35224" data-name="Path 35224" d="M400.7,534.6h1.248l2.393,4.078h0l-.021-.645V534.6h1.04v5.41h-1.29l-2.33-4.016h-.021l.021.666v3.35H400.7V534.6" transform="translate(-346.75 -514.377)" fill="#004e6d"/>
    <path id="Path_35225" data-name="Path 35225" d="M428.7,534.6h3.37v.811h-2.33v1.477h2.143v.791H429.74v1.5h2.5v.832H428.7V534.6" transform="translate(-368.925 -514.377)" fill="#004e6d"/>
    <path id="Path_35226" data-name="Path 35226" d="M452.422,538.886l-.687-.874a2.144,2.144,0,0,1-.374.021h-.52v1.977H449.8V534.6h1.977c1.144,0,1.956.541,1.956,1.706a1.584,1.584,0,0,1-.936,1.477l.624.749a2.171,2.171,0,0,0,1.207.791l-.229.812a2.85,2.85,0,0,1-1.977-1.248m-1.019-1.623c.791,0,1.228-.291,1.228-.936,0-.666-.312-.916-1.04-.916h-.749v1.852Z" transform="translate(-385.635 -514.377)" fill="#004e6d"/>
    <path id="Path_35227" data-name="Path 35227" d="M473.7,537.009c0-1.852,1.04-2.809,2.934-2.809a3.665,3.665,0,0,1,1.6.312l-.291.77a4.029,4.029,0,0,0-1.332-.229,1.689,1.689,0,0,0-1.852,1.872,1.8,1.8,0,0,0,1.956,1.935,3.361,3.361,0,0,0,.541-.042v-1.831h1.04v2.455a4.524,4.524,0,0,1-1.706.291,2.536,2.536,0,0,1-2.892-2.726" transform="translate(-404.562 -514.06)" fill="#004e6d"/>
    <path id="Path_35228" data-name="Path 35228" d="M499.293,538.137,497.4,534.6h1.186l1.269,2.663,1.352-2.663h1.165l-2.039,3.516v1.893h-1.04v-1.873" transform="translate(-423.331 -514.377)" fill="#004e6d"/>
  </g>
  <g id="Group_28174" data-name="Group 28174" transform="translate(10.321)">
    <path id="Path_35229" data-name="Path 35229" d="M633.037,386.969a1.823,1.823,0,0,0-.978-.832,2.044,2.044,0,0,0-1.831.187,2.281,2.281,0,0,0,.291-1.082,2.2,2.2,0,0,0-.333-1.082,2.109,2.109,0,0,0,1.352.354,1.977,1.977,0,0,0,1.269-.645,1.944,1.944,0,0,0-.811-3.1,1.962,1.962,0,0,0-1.748.229,2.136,2.136,0,0,0,.312-1.352,1.848,1.848,0,0,0-.624-1.186,1.8,1.8,0,0,0-2.1-.25,1.913,1.913,0,0,0-.811,2.684,2.057,2.057,0,0,0-1.935-.062,4.489,4.489,0,0,1-3.183-4.952,1.806,1.806,0,0,0-2.1-.333,1.888,1.888,0,0,0-.874,2.559,2.116,2.116,0,0,0-1.769-.125,2.416,2.416,0,0,0-.208-1.914,1.843,1.843,0,0,0,1.394.208,1.716,1.716,0,0,0,1.1-.832,1.8,1.8,0,0,0-2.559-2.393,1.849,1.849,0,0,0-.5,2.476,2.209,2.209,0,0,0-2-.208,2.059,2.059,0,0,0-2.746-2.642,1.966,1.966,0,0,0-.437-2.268,2.009,2.009,0,0,0-2.33-.354,1.981,1.981,0,0,0-2.913-2.518l.083-.187a1.842,1.842,0,1,0-.687.687l.229-.125a2.268,2.268,0,0,0-.4,1.1,1.944,1.944,0,0,0,2.6,1.935l.25-.042-.083.229a1.794,1.794,0,0,0-.062,1.144,1.97,1.97,0,0,0,2.538,1.415l.25-.042a1.964,1.964,0,0,0,.4,2.226,2.078,2.078,0,0,1,2.684,2.726,2.019,2.019,0,0,0,2.205.5,2.1,2.1,0,0,0,2.85,2.642,2.023,2.023,0,0,0-.083,1.352,1.884,1.884,0,0,0,.832,1.082,1.846,1.846,0,0,0,2.122-.042,1.977,1.977,0,0,0,.645-2.538,2.05,2.05,0,0,0,1.872.021,1.991,1.991,0,0,0,.5,2.413,1.964,1.964,0,0,0,2.413.146,1.9,1.9,0,0,0,2.663,2.58,1.986,1.986,0,0,0-.333,1.5,1.894,1.894,0,0,0,.791,1.269,1.947,1.947,0,0,0,2.455-.146,1.979,1.979,0,0,0,.333-2.413m-11.505-6.1a2.075,2.075,0,0,0-1.789-.062,2.251,2.251,0,0,0-.021-1.935,2.077,2.077,0,0,0,1.852-.083A2.114,2.114,0,0,0,621.531,380.872Zm6.075,2.809a2.1,2.1,0,0,0,.083-2.122,2,2,0,0,0,2.018-.083c-.083.25-.187.5-.25.728a1.455,1.455,0,0,0,.021.791,7.158,7.158,0,0,0,.271.707A2.131,2.131,0,0,0,627.606,383.681ZM606.2,414.432a6.4,6.4,0,0,0-.333-.791l.25.146a1.907,1.907,0,1,0,1.727-3.391,1.891,1.891,0,0,0-2.351,2.746l.125.229-.083-.062a1.808,1.808,0,0,0-1.956-.167l-.146.042a2.037,2.037,0,0,0-2.6-2.913,5.019,5.019,0,0,1-3.038-4.973,2.007,2.007,0,0,0-2.247-.479,2.081,2.081,0,0,0-.4-2.205l.312.166a1.729,1.729,0,0,0,1.935-.1,1.766,1.766,0,0,0,.6-1.831,1.643,1.643,0,0,0-1.394-1.227,1.611,1.611,0,0,0-1.685.749,1.666,1.666,0,0,0-.021,1.852l.187.291a2.057,2.057,0,0,0-2.226-.416c.042-.312.083-.624.1-.936a2.123,2.123,0,0,0-.291-.957,1.909,1.909,0,0,0,2.517-.5,1.781,1.781,0,0,0,.1-2.081,1.882,1.882,0,0,0-2.58-.666,1.968,1.968,0,0,0-.146-2.289,2.019,2.019,0,0,0-2.455-.6l.063-.187a2.008,2.008,0,0,0-.25-1.872l-.083-.166.25.146a1.782,1.782,0,0,0,2.7-1.54,1.781,1.781,0,0,0-3.162-1.082,1.786,1.786,0,0,0-.125,2.039l.125.229-.125-.062a1.939,1.939,0,0,0-2.268-.083l-.1.042a1.839,1.839,0,1,0-3.1-.146,1.793,1.793,0,0,0,.957.791,1.869,1.869,0,0,0,1.706-.229,2,2,0,0,0,.062,2.455,1.959,1.959,0,0,0,2.434.541,2.267,2.267,0,0,0-.187,1.019,2.541,2.541,0,0,0,.312,1,1.9,1.9,0,0,0-2.434.4,1.836,1.836,0,0,0,1.04,2.975,1.943,1.943,0,0,0,1.415-.291l-.146.291a1.849,1.849,0,0,0-.166,1.29,1.967,1.967,0,0,0,2.517,1.5l.229-.062a2.055,2.055,0,0,0,.416,2.289,2.023,2.023,0,0,0,2.289.458,2.168,2.168,0,0,0,.229,2.018l-.146-.062a1.785,1.785,0,0,0-1.873.042,1.743,1.743,0,0,0-.812,1.685,1.8,1.8,0,0,0,2,1.581,1.756,1.756,0,0,0,1.311-2.642l-.083-.208a2.141,2.141,0,0,0,2.143.208,1.948,1.948,0,0,0,.416,2.268,1.912,1.912,0,0,1,2.559,2.6,2.027,2.027,0,0,0,2.58.4,2.1,2.1,0,0,0-.229,1.29,1.853,1.853,0,0,0,2.164,1.519A1.617,1.617,0,0,0,606.2,414.432Zm-16.416-14.71a1.953,1.953,0,0,0,.021-2.018,2.15,2.15,0,0,0,2.205,0,2.052,2.052,0,0,0,.021,2.018A2.132,2.132,0,0,0,589.781,399.723Zm42.985-2.164a1.874,1.874,0,0,1,.042,2.289,1.923,1.923,0,0,1-2.476.479l.083.229a1.966,1.966,0,0,1-1.248,2.746,1.846,1.846,0,0,1-1.207-.062,1.506,1.506,0,0,1-.291-.125,4.581,4.581,0,0,0-3.017,4.993,1.913,1.913,0,0,1-2.351.354,3.511,3.511,0,0,0-2.642,4.473,1.876,1.876,0,0,1-.832.915,1.923,1.923,0,0,1-2.58-2.663,1.828,1.828,0,0,1,1.165-.874,1.414,1.414,0,1,0,1.769-2.205,1.973,1.973,0,0,1,2.393-.354,1.97,1.97,0,0,1,2.726-2.642,1.971,1.971,0,0,1,.291-2.393,2.1,2.1,0,0,0,2.788-2.83,1.758,1.758,0,0,1,1.144-.458,2.3,2.3,0,0,1,1.207.291,1.951,1.951,0,0,1-.062-1.852,1.831,1.831,0,0,1,.874-.853A1.87,1.87,0,0,1,632.766,397.559Zm-46.106-10.715a1.991,1.991,0,0,1-1.769.187,1.962,1.962,0,0,1-1-.832,1.926,1.926,0,0,1,2.788-2.538,1.663,1.663,0,0,0,2.226,2.455,1.839,1.839,0,0,1,.978.791,1.893,1.893,0,0,1-.292,2.372,1.915,1.915,0,0,1-3.225-.936A2.2,2.2,0,0,1,586.661,386.844Zm2.788-16.582a1.95,1.95,0,0,1-.187-1.81,1.869,1.869,0,0,1,.832-.957,1.913,1.913,0,0,1,2.476,2.809,2.321,2.321,0,0,0-3.1,3.079,1.911,1.911,0,0,1-2.7-2.622A1.954,1.954,0,0,1,589.449,370.261Zm21.867,43.547a1.977,1.977,0,0,1,.229,1.6,1.854,1.854,0,1,1-3.287-1.6,1.745,1.745,0,0,1,1.186-.749,1.95,1.95,0,0,1,1.394.291,2.006,2.006,0,0,1-.187-1.872,1.757,1.757,0,0,1,.874-.978,1.948,1.948,0,0,1,2.413.458,1.917,1.917,0,0,1,.042,2.455A2.034,2.034,0,0,1,611.316,413.808ZM630.27,395l-.291-.167a1.851,1.851,0,0,1,.083,2.309,1.805,1.805,0,1,1-1.457-2.913,1.766,1.766,0,0,1,1.228.458l-.146-.25a1.969,1.969,0,0,1,2-3.038,2,2,0,0,1,1.561,1.56,1.982,1.982,0,0,1-.811,2A1.95,1.95,0,0,1,630.27,395Zm-31.687-30.481a1.931,1.931,0,0,1,2.081,2.913l-.229.291.25-.146a1.835,1.835,0,1,1,1.1,3.35,1.722,1.722,0,0,1-1.644-.915,1.771,1.771,0,0,1,.042-1.914l.187-.312a1.9,1.9,0,0,1-2.434.229l-.25-.146a2.609,2.609,0,0,1,.416.874,1.74,1.74,0,0,1-.687,1.81,1.668,1.668,0,0,1-1.914.166,1.7,1.7,0,0,1-.978-1.664,1.725,1.725,0,0,1,.978-1.56,1.759,1.759,0,0,1,1.831.1l.25.166-.167-.27A1.949,1.949,0,0,1,598.582,364.519Zm-13.024,13.4a1.931,1.931,0,0,1,1.935,1.935,1.914,1.914,0,1,1-1.935-1.935Zm-1.727-3.391a1.811,1.811,0,0,1,1.81-1.81,1.843,1.843,0,0,1,1.831,1.81,1.821,1.821,0,1,1-3.641,0Zm8.218-8.572a1.8,1.8,0,0,1,1.852-1.789,1.821,1.821,0,1,1-1.852,1.789ZM613.4,409.5a1.768,1.768,0,1,1,1.768,1.769A1.767,1.767,0,0,1,613.4,409.5Zm-15.625,3.662a1.749,1.749,0,0,1-1.748,1.768,1.758,1.758,0,1,1,1.748-1.768Zm-7.74-30.626a1.749,1.749,0,0,1-1.768,1.748,1.732,1.732,0,0,1-1.748-1.748,1.763,1.763,0,0,1,1.748-1.768A1.808,1.808,0,0,1,590.031,382.537Zm-.021-5.368a1.737,1.737,0,0,1-3.474,0,1.758,1.758,0,0,1,1.748-1.748A1.74,1.74,0,0,1,590.01,377.169Zm23.448-5.389a1.736,1.736,0,0,1,1.748-1.706,1.71,1.71,0,0,1,1.706,1.748,1.692,1.692,0,0,1-1.727,1.706A1.714,1.714,0,0,1,613.458,371.78Zm10.777,5.409a1.736,1.736,0,0,1,1.727-1.727,1.718,1.718,0,0,1,1.706,1.727,1.7,1.7,0,0,1-1.706,1.706A1.718,1.718,0,0,1,624.236,377.19Zm-21.555,32.27a1.706,1.706,0,1,1,3.412,0,1.706,1.706,0,0,1-3.412,0Zm33.435-18.538a1.687,1.687,0,0,1-1.706,1.706,1.7,1.7,0,1,1,0-3.391A1.67,1.67,0,0,1,636.116,390.922Zm-45.461,17.831a1.709,1.709,0,0,1-1.685-1.706,1.728,1.728,0,0,1,1.727-1.685,1.683,1.683,0,0,1,1.665,1.727A1.666,1.666,0,0,1,590.655,408.752Zm36.285-18.122a1.675,1.675,0,1,1,1.664,1.706A1.705,1.705,0,0,1,626.941,390.63Zm-12.775-21.513a1.669,1.669,0,0,1-1.664,1.664,1.652,1.652,0,0,1-1.665-1.644,1.674,1.674,0,0,1,1.685-1.664A1.634,1.634,0,0,1,614.166,369.117Zm-6.054,40.363a1.654,1.654,0,1,1,1.644,1.664A1.665,1.665,0,0,1,608.111,409.48Zm17.81-9.113a1.654,1.654,0,1,1,1.664-1.644A1.626,1.626,0,0,1,625.921,400.367Zm-32.27-26.944a1.629,1.629,0,0,1-1.644-1.623,1.652,1.652,0,0,1,1.644-1.664,1.644,1.644,0,1,1,0,3.287Zm24.218,35.016a1.644,1.644,0,1,1-.021-3.287,1.616,1.616,0,0,1,1.644,1.623A1.634,1.634,0,0,1,617.869,408.44Zm-11.8-36.66a1.644,1.644,0,0,1-3.287.021,1.644,1.644,0,1,1,3.287-.021Zm-23.406,9.009a1.661,1.661,0,0,1,1.644,1.644,1.633,1.633,0,1,1-1.644-1.644Zm51.723,2.684a1.536,1.536,0,0,1,1.54,1.54,1.572,1.572,0,0,1-1.56,1.56,1.55,1.55,0,1,1,.021-3.1Zm-50.662,12.463a1.607,1.607,0,0,1,1.6-1.623,1.639,1.639,0,0,1,1.644,1.6,1.657,1.657,0,0,1-1.623,1.644A1.625,1.625,0,0,1,583.727,395.936Zm41.154-10.673a1.59,1.59,0,0,1-1.6,1.6,1.612,1.612,0,1,1,1.6-1.6ZM599,402.469a1.6,1.6,0,0,1,.021,3.2,1.6,1.6,0,1,1-.021-3.2Zm1.1,4.307a1.592,1.592,0,1,1,1.6,1.581A1.6,1.6,0,0,1,600.1,406.776Zm-7.553-32.311a1.581,1.581,0,1,1-1.581-1.56A1.563,1.563,0,0,1,592.549,374.464Zm29.108,26.964a1.571,1.571,0,1,1,1.581,1.56A1.589,1.589,0,0,1,621.656,401.429Zm-1.1,4.244a1.571,1.571,0,1,1,1.56-1.581A1.563,1.563,0,0,1,620.553,405.673Zm-26.944-13.94a1.571,1.571,0,1,1-1.56,1.581A1.576,1.576,0,0,1,593.61,391.733Zm31.209-17.227a1.571,1.571,0,1,1-3.142-.021,1.586,1.586,0,0,1,1.56-1.56A1.554,1.554,0,0,1,624.818,374.506Zm-36.93,31.417a1.56,1.56,0,1,1,1.56-1.56A1.572,1.572,0,0,1,587.888,405.923Zm26.153-26.028a1.554,1.554,0,0,1-1.56,1.54,1.529,1.529,0,1,1,1.56-1.54Zm-4.224-15.022a1.536,1.536,0,0,1,1.54,1.54,1.554,1.554,0,0,1-1.56,1.54,1.54,1.54,0,0,1,.021-3.079Zm6.908,17.706a1.54,1.54,0,0,1-3.079-.021,1.54,1.54,0,0,1,3.079.021Zm-14.835-20.265a1.55,1.55,0,0,1,1.54,1.54,1.54,1.54,0,0,1-3.079-.021A1.559,1.559,0,0,1,601.891,362.314Zm6.741,12.171a1.519,1.519,0,1,1-1.519-1.519A1.514,1.514,0,0,1,608.632,374.485Zm-25.758,14.959a1.51,1.51,0,0,1-1.5-1.519,1.492,1.492,0,0,1,1.5-1.5,1.509,1.509,0,0,1,1.519,1.5A1.527,1.527,0,0,1,582.874,389.444Zm28.421-12.255a1.479,1.479,0,0,1-1.519,1.477,1.5,1.5,0,1,1,1.519-1.477Zm-30.106.271a1.51,1.51,0,0,1,1.519-1.5,1.5,1.5,0,1,1-1.519,1.5Zm54.054,18.6a1.492,1.492,0,0,1-1.5,1.5,1.519,1.519,0,0,1-1.5-1.5,1.479,1.479,0,0,1,1.5-1.5A1.519,1.519,0,0,1,635.242,396.061Zm-44.3-9.363a1.465,1.465,0,0,1-1.456-1.477,1.477,1.477,0,1,1,2.954,0A1.5,1.5,0,0,1,590.947,386.7Zm31.084-14.9a1.467,1.467,0,1,1-1.477-1.477A1.452,1.452,0,0,1,622.031,371.8Zm-26.756-8.822a1.529,1.529,0,1,1,1.5,1.56A1.56,1.56,0,0,1,595.274,362.979Zm2.309,8.78a1.43,1.43,0,0,1,1.456-1.436,1.456,1.456,0,1,1-1.456,1.436ZM627.4,387.946a1.456,1.456,0,1,1-2.913,0,1.456,1.456,0,1,1,2.913,0Zm-1.456,3.974a1.4,1.4,0,0,1,1.415,1.415,1.425,1.425,0,1,1-2.85,0A1.383,1.383,0,0,1,625.942,391.92Zm-14.9,14.876a1.421,1.421,0,0,1,1.436-1.415A1.4,1.4,0,0,1,613.9,406.8a1.425,1.425,0,1,1-2.85,0Zm-26.964-5.347a1.385,1.385,0,0,1,1.373-1.373,1.363,1.363,0,1,1-1.373,1.373Zm21.638,5.368a1.363,1.363,0,1,1,2.725,0,1.385,1.385,0,0,1-1.373,1.373A1.425,1.425,0,0,1,605.719,406.817Zm13.524-37.7a1.363,1.363,0,0,1-2.726-.021,1.359,1.359,0,0,1,1.373-1.373A1.385,1.385,0,0,1,619.243,369.117Zm-24.28,26.9a1.352,1.352,0,1,1,1.352,1.332A1.319,1.319,0,0,1,594.962,396.019Zm24.28-10.777a1.363,1.363,0,0,1-1.332,1.373,1.337,1.337,0,0,1-1.373-1.332,1.353,1.353,0,0,1,2.7-.042Zm-35.307,8.343a1.377,1.377,0,0,1-1.353,1.352,1.352,1.352,0,0,1,.021-2.7A1.359,1.359,0,0,1,583.935,393.585Zm21.929-30.106a1.5,1.5,0,1,1,3,0,1.5,1.5,0,1,1-3,0Zm26.007,11.61a1.47,1.47,0,0,1,1.436,1.456,1.421,1.421,0,0,1-1.415,1.436,1.443,1.443,0,0,1-1.456-1.436A1.418,1.418,0,0,1,631.872,375.088Zm-3.391-1.519a1.28,1.28,0,1,1-1.269,1.29A1.266,1.266,0,0,1,628.48,373.57ZM589.7,379.853a1.261,1.261,0,0,1,1.269-1.269,1.284,1.284,0,0,1,1.248,1.269,1.252,1.252,0,0,1-1.248,1.248A1.27,1.27,0,0,1,589.7,379.853Zm24.239-13.42a1.252,1.252,0,0,1,1.248-1.248,1.238,1.238,0,0,1,0,2.476A1.276,1.276,0,0,1,613.937,366.433Zm2.434,37.7a1.19,1.19,0,0,1-1.207,1.186,1.212,1.212,0,0,1-1.207-1.228,1.207,1.207,0,1,1,2.413.042Zm5.659-8.093a1.2,1.2,0,0,1,1.186-1.207,1.19,1.19,0,0,1,1.207,1.186,1.2,1.2,0,1,1-2.393.021Zm3.745-25.279a1.185,1.185,0,0,1,1.186,1.186,1.168,1.168,0,0,1-1.165,1.186,1.186,1.186,0,0,1-.021-2.372Zm-30.605,3.683a1.165,1.165,0,1,1,1.165,1.186A1.163,1.163,0,0,1,595.17,374.443Zm2.7,24.239a1.1,1.1,0,0,1,1.144-1.123,1.123,1.123,0,0,1,1.124,1.144,1.134,1.134,0,1,1-2.268-.021Zm6.533,4.286a1.1,1.1,0,0,1,1.1,1.124,1.128,1.128,0,0,1-1.1,1.124,1.124,1.124,0,1,1,0-2.247Zm-20.015-4.7a1.084,1.084,0,0,1-1.1,1.1,1.113,1.113,0,0,1,0-2.226A1.115,1.115,0,0,1,584.393,398.266Zm34.538,3.142a1.07,1.07,0,0,1-1.082,1.061,1.057,1.057,0,0,1-1.061-1.082,1.074,1.074,0,0,1,1.082-1.082A1.116,1.116,0,0,1,618.931,401.408Zm1.6-1.623a1.066,1.066,0,0,1-1.061-1.061,1.045,1.045,0,0,1,1.082-1.061,1.061,1.061,0,1,1-.021,2.122Zm1.5-30.73a1.062,1.062,0,0,1,2.122.062,1.1,1.1,0,0,1-1.1,1.04A1.054,1.054,0,0,1,622.031,369.055Zm-19.266,5.41a1.043,1.043,0,0,1-1.04,1.04,1.04,1.04,0,0,1,0-2.081A1.043,1.043,0,0,1,602.764,374.464Zm8.7-10.549a1.238,1.238,0,0,1,2.476.021,1.252,1.252,0,0,1-1.269,1.227A1.217,1.217,0,0,1,611.461,363.916Zm-10.777,37.471a1,1,0,0,1,1.019-1.019,1.008,1.008,0,0,1,1.02,1.019,1.035,1.035,0,0,1-1.02,1.02A1.008,1.008,0,0,1,600.684,401.387Zm-19.807-16.832a1.084,1.084,0,0,1,1.061,1.082,1.072,1.072,0,0,1-2.143,0A1.088,1.088,0,0,1,580.876,384.555Zm29.877,19.537a1,1,0,0,1-.978,1,1.013,1.013,0,0,1-1-1,.988.988,0,0,1,1.977,0Zm-18.122-26.944a1.009,1.009,0,1,1,1.02,1.02A1.035,1.035,0,0,1,592.632,377.148ZM580.44,390.693a1.116,1.116,0,0,1,1.061-1.1,1.07,1.07,0,0,1,1.082,1.061,1.072,1.072,0,0,1-2.143.042Zm38.99-23.573a1.009,1.009,0,0,1,2.018-.021,1.009,1.009,0,0,1-2.018.021Zm-1.56-3.038a1.013,1.013,0,0,1,1,1,.991.991,0,0,1-1,1.019,1.009,1.009,0,1,1,0-2.018ZM604.429,376.15a1.009,1.009,0,0,1-.021,2.018.986.986,0,0,1-1-1A1.008,1.008,0,0,1,604.429,376.15Zm-1.144,15.417c1.02.333,3.225,1.144,3.225,1.144l.042.021v-5.2l-1.727,1.623H604.8a1.068,1.068,0,0,1-.146-.5,1,1,0,0,1,.312-.687c.166-.146.895-.811.895-.811h-2.122l-.021-.021a.882.882,0,0,1,.895-.728h1.456l-1.644-1.165V385.2a.94.94,0,0,1,1.165-.083c.229.166.978.728.978.728v-.312a1.553,1.553,0,0,1,.437-.957h.021a1.5,1.5,0,0,1,.437.957v.312s.728-.562.978-.728a.94.94,0,0,1,1.165.083v.042l-1.644,1.165h1.457a.852.852,0,0,1,.895.728l-.021.021h-2.122s.728.645.895.811a.921.921,0,0,1,.312.687,1.068,1.068,0,0,1-.146.5h-.021l-1.727-1.623v5.2l.042-.021s2.205-.832,3.225-1.144a2.425,2.425,0,0,1,1.748.1l.062.021v.062l-.062.021c-1.373.4-4.515,1.519-4.515,1.519l3.225,1.519v.062l-.063.021a2.143,2.143,0,0,1-.624.083,2.434,2.434,0,0,1-1.019-.229c-.708-.333-2.268-.978-2.455-1.061-.187.083-1.727.728-2.455,1.061a2.458,2.458,0,0,1-1.04.229,2.146,2.146,0,0,1-.624-.083l-.062-.021v-.062l3.225-1.519s-3.142-1.124-4.515-1.519l-.062-.021v-.062l.062-.021A2.3,2.3,0,0,1,603.284,391.567Zm28.8,11.651a.986.986,0,0,1-.125.791,1.008,1.008,0,1,1-1.727-1.04,1.022,1.022,0,0,1,1.373-.354A.922.922,0,0,1,632.08,403.218Zm-2.393,3.5a.86.86,0,0,1-.042.4,1.58,1.58,0,0,1-.187.375,1,1,0,1,1-1.54-1.29l.291-.25a.7.7,0,0,1,.354-.1,1.117,1.117,0,0,1,.749.208A.916.916,0,0,1,629.687,406.713Zm-3.121,2.393a.968.968,0,0,1,.271.728,1.347,1.347,0,0,1-.083.4l-.1.187-.146.146a1.017,1.017,0,0,1-1.436-.083,1.031,1.031,0,0,1,.083-1.415l.166-.1.166-.083a1.177,1.177,0,0,1,.375-.062A.872.872,0,0,1,626.566,409.106Zm-3.183,2.642a.984.984,0,0,1,.167.749,1.016,1.016,0,0,1-1.852.375,1,1,0,0,1,1.02-1.54A.956.956,0,0,1,623.383,411.748Zm-6.97,3.2a1.329,1.329,0,0,1-.916,1.706,1.359,1.359,0,1,1,.208-2.5A1.393,1.393,0,0,1,616.413,414.952Zm-8.426,2.018a1.025,1.025,0,0,1-1.02,1.04,1.009,1.009,0,1,1,1.02-1.04Zm-7.428-.936a1.205,1.205,0,0,1-2.226.208,1.191,1.191,0,0,1,.541-1.6,1.2,1.2,0,0,1,.895-.083A1.242,1.242,0,0,1,600.559,416.034Zm-8.3-3.2a1,1,0,0,1-1.415.291.918.918,0,0,1-.437-.666.983.983,0,0,1,.167-.749,1.013,1.013,0,0,1,1.685,1.124Zm-3.35-2.393a.981.981,0,0,1-1.436.083,1,1,0,0,1-.25-.333.846.846,0,0,1-.083-.4,1.057,1.057,0,0,1,.27-.728.965.965,0,0,1,.707-.312,1.177,1.177,0,0,1,.375.062l.333.187A1.058,1.058,0,0,1,588.908,410.438Zm-2.85-4.286a1.019,1.019,0,0,1-.125,1.415,1,1,0,0,1-1.436-.125,1.057,1.057,0,0,1-.229-.77.948.948,0,0,1,.375-.666,1.117,1.117,0,0,1,.749-.208A.925.925,0,0,1,586.057,406.151Zm-2.309-3.225a1.008,1.008,0,1,1-1.373-.354A1.022,1.022,0,0,1,583.748,402.927Zm-2.33-2.226a1.035,1.035,0,0,1-1.352-.52,1.012,1.012,0,0,1,.562-1.332,1.03,1.03,0,0,1,1.311.541A1.006,1.006,0,0,1,581.417,400.7Zm-1.456-3.849a1,1,0,0,1-1.248-.707,1.021,1.021,0,0,1,.749-1.248,1.007,1.007,0,0,1,1.207.728A1.048,1.048,0,0,1,579.961,396.851Zm-2.018-4.91a.92.92,0,0,1,.042-.416,1.157,1.157,0,0,1,.187-.354.968.968,0,0,1,.687-.354,1.09,1.09,0,0,1,.728.229l.229.291a.994.994,0,0,1,.125.374,1.026,1.026,0,0,1-.874,1.1A.978.978,0,0,1,577.943,391.941Zm-.146-4.265a1.216,1.216,0,0,1,.083-.4l.25-.312a1.006,1.006,0,0,1,.728-.25,1.031,1.031,0,0,1,.687.333l.187.333a.792.792,0,0,1,.062.374,1.032,1.032,0,0,1-1.04.978A1.006,1.006,0,0,1,577.8,387.676Zm.624-3.475a1.089,1.089,0,0,1-.166-.77.975.975,0,0,1,1.186-.811,1.033,1.033,0,0,1,.791,1.165.942.942,0,0,1-.416.624,1.046,1.046,0,0,1-.749.187A.89.89,0,0,1,578.422,384.2Zm.832-3.828a1.144,1.144,0,0,1-.042-.874,1.1,1.1,0,0,1,.583-.666,1.019,1.019,0,0,1,.853-.021,1.16,1.16,0,0,1,.687,1.415,1.044,1.044,0,0,1-.562.624,1.112,1.112,0,0,1-1.519-.479Zm4.6-8.967a1.048,1.048,0,0,1,.187-.77.991.991,0,0,1,1.415-.229,1.02,1.02,0,0,1,.208,1.394.932.932,0,0,1-.645.4,1.068,1.068,0,0,1-.749-.146A1.037,1.037,0,0,1,583.852,371.406Zm-2.309,3.474a1.048,1.048,0,0,1,.187-.77.991.991,0,0,1,1.415-.229,1.02,1.02,0,0,1,.208,1.394.932.932,0,0,1-.645.4,1.068,1.068,0,0,1-.749-.146A1.037,1.037,0,0,1,581.542,374.88Zm4.848-6.408a1.02,1.02,0,0,1,.292-.728.982.982,0,0,1,1.435-.021,1.032,1.032,0,0,1,.021,1.415.979.979,0,0,1-.687.291,1.093,1.093,0,0,1-.728-.271A.846.846,0,0,1,586.39,368.472Zm3.371-2a1.008,1.008,0,0,1,.166-1.436,1.056,1.056,0,0,1,.374-.187.851.851,0,0,1,.4-.021,1.111,1.111,0,0,1,.666.4,1,1,0,0,1,.187.749,1.022,1.022,0,0,1-.125.354l-.25.291A.98.98,0,0,1,589.761,366.475Zm10.132-5.035a.986.986,0,0,1,.77-1.207.954.954,0,0,1,.416-.021,1.4,1.4,0,0,1,.374.146,1.012,1.012,0,0,1,.437.645,1.14,1.14,0,0,1-.146.749l-.27.27a1.1,1.1,0,0,1-.354.167A1.053,1.053,0,0,1,599.893,361.44Zm4.057-.749a1.074,1.074,0,0,1,.229-.749,1.056,1.056,0,0,1,.707-.354.945.945,0,0,1,.749.25,1.13,1.13,0,0,1,.333.707,1.022,1.022,0,0,1-.27.728.9.9,0,0,1-.666.333.956.956,0,0,1-.707-.25A.939.939,0,0,1,603.95,360.691Zm4.39.583a1.081,1.081,0,0,1-.27-.728,1,1,0,0,1,1.082-.957.975.975,0,0,1,.707.354,1.032,1.032,0,0,1-.125,1.436.987.987,0,0,1-.707.25A1.008,1.008,0,0,1,608.34,361.273Zm3.995.478a1,1,0,0,1,.291-1.394.949.949,0,0,1,.791-.125.986.986,0,0,1,.77,1.207,1.024,1.024,0,0,1-1.207.749A.984.984,0,0,1,612.335,361.752Zm3.87,1.061a1.082,1.082,0,0,1-.042-.77.961.961,0,0,1,.52-.583,1.263,1.263,0,0,1,.375-.1,1.058,1.058,0,0,1,.416.083.982.982,0,0,1,.583,1.311,1.022,1.022,0,0,1-1.29.562,1.118,1.118,0,0,1-.333-.208Zm3.683,1.623a1,1,0,0,1,.063-.77,1.022,1.022,0,0,1,.6-.5.86.86,0,0,1,.4-.042,1.451,1.451,0,0,1,.4.125,1.007,1.007,0,0,1,.374,1.394,1.044,1.044,0,0,1-1.373.375l-.291-.25Zm3.391,2.143a1,1,0,0,1,.187-.749.9.9,0,0,1,.666-.4.958.958,0,0,1,.77.208.989.989,0,0,1,.166,1.436,1.039,1.039,0,0,1-1.415.166A1.139,1.139,0,0,1,623.279,366.579Zm3.329,3.308a1.031,1.031,0,0,1,.021-1.415.982.982,0,0,1,1.436.021,1.021,1.021,0,0,1,.291.728.988.988,0,0,1-.333.707,1.057,1.057,0,0,1-.728.271A1.1,1.1,0,0,1,626.608,369.887Zm2.538,3.058a.917.917,0,0,1-.167-.728,1.019,1.019,0,0,1,.4-.666,1.116,1.116,0,0,1,.749-.208,1,1,0,0,1,.666.416,1.049,1.049,0,0,1,.187.77.988.988,0,0,1-.437.645.971.971,0,0,1-.749.146A.948.948,0,0,1,629.146,372.945Zm4.244,5.763a.987.987,0,0,1,.77.021,1.077,1.077,0,0,1,.52.6,1.138,1.138,0,0,1-.042.791,1.036,1.036,0,0,1-.6.5,1.082,1.082,0,0,1-.77-.062.955.955,0,0,1-.5-.562.94.94,0,0,1,.063-.749A.961.961,0,0,1,633.391,378.709Zm2.5,8.489.229.312a.842.842,0,0,1,.083.4.979.979,0,0,1-.978,1.04,1.032,1.032,0,0,1-1.04-.978,1.088,1.088,0,0,1,.062-.375l.187-.312a1.031,1.031,0,0,1,.687-.333A.966.966,0,0,1,635.887,387.2Z" transform="translate(-577.797 -359.585)" fill="#004e6d"/>
  </g>
</svg>
