<svg xmlns="http://www.w3.org/2000/svg" width="20.347" height="22.385" viewBox="0 0 20.347 22.385">
  <path id="Path_23943" data-name="Path 23943" d="M131.212,389.374h.612c2.283,0,3.425,0,4.3.444A4.072,4.072,0,0,1,137.9,391.6c.444.872.444,2.014.444,4.3v1.223c0,2.283,0,3.425-.444,4.3a4.072,4.072,0,0,1-1.782,1.782c-.872.444-2.014.444-4.3.444h-5.3c-2.283,0-3.425,0-4.3-.444a4.079,4.079,0,0,1-1.782-1.782c-.444-.872-.444-2.014-.444-4.3V395.9c0-2.283,0-3.425.444-4.3a4.079,4.079,0,0,1,1.782-1.782c.872-.444,2.014-.444,4.3-.444h.612m-3.058,0V388.15a7.6,7.6,0,0,1,.333-3.223,3.067,3.067,0,0,1,1.336-1.336,7.6,7.6,0,0,1,3.223-.333h.408a7.6,7.6,0,0,1,3.223.333,3.067,3.067,0,0,1,1.336,1.336,7.6,7.6,0,0,1,.333,3.223v1.223m-5.1,6.116v2.038" transform="translate(-119 -382.258)" fill="none" stroke="#d1d1d1" stroke-linecap="round" stroke-linejoin="round" stroke-width="2"/>
</svg>
