<svg id="Component_211_1" data-name="Component 211 – 1" xmlns="http://www.w3.org/2000/svg" width="319.219" height="109.044" viewBox="0 0 319.219 109.044">
  <g id="Group_27039" data-name="Group 27039">
    <path id="Path_25796" data-name="Path 25796" d="M7.173,202.172c.28.047.608.088.981.123s.782.052,1.226.052a6.583,6.583,0,0,0,2.837-.578,5.939,5.939,0,0,0,2.067-1.593,6.855,6.855,0,0,0,1.261-2.382,9.971,9.971,0,0,0,.42-2.942v-13.38H11.972v13.065a6.24,6.24,0,0,1-.525,2.872,2.127,2.127,0,0,1-2.067.981,7.292,7.292,0,0,1-.84-.052q-.456-.053-.876-.123l-.98-.21L6.228,202a3.974,3.974,0,0,0,.473.105l.473.07" transform="translate(-2.304 -145.43)"/>
    <rect id="Rectangle_20362" data-name="Rectangle 20362" width="3.958" height="25.079" transform="translate(18.915 24.902)"/>
    <path id="Path_25797" data-name="Path 25797" d="M234.259,180.731v9.877h-2.067a2.806,2.806,0,0,1-2.416-.911,3.81,3.81,0,0,1-.666-2.312v-4.764h-3.993v6.165a2.972,2.972,0,0,1-.245,1.366,1.086,1.086,0,0,1-1.051.456h-.876a2.809,2.809,0,0,1-2.417-.911,3.815,3.815,0,0,1-.665-2.312v-3.4H215.87v4.8a3.007,3.007,0,0,1-.245,1.331,1.058,1.058,0,0,1-1.05.49H57.758V186.44a8.349,8.349,0,0,0-.456-2.819,6.207,6.207,0,0,0-1.33-2.206,6.011,6.011,0,0,0-2.119-1.436,7.409,7.409,0,0,0-2.82-.508,6.826,6.826,0,0,0-2.995.648,7.215,7.215,0,0,0-2.329,1.769,8.159,8.159,0,0,0-1.524,2.61,9.072,9.072,0,0,0-.543,3.135,8.035,8.035,0,0,0,.42,2.557,6.152,6.152,0,0,0,1.348,2.259,6.748,6.748,0,0,0,2.417,1.612,9.652,9.652,0,0,0,3.66.612h2.348a4.154,4.154,0,0,1-.439,1.909,2.956,2.956,0,0,1-1.086,1.121,4.424,4.424,0,0,1-1.559.543,11.846,11.846,0,0,1-1.857.14q-.665,0-1.576-.07t-1.926-.21l-.28,3.923a18.7,18.7,0,0,0,1.926.228q.875.052,1.682.052a13.469,13.469,0,0,0,3.538-.438,8.051,8.051,0,0,0,2.8-1.348,6.448,6.448,0,0,0,1.891-2.364,9.071,9.071,0,0,0,.806-3.485H214.539a5.932,5.932,0,0,0,2.715-.578,3.99,3.99,0,0,0,1.733-1.664,5.023,5.023,0,0,0,1.4,1.559,4.055,4.055,0,0,0,2.487.683H224a5.578,5.578,0,0,0,2.593-.578,3.922,3.922,0,0,0,1.716-1.734,5.4,5.4,0,0,0,1.4,1.594,3.735,3.735,0,0,0,2.382.718h6.129v-13.94ZM53.8,190.608H51.348a5.225,5.225,0,0,1-1.419-.192,3.244,3.244,0,0,1-1.208-.631,3.153,3.153,0,0,1-.84-1.121A3.946,3.946,0,0,1,47.566,187a3.846,3.846,0,0,1,.28-1.506,3.678,3.678,0,0,1,.735-1.138,3.339,3.339,0,0,1,1.034-.735,2.873,2.873,0,0,1,1.208-.263,2.567,2.567,0,0,1,2.189,1.068,5.107,5.107,0,0,1,.788,3.065Z" transform="translate(-16.146 -144.689)"/>
    <path id="Path_25798" data-name="Path 25798" d="M6.106,240.35a2.043,2.043,0,0,0,1.506-.595,2.031,2.031,0,0,0,0-2.873,2.043,2.043,0,0,0-1.506-.6,2.043,2.043,0,0,0-1.507.6,2.032,2.032,0,0,0,0,2.873,2.043,2.043,0,0,0,1.507.595" transform="translate(-1.481 -165.709)"/>
    <path id="Path_25799" data-name="Path 25799" d="M14.778,236.287a2.038,2.038,0,0,0-1.506.6,2.029,2.029,0,0,0,0,2.873,2.2,2.2,0,0,0,3.012,0,2.029,2.029,0,0,0,0-2.873,2.041,2.041,0,0,0-1.506-.6" transform="translate(-4.69 -165.709)"/>
    <path id="Path_25800" data-name="Path 25800" d="M28.621,274.091a2.065,2.065,0,0,0-1.506.583,1.92,1.92,0,0,0-.595,1.431,1.962,1.962,0,0,0,.595,1.466,2.238,2.238,0,0,0,3.013,0,1.967,1.967,0,0,0,.595-1.466,1.925,1.925,0,0,0-.595-1.431,2.067,2.067,0,0,0-1.506-.583" transform="translate(-9.811 -179.695)"/>
    <path id="Path_25801" data-name="Path 25801" d="M25.22,247.444H21.227v9.877H14.187v-4.168a8.062,8.062,0,0,0-.473-2.819,6.287,6.287,0,0,0-1.366-2.206,6.171,6.171,0,0,0-2.136-1.436,7.213,7.213,0,0,0-2.749-.508,6.945,6.945,0,0,0-3.013.648A7.162,7.162,0,0,0,2.1,248.6a8.416,8.416,0,0,0-1.542,2.61A8.841,8.841,0,0,0,0,254.344,8.052,8.052,0,0,0,.42,256.9a6.03,6.03,0,0,0,1.367,2.259,6.929,6.929,0,0,0,2.434,1.612,9.544,9.544,0,0,0,3.625.612H25.22Zm-15.026,9.877H7.742a5.217,5.217,0,0,1-1.419-.192,3.236,3.236,0,0,1-1.209-.631,3.158,3.158,0,0,1-.84-1.121,3.945,3.945,0,0,1-.316-1.663,3.846,3.846,0,0,1,.28-1.506,3.7,3.7,0,0,1,.736-1.138,3.358,3.358,0,0,1,1.033-.735,2.882,2.882,0,0,1,1.208-.263,2.548,2.548,0,0,1,2.225,1.068,5.283,5.283,0,0,1,.753,3.065Z" transform="translate(0 -169.371)"/>
    <path id="Path_25802" data-name="Path 25802" d="M37.238,274.091a2.064,2.064,0,0,0-1.506.583,1.921,1.921,0,0,0-.6,1.431,1.963,1.963,0,0,0,.6,1.466,2.238,2.238,0,0,0,3.012,0,1.965,1.965,0,0,0,.6-1.466,1.923,1.923,0,0,0-.6-1.431,2.064,2.064,0,0,0-1.506-.583" transform="translate(-12.999 -179.695)"/>
    <path id="Path_25803" data-name="Path 25803" d="M90.435,239.755a2,2,0,0,0,0-2.873,2.075,2.075,0,0,0-1.511-.6,2.035,2.035,0,0,0-1.477.6,2,2,0,0,0,0,2.873,2.032,2.032,0,0,0,1.477.595,2.072,2.072,0,0,0,1.511-.595" transform="translate(-32.127 -165.709)"/>
    <path id="Path_25804" data-name="Path 25804" d="M100.474,251.521H95.36a2.8,2.8,0,0,1-2.434-.911,3.881,3.881,0,0,1-.648-2.311V230.5H88.25V249.7a2.846,2.846,0,0,1-.262,1.331,1.064,1.064,0,0,1-1.034.49H80.789a19.722,19.722,0,0,1-2.453-.105,12.263,12.263,0,0,0,3.013-3.923,8.564,8.564,0,0,0,.771-3.293,2.752,2.752,0,0,0-.42-1.384,4.319,4.319,0,0,0-1.261-1.314,7,7,0,0,0-2.137-.963,11.359,11.359,0,0,0-3.082-.368,11.137,11.137,0,0,0-2.312.246,15.234,15.234,0,0,0-2.259.665,14.913,14.913,0,0,0-2.084.98,12.677,12.677,0,0,0-1.752,1.191l.14,2.8a5.8,5.8,0,0,0,.525,1.069q.386.648.91,1.366t1.157,1.453a17.235,17.235,0,0,0,1.261,1.331,8.221,8.221,0,0,1-1.016.175,11.709,11.709,0,0,1-1.365.07H61.594v-4.168a8.365,8.365,0,0,0-.455-2.819,6.219,6.219,0,0,0-1.331-2.206,5.993,5.993,0,0,0-2.119-1.437,7.412,7.412,0,0,0-2.82-.508,6.826,6.826,0,0,0-2.995.648,7.222,7.222,0,0,0-2.329,1.769,8.158,8.158,0,0,0-1.524,2.61,9.087,9.087,0,0,0-.543,3.135A8.035,8.035,0,0,0,47.9,251.1a6.144,6.144,0,0,0,1.348,2.259,6.737,6.737,0,0,0,2.417,1.612,9.639,9.639,0,0,0,3.66.612h2.347a4.171,4.171,0,0,1-.438,1.909,2.953,2.953,0,0,1-1.086,1.121,4.419,4.419,0,0,1-1.559.543,11.846,11.846,0,0,1-1.856.14q-.666,0-1.576-.07t-1.927-.21l-.28,3.923a18.67,18.67,0,0,0,1.927.228q.875.052,1.681.052a13.486,13.486,0,0,0,3.538-.438,8.047,8.047,0,0,0,2.8-1.348,6.452,6.452,0,0,0,1.892-2.365,9.082,9.082,0,0,0,.805-3.485h6.831a13.933,13.933,0,0,0,3.064-.35,10.173,10.173,0,0,0,2.89-1.121,12.145,12.145,0,0,0,2.417.981,13.4,13.4,0,0,0,3.924.49h6.409a5.366,5.366,0,0,0,2.557-.578,3.96,3.96,0,0,0,1.681-1.734,5.318,5.318,0,0,0,1.419,1.594,3.87,3.87,0,0,0,2.434.718h9.211V230.5h-3.958Zm-42.838,0H55.184a5.223,5.223,0,0,1-1.418-.192,3.234,3.234,0,0,1-1.209-.631,3.154,3.154,0,0,1-.84-1.121,3.95,3.95,0,0,1-.316-1.664,3.845,3.845,0,0,1,.28-1.506,3.677,3.677,0,0,1,.735-1.138,3.359,3.359,0,0,1,1.033-.735,2.889,2.889,0,0,1,1.208-.263,2.568,2.568,0,0,1,2.189,1.068,5.1,5.1,0,0,1,.788,3.065Zm20.386-5.394a7.009,7.009,0,0,1-.77,1.3,9.214,9.214,0,0,1-1.174,1.3,8.5,8.5,0,0,1-1.453,1.085,8.635,8.635,0,0,1-1.313-1.12,18.156,18.156,0,0,1-1.208-1.366,15.9,15.9,0,0,1-.946-1.3,7.236,7.236,0,0,1-.525-.91,7.127,7.127,0,0,1,2.1-.789,11,11,0,0,1,2.451-.3c.373,0,.742.017,1.1.052a7.717,7.717,0,0,1,1,.158,2.158,2.158,0,0,1,.736.3.565.565,0,0,1,.28.473,2.819,2.819,0,0,1-.28,1.12" transform="translate(-17.565 -163.57)"/>
    <rect id="Rectangle_20363" data-name="Rectangle 20363" width="3.958" height="25.079" transform="translate(92.612 66.935)"/>
    <path id="Path_25805" data-name="Path 25805" d="M224.666,274.091a2.1,2.1,0,0,0-1.511.583,1.9,1.9,0,0,0-.608,1.431,1.945,1.945,0,0,0,.608,1.466,2.093,2.093,0,0,0,1.511.583,2.048,2.048,0,0,0,1.476-.583,1.944,1.944,0,0,0,.609-1.466,1.9,1.9,0,0,0-.609-1.431,2.051,2.051,0,0,0-1.476-.583" transform="translate(-82.334 -179.695)"/>
    <path id="Path_25806" data-name="Path 25806" d="M212.078,256.289a4.92,4.92,0,0,1-.7-1.225,6.337,6.337,0,0,1-.368-1.349q-.1-.683-.175-1.384a12.383,12.383,0,0,0-.6-2.592,6.2,6.2,0,0,0-1.173-2.049,5.106,5.106,0,0,0-1.857-1.331,6.587,6.587,0,0,0-2.61-.473,11.021,11.021,0,0,0-1.629.122q-.823.123-1.576.3t-1.419.386q-.666.21-1.086.385l1.016,3.853a9.711,9.711,0,0,1,2.119-.736,8.781,8.781,0,0,1,1.838-.245,2.714,2.714,0,0,1,2.032.718,4.165,4.165,0,0,1,.875,2.5,6.752,6.752,0,0,0,.718,2.575,10.284,10.284,0,0,0,.859,1.348H196.332a3.5,3.5,0,0,1-1.663-.333,2.61,2.61,0,0,1-.928-.788,2.2,2.2,0,0,1-.386-.928,5.334,5.334,0,0,1-.07-.753v-.981a9.292,9.292,0,0,0-.508-3.117,6.653,6.653,0,0,0-3.8-4.046,7.842,7.842,0,0,0-3.081-.578,6.988,6.988,0,0,0-3.136.683,7.144,7.144,0,0,0-2.329,1.8,8.087,8.087,0,0,0-1.453,2.575,8.9,8.9,0,0,0-.508,2.96v3.432h-1.26a5.925,5.925,0,0,0-4.274,1.576,6.155,6.155,0,0,0-1.646,4.658v9.6h3.993V264.24a3.951,3.951,0,0,1,.543-2.434,2.05,2.05,0,0,1,1.665-.648h7.705a10.924,10.924,0,0,0,3.906-.648,5.89,5.89,0,0,0,2.75-2.119,5.925,5.925,0,0,0,1.8,1.944,4.5,4.5,0,0,0,2.645.823h16.917V257.27a4.085,4.085,0,0,1-1.138-.981m-23.538-.175a3.359,3.359,0,0,1-2.75.911H182.5v-3.082a6.594,6.594,0,0,1,.28-2.067,3.82,3.82,0,0,1,.753-1.366,2.715,2.715,0,0,1,1.1-.754A4,4,0,0,1,186,249.53a2.936,2.936,0,0,1,2.417,1.033,4.406,4.406,0,0,1,.84,2.855,4.3,4.3,0,0,1-.718,2.7" transform="translate(-63.37 -169.144)"/>
    <path id="Path_25807" data-name="Path 25807" d="M308.353,251.521H303.24a2.8,2.8,0,0,1-2.435-.911,3.887,3.887,0,0,1-.648-2.311V230.5h-4.028V249.7a2.839,2.839,0,0,1-.263,1.331,1.062,1.062,0,0,1-1.033.49h-2.964a1.3,1.3,0,0,0-.223-.035h-1.261a3.69,3.69,0,0,1-1.664-.313,2.555,2.555,0,0,1-.928-.749,2.229,2.229,0,0,1-.4-.922,4.688,4.688,0,0,1-.088-.8,9.179,9.179,0,0,0-1.8-6.056,6.4,6.4,0,0,0-5.2-2.158,7.029,7.029,0,0,0-5.166,2.21,7.4,7.4,0,0,0-1.506,2.436,8.495,8.495,0,0,0-.543,3.08,6.452,6.452,0,0,1-.175,1.653,2.728,2.728,0,0,1-.473,1.01,1.445,1.445,0,0,1-.684.488,2.564,2.564,0,0,1-.771.122h-1.365a1.076,1.076,0,0,0-.267.035h-2.535a19.582,19.582,0,0,1-2.452-.105,12.25,12.25,0,0,0,3.012-3.923,8.562,8.562,0,0,0,.77-3.293,2.745,2.745,0,0,0-.42-1.384,4.308,4.308,0,0,0-1.261-1.313,6.992,6.992,0,0,0-2.137-.964,11.382,11.382,0,0,0-3.082-.367,11.135,11.135,0,0,0-2.312.245,15.187,15.187,0,0,0-2.259.665,14.887,14.887,0,0,0-2.084.98,12.726,12.726,0,0,0-1.751,1.191l.14,2.8a5.793,5.793,0,0,0,.525,1.069q.387.648.911,1.366t1.156,1.453a17.361,17.361,0,0,0,1.26,1.331,8.193,8.193,0,0,1-1.015.175,11.725,11.725,0,0,1-1.367.07h-5.779V230.5h-3.994v25.079h9.772a13.94,13.94,0,0,0,3.065-.35,10.18,10.18,0,0,0,2.89-1.121,12.093,12.093,0,0,0,2.417.981,13.366,13.366,0,0,0,3.923.49h4.448a3.4,3.4,0,0,0,2.067-.671,4.489,4.489,0,0,0,1.4-1.7,6.431,6.431,0,0,0,2.154,1.837,6.931,6.931,0,0,0,3.31.706q.84,0,1.646-.071a6.111,6.111,0,0,0,1.542-.335,5.012,5.012,0,0,0,1.436-.83,6.393,6.393,0,0,0,1.331-1.555,4.555,4.555,0,0,0,4.2,2.616h4.729a5.366,5.366,0,0,0,2.557-.578,3.961,3.961,0,0,0,1.681-1.734,5.317,5.317,0,0,0,1.418,1.594,3.874,3.874,0,0,0,2.435.718h9.212V230.5h-3.958Zm-44.309-5.394a7,7,0,0,1-.77,1.3,9.279,9.279,0,0,1-1.174,1.3,8.565,8.565,0,0,1-1.454,1.086,8.7,8.7,0,0,1-1.312-1.121,18.152,18.152,0,0,1-1.209-1.366,16.048,16.048,0,0,1-.946-1.3,7.233,7.233,0,0,1-.524-.91,7.135,7.135,0,0,1,2.1-.789,11,11,0,0,1,2.452-.3q.56,0,1.1.052a7.625,7.625,0,0,1,1,.158,2.155,2.155,0,0,1,.735.3.563.563,0,0,1,.28.473,2.806,2.806,0,0,1-.28,1.12m18.687,4.577a3.567,3.567,0,0,1-4.938,0,3.829,3.829,0,0,1-.789-2.458,4.843,4.843,0,0,1,.263-1.639,4.094,4.094,0,0,1,.7-1.255,2.989,2.989,0,0,1,1.034-.8,2.932,2.932,0,0,1,1.261-.279,2.864,2.864,0,0,1,1.226.279,3.009,3.009,0,0,1,1.033.8,4.372,4.372,0,0,1,.718,1.255,4.576,4.576,0,0,1,.28,1.639,3.833,3.833,0,0,1-.789,2.458" transform="translate(-90.52 -163.57)"/>
    <path id="Path_25808" data-name="Path 25808" d="M361.683,127.753a7.11,7.11,0,0,0,1.87-.257c-.106.22-.224.484-.348.785a40.1,40.1,0,0,0-3.117,15.065c0,.132,0,.268.007.4-9.256-12.667-18.043-23.962-18.043-23.962L356.3,106.31q-2.811,6.612-2.813,11.145a11.121,11.121,0,0,0,2.549,7.4,7.176,7.176,0,0,0,5.648,2.9" transform="translate(-98.285 -67.323)" fill="#0f2837"/>
    <path id="Path_25809" data-name="Path 25809" d="M406.413,176.147q-5.836-.066-8.479-3.675a10.494,10.494,0,0,1-1.841-6.22q0-3.95,2.19-11.592a8.536,8.536,0,0,0,.26-1.313,15.737,15.737,0,0,0,5.563-3.961c.572-.623,1.141-1.247,1.713-1.867q1.095,16.123,1.093,18.916a64.153,64.153,0,0,1-.345,7.126,14.316,14.316,0,0,0-.154,2.585" transform="translate(-132.507 -93.42)" fill="#0f2837"/>
    <path id="Path_25810" data-name="Path 25810" d="M393.325,88.247q.182,2.591.348,4.958-2.74,2.949-3.04,3.249-4.7,4.373-8.262,4.368a4.225,4.225,0,0,1-3.565-1.661,6.455,6.455,0,0,1-1.2-4.107,28.285,28.285,0,0,1,2.153-9.146q.776-2.085,1.273-3.543L392.192,71.81q.44,6.623,1.133,16.437" transform="translate(-120.798 -45.475)" fill="#0f2837"/>
    <path id="Path_25811" data-name="Path 25811" d="M452.1,50.985c-.147-.011-.293-.015-.444-.015q-9.077.006-20.577,12.454c-.473.51-.924,1-1.357,1.467q-.148-2.118-.319-4.434-.77-10.573-1.188-16.4l1.32-1.251,1.639-1.551c0-.007,7.357-7.346,7.357-7.346,1.991,2.993,4.2,5.868,6.495,8.688s4.709,5.615,7.074,8.387" transform="translate(-152.848 -21.474)" fill="#0f2837"/>
    <path id="Path_25812" data-name="Path 25812" d="M468.469,112.1a74.42,74.42,0,0,0-10.059,3.5c-.425.143-1.243.462-1.35.462h0a25.233,25.233,0,0,0-4.049-6.15q-2.558-2.756-4.76-2.758-2.915.006-5.541,3.117a11.682,11.682,0,0,0-2.773,7.709q0,5.738,8.38,5.736a19.554,19.554,0,0,0,6.036-.722,6.95,6.95,0,0,1,.425,2.336q0,1.562-4.958,6.293a64.059,64.059,0,0,1-11.482,8.846q-7.03,4.258-12.131,4.445a19.845,19.845,0,0,0,.891-1.929,41.852,41.852,0,0,0,2.721-15.7q0-2.145-.921-15.359,2.134-2.327,4.272-4.661,8.983-9.055,15.942-9.062a6.12,6.12,0,0,1,5.714,3.359c.264.484.448.722.554.719s.246-.235.462-.719a10.029,10.029,0,0,0,.792-3.026q5.853,6.843,11.838,13.562" transform="translate(-151.575 -62.187)" fill="#0f2837"/>
    <path id="Path_25813" data-name="Path 25813" d="M476.484,140.02q2.129.005,4.614,3.231a15.281,15.281,0,0,1-3.407.422q-4.329,0-4.327-2.035,0-1.612,3.121-1.617" transform="translate(-181.44 -88.67)" fill="#0f2837"/>
    <path id="Path_25814" data-name="Path 25814" d="M464.892,156.144c-.55.576-1.078,1.141-1.584,1.7a144.224,144.224,0,0,0-20.1,19.506c-7.015,8.387-13.851,18.641-14.486,29.9-.011.2-.209.22-.271.033-1.056-3.462-5.761-10.918-11.563-19.308a13.568,13.568,0,0,0,2.428.209q6.948,0,16.231-7.008A75.684,75.684,0,0,0,447.1,170.282a18.42,18.42,0,0,0,3.539-6.656,16.852,16.852,0,0,0,1-5.094l1.342-.579q6.6-2.613,9.469-2.622a3.2,3.2,0,0,1,2.446.814" transform="translate(-145.673 -98.366)" fill="#0f2837"/>
    <path id="Path_25815" data-name="Path 25815" d="M452.44,174.325a2.362,2.362,0,0,0-1.716-1.045q-1.21-.033-1.749,3.132-.3,1.716-.572,3.433a10.728,10.728,0,0,1-.708-1.749q-1.854-3.57-3.535-3.5-.875,0-.7,1.885c.044.268.381.572,1.008.909a3.009,3.009,0,0,0,1.144.469,1.164,1.164,0,0,0,.235-.3,6.471,6.471,0,0,1,1.852,3.128c.315,1.034.616,1.562.91,1.584q.3.033.722-3.587t1.4-3.616a1.148,1.148,0,0,1,.891.554,3.029,3.029,0,0,1,.389.554c.2,0,.348-.268.436-.807.114-.539.114-.884,0-1.042" transform="translate(-162.482 -109.732)" fill="#52a39d"/>
    <path id="Path_25816" data-name="Path 25816" d="M445.759,139.882a3.369,3.369,0,0,1-.594-1.154,2.206,2.206,0,0,1,1.149-2.416c.011-.007,0-.058-.013-.134a10.083,10.083,0,0,0-1,.5,4.293,4.293,0,0,0-.919.885,5.105,5.105,0,0,0-.9,3.789,2.918,2.918,0,0,0,.756,1.675,1.584,1.584,0,0,0,1.716.38,1.7,1.7,0,0,0,.7-2.067,5.759,5.759,0,0,0-.9-1.461" transform="translate(-162.481 -86.236)" fill="#52a39d"/>
    <path id="Path_25817" data-name="Path 25817" d="M421.224,17q0,1.694-3.26-2.028c-.257-.352-.385-.2-.385.458q0,.193.5,7.151l-3.972,3.752q-.748-11.3-.748-13.312a13.912,13.912,0,0,0-1.148-6.051q0-1.331,2.145-6.355c.183-.407.334-.612.458-.616.158,0,.334.22.539.653q.611,1.3,2.839,7.2,2.338,6.134,2.725,7.544a6.476,6.476,0,0,1,.3,1.606" transform="translate(-142.716 0)" fill="#52a39d"/>
    <path id="Path_25818" data-name="Path 25818" d="M448.091,61.828c-.055,0-.154.128-.3.381a6.269,6.269,0,0,1-.444.7.874.874,0,0,1-.66.3,1.112,1.112,0,0,1-1.02-.7,4.618,4.618,0,0,1-.172-2.952q.809-3.482,1.236-4.738a3.247,3.247,0,0,0,.213-.935c0-.114-.029-.176-.088-.191q-.231,0-.616.957a28.7,28.7,0,0,0-1.4,4.694,15.362,15.362,0,0,0-.319,2.637,4.724,4.724,0,0,0,.722,2.527,1.162,1.162,0,0,0,1.064.554c.836,0,1.445-.7,1.826-2.083.213-.766.2-1.148-.044-1.148" transform="translate(-163.176 -34)" fill="#52a39d"/>
    <path id="Path_25819" data-name="Path 25819" d="M410.651,180.648c-.055,0-.154.128-.3.381a5.332,5.332,0,0,1-.447.7.87.87,0,0,1-.656.3,1.112,1.112,0,0,1-1.019-.7,4.593,4.593,0,0,1-.172-2.952q.809-3.482,1.232-4.738a3.13,3.13,0,0,0,.213-.935c0-.114-.029-.176-.084-.191q-.237,0-.616.957a28.36,28.36,0,0,0-1.4,4.694,15.364,15.364,0,0,0-.319,2.633,4.7,4.7,0,0,0,.722,2.53,1.156,1.156,0,0,0,1.06.554c.836,0,1.445-.7,1.83-2.083.213-.766.2-1.148-.044-1.148" transform="translate(-139.467 -109.245)" fill="#52a39d"/>
    <path id="Path_25820" data-name="Path 25820" d="M397.561,122.449a10.071,10.071,0,0,0-4.654-.455,19.7,19.7,0,0,0-1.6,2.072c-.092.139-.106.227-.044.275a.417.417,0,0,0,.271,0,8.622,8.622,0,0,1,2.3.022,5.838,5.838,0,0,1,2.281.455q-2.624,1.254-4.217,1.984c-.121.062-.169.132-.136.205s.114.106.249.092a11.475,11.475,0,0,0,3.715-.73,5.077,5.077,0,0,0,1.584-1.379,3.161,3.161,0,0,0,.946-1.742c0-.4-.235-.664-.7-.8" transform="translate(-129.427 -77.183)" fill="#52a39d"/>
  </g>
</svg>
