<svg id="Component_213_1" data-name="Component 213 – 1" xmlns="http://www.w3.org/2000/svg" xmlns:xlink="http://www.w3.org/1999/xlink" width="246.71" height="342.601" viewBox="0 0 246.71 342.601">
  <defs>
    <linearGradient id="linear-gradient" x1="0.5" x2="0.5" y2="1" gradientUnits="objectBoundingBox">
      <stop offset="0" stop-color="#5f958f"/>
      <stop offset="0.256" stop-color="#4d7d7b"/>
      <stop offset="0.509" stop-color="#2d5258"/>
      <stop offset="1" stop-color="#0f2837" stop-opacity="0"/>
    </linearGradient>
    <clipPath id="clip-path">
      <rect id="Rectangle_20367" data-name="Rectangle 20367" width="246.71" height="342.601" fill="url(#linear-gradient)"/>
    </clipPath>
  </defs>
  <g id="Group_27048" data-name="Group 27048" clip-path="url(#clip-path)">
    <path id="Path_25846" data-name="Path 25846" d="M94.68,177.258q.64.9,0,3.98-.516,3.083-1.669,3.082a11.61,11.61,0,0,0-1.474-2.121,4.42,4.42,0,0,0-3.4-2.117q-3.727,0-5.327,13.8t-2.761,13.676q-1.672-.13-3.468-6.035a24.8,24.8,0,0,0-7.062-11.941,4.75,4.75,0,0,1-.9,1.156q-.77.13-4.366-1.8T60.4,185.476q-.64-7.189,2.7-7.191,6.419-.254,13.481,13.354a40.185,40.185,0,0,0,2.7,6.677q1.026-6.549,2.182-13.1,2.052-12.072,6.677-11.941,3.467.13,6.548,3.98" transform="translate(24.053 69.125)" fill="url(#linear-gradient)"/>
    <path id="Path_25847" data-name="Path 25847" d="M69.2,150.308a12.86,12.86,0,0,1-2.268-4.4c-.94-3.865,1.133-7.245,4.381-9.218.042-.027-.017-.22-.048-.512a38.549,38.549,0,0,0-3.806,1.918,16.315,16.315,0,0,0-3.507,3.376,19.467,19.467,0,0,0-3.436,14.452,11.123,11.123,0,0,0,2.885,6.39,6.043,6.043,0,0,0,6.547,1.452c2.753-1.286,3.639-5.005,2.669-7.884a21.979,21.979,0,0,0-3.418-5.572" transform="translate(24.053 54.323)" fill="url(#linear-gradient)"/>
    <path id="Path_25848" data-name="Path 25848" d="M226.039,140.313q-10.448.025-46.163,14.5c-1.617.548-4.748,1.754-5.151,1.754h-.008a96.65,96.65,0,0,0-15.446-23.453Q149.5,122.6,141.106,122.6q-11.1.015-21.135,11.885A44.568,44.568,0,0,0,109.4,163.9q0,21.884,31.959,21.871,14.915.013,23.026-2.746a26.6,26.6,0,0,1,1.626,8.907q0,5.955-18.918,24.01a244.32,244.32,0,0,1-43.8,33.739q-28.1,17.005-48.115,16.993-22.975,0-33.251-14.023-7.034-9.961-7.025-23.729,0-15.069,8.343-44.22a25.955,25.955,0,0,0,1.07-6.213c0-.7-.172-1.156-.54-1.343q-1.066.013-3.781,6.477Q8.109,213.036,8.1,241.085q0,21.844,10.807,36.151Q31.1,293.692,53.246,293.692q26.5,0,61.915-26.722a288.752,288.752,0,0,0,44.076-41.561q8.664-9.984,13.511-25.379,3.8-11.589,3.8-19.44l5.117-2.2q25.156-9.974,36.126-10,6.507.015,9.327,3.107-30.958,32.4-38.257,56.413-2.965,9.974-2.97,12.544c0,.54.137.865.4.941q1.347,0,8.651-13.486,4.2-7.842,15.411-21.194,14.747-17.534,17.309-20.922,5.007-6.6,9.867-13.083a36.617,36.617,0,0,0,5.947-19.56q0-12.811-17.439-12.835M139.5,160.891q-16.506.013-16.506-7.761,0-6.148,11.91-6.159,8.125.013,17.6,12.32a58.238,58.238,0,0,1-13.006,1.6" transform="translate(3.232 48.909)" fill="url(#linear-gradient)"/>
    <path id="Path_25849" data-name="Path 25849" d="M35.236,194.135q-13.9,0-24.287-12.463Q.021,168.635,0,149.866q0-25.884,21.325-67.554Q23.594,78,24.841,77.967c.383.127.575.49.575,1.129q0,4.218-9.268,29.08-9.267,24.893-9.267,39.306,0,11.088,5.176,17.66c3.665,4.772,8.756,7.137,15.318,7.137q15.306,0,35.513-18.769,2.268-2.237,36.088-38.815Q148.411,61.2,187.43,61.157a28.9,28.9,0,0,1,19.237,6.818q8.02,6.805,8.01,15.871a48.073,48.073,0,0,1-3.792,19.77c-.937,2.087-1.6,3.11-1.981,3.089-.469.021-1.256-1-2.387-3.089Q198.528,89.2,181.955,89.172q-29.911.031-68.513,38.964-21.475,23.456-42.97,46.8-18.661,19.2-35.236,19.195" transform="translate(0 24.397)" fill="url(#linear-gradient)"/>
    <path id="Path_25850" data-name="Path 25850" d="M33.458,49.669q0-14-4.381-23.077,0-5.093,8.195-24.243C37.96.793,38.544.015,39.022,0c.6.015,1.272.838,2.049,2.483Q43.4,7.463,51.9,29.943q8.929,23.4,10.394,28.775a25.133,25.133,0,0,1,1.167,6.132q0,6.461-12.443-7.732c-.972-1.346-1.465-.762-1.465,1.75q0,1.345,6.445,89.841,6.44,88.525,6.432,99.593,0,34.055-10.38,59.884a77.564,77.564,0,0,1-3.514,7.6c-1.361,2.332-2.184,2.676-2.483,1.017-.389-1.75-.255-5.445.434-11.1A244.255,244.255,0,0,0,47.8,278.526q0-14-7.164-115.37T33.458,49.669" transform="translate(11.6)" fill="url(#linear-gradient)"/>
    <path id="Path_25851" data-name="Path 25851" d="M75.17,89.106Q72.982,97.049,68.2,97.05a4.418,4.418,0,0,1-4.053-2.107A18.014,18.014,0,0,1,61.391,85.3a58.513,58.513,0,0,1,1.216-10.051,108.957,108.957,0,0,1,5.35-17.912q1.458-3.647,2.35-3.647c.214.055.325.3.325.729a12.155,12.155,0,0,1-.811,3.566q-1.622,4.782-4.7,18.076-1.381,7.537.648,11.266A4.256,4.256,0,0,0,69.657,90a3.318,3.318,0,0,0,2.514-1.135,22.076,22.076,0,0,0,1.7-2.675q.808-1.458,1.135-1.459,1.377,0,.162,4.377" transform="translate(24.491 21.417)" fill="url(#linear-gradient)"/>
    <path id="Path_25852" data-name="Path 25852" d="M37.727,207.925q-2.189,7.942-6.972,7.943a4.418,4.418,0,0,1-4.053-2.107,18.014,18.014,0,0,1-2.754-9.646,58.512,58.512,0,0,1,1.216-10.051,108.957,108.957,0,0,1,5.35-17.912q1.458-3.647,2.35-3.647c.214.055.325.3.325.729a12.155,12.155,0,0,1-.811,3.566q-1.622,4.782-4.7,18.076-1.381,7.537.648,11.266a4.256,4.256,0,0,0,3.89,2.675,3.318,3.318,0,0,0,2.514-1.135,22.074,22.074,0,0,0,1.7-2.675q.808-1.458,1.135-1.459,1.377,0,.162,4.377" transform="translate(9.554 68.817)" fill="url(#linear-gradient)"/>
    <path id="Path_25853" data-name="Path 25853" d="M27.076,123.6q-4.612,2.088-14.175,2.782c-.522.059-.839-.059-.957-.347s.059-.55.522-.783q6.085-2.78,16.089-7.565-1.481-1.133-8.7-1.74-6.87-.609-8.784-.087a1.567,1.567,0,0,1-1.044,0c-.229-.173-.173-.522.175-1.044a74.555,74.555,0,0,1,6.087-7.914q6.956-1.393,17.741,1.739,2.694.783,2.7,3.044,0,2.436-3.609,6.652T27.076,123.6" transform="translate(3.946 42.477)" fill="url(#linear-gradient)"/>
  </g>
</svg>
