<svg xmlns="http://www.w3.org/2000/svg" width="375.87" height="255.205" viewBox="0 0 375.87 255.205">
  <g id="Group_24516" data-name="Group 24516" transform="translate(-148.213 -253.828)" style="mix-blend-mode: hard-light;isolation: isolate">
    <path id="Path_23250" data-name="Path 23250" d="M98.093,102.993a15.69,15.69,0,0,0,5.31,9.715c2.852,2.335,6.74,3.368,11.79,3.368a19.654,19.654,0,0,0,6.219-1.033,16.079,16.079,0,0,0,5.054-2.852,14.609,14.609,0,0,0,3.5-4.405,11.22,11.22,0,0,0,1.3-5.443,10.781,10.781,0,0,0-1.17-5.57,9.167,9.167,0,0,0-2.459-2.851,9.265,9.265,0,0,0-2.463-1.293c-.777-.26-1.165-.516-1.165-.777V83.691c0-.388,0-.649.128-.777h.133a5.194,5.194,0,0,1,.777.256,17.46,17.46,0,0,0,1.814,1.037c.777.388,1.554.909,2.458,1.3a18.738,18.738,0,0,0,2.852,1.037,7.417,7.417,0,0,0,2.331.388h.388a8.067,8.067,0,0,0,4.405-1.426,7.515,7.515,0,0,0,2.335-2.979,11.687,11.687,0,0,0,1.033-3.628c.133-1.293.388-2.331.521-3.368.128-.388.26-.649.644-.777h.133c.26,0,.516.256.649.777a16.216,16.216,0,0,1,.516,2.852V79.8a6.414,6.414,0,0,1-.128,1.558,6,6,0,0,0,3.24-1.686,8.22,8.22,0,0,0,1.81-2.852,13.52,13.52,0,0,0,.777-3.107,11.448,11.448,0,0,1,.521-2.591c0-.26.256-.388.516-.516h.133c.256,0,.388.128.516.516.128.649.26,1.426.388,2.591a14.282,14.282,0,0,1,.128,2.2v.649a19.5,19.5,0,0,1-.644,4.794,14.712,14.712,0,0,1-1.686,4.145,11.592,11.592,0,0,1-2.591,2.979,8.58,8.58,0,0,1-3.5,1.554,14.58,14.58,0,0,1-5.57,3.884,18.827,18.827,0,0,1-4.405,1.037v1.558a42.874,42.874,0,0,1-2.075,13.988,37.456,37.456,0,0,1-2.331,5.182,25.044,25.044,0,0,1-3.628,4.666,18.2,18.2,0,0,1-5.182,3.5,19.9,19.9,0,0,1-7.124,1.558h-1.3a19.345,19.345,0,0,1-6.087-1.037,15.733,15.733,0,0,1-6.219-3.889,22.074,22.074,0,0,1-4.533-6.608,27.388,27.388,0,0,1-2.335-9.327c0-1.033-.128-1.942-.128-2.979a34.026,34.026,0,0,1,1.165-9.327A39.861,39.861,0,0,1,99,82.265a60.261,60.261,0,0,1,6.48-8.938c2.463-2.852,5.054-5.959,7.773-9.2a46.993,46.993,0,0,1,3.368-3.756c1.165-1.3,2.2-2.591,3.24-3.756a46.607,46.607,0,0,0,2.979-4.017,49.948,49.948,0,0,0,2.463-4.405,115.28,115.28,0,0,1-19.175,17.1A109.916,109.916,0,0,1,83.713,77.86a2.54,2.54,0,0,1-1.293.26c-.26,0-.521,0-.649-.26-.128-.128-.26-.256-.26-.388s.133-.388.521-.516a184.327,184.327,0,0,0,20.6-14.381,133.462,133.462,0,0,0,18.009-17.232,98.81,98.81,0,0,0,13.6-20.468,82.183,82.183,0,0,0,7.773-24.1c.128-.521.256-.777.644-.777s.521.256.521.777c-.521,4.922-1.3,9.976-2.075,15.03a115.383,115.383,0,0,1-3.756,15.414,103.231,103.231,0,0,1-6.087,15.418,92.076,92.076,0,0,1-9.2,15.025,55.912,55.912,0,0,1-5.182,6.091c-1.947,1.942-3.889,4.017-5.7,6.087-1.942,2.075-3.756,4.277-5.57,6.48a45.711,45.711,0,0,0-4.661,6.864,30.075,30.075,0,0,0-2.852,7.385,18.429,18.429,0,0,0-.516,4.666,36.537,36.537,0,0,0,.516,3.756" transform="translate(362.062 369.423)" fill="#eff3f6" style="mix-blend-mode: overlay;isolation: isolate"/>
    <path id="Path_23251" data-name="Path 23251" d="M76.62,195.49a9.175,9.175,0,0,0-5.826,2.075,25.652,25.652,0,0,0-5.054,5.443A45.35,45.35,0,0,0,61.6,210.52c-1.165,2.719-2.2,5.57-3.112,8.422a55.36,55.36,0,0,0-1.942,8.029,45.71,45.71,0,0,0-.649,6.352c1.037-.521,2.979-1.814,5.831-3.756a69.771,69.771,0,0,0,8.55-7.257,50.5,50.5,0,0,0,7.773-9.587,19.666,19.666,0,0,0,3.368-10.492,11.1,11.1,0,0,0-1.033-4.538,3.94,3.94,0,0,0-3.761-2.2m-5.7-13.86c.128-2.463.26-4.922.26-7.513a93.285,93.285,0,0,0-1.558-17.1,148.136,148.136,0,0,0-6.087-23.187c-2.591-7.385-5.57-14.509-8.678-21.249-3.24-6.736-6.352-12.955-9.2-18.526-2.979-5.57-5.443-10.62-7.517-15.158a34.7,34.7,0,0,1-3.5-11.141,87.293,87.293,0,0,0-.516,9.976c0,1.554,0,3.24.128,4.666A83.339,83.339,0,0,0,36.073,95.61c.9,4.145,2.07,8.161,3.368,12.174,1.426,3.889,2.852,7.773,4.533,11.534,3.368,7.513,6.091,14.376,8.294,20.468s3.884,11.657,5.182,16.711a104.91,104.91,0,0,1,2.331,13.992c.128,1.554.128,3.107.128,4.661a44.525,44.525,0,0,1-.516,7.257,42.523,42.523,0,0,1-2.852,10.753,85.471,85.471,0,0,1-4.922,10.625q-1.748,3.105-2.331,3.107h-.133c-.128,0-.128-.256-.128-.516a11,11,0,0,1,.777-2.979c1.293-4.145,2.463-8.034,3.5-11.4a55.5,55.5,0,0,0,1.947-10.1c.128-1.686.256-3.368.256-5.182s-.128-3.5-.256-5.315a81.542,81.542,0,0,0-2.463-12.567c-1.3-4.794-3.107-10.232-5.443-16.583-2.331-6.215-5.182-13.6-8.81-22.149q-2.522-6.025-4.661-12.439a108.388,108.388,0,0,1-3.5-13.472,128.738,128.738,0,0,1-1.942-15.03C28.3,77.212,28.3,75.27,28.3,73.2a105.319,105.319,0,0,1,.516-10.88,65.589,65.589,0,0,1,2.591-13.737A110.891,110.891,0,0,1,36.2,35.107c1.165-2.331,1.942-3.5,2.591-3.5h.133c.516.128.777.9.777,2.2v1.293c-.133,2.591-.521,5.831-.909,9.587a20.307,20.307,0,0,0-.128,2.852,34.65,34.65,0,0,0,1.426,9.327,141.822,141.822,0,0,0,6.736,17.749C49.677,81.1,52.785,87.7,56.025,94.7s6.475,14.12,9.715,21.377a171,171,0,0,1,7.9,21.894,118.6,118.6,0,0,1,4.149,21.505c.128,1.814.256,3.628.256,5.443A54.755,54.755,0,0,1,76.1,179.556a12.013,12.013,0,0,1,2.075-.128,7.712,7.712,0,0,1,4.922,1.554,11.513,11.513,0,0,1,3.884,5.7,28.234,28.234,0,0,1,1.3,8.55v.777a53.741,53.741,0,0,1-.777,9.066,74.661,74.661,0,0,1-2.2,9.587,46.681,46.681,0,0,1-2.979,7.773,70.489,70.489,0,0,1-5.57,9.459,58.151,58.151,0,0,1-6.091,7.385,44.542,44.542,0,0,1-7.252,5.826,62.09,62.09,0,0,1-8.81,4.666,32.21,32.21,0,0,1-.777,4.405c-.26,1.554-.649,3.24-.909,4.794-.256,1.682-.516,3.24-.777,4.922a27.881,27.881,0,0,0-.388,4.277c0,.388-.128.644-.388.644a1.323,1.323,0,0,1-.9-.644,25.069,25.069,0,0,1-1.686-5.315c-.26-1.554-.516-3.107-.649-4.533,0-.9-.128-1.814-.128-2.719V250.29l-36.663.649c-1.165,0-1.686-.128-1.686-.388v-.128c.133-.261.649-.521,1.686-.909,2.2-.777,5.182-1.682,8.678-2.719s7.129-2.075,10.885-3.24,7.252-2.2,10.753-3.368a45.55,45.55,0,0,0,8.034-3.368,148.487,148.487,0,0,1,2.847-19.175,136.63,136.63,0,0,1,4.926-16.711A62.785,62.785,0,0,1,63.8,188.366c2.331-3.5,4.794-5.7,7.124-6.736" transform="translate(284.357 231.217)" fill="#eff3f6" style="mix-blend-mode: overlay;isolation: isolate"/>
    <path id="Path_23259" data-name="Path 23259" d="M104.361,25.724c-.133.777-.521,1.942-1.037,3.756-.133.9-.388,1.293-.521,1.293a5.737,5.737,0,0,1-1.033-.516,45.677,45.677,0,0,0-4.017-2.979A52.7,52.7,0,0,1,87.517,39.323c-4.145,3.628-7.257,5.054-9.2,4.538-1.426-.388-2.458-2.591-2.979-6.74-.516-3.756-2.2-5.57-4.794-5.57-1.293,0-2.847,1.037-4.661,2.979s-2.851,2.852-3.112,2.724c-.388-.388,0-1.554,1.037-3.756a12.989,12.989,0,0,1,4.405-5.443c2.2-1.686,4.017-2.591,5.443-2.591,2.331.128,3.884,1.682,4.794,4.533a18.369,18.369,0,0,0,2.2,6.736c.516.521,2.2-.256,5.05-2.459A50.21,50.21,0,0,0,94,25.979a11.931,11.931,0,0,0-3.24-1.037c-3.24-1.293-4.794-3.107-4.794-5.57,0-2.847,1.293-5.7,4.017-8.55s5.05-4.273,7-4.273c2.979,0,4.533,2.459,4.533,7.513a28.524,28.524,0,0,1-1.554,8.55c2.979,1.165,4.405,2.2,4.405,3.112m-6.868-9.459c0-2.463-1.037-3.756-3.24-3.756-3.235,0-4.794,1.293-4.794,4.017,0,.9,2.335,2.2,7,4.017a10.351,10.351,0,0,0,1.037-4.277" transform="translate(380.947 345.553)" fill="#eff3f6" style="mix-blend-mode: overlay;isolation: isolate"/>
    <path id="Path_23261" data-name="Path 23261" d="M44.357,49.26q-7,3.3-21.377,4.277c-.777,0-1.165-.133-1.293-.521a1.056,1.056,0,0,1,.516-1.293C28.422,49,36.583,45.243,46.559,40.449c-1.426-1.293-5.831-2.2-13.083-2.719-7-.521-11.273-.649-13.088-.26a2.9,2.9,0,0,1-1.554,0c-.388-.128-.26-.649.26-1.293a112.23,112.23,0,0,1,9.066-12.05c7-1.426,15.935-.516,26.687,2.719,2.724.781,4.017,2.2,4.017,4.538,0,2.459-1.814,5.826-5.443,9.976-3.756,4.273-6.736,6.864-9.066,7.9" transform="translate(138.605 366.043)" fill="#eff3f6" style="mix-blend-mode: overlay;isolation: isolate"/>
    <path id="Path_23262" data-name="Path 23262" d="M58.559,64.283c0,3.368-.649,5.831-1.942,7.513-2.463,2.591-5.443,2.852-9.2.521a6.563,6.563,0,0,1-3.107-3.368c-.521-1.165-1.165-1.165-1.686-.26-2.075,4.405-4.794,6.736-8.034,6.736A7.277,7.277,0,0,1,30.446,74a11.069,11.069,0,0,1-3.628-5.05A39.18,39.18,0,0,1,25.4,54.435c-1.426.133-2.2-.128-2.2-1.165a11.836,11.836,0,0,1,1.682-3.884,16.026,16.026,0,0,1,1.942-3.112c1.814,0,2.724,2.335,2.463,7-.128,5.054,0,8.81.649,11.4a4.655,4.655,0,0,0,4.922,3.889,7.635,7.635,0,0,0,4.922-2.2,6.332,6.332,0,0,0,2.075-5.57c-.516-5.443-1.037-8.555-1.426-9.331a3.566,3.566,0,0,1-.26-2.586,25.387,25.387,0,0,0,.781-3.112c.388-1.165.9-1.165,1.682-.26a19.309,19.309,0,0,1,1.686,4.149,44.186,44.186,0,0,1,.777,8.938,10.3,10.3,0,0,0,1.942,6.087c2.075,2.2,4.145,2.852,6.475,1.942a1.779,1.779,0,0,0,1.17-1.682c0-1.3-1.558-5.443-4.794-12.567a6.243,6.243,0,0,1-.521-2.852,1.107,1.107,0,0,1,.26-.777c.777-3.107,1.426-4.794,1.942-4.794s.909.909,1.165,2.851c0,.9,1.037,3.628,3.112,8.034,1.814,4.145,2.719,7.252,2.719,9.455" transform="translate(187.099 288.646)" fill="#eff3f6" style="mix-blend-mode: overlay;isolation: isolate"/>
    <path id="Path_23266" data-name="Path 23266" d="M133.9,113.12q-3.5,8.164-11.274,8.162c-2.847,0-5.05-.649-6.475-2.075-2.979-3.107-4.533-6.475-4.533-10.1,0-2.591.777-6.087,2.2-10.625a77.721,77.721,0,0,1,8.55-18.782c1.554-2.591,2.847-3.889,3.756-3.889.388.128.516.388.516.909a8.129,8.129,0,0,1-1.293,3.624c-1.814,3.368-4.277,9.72-7.513,19.047-1.426,5.182-1.037,9.2,1.033,11.918a7.45,7.45,0,0,0,6.091,2.852,6.7,6.7,0,0,0,4.017-1.165,27.923,27.923,0,0,0,2.979-2.852q1.165-1.556,1.554-1.554c1.682-.133,1.814,1.426.388,4.533" transform="translate(269.282 219.705)" fill="#eff3f6" style="mix-blend-mode: overlay;isolation: isolate"/>
    <path id="Path_23273" data-name="Path 23273" d="M49.809,77.8c0,5.57-1.554,8.289-4.794,8.289a30.475,30.475,0,0,1-10.1-2.2c-6.219,4.273-13.732,9.583-22.414,15.8-2.331,1.554-1.033,2.463,4.017,2.463,3.889,0,8.81-1.165,14.641-3.5s9.2-4.666,9.976-7a1.335,1.335,0,0,1,.777-1.037c.516-.133.777.128.777.777,0,1.814-1.165,4.017-3.5,6.736-5.831,6.736-14.253,10.1-25.133,10.1q-5.833,0-5.831-3.5c0-4.405,1.293-7.9,3.756-10.492,3.628-3.372,9.715-7.517,18.4-12.311-2.851-1.426-4.277-3.235-4.277-5.57a23.255,23.255,0,0,1,.909-5.31c.644-2.463.9-3.889.644-4.277-.128-1.033-.256-1.814-.256-2.2,0-3.368,1.037-5.05,3.235-5.05,2.724,0,6.352,1.942,11.013,5.826Q49.811,71.97,49.809,77.8m-2.591,1.426c0-.516-1.037-1.942-3.24-4.145s-3.5-3.368-4.012-3.368c-1.037,0-1.558,1.814-1.558,5.31,0,.516,1.3,1.165,4.017,1.814,3.112.9,4.794,1.037,4.794.388M36.726,74.433c0-2.979-1.942-4.533-5.831-4.533-1.554,0-2.458,1.033-2.458,2.979,0,2.851,2.07,4.273,6.087,4.273,1.554-.128,2.2-1.037,2.2-2.719" transform="translate(270.732 323.882)" fill="#eff3f6" style="mix-blend-mode: overlay;isolation: isolate"/>
    <path id="Path_23274" data-name="Path 23274" d="M118.952,59.412c0,13.088-3.756,19.7-11.4,19.7q-10.1,0-24.1-5.054c-14.769,10.1-32.518,22.67-53.246,37.44-5.443,3.756-2.331,5.7,9.459,5.7,9.327,0,20.856-2.719,34.588-8.289C87.987,103.46,95.893,97.889,98.1,92.451a4.109,4.109,0,0,1,1.942-2.591q1.94-.589,1.942,1.942c0,4.273-2.719,9.455-8.289,15.807Q72.7,131.7,34.1,131.705c-9.331,0-13.992-2.724-13.992-8.294,0-10.62,2.979-18.786,8.938-24.745C37.464,90.637,52.1,80.917,72.829,69.52c-6.736-3.368-10.1-7.773-10.1-13.344,0-2.591.777-6.74,2.2-12.7s2.075-9.327,1.554-10.1c-.388-2.591-.649-4.277-.649-5.054,0-8.029,2.6-12.046,7.645-12.046q9.521,0,26.038,13.992c12.827,10.1,19.435,19.819,19.435,29.146m-6.347,3.24c0-1.293-2.591-4.533-7.645-9.848S96.67,44.9,95.5,44.9c-2.591,0-3.761,4.277-3.761,12.695,0,1.3,3.112,2.724,9.459,4.405,7.513,2.075,11.4,2.335,11.4.649M87.859,51.123c0-7.124-4.666-10.753-13.992-10.753-3.756,0-5.7,2.331-5.7,7,0,6.736,4.922,10.1,14.637,10.1,3.372,0,5.054-2.075,5.054-6.347" transform="translate(148.266 367.294)" fill="#eff3f6" style="mix-blend-mode: overlay;isolation: isolate"/>
    <path id="Path_23277" data-name="Path 23277" d="M173.986,49.457c.306-.308.076-.46-.614-.46-2.453,0-4.063-.076-4.907-.154-1.3,0-6.135-.614-14.493-1.918a143.652,143.652,0,0,0-17.1-1.764c-6.979,0-12.194,2.532-15.645,7.517-2.3,3.143-3.373,6.056-3.373,8.742,0,2.453.306,3.065,3.987,4.447a20.672,20.672,0,0,1,5.215,2.913l.23.154a9.39,9.39,0,0,0-3.146-10.581,4.324,4.324,0,0,1-1.993-3.222c0-1.382,1.152-2.837,3.527-4.447,3.146-2.072,7.363-3.067,12.578-3.067,1.993,0,6.979.46,15.028,1.455s12.423,1.458,13.113,1.458c4.371,0,6.9-.384,7.593-1.074" transform="translate(263.045 312.375)" fill="#eff3f6" style="mix-blend-mode: overlay;isolation: isolate"/>
    <path id="Path_23278" data-name="Path 23278" d="M.238,95.079c-.382-.075-.3-.3.228-.61,1.827-1.217,3.047-2.056,3.582-2.512q1.483-.915,9.827-8.456a126.343,126.343,0,0,1,11.882-9.676c5.181-3.426,10.284-4.036,15.314-1.98a14.051,14.051,0,0,1,6.78,4.8c1.217,1.83,1.217,2.44-.838,5.181a16.349,16.349,0,0,0-2.437,4.724l-.078.228a8.436,8.436,0,0,1-2.819-9.445,3.607,3.607,0,0,0-.15-3.354q-1.028-1.483-4.8-1.6c-3.354,0-6.933,1.217-10.818,3.808-1.448.992-4.952,3.732-10.512,8.456C9.837,89.288,6.865,91.8,6.333,92.107c-3.2,2.212-5.256,3.125-6.094,2.972" transform="translate(275.477 370.621)" fill="#eff3f6" style="mix-blend-mode: overlay;isolation: isolate"/>
    <path id="Path_23282" data-name="Path 23282" d="M123.932,119.57c1.426-1.686,3.107-3.5,4.794-5.182s3.5-3.5,5.443-5.182c1.81-1.686,3.756-3.372,5.7-5.182,1.942-1.686,3.756-3.5,5.7-5.315a3.692,3.692,0,0,1-.777-.128,17.4,17.4,0,0,1-1.942-.388,13.652,13.652,0,0,1-2.591-1.037,11.055,11.055,0,0,1-2.719-1.814,9.411,9.411,0,0,1-2.075-2.847,10.494,10.494,0,0,1-.9-4.277V87.7a12.951,12.951,0,0,1,.9-5.05,14.561,14.561,0,0,1,2.719-4.533,11.05,11.05,0,0,1,4.277-2.979,12.823,12.823,0,0,1,5.443-1.17,5.692,5.692,0,0,1,3.5,1.17,9.163,9.163,0,0,1,2.463,2.979,18.4,18.4,0,0,1,1.554,4.017,18.069,18.069,0,0,1,.388,3.624v.521a42.007,42.007,0,0,0,4.794-3.756c1.293-1.17,2.463-2.335,3.5-3.372a17.921,17.921,0,0,0,2.591-3.107c.781-1.037,1.558-1.942,2.335-2.852.128-.128.128-.128.256-.128h.133c.128,0,.256.128.388.26a2.879,2.879,0,0,1,.388,1.814v.256a27.627,27.627,0,0,1-.261,3.24c-.26,1.426-.516,2.852-.777,4.405a71.9,71.9,0,0,1-5.7,7.124c-2.075,2.331-4.017,4.666-5.831,6.736a24.273,24.273,0,0,0-.128,2.979,14.3,14.3,0,0,0,.128,2.335,20.676,20.676,0,0,0,.9,4.922v.388c0,.26-.128.388-.256.388h-.133a.688.688,0,0,1-.516-.388,14.466,14.466,0,0,1-1.3-2.463c-.388-.9-.644-1.682-.9-2.458s-.388-1.3-.521-1.814c-.128-.388-.256-.649-.384-.649-1.947,1.942-4.149,3.889-6.352,5.959-2.331,2.075-4.661,4.149-7,6.091-2.331,2.07-4.661,4.017-6.864,5.826-2.2,1.947-4.145,3.628-5.831,5.315a27.643,27.643,0,0,0-3.884,4.273,4.778,4.778,0,0,0-1.165,2.724v.388a1.7,1.7,0,0,0,.9,1.033,3.566,3.566,0,0,0,1.682.393h2.075a6.554,6.554,0,0,0,2.2-.393,33.428,33.428,0,0,0,9.976-3.756,55.041,55.041,0,0,0,9.2-6.347,90.531,90.531,0,0,0,8.034-7.773c2.458-2.719,4.661-5.438,6.736-8.034q2.913-3.88,5.05-6.992c1.3-2.075,2.335-3.761,2.979-4.926.521-1.033.909-1.421,1.17-1.421h.128c.26.128.388.644.388,1.421V94.3a26.238,26.238,0,0,1-2.463,9.331A67.589,67.589,0,0,1,165.389,114a88.99,88.99,0,0,1-8.682,10.232,87.812,87.812,0,0,1-9.976,8.81A58.339,58.339,0,0,1,136.5,139.26a22.462,22.462,0,0,1-9.327,2.331H126.4a7.477,7.477,0,0,1-1.686-.128,5.009,5.009,0,0,1-2.591-1.037,5.921,5.921,0,0,1-1.942-2.591,9.79,9.79,0,0,1-.649-3.756v-1.037a30.254,30.254,0,0,1,.9-6.864,19,19,0,0,1,1.426-3.372,9.963,9.963,0,0,1,2.075-3.235m16.323-32.779a4.676,4.676,0,0,0,3.107,1.686,27.63,27.63,0,0,0,3.24.256h.777a22.412,22.412,0,0,0,4.926-.644,4.7,4.7,0,0,0-1.947-3.756,8.248,8.248,0,0,0-3.884-1.426h-.521a7.163,7.163,0,0,0-3.624.9,4.556,4.556,0,0,0-2.075,2.979" transform="translate(261.373 324.802)" fill="#eff3f6" style="mix-blend-mode: overlay;isolation: isolate"/>
    <path id="Path_23297" data-name="Path 23297" d="M9.047,60.618l9.066-15.286L31.2,52.845,22.263,68.131Z" transform="translate(273.667 256.032)" fill="#eff3f6" style="mix-blend-mode: overlay;isolation: isolate"/>
    <path id="Path_23298" data-name="Path 23298" d="M9.047,69.775l9.066-15.286L31.2,62,22.263,77.288Z" transform="translate(273.667 297.334)" fill="#eff3f6" style="mix-blend-mode: overlay;isolation: isolate"/>
    <path id="Path_23299" data-name="Path 23299" d="M9.047,65.211l9.066-15.286L31.2,57.31,22.263,72.6Z" transform="translate(273.667 275.734)" fill="#eff3f6" style="mix-blend-mode: overlay;isolation: isolate"/>
  </g>
</svg>
